M48
;DRILL file {Pcbnew (2013-mar-13)-testing} date Fri 20 Sep 2013 10:55:22 AM CEST
;FORMAT={-:-/ absolute / inch / decimal}
FMAT,2
INCH,TZ
T1C0.008
T2C0.020
T3C0.039
T4C0.059
T5C0.100
%
G90
G05
M72
T1
X2.449Y-3.371
X2.449Y-5.671
X2.485Y-1.773
X2.485Y-4.073
X2.541Y-3.371
X2.541Y-5.671
X2.612Y-1.773
X2.612Y-4.073
X2.621Y-3.542
X2.621Y-5.842
X2.632Y-3.465
X2.632Y-5.765
X2.666Y-1.658
X2.666Y-3.958
X2.695Y-2.1775
X2.695Y-2.3675
X2.695Y-2.485
X2.695Y-2.59
X2.695Y-4.4775
X2.695Y-4.6675
X2.695Y-4.785
X2.695Y-4.89
X2.711Y-3.542
X2.711Y-5.842
X2.72Y-1.92
X2.72Y-4.22
X2.7306Y-2.78
X2.7306Y-5.08
X2.74Y-2.9498
X2.74Y-3.03
X2.74Y-5.2498
X2.74Y-5.33
X2.755Y-1.5975
X2.755Y-3.8975
X2.775Y-2.045
X2.775Y-4.345
X2.785Y-2.555
X2.785Y-4.855
X2.8025Y-3.5275
X2.8025Y-5.8275
X2.8036Y-2.2202
X2.8036Y-4.5202
X2.81Y-3.4265
X2.81Y-5.7265
X2.8295Y-3.1008
X2.8295Y-5.4008
X2.8325Y-2.5075
X2.8325Y-4.8075
X2.836Y-2.7307
X2.836Y-5.0307
X2.844Y-2.9384
X2.844Y-5.2384
X2.8473Y-2.6052
X2.8473Y-4.9052
X2.86Y-1.7025
X2.86Y-2.7775
X2.86Y-4.0025
X2.86Y-5.0775
X2.8762Y-2.7912
X2.8762Y-5.0912
X2.8825Y-1.5975
X2.8825Y-3.8975
X2.885Y-2.07
X2.885Y-4.37
X2.8858Y-2.7164
X2.8858Y-5.0164
X2.8923Y-2.7694
X2.8923Y-5.0694
X2.9021Y-2.211
X2.9021Y-4.511
X2.906Y-2.61
X2.906Y-4.91
X2.9071Y-3.3197
X2.9071Y-5.6197
X2.93Y-3.5275
X2.93Y-5.8275
X2.9497Y-2.6099
X2.9497Y-4.9099
X2.9651Y-3.2371
X2.9651Y-5.5371
X2.9708Y-2.2341
X2.9708Y-4.5341
X2.9714Y-2.341
X2.9714Y-4.641
X2.981Y-2.811
X2.981Y-2.8425
X2.981Y-2.937
X2.981Y-2.9685
X2.981Y-3.
X2.981Y-3.0945
X2.981Y-3.189
X2.981Y-5.111
X2.981Y-5.1425
X2.981Y-5.237
X2.981Y-5.2685
X2.981Y-5.3
X2.981Y-5.3945
X2.981Y-5.489
X2.981Y-3.0315
X2.981Y-5.3315
X2.992Y-1.575
X2.992Y-3.875
X2.9968Y-2.484
X2.9968Y-4.784
X3.001Y-2.167
X3.001Y-4.467
X3.008Y-3.39
X3.008Y-5.69
X3.0125Y-2.9685
X3.0125Y-3.0945
X3.0125Y-3.126
X3.0125Y-3.189
X3.0125Y-3.5275
X3.0125Y-5.2685
X3.0125Y-5.3945
X3.0125Y-5.426
X3.0125Y-5.489
X3.0125Y-5.8275
X3.0268Y-3.282
X3.0268Y-5.582
X3.03Y-2.762
X3.03Y-5.062
X3.034Y-1.8145
X3.034Y-4.1145
X3.0345Y-1.9115
X3.0345Y-4.2115
X3.0421Y-2.2894
X3.0421Y-4.5894
X3.0425Y-2.1075
X3.0425Y-4.4075
X3.044Y-2.8425
X3.044Y-2.9055
X3.044Y-3.0945
X3.044Y-3.126
X3.044Y-5.1425
X3.044Y-5.2055
X3.044Y-5.3945
X3.044Y-5.426
X3.044Y-3.1575
X3.044Y-5.4575
X3.05Y-1.9521
X3.05Y-4.2521
X3.066Y-1.997
X3.066Y-4.297
X3.0755Y-3.1575
X3.0755Y-5.4575
X3.0755Y-3.189
X3.0755Y-5.489
X3.0925Y-3.5275
X3.0925Y-5.8275
X3.0997Y-2.9867
X3.0997Y-5.2867
X3.1Y-2.9425
X3.1Y-5.2425
X3.1128Y-2.3363
X3.1128Y-4.6363
X3.1195Y-3.0712
X3.1195Y-5.3712
X3.125Y-2.19
X3.125Y-4.49
X3.1291Y-3.2405
X3.1291Y-5.5405
X3.1304Y-3.1026
X3.1304Y-5.4026
X3.134Y-2.418
X3.134Y-4.718
X3.1377Y-1.8734
X3.1377Y-4.1734
X3.14Y-1.995
X3.14Y-4.295
X3.1415Y-2.0725
X3.1415Y-4.3725
X3.163Y-1.576
X3.163Y-3.876
X3.1726Y-2.2852
X3.1726Y-4.5852
X3.175Y-3.5275
X3.175Y-5.8275
X3.1775Y-2.9425
X3.1775Y-2.9875
X3.1775Y-5.2425
X3.1775Y-5.2875
X3.18Y-2.475
X3.18Y-2.536
X3.18Y-2.6085
X3.18Y-4.775
X3.18Y-4.836
X3.18Y-4.9085
X3.184Y-3.1045
X3.184Y-5.4045
X3.1857Y-2.741
X3.1857Y-5.041
X3.2014Y-2.2492
X3.2014Y-4.5492
X3.2092Y-1.87
X3.2092Y-4.17
X3.21Y-2.065
X3.21Y-2.139
X3.21Y-4.365
X3.21Y-4.439
X3.2109Y-3.0791
X3.2109Y-5.3791
X3.2158Y-1.7
X3.2158Y-4.
X3.2168Y-3.3202
X3.2168Y-5.6202
X3.217Y-3.1185
X3.217Y-5.4185
X3.23Y-3.478
X3.23Y-5.778
X3.2338Y-3.2226
X3.2338Y-5.5226
X3.2362Y-3.0581
X3.2362Y-5.3581
X3.244Y-2.9215
X3.244Y-5.2215
X3.2505Y-2.608
X3.2505Y-4.908
X3.2525Y-2.554
X3.2525Y-4.854
X3.253Y-2.456
X3.253Y-4.756
X3.2535Y-2.204
X3.2535Y-2.323
X3.2535Y-4.504
X3.2535Y-4.623
X3.254Y-3.0745
X3.254Y-5.3745
X3.255Y-1.995
X3.255Y-4.295
X3.2587Y-3.2267
X3.2587Y-5.5267
X3.265Y-2.09
X3.265Y-4.39
X3.2695Y-2.9925
X3.2695Y-5.2925
X3.27Y-2.751
X3.27Y-5.051
X3.2745Y-2.608
X3.2745Y-4.908
X3.28Y-3.5275
X3.28Y-5.8275
X3.291Y-3.058
X3.291Y-5.358
X3.2937Y-2.9682
X3.2937Y-5.2682
X3.2947Y-1.8718
X3.2947Y-4.1718
X3.296Y-2.874
X3.296Y-2.9055
X3.296Y-5.174
X3.296Y-5.2055
X3.2975Y-3.27
X3.2975Y-5.57
X3.3015Y-3.349
X3.3015Y-5.649
X3.3051Y-2.5849
X3.3051Y-4.8849
X3.3065Y-2.736
X3.3065Y-5.036
X3.32Y-2.7164
X3.32Y-5.0164
X3.3275Y-2.753
X3.3275Y-2.811
X3.3275Y-2.874
X3.3275Y-2.9055
X3.3275Y-5.053
X3.3275Y-5.111
X3.3275Y-5.174
X3.3275Y-5.2055
X3.3343Y-2.1365
X3.3343Y-4.4365
X3.3578Y-2.1484
X3.3578Y-4.4484
X3.359Y-2.937
X3.359Y-3.
X3.359Y-5.237
X3.359Y-5.3
X3.359Y-2.811
X3.359Y-5.111
X3.36Y-3.2725
X3.36Y-5.5725
X3.3625Y-2.515
X3.3625Y-2.575
X3.3625Y-4.815
X3.3625Y-4.875
X3.372Y-1.871
X3.372Y-4.171
X3.3737Y-2.7622
X3.3737Y-5.0622
X3.375Y-1.5756
X3.375Y-3.8756
X3.3908Y-2.7208
X3.3908Y-5.0208
X3.3954Y-2.8755
X3.3954Y-5.1755
X3.397Y-2.951
X3.397Y-5.251
X3.3997Y-2.9827
X3.3997Y-5.2827
X3.415Y-3.2425
X3.415Y-5.5425
X3.4167Y-2.23
X3.4167Y-4.53
X3.42Y-1.995
X3.42Y-2.11
X3.42Y-3.505
X3.42Y-4.295
X3.42Y-4.41
X3.42Y-5.805
X3.4225Y-2.5175
X3.4225Y-2.575
X3.4225Y-4.8175
X3.4225Y-4.875
X3.433Y-2.7145
X3.433Y-5.0145
X3.44Y-3.115
X3.44Y-5.415
X3.441Y-2.7745
X3.441Y-2.843
X3.441Y-5.0745
X3.441Y-5.143
X3.4415Y-2.6515
X3.4415Y-2.924
X3.4415Y-4.9515
X3.4415Y-5.224
X3.4425Y-3.185
X3.4425Y-5.485
X3.45Y-1.9521
X3.45Y-4.2521
X3.4519Y-2.6066
X3.4519Y-4.9066
X3.4675Y-3.2425
X3.4675Y-5.5425
X3.479Y-2.709
X3.479Y-5.009
X3.493Y-3.0062
X3.493Y-5.3062
X3.5075Y-3.185
X3.5075Y-5.485
X3.5178Y-3.3935
X3.5178Y-5.6935
X3.5275Y-2.155
X3.5275Y-2.5725
X3.5275Y-4.455
X3.5275Y-4.8725
X3.53Y-2.515
X3.53Y-4.815
X3.535Y-3.505
X3.535Y-5.805
X3.5355Y-2.7205
X3.5355Y-5.0205
X3.536Y-2.6475
X3.536Y-4.9475
X3.5365Y-2.84
X3.5365Y-5.14
X3.5475Y-1.9025
X3.5475Y-4.2025
X3.5521Y-2.9849
X3.5521Y-5.2849
X3.555Y-3.115
X3.555Y-5.415
X3.5785Y-2.926
X3.5785Y-5.226
X3.5812Y-2.7734
X3.5812Y-5.0734
X3.5875Y-2.9993
X3.5875Y-5.2993
X3.5987Y-3.0385
X3.5987Y-5.3385
X3.6Y-2.515
X3.6Y-2.5725
X3.6Y-4.815
X3.6Y-4.8725
X3.6025Y-2.035
X3.6025Y-4.335
X3.605Y-1.6425
X3.605Y-3.9425
X3.61Y-1.7875
X3.61Y-4.0875
X3.6262Y-2.3339
X3.6262Y-4.6339
X3.6415Y-2.9255
X3.6415Y-5.2255
X3.6455Y-3.02
X3.6455Y-5.32
X3.6575Y-2.575
X3.6575Y-4.875
X3.6695Y-2.9576
X3.6695Y-5.2576
X3.6703Y-2.9804
X3.6703Y-5.2804
X3.6775Y-2.155
X3.6775Y-4.455
X3.6805Y-2.9
X3.6805Y-5.2
X3.6982Y-2.8881
X3.6982Y-5.1881
X3.71Y-1.905
X3.71Y-4.205
X3.73Y-2.5975
X3.73Y-4.8975
X3.74Y-2.84
X3.74Y-5.14
X3.7505Y-3.34
X3.7505Y-5.64
X3.7625Y-2.035
X3.7625Y-4.335
X3.77Y-1.62
X3.77Y-3.92
X3.7725Y-2.445
X3.7725Y-2.53
X3.7725Y-4.745
X3.7725Y-4.83
X3.7931Y-2.648
X3.7931Y-4.948
X3.8025Y-1.715
X3.8025Y-4.015
X3.8182Y-2.5163
X3.8182Y-4.8163
X3.831Y-3.547
X3.831Y-5.847
X3.833Y-3.473
X3.833Y-5.773
X3.8375Y-2.155
X3.8375Y-4.455
X3.8525Y-2.455
X3.8525Y-4.755
X3.853Y-3.2212
X3.853Y-5.5212
X3.875Y-3.1361
X3.875Y-5.4361
X3.8775Y-2.36
X3.8775Y-4.66
X3.9194Y-2.3977
X3.9194Y-4.6977
X3.9375Y-2.445
X3.9375Y-2.505
X3.9375Y-4.745
X3.9375Y-4.805
X3.942Y-3.289
X3.942Y-5.589
X3.9575Y-3.145
X3.9575Y-5.445
X3.958Y-3.345
X3.958Y-5.645
X3.9725Y-2.298
X3.9725Y-4.598
X4.008Y-2.4685
X4.008Y-4.7685
X4.0215Y-2.549
X4.0215Y-4.849
X4.0275Y-2.4175
X4.0275Y-4.7175
X4.0375Y-2.1975
X4.0375Y-4.4975
X4.055Y-2.7295
X4.055Y-5.0295
X4.0625Y-1.6575
X4.0625Y-1.73
X4.0625Y-1.8225
X4.0625Y-1.9075
X4.0625Y-2.78
X4.0625Y-3.9575
X4.0625Y-4.03
X4.0625Y-4.1225
X4.0625Y-4.2075
X4.0625Y-5.08
X4.07Y-2.9248
X4.07Y-3.211
X4.07Y-5.2248
X4.07Y-5.511
X4.0752Y-2.409
X4.0752Y-4.709
X4.0825Y-2.52
X4.0825Y-2.6075
X4.0825Y-4.82
X4.0825Y-4.9075
X4.095Y-2.8375
X4.095Y-5.1375
X4.115Y-1.93
X4.115Y-4.23
X4.119Y-2.69
X4.119Y-4.99
X4.12Y-2.455
X4.12Y-4.755
X4.125Y-2.1975
X4.125Y-4.4975
X4.1255Y-2.63
X4.1255Y-4.93
X4.14Y-2.0975
X4.14Y-4.3975
X4.15Y-1.72
X4.15Y-1.77
X4.15Y-1.8225
X4.15Y-4.02
X4.15Y-4.07
X4.15Y-4.1225
X4.1575Y-2.7675
X4.1575Y-2.8375
X4.1575Y-5.0675
X4.1575Y-5.1375
X4.17Y-2.9195
X4.17Y-3.211
X4.17Y-5.2195
X4.17Y-5.511
X4.1725Y-1.6475
X4.1725Y-3.9475
X4.1825Y-2.5175
X4.1825Y-4.8175
X4.1875Y-2.4325
X4.1875Y-4.7325
X4.1975Y-1.72
X4.1975Y-1.77
X4.1975Y-1.8225
X4.1975Y-4.02
X4.1975Y-4.07
X4.1975Y-4.1225
X4.2014Y-3.0786
X4.2014Y-5.3786
X4.2075Y-1.585
X4.2075Y-3.885
X4.2175Y-2.0075
X4.2175Y-4.3075
X4.22Y-1.9225
X4.22Y-4.2225
X4.251Y-1.635
X4.251Y-3.935
X4.332Y-3.316
X4.332Y-5.616
X4.374Y-1.723
X4.374Y-4.023
X4.437Y-3.317
X4.437Y-5.617
X4.449Y-1.723
X4.449Y-4.023
X4.749Y-3.371
X4.749Y-5.671
X4.785Y-1.773
X4.785Y-4.073
X4.841Y-3.371
X4.841Y-5.671
X4.912Y-1.773
X4.912Y-4.073
X4.921Y-3.542
X4.921Y-5.842
X4.932Y-3.465
X4.932Y-5.765
X4.966Y-1.658
X4.966Y-3.958
X4.995Y-2.1775
X4.995Y-2.3675
X4.995Y-2.485
X4.995Y-2.59
X4.995Y-4.4775
X4.995Y-4.6675
X4.995Y-4.785
X4.995Y-4.89
X5.011Y-3.542
X5.011Y-5.842
X5.02Y-1.92
X5.02Y-4.22
X5.0306Y-2.78
X5.0306Y-5.08
X5.04Y-2.9498
X5.04Y-3.03
X5.04Y-5.2498
X5.04Y-5.33
X5.055Y-1.5975
X5.055Y-3.8975
X5.075Y-2.045
X5.075Y-4.345
X5.085Y-2.555
X5.085Y-4.855
X5.1025Y-3.5275
X5.1025Y-5.8275
X5.1036Y-2.2202
X5.1036Y-4.5202
X5.11Y-3.4265
X5.11Y-5.7265
X5.1295Y-3.1008
X5.1295Y-5.4008
X5.1325Y-2.5075
X5.1325Y-4.8075
X5.136Y-2.7307
X5.136Y-5.0307
X5.144Y-2.9384
X5.144Y-5.2384
X5.1473Y-2.6052
X5.1473Y-4.9052
X5.16Y-1.7025
X5.16Y-2.7775
X5.16Y-4.0025
X5.16Y-5.0775
X5.1762Y-2.7912
X5.1762Y-5.0912
X5.1825Y-1.5975
X5.1825Y-3.8975
X5.185Y-2.07
X5.185Y-4.37
X5.1858Y-2.7164
X5.1858Y-5.0164
X5.1923Y-2.7694
X5.1923Y-5.0694
X5.2021Y-2.211
X5.2021Y-4.511
X5.206Y-2.61
X5.206Y-4.91
X5.2071Y-3.3197
X5.2071Y-5.6197
X5.23Y-3.5275
X5.23Y-5.8275
X5.2497Y-2.6099
X5.2497Y-4.9099
X5.2651Y-3.2371
X5.2651Y-5.5371
X5.2708Y-2.2341
X5.2708Y-4.5341
X5.2714Y-2.341
X5.2714Y-4.641
X5.281Y-2.811
X5.281Y-2.8425
X5.281Y-2.937
X5.281Y-2.9685
X5.281Y-3.
X5.281Y-3.0945
X5.281Y-3.189
X5.281Y-5.111
X5.281Y-5.1425
X5.281Y-5.237
X5.281Y-5.2685
X5.281Y-5.3
X5.281Y-5.3945
X5.281Y-5.489
X5.281Y-3.0315
X5.281Y-5.3315
X5.292Y-1.575
X5.292Y-3.875
X5.2968Y-2.484
X5.2968Y-4.784
X5.301Y-2.167
X5.301Y-4.467
X5.308Y-3.39
X5.308Y-5.69
X5.3125Y-2.9685
X5.3125Y-3.0945
X5.3125Y-3.126
X5.3125Y-3.189
X5.3125Y-3.5275
X5.3125Y-5.2685
X5.3125Y-5.3945
X5.3125Y-5.426
X5.3125Y-5.489
X5.3125Y-5.8275
X5.3268Y-3.282
X5.3268Y-5.582
X5.33Y-2.762
X5.33Y-5.062
X5.334Y-1.8145
X5.334Y-4.1145
X5.3345Y-1.9115
X5.3345Y-4.2115
X5.3421Y-2.2894
X5.3421Y-4.5894
X5.3425Y-2.1075
X5.3425Y-4.4075
X5.344Y-2.8425
X5.344Y-2.9055
X5.344Y-3.0945
X5.344Y-3.126
X5.344Y-5.1425
X5.344Y-5.2055
X5.344Y-5.3945
X5.344Y-5.426
X5.344Y-3.1575
X5.344Y-5.4575
X5.35Y-1.9521
X5.35Y-4.2521
X5.366Y-1.997
X5.366Y-4.297
X5.3755Y-3.1575
X5.3755Y-5.4575
X5.3755Y-3.189
X5.3755Y-5.489
X5.3925Y-3.5275
X5.3925Y-5.8275
X5.3997Y-2.9867
X5.3997Y-5.2867
X5.4Y-2.9425
X5.4Y-5.2425
X5.4128Y-2.3363
X5.4128Y-4.6363
X5.4195Y-3.0712
X5.4195Y-5.3712
X5.425Y-2.19
X5.425Y-4.49
X5.4291Y-3.2405
X5.4291Y-5.5405
X5.4304Y-3.1026
X5.4304Y-5.4026
X5.434Y-2.418
X5.434Y-4.718
X5.4377Y-1.8734
X5.4377Y-4.1734
X5.44Y-1.995
X5.44Y-4.295
X5.4415Y-2.0725
X5.4415Y-4.3725
X5.463Y-1.576
X5.463Y-3.876
X5.4726Y-2.2852
X5.4726Y-4.5852
X5.475Y-3.5275
X5.475Y-5.8275
X5.4775Y-2.9425
X5.4775Y-2.9875
X5.4775Y-5.2425
X5.4775Y-5.2875
X5.48Y-2.475
X5.48Y-2.536
X5.48Y-2.6085
X5.48Y-4.775
X5.48Y-4.836
X5.48Y-4.9085
X5.484Y-3.1045
X5.484Y-5.4045
X5.4857Y-2.741
X5.4857Y-5.041
X5.5014Y-2.2492
X5.5014Y-4.5492
X5.5092Y-1.87
X5.5092Y-4.17
X5.51Y-2.065
X5.51Y-2.139
X5.51Y-4.365
X5.51Y-4.439
X5.5109Y-3.0791
X5.5109Y-5.3791
X5.5158Y-1.7
X5.5158Y-4.
X5.5168Y-3.3202
X5.5168Y-5.6202
X5.517Y-3.1185
X5.517Y-5.4185
X5.53Y-3.478
X5.53Y-5.778
X5.5338Y-3.2226
X5.5338Y-5.5226
X5.5362Y-3.0581
X5.5362Y-5.3581
X5.544Y-2.9215
X5.544Y-5.2215
X5.5505Y-2.608
X5.5505Y-4.908
X5.5525Y-2.554
X5.5525Y-4.854
X5.553Y-2.456
X5.553Y-4.756
X5.5535Y-2.204
X5.5535Y-2.323
X5.5535Y-4.504
X5.5535Y-4.623
X5.554Y-3.0745
X5.554Y-5.3745
X5.555Y-1.995
X5.555Y-4.295
X5.5587Y-3.2267
X5.5587Y-5.5267
X5.565Y-2.09
X5.565Y-4.39
X5.5695Y-2.9925
X5.5695Y-5.2925
X5.57Y-2.751
X5.57Y-5.051
X5.5745Y-2.608
X5.5745Y-4.908
X5.58Y-3.5275
X5.58Y-5.8275
X5.591Y-3.058
X5.591Y-5.358
X5.5937Y-2.9682
X5.5937Y-5.2682
X5.5947Y-1.8718
X5.5947Y-4.1718
X5.596Y-2.874
X5.596Y-2.9055
X5.596Y-5.174
X5.596Y-5.2055
X5.5975Y-3.27
X5.5975Y-5.57
X5.6015Y-3.349
X5.6015Y-5.649
X5.6051Y-2.5849
X5.6051Y-4.8849
X5.6065Y-2.736
X5.6065Y-5.036
X5.62Y-2.7164
X5.62Y-5.0164
X5.6275Y-2.753
X5.6275Y-2.811
X5.6275Y-2.874
X5.6275Y-2.9055
X5.6275Y-5.053
X5.6275Y-5.111
X5.6275Y-5.174
X5.6275Y-5.2055
X5.6343Y-2.1365
X5.6343Y-4.4365
X5.6578Y-2.1484
X5.6578Y-4.4484
X5.659Y-2.937
X5.659Y-3.
X5.659Y-5.237
X5.659Y-5.3
X5.659Y-2.811
X5.659Y-5.111
X5.66Y-3.2725
X5.66Y-5.5725
X5.6625Y-2.515
X5.6625Y-2.575
X5.6625Y-4.815
X5.6625Y-4.875
X5.672Y-1.871
X5.672Y-4.171
X5.6737Y-2.7622
X5.6737Y-5.0622
X5.675Y-1.5756
X5.675Y-3.8756
X5.6908Y-2.7208
X5.6908Y-5.0208
X5.6954Y-2.8755
X5.6954Y-5.1755
X5.697Y-2.951
X5.697Y-5.251
X5.6997Y-2.9827
X5.6997Y-5.2827
X5.715Y-3.2425
X5.715Y-5.5425
X5.7167Y-2.23
X5.7167Y-4.53
X5.72Y-1.995
X5.72Y-2.11
X5.72Y-3.505
X5.72Y-4.295
X5.72Y-4.41
X5.72Y-5.805
X5.7225Y-2.5175
X5.7225Y-2.575
X5.7225Y-4.8175
X5.7225Y-4.875
X5.733Y-2.7145
X5.733Y-5.0145
X5.74Y-3.115
X5.74Y-5.415
X5.741Y-2.7745
X5.741Y-2.843
X5.741Y-5.0745
X5.741Y-5.143
X5.7415Y-2.6515
X5.7415Y-2.924
X5.7415Y-4.9515
X5.7415Y-5.224
X5.7425Y-3.185
X5.7425Y-5.485
X5.75Y-1.9521
X5.75Y-4.2521
X5.7519Y-2.6066
X5.7519Y-4.9066
X5.7675Y-3.2425
X5.7675Y-5.5425
X5.779Y-2.709
X5.779Y-5.009
X5.793Y-3.0062
X5.793Y-5.3062
X5.8075Y-3.185
X5.8075Y-5.485
X5.8178Y-3.3935
X5.8178Y-5.6935
X5.8275Y-2.155
X5.8275Y-2.5725
X5.8275Y-4.455
X5.8275Y-4.8725
X5.83Y-2.515
X5.83Y-4.815
X5.835Y-3.505
X5.835Y-5.805
X5.8355Y-2.7205
X5.8355Y-5.0205
X5.836Y-2.6475
X5.836Y-4.9475
X5.8365Y-2.84
X5.8365Y-5.14
X5.8475Y-1.9025
X5.8475Y-4.2025
X5.8521Y-2.9849
X5.8521Y-5.2849
X5.855Y-3.115
X5.855Y-5.415
X5.8785Y-2.926
X5.8785Y-5.226
X5.8812Y-2.7734
X5.8812Y-5.0734
X5.8875Y-2.9993
X5.8875Y-5.2993
X5.8987Y-3.0385
X5.8987Y-5.3385
X5.9Y-2.515
X5.9Y-2.5725
X5.9Y-4.815
X5.9Y-4.8725
X5.9025Y-2.035
X5.9025Y-4.335
X5.905Y-1.6425
X5.905Y-3.9425
X5.91Y-1.7875
X5.91Y-4.0875
X5.9262Y-2.3339
X5.9262Y-4.6339
X5.9415Y-2.9255
X5.9415Y-5.2255
X5.9455Y-3.02
X5.9455Y-5.32
X5.9575Y-2.575
X5.9575Y-4.875
X5.9695Y-2.9576
X5.9695Y-5.2576
X5.9703Y-2.9804
X5.9703Y-5.2804
X5.9775Y-2.155
X5.9775Y-4.455
X5.9805Y-2.9
X5.9805Y-5.2
X5.9982Y-2.8881
X5.9982Y-5.1881
X6.01Y-1.905
X6.01Y-4.205
X6.03Y-2.5975
X6.03Y-4.8975
X6.04Y-2.84
X6.04Y-5.14
X6.0505Y-3.34
X6.0505Y-5.64
X6.0625Y-2.035
X6.0625Y-4.335
X6.07Y-1.62
X6.07Y-3.92
X6.0725Y-2.445
X6.0725Y-2.53
X6.0725Y-4.745
X6.0725Y-4.83
X6.0931Y-2.648
X6.0931Y-4.948
X6.1025Y-1.715
X6.1025Y-4.015
X6.1182Y-2.5163
X6.1182Y-4.8163
X6.131Y-3.547
X6.131Y-5.847
X6.133Y-3.473
X6.133Y-5.773
X6.1375Y-2.155
X6.1375Y-4.455
X6.1525Y-2.455
X6.1525Y-4.755
X6.153Y-3.2212
X6.153Y-5.5212
X6.175Y-3.1361
X6.175Y-5.4361
X6.1775Y-2.36
X6.1775Y-4.66
X6.2194Y-2.3977
X6.2194Y-4.6977
X6.2375Y-2.445
X6.2375Y-2.505
X6.2375Y-4.745
X6.2375Y-4.805
X6.242Y-3.289
X6.242Y-5.589
X6.2575Y-3.145
X6.2575Y-5.445
X6.258Y-3.345
X6.258Y-5.645
X6.2725Y-2.298
X6.2725Y-4.598
X6.308Y-2.4685
X6.308Y-4.7685
X6.3215Y-2.549
X6.3215Y-4.849
X6.3275Y-2.4175
X6.3275Y-4.7175
X6.3375Y-2.1975
X6.3375Y-4.4975
X6.355Y-2.7295
X6.355Y-5.0295
X6.3625Y-1.6575
X6.3625Y-1.73
X6.3625Y-1.8225
X6.3625Y-1.9075
X6.3625Y-2.78
X6.3625Y-3.9575
X6.3625Y-4.03
X6.3625Y-4.1225
X6.3625Y-4.2075
X6.3625Y-5.08
X6.37Y-2.9248
X6.37Y-3.211
X6.37Y-5.2248
X6.37Y-5.511
X6.3752Y-2.409
X6.3752Y-4.709
X6.3825Y-2.52
X6.3825Y-2.6075
X6.3825Y-4.82
X6.3825Y-4.9075
X6.395Y-2.8375
X6.395Y-5.1375
X6.415Y-1.93
X6.415Y-4.23
X6.419Y-2.69
X6.419Y-4.99
X6.42Y-2.455
X6.42Y-4.755
X6.425Y-2.1975
X6.425Y-4.4975
X6.4255Y-2.63
X6.4255Y-4.93
X6.44Y-2.0975
X6.44Y-4.3975
X6.45Y-1.72
X6.45Y-1.77
X6.45Y-1.8225
X6.45Y-4.02
X6.45Y-4.07
X6.45Y-4.1225
X6.4575Y-2.7675
X6.4575Y-2.8375
X6.4575Y-5.0675
X6.4575Y-5.1375
X6.47Y-2.9195
X6.47Y-3.211
X6.47Y-5.2195
X6.47Y-5.511
X6.4725Y-1.6475
X6.4725Y-3.9475
X6.4825Y-2.5175
X6.4825Y-4.8175
X6.4875Y-2.4325
X6.4875Y-4.7325
X6.4975Y-1.72
X6.4975Y-1.77
X6.4975Y-1.8225
X6.4975Y-4.02
X6.4975Y-4.07
X6.4975Y-4.1225
X6.5014Y-3.0786
X6.5014Y-5.3786
X6.5075Y-1.585
X6.5075Y-3.885
X6.5175Y-2.0075
X6.5175Y-4.3075
X6.52Y-1.9225
X6.52Y-4.2225
X6.551Y-1.635
X6.551Y-3.935
X6.632Y-3.316
X6.632Y-5.616
X6.674Y-1.723
X6.674Y-4.023
X6.737Y-3.317
X6.737Y-5.617
X6.749Y-1.723
X6.749Y-4.023
T2
X3.61Y-3.14
X3.61Y-5.44
X3.75Y-2.95
X3.75Y-5.25
X3.85Y-2.95
X3.85Y-5.25
X4.13Y-2.01
X4.13Y-4.31
X5.91Y-3.14
X5.91Y-5.44
X6.05Y-2.95
X6.05Y-5.25
X6.15Y-2.95
X6.15Y-5.25
X6.43Y-2.01
X6.43Y-4.31
T3
X2.5Y-1.9
X2.5Y-2.
X2.5Y-2.1
X2.5Y-2.2
X2.5Y-2.3
X2.5Y-2.4
X2.5Y-2.5
X2.5Y-2.6
X2.5Y-2.7
X2.5Y-2.8
X2.5Y-2.9
X2.5Y-3.
X2.5Y-3.1
X2.5Y-3.2
X2.5Y-4.2
X2.5Y-4.3
X2.5Y-4.4
X2.5Y-4.5
X2.5Y-4.6
X2.5Y-4.7
X2.5Y-4.8
X2.5Y-4.9
X2.5Y-5.
X2.5Y-5.1
X2.5Y-5.2
X2.5Y-5.3
X2.5Y-5.4
X2.5Y-5.5
X2.6Y-1.9
X2.6Y-2.
X2.6Y-2.1
X2.6Y-2.2
X2.6Y-2.3
X2.6Y-2.4
X2.6Y-2.5
X2.6Y-2.6
X2.6Y-2.7
X2.6Y-2.8
X2.6Y-2.9
X2.6Y-3.
X2.6Y-3.1
X2.6Y-3.2
X2.6Y-4.2
X2.6Y-4.3
X2.6Y-4.4
X2.6Y-4.5
X2.6Y-4.6
X2.6Y-4.7
X2.6Y-4.8
X2.6Y-4.9
X2.6Y-5.
X2.6Y-5.1
X2.6Y-5.2
X2.6Y-5.3
X2.6Y-5.4
X2.6Y-5.5
X4.3Y-1.9
X4.3Y-2.
X4.3Y-2.1
X4.3Y-2.2
X4.3Y-2.3
X4.3Y-2.4
X4.3Y-2.5
X4.3Y-2.6
X4.3Y-2.7
X4.3Y-2.8
X4.3Y-2.9
X4.3Y-3.
X4.3Y-3.1
X4.3Y-3.2
X4.3Y-4.2
X4.3Y-4.3
X4.3Y-4.4
X4.3Y-4.5
X4.3Y-4.6
X4.3Y-4.7
X4.3Y-4.8
X4.3Y-4.9
X4.3Y-5.
X4.3Y-5.1
X4.3Y-5.2
X4.3Y-5.3
X4.3Y-5.4
X4.3Y-5.5
X4.4Y-1.9
X4.4Y-2.
X4.4Y-2.1
X4.4Y-2.2
X4.4Y-2.3
X4.4Y-2.4
X4.4Y-2.5
X4.4Y-2.6
X4.4Y-2.7
X4.4Y-2.8
X4.4Y-2.9
X4.4Y-3.
X4.4Y-3.1
X4.4Y-3.2
X4.4Y-4.2
X4.4Y-4.3
X4.4Y-4.4
X4.4Y-4.5
X4.4Y-4.6
X4.4Y-4.7
X4.4Y-4.8
X4.4Y-4.9
X4.4Y-5.
X4.4Y-5.1
X4.4Y-5.2
X4.4Y-5.3
X4.4Y-5.4
X4.4Y-5.5
X4.8Y-1.9
X4.8Y-2.
X4.8Y-2.1
X4.8Y-2.2
X4.8Y-2.3
X4.8Y-2.4
X4.8Y-2.5
X4.8Y-2.6
X4.8Y-2.7
X4.8Y-2.8
X4.8Y-2.9
X4.8Y-3.
X4.8Y-3.1
X4.8Y-3.2
X4.8Y-4.2
X4.8Y-4.3
X4.8Y-4.4
X4.8Y-4.5
X4.8Y-4.6
X4.8Y-4.7
X4.8Y-4.8
X4.8Y-4.9
X4.8Y-5.
X4.8Y-5.1
X4.8Y-5.2
X4.8Y-5.3
X4.8Y-5.4
X4.8Y-5.5
X4.9Y-1.9
X4.9Y-2.
X4.9Y-2.1
X4.9Y-2.2
X4.9Y-2.3
X4.9Y-2.4
X4.9Y-2.5
X4.9Y-2.6
X4.9Y-2.7
X4.9Y-2.8
X4.9Y-2.9
X4.9Y-3.
X4.9Y-3.1
X4.9Y-3.2
X4.9Y-4.2
X4.9Y-4.3
X4.9Y-4.4
X4.9Y-4.5
X4.9Y-4.6
X4.9Y-4.7
X4.9Y-4.8
X4.9Y-4.9
X4.9Y-5.
X4.9Y-5.1
X4.9Y-5.2
X4.9Y-5.3
X4.9Y-5.4
X4.9Y-5.5
X6.6Y-1.9
X6.6Y-2.
X6.6Y-2.1
X6.6Y-2.2
X6.6Y-2.3
X6.6Y-2.4
X6.6Y-2.5
X6.6Y-2.6
X6.6Y-2.7
X6.6Y-2.8
X6.6Y-2.9
X6.6Y-3.
X6.6Y-3.1
X6.6Y-3.2
X6.6Y-4.2
X6.6Y-4.3
X6.6Y-4.4
X6.6Y-4.5
X6.6Y-4.6
X6.6Y-4.7
X6.6Y-4.8
X6.6Y-4.9
X6.6Y-5.
X6.6Y-5.1
X6.6Y-5.2
X6.6Y-5.3
X6.6Y-5.4
X6.6Y-5.5
X6.7Y-1.9
X6.7Y-2.
X6.7Y-2.1
X6.7Y-2.2
X6.7Y-2.3
X6.7Y-2.4
X6.7Y-2.5
X6.7Y-2.6
X6.7Y-2.7
X6.7Y-2.8
X6.7Y-2.9
X6.7Y-3.
X6.7Y-3.1
X6.7Y-3.2
X6.7Y-4.2
X6.7Y-4.3
X6.7Y-4.4
X6.7Y-4.5
X6.7Y-4.6
X6.7Y-4.7
X6.7Y-4.8
X6.7Y-4.9
X6.7Y-5.
X6.7Y-5.1
X6.7Y-5.2
X6.7Y-5.3
X6.7Y-5.4
X6.7Y-5.5
T4
X2.7436Y-1.71
X2.7436Y-4.01
X3.6964Y-1.71
X3.6964Y-4.01
X5.0436Y-1.71
X5.0436Y-4.01
X5.9964Y-1.71
X5.9964Y-4.01
T5
X2.5Y-3.5
X2.5Y-5.8
X4.4Y-1.6
X4.4Y-3.9
X4.8Y-3.5
X4.8Y-5.8
X6.7Y-1.6
X6.7Y-3.9
T0
M30
