G04 (created by PCBNEW (2013-mar-13)-testing) date Fri 20 Sep 2013 10:55:17 AM CEST*
%MOIN*%
G04 Gerber Fmt 3.4, Leading zero omitted, Abs format*
%FSLAX34Y34*%
G01*
G70*
G90*
G04 APERTURE LIST*
%ADD10C,0.005906*%
%ADD11C,0.012000*%
%ADD12C,0.015000*%
%ADD13C,0.148000*%
%ADD14C,0.078740*%
%ADD15R,0.033000X0.053000*%
%ADD16R,0.053000X0.033000*%
%ADD17R,0.063000X0.043000*%
%ADD18R,0.043000X0.063000*%
%ADD19C,0.039496*%
%ADD20R,0.044000X0.044000*%
%ADD21R,0.017843X0.041465*%
%ADD22R,0.041465X0.017843*%
%ADD23R,0.143827X0.143827*%
%ADD24R,0.055244X0.063118*%
%ADD25C,0.067055*%
%ADD26R,0.094600X0.074929*%
%ADD27C,0.027685*%
%ADD28R,0.094614X0.031622*%
%ADD29R,0.094614X0.145795*%
%ADD30C,0.067100*%
%ADD31R,0.067100X0.067100*%
%ADD32R,0.086740X0.126110*%
G04 APERTURE END LIST*
G54D10*
G54D11*
X43634Y-65568D02*
X43291Y-65568D01*
X43462Y-65568D02*
X43462Y-64768D01*
X43405Y-64883D01*
X43348Y-64959D01*
X43291Y-64997D01*
X43834Y-64768D02*
X44205Y-64768D01*
X44005Y-65073D01*
X44091Y-65073D01*
X44148Y-65111D01*
X44177Y-65149D01*
X44205Y-65225D01*
X44205Y-65416D01*
X44177Y-65492D01*
X44148Y-65530D01*
X44091Y-65568D01*
X43920Y-65568D01*
X43862Y-65530D01*
X43834Y-65492D01*
X44577Y-64768D02*
X44634Y-64768D01*
X44691Y-64806D01*
X44720Y-64845D01*
X44748Y-64921D01*
X44777Y-65073D01*
X44777Y-65264D01*
X44748Y-65416D01*
X44720Y-65492D01*
X44691Y-65530D01*
X44634Y-65568D01*
X44577Y-65568D01*
X44520Y-65530D01*
X44491Y-65492D01*
X44462Y-65416D01*
X44434Y-65264D01*
X44434Y-65073D01*
X44462Y-64921D01*
X44491Y-64845D01*
X44520Y-64806D01*
X44577Y-64768D01*
X45034Y-65492D02*
X45062Y-65530D01*
X45034Y-65568D01*
X45005Y-65530D01*
X45034Y-65492D01*
X45034Y-65568D01*
X45434Y-64768D02*
X45491Y-64768D01*
X45548Y-64806D01*
X45577Y-64845D01*
X45605Y-64921D01*
X45634Y-65073D01*
X45634Y-65264D01*
X45605Y-65416D01*
X45577Y-65492D01*
X45548Y-65530D01*
X45491Y-65568D01*
X45434Y-65568D01*
X45377Y-65530D01*
X45348Y-65492D01*
X45320Y-65416D01*
X45291Y-65264D01*
X45291Y-65073D01*
X45320Y-64921D01*
X45348Y-64845D01*
X45377Y-64806D01*
X45434Y-64768D01*
X46005Y-64768D02*
X46062Y-64768D01*
X46120Y-64806D01*
X46148Y-64845D01*
X46177Y-64921D01*
X46205Y-65073D01*
X46205Y-65264D01*
X46177Y-65416D01*
X46148Y-65492D01*
X46120Y-65530D01*
X46062Y-65568D01*
X46005Y-65568D01*
X45948Y-65530D01*
X45920Y-65492D01*
X45891Y-65416D01*
X45862Y-65264D01*
X45862Y-65073D01*
X45891Y-64921D01*
X45920Y-64845D01*
X45948Y-64806D01*
X46005Y-64768D01*
X46577Y-64768D02*
X46634Y-64768D01*
X46691Y-64806D01*
X46720Y-64845D01*
X46748Y-64921D01*
X46777Y-65073D01*
X46777Y-65264D01*
X46748Y-65416D01*
X46720Y-65492D01*
X46691Y-65530D01*
X46634Y-65568D01*
X46577Y-65568D01*
X46520Y-65530D01*
X46491Y-65492D01*
X46462Y-65416D01*
X46434Y-65264D01*
X46434Y-65073D01*
X46462Y-64921D01*
X46491Y-64845D01*
X46520Y-64806D01*
X46577Y-64768D01*
X47491Y-65568D02*
X47491Y-65035D01*
X47491Y-65111D02*
X47520Y-65073D01*
X47577Y-65035D01*
X47662Y-65035D01*
X47720Y-65073D01*
X47748Y-65149D01*
X47748Y-65568D01*
X47748Y-65149D02*
X47777Y-65073D01*
X47834Y-65035D01*
X47920Y-65035D01*
X47977Y-65073D01*
X48005Y-65149D01*
X48005Y-65568D01*
X48291Y-65568D02*
X48291Y-65035D01*
X48291Y-65111D02*
X48320Y-65073D01*
X48377Y-65035D01*
X48462Y-65035D01*
X48520Y-65073D01*
X48548Y-65149D01*
X48548Y-65568D01*
X48548Y-65149D02*
X48577Y-65073D01*
X48634Y-65035D01*
X48720Y-65035D01*
X48777Y-65073D01*
X48805Y-65149D01*
X48805Y-65568D01*
X71653Y-64566D02*
X20472Y-64566D01*
X71653Y-62598D02*
X71653Y-65846D01*
X20472Y-62598D02*
X20472Y-65846D01*
X20472Y-64566D02*
X20915Y-64336D01*
X20472Y-64566D02*
X20915Y-64797D01*
X71653Y-64566D02*
X71210Y-64336D01*
X71653Y-64566D02*
X71210Y-64797D01*
X73900Y-34579D02*
X73900Y-34236D01*
X73900Y-34407D02*
X74700Y-34407D01*
X74585Y-34350D01*
X74509Y-34293D01*
X74471Y-34236D01*
X74700Y-34779D02*
X74700Y-35150D01*
X74395Y-34950D01*
X74395Y-35036D01*
X74357Y-35093D01*
X74319Y-35122D01*
X74242Y-35150D01*
X74052Y-35150D01*
X73976Y-35122D01*
X73938Y-35093D01*
X73900Y-35036D01*
X73900Y-34865D01*
X73938Y-34807D01*
X73976Y-34779D01*
X74700Y-35522D02*
X74700Y-35579D01*
X74662Y-35636D01*
X74623Y-35665D01*
X74547Y-35693D01*
X74395Y-35722D01*
X74204Y-35722D01*
X74052Y-35693D01*
X73976Y-35665D01*
X73938Y-35636D01*
X73900Y-35579D01*
X73900Y-35522D01*
X73938Y-35465D01*
X73976Y-35436D01*
X74052Y-35407D01*
X74204Y-35379D01*
X74395Y-35379D01*
X74547Y-35407D01*
X74623Y-35436D01*
X74662Y-35465D01*
X74700Y-35522D01*
X73976Y-35979D02*
X73938Y-36007D01*
X73900Y-35979D01*
X73938Y-35950D01*
X73976Y-35979D01*
X73900Y-35979D01*
X74700Y-36379D02*
X74700Y-36436D01*
X74662Y-36493D01*
X74623Y-36522D01*
X74547Y-36550D01*
X74395Y-36579D01*
X74204Y-36579D01*
X74052Y-36550D01*
X73976Y-36522D01*
X73938Y-36493D01*
X73900Y-36436D01*
X73900Y-36379D01*
X73938Y-36322D01*
X73976Y-36293D01*
X74052Y-36265D01*
X74204Y-36236D01*
X74395Y-36236D01*
X74547Y-36265D01*
X74623Y-36293D01*
X74662Y-36322D01*
X74700Y-36379D01*
X74700Y-36950D02*
X74700Y-37007D01*
X74662Y-37065D01*
X74623Y-37093D01*
X74547Y-37122D01*
X74395Y-37150D01*
X74204Y-37150D01*
X74052Y-37122D01*
X73976Y-37093D01*
X73938Y-37065D01*
X73900Y-37007D01*
X73900Y-36950D01*
X73938Y-36893D01*
X73976Y-36865D01*
X74052Y-36836D01*
X74204Y-36807D01*
X74395Y-36807D01*
X74547Y-36836D01*
X74623Y-36865D01*
X74662Y-36893D01*
X74700Y-36950D01*
X74700Y-37522D02*
X74700Y-37579D01*
X74662Y-37636D01*
X74623Y-37665D01*
X74547Y-37693D01*
X74395Y-37722D01*
X74204Y-37722D01*
X74052Y-37693D01*
X73976Y-37665D01*
X73938Y-37636D01*
X73900Y-37579D01*
X73900Y-37522D01*
X73938Y-37465D01*
X73976Y-37436D01*
X74052Y-37407D01*
X74204Y-37379D01*
X74395Y-37379D01*
X74547Y-37407D01*
X74623Y-37436D01*
X74662Y-37465D01*
X74700Y-37522D01*
X73900Y-38436D02*
X74433Y-38436D01*
X74357Y-38436D02*
X74395Y-38465D01*
X74433Y-38522D01*
X74433Y-38607D01*
X74395Y-38665D01*
X74319Y-38693D01*
X73900Y-38693D01*
X74319Y-38693D02*
X74395Y-38722D01*
X74433Y-38779D01*
X74433Y-38865D01*
X74395Y-38922D01*
X74319Y-38950D01*
X73900Y-38950D01*
X73900Y-39236D02*
X74433Y-39236D01*
X74357Y-39236D02*
X74395Y-39265D01*
X74433Y-39322D01*
X74433Y-39407D01*
X74395Y-39465D01*
X74319Y-39493D01*
X73900Y-39493D01*
X74319Y-39493D02*
X74395Y-39522D01*
X74433Y-39579D01*
X74433Y-39665D01*
X74395Y-39722D01*
X74319Y-39750D01*
X73900Y-39750D01*
X73622Y-11417D02*
X73622Y-62598D01*
X71653Y-11417D02*
X74902Y-11417D01*
X71653Y-62598D02*
X74902Y-62598D01*
X73622Y-62598D02*
X73391Y-62154D01*
X73622Y-62598D02*
X73852Y-62154D01*
X73622Y-11417D02*
X73391Y-11860D01*
X73622Y-11417D02*
X73852Y-11860D01*
G54D12*
X20472Y-62598D02*
X20472Y-11417D01*
X71653Y-62598D02*
X20472Y-62598D01*
X71653Y-11417D02*
X71653Y-62598D01*
X20472Y-11417D02*
X71653Y-11417D01*
X49000Y-15000D02*
X68000Y-15000D01*
X47000Y-17000D02*
X47000Y-36000D01*
X62000Y-36000D02*
X47000Y-36000D01*
X68000Y-15000D02*
X68000Y-34000D01*
X62500Y-34000D02*
G75*
G03X62000Y-34500I0J-500D01*
G74*
G01*
X62000Y-36000D02*
X62000Y-34500D01*
X68000Y-34000D02*
X62500Y-34000D01*
X48000Y-17000D02*
G75*
G03X49000Y-16000I0J1000D01*
G74*
G01*
X47000Y-17000D02*
X48000Y-17000D01*
X49000Y-15000D02*
X49000Y-16000D01*
X49000Y-38000D02*
X68000Y-38000D01*
X47000Y-40000D02*
X47000Y-59000D01*
X62000Y-59000D02*
X47000Y-59000D01*
X68000Y-38000D02*
X68000Y-57000D01*
X62500Y-57000D02*
G75*
G03X62000Y-57500I0J-500D01*
G74*
G01*
X62000Y-59000D02*
X62000Y-57500D01*
X68000Y-57000D02*
X62500Y-57000D01*
X48000Y-40000D02*
G75*
G03X49000Y-39000I0J1000D01*
G74*
G01*
X47000Y-40000D02*
X48000Y-40000D01*
X49000Y-38000D02*
X49000Y-39000D01*
X26000Y-38000D02*
X45000Y-38000D01*
X24000Y-40000D02*
X24000Y-59000D01*
X39000Y-59000D02*
X24000Y-59000D01*
X45000Y-38000D02*
X45000Y-57000D01*
X39500Y-57000D02*
G75*
G03X39000Y-57500I0J-500D01*
G74*
G01*
X39000Y-59000D02*
X39000Y-57500D01*
X45000Y-57000D02*
X39500Y-57000D01*
X25000Y-40000D02*
G75*
G03X26000Y-39000I0J1000D01*
G74*
G01*
X24000Y-40000D02*
X25000Y-40000D01*
X26000Y-38000D02*
X26000Y-39000D01*
X26000Y-15000D02*
X45000Y-15000D01*
X24000Y-17000D02*
X24000Y-36000D01*
X39000Y-36000D02*
X24000Y-36000D01*
X45000Y-15000D02*
X45000Y-34000D01*
X39500Y-34000D02*
G75*
G03X39000Y-34500I0J-500D01*
G74*
G01*
X39000Y-36000D02*
X39000Y-34500D01*
X45000Y-34000D02*
X39500Y-34000D01*
X25000Y-17000D02*
G75*
G03X26000Y-16000I0J1000D01*
G74*
G01*
X24000Y-17000D02*
X25000Y-17000D01*
X26000Y-15000D02*
X26000Y-16000D01*
G54D13*
X67000Y-16000D03*
X48000Y-35000D03*
G54D14*
X49000Y-34000D03*
X66000Y-17000D03*
G54D15*
X63400Y-15800D03*
X64000Y-15800D03*
X62300Y-15800D03*
X61700Y-15800D03*
G54D16*
X64700Y-30100D03*
X64700Y-29500D03*
X63700Y-30100D03*
X63700Y-29500D03*
X64700Y-26900D03*
X64700Y-26300D03*
G54D15*
X63300Y-20500D03*
X62700Y-20500D03*
G54D17*
X59600Y-23675D03*
X59600Y-22925D03*
G54D15*
X63300Y-21300D03*
X62700Y-21300D03*
G54D16*
X60500Y-23600D03*
X60500Y-23000D03*
G54D15*
X60000Y-28400D03*
X59400Y-28400D03*
G54D17*
X58400Y-32725D03*
X58400Y-33475D03*
G54D16*
X64100Y-23600D03*
X64100Y-23000D03*
X62300Y-23000D03*
X62300Y-23600D03*
X58000Y-24400D03*
X58000Y-23800D03*
X56300Y-33900D03*
X56300Y-34500D03*
X52100Y-23300D03*
X52100Y-22700D03*
X52100Y-24100D03*
X52100Y-24700D03*
G54D17*
X52100Y-18225D03*
X52100Y-18975D03*
G54D16*
X51100Y-18300D03*
X51100Y-18900D03*
G54D15*
X51000Y-29900D03*
X50400Y-29900D03*
X51000Y-29100D03*
X50400Y-29100D03*
X51000Y-30700D03*
X50400Y-30700D03*
G54D16*
X55300Y-33900D03*
X55300Y-34500D03*
G54D18*
X50225Y-31600D03*
X50975Y-31600D03*
X50225Y-32600D03*
X50975Y-32600D03*
G54D19*
X64300Y-20100D03*
X59100Y-31400D03*
X61500Y-29500D03*
X60500Y-29500D03*
G54D20*
X49700Y-34650D03*
X49700Y-33950D03*
X50500Y-34300D03*
G54D15*
X60100Y-24800D03*
X59500Y-24800D03*
X63300Y-19700D03*
X62700Y-19700D03*
X62100Y-19700D03*
X61500Y-19700D03*
X59400Y-27600D03*
X60000Y-27600D03*
G54D16*
X61300Y-23000D03*
X61300Y-23600D03*
X64900Y-23600D03*
X64900Y-23000D03*
X63100Y-23600D03*
X63100Y-23000D03*
X62600Y-30100D03*
X62600Y-29500D03*
G54D15*
X57100Y-21900D03*
X56500Y-21900D03*
X57100Y-22700D03*
X56500Y-22700D03*
G54D16*
X52700Y-33900D03*
X52700Y-34500D03*
X54300Y-34500D03*
X54300Y-33900D03*
X53500Y-33900D03*
X53500Y-34500D03*
X51900Y-33900D03*
X51900Y-34500D03*
X54100Y-24500D03*
X54100Y-23900D03*
X57500Y-16700D03*
X57500Y-17300D03*
X56700Y-16700D03*
X56700Y-17300D03*
X55900Y-16700D03*
X55900Y-17300D03*
X55100Y-16700D03*
X55100Y-17300D03*
X54300Y-16700D03*
X54300Y-17300D03*
X53500Y-16700D03*
X53500Y-17300D03*
G54D15*
X50400Y-26600D03*
X51000Y-26600D03*
X50400Y-27400D03*
X51000Y-27400D03*
X50400Y-28200D03*
X51000Y-28200D03*
G54D16*
X53300Y-23900D03*
X53300Y-24500D03*
G54D21*
X61707Y-25625D03*
X61904Y-25625D03*
X62101Y-25625D03*
X61511Y-25625D03*
G54D22*
X61225Y-25911D03*
X61225Y-26107D03*
X61225Y-26304D03*
X61225Y-26501D03*
X61225Y-26698D03*
X61225Y-26895D03*
X61225Y-27092D03*
X61225Y-27288D03*
G54D21*
X62888Y-27574D03*
X61511Y-27574D03*
X61707Y-27574D03*
X61904Y-27574D03*
X62101Y-27574D03*
X62298Y-27574D03*
X62495Y-27574D03*
X62692Y-27574D03*
G54D22*
X63174Y-27288D03*
X63174Y-27092D03*
X63174Y-26895D03*
X63174Y-26698D03*
X63174Y-26501D03*
X63174Y-26304D03*
X63174Y-26107D03*
X63174Y-25911D03*
G54D21*
X62888Y-25625D03*
X62692Y-25625D03*
X62495Y-25625D03*
X62298Y-25625D03*
G54D23*
X62200Y-26600D03*
G54D24*
X57134Y-24533D03*
X57134Y-23666D03*
X56465Y-23666D03*
X56465Y-24533D03*
G54D25*
X59963Y-17100D03*
X50436Y-17100D03*
G54D26*
X51000Y-23050D03*
X51000Y-24349D03*
G54D16*
X61500Y-30100D03*
X61500Y-30700D03*
X60500Y-30100D03*
X60500Y-30700D03*
G54D27*
X56747Y-30157D03*
X56747Y-30472D03*
X56747Y-29842D03*
X56747Y-29527D03*
X56747Y-29212D03*
X56747Y-28897D03*
X56747Y-28582D03*
X56747Y-28267D03*
X56747Y-27952D03*
X56747Y-32047D03*
X56747Y-31732D03*
X56747Y-31417D03*
X56747Y-31102D03*
X56747Y-30787D03*
X56432Y-32047D03*
X56432Y-31732D03*
X56432Y-31417D03*
X56432Y-31102D03*
X56432Y-30787D03*
X56432Y-30472D03*
X56432Y-30157D03*
X56432Y-29842D03*
X56432Y-29527D03*
X56432Y-29212D03*
X56432Y-28897D03*
X56432Y-28582D03*
X56432Y-28267D03*
X56432Y-27952D03*
X56117Y-32047D03*
X56117Y-31732D03*
X56117Y-31417D03*
X56117Y-31102D03*
X56117Y-30787D03*
X56117Y-30472D03*
X56117Y-30157D03*
X56117Y-29842D03*
X56117Y-29527D03*
X56117Y-29212D03*
X56117Y-28897D03*
X56117Y-28582D03*
X56117Y-28267D03*
X56117Y-27952D03*
X55802Y-32047D03*
X55802Y-31732D03*
X55802Y-31417D03*
X55802Y-31102D03*
X55802Y-30787D03*
X55802Y-29212D03*
X55802Y-28897D03*
X55802Y-28582D03*
X55802Y-28267D03*
X55802Y-27952D03*
X55487Y-32047D03*
X55487Y-31732D03*
X55487Y-31417D03*
X55487Y-31102D03*
X55487Y-28897D03*
X55487Y-28582D03*
X55487Y-28267D03*
X55487Y-27952D03*
X55172Y-32047D03*
X55172Y-31732D03*
X55172Y-31417D03*
X55172Y-28582D03*
X55172Y-28267D03*
X55172Y-27952D03*
X54857Y-32047D03*
X54857Y-31732D03*
X54857Y-31417D03*
X54857Y-28582D03*
X54857Y-28267D03*
X54857Y-27952D03*
X54542Y-32047D03*
X54542Y-31732D03*
X54542Y-31417D03*
X54542Y-28582D03*
X54542Y-28267D03*
X54542Y-27952D03*
X54227Y-32047D03*
X54227Y-31732D03*
X54227Y-31417D03*
X54227Y-28582D03*
X54227Y-28267D03*
X54227Y-27952D03*
X53912Y-32047D03*
X53912Y-31732D03*
X53912Y-31417D03*
X53912Y-31102D03*
X53912Y-28897D03*
X53912Y-28582D03*
X53912Y-28267D03*
X53912Y-27952D03*
X53597Y-32047D03*
X53597Y-31732D03*
X53597Y-31417D03*
X53597Y-31102D03*
X53597Y-30787D03*
X53597Y-29212D03*
X53597Y-28897D03*
X53597Y-28582D03*
X53597Y-28267D03*
X53597Y-27952D03*
X53282Y-32047D03*
X53282Y-31732D03*
X53282Y-31417D03*
X53282Y-31102D03*
X53282Y-30787D03*
X53282Y-30472D03*
X53282Y-30157D03*
X53282Y-29842D03*
X53282Y-29527D03*
X53282Y-29212D03*
X53282Y-28897D03*
X53282Y-28582D03*
X53282Y-28267D03*
X53282Y-27952D03*
X52967Y-32047D03*
X52967Y-31732D03*
X52967Y-31417D03*
X52967Y-31102D03*
X52967Y-30787D03*
X52967Y-30472D03*
X52967Y-30157D03*
X52967Y-29842D03*
X52967Y-29527D03*
X52967Y-29212D03*
X52967Y-28897D03*
X52967Y-28582D03*
X52967Y-28267D03*
X52967Y-27952D03*
X52652Y-32047D03*
X52652Y-31732D03*
X52652Y-31417D03*
X52652Y-31102D03*
X52652Y-30787D03*
X52652Y-30472D03*
X52652Y-30157D03*
X52652Y-29842D03*
X52652Y-29527D03*
X52652Y-29212D03*
X52652Y-28897D03*
X52652Y-28582D03*
X52652Y-28267D03*
X52652Y-27952D03*
G54D28*
X62279Y-16700D03*
X62279Y-17200D03*
X62279Y-17700D03*
X62279Y-18200D03*
X62279Y-18700D03*
G54D29*
X64720Y-17700D03*
G54D15*
X60700Y-28210D03*
X61300Y-28210D03*
G54D30*
X49000Y-19000D03*
X49000Y-20000D03*
X49000Y-21000D03*
X49000Y-22000D03*
X49000Y-23000D03*
X49000Y-24000D03*
X49000Y-25000D03*
X49000Y-26000D03*
X49000Y-27000D03*
X49000Y-28000D03*
X49000Y-29000D03*
X49000Y-30000D03*
X49000Y-31000D03*
G54D31*
X49000Y-32000D03*
X48000Y-32000D03*
G54D30*
X48000Y-31000D03*
X48000Y-30000D03*
X48000Y-29000D03*
X48000Y-28000D03*
X48000Y-27000D03*
X48000Y-26000D03*
X48000Y-25000D03*
X48000Y-24000D03*
X48000Y-23000D03*
X48000Y-22000D03*
X48000Y-21000D03*
X48000Y-20000D03*
X48000Y-19000D03*
X66000Y-32000D03*
X66000Y-31000D03*
X66000Y-30000D03*
X66000Y-29000D03*
X66000Y-28000D03*
X66000Y-27000D03*
X66000Y-26000D03*
X66000Y-25000D03*
X66000Y-24000D03*
X66000Y-23000D03*
X66000Y-22000D03*
X66000Y-21000D03*
X66000Y-20000D03*
G54D31*
X66000Y-19000D03*
X67000Y-19000D03*
G54D30*
X67000Y-20000D03*
X67000Y-21000D03*
X67000Y-22000D03*
X67000Y-23000D03*
X67000Y-24000D03*
X67000Y-25000D03*
X67000Y-26000D03*
X67000Y-27000D03*
X67000Y-28000D03*
X67000Y-29000D03*
X67000Y-30000D03*
X67000Y-31000D03*
X67000Y-32000D03*
G54D32*
X64681Y-33015D03*
X63500Y-33015D03*
G54D13*
X67000Y-39000D03*
X48000Y-58000D03*
G54D14*
X49000Y-57000D03*
X66000Y-40000D03*
G54D15*
X63400Y-38800D03*
X64000Y-38800D03*
X62300Y-38800D03*
X61700Y-38800D03*
G54D16*
X64700Y-53100D03*
X64700Y-52500D03*
X63700Y-53100D03*
X63700Y-52500D03*
X64700Y-49900D03*
X64700Y-49300D03*
G54D15*
X63300Y-43500D03*
X62700Y-43500D03*
G54D17*
X59600Y-46675D03*
X59600Y-45925D03*
G54D15*
X63300Y-44300D03*
X62700Y-44300D03*
G54D16*
X60500Y-46600D03*
X60500Y-46000D03*
G54D15*
X60000Y-51400D03*
X59400Y-51400D03*
G54D17*
X58400Y-55725D03*
X58400Y-56475D03*
G54D16*
X64100Y-46600D03*
X64100Y-46000D03*
X62300Y-46000D03*
X62300Y-46600D03*
X58000Y-47400D03*
X58000Y-46800D03*
X56300Y-56900D03*
X56300Y-57500D03*
X52100Y-46300D03*
X52100Y-45700D03*
X52100Y-47100D03*
X52100Y-47700D03*
G54D17*
X52100Y-41225D03*
X52100Y-41975D03*
G54D16*
X51100Y-41300D03*
X51100Y-41900D03*
G54D15*
X51000Y-52900D03*
X50400Y-52900D03*
X51000Y-52100D03*
X50400Y-52100D03*
X51000Y-53700D03*
X50400Y-53700D03*
G54D16*
X55300Y-56900D03*
X55300Y-57500D03*
G54D18*
X50225Y-54600D03*
X50975Y-54600D03*
X50225Y-55600D03*
X50975Y-55600D03*
G54D19*
X64300Y-43100D03*
X59100Y-54400D03*
X61500Y-52500D03*
X60500Y-52500D03*
G54D20*
X49700Y-57650D03*
X49700Y-56950D03*
X50500Y-57300D03*
G54D15*
X60100Y-47800D03*
X59500Y-47800D03*
X63300Y-42700D03*
X62700Y-42700D03*
X62100Y-42700D03*
X61500Y-42700D03*
X59400Y-50600D03*
X60000Y-50600D03*
G54D16*
X61300Y-46000D03*
X61300Y-46600D03*
X64900Y-46600D03*
X64900Y-46000D03*
X63100Y-46600D03*
X63100Y-46000D03*
X62600Y-53100D03*
X62600Y-52500D03*
G54D15*
X57100Y-44900D03*
X56500Y-44900D03*
X57100Y-45700D03*
X56500Y-45700D03*
G54D16*
X52700Y-56900D03*
X52700Y-57500D03*
X54300Y-57500D03*
X54300Y-56900D03*
X53500Y-56900D03*
X53500Y-57500D03*
X51900Y-56900D03*
X51900Y-57500D03*
X54100Y-47500D03*
X54100Y-46900D03*
X57500Y-39700D03*
X57500Y-40300D03*
X56700Y-39700D03*
X56700Y-40300D03*
X55900Y-39700D03*
X55900Y-40300D03*
X55100Y-39700D03*
X55100Y-40300D03*
X54300Y-39700D03*
X54300Y-40300D03*
X53500Y-39700D03*
X53500Y-40300D03*
G54D15*
X50400Y-49600D03*
X51000Y-49600D03*
X50400Y-50400D03*
X51000Y-50400D03*
X50400Y-51200D03*
X51000Y-51200D03*
G54D16*
X53300Y-46900D03*
X53300Y-47500D03*
G54D21*
X61707Y-48625D03*
X61904Y-48625D03*
X62101Y-48625D03*
X61511Y-48625D03*
G54D22*
X61225Y-48911D03*
X61225Y-49107D03*
X61225Y-49304D03*
X61225Y-49501D03*
X61225Y-49698D03*
X61225Y-49895D03*
X61225Y-50092D03*
X61225Y-50288D03*
G54D21*
X62888Y-50574D03*
X61511Y-50574D03*
X61707Y-50574D03*
X61904Y-50574D03*
X62101Y-50574D03*
X62298Y-50574D03*
X62495Y-50574D03*
X62692Y-50574D03*
G54D22*
X63174Y-50288D03*
X63174Y-50092D03*
X63174Y-49895D03*
X63174Y-49698D03*
X63174Y-49501D03*
X63174Y-49304D03*
X63174Y-49107D03*
X63174Y-48911D03*
G54D21*
X62888Y-48625D03*
X62692Y-48625D03*
X62495Y-48625D03*
X62298Y-48625D03*
G54D23*
X62200Y-49600D03*
G54D24*
X57134Y-47533D03*
X57134Y-46666D03*
X56465Y-46666D03*
X56465Y-47533D03*
G54D25*
X59963Y-40100D03*
X50436Y-40100D03*
G54D26*
X51000Y-46050D03*
X51000Y-47349D03*
G54D16*
X61500Y-53100D03*
X61500Y-53700D03*
X60500Y-53100D03*
X60500Y-53700D03*
G54D27*
X56747Y-53157D03*
X56747Y-53472D03*
X56747Y-52842D03*
X56747Y-52527D03*
X56747Y-52212D03*
X56747Y-51897D03*
X56747Y-51582D03*
X56747Y-51267D03*
X56747Y-50952D03*
X56747Y-55047D03*
X56747Y-54732D03*
X56747Y-54417D03*
X56747Y-54102D03*
X56747Y-53787D03*
X56432Y-55047D03*
X56432Y-54732D03*
X56432Y-54417D03*
X56432Y-54102D03*
X56432Y-53787D03*
X56432Y-53472D03*
X56432Y-53157D03*
X56432Y-52842D03*
X56432Y-52527D03*
X56432Y-52212D03*
X56432Y-51897D03*
X56432Y-51582D03*
X56432Y-51267D03*
X56432Y-50952D03*
X56117Y-55047D03*
X56117Y-54732D03*
X56117Y-54417D03*
X56117Y-54102D03*
X56117Y-53787D03*
X56117Y-53472D03*
X56117Y-53157D03*
X56117Y-52842D03*
X56117Y-52527D03*
X56117Y-52212D03*
X56117Y-51897D03*
X56117Y-51582D03*
X56117Y-51267D03*
X56117Y-50952D03*
X55802Y-55047D03*
X55802Y-54732D03*
X55802Y-54417D03*
X55802Y-54102D03*
X55802Y-53787D03*
X55802Y-52212D03*
X55802Y-51897D03*
X55802Y-51582D03*
X55802Y-51267D03*
X55802Y-50952D03*
X55487Y-55047D03*
X55487Y-54732D03*
X55487Y-54417D03*
X55487Y-54102D03*
X55487Y-51897D03*
X55487Y-51582D03*
X55487Y-51267D03*
X55487Y-50952D03*
X55172Y-55047D03*
X55172Y-54732D03*
X55172Y-54417D03*
X55172Y-51582D03*
X55172Y-51267D03*
X55172Y-50952D03*
X54857Y-55047D03*
X54857Y-54732D03*
X54857Y-54417D03*
X54857Y-51582D03*
X54857Y-51267D03*
X54857Y-50952D03*
X54542Y-55047D03*
X54542Y-54732D03*
X54542Y-54417D03*
X54542Y-51582D03*
X54542Y-51267D03*
X54542Y-50952D03*
X54227Y-55047D03*
X54227Y-54732D03*
X54227Y-54417D03*
X54227Y-51582D03*
X54227Y-51267D03*
X54227Y-50952D03*
X53912Y-55047D03*
X53912Y-54732D03*
X53912Y-54417D03*
X53912Y-54102D03*
X53912Y-51897D03*
X53912Y-51582D03*
X53912Y-51267D03*
X53912Y-50952D03*
X53597Y-55047D03*
X53597Y-54732D03*
X53597Y-54417D03*
X53597Y-54102D03*
X53597Y-53787D03*
X53597Y-52212D03*
X53597Y-51897D03*
X53597Y-51582D03*
X53597Y-51267D03*
X53597Y-50952D03*
X53282Y-55047D03*
X53282Y-54732D03*
X53282Y-54417D03*
X53282Y-54102D03*
X53282Y-53787D03*
X53282Y-53472D03*
X53282Y-53157D03*
X53282Y-52842D03*
X53282Y-52527D03*
X53282Y-52212D03*
X53282Y-51897D03*
X53282Y-51582D03*
X53282Y-51267D03*
X53282Y-50952D03*
X52967Y-55047D03*
X52967Y-54732D03*
X52967Y-54417D03*
X52967Y-54102D03*
X52967Y-53787D03*
X52967Y-53472D03*
X52967Y-53157D03*
X52967Y-52842D03*
X52967Y-52527D03*
X52967Y-52212D03*
X52967Y-51897D03*
X52967Y-51582D03*
X52967Y-51267D03*
X52967Y-50952D03*
X52652Y-55047D03*
X52652Y-54732D03*
X52652Y-54417D03*
X52652Y-54102D03*
X52652Y-53787D03*
X52652Y-53472D03*
X52652Y-53157D03*
X52652Y-52842D03*
X52652Y-52527D03*
X52652Y-52212D03*
X52652Y-51897D03*
X52652Y-51582D03*
X52652Y-51267D03*
X52652Y-50952D03*
G54D28*
X62279Y-39700D03*
X62279Y-40200D03*
X62279Y-40700D03*
X62279Y-41200D03*
X62279Y-41700D03*
G54D29*
X64720Y-40700D03*
G54D15*
X60700Y-51210D03*
X61300Y-51210D03*
G54D30*
X49000Y-42000D03*
X49000Y-43000D03*
X49000Y-44000D03*
X49000Y-45000D03*
X49000Y-46000D03*
X49000Y-47000D03*
X49000Y-48000D03*
X49000Y-49000D03*
X49000Y-50000D03*
X49000Y-51000D03*
X49000Y-52000D03*
X49000Y-53000D03*
X49000Y-54000D03*
G54D31*
X49000Y-55000D03*
X48000Y-55000D03*
G54D30*
X48000Y-54000D03*
X48000Y-53000D03*
X48000Y-52000D03*
X48000Y-51000D03*
X48000Y-50000D03*
X48000Y-49000D03*
X48000Y-48000D03*
X48000Y-47000D03*
X48000Y-46000D03*
X48000Y-45000D03*
X48000Y-44000D03*
X48000Y-43000D03*
X48000Y-42000D03*
X66000Y-55000D03*
X66000Y-54000D03*
X66000Y-53000D03*
X66000Y-52000D03*
X66000Y-51000D03*
X66000Y-50000D03*
X66000Y-49000D03*
X66000Y-48000D03*
X66000Y-47000D03*
X66000Y-46000D03*
X66000Y-45000D03*
X66000Y-44000D03*
X66000Y-43000D03*
G54D31*
X66000Y-42000D03*
X67000Y-42000D03*
G54D30*
X67000Y-43000D03*
X67000Y-44000D03*
X67000Y-45000D03*
X67000Y-46000D03*
X67000Y-47000D03*
X67000Y-48000D03*
X67000Y-49000D03*
X67000Y-50000D03*
X67000Y-51000D03*
X67000Y-52000D03*
X67000Y-53000D03*
X67000Y-54000D03*
X67000Y-55000D03*
G54D32*
X64681Y-56015D03*
X63500Y-56015D03*
G54D13*
X44000Y-39000D03*
X25000Y-58000D03*
G54D14*
X26000Y-57000D03*
X43000Y-40000D03*
G54D15*
X40400Y-38800D03*
X41000Y-38800D03*
X39300Y-38800D03*
X38700Y-38800D03*
G54D16*
X41700Y-53100D03*
X41700Y-52500D03*
X40700Y-53100D03*
X40700Y-52500D03*
X41700Y-49900D03*
X41700Y-49300D03*
G54D15*
X40300Y-43500D03*
X39700Y-43500D03*
G54D17*
X36600Y-46675D03*
X36600Y-45925D03*
G54D15*
X40300Y-44300D03*
X39700Y-44300D03*
G54D16*
X37500Y-46600D03*
X37500Y-46000D03*
G54D15*
X37000Y-51400D03*
X36400Y-51400D03*
G54D17*
X35400Y-55725D03*
X35400Y-56475D03*
G54D16*
X41100Y-46600D03*
X41100Y-46000D03*
X39300Y-46000D03*
X39300Y-46600D03*
X35000Y-47400D03*
X35000Y-46800D03*
X33300Y-56900D03*
X33300Y-57500D03*
X29100Y-46300D03*
X29100Y-45700D03*
X29100Y-47100D03*
X29100Y-47700D03*
G54D17*
X29100Y-41225D03*
X29100Y-41975D03*
G54D16*
X28100Y-41300D03*
X28100Y-41900D03*
G54D15*
X28000Y-52900D03*
X27400Y-52900D03*
X28000Y-52100D03*
X27400Y-52100D03*
X28000Y-53700D03*
X27400Y-53700D03*
G54D16*
X32300Y-56900D03*
X32300Y-57500D03*
G54D18*
X27225Y-54600D03*
X27975Y-54600D03*
X27225Y-55600D03*
X27975Y-55600D03*
G54D19*
X41300Y-43100D03*
X36100Y-54400D03*
X38500Y-52500D03*
X37500Y-52500D03*
G54D20*
X26700Y-57650D03*
X26700Y-56950D03*
X27500Y-57300D03*
G54D15*
X37100Y-47800D03*
X36500Y-47800D03*
X40300Y-42700D03*
X39700Y-42700D03*
X39100Y-42700D03*
X38500Y-42700D03*
X36400Y-50600D03*
X37000Y-50600D03*
G54D16*
X38300Y-46000D03*
X38300Y-46600D03*
X41900Y-46600D03*
X41900Y-46000D03*
X40100Y-46600D03*
X40100Y-46000D03*
X39600Y-53100D03*
X39600Y-52500D03*
G54D15*
X34100Y-44900D03*
X33500Y-44900D03*
X34100Y-45700D03*
X33500Y-45700D03*
G54D16*
X29700Y-56900D03*
X29700Y-57500D03*
X31300Y-57500D03*
X31300Y-56900D03*
X30500Y-56900D03*
X30500Y-57500D03*
X28900Y-56900D03*
X28900Y-57500D03*
X31100Y-47500D03*
X31100Y-46900D03*
X34500Y-39700D03*
X34500Y-40300D03*
X33700Y-39700D03*
X33700Y-40300D03*
X32900Y-39700D03*
X32900Y-40300D03*
X32100Y-39700D03*
X32100Y-40300D03*
X31300Y-39700D03*
X31300Y-40300D03*
X30500Y-39700D03*
X30500Y-40300D03*
G54D15*
X27400Y-49600D03*
X28000Y-49600D03*
X27400Y-50400D03*
X28000Y-50400D03*
X27400Y-51200D03*
X28000Y-51200D03*
G54D16*
X30300Y-46900D03*
X30300Y-47500D03*
G54D21*
X38707Y-48625D03*
X38904Y-48625D03*
X39101Y-48625D03*
X38511Y-48625D03*
G54D22*
X38225Y-48911D03*
X38225Y-49107D03*
X38225Y-49304D03*
X38225Y-49501D03*
X38225Y-49698D03*
X38225Y-49895D03*
X38225Y-50092D03*
X38225Y-50288D03*
G54D21*
X39888Y-50574D03*
X38511Y-50574D03*
X38707Y-50574D03*
X38904Y-50574D03*
X39101Y-50574D03*
X39298Y-50574D03*
X39495Y-50574D03*
X39692Y-50574D03*
G54D22*
X40174Y-50288D03*
X40174Y-50092D03*
X40174Y-49895D03*
X40174Y-49698D03*
X40174Y-49501D03*
X40174Y-49304D03*
X40174Y-49107D03*
X40174Y-48911D03*
G54D21*
X39888Y-48625D03*
X39692Y-48625D03*
X39495Y-48625D03*
X39298Y-48625D03*
G54D23*
X39200Y-49600D03*
G54D24*
X34134Y-47533D03*
X34134Y-46666D03*
X33465Y-46666D03*
X33465Y-47533D03*
G54D25*
X36963Y-40100D03*
X27436Y-40100D03*
G54D26*
X28000Y-46050D03*
X28000Y-47349D03*
G54D16*
X38500Y-53100D03*
X38500Y-53700D03*
X37500Y-53100D03*
X37500Y-53700D03*
G54D27*
X33747Y-53157D03*
X33747Y-53472D03*
X33747Y-52842D03*
X33747Y-52527D03*
X33747Y-52212D03*
X33747Y-51897D03*
X33747Y-51582D03*
X33747Y-51267D03*
X33747Y-50952D03*
X33747Y-55047D03*
X33747Y-54732D03*
X33747Y-54417D03*
X33747Y-54102D03*
X33747Y-53787D03*
X33432Y-55047D03*
X33432Y-54732D03*
X33432Y-54417D03*
X33432Y-54102D03*
X33432Y-53787D03*
X33432Y-53472D03*
X33432Y-53157D03*
X33432Y-52842D03*
X33432Y-52527D03*
X33432Y-52212D03*
X33432Y-51897D03*
X33432Y-51582D03*
X33432Y-51267D03*
X33432Y-50952D03*
X33117Y-55047D03*
X33117Y-54732D03*
X33117Y-54417D03*
X33117Y-54102D03*
X33117Y-53787D03*
X33117Y-53472D03*
X33117Y-53157D03*
X33117Y-52842D03*
X33117Y-52527D03*
X33117Y-52212D03*
X33117Y-51897D03*
X33117Y-51582D03*
X33117Y-51267D03*
X33117Y-50952D03*
X32802Y-55047D03*
X32802Y-54732D03*
X32802Y-54417D03*
X32802Y-54102D03*
X32802Y-53787D03*
X32802Y-52212D03*
X32802Y-51897D03*
X32802Y-51582D03*
X32802Y-51267D03*
X32802Y-50952D03*
X32487Y-55047D03*
X32487Y-54732D03*
X32487Y-54417D03*
X32487Y-54102D03*
X32487Y-51897D03*
X32487Y-51582D03*
X32487Y-51267D03*
X32487Y-50952D03*
X32172Y-55047D03*
X32172Y-54732D03*
X32172Y-54417D03*
X32172Y-51582D03*
X32172Y-51267D03*
X32172Y-50952D03*
X31857Y-55047D03*
X31857Y-54732D03*
X31857Y-54417D03*
X31857Y-51582D03*
X31857Y-51267D03*
X31857Y-50952D03*
X31542Y-55047D03*
X31542Y-54732D03*
X31542Y-54417D03*
X31542Y-51582D03*
X31542Y-51267D03*
X31542Y-50952D03*
X31227Y-55047D03*
X31227Y-54732D03*
X31227Y-54417D03*
X31227Y-51582D03*
X31227Y-51267D03*
X31227Y-50952D03*
X30912Y-55047D03*
X30912Y-54732D03*
X30912Y-54417D03*
X30912Y-54102D03*
X30912Y-51897D03*
X30912Y-51582D03*
X30912Y-51267D03*
X30912Y-50952D03*
X30597Y-55047D03*
X30597Y-54732D03*
X30597Y-54417D03*
X30597Y-54102D03*
X30597Y-53787D03*
X30597Y-52212D03*
X30597Y-51897D03*
X30597Y-51582D03*
X30597Y-51267D03*
X30597Y-50952D03*
X30282Y-55047D03*
X30282Y-54732D03*
X30282Y-54417D03*
X30282Y-54102D03*
X30282Y-53787D03*
X30282Y-53472D03*
X30282Y-53157D03*
X30282Y-52842D03*
X30282Y-52527D03*
X30282Y-52212D03*
X30282Y-51897D03*
X30282Y-51582D03*
X30282Y-51267D03*
X30282Y-50952D03*
X29967Y-55047D03*
X29967Y-54732D03*
X29967Y-54417D03*
X29967Y-54102D03*
X29967Y-53787D03*
X29967Y-53472D03*
X29967Y-53157D03*
X29967Y-52842D03*
X29967Y-52527D03*
X29967Y-52212D03*
X29967Y-51897D03*
X29967Y-51582D03*
X29967Y-51267D03*
X29967Y-50952D03*
X29652Y-55047D03*
X29652Y-54732D03*
X29652Y-54417D03*
X29652Y-54102D03*
X29652Y-53787D03*
X29652Y-53472D03*
X29652Y-53157D03*
X29652Y-52842D03*
X29652Y-52527D03*
X29652Y-52212D03*
X29652Y-51897D03*
X29652Y-51582D03*
X29652Y-51267D03*
X29652Y-50952D03*
G54D28*
X39279Y-39700D03*
X39279Y-40200D03*
X39279Y-40700D03*
X39279Y-41200D03*
X39279Y-41700D03*
G54D29*
X41720Y-40700D03*
G54D15*
X37700Y-51210D03*
X38300Y-51210D03*
G54D30*
X26000Y-42000D03*
X26000Y-43000D03*
X26000Y-44000D03*
X26000Y-45000D03*
X26000Y-46000D03*
X26000Y-47000D03*
X26000Y-48000D03*
X26000Y-49000D03*
X26000Y-50000D03*
X26000Y-51000D03*
X26000Y-52000D03*
X26000Y-53000D03*
X26000Y-54000D03*
G54D31*
X26000Y-55000D03*
X25000Y-55000D03*
G54D30*
X25000Y-54000D03*
X25000Y-53000D03*
X25000Y-52000D03*
X25000Y-51000D03*
X25000Y-50000D03*
X25000Y-49000D03*
X25000Y-48000D03*
X25000Y-47000D03*
X25000Y-46000D03*
X25000Y-45000D03*
X25000Y-44000D03*
X25000Y-43000D03*
X25000Y-42000D03*
X43000Y-55000D03*
X43000Y-54000D03*
X43000Y-53000D03*
X43000Y-52000D03*
X43000Y-51000D03*
X43000Y-50000D03*
X43000Y-49000D03*
X43000Y-48000D03*
X43000Y-47000D03*
X43000Y-46000D03*
X43000Y-45000D03*
X43000Y-44000D03*
X43000Y-43000D03*
G54D31*
X43000Y-42000D03*
X44000Y-42000D03*
G54D30*
X44000Y-43000D03*
X44000Y-44000D03*
X44000Y-45000D03*
X44000Y-46000D03*
X44000Y-47000D03*
X44000Y-48000D03*
X44000Y-49000D03*
X44000Y-50000D03*
X44000Y-51000D03*
X44000Y-52000D03*
X44000Y-53000D03*
X44000Y-54000D03*
X44000Y-55000D03*
G54D32*
X41681Y-56015D03*
X40500Y-56015D03*
G54D13*
X44000Y-16000D03*
X25000Y-35000D03*
G54D14*
X26000Y-34000D03*
X43000Y-17000D03*
G54D15*
X40400Y-15800D03*
X41000Y-15800D03*
X39300Y-15800D03*
X38700Y-15800D03*
G54D16*
X41700Y-30100D03*
X41700Y-29500D03*
X40700Y-30100D03*
X40700Y-29500D03*
X41700Y-26900D03*
X41700Y-26300D03*
G54D15*
X40300Y-20500D03*
X39700Y-20500D03*
G54D17*
X36600Y-23675D03*
X36600Y-22925D03*
G54D15*
X40300Y-21300D03*
X39700Y-21300D03*
G54D16*
X37500Y-23600D03*
X37500Y-23000D03*
G54D15*
X37000Y-28400D03*
X36400Y-28400D03*
G54D17*
X35400Y-32725D03*
X35400Y-33475D03*
G54D16*
X41100Y-23600D03*
X41100Y-23000D03*
X39300Y-23000D03*
X39300Y-23600D03*
X35000Y-24400D03*
X35000Y-23800D03*
X33300Y-33900D03*
X33300Y-34500D03*
X29100Y-23300D03*
X29100Y-22700D03*
X29100Y-24100D03*
X29100Y-24700D03*
G54D17*
X29100Y-18225D03*
X29100Y-18975D03*
G54D16*
X28100Y-18300D03*
X28100Y-18900D03*
G54D15*
X28000Y-29900D03*
X27400Y-29900D03*
X28000Y-29100D03*
X27400Y-29100D03*
X28000Y-30700D03*
X27400Y-30700D03*
G54D16*
X32300Y-33900D03*
X32300Y-34500D03*
G54D18*
X27225Y-31600D03*
X27975Y-31600D03*
X27225Y-32600D03*
X27975Y-32600D03*
G54D19*
X41300Y-20100D03*
X36100Y-31400D03*
X38500Y-29500D03*
X37500Y-29500D03*
G54D20*
X26700Y-34650D03*
X26700Y-33950D03*
X27500Y-34300D03*
G54D15*
X37100Y-24800D03*
X36500Y-24800D03*
X40300Y-19700D03*
X39700Y-19700D03*
X39100Y-19700D03*
X38500Y-19700D03*
X36400Y-27600D03*
X37000Y-27600D03*
G54D16*
X38300Y-23000D03*
X38300Y-23600D03*
X41900Y-23600D03*
X41900Y-23000D03*
X40100Y-23600D03*
X40100Y-23000D03*
X39600Y-30100D03*
X39600Y-29500D03*
G54D15*
X34100Y-21900D03*
X33500Y-21900D03*
X34100Y-22700D03*
X33500Y-22700D03*
G54D16*
X29700Y-33900D03*
X29700Y-34500D03*
X31300Y-34500D03*
X31300Y-33900D03*
X30500Y-33900D03*
X30500Y-34500D03*
X28900Y-33900D03*
X28900Y-34500D03*
X31100Y-24500D03*
X31100Y-23900D03*
X34500Y-16700D03*
X34500Y-17300D03*
X33700Y-16700D03*
X33700Y-17300D03*
X32900Y-16700D03*
X32900Y-17300D03*
X32100Y-16700D03*
X32100Y-17300D03*
X31300Y-16700D03*
X31300Y-17300D03*
X30500Y-16700D03*
X30500Y-17300D03*
G54D15*
X27400Y-26600D03*
X28000Y-26600D03*
X27400Y-27400D03*
X28000Y-27400D03*
X27400Y-28200D03*
X28000Y-28200D03*
G54D16*
X30300Y-23900D03*
X30300Y-24500D03*
G54D21*
X38707Y-25625D03*
X38904Y-25625D03*
X39101Y-25625D03*
X38511Y-25625D03*
G54D22*
X38225Y-25911D03*
X38225Y-26107D03*
X38225Y-26304D03*
X38225Y-26501D03*
X38225Y-26698D03*
X38225Y-26895D03*
X38225Y-27092D03*
X38225Y-27288D03*
G54D21*
X39888Y-27574D03*
X38511Y-27574D03*
X38707Y-27574D03*
X38904Y-27574D03*
X39101Y-27574D03*
X39298Y-27574D03*
X39495Y-27574D03*
X39692Y-27574D03*
G54D22*
X40174Y-27288D03*
X40174Y-27092D03*
X40174Y-26895D03*
X40174Y-26698D03*
X40174Y-26501D03*
X40174Y-26304D03*
X40174Y-26107D03*
X40174Y-25911D03*
G54D21*
X39888Y-25625D03*
X39692Y-25625D03*
X39495Y-25625D03*
X39298Y-25625D03*
G54D23*
X39200Y-26600D03*
G54D24*
X34134Y-24533D03*
X34134Y-23666D03*
X33465Y-23666D03*
X33465Y-24533D03*
G54D25*
X36963Y-17100D03*
X27436Y-17100D03*
G54D26*
X28000Y-23050D03*
X28000Y-24349D03*
G54D16*
X38500Y-30100D03*
X38500Y-30700D03*
X37500Y-30100D03*
X37500Y-30700D03*
G54D27*
X33747Y-30157D03*
X33747Y-30472D03*
X33747Y-29842D03*
X33747Y-29527D03*
X33747Y-29212D03*
X33747Y-28897D03*
X33747Y-28582D03*
X33747Y-28267D03*
X33747Y-27952D03*
X33747Y-32047D03*
X33747Y-31732D03*
X33747Y-31417D03*
X33747Y-31102D03*
X33747Y-30787D03*
X33432Y-32047D03*
X33432Y-31732D03*
X33432Y-31417D03*
X33432Y-31102D03*
X33432Y-30787D03*
X33432Y-30472D03*
X33432Y-30157D03*
X33432Y-29842D03*
X33432Y-29527D03*
X33432Y-29212D03*
X33432Y-28897D03*
X33432Y-28582D03*
X33432Y-28267D03*
X33432Y-27952D03*
X33117Y-32047D03*
X33117Y-31732D03*
X33117Y-31417D03*
X33117Y-31102D03*
X33117Y-30787D03*
X33117Y-30472D03*
X33117Y-30157D03*
X33117Y-29842D03*
X33117Y-29527D03*
X33117Y-29212D03*
X33117Y-28897D03*
X33117Y-28582D03*
X33117Y-28267D03*
X33117Y-27952D03*
X32802Y-32047D03*
X32802Y-31732D03*
X32802Y-31417D03*
X32802Y-31102D03*
X32802Y-30787D03*
X32802Y-29212D03*
X32802Y-28897D03*
X32802Y-28582D03*
X32802Y-28267D03*
X32802Y-27952D03*
X32487Y-32047D03*
X32487Y-31732D03*
X32487Y-31417D03*
X32487Y-31102D03*
X32487Y-28897D03*
X32487Y-28582D03*
X32487Y-28267D03*
X32487Y-27952D03*
X32172Y-32047D03*
X32172Y-31732D03*
X32172Y-31417D03*
X32172Y-28582D03*
X32172Y-28267D03*
X32172Y-27952D03*
X31857Y-32047D03*
X31857Y-31732D03*
X31857Y-31417D03*
X31857Y-28582D03*
X31857Y-28267D03*
X31857Y-27952D03*
X31542Y-32047D03*
X31542Y-31732D03*
X31542Y-31417D03*
X31542Y-28582D03*
X31542Y-28267D03*
X31542Y-27952D03*
X31227Y-32047D03*
X31227Y-31732D03*
X31227Y-31417D03*
X31227Y-28582D03*
X31227Y-28267D03*
X31227Y-27952D03*
X30912Y-32047D03*
X30912Y-31732D03*
X30912Y-31417D03*
X30912Y-31102D03*
X30912Y-28897D03*
X30912Y-28582D03*
X30912Y-28267D03*
X30912Y-27952D03*
X30597Y-32047D03*
X30597Y-31732D03*
X30597Y-31417D03*
X30597Y-31102D03*
X30597Y-30787D03*
X30597Y-29212D03*
X30597Y-28897D03*
X30597Y-28582D03*
X30597Y-28267D03*
X30597Y-27952D03*
X30282Y-32047D03*
X30282Y-31732D03*
X30282Y-31417D03*
X30282Y-31102D03*
X30282Y-30787D03*
X30282Y-30472D03*
X30282Y-30157D03*
X30282Y-29842D03*
X30282Y-29527D03*
X30282Y-29212D03*
X30282Y-28897D03*
X30282Y-28582D03*
X30282Y-28267D03*
X30282Y-27952D03*
X29967Y-32047D03*
X29967Y-31732D03*
X29967Y-31417D03*
X29967Y-31102D03*
X29967Y-30787D03*
X29967Y-30472D03*
X29967Y-30157D03*
X29967Y-29842D03*
X29967Y-29527D03*
X29967Y-29212D03*
X29967Y-28897D03*
X29967Y-28582D03*
X29967Y-28267D03*
X29967Y-27952D03*
X29652Y-32047D03*
X29652Y-31732D03*
X29652Y-31417D03*
X29652Y-31102D03*
X29652Y-30787D03*
X29652Y-30472D03*
X29652Y-30157D03*
X29652Y-29842D03*
X29652Y-29527D03*
X29652Y-29212D03*
X29652Y-28897D03*
X29652Y-28582D03*
X29652Y-28267D03*
X29652Y-27952D03*
G54D28*
X39279Y-16700D03*
X39279Y-17200D03*
X39279Y-17700D03*
X39279Y-18200D03*
X39279Y-18700D03*
G54D29*
X41720Y-17700D03*
G54D15*
X37700Y-28210D03*
X38300Y-28210D03*
G54D30*
X26000Y-19000D03*
X26000Y-20000D03*
X26000Y-21000D03*
X26000Y-22000D03*
X26000Y-23000D03*
X26000Y-24000D03*
X26000Y-25000D03*
X26000Y-26000D03*
X26000Y-27000D03*
X26000Y-28000D03*
X26000Y-29000D03*
X26000Y-30000D03*
X26000Y-31000D03*
G54D31*
X26000Y-32000D03*
X25000Y-32000D03*
G54D30*
X25000Y-31000D03*
X25000Y-30000D03*
X25000Y-29000D03*
X25000Y-28000D03*
X25000Y-27000D03*
X25000Y-26000D03*
X25000Y-25000D03*
X25000Y-24000D03*
X25000Y-23000D03*
X25000Y-22000D03*
X25000Y-21000D03*
X25000Y-20000D03*
X25000Y-19000D03*
X43000Y-32000D03*
X43000Y-31000D03*
X43000Y-30000D03*
X43000Y-29000D03*
X43000Y-28000D03*
X43000Y-27000D03*
X43000Y-26000D03*
X43000Y-25000D03*
X43000Y-24000D03*
X43000Y-23000D03*
X43000Y-22000D03*
X43000Y-21000D03*
X43000Y-20000D03*
G54D31*
X43000Y-19000D03*
X44000Y-19000D03*
G54D30*
X44000Y-20000D03*
X44000Y-21000D03*
X44000Y-22000D03*
X44000Y-23000D03*
X44000Y-24000D03*
X44000Y-25000D03*
X44000Y-26000D03*
X44000Y-27000D03*
X44000Y-28000D03*
X44000Y-29000D03*
X44000Y-30000D03*
X44000Y-31000D03*
X44000Y-32000D03*
G54D32*
X41681Y-33015D03*
X40500Y-33015D03*
M02*
