G04 (created by PCBNEW (2013-mar-13)-testing) date Tue 09 Apr 2013 04:17:55 PM CEST*
%MOIN*%
G04 Gerber Fmt 3.4, Leading zero omitted, Abs format*
%FSLAX34Y34*%
G01*
G70*
G90*
G04 APERTURE LIST*
%ADD10C,0.00393701*%
%ADD11R,0.074848X0.074848*%
%ADD12C,0.074848*%
%ADD13C,0.155748*%
%ADD14C,0.0708661*%
%ADD15R,0.075748X0.075748*%
%ADD16C,0.075748*%
%ADD17R,0.070748X0.070748*%
%ADD18C,0.070748*%
%ADD19C,0.061748*%
%ADD20C,0.085748*%
%ADD21R,0.071748X0.071748*%
%ADD22C,0.071748*%
%ADD23C,0.0826772*%
%ADD24C,0.094448*%
%ADD25C,0.055148*%
%ADD26C,0.115748*%
%ADD27C,0.047748*%
G04 APERTURE END LIST*
G54D10*
G54D11*
X28000Y-29000D03*
G54D12*
X27000Y-29000D03*
X26000Y-29000D03*
X25000Y-29000D03*
X24000Y-29000D03*
X23000Y-29000D03*
X22000Y-29000D03*
X21000Y-29000D03*
X20000Y-29000D03*
X19000Y-29000D03*
X18000Y-29000D03*
X17000Y-29000D03*
X16000Y-29000D03*
X15000Y-29000D03*
G54D11*
X31000Y-13000D03*
G54D12*
X31000Y-14000D03*
X31000Y-15000D03*
X31000Y-16000D03*
X31000Y-17000D03*
X31000Y-18000D03*
X31000Y-19000D03*
X31000Y-20000D03*
X31000Y-21000D03*
X31000Y-22000D03*
X31000Y-23000D03*
X31000Y-24000D03*
X31000Y-25000D03*
X31000Y-26000D03*
G54D11*
X13000Y-26000D03*
G54D12*
X13000Y-25000D03*
X13000Y-24000D03*
X13000Y-23000D03*
X13000Y-22000D03*
X13000Y-21000D03*
X13000Y-20000D03*
X13000Y-19000D03*
X13000Y-18000D03*
X13000Y-17000D03*
X13000Y-16000D03*
X13000Y-15000D03*
X13000Y-14000D03*
X13000Y-13000D03*
G54D11*
X12000Y-26000D03*
G54D12*
X12000Y-25000D03*
X12000Y-24000D03*
X12000Y-23000D03*
X12000Y-22000D03*
X12000Y-21000D03*
X12000Y-20000D03*
X12000Y-19000D03*
X12000Y-18000D03*
X12000Y-17000D03*
X12000Y-16000D03*
X12000Y-15000D03*
X12000Y-14000D03*
X12000Y-13000D03*
G54D11*
X30000Y-13000D03*
G54D12*
X30000Y-14000D03*
X30000Y-15000D03*
X30000Y-16000D03*
X30000Y-17000D03*
X30000Y-18000D03*
X30000Y-19000D03*
X30000Y-20000D03*
X30000Y-21000D03*
X30000Y-22000D03*
X30000Y-23000D03*
X30000Y-24000D03*
X30000Y-25000D03*
X30000Y-26000D03*
G54D11*
X28000Y-28000D03*
G54D12*
X27000Y-28000D03*
X26000Y-28000D03*
X25000Y-28000D03*
X24000Y-28000D03*
X23000Y-28000D03*
X22000Y-28000D03*
X21000Y-28000D03*
X20000Y-28000D03*
X19000Y-28000D03*
X18000Y-28000D03*
X17000Y-28000D03*
X16000Y-28000D03*
X15000Y-28000D03*
G54D13*
X12000Y-29000D03*
X31000Y-10000D03*
G54D14*
X28500Y-25750D03*
X28000Y-26250D03*
X27500Y-25750D03*
X26000Y-25750D03*
X25500Y-26250D03*
X25000Y-25750D03*
G54D15*
X20000Y-21600D03*
G54D16*
X20000Y-22600D03*
X20000Y-23600D03*
X20000Y-24600D03*
X23000Y-24600D03*
X23000Y-23600D03*
X23000Y-22600D03*
X23000Y-21600D03*
G54D17*
X15500Y-26000D03*
G54D18*
X16500Y-26000D03*
X17500Y-26000D03*
G54D15*
X25000Y-20500D03*
G54D16*
X26000Y-20500D03*
G54D15*
X17000Y-15500D03*
G54D16*
X18000Y-15500D03*
G54D15*
X28500Y-20500D03*
G54D16*
X28500Y-21500D03*
G54D15*
X28500Y-23000D03*
G54D16*
X28500Y-24000D03*
G54D15*
X25500Y-24000D03*
G54D16*
X25500Y-23000D03*
G54D15*
X25000Y-15500D03*
G54D16*
X26000Y-15500D03*
G54D15*
X17000Y-20500D03*
G54D16*
X18000Y-20500D03*
G54D19*
X16614Y-18885D03*
X17500Y-18885D03*
X18385Y-18885D03*
X18385Y-17114D03*
X16614Y-17114D03*
G54D20*
X19074Y-18000D03*
X15925Y-18000D03*
G54D19*
X26385Y-17114D03*
X25500Y-17114D03*
X24614Y-17114D03*
X24614Y-18885D03*
X26385Y-18885D03*
G54D20*
X23925Y-18000D03*
X27074Y-18000D03*
G54D21*
X24000Y-12000D03*
G54D22*
X27000Y-12000D03*
G54D21*
X16000Y-12000D03*
G54D22*
X19000Y-12000D03*
G54D12*
X46677Y-24838D03*
X45693Y-24838D03*
X47661Y-24838D03*
X47661Y-26098D03*
X46677Y-26098D03*
X45693Y-26098D03*
G54D15*
X40000Y-26750D03*
G54D16*
X39000Y-26750D03*
G54D23*
X34701Y-21500D03*
X52299Y-21500D03*
X52299Y-15500D03*
X34701Y-15500D03*
G54D13*
X53000Y-10000D03*
X34000Y-29000D03*
G54D15*
X51300Y-25260D03*
G54D16*
X52300Y-25260D03*
G54D11*
X37000Y-10000D03*
G54D12*
X38000Y-10000D03*
X39000Y-10000D03*
X40000Y-10000D03*
X41000Y-10000D03*
X42000Y-10000D03*
X43000Y-10000D03*
X44000Y-10000D03*
X45000Y-10000D03*
X46000Y-10000D03*
X47000Y-10000D03*
X48000Y-10000D03*
X49000Y-10000D03*
X50000Y-10000D03*
G54D11*
X50000Y-29000D03*
G54D12*
X49000Y-29000D03*
X48000Y-29000D03*
X47000Y-29000D03*
X46000Y-29000D03*
X45000Y-29000D03*
X44000Y-29000D03*
X43000Y-29000D03*
X42000Y-29000D03*
X41000Y-29000D03*
X40000Y-29000D03*
X39000Y-29000D03*
X38000Y-29000D03*
X37000Y-29000D03*
G54D11*
X50000Y-28000D03*
G54D12*
X49000Y-28000D03*
X48000Y-28000D03*
X47000Y-28000D03*
X46000Y-28000D03*
X45000Y-28000D03*
X44000Y-28000D03*
X43000Y-28000D03*
X42000Y-28000D03*
X41000Y-28000D03*
X40000Y-28000D03*
X39000Y-28000D03*
X38000Y-28000D03*
X37000Y-28000D03*
G54D11*
X37000Y-11000D03*
G54D12*
X38000Y-11000D03*
X39000Y-11000D03*
X40000Y-11000D03*
X41000Y-11000D03*
X42000Y-11000D03*
X43000Y-11000D03*
X44000Y-11000D03*
X45000Y-11000D03*
X46000Y-11000D03*
X47000Y-11000D03*
X48000Y-11000D03*
X49000Y-11000D03*
X50000Y-11000D03*
G54D11*
X28000Y-29000D03*
G54D12*
X27000Y-29000D03*
X26000Y-29000D03*
X25000Y-29000D03*
X24000Y-29000D03*
X23000Y-29000D03*
X22000Y-29000D03*
X21000Y-29000D03*
X20000Y-29000D03*
X19000Y-29000D03*
X18000Y-29000D03*
X17000Y-29000D03*
X16000Y-29000D03*
X15000Y-29000D03*
G54D11*
X31000Y-13000D03*
G54D12*
X31000Y-14000D03*
X31000Y-15000D03*
X31000Y-16000D03*
X31000Y-17000D03*
X31000Y-18000D03*
X31000Y-19000D03*
X31000Y-20000D03*
X31000Y-21000D03*
X31000Y-22000D03*
X31000Y-23000D03*
X31000Y-24000D03*
X31000Y-25000D03*
X31000Y-26000D03*
G54D11*
X13000Y-26000D03*
G54D12*
X13000Y-25000D03*
X13000Y-24000D03*
X13000Y-23000D03*
X13000Y-22000D03*
X13000Y-21000D03*
X13000Y-20000D03*
X13000Y-19000D03*
X13000Y-18000D03*
X13000Y-17000D03*
X13000Y-16000D03*
X13000Y-15000D03*
X13000Y-14000D03*
X13000Y-13000D03*
G54D11*
X12000Y-26000D03*
G54D12*
X12000Y-25000D03*
X12000Y-24000D03*
X12000Y-23000D03*
X12000Y-22000D03*
X12000Y-21000D03*
X12000Y-20000D03*
X12000Y-19000D03*
X12000Y-18000D03*
X12000Y-17000D03*
X12000Y-16000D03*
X12000Y-15000D03*
X12000Y-14000D03*
X12000Y-13000D03*
G54D11*
X30000Y-13000D03*
G54D12*
X30000Y-14000D03*
X30000Y-15000D03*
X30000Y-16000D03*
X30000Y-17000D03*
X30000Y-18000D03*
X30000Y-19000D03*
X30000Y-20000D03*
X30000Y-21000D03*
X30000Y-22000D03*
X30000Y-23000D03*
X30000Y-24000D03*
X30000Y-25000D03*
X30000Y-26000D03*
G54D11*
X28000Y-28000D03*
G54D12*
X27000Y-28000D03*
X26000Y-28000D03*
X25000Y-28000D03*
X24000Y-28000D03*
X23000Y-28000D03*
X22000Y-28000D03*
X21000Y-28000D03*
X20000Y-28000D03*
X19000Y-28000D03*
X18000Y-28000D03*
X17000Y-28000D03*
X16000Y-28000D03*
X15000Y-28000D03*
G54D13*
X12000Y-29000D03*
X31000Y-10000D03*
G54D14*
X28500Y-25750D03*
X28000Y-26250D03*
X27500Y-25750D03*
X26000Y-25750D03*
X25500Y-26250D03*
X25000Y-25750D03*
G54D15*
X20000Y-21600D03*
G54D16*
X20000Y-22600D03*
X20000Y-23600D03*
X20000Y-24600D03*
X23000Y-24600D03*
X23000Y-23600D03*
X23000Y-22600D03*
X23000Y-21600D03*
G54D17*
X15500Y-26000D03*
G54D18*
X16500Y-26000D03*
X17500Y-26000D03*
G54D15*
X25000Y-20500D03*
G54D16*
X26000Y-20500D03*
G54D15*
X17000Y-15500D03*
G54D16*
X18000Y-15500D03*
G54D15*
X28500Y-20500D03*
G54D16*
X28500Y-21500D03*
G54D15*
X28500Y-23000D03*
G54D16*
X28500Y-24000D03*
G54D15*
X25500Y-24000D03*
G54D16*
X25500Y-23000D03*
G54D15*
X25000Y-15500D03*
G54D16*
X26000Y-15500D03*
G54D15*
X17000Y-20500D03*
G54D16*
X18000Y-20500D03*
G54D19*
X16614Y-18885D03*
X17500Y-18885D03*
X18385Y-18885D03*
X18385Y-17114D03*
X16614Y-17114D03*
G54D20*
X19074Y-18000D03*
X15925Y-18000D03*
G54D19*
X26385Y-17114D03*
X25500Y-17114D03*
X24614Y-17114D03*
X24614Y-18885D03*
X26385Y-18885D03*
G54D20*
X23925Y-18000D03*
X27074Y-18000D03*
G54D21*
X24000Y-12000D03*
G54D22*
X27000Y-12000D03*
G54D21*
X16000Y-12000D03*
G54D22*
X19000Y-12000D03*
G54D12*
X46677Y-24838D03*
X45693Y-24838D03*
X47661Y-24838D03*
X47661Y-26098D03*
X46677Y-26098D03*
X45693Y-26098D03*
G54D15*
X40000Y-26750D03*
G54D16*
X39000Y-26750D03*
G54D23*
X34701Y-21500D03*
X52299Y-21500D03*
X52299Y-15500D03*
X34701Y-15500D03*
G54D13*
X53000Y-10000D03*
X34000Y-29000D03*
G54D15*
X51300Y-25260D03*
G54D16*
X52300Y-25260D03*
G54D11*
X37000Y-10000D03*
G54D12*
X38000Y-10000D03*
X39000Y-10000D03*
X40000Y-10000D03*
X41000Y-10000D03*
X42000Y-10000D03*
X43000Y-10000D03*
X44000Y-10000D03*
X45000Y-10000D03*
X46000Y-10000D03*
X47000Y-10000D03*
X48000Y-10000D03*
X49000Y-10000D03*
X50000Y-10000D03*
G54D11*
X50000Y-29000D03*
G54D12*
X49000Y-29000D03*
X48000Y-29000D03*
X47000Y-29000D03*
X46000Y-29000D03*
X45000Y-29000D03*
X44000Y-29000D03*
X43000Y-29000D03*
X42000Y-29000D03*
X41000Y-29000D03*
X40000Y-29000D03*
X39000Y-29000D03*
X38000Y-29000D03*
X37000Y-29000D03*
G54D11*
X50000Y-28000D03*
G54D12*
X49000Y-28000D03*
X48000Y-28000D03*
X47000Y-28000D03*
X46000Y-28000D03*
X45000Y-28000D03*
X44000Y-28000D03*
X43000Y-28000D03*
X42000Y-28000D03*
X41000Y-28000D03*
X40000Y-28000D03*
X39000Y-28000D03*
X38000Y-28000D03*
X37000Y-28000D03*
G54D11*
X37000Y-11000D03*
G54D12*
X38000Y-11000D03*
X39000Y-11000D03*
X40000Y-11000D03*
X41000Y-11000D03*
X42000Y-11000D03*
X43000Y-11000D03*
X44000Y-11000D03*
X45000Y-11000D03*
X46000Y-11000D03*
X47000Y-11000D03*
X48000Y-11000D03*
X49000Y-11000D03*
X50000Y-11000D03*
G54D15*
X69858Y-25721D03*
G54D16*
X69858Y-26721D03*
G54D15*
X67496Y-25721D03*
G54D16*
X67496Y-26721D03*
G54D15*
X68500Y-9750D03*
G54D16*
X68500Y-10750D03*
X67500Y-9750D03*
X67500Y-10750D03*
X66500Y-9750D03*
X66500Y-10750D03*
X65500Y-9750D03*
X65500Y-10750D03*
X64500Y-9750D03*
X64500Y-10750D03*
X63500Y-9750D03*
X63500Y-10750D03*
X62500Y-9750D03*
X62500Y-10750D03*
G54D12*
X74596Y-10000D03*
X72904Y-10000D03*
G54D24*
X75128Y-10984D03*
X72372Y-10984D03*
G54D13*
X75000Y-29000D03*
X56000Y-29000D03*
G54D11*
X72000Y-29000D03*
G54D12*
X71000Y-29000D03*
X70000Y-29000D03*
X69000Y-29000D03*
X68000Y-29000D03*
X67000Y-29000D03*
X66000Y-29000D03*
X65000Y-29000D03*
X64000Y-29000D03*
X63000Y-29000D03*
X62000Y-29000D03*
X61000Y-29000D03*
X60000Y-29000D03*
X59000Y-29000D03*
G54D11*
X56000Y-26000D03*
G54D12*
X56000Y-25000D03*
X56000Y-24000D03*
X56000Y-23000D03*
X56000Y-22000D03*
X56000Y-21000D03*
X56000Y-20000D03*
X56000Y-19000D03*
X56000Y-18000D03*
X56000Y-17000D03*
X56000Y-16000D03*
X56000Y-15000D03*
X56000Y-14000D03*
X56000Y-13000D03*
G54D11*
X57000Y-26000D03*
G54D12*
X57000Y-25000D03*
X57000Y-24000D03*
X57000Y-23000D03*
X57000Y-22000D03*
X57000Y-21000D03*
X57000Y-20000D03*
X57000Y-19000D03*
X57000Y-18000D03*
X57000Y-17000D03*
X57000Y-16000D03*
X57000Y-15000D03*
X57000Y-14000D03*
X57000Y-13000D03*
G54D11*
X72000Y-28000D03*
G54D12*
X71000Y-28000D03*
X70000Y-28000D03*
X69000Y-28000D03*
X68000Y-28000D03*
X67000Y-28000D03*
X66000Y-28000D03*
X65000Y-28000D03*
X64000Y-28000D03*
X63000Y-28000D03*
X62000Y-28000D03*
X61000Y-28000D03*
X60000Y-28000D03*
X59000Y-28000D03*
G54D11*
X75000Y-13000D03*
G54D12*
X75000Y-14000D03*
X75000Y-15000D03*
X75000Y-16000D03*
X75000Y-17000D03*
X75000Y-18000D03*
X75000Y-19000D03*
X75000Y-20000D03*
X75000Y-21000D03*
X75000Y-22000D03*
X75000Y-23000D03*
X75000Y-24000D03*
X75000Y-25000D03*
X75000Y-26000D03*
G54D11*
X74000Y-13000D03*
G54D12*
X74000Y-14000D03*
X74000Y-15000D03*
X74000Y-16000D03*
X74000Y-17000D03*
X74000Y-18000D03*
X74000Y-19000D03*
X74000Y-20000D03*
X74000Y-21000D03*
X74000Y-22000D03*
X74000Y-23000D03*
X74000Y-24000D03*
X74000Y-25000D03*
X74000Y-26000D03*
G54D25*
X56488Y-10850D03*
X58220Y-10850D03*
G54D26*
X12000Y-51000D03*
G54D11*
X12000Y-48000D03*
G54D12*
X12000Y-47000D03*
X12000Y-46000D03*
X12000Y-45000D03*
X12000Y-44000D03*
X12000Y-43000D03*
X12000Y-42000D03*
X12000Y-41000D03*
X12000Y-40000D03*
X12000Y-39000D03*
X12000Y-38000D03*
X12000Y-37000D03*
X12000Y-36000D03*
X12000Y-35000D03*
G54D11*
X31000Y-35000D03*
G54D12*
X31000Y-36000D03*
X31000Y-37000D03*
X31000Y-38000D03*
X31000Y-39000D03*
X31000Y-40000D03*
X31000Y-41000D03*
X31000Y-42000D03*
X31000Y-43000D03*
X31000Y-44000D03*
X31000Y-45000D03*
X31000Y-46000D03*
X31000Y-47000D03*
X31000Y-48000D03*
G54D11*
X15000Y-32000D03*
G54D12*
X16000Y-32000D03*
X17000Y-32000D03*
X18000Y-32000D03*
X19000Y-32000D03*
X20000Y-32000D03*
X21000Y-32000D03*
X22000Y-32000D03*
X23000Y-32000D03*
X24000Y-32000D03*
X25000Y-32000D03*
X26000Y-32000D03*
X27000Y-32000D03*
X28000Y-32000D03*
G54D11*
X15000Y-33000D03*
G54D12*
X16000Y-33000D03*
X17000Y-33000D03*
X18000Y-33000D03*
X19000Y-33000D03*
X20000Y-33000D03*
X21000Y-33000D03*
X22000Y-33000D03*
X23000Y-33000D03*
X24000Y-33000D03*
X25000Y-33000D03*
X26000Y-33000D03*
X27000Y-33000D03*
X28000Y-33000D03*
G54D11*
X30000Y-35000D03*
G54D12*
X30000Y-36000D03*
X30000Y-37000D03*
X30000Y-38000D03*
X30000Y-39000D03*
X30000Y-40000D03*
X30000Y-41000D03*
X30000Y-42000D03*
X30000Y-43000D03*
X30000Y-44000D03*
X30000Y-45000D03*
X30000Y-46000D03*
X30000Y-47000D03*
X30000Y-48000D03*
G54D11*
X13000Y-48000D03*
G54D12*
X13000Y-47000D03*
X13000Y-46000D03*
X13000Y-45000D03*
X13000Y-44000D03*
X13000Y-43000D03*
X13000Y-42000D03*
X13000Y-41000D03*
X13000Y-40000D03*
X13000Y-39000D03*
X13000Y-38000D03*
X13000Y-37000D03*
X13000Y-36000D03*
X13000Y-35000D03*
G54D13*
X31000Y-32000D03*
G54D15*
X36400Y-47000D03*
G54D16*
X36400Y-48000D03*
G54D11*
X37000Y-32000D03*
G54D12*
X38000Y-32000D03*
X39000Y-32000D03*
X40000Y-32000D03*
X41000Y-32000D03*
X42000Y-32000D03*
X43000Y-32000D03*
X44000Y-32000D03*
X45000Y-32000D03*
X46000Y-32000D03*
X47000Y-32000D03*
X48000Y-32000D03*
X49000Y-32000D03*
X50000Y-32000D03*
G54D11*
X50000Y-51000D03*
G54D12*
X49000Y-51000D03*
X48000Y-51000D03*
X47000Y-51000D03*
X46000Y-51000D03*
X45000Y-51000D03*
X44000Y-51000D03*
X43000Y-51000D03*
X42000Y-51000D03*
X41000Y-51000D03*
X40000Y-51000D03*
X39000Y-51000D03*
X38000Y-51000D03*
X37000Y-51000D03*
G54D11*
X53000Y-35000D03*
G54D12*
X53000Y-36000D03*
X53000Y-37000D03*
X53000Y-38000D03*
X53000Y-39000D03*
X53000Y-40000D03*
X53000Y-41000D03*
X53000Y-42000D03*
X53000Y-43000D03*
X53000Y-44000D03*
X53000Y-45000D03*
X53000Y-46000D03*
X53000Y-47000D03*
X53000Y-48000D03*
G54D11*
X35000Y-48000D03*
G54D12*
X35000Y-47000D03*
X35000Y-46000D03*
X35000Y-45000D03*
X35000Y-44000D03*
X35000Y-43000D03*
X35000Y-42000D03*
X35000Y-41000D03*
X35000Y-40000D03*
X35000Y-39000D03*
X35000Y-38000D03*
X35000Y-37000D03*
X35000Y-36000D03*
X35000Y-35000D03*
G54D11*
X34000Y-48000D03*
G54D12*
X34000Y-47000D03*
X34000Y-46000D03*
X34000Y-45000D03*
X34000Y-44000D03*
X34000Y-43000D03*
X34000Y-42000D03*
X34000Y-41000D03*
X34000Y-40000D03*
X34000Y-39000D03*
X34000Y-38000D03*
X34000Y-37000D03*
X34000Y-36000D03*
X34000Y-35000D03*
G54D11*
X52000Y-35000D03*
G54D12*
X52000Y-36000D03*
X52000Y-37000D03*
X52000Y-38000D03*
X52000Y-39000D03*
X52000Y-40000D03*
X52000Y-41000D03*
X52000Y-42000D03*
X52000Y-43000D03*
X52000Y-44000D03*
X52000Y-45000D03*
X52000Y-46000D03*
X52000Y-47000D03*
X52000Y-48000D03*
G54D11*
X50000Y-50000D03*
G54D12*
X49000Y-50000D03*
X48000Y-50000D03*
X47000Y-50000D03*
X46000Y-50000D03*
X45000Y-50000D03*
X44000Y-50000D03*
X43000Y-50000D03*
X42000Y-50000D03*
X41000Y-50000D03*
X40000Y-50000D03*
X39000Y-50000D03*
X38000Y-50000D03*
X37000Y-50000D03*
G54D11*
X37000Y-33000D03*
G54D12*
X38000Y-33000D03*
X39000Y-33000D03*
X40000Y-33000D03*
X41000Y-33000D03*
X42000Y-33000D03*
X43000Y-33000D03*
X44000Y-33000D03*
X45000Y-33000D03*
X46000Y-33000D03*
X47000Y-33000D03*
X48000Y-33000D03*
X49000Y-33000D03*
X50000Y-33000D03*
G54D13*
X34000Y-51000D03*
X53000Y-32000D03*
G54D11*
X59000Y-32000D03*
G54D12*
X60000Y-32000D03*
X61000Y-32000D03*
X62000Y-32000D03*
X63000Y-32000D03*
X64000Y-32000D03*
X65000Y-32000D03*
X66000Y-32000D03*
X67000Y-32000D03*
X68000Y-32000D03*
X69000Y-32000D03*
X70000Y-32000D03*
X71000Y-32000D03*
X72000Y-32000D03*
G54D11*
X72000Y-51000D03*
G54D12*
X71000Y-51000D03*
X70000Y-51000D03*
X69000Y-51000D03*
X68000Y-51000D03*
X67000Y-51000D03*
X66000Y-51000D03*
X65000Y-51000D03*
X64000Y-51000D03*
X63000Y-51000D03*
X62000Y-51000D03*
X61000Y-51000D03*
X60000Y-51000D03*
X59000Y-51000D03*
G54D11*
X72000Y-50000D03*
G54D12*
X71000Y-50000D03*
X70000Y-50000D03*
X69000Y-50000D03*
X68000Y-50000D03*
X67000Y-50000D03*
X66000Y-50000D03*
X65000Y-50000D03*
X64000Y-50000D03*
X63000Y-50000D03*
X62000Y-50000D03*
X61000Y-50000D03*
X60000Y-50000D03*
X59000Y-50000D03*
G54D11*
X59000Y-33000D03*
G54D12*
X60000Y-33000D03*
X61000Y-33000D03*
X62000Y-33000D03*
X63000Y-33000D03*
X64000Y-33000D03*
X65000Y-33000D03*
X66000Y-33000D03*
X67000Y-33000D03*
X68000Y-33000D03*
X69000Y-33000D03*
X70000Y-33000D03*
X71000Y-33000D03*
X72000Y-33000D03*
G54D13*
X56000Y-51000D03*
G54D26*
X75000Y-32000D03*
G54D17*
X75200Y-48800D03*
G54D18*
X74200Y-48800D03*
X73200Y-48800D03*
X72200Y-48800D03*
X71200Y-48800D03*
X70200Y-48800D03*
X69200Y-48800D03*
G54D11*
X75200Y-47550D03*
G54D12*
X75200Y-46550D03*
X75200Y-45550D03*
X75200Y-44550D03*
X75200Y-43550D03*
G54D22*
X72600Y-41000D03*
X74600Y-41000D03*
G54D27*
X59800Y-41550D03*
X59800Y-43550D03*
M02*
