M48
;DRILL file {Pcbnew (2013-mar-13)-testing} date Tue 09 Apr 2013 04:18:12 PM CEST
;FORMAT={-:-/ absolute / inch / decimal}
FMAT,2
INCH,TZ
T1C0.016
T2C0.024
T3C0.030
T4C0.031
T5C0.032
T6C0.035
T7C0.039
T8C0.040
T9C0.047
T10C0.047
T11C0.059
T12C0.100
%
G90
G05
M72
T1
X1.25Y-3.4129
X1.3Y-1.18
X1.3Y-1.18
X1.3516Y-3.8584
X1.36Y-2.9
X1.36Y-2.9
X1.36Y-4.35
X1.3836Y-3.4389
X1.42Y-2.68
X1.42Y-2.68
X1.44Y-1.
X1.44Y-1.
X1.453Y-3.4549
X1.453Y-3.7869
X1.47Y-4.745
X1.4799Y-3.5006
X1.495Y-3.5406
X1.5Y-3.3549
X1.521Y-3.8769
X1.5584Y-3.3869
X1.56Y-1.52
X1.56Y-1.52
X1.65Y-3.775
X1.6803Y-4.6632
X1.75Y-3.69
X1.7772Y-4.263
X1.7772Y-4.4028
X1.87Y-4.715
X1.8851Y-4.5207
X1.9111Y-4.6333
X2.Y-1.
X2.Y-1.
X2.Y-3.3869
X2.0346Y-3.989
X2.0346Y-4.4404
X2.05Y-1.7
X2.05Y-1.7
X2.0616Y-4.314
X2.0813Y-4.6632
X2.1002Y-4.0331
X2.101Y-3.4129
X2.101Y-3.715
X2.101Y-3.8901
X2.1073Y-4.1757
X2.125Y-4.525
X2.127Y-3.5
X2.1493Y-4.2377
X2.15Y-1.15
X2.15Y-1.15
X2.15Y-1.43
X2.15Y-1.43
X2.15Y-1.9
X2.15Y-1.9
X2.153Y-3.8541
X2.1748Y-4.2737
X2.1953Y-4.2117
X2.2213Y-4.1385
X2.2228Y-3.5481
X2.2412Y-4.6632
X2.25Y-1.7
X2.25Y-1.7
X2.3Y-1.
X2.3Y-1.
X2.325Y-4.35
X2.3286Y-3.7659
X2.339Y-4.7047
X2.363Y-4.4203
X2.377Y-4.5467
X2.3772Y-3.4842
X2.3772Y-3.6738
X2.3772Y-3.7607
X2.3997Y-4.0011
X2.415Y-4.4988
X2.4367Y-3.3549
X2.4727Y-3.8228
X2.5268Y-4.4463
X2.54Y-4.04
X2.565Y-3.91
X2.58Y-4.79
X2.6Y-3.7919
X2.6569Y-4.0983
X2.6569Y-4.314
X2.745Y-3.72
X2.7477Y-4.3347
X2.76Y-1.48
X2.76Y-1.48
X2.8Y-1.72
X2.8Y-1.72
X2.8Y-1.85
X2.8Y-1.85
X2.835Y-4.71
X2.8421Y-3.3671
X2.879Y-3.2585
X2.882Y-3.1895
X2.9011Y-3.4066
X2.9271Y-3.6391
X3.143Y-3.323
X3.45Y-2.65
X3.45Y-2.65
X3.4516Y-4.25
X3.5557Y-4.9204
X3.5606Y-4.025
X3.6057Y-4.6354
X3.6057Y-4.9204
X3.6093Y-4.0921
X3.6674Y-4.6094
X3.7Y-2.65
X3.7Y-2.65
X3.7Y-4.9484
X3.7031Y-4.5447
X3.7615Y-4.4302
X3.7666Y-4.4767
X3.7916Y-4.4
X3.8Y-1.55
X3.8Y-1.55
X3.8Y-2.15
X3.8Y-2.15
X3.8Y-4.5949
X3.825Y-4.5449
X3.825Y-4.8844
X3.8449Y-4.412
X3.8594Y-3.3516
X3.8594Y-3.9441
X3.861Y-4.5197
X3.8709Y-4.6369
X3.8709Y-4.7473
X3.8787Y-4.2689
X3.9Y-4.5699
X3.9037Y-4.3083
X3.9152Y-4.1061
X3.9292Y-4.3423
X3.9671Y-3.4358
X4.0024Y-4.9234
X4.0362Y-4.2886
X4.0441Y-3.775
X4.0451Y-3.643
X4.0612Y-4.3316
X4.0612Y-4.6583
X4.0612Y-4.7423
X4.0612Y-4.8094
X4.0612Y-4.8734
X4.0673Y-3.875
X4.0696Y-3.4104
X4.0696Y-3.811
X4.0951Y-3.4358
X4.0951Y-3.7762
X4.103Y-3.6005
X4.1056Y-3.3854
X4.1064Y-4.0917
X4.1112Y-4.6478
X4.1112Y-4.7163
X4.1357Y-4.4163
X4.1472Y-4.6228
X4.1505Y-3.3854
X4.1515Y-4.088
X4.1612Y-4.4418
X4.1862Y-4.2545
X4.1898Y-3.7059
X4.1933Y-3.6284
X4.1965Y-4.0468
X4.2144Y-3.8781
X4.2147Y-4.8384
X4.2225Y-4.0167
X4.2304Y-3.8036
X4.2607Y-4.3316
X4.2824Y-3.6284
X4.2867Y-4.1545
X4.2867Y-4.2399
X4.2905Y-4.088
X4.3Y-4.9234
X4.3127Y-4.2689
X4.3192Y-4.5618
X4.3209Y-4.3913
X4.3227Y-4.1705
X4.3227Y-4.2295
X4.3406Y-4.9234
X4.35Y-1.4
X4.35Y-1.4
X4.35Y-1.7
X4.35Y-1.7
X4.35Y-2.
X4.35Y-2.
X4.35Y-2.3
X4.35Y-2.3
X4.3666Y-3.8406
X4.3687Y-4.8384
X4.3723Y-4.1185
X4.3729Y-4.3913
X4.3729Y-4.4406
X4.3863Y-4.6463
X4.3889Y-4.2035
X4.3979Y-4.3083
X4.4Y-3.8046
X4.4059Y-4.0095
X4.4229Y-4.0535
X4.4256Y-3.8906
X4.4366Y-3.6284
X4.4366Y-3.8406
X4.4453Y-4.5608
X4.4471Y-4.6917
X4.4536Y-4.4255
X4.4646Y-3.3604
X4.4723Y-4.4793
X4.5036Y-3.8656
X4.5036Y-3.9951
X4.5041Y-4.7167
X4.507Y-3.6282
X4.507Y-3.7131
X4.525Y-3.4894
X4.55Y-3.3854
X4.5536Y-3.9858
X4.5797Y-4.5451
X4.5874Y-4.0327
X4.5874Y-4.1364
X4.5874Y-4.2886
X4.5874Y-4.4043
X4.5892Y-4.706
X4.6Y-4.8244
X4.6124Y-4.1902
X4.625Y-3.4108
X4.6455Y-4.1542
X4.6491Y-3.7196
X4.6491Y-4.1167
X4.6534Y-4.8244
X4.6789Y-4.2591
X4.6789Y-4.7984
X4.714Y-3.4161
X4.725Y-4.9484
X4.7363Y-4.2694
X4.7363Y-4.5293
X4.7363Y-4.5793
X4.761Y-4.8384
X4.761Y-4.9484
X4.763Y-3.5667
X4.7632Y-3.9204
X4.764Y-4.6763
X4.7876Y-4.3496
X4.8Y-4.706
X4.8127Y-3.7548
X4.8377Y-4.2688
X4.8416Y-4.7445
X4.8669Y-4.5043
X4.8877Y-3.7548
X4.8921Y-3.9204
X4.8921Y-4.0778
X4.9Y-1.55
X4.9Y-1.55
X4.9Y-2.15
X4.9Y-2.15
X4.9021Y-4.3001
X4.922Y-4.6253
X4.9281Y-3.7196
X4.9281Y-4.1888
X4.9517Y-4.4543
X4.9781Y-4.0118
X4.9781Y-4.1778
X5.Y-3.4161
X5.Y-4.8834
X5.0516Y-3.8753
X5.0602Y-3.7594
X5.0776Y-4.4293
X5.098Y-4.9234
X5.1Y-1.2
X5.1Y-1.2
X5.112Y-3.9344
X5.144Y-5.0234
X5.1695Y-5.0594
X5.6075Y-4.8956
X5.7365Y-1.2584
X5.7375Y-1.06
X5.74Y-4.82
X5.765Y-5.09
X5.7984Y-1.2546
X5.8163Y-1.5689
X5.8163Y-1.6969
X5.8261Y-1.9331
X5.8261Y-2.0709
X5.9Y-2.51
X5.9159Y-1.3426
X5.9406Y-1.9877
X5.95Y-4.59
X5.9703Y-1.6969
X5.98Y-4.155
X5.98Y-4.355
X6.0063Y-1.624
X6.0266Y-2.2283
X6.075Y-4.88
X6.08Y-4.59
X6.095Y-1.025
X6.1266Y-2.3055
X6.1336Y-1.5454
X6.1521Y-2.228
X6.1596Y-1.4305
X6.1596Y-1.8514
X6.2033Y-2.1748
X6.2037Y-2.4256
X6.2106Y-1.5492
X6.2366Y-1.8254
X6.2366Y-1.5866
X6.2616Y-1.3108
X6.2801Y-2.4727
X6.3016Y-1.383
X6.3386Y-1.4305
X6.345Y-4.895
X6.3916Y-1.5492
X6.392Y-1.1866
X6.408Y-2.3055
X6.4458Y-1.6575
X6.4537Y-1.4405
X6.518Y-1.1866
X6.518Y-2.238
X6.6Y-4.855
X6.663Y-3.665
X6.663Y-3.8
X6.663Y-3.92
X6.7406Y-3.3745
X6.75Y-1.98
X6.75Y-2.34
X6.8055Y-3.5973
X6.9Y-1.7205
X6.9416Y-1.8614
X6.9578Y-4.3784
X6.9618Y-3.9955
X6.9698Y-1.1866
X7.0125Y-4.3259
X7.0508Y-4.2132
X7.0508Y-4.7925
X7.0955Y-4.3267
X7.0955Y-4.6952
X7.1Y-4.455
X7.1295Y-4.2765
X7.1374Y-4.047
X7.1695Y-4.88
X7.1827Y-3.8139
X7.2023Y-4.5669
X7.2025Y-4.3185
X7.2075Y-4.8066
X7.22Y-2.51
X7.2415Y-4.1882
X7.2506Y-4.4201
X7.2565Y-3.7706
X7.273Y-4.25
X7.32Y-4.4595
X7.34Y-3.2
X7.37Y-4.6
X7.37Y-4.78
X7.42Y-4.4845
X7.52Y-4.3015
X7.5375Y-3.7706
T2
X1.6614Y-1.7114
X1.6614Y-1.7114
X1.6614Y-1.8886
X1.6614Y-1.8886
X1.75Y-1.8886
X1.75Y-1.8886
X1.8386Y-1.7114
X1.8386Y-1.7114
X1.8386Y-1.8886
X1.8386Y-1.8886
X2.4614Y-1.7114
X2.4614Y-1.7114
X2.4614Y-1.8886
X2.4614Y-1.8886
X2.55Y-1.7114
X2.55Y-1.7114
X2.6386Y-1.7114
X2.6386Y-1.7114
X2.6386Y-1.8886
X2.6386Y-1.8886
T3
X7.26Y-4.1
X7.46Y-4.1
T4
X2.5Y-2.575
X2.5Y-2.575
X2.55Y-2.625
X2.55Y-2.625
X2.6Y-2.575
X2.6Y-2.575
X2.75Y-2.575
X2.75Y-2.575
X2.8Y-2.625
X2.8Y-2.625
X2.85Y-2.575
X2.85Y-2.575
T5
X1.55Y-2.6
X1.55Y-2.6
X1.6Y-1.2
X1.6Y-1.2
X1.65Y-2.6
X1.65Y-2.6
X1.75Y-2.6
X1.75Y-2.6
X1.9Y-1.2
X1.9Y-1.2
X2.Y-2.16
X2.Y-2.16
X2.Y-2.26
X2.Y-2.26
X2.Y-2.36
X2.Y-2.36
X2.Y-2.46
X2.Y-2.46
X2.3Y-2.16
X2.3Y-2.16
X2.3Y-2.26
X2.3Y-2.26
X2.3Y-2.36
X2.3Y-2.36
X2.3Y-2.46
X2.3Y-2.46
X2.4Y-1.2
X2.4Y-1.2
X2.7Y-1.2
X2.7Y-1.2
X6.92Y-4.88
X7.02Y-4.88
X7.12Y-4.88
X7.22Y-4.88
X7.32Y-4.88
X7.42Y-4.88
X7.52Y-4.88
T6
X5.6488Y-1.085
X5.822Y-1.085
T7
X1.2Y-1.3
X1.2Y-1.3
X1.2Y-1.4
X1.2Y-1.4
X1.2Y-1.5
X1.2Y-1.5
X1.2Y-1.6
X1.2Y-1.6
X1.2Y-1.7
X1.2Y-1.7
X1.2Y-1.8
X1.2Y-1.8
X1.2Y-1.9
X1.2Y-1.9
X1.2Y-2.
X1.2Y-2.
X1.2Y-2.1
X1.2Y-2.1
X1.2Y-2.2
X1.2Y-2.2
X1.2Y-2.3
X1.2Y-2.3
X1.2Y-2.4
X1.2Y-2.4
X1.2Y-2.5
X1.2Y-2.5
X1.2Y-2.6
X1.2Y-2.6
X1.2Y-3.5
X1.2Y-3.6
X1.2Y-3.7
X1.2Y-3.8
X1.2Y-3.9
X1.2Y-4.
X1.2Y-4.1
X1.2Y-4.2
X1.2Y-4.3
X1.2Y-4.4
X1.2Y-4.5
X1.2Y-4.6
X1.2Y-4.7
X1.2Y-4.8
X1.3Y-1.3
X1.3Y-1.3
X1.3Y-1.4
X1.3Y-1.4
X1.3Y-1.5
X1.3Y-1.5
X1.3Y-1.6
X1.3Y-1.6
X1.3Y-1.7
X1.3Y-1.7
X1.3Y-1.8
X1.3Y-1.8
X1.3Y-1.9
X1.3Y-1.9
X1.3Y-2.
X1.3Y-2.
X1.3Y-2.1
X1.3Y-2.1
X1.3Y-2.2
X1.3Y-2.2
X1.3Y-2.3
X1.3Y-2.3
X1.3Y-2.4
X1.3Y-2.4
X1.3Y-2.5
X1.3Y-2.5
X1.3Y-2.6
X1.3Y-2.6
X1.3Y-3.5
X1.3Y-3.6
X1.3Y-3.7
X1.3Y-3.8
X1.3Y-3.9
X1.3Y-4.
X1.3Y-4.1
X1.3Y-4.2
X1.3Y-4.3
X1.3Y-4.4
X1.3Y-4.5
X1.3Y-4.6
X1.3Y-4.7
X1.3Y-4.8
X1.5Y-2.8
X1.5Y-2.8
X1.5Y-2.9
X1.5Y-2.9
X1.5Y-3.2
X1.5Y-3.3
X1.6Y-2.8
X1.6Y-2.8
X1.6Y-2.9
X1.6Y-2.9
X1.6Y-3.2
X1.6Y-3.3
X1.7Y-2.8
X1.7Y-2.8
X1.7Y-2.9
X1.7Y-2.9
X1.7Y-3.2
X1.7Y-3.3
X1.8Y-2.8
X1.8Y-2.8
X1.8Y-2.9
X1.8Y-2.9
X1.8Y-3.2
X1.8Y-3.3
X1.9Y-2.8
X1.9Y-2.8
X1.9Y-2.9
X1.9Y-2.9
X1.9Y-3.2
X1.9Y-3.3
X2.Y-2.8
X2.Y-2.8
X2.Y-2.9
X2.Y-2.9
X2.Y-3.2
X2.Y-3.3
X2.1Y-2.8
X2.1Y-2.8
X2.1Y-2.9
X2.1Y-2.9
X2.1Y-3.2
X2.1Y-3.3
X2.2Y-2.8
X2.2Y-2.8
X2.2Y-2.9
X2.2Y-2.9
X2.2Y-3.2
X2.2Y-3.3
X2.3Y-2.8
X2.3Y-2.8
X2.3Y-2.9
X2.3Y-2.9
X2.3Y-3.2
X2.3Y-3.3
X2.4Y-2.8
X2.4Y-2.8
X2.4Y-2.9
X2.4Y-2.9
X2.4Y-3.2
X2.4Y-3.3
X2.5Y-2.8
X2.5Y-2.8
X2.5Y-2.9
X2.5Y-2.9
X2.5Y-3.2
X2.5Y-3.3
X2.6Y-2.8
X2.6Y-2.8
X2.6Y-2.9
X2.6Y-2.9
X2.6Y-3.2
X2.6Y-3.3
X2.7Y-2.8
X2.7Y-2.8
X2.7Y-2.9
X2.7Y-2.9
X2.7Y-3.2
X2.7Y-3.3
X2.8Y-2.8
X2.8Y-2.8
X2.8Y-2.9
X2.8Y-2.9
X2.8Y-3.2
X2.8Y-3.3
X3.Y-1.3
X3.Y-1.3
X3.Y-1.4
X3.Y-1.4
X3.Y-1.5
X3.Y-1.5
X3.Y-1.6
X3.Y-1.6
X3.Y-1.7
X3.Y-1.7
X3.Y-1.8
X3.Y-1.8
X3.Y-1.9
X3.Y-1.9
X3.Y-2.
X3.Y-2.
X3.Y-2.1
X3.Y-2.1
X3.Y-2.2
X3.Y-2.2
X3.Y-2.3
X3.Y-2.3
X3.Y-2.4
X3.Y-2.4
X3.Y-2.5
X3.Y-2.5
X3.Y-2.6
X3.Y-2.6
X3.Y-3.5
X3.Y-3.6
X3.Y-3.7
X3.Y-3.8
X3.Y-3.9
X3.Y-4.
X3.Y-4.1
X3.Y-4.2
X3.Y-4.3
X3.Y-4.4
X3.Y-4.5
X3.Y-4.6
X3.Y-4.7
X3.Y-4.8
X3.1Y-1.3
X3.1Y-1.3
X3.1Y-1.4
X3.1Y-1.4
X3.1Y-1.5
X3.1Y-1.5
X3.1Y-1.6
X3.1Y-1.6
X3.1Y-1.7
X3.1Y-1.7
X3.1Y-1.8
X3.1Y-1.8
X3.1Y-1.9
X3.1Y-1.9
X3.1Y-2.
X3.1Y-2.
X3.1Y-2.1
X3.1Y-2.1
X3.1Y-2.2
X3.1Y-2.2
X3.1Y-2.3
X3.1Y-2.3
X3.1Y-2.4
X3.1Y-2.4
X3.1Y-2.5
X3.1Y-2.5
X3.1Y-2.6
X3.1Y-2.6
X3.1Y-3.5
X3.1Y-3.6
X3.1Y-3.7
X3.1Y-3.8
X3.1Y-3.9
X3.1Y-4.
X3.1Y-4.1
X3.1Y-4.2
X3.1Y-4.3
X3.1Y-4.4
X3.1Y-4.5
X3.1Y-4.6
X3.1Y-4.7
X3.1Y-4.8
X3.4Y-3.5
X3.4Y-3.6
X3.4Y-3.7
X3.4Y-3.8
X3.4Y-3.9
X3.4Y-4.
X3.4Y-4.1
X3.4Y-4.2
X3.4Y-4.3
X3.4Y-4.4
X3.4Y-4.5
X3.4Y-4.6
X3.4Y-4.7
X3.4Y-4.8
X3.5Y-3.5
X3.5Y-3.6
X3.5Y-3.7
X3.5Y-3.8
X3.5Y-3.9
X3.5Y-4.
X3.5Y-4.1
X3.5Y-4.2
X3.5Y-4.3
X3.5Y-4.4
X3.5Y-4.5
X3.5Y-4.6
X3.5Y-4.7
X3.5Y-4.8
X3.7Y-1.
X3.7Y-1.
X3.7Y-1.1
X3.7Y-1.1
X3.7Y-2.8
X3.7Y-2.8
X3.7Y-2.9
X3.7Y-2.9
X3.7Y-3.2
X3.7Y-3.3
X3.7Y-5.
X3.7Y-5.1
X3.8Y-1.
X3.8Y-1.
X3.8Y-1.1
X3.8Y-1.1
X3.8Y-2.8
X3.8Y-2.8
X3.8Y-2.9
X3.8Y-2.9
X3.8Y-3.2
X3.8Y-3.3
X3.8Y-5.
X3.8Y-5.1
X3.9Y-1.
X3.9Y-1.
X3.9Y-1.1
X3.9Y-1.1
X3.9Y-2.8
X3.9Y-2.8
X3.9Y-2.9
X3.9Y-2.9
X3.9Y-3.2
X3.9Y-3.3
X3.9Y-5.
X3.9Y-5.1
X4.Y-1.
X4.Y-1.
X4.Y-1.1
X4.Y-1.1
X4.Y-2.8
X4.Y-2.8
X4.Y-2.9
X4.Y-2.9
X4.Y-3.2
X4.Y-3.3
X4.Y-5.
X4.Y-5.1
X4.1Y-1.
X4.1Y-1.
X4.1Y-1.1
X4.1Y-1.1
X4.1Y-2.8
X4.1Y-2.8
X4.1Y-2.9
X4.1Y-2.9
X4.1Y-3.2
X4.1Y-3.3
X4.1Y-5.
X4.1Y-5.1
X4.2Y-1.
X4.2Y-1.
X4.2Y-1.1
X4.2Y-1.1
X4.2Y-2.8
X4.2Y-2.8
X4.2Y-2.9
X4.2Y-2.9
X4.2Y-3.2
X4.2Y-3.3
X4.2Y-5.
X4.2Y-5.1
X4.3Y-1.
X4.3Y-1.
X4.3Y-1.1
X4.3Y-1.1
X4.3Y-2.8
X4.3Y-2.8
X4.3Y-2.9
X4.3Y-2.9
X4.3Y-3.2
X4.3Y-3.3
X4.3Y-5.
X4.3Y-5.1
X4.4Y-1.
X4.4Y-1.
X4.4Y-1.1
X4.4Y-1.1
X4.4Y-2.8
X4.4Y-2.8
X4.4Y-2.9
X4.4Y-2.9
X4.4Y-3.2
X4.4Y-3.3
X4.4Y-5.
X4.4Y-5.1
X4.5Y-1.
X4.5Y-1.
X4.5Y-1.1
X4.5Y-1.1
X4.5Y-2.8
X4.5Y-2.8
X4.5Y-2.9
X4.5Y-2.9
X4.5Y-3.2
X4.5Y-3.3
X4.5Y-5.
X4.5Y-5.1
X4.5693Y-2.4839
X4.5693Y-2.4839
X4.5693Y-2.6099
X4.5693Y-2.6099
X4.6Y-1.
X4.6Y-1.
X4.6Y-1.1
X4.6Y-1.1
X4.6Y-2.8
X4.6Y-2.8
X4.6Y-2.9
X4.6Y-2.9
X4.6Y-3.2
X4.6Y-3.3
X4.6Y-5.
X4.6Y-5.1
X4.6677Y-2.4839
X4.6677Y-2.4839
X4.6677Y-2.6099
X4.6677Y-2.6099
X4.7Y-1.
X4.7Y-1.
X4.7Y-1.1
X4.7Y-1.1
X4.7Y-2.8
X4.7Y-2.8
X4.7Y-2.9
X4.7Y-2.9
X4.7Y-3.2
X4.7Y-3.3
X4.7Y-5.
X4.7Y-5.1
X4.7661Y-2.4839
X4.7661Y-2.4839
X4.7661Y-2.6099
X4.7661Y-2.6099
X4.8Y-1.
X4.8Y-1.
X4.8Y-1.1
X4.8Y-1.1
X4.8Y-2.8
X4.8Y-2.8
X4.8Y-2.9
X4.8Y-2.9
X4.8Y-3.2
X4.8Y-3.3
X4.8Y-5.
X4.8Y-5.1
X4.9Y-1.
X4.9Y-1.
X4.9Y-1.1
X4.9Y-1.1
X4.9Y-2.8
X4.9Y-2.8
X4.9Y-2.9
X4.9Y-2.9
X4.9Y-3.2
X4.9Y-3.3
X4.9Y-5.
X4.9Y-5.1
X5.Y-1.
X5.Y-1.
X5.Y-1.1
X5.Y-1.1
X5.Y-2.8
X5.Y-2.8
X5.Y-2.9
X5.Y-2.9
X5.Y-3.2
X5.Y-3.3
X5.Y-5.
X5.Y-5.1
X5.2Y-3.5
X5.2Y-3.6
X5.2Y-3.7
X5.2Y-3.8
X5.2Y-3.9
X5.2Y-4.
X5.2Y-4.1
X5.2Y-4.2
X5.2Y-4.3
X5.2Y-4.4
X5.2Y-4.5
X5.2Y-4.6
X5.2Y-4.7
X5.2Y-4.8
X5.3Y-3.5
X5.3Y-3.6
X5.3Y-3.7
X5.3Y-3.8
X5.3Y-3.9
X5.3Y-4.
X5.3Y-4.1
X5.3Y-4.2
X5.3Y-4.3
X5.3Y-4.4
X5.3Y-4.5
X5.3Y-4.6
X5.3Y-4.7
X5.3Y-4.8
X5.6Y-1.3
X5.6Y-1.4
X5.6Y-1.5
X5.6Y-1.6
X5.6Y-1.7
X5.6Y-1.8
X5.6Y-1.9
X5.6Y-2.
X5.6Y-2.1
X5.6Y-2.2
X5.6Y-2.3
X5.6Y-2.4
X5.6Y-2.5
X5.6Y-2.6
X5.7Y-1.3
X5.7Y-1.4
X5.7Y-1.5
X5.7Y-1.6
X5.7Y-1.7
X5.7Y-1.8
X5.7Y-1.9
X5.7Y-2.
X5.7Y-2.1
X5.7Y-2.2
X5.7Y-2.3
X5.7Y-2.4
X5.7Y-2.5
X5.7Y-2.6
X5.9Y-2.8
X5.9Y-2.9
X5.9Y-3.2
X5.9Y-3.3
X5.9Y-5.
X5.9Y-5.1
X6.Y-2.8
X6.Y-2.9
X6.Y-3.2
X6.Y-3.3
X6.Y-5.
X6.Y-5.1
X6.1Y-2.8
X6.1Y-2.9
X6.1Y-3.2
X6.1Y-3.3
X6.1Y-5.
X6.1Y-5.1
X6.2Y-2.8
X6.2Y-2.9
X6.2Y-3.2
X6.2Y-3.3
X6.2Y-5.
X6.2Y-5.1
X6.3Y-2.8
X6.3Y-2.9
X6.3Y-3.2
X6.3Y-3.3
X6.3Y-5.
X6.3Y-5.1
X6.4Y-2.8
X6.4Y-2.9
X6.4Y-3.2
X6.4Y-3.3
X6.4Y-5.
X6.4Y-5.1
X6.5Y-2.8
X6.5Y-2.9
X6.5Y-3.2
X6.5Y-3.3
X6.5Y-5.
X6.5Y-5.1
X6.6Y-2.8
X6.6Y-2.9
X6.6Y-3.2
X6.6Y-3.3
X6.6Y-5.
X6.6Y-5.1
X6.7Y-2.8
X6.7Y-2.9
X6.7Y-3.2
X6.7Y-3.3
X6.7Y-5.
X6.7Y-5.1
X6.8Y-2.8
X6.8Y-2.9
X6.8Y-3.2
X6.8Y-3.3
X6.8Y-5.
X6.8Y-5.1
X6.9Y-2.8
X6.9Y-2.9
X6.9Y-3.2
X6.9Y-3.3
X6.9Y-5.
X6.9Y-5.1
X7.Y-2.8
X7.Y-2.9
X7.Y-3.2
X7.Y-3.3
X7.Y-5.
X7.Y-5.1
X7.1Y-2.8
X7.1Y-2.9
X7.1Y-3.2
X7.1Y-3.3
X7.1Y-5.
X7.1Y-5.1
X7.2Y-2.8
X7.2Y-2.9
X7.2Y-3.2
X7.2Y-3.3
X7.2Y-5.
X7.2Y-5.1
X7.2904Y-1.
X7.4Y-1.3
X7.4Y-1.4
X7.4Y-1.5
X7.4Y-1.6
X7.4Y-1.7
X7.4Y-1.8
X7.4Y-1.9
X7.4Y-2.
X7.4Y-2.1
X7.4Y-2.2
X7.4Y-2.3
X7.4Y-2.4
X7.4Y-2.5
X7.4Y-2.6
X7.4596Y-1.
X7.5Y-1.3
X7.5Y-1.4
X7.5Y-1.5
X7.5Y-1.6
X7.5Y-1.7
X7.5Y-1.8
X7.5Y-1.9
X7.5Y-2.
X7.5Y-2.1
X7.5Y-2.2
X7.5Y-2.3
X7.5Y-2.4
X7.5Y-2.5
X7.5Y-2.6
X7.52Y-4.355
X7.52Y-4.455
X7.52Y-4.555
X7.52Y-4.655
X7.52Y-4.755
T8
X1.7Y-1.55
X1.7Y-1.55
X1.7Y-2.05
X1.7Y-2.05
X1.8Y-1.55
X1.8Y-1.55
X1.8Y-2.05
X1.8Y-2.05
X2.5Y-1.55
X2.5Y-1.55
X2.5Y-2.05
X2.5Y-2.05
X2.55Y-2.3
X2.55Y-2.3
X2.55Y-2.4
X2.55Y-2.4
X2.6Y-1.55
X2.6Y-1.55
X2.6Y-2.05
X2.6Y-2.05
X2.85Y-2.05
X2.85Y-2.05
X2.85Y-2.15
X2.85Y-2.15
X2.85Y-2.3
X2.85Y-2.3
X2.85Y-2.4
X2.85Y-2.4
X3.64Y-4.7
X3.64Y-4.8
X3.9Y-2.675
X3.9Y-2.675
X4.Y-2.675
X4.Y-2.675
X5.13Y-2.526
X5.13Y-2.526
X5.23Y-2.526
X5.23Y-2.526
X6.25Y-0.975
X6.25Y-1.075
X6.35Y-0.975
X6.35Y-1.075
X6.45Y-0.975
X6.45Y-1.075
X6.55Y-0.975
X6.55Y-1.075
X6.65Y-0.975
X6.65Y-1.075
X6.7496Y-2.5721
X6.7496Y-2.6721
X6.75Y-0.975
X6.75Y-1.075
X6.85Y-0.975
X6.85Y-1.075
X6.9858Y-2.5721
X6.9858Y-2.6721
T9
X7.5128Y-1.0984
T10
X1.5925Y-1.8
X1.5925Y-1.8
X1.9075Y-1.8
X1.9075Y-1.8
X2.3925Y-1.8
X2.3925Y-1.8
X2.7075Y-1.8
X2.7075Y-1.8
X3.4701Y-1.55
X3.4701Y-1.55
X3.4701Y-2.15
X3.4701Y-2.15
X5.2299Y-1.55
X5.2299Y-1.55
X5.2299Y-2.15
X5.2299Y-2.15
T11
X7.2372Y-1.0984
T12
X1.2Y-2.9
X1.2Y-2.9
X1.2Y-5.1
X3.1Y-1.
X3.1Y-1.
X3.1Y-3.2
X3.4Y-2.9
X3.4Y-2.9
X3.4Y-5.1
X5.3Y-1.
X5.3Y-1.
X5.3Y-3.2
X5.6Y-2.9
X5.6Y-5.1
X7.5Y-2.9
X7.5Y-3.2
T0
M30
