G04 (created by PCBNEW (2013-mar-13)-testing) date Tue 09 Apr 2013 04:17:55 PM CEST*
%MOIN*%
G04 Gerber Fmt 3.4, Leading zero omitted, Abs format*
%FSLAX34Y34*%
G01*
G70*
G90*
G04 APERTURE LIST*
%ADD10C,0.00393701*%
%ADD11C,0.015*%
G04 APERTURE END LIST*
G54D10*
G54D11*
X75000Y-50000D02*
G75*
G03X74000Y-51000I0J-1000D01*
G74*
G01*
X56000Y-33000D02*
G75*
G03X57000Y-32000I0J1000D01*
G74*
G01*
X57000Y-31000D02*
X76000Y-31000D01*
X57000Y-32000D02*
X57000Y-31000D01*
X55000Y-33000D02*
X56000Y-33000D01*
X55000Y-52000D02*
X55000Y-33000D01*
X74000Y-52000D02*
X55000Y-52000D01*
X74000Y-51000D02*
X74000Y-52000D01*
X76000Y-50000D02*
X75000Y-50000D01*
X76000Y-31000D02*
X76000Y-50000D01*
X34000Y-33000D02*
G75*
G03X35000Y-32000I0J1000D01*
G74*
G01*
X53000Y-50000D02*
G75*
G03X52000Y-51000I0J-1000D01*
G74*
G01*
X35000Y-31000D02*
X35000Y-32000D01*
X54000Y-31000D02*
X35000Y-31000D01*
X54000Y-50000D02*
X54000Y-31000D01*
X53000Y-50000D02*
X54000Y-50000D01*
X52000Y-52000D02*
X52000Y-51000D01*
X33000Y-52000D02*
X52000Y-52000D01*
X33000Y-33000D02*
X33000Y-52000D01*
X33000Y-33000D02*
X34000Y-33000D01*
X31000Y-50000D02*
G75*
G03X30000Y-51000I0J-1000D01*
G74*
G01*
X32000Y-50000D02*
X31000Y-50000D01*
X32000Y-31000D02*
X32000Y-50000D01*
X12000Y-33000D02*
G75*
G03X13000Y-32000I0J1000D01*
G74*
G01*
X11000Y-33000D02*
X12000Y-33000D01*
X11000Y-33000D02*
X11000Y-52000D01*
X13000Y-31000D02*
X13000Y-32000D01*
X32000Y-31000D02*
X13000Y-31000D01*
X30000Y-52000D02*
X30000Y-51000D01*
X11000Y-52000D02*
X30000Y-52000D01*
X55000Y-30000D02*
X55000Y-9000D01*
X76000Y-30000D02*
X55000Y-30000D01*
X76000Y-9000D02*
X76000Y-30000D01*
X55000Y-9000D02*
X76000Y-9000D01*
X53000Y-28000D02*
G75*
G03X52000Y-29000I0J-1000D01*
G74*
G01*
X34000Y-11000D02*
G75*
G03X35000Y-10000I0J1000D01*
G74*
G01*
X33000Y-11000D02*
X34000Y-11000D01*
X35000Y-9000D02*
X35000Y-10000D01*
X54000Y-9000D02*
X35000Y-9000D01*
X54000Y-28000D02*
X54000Y-9000D01*
X53000Y-28000D02*
X54000Y-28000D01*
X52000Y-30000D02*
X52000Y-29000D01*
X33000Y-30000D02*
X52000Y-30000D01*
X33000Y-11000D02*
X33000Y-30000D01*
X31000Y-28000D02*
G75*
G03X30000Y-29000I0J-1000D01*
G74*
G01*
X32000Y-28000D02*
X31000Y-28000D01*
X12000Y-11000D02*
G75*
G03X13000Y-10000I0J1000D01*
G74*
G01*
X13000Y-9000D02*
X13000Y-10000D01*
X32000Y-9000D02*
X13000Y-9000D01*
X11000Y-11000D02*
X12000Y-11000D01*
X11000Y-30000D02*
X11000Y-11000D01*
X30000Y-30000D02*
X11000Y-30000D01*
X30000Y-29000D02*
X30000Y-30000D01*
X32000Y-9000D02*
X32000Y-28000D01*
M02*
