G04 (created by PCBNEW (2013-mar-13)-testing) date Tue 14 May 2013 04:13:14 PM CEST*
%MOIN*%
G04 Gerber Fmt 3.4, Leading zero omitted, Abs format*
%FSLAX34Y34*%
G01*
G70*
G90*
G04 APERTURE LIST*
%ADD10C,0.005906*%
%ADD11C,0.015000*%
%ADD12C,0.012000*%
%ADD13C,0.020000*%
%ADD14C,0.039370*%
%ADD15R,0.059100X0.059100*%
%ADD16C,0.059100*%
%ADD17C,0.140000*%
%ADD18R,0.078740X0.057087*%
%ADD19R,0.059055X0.031496*%
%ADD20C,0.100000*%
%ADD21R,0.023600X0.009800*%
%ADD22R,0.009800X0.023600*%
%ADD23R,0.129900X0.129900*%
%ADD24R,0.035000X0.055000*%
%ADD25R,0.055000X0.035000*%
%ADD26R,0.055000X0.055000*%
%ADD27C,0.055000*%
%ADD28C,0.056000*%
%ADD29C,0.032000*%
%ADD30R,0.020000X0.040000*%
%ADD31C,0.028000*%
%ADD32C,0.008000*%
%ADD33C,0.006000*%
%ADD34C,0.010000*%
G04 APERTURE END LIST*
G54D10*
G54D11*
X19000Y-40000D02*
X19000Y-21000D01*
X38000Y-40000D02*
X19000Y-40000D01*
X40000Y-19000D02*
X40000Y-38000D01*
X21000Y-19000D02*
X40000Y-19000D01*
X39000Y-38000D02*
X40000Y-38000D01*
X38000Y-39500D02*
X38000Y-40000D01*
X19500Y-21000D02*
X19000Y-21000D01*
X21000Y-19500D02*
X21000Y-19000D01*
X20000Y-21000D02*
X19500Y-21000D01*
X21000Y-20000D02*
X21000Y-19500D01*
X38000Y-39000D02*
X38000Y-39500D01*
X39000Y-38000D02*
G75*
G03X38000Y-39000I0J-1000D01*
G74*
G01*
X20000Y-21000D02*
G75*
G03X21000Y-20000I0J1000D01*
G74*
G01*
G54D12*
X44077Y-27328D02*
X44077Y-27042D01*
X43696Y-27014D01*
X43734Y-27042D01*
X43772Y-27099D01*
X43772Y-27242D01*
X43734Y-27299D01*
X43696Y-27328D01*
X43619Y-27357D01*
X43429Y-27357D01*
X43353Y-27328D01*
X43315Y-27299D01*
X43277Y-27242D01*
X43277Y-27099D01*
X43315Y-27042D01*
X43353Y-27014D01*
X44077Y-27557D02*
X44077Y-27928D01*
X43772Y-27728D01*
X43772Y-27814D01*
X43734Y-27871D01*
X43696Y-27899D01*
X43619Y-27928D01*
X43429Y-27928D01*
X43353Y-27899D01*
X43315Y-27871D01*
X43277Y-27814D01*
X43277Y-27642D01*
X43315Y-27585D01*
X43353Y-27557D01*
X43315Y-28214D02*
X43277Y-28214D01*
X43200Y-28185D01*
X43162Y-28157D01*
X44077Y-28414D02*
X44077Y-28785D01*
X43772Y-28585D01*
X43772Y-28671D01*
X43734Y-28728D01*
X43696Y-28757D01*
X43619Y-28785D01*
X43429Y-28785D01*
X43353Y-28757D01*
X43315Y-28728D01*
X43277Y-28671D01*
X43277Y-28500D01*
X43315Y-28442D01*
X43353Y-28414D01*
X43810Y-29300D02*
X43277Y-29300D01*
X44115Y-29157D02*
X43543Y-29014D01*
X43543Y-29385D01*
X44077Y-29728D02*
X44077Y-29785D01*
X44039Y-29842D01*
X44000Y-29871D01*
X43924Y-29900D01*
X43772Y-29928D01*
X43581Y-29928D01*
X43429Y-29900D01*
X43353Y-29871D01*
X43315Y-29842D01*
X43277Y-29785D01*
X43277Y-29728D01*
X43315Y-29671D01*
X43353Y-29642D01*
X43429Y-29614D01*
X43581Y-29585D01*
X43772Y-29585D01*
X43924Y-29614D01*
X44000Y-29642D01*
X44039Y-29671D01*
X44077Y-29728D01*
X43277Y-30642D02*
X43810Y-30642D01*
X43734Y-30642D02*
X43772Y-30671D01*
X43810Y-30728D01*
X43810Y-30814D01*
X43772Y-30871D01*
X43696Y-30900D01*
X43277Y-30900D01*
X43696Y-30900D02*
X43772Y-30928D01*
X43810Y-30985D01*
X43810Y-31071D01*
X43772Y-31128D01*
X43696Y-31157D01*
X43277Y-31157D01*
X43277Y-31442D02*
X43810Y-31442D01*
X43734Y-31442D02*
X43772Y-31471D01*
X43810Y-31528D01*
X43810Y-31614D01*
X43772Y-31671D01*
X43696Y-31700D01*
X43277Y-31700D01*
X43696Y-31700D02*
X43772Y-31728D01*
X43810Y-31785D01*
X43810Y-31871D01*
X43772Y-31928D01*
X43696Y-31957D01*
X43277Y-31957D01*
X42999Y-19000D02*
X42999Y-40000D01*
X40000Y-19000D02*
X44279Y-19000D01*
X40000Y-40000D02*
X44279Y-40000D01*
X42999Y-40000D02*
X42769Y-39557D01*
X42999Y-40000D02*
X43229Y-39557D01*
X42999Y-19000D02*
X42769Y-19443D01*
X42999Y-19000D02*
X43229Y-19443D01*
X27328Y-43200D02*
X27042Y-43200D01*
X27014Y-43581D01*
X27042Y-43543D01*
X27099Y-43505D01*
X27242Y-43505D01*
X27299Y-43543D01*
X27328Y-43581D01*
X27357Y-43658D01*
X27357Y-43848D01*
X27328Y-43924D01*
X27299Y-43962D01*
X27242Y-44000D01*
X27099Y-44000D01*
X27042Y-43962D01*
X27014Y-43924D01*
X27557Y-43200D02*
X27928Y-43200D01*
X27728Y-43505D01*
X27814Y-43505D01*
X27871Y-43543D01*
X27899Y-43581D01*
X27928Y-43658D01*
X27928Y-43848D01*
X27899Y-43924D01*
X27871Y-43962D01*
X27814Y-44000D01*
X27642Y-44000D01*
X27585Y-43962D01*
X27557Y-43924D01*
X28214Y-43962D02*
X28214Y-44000D01*
X28185Y-44077D01*
X28157Y-44115D01*
X28414Y-43200D02*
X28785Y-43200D01*
X28585Y-43505D01*
X28671Y-43505D01*
X28728Y-43543D01*
X28757Y-43581D01*
X28785Y-43658D01*
X28785Y-43848D01*
X28757Y-43924D01*
X28728Y-43962D01*
X28671Y-44000D01*
X28500Y-44000D01*
X28442Y-43962D01*
X28414Y-43924D01*
X29300Y-43467D02*
X29300Y-44000D01*
X29157Y-43162D02*
X29014Y-43734D01*
X29385Y-43734D01*
X29728Y-43200D02*
X29785Y-43200D01*
X29842Y-43239D01*
X29871Y-43277D01*
X29900Y-43353D01*
X29928Y-43505D01*
X29928Y-43696D01*
X29900Y-43848D01*
X29871Y-43924D01*
X29842Y-43962D01*
X29785Y-44000D01*
X29728Y-44000D01*
X29671Y-43962D01*
X29642Y-43924D01*
X29614Y-43848D01*
X29585Y-43696D01*
X29585Y-43505D01*
X29614Y-43353D01*
X29642Y-43277D01*
X29671Y-43239D01*
X29728Y-43200D01*
X30642Y-44000D02*
X30642Y-43467D01*
X30642Y-43543D02*
X30671Y-43505D01*
X30728Y-43467D01*
X30814Y-43467D01*
X30871Y-43505D01*
X30900Y-43581D01*
X30900Y-44000D01*
X30900Y-43581D02*
X30928Y-43505D01*
X30985Y-43467D01*
X31071Y-43467D01*
X31128Y-43505D01*
X31157Y-43581D01*
X31157Y-44000D01*
X31442Y-44000D02*
X31442Y-43467D01*
X31442Y-43543D02*
X31471Y-43505D01*
X31528Y-43467D01*
X31614Y-43467D01*
X31671Y-43505D01*
X31700Y-43581D01*
X31700Y-44000D01*
X31700Y-43581D02*
X31728Y-43505D01*
X31785Y-43467D01*
X31871Y-43467D01*
X31928Y-43505D01*
X31957Y-43581D01*
X31957Y-44000D01*
X19000Y-42999D02*
X40000Y-42999D01*
X19000Y-40000D02*
X19000Y-44279D01*
X40000Y-40000D02*
X40000Y-44279D01*
X40000Y-42999D02*
X39557Y-43229D01*
X40000Y-42999D02*
X39557Y-42769D01*
X19000Y-42999D02*
X19443Y-43229D01*
X19000Y-42999D02*
X19443Y-42769D01*
G54D13*
X23800Y-31550D02*
X23800Y-32050D01*
X24600Y-31550D02*
X24600Y-32050D01*
X27150Y-31550D02*
G75*
G03X29050Y-29650I0J1900D01*
G74*
G01*
X27150Y-31150D02*
G75*
G03X28650Y-29650I0J1500D01*
G74*
G01*
X27150Y-30750D02*
G75*
G03X28250Y-29650I0J1100D01*
G74*
G01*
X27150Y-30350D02*
G75*
G03X27850Y-29650I0J700D01*
G74*
G01*
X19350Y-29650D02*
G75*
G03X20850Y-31150I1500J0D01*
G74*
G01*
X19750Y-29650D02*
G75*
G03X20850Y-30750I1100J0D01*
G74*
G01*
X20150Y-29650D02*
G75*
G03X20850Y-30350I700J0D01*
G74*
G01*
X27150Y-31550D02*
X24600Y-31550D01*
X27150Y-31150D02*
X20850Y-31150D01*
X27150Y-30750D02*
X20850Y-30750D01*
X20850Y-30350D02*
X27150Y-30350D01*
X20550Y-29650D02*
G75*
G03X20850Y-29950I300J0D01*
G74*
G01*
X27150Y-29950D02*
G75*
G03X27450Y-29650I0J300D01*
G74*
G01*
X21250Y-29550D02*
X23800Y-29550D01*
X20950Y-29250D02*
G75*
G03X21250Y-29550I300J0D01*
G74*
G01*
X20850Y-29950D02*
X27150Y-29950D01*
X29050Y-24150D02*
G75*
G03X27150Y-22250I-1900J0D01*
G74*
G01*
X28650Y-24150D02*
G75*
G03X27150Y-22650I-1500J0D01*
G74*
G01*
X28250Y-24150D02*
G75*
G03X27150Y-23050I-1100J0D01*
G74*
G01*
X27850Y-24150D02*
G75*
G03X27150Y-23450I-700J0D01*
G74*
G01*
X21250Y-22250D02*
G75*
G03X19350Y-24150I0J-1900D01*
G74*
G01*
X21250Y-22650D02*
G75*
G03X19750Y-24150I0J-1500D01*
G74*
G01*
X29050Y-24150D02*
X29050Y-29650D01*
X28650Y-24150D02*
X28650Y-29650D01*
X28250Y-29650D02*
X28250Y-24150D01*
X27850Y-24150D02*
X27850Y-29650D01*
X21250Y-22250D02*
X27150Y-22250D01*
X21250Y-22650D02*
X27150Y-22650D01*
X21250Y-23050D02*
X27150Y-23050D01*
X21250Y-23050D02*
G75*
G03X20150Y-24150I0J-1100D01*
G74*
G01*
X21250Y-23450D02*
G75*
G03X20550Y-24150I0J-700D01*
G74*
G01*
X19350Y-24150D02*
X19350Y-29650D01*
X19750Y-29650D02*
X19750Y-24150D01*
X20150Y-24150D02*
X20150Y-29650D01*
X20550Y-24150D02*
X20550Y-29650D01*
X21250Y-23450D02*
X27150Y-23450D01*
X27450Y-24150D02*
G75*
G03X27150Y-23850I-300J0D01*
G74*
G01*
X27450Y-24150D02*
X27450Y-29650D01*
X21250Y-23850D02*
G75*
G03X20950Y-24150I0J-300D01*
G74*
G01*
X21250Y-23850D02*
X27150Y-23850D01*
X20950Y-24150D02*
X20950Y-29250D01*
G54D14*
X38000Y-21000D03*
X21000Y-38000D03*
G54D15*
X23000Y-20000D03*
G54D16*
X24000Y-20000D03*
X25000Y-20000D03*
X26000Y-20000D03*
X27000Y-20000D03*
X28000Y-20000D03*
X29000Y-20000D03*
X30000Y-20000D03*
X31000Y-20000D03*
X32000Y-20000D03*
X33000Y-20000D03*
X34000Y-20000D03*
X35000Y-20000D03*
X36000Y-20000D03*
G54D15*
X36000Y-39000D03*
G54D16*
X35000Y-39000D03*
X34000Y-39000D03*
X33000Y-39000D03*
X32000Y-39000D03*
X31000Y-39000D03*
X30000Y-39000D03*
X29000Y-39000D03*
X28000Y-39000D03*
X27000Y-39000D03*
X26000Y-39000D03*
X25000Y-39000D03*
X24000Y-39000D03*
X23000Y-39000D03*
G54D15*
X36000Y-38000D03*
G54D16*
X35000Y-38000D03*
X34000Y-38000D03*
X33000Y-38000D03*
X32000Y-38000D03*
X31000Y-38000D03*
X30000Y-38000D03*
X29000Y-38000D03*
X28000Y-38000D03*
X27000Y-38000D03*
X26000Y-38000D03*
X25000Y-38000D03*
X24000Y-38000D03*
X23000Y-38000D03*
G54D15*
X23000Y-21000D03*
G54D16*
X24000Y-21000D03*
X25000Y-21000D03*
X26000Y-21000D03*
X27000Y-21000D03*
X28000Y-21000D03*
X29000Y-21000D03*
X30000Y-21000D03*
X31000Y-21000D03*
X32000Y-21000D03*
X33000Y-21000D03*
X34000Y-21000D03*
X35000Y-21000D03*
X36000Y-21000D03*
G54D17*
X20000Y-39000D03*
G54D18*
X35218Y-27477D03*
X35218Y-22122D03*
X38486Y-22122D03*
X38486Y-27477D03*
G54D19*
X37462Y-23540D03*
X37462Y-23973D03*
X37462Y-24406D03*
X37462Y-24839D03*
X37462Y-25272D03*
X37462Y-25705D03*
X37462Y-26138D03*
X37462Y-26571D03*
G54D20*
X39000Y-20000D03*
G54D21*
X34056Y-31862D03*
X34056Y-32059D03*
X34056Y-32256D03*
X34056Y-32453D03*
X34056Y-32649D03*
X34056Y-32846D03*
X34056Y-33043D03*
X34056Y-33240D03*
G54D22*
X35098Y-33496D03*
X35294Y-33496D03*
X35491Y-33496D03*
X35688Y-33496D03*
G54D23*
X35000Y-32550D03*
G54D22*
X34311Y-33496D03*
X34508Y-33496D03*
X34705Y-33496D03*
X34901Y-33496D03*
G54D21*
X35944Y-33238D03*
X35945Y-33041D03*
X35945Y-32845D03*
X35945Y-32648D03*
X35945Y-32451D03*
X35945Y-32254D03*
X35945Y-32057D03*
X35945Y-31860D03*
G54D22*
X35689Y-31605D03*
X35492Y-31605D03*
X35295Y-31605D03*
X35099Y-31605D03*
X34902Y-31605D03*
X34705Y-31605D03*
X34508Y-31605D03*
X34311Y-31605D03*
G54D24*
X20825Y-33450D03*
X20075Y-33450D03*
X26275Y-34150D03*
X27025Y-34150D03*
G54D25*
X25050Y-35025D03*
X25050Y-35775D03*
X28750Y-36175D03*
X28750Y-36925D03*
G54D24*
X23675Y-35950D03*
X22925Y-35950D03*
X23675Y-36850D03*
X22925Y-36850D03*
X22925Y-35050D03*
X23675Y-35050D03*
X20825Y-35000D03*
X20075Y-35000D03*
G54D25*
X21900Y-34275D03*
X21900Y-35025D03*
X28300Y-33425D03*
X28300Y-32675D03*
X21900Y-32675D03*
X21900Y-33425D03*
G54D24*
X31025Y-27200D03*
X31775Y-27200D03*
G54D25*
X32050Y-36175D03*
X32050Y-36925D03*
X31250Y-36175D03*
X31250Y-36925D03*
G54D24*
X31025Y-22400D03*
X31775Y-22400D03*
X31025Y-23500D03*
X31775Y-23500D03*
X31025Y-24650D03*
X31775Y-24650D03*
X31025Y-26000D03*
X31775Y-26000D03*
G54D25*
X30650Y-30125D03*
X30650Y-29375D03*
G54D24*
X38625Y-30500D03*
X39375Y-30500D03*
X37125Y-30500D03*
X37875Y-30500D03*
X32475Y-28350D03*
X33225Y-28350D03*
X34125Y-29150D03*
X34875Y-29150D03*
X34125Y-28350D03*
X34875Y-28350D03*
G54D25*
X32350Y-30125D03*
X32350Y-29375D03*
X33150Y-30125D03*
X33150Y-29375D03*
X31450Y-30125D03*
X31450Y-29375D03*
G54D24*
X31375Y-31150D03*
X30625Y-31150D03*
X31375Y-31950D03*
X30625Y-31950D03*
G54D25*
X32100Y-33675D03*
X32100Y-32925D03*
X31300Y-33675D03*
X31300Y-32925D03*
G54D24*
X29475Y-35000D03*
X30225Y-35000D03*
X26275Y-35000D03*
X27025Y-35000D03*
G54D25*
X28300Y-34975D03*
X28300Y-34225D03*
G54D24*
X27025Y-32900D03*
X26275Y-32900D03*
G54D26*
X39200Y-36800D03*
G54D27*
X38200Y-36800D03*
X37200Y-36800D03*
X36200Y-36800D03*
X35200Y-36800D03*
X34200Y-36800D03*
X33200Y-36800D03*
G54D15*
X39200Y-35550D03*
G54D16*
X39200Y-34550D03*
X39200Y-33550D03*
X39200Y-32550D03*
X39200Y-31550D03*
G54D28*
X36600Y-29000D03*
X38600Y-29000D03*
G54D24*
X23725Y-32700D03*
X22975Y-32700D03*
X24675Y-32700D03*
X25425Y-32700D03*
G54D29*
X23800Y-29550D03*
G54D30*
X24600Y-31950D03*
X23800Y-31950D03*
G54D29*
X23800Y-31550D03*
G54D31*
X37700Y-35800D03*
X37700Y-34000D03*
X37400Y-20000D03*
X24800Y-33900D03*
X23500Y-33900D03*
X24750Y-36800D03*
X27450Y-36950D03*
X30000Y-36550D03*
X21650Y-38900D03*
X21400Y-36200D03*
X30629Y-26000D03*
X34955Y-31266D03*
X36024Y-31185D03*
X30629Y-27200D03*
X30629Y-24650D03*
X33577Y-31783D03*
X34955Y-34952D03*
X35826Y-26138D03*
X36414Y-29882D03*
X31405Y-21745D03*
X35000Y-32550D03*
X20075Y-36956D03*
X39200Y-31014D03*
X34507Y-35924D03*
X33617Y-27954D03*
X36075Y-36065D03*
X39375Y-25705D03*
X36564Y-25705D03*
X38200Y-32845D03*
X37200Y-32594D03*
X36505Y-32200D03*
X32055Y-23973D03*
X35695Y-36800D03*
X36729Y-30500D03*
X34507Y-30132D03*
X35374Y-28469D03*
X35295Y-30764D03*
X36022Y-33668D03*
X34125Y-31258D03*
G54D32*
X31450Y-30125D02*
X31450Y-30125D01*
X31054Y-30125D02*
X31450Y-30125D01*
X31054Y-30125D02*
X31054Y-30125D01*
X30650Y-30125D02*
X31054Y-30125D01*
X30629Y-26000D02*
X31025Y-26000D01*
X35099Y-31406D02*
X35099Y-31605D01*
X34959Y-31266D02*
X35099Y-31406D01*
X34955Y-31266D02*
X34959Y-31266D01*
X31025Y-24650D02*
X30629Y-24650D01*
X31025Y-27200D02*
X30629Y-27200D01*
X31025Y-23500D02*
X31025Y-22400D01*
X31025Y-23500D02*
X31025Y-24650D01*
X33717Y-32059D02*
X34055Y-32059D01*
X33577Y-31919D02*
X33717Y-32059D01*
X33577Y-31783D02*
X33577Y-31919D01*
X31165Y-28350D02*
X32475Y-28350D01*
X31025Y-28209D02*
X31165Y-28350D01*
X35689Y-31449D02*
X35689Y-31605D01*
X35884Y-31449D02*
X35689Y-31449D01*
X36024Y-31309D02*
X35884Y-31449D01*
X36024Y-31185D02*
X36024Y-31309D01*
X32005Y-31783D02*
X33577Y-31783D01*
X31845Y-31623D02*
X32005Y-31783D01*
X31845Y-30125D02*
X31845Y-31623D01*
X31450Y-30125D02*
X31845Y-30125D01*
X31025Y-27243D02*
X31025Y-28209D01*
X31025Y-27243D02*
X31025Y-27243D01*
X31025Y-27200D02*
X31025Y-27243D01*
X30884Y-28350D02*
X31025Y-28209D01*
X30094Y-28350D02*
X30884Y-28350D01*
X30094Y-30125D02*
X30094Y-28350D01*
X30650Y-30125D02*
X30094Y-30125D01*
X35360Y-24839D02*
X37462Y-24839D01*
X35083Y-25116D02*
X35360Y-24839D01*
X31025Y-25116D02*
X35083Y-25116D01*
X31025Y-24650D02*
X31025Y-25116D01*
G54D33*
X34900Y-34897D02*
X34900Y-33495D01*
X34955Y-34952D02*
X34900Y-34897D01*
X23000Y-21000D02*
X23000Y-21700D01*
X31775Y-25675D02*
X31775Y-26000D01*
X31600Y-25500D02*
X31775Y-25675D01*
X30300Y-25500D02*
X31600Y-25500D01*
X30200Y-25400D02*
X30300Y-25500D01*
X30200Y-22150D02*
X30200Y-25400D01*
X30050Y-22000D02*
X30200Y-22150D01*
X23300Y-22000D02*
X30050Y-22000D01*
X23000Y-21700D02*
X23300Y-22000D01*
X35826Y-26138D02*
X37462Y-26138D01*
X33710Y-26138D02*
X35826Y-26138D01*
X31775Y-26000D02*
X33572Y-26000D01*
X33572Y-26000D02*
X33710Y-26138D01*
X36173Y-32057D02*
X35945Y-32057D01*
X36414Y-31815D02*
X36173Y-32057D01*
X36414Y-29882D02*
X36414Y-31815D01*
X31405Y-24650D02*
X31405Y-21745D01*
X31775Y-24650D02*
X31405Y-24650D01*
X31775Y-24507D02*
X31775Y-24650D01*
X31876Y-24406D02*
X31775Y-24507D01*
X37462Y-24406D02*
X31876Y-24406D01*
X35945Y-31684D02*
X35945Y-31860D01*
X36274Y-31355D02*
X35945Y-31684D01*
X36274Y-30571D02*
X36274Y-31355D01*
X36013Y-30310D02*
X36274Y-30571D01*
X36013Y-28152D02*
X36013Y-30310D01*
X36153Y-28012D02*
X36013Y-28152D01*
X38850Y-28012D02*
X36153Y-28012D01*
X38990Y-27872D02*
X38850Y-28012D01*
X38990Y-24546D02*
X38990Y-27872D01*
X38850Y-24406D02*
X38990Y-24546D01*
X37462Y-24406D02*
X38850Y-24406D01*
X30350Y-25272D02*
X37462Y-25272D01*
X30350Y-21856D02*
X30350Y-25272D01*
X30099Y-21606D02*
X30350Y-21856D01*
X25000Y-21606D02*
X30099Y-21606D01*
X25000Y-21000D02*
X25000Y-21606D01*
X35492Y-31272D02*
X35492Y-31605D01*
X35722Y-31041D02*
X35492Y-31272D01*
X35722Y-27635D02*
X35722Y-31041D01*
X35862Y-27495D02*
X35722Y-27635D01*
X37728Y-27495D02*
X35862Y-27495D01*
X37868Y-27355D02*
X37728Y-27495D01*
X37868Y-25272D02*
X37868Y-27355D01*
X37462Y-25272D02*
X37868Y-25272D01*
G54D32*
X31045Y-29375D02*
X30650Y-29375D01*
X31045Y-29375D02*
X31045Y-29375D01*
X31450Y-29375D02*
X31045Y-29375D01*
X31450Y-29375D02*
X31450Y-29375D01*
X35490Y-33040D02*
X35490Y-33237D01*
X35000Y-32550D02*
X35490Y-33040D01*
X35490Y-33237D02*
X35490Y-33495D01*
X33657Y-32845D02*
X34055Y-32845D01*
X33657Y-33042D02*
X33657Y-32845D01*
X34055Y-33042D02*
X33657Y-33042D01*
X34507Y-33495D02*
X34507Y-35924D01*
X34875Y-28350D02*
X34875Y-29150D01*
X33150Y-29375D02*
X33150Y-29375D01*
X36590Y-35550D02*
X36075Y-36065D01*
X39200Y-35550D02*
X36590Y-35550D01*
X39375Y-30500D02*
X39375Y-25705D01*
X30625Y-31950D02*
X30625Y-31150D01*
X30625Y-32514D02*
X30625Y-31950D01*
X30464Y-32675D02*
X30625Y-32514D01*
X28300Y-32675D02*
X30464Y-32675D01*
X31910Y-29375D02*
X31450Y-29375D01*
X31910Y-29375D02*
X31910Y-29375D01*
X32350Y-29375D02*
X31910Y-29375D01*
X32350Y-29375D02*
X32350Y-29375D01*
X22925Y-35950D02*
X22925Y-36850D01*
X36564Y-25705D02*
X37462Y-25705D01*
X20075Y-35000D02*
X20075Y-33450D01*
X20075Y-35000D02*
X20075Y-36956D01*
X39614Y-31014D02*
X39200Y-31014D01*
X39775Y-30854D02*
X39614Y-31014D01*
X39775Y-30500D02*
X39775Y-30854D01*
X39375Y-30500D02*
X39775Y-30500D01*
X34902Y-32452D02*
X34902Y-31605D01*
X35000Y-32550D02*
X34902Y-32452D01*
X20455Y-36956D02*
X20075Y-36956D01*
X20562Y-36850D02*
X20455Y-36956D01*
X22925Y-36850D02*
X20562Y-36850D01*
X31250Y-36925D02*
X31250Y-36925D01*
X29471Y-36925D02*
X31250Y-36925D01*
X29471Y-36925D02*
X29471Y-36925D01*
X28750Y-36925D02*
X29471Y-36925D01*
X28750Y-37362D02*
X28750Y-36925D01*
X20160Y-37362D02*
X28750Y-37362D01*
X20000Y-37522D02*
X20160Y-37362D01*
X20000Y-39000D02*
X20000Y-37522D01*
X26275Y-32700D02*
X26275Y-32900D01*
X34515Y-33034D02*
X35000Y-32550D01*
X34055Y-33034D02*
X34515Y-33034D01*
X34055Y-33042D02*
X34055Y-33034D01*
X34507Y-32550D02*
X34507Y-33495D01*
X35000Y-32550D02*
X34507Y-32550D01*
X35944Y-33229D02*
X35944Y-33237D01*
X35000Y-33229D02*
X35944Y-33229D01*
X35000Y-32550D02*
X35000Y-33229D01*
X37875Y-31014D02*
X37875Y-30500D01*
X39200Y-31014D02*
X37875Y-31014D01*
X32050Y-36925D02*
X32050Y-36925D01*
X34875Y-27954D02*
X33617Y-27954D01*
X34875Y-28350D02*
X34875Y-27954D01*
X25425Y-33215D02*
X25425Y-32700D01*
X23430Y-33215D02*
X25425Y-33215D01*
X23270Y-33375D02*
X23430Y-33215D01*
X23270Y-35950D02*
X23270Y-33375D01*
X22925Y-35950D02*
X23270Y-35950D01*
X25425Y-32700D02*
X26275Y-32700D01*
X26275Y-32379D02*
X26275Y-32700D01*
X28300Y-32379D02*
X26275Y-32379D01*
X28300Y-32675D02*
X28300Y-32379D01*
X32745Y-29375D02*
X33150Y-29375D01*
X32745Y-29375D02*
X32745Y-29375D01*
X32350Y-29375D02*
X32745Y-29375D01*
X33150Y-28912D02*
X33150Y-29375D01*
X32770Y-28532D02*
X33150Y-28912D01*
X32770Y-28115D02*
X32770Y-28532D01*
X32930Y-27954D02*
X32770Y-28115D01*
X33617Y-27954D02*
X32930Y-27954D01*
X31654Y-36925D02*
X32050Y-36925D01*
X31654Y-36925D02*
X31654Y-36925D01*
X31250Y-36925D02*
X31654Y-36925D01*
X32050Y-36629D02*
X32050Y-36925D01*
X30854Y-36629D02*
X32050Y-36629D01*
X30694Y-36469D02*
X30854Y-36629D01*
X30694Y-35940D02*
X30694Y-36469D01*
X30854Y-35780D02*
X30694Y-35940D01*
X33575Y-35780D02*
X30854Y-35780D01*
X33720Y-35924D02*
X33575Y-35780D01*
X34507Y-35924D02*
X33720Y-35924D01*
G54D33*
X38200Y-32845D02*
X35945Y-32845D01*
X37146Y-32647D02*
X35945Y-32647D01*
X37200Y-32594D02*
X37146Y-32647D01*
X36452Y-32254D02*
X35945Y-32254D01*
X36505Y-32200D02*
X36452Y-32254D01*
X32731Y-23973D02*
X37462Y-23973D01*
X32731Y-23973D02*
X32055Y-23973D01*
X31775Y-23833D02*
X31775Y-23500D01*
X31915Y-23973D02*
X31775Y-23833D01*
X32055Y-23973D02*
X31915Y-23973D01*
X36639Y-32450D02*
X35945Y-32450D01*
X37040Y-32050D02*
X36639Y-32450D01*
X39677Y-32050D02*
X37040Y-32050D01*
X39817Y-32190D02*
X39677Y-32050D01*
X39817Y-37672D02*
X39817Y-32190D01*
X39677Y-37812D02*
X39817Y-37672D01*
X37867Y-37812D02*
X39677Y-37812D01*
X37179Y-38500D02*
X37867Y-37812D01*
X24500Y-38500D02*
X37179Y-38500D01*
X24000Y-38000D02*
X24500Y-38500D01*
X35097Y-34230D02*
X35097Y-33495D01*
X35380Y-34512D02*
X35097Y-34230D01*
X35380Y-36274D02*
X35380Y-34512D01*
X35240Y-36414D02*
X35380Y-36274D01*
X34585Y-36414D02*
X35240Y-36414D01*
X34200Y-36800D02*
X34585Y-36414D01*
X35294Y-33858D02*
X35294Y-33495D01*
X35695Y-34259D02*
X35294Y-33858D01*
X35695Y-36800D02*
X35695Y-34259D01*
X32735Y-30125D02*
X32350Y-30125D01*
X32735Y-30125D02*
X32735Y-30125D01*
X33150Y-30125D02*
X32735Y-30125D01*
X33150Y-30125D02*
X33150Y-30125D01*
X33827Y-31862D02*
X34055Y-31862D01*
X33827Y-30265D02*
X33827Y-31862D01*
X33687Y-30125D02*
X33827Y-30265D01*
X33150Y-30125D02*
X33687Y-30125D01*
X36729Y-30500D02*
X37125Y-30500D01*
X34507Y-30132D02*
X34507Y-31605D01*
X34705Y-30716D02*
X34705Y-31605D01*
X35374Y-30047D02*
X34705Y-30716D01*
X35374Y-28469D02*
X35374Y-30047D01*
X38625Y-29682D02*
X38625Y-30500D01*
X38600Y-29657D02*
X38625Y-29682D01*
X38600Y-29000D02*
X38600Y-29657D01*
X23800Y-32001D02*
X23800Y-31950D01*
X23725Y-32314D02*
X23725Y-32700D01*
X23800Y-32314D02*
X23725Y-32314D01*
X23800Y-32001D02*
X23800Y-32314D01*
X28300Y-33425D02*
X28300Y-34225D01*
X31002Y-33240D02*
X34055Y-33240D01*
X30817Y-33425D02*
X31002Y-33240D01*
X28300Y-33425D02*
X30817Y-33425D01*
X22487Y-32700D02*
X22975Y-32700D01*
X22487Y-32675D02*
X22487Y-32700D01*
X21900Y-32675D02*
X22487Y-32675D01*
X24600Y-32001D02*
X24600Y-31950D01*
X24675Y-32314D02*
X24675Y-32700D01*
X24600Y-32314D02*
X24675Y-32314D01*
X24600Y-32001D02*
X24600Y-32314D01*
X32050Y-36175D02*
X32050Y-36175D01*
X31635Y-36175D02*
X31250Y-36175D01*
X31635Y-36175D02*
X31635Y-36175D01*
X32050Y-36175D02*
X31635Y-36175D01*
X34705Y-35278D02*
X34705Y-33495D01*
X34898Y-35471D02*
X34705Y-35278D01*
X34898Y-36134D02*
X34898Y-35471D01*
X34758Y-36274D02*
X34898Y-36134D01*
X33408Y-36274D02*
X34758Y-36274D01*
X33308Y-36175D02*
X33408Y-36274D01*
X32050Y-36175D02*
X33308Y-36175D01*
X33216Y-22400D02*
X31775Y-22400D01*
X34356Y-23540D02*
X33216Y-22400D01*
X37462Y-23540D02*
X34356Y-23540D01*
X22925Y-35025D02*
X22925Y-35050D01*
X21900Y-35025D02*
X22925Y-35025D01*
X21277Y-35000D02*
X20825Y-35000D01*
X21302Y-35025D02*
X21277Y-35000D01*
X21900Y-35025D02*
X21302Y-35025D01*
X26275Y-35000D02*
X26275Y-34150D01*
X23675Y-35950D02*
X23675Y-35050D01*
X23675Y-35950D02*
X23675Y-36850D01*
X25050Y-35000D02*
X26275Y-35000D01*
X25050Y-35025D02*
X25050Y-35000D01*
X23675Y-35025D02*
X23675Y-35050D01*
X25050Y-35025D02*
X23675Y-35025D01*
X21900Y-34275D02*
X21900Y-33425D01*
X21220Y-33450D02*
X20825Y-33450D01*
X21245Y-33425D02*
X21900Y-33425D01*
X21220Y-33450D02*
X21245Y-33425D01*
X27025Y-32900D02*
X27200Y-32900D01*
X27600Y-34787D02*
X27787Y-34975D01*
X27600Y-33300D02*
X27600Y-34787D01*
X27200Y-32900D02*
X27600Y-33300D01*
X27787Y-34975D02*
X28300Y-34975D01*
X27025Y-34150D02*
X27025Y-35000D01*
X27025Y-34150D02*
X27025Y-32900D01*
X29475Y-34975D02*
X29475Y-35000D01*
X28300Y-34975D02*
X29475Y-34975D01*
X27787Y-34975D02*
X28300Y-34975D01*
X31775Y-26711D02*
X31775Y-27200D01*
X31915Y-26571D02*
X31775Y-26711D01*
X37462Y-26571D02*
X31915Y-26571D01*
X25050Y-36175D02*
X25050Y-35775D01*
X28750Y-36175D02*
X25050Y-36175D01*
X34310Y-35367D02*
X34310Y-33495D01*
X34170Y-35507D02*
X34310Y-35367D01*
X28890Y-35507D02*
X34170Y-35507D01*
X28750Y-35647D02*
X28890Y-35507D01*
X28750Y-36175D02*
X28750Y-35647D01*
X32100Y-33675D02*
X32100Y-33675D01*
X31685Y-33675D02*
X32100Y-33675D01*
X31685Y-33675D02*
X31685Y-33675D01*
X31300Y-33675D02*
X31685Y-33675D01*
X30225Y-33815D02*
X30225Y-35000D01*
X30365Y-33675D02*
X30225Y-33815D01*
X31300Y-33675D02*
X30365Y-33675D01*
X31685Y-32925D02*
X31300Y-32925D01*
X31685Y-32925D02*
X31685Y-32925D01*
X32100Y-32925D02*
X31685Y-32925D01*
X32100Y-32925D02*
X32100Y-32925D01*
X33501Y-32649D02*
X34055Y-32649D01*
X33225Y-32925D02*
X33501Y-32649D01*
X32100Y-32925D02*
X33225Y-32925D01*
X34055Y-32255D02*
X34055Y-32452D01*
X31375Y-31950D02*
X31375Y-31150D01*
X32877Y-31950D02*
X31375Y-31950D01*
X33183Y-32255D02*
X32877Y-31950D01*
X34055Y-32255D02*
X33183Y-32255D01*
X39605Y-33955D02*
X39200Y-33550D01*
X39605Y-37454D02*
X39605Y-33955D01*
X39465Y-37594D02*
X39605Y-37454D01*
X33405Y-37594D02*
X39465Y-37594D01*
X33000Y-38000D02*
X33405Y-37594D01*
X35295Y-30764D02*
X35295Y-31605D01*
X34125Y-29150D02*
X34125Y-30890D01*
X34125Y-29150D02*
X34125Y-28350D01*
X33225Y-28350D02*
X33225Y-28350D01*
X33675Y-28350D02*
X33225Y-28350D01*
X33675Y-28350D02*
X33675Y-28350D01*
X34125Y-28350D02*
X33675Y-28350D01*
X36273Y-33040D02*
X35945Y-33040D01*
X36413Y-33181D02*
X36273Y-33040D01*
X36413Y-33528D02*
X36413Y-33181D01*
X36273Y-33668D02*
X36413Y-33528D01*
X36022Y-33668D02*
X36273Y-33668D01*
X35687Y-33918D02*
X35687Y-33495D01*
X35882Y-33918D02*
X35687Y-33918D01*
X36022Y-33778D02*
X35882Y-33918D01*
X36022Y-33668D02*
X36022Y-33778D01*
X34125Y-30890D02*
X34125Y-31258D01*
X34310Y-31398D02*
X34310Y-31605D01*
X34170Y-31258D02*
X34310Y-31398D01*
X34125Y-31258D02*
X34170Y-31258D01*
G54D10*
G36*
X20076Y-39005D02*
X20005Y-39076D01*
X20000Y-39070D01*
X19994Y-39076D01*
X19923Y-39005D01*
X19929Y-39000D01*
X19923Y-38994D01*
X19994Y-38923D01*
X20000Y-38929D01*
X20005Y-38923D01*
X20076Y-38994D01*
X20070Y-39000D01*
X20076Y-39005D01*
X20076Y-39005D01*
G37*
G54D34*
X20076Y-39005D02*
X20005Y-39076D01*
X20000Y-39070D01*
X19994Y-39076D01*
X19923Y-39005D01*
X19929Y-39000D01*
X19923Y-38994D01*
X19994Y-38923D01*
X20000Y-38929D01*
X20005Y-38923D01*
X20076Y-38994D01*
X20070Y-39000D01*
X20076Y-39005D01*
G54D10*
G36*
X33218Y-32535D02*
X33109Y-32645D01*
X32602Y-32645D01*
X32587Y-32608D01*
X32516Y-32538D01*
X32424Y-32500D01*
X32325Y-32499D01*
X31775Y-32499D01*
X31699Y-32531D01*
X31624Y-32500D01*
X31525Y-32499D01*
X30975Y-32499D01*
X30883Y-32537D01*
X30813Y-32608D01*
X30775Y-32700D01*
X30774Y-32799D01*
X30774Y-33071D01*
X30701Y-33145D01*
X30575Y-33145D01*
X30575Y-32412D01*
X30575Y-32000D01*
X30575Y-31900D01*
X30575Y-31612D01*
X30575Y-31487D01*
X30575Y-31200D01*
X30575Y-31100D01*
X30575Y-30687D01*
X30512Y-30625D01*
X30400Y-30624D01*
X30308Y-30662D01*
X30238Y-30733D01*
X30200Y-30825D01*
X30199Y-30924D01*
X30200Y-31037D01*
X30262Y-31100D01*
X30575Y-31100D01*
X30575Y-31200D01*
X30262Y-31200D01*
X30200Y-31262D01*
X30199Y-31375D01*
X30200Y-31474D01*
X30231Y-31550D01*
X30200Y-31625D01*
X30199Y-31724D01*
X30200Y-31837D01*
X30262Y-31900D01*
X30575Y-31900D01*
X30575Y-32000D01*
X30262Y-32000D01*
X30200Y-32062D01*
X30199Y-32175D01*
X30200Y-32274D01*
X30238Y-32366D01*
X30308Y-32437D01*
X30400Y-32475D01*
X30512Y-32475D01*
X30575Y-32412D01*
X30575Y-33145D01*
X28802Y-33145D01*
X28787Y-33108D01*
X28728Y-33050D01*
X28787Y-32991D01*
X28825Y-32899D01*
X28825Y-32450D01*
X28787Y-32358D01*
X28716Y-32288D01*
X28624Y-32250D01*
X28525Y-32249D01*
X28412Y-32250D01*
X28350Y-32312D01*
X28350Y-32625D01*
X28762Y-32625D01*
X28825Y-32562D01*
X28825Y-32450D01*
X28825Y-32899D01*
X28825Y-32787D01*
X28762Y-32725D01*
X28350Y-32725D01*
X28350Y-32732D01*
X28250Y-32732D01*
X28250Y-32725D01*
X28250Y-32625D01*
X28250Y-32312D01*
X28187Y-32250D01*
X28074Y-32249D01*
X27975Y-32250D01*
X27883Y-32288D01*
X27812Y-32358D01*
X27774Y-32450D01*
X27775Y-32562D01*
X27837Y-32625D01*
X28250Y-32625D01*
X28250Y-32725D01*
X27837Y-32725D01*
X27775Y-32787D01*
X27774Y-32899D01*
X27812Y-32991D01*
X27871Y-33050D01*
X27813Y-33108D01*
X27808Y-33118D01*
X27808Y-33118D01*
X27797Y-33102D01*
X27797Y-33102D01*
X27450Y-32754D01*
X27450Y-32575D01*
X27412Y-32483D01*
X27341Y-32413D01*
X27249Y-32375D01*
X27150Y-32374D01*
X26800Y-32374D01*
X26708Y-32412D01*
X26650Y-32471D01*
X26591Y-32412D01*
X26499Y-32374D01*
X26387Y-32375D01*
X26325Y-32437D01*
X26325Y-32850D01*
X26332Y-32850D01*
X26332Y-32950D01*
X26325Y-32950D01*
X26325Y-33362D01*
X26387Y-33425D01*
X26499Y-33425D01*
X26591Y-33387D01*
X26650Y-33328D01*
X26708Y-33386D01*
X26745Y-33402D01*
X26745Y-33647D01*
X26708Y-33662D01*
X26649Y-33721D01*
X26591Y-33663D01*
X26499Y-33625D01*
X26400Y-33624D01*
X26225Y-33624D01*
X26050Y-33624D01*
X25958Y-33662D01*
X25888Y-33733D01*
X25850Y-33825D01*
X25849Y-33924D01*
X25849Y-34474D01*
X25887Y-34566D01*
X25896Y-34574D01*
X25888Y-34583D01*
X25850Y-34675D01*
X25850Y-34720D01*
X25541Y-34720D01*
X25537Y-34708D01*
X25466Y-34638D01*
X25374Y-34600D01*
X25275Y-34599D01*
X24725Y-34599D01*
X24633Y-34637D01*
X24563Y-34708D01*
X24547Y-34745D01*
X24100Y-34745D01*
X24100Y-34725D01*
X24062Y-34633D01*
X23991Y-34563D01*
X23899Y-34525D01*
X23800Y-34524D01*
X23450Y-34524D01*
X23358Y-34562D01*
X23299Y-34621D01*
X23241Y-34563D01*
X23149Y-34525D01*
X23050Y-34524D01*
X22700Y-34524D01*
X22608Y-34562D01*
X22538Y-34633D01*
X22500Y-34725D01*
X22500Y-34745D01*
X22402Y-34745D01*
X22387Y-34708D01*
X22328Y-34649D01*
X22386Y-34591D01*
X22424Y-34499D01*
X22425Y-34400D01*
X22425Y-34050D01*
X22387Y-33958D01*
X22316Y-33888D01*
X22224Y-33850D01*
X22224Y-33850D01*
X22316Y-33812D01*
X22386Y-33741D01*
X22424Y-33649D01*
X22425Y-33550D01*
X22425Y-33200D01*
X22387Y-33108D01*
X22328Y-33049D01*
X22386Y-32991D01*
X22399Y-32962D01*
X22487Y-32980D01*
X22549Y-32980D01*
X22549Y-33024D01*
X22587Y-33116D01*
X22658Y-33186D01*
X22750Y-33224D01*
X22849Y-33225D01*
X23199Y-33225D01*
X23291Y-33187D01*
X23350Y-33128D01*
X23408Y-33186D01*
X23500Y-33224D01*
X23599Y-33225D01*
X23949Y-33225D01*
X24041Y-33187D01*
X24111Y-33116D01*
X24149Y-33024D01*
X24150Y-32925D01*
X24150Y-32375D01*
X24113Y-32287D01*
X24149Y-32200D01*
X24250Y-32200D01*
X24286Y-32287D01*
X24250Y-32375D01*
X24249Y-32474D01*
X24249Y-33024D01*
X24287Y-33116D01*
X24358Y-33186D01*
X24450Y-33224D01*
X24549Y-33225D01*
X24899Y-33225D01*
X24991Y-33187D01*
X25050Y-33128D01*
X25108Y-33187D01*
X25200Y-33225D01*
X25312Y-33225D01*
X25375Y-33162D01*
X25375Y-32750D01*
X25367Y-32750D01*
X25367Y-32650D01*
X25375Y-32650D01*
X25375Y-32642D01*
X25475Y-32642D01*
X25475Y-32650D01*
X25482Y-32650D01*
X25482Y-32750D01*
X25475Y-32750D01*
X25475Y-33162D01*
X25537Y-33225D01*
X25649Y-33225D01*
X25741Y-33187D01*
X25811Y-33116D01*
X25849Y-33024D01*
X25850Y-32950D01*
X25850Y-32950D01*
X25912Y-32950D01*
X25850Y-33012D01*
X25850Y-33012D01*
X25849Y-33125D01*
X25850Y-33224D01*
X25888Y-33316D01*
X25958Y-33387D01*
X26050Y-33425D01*
X26162Y-33425D01*
X26225Y-33362D01*
X26225Y-32950D01*
X26217Y-32950D01*
X26217Y-32850D01*
X26225Y-32850D01*
X26225Y-32437D01*
X26162Y-32375D01*
X26050Y-32374D01*
X25958Y-32412D01*
X25888Y-32483D01*
X25850Y-32575D01*
X25849Y-32649D01*
X25787Y-32649D01*
X25850Y-32587D01*
X25850Y-32474D01*
X25849Y-32375D01*
X25811Y-32283D01*
X25741Y-32212D01*
X25710Y-32200D01*
X30100Y-32200D01*
X30100Y-30415D01*
X30152Y-30415D01*
X30162Y-30441D01*
X30233Y-30511D01*
X30325Y-30549D01*
X30424Y-30550D01*
X30974Y-30550D01*
X31050Y-30518D01*
X31125Y-30549D01*
X31224Y-30550D01*
X31555Y-30550D01*
X31555Y-30625D01*
X31500Y-30624D01*
X31150Y-30624D01*
X31058Y-30662D01*
X31000Y-30721D01*
X30941Y-30662D01*
X30849Y-30624D01*
X30737Y-30625D01*
X30675Y-30687D01*
X30675Y-31100D01*
X30682Y-31100D01*
X30682Y-31200D01*
X30675Y-31200D01*
X30675Y-31487D01*
X30675Y-31612D01*
X30675Y-31900D01*
X30682Y-31900D01*
X30682Y-32000D01*
X30675Y-32000D01*
X30675Y-32412D01*
X30737Y-32475D01*
X30849Y-32475D01*
X30941Y-32437D01*
X31000Y-32378D01*
X31058Y-32436D01*
X31150Y-32474D01*
X31249Y-32475D01*
X31599Y-32475D01*
X31691Y-32437D01*
X31761Y-32366D01*
X31799Y-32274D01*
X31799Y-32230D01*
X32761Y-32230D01*
X32985Y-32453D01*
X32985Y-32453D01*
X33046Y-32494D01*
X33076Y-32514D01*
X33076Y-32514D01*
X33183Y-32535D01*
X33183Y-32535D01*
X33218Y-32535D01*
X33218Y-32535D01*
G37*
G54D34*
X33218Y-32535D02*
X33109Y-32645D01*
X32602Y-32645D01*
X32587Y-32608D01*
X32516Y-32538D01*
X32424Y-32500D01*
X32325Y-32499D01*
X31775Y-32499D01*
X31699Y-32531D01*
X31624Y-32500D01*
X31525Y-32499D01*
X30975Y-32499D01*
X30883Y-32537D01*
X30813Y-32608D01*
X30775Y-32700D01*
X30774Y-32799D01*
X30774Y-33071D01*
X30701Y-33145D01*
X30575Y-33145D01*
X30575Y-32412D01*
X30575Y-32000D01*
X30575Y-31900D01*
X30575Y-31612D01*
X30575Y-31487D01*
X30575Y-31200D01*
X30575Y-31100D01*
X30575Y-30687D01*
X30512Y-30625D01*
X30400Y-30624D01*
X30308Y-30662D01*
X30238Y-30733D01*
X30200Y-30825D01*
X30199Y-30924D01*
X30200Y-31037D01*
X30262Y-31100D01*
X30575Y-31100D01*
X30575Y-31200D01*
X30262Y-31200D01*
X30200Y-31262D01*
X30199Y-31375D01*
X30200Y-31474D01*
X30231Y-31550D01*
X30200Y-31625D01*
X30199Y-31724D01*
X30200Y-31837D01*
X30262Y-31900D01*
X30575Y-31900D01*
X30575Y-32000D01*
X30262Y-32000D01*
X30200Y-32062D01*
X30199Y-32175D01*
X30200Y-32274D01*
X30238Y-32366D01*
X30308Y-32437D01*
X30400Y-32475D01*
X30512Y-32475D01*
X30575Y-32412D01*
X30575Y-33145D01*
X28802Y-33145D01*
X28787Y-33108D01*
X28728Y-33050D01*
X28787Y-32991D01*
X28825Y-32899D01*
X28825Y-32450D01*
X28787Y-32358D01*
X28716Y-32288D01*
X28624Y-32250D01*
X28525Y-32249D01*
X28412Y-32250D01*
X28350Y-32312D01*
X28350Y-32625D01*
X28762Y-32625D01*
X28825Y-32562D01*
X28825Y-32450D01*
X28825Y-32899D01*
X28825Y-32787D01*
X28762Y-32725D01*
X28350Y-32725D01*
X28350Y-32732D01*
X28250Y-32732D01*
X28250Y-32725D01*
X28250Y-32625D01*
X28250Y-32312D01*
X28187Y-32250D01*
X28074Y-32249D01*
X27975Y-32250D01*
X27883Y-32288D01*
X27812Y-32358D01*
X27774Y-32450D01*
X27775Y-32562D01*
X27837Y-32625D01*
X28250Y-32625D01*
X28250Y-32725D01*
X27837Y-32725D01*
X27775Y-32787D01*
X27774Y-32899D01*
X27812Y-32991D01*
X27871Y-33050D01*
X27813Y-33108D01*
X27808Y-33118D01*
X27808Y-33118D01*
X27797Y-33102D01*
X27797Y-33102D01*
X27450Y-32754D01*
X27450Y-32575D01*
X27412Y-32483D01*
X27341Y-32413D01*
X27249Y-32375D01*
X27150Y-32374D01*
X26800Y-32374D01*
X26708Y-32412D01*
X26650Y-32471D01*
X26591Y-32412D01*
X26499Y-32374D01*
X26387Y-32375D01*
X26325Y-32437D01*
X26325Y-32850D01*
X26332Y-32850D01*
X26332Y-32950D01*
X26325Y-32950D01*
X26325Y-33362D01*
X26387Y-33425D01*
X26499Y-33425D01*
X26591Y-33387D01*
X26650Y-33328D01*
X26708Y-33386D01*
X26745Y-33402D01*
X26745Y-33647D01*
X26708Y-33662D01*
X26649Y-33721D01*
X26591Y-33663D01*
X26499Y-33625D01*
X26400Y-33624D01*
X26225Y-33624D01*
X26050Y-33624D01*
X25958Y-33662D01*
X25888Y-33733D01*
X25850Y-33825D01*
X25849Y-33924D01*
X25849Y-34474D01*
X25887Y-34566D01*
X25896Y-34574D01*
X25888Y-34583D01*
X25850Y-34675D01*
X25850Y-34720D01*
X25541Y-34720D01*
X25537Y-34708D01*
X25466Y-34638D01*
X25374Y-34600D01*
X25275Y-34599D01*
X24725Y-34599D01*
X24633Y-34637D01*
X24563Y-34708D01*
X24547Y-34745D01*
X24100Y-34745D01*
X24100Y-34725D01*
X24062Y-34633D01*
X23991Y-34563D01*
X23899Y-34525D01*
X23800Y-34524D01*
X23450Y-34524D01*
X23358Y-34562D01*
X23299Y-34621D01*
X23241Y-34563D01*
X23149Y-34525D01*
X23050Y-34524D01*
X22700Y-34524D01*
X22608Y-34562D01*
X22538Y-34633D01*
X22500Y-34725D01*
X22500Y-34745D01*
X22402Y-34745D01*
X22387Y-34708D01*
X22328Y-34649D01*
X22386Y-34591D01*
X22424Y-34499D01*
X22425Y-34400D01*
X22425Y-34050D01*
X22387Y-33958D01*
X22316Y-33888D01*
X22224Y-33850D01*
X22224Y-33850D01*
X22316Y-33812D01*
X22386Y-33741D01*
X22424Y-33649D01*
X22425Y-33550D01*
X22425Y-33200D01*
X22387Y-33108D01*
X22328Y-33049D01*
X22386Y-32991D01*
X22399Y-32962D01*
X22487Y-32980D01*
X22549Y-32980D01*
X22549Y-33024D01*
X22587Y-33116D01*
X22658Y-33186D01*
X22750Y-33224D01*
X22849Y-33225D01*
X23199Y-33225D01*
X23291Y-33187D01*
X23350Y-33128D01*
X23408Y-33186D01*
X23500Y-33224D01*
X23599Y-33225D01*
X23949Y-33225D01*
X24041Y-33187D01*
X24111Y-33116D01*
X24149Y-33024D01*
X24150Y-32925D01*
X24150Y-32375D01*
X24113Y-32287D01*
X24149Y-32200D01*
X24250Y-32200D01*
X24286Y-32287D01*
X24250Y-32375D01*
X24249Y-32474D01*
X24249Y-33024D01*
X24287Y-33116D01*
X24358Y-33186D01*
X24450Y-33224D01*
X24549Y-33225D01*
X24899Y-33225D01*
X24991Y-33187D01*
X25050Y-33128D01*
X25108Y-33187D01*
X25200Y-33225D01*
X25312Y-33225D01*
X25375Y-33162D01*
X25375Y-32750D01*
X25367Y-32750D01*
X25367Y-32650D01*
X25375Y-32650D01*
X25375Y-32642D01*
X25475Y-32642D01*
X25475Y-32650D01*
X25482Y-32650D01*
X25482Y-32750D01*
X25475Y-32750D01*
X25475Y-33162D01*
X25537Y-33225D01*
X25649Y-33225D01*
X25741Y-33187D01*
X25811Y-33116D01*
X25849Y-33024D01*
X25850Y-32950D01*
X25850Y-32950D01*
X25912Y-32950D01*
X25850Y-33012D01*
X25850Y-33012D01*
X25849Y-33125D01*
X25850Y-33224D01*
X25888Y-33316D01*
X25958Y-33387D01*
X26050Y-33425D01*
X26162Y-33425D01*
X26225Y-33362D01*
X26225Y-32950D01*
X26217Y-32950D01*
X26217Y-32850D01*
X26225Y-32850D01*
X26225Y-32437D01*
X26162Y-32375D01*
X26050Y-32374D01*
X25958Y-32412D01*
X25888Y-32483D01*
X25850Y-32575D01*
X25849Y-32649D01*
X25787Y-32649D01*
X25850Y-32587D01*
X25850Y-32474D01*
X25849Y-32375D01*
X25811Y-32283D01*
X25741Y-32212D01*
X25710Y-32200D01*
X30100Y-32200D01*
X30100Y-30415D01*
X30152Y-30415D01*
X30162Y-30441D01*
X30233Y-30511D01*
X30325Y-30549D01*
X30424Y-30550D01*
X30974Y-30550D01*
X31050Y-30518D01*
X31125Y-30549D01*
X31224Y-30550D01*
X31555Y-30550D01*
X31555Y-30625D01*
X31500Y-30624D01*
X31150Y-30624D01*
X31058Y-30662D01*
X31000Y-30721D01*
X30941Y-30662D01*
X30849Y-30624D01*
X30737Y-30625D01*
X30675Y-30687D01*
X30675Y-31100D01*
X30682Y-31100D01*
X30682Y-31200D01*
X30675Y-31200D01*
X30675Y-31487D01*
X30675Y-31612D01*
X30675Y-31900D01*
X30682Y-31900D01*
X30682Y-32000D01*
X30675Y-32000D01*
X30675Y-32412D01*
X30737Y-32475D01*
X30849Y-32475D01*
X30941Y-32437D01*
X31000Y-32378D01*
X31058Y-32436D01*
X31150Y-32474D01*
X31249Y-32475D01*
X31599Y-32475D01*
X31691Y-32437D01*
X31761Y-32366D01*
X31799Y-32274D01*
X31799Y-32230D01*
X32761Y-32230D01*
X32985Y-32453D01*
X32985Y-32453D01*
X33046Y-32494D01*
X33076Y-32514D01*
X33076Y-32514D01*
X33183Y-32535D01*
X33183Y-32535D01*
X33218Y-32535D01*
G54D10*
G36*
X33845Y-29899D02*
X33795Y-29866D01*
X33687Y-29845D01*
X33652Y-29845D01*
X33637Y-29808D01*
X33578Y-29750D01*
X33637Y-29691D01*
X33675Y-29599D01*
X33675Y-29150D01*
X33637Y-29058D01*
X33566Y-28988D01*
X33474Y-28950D01*
X33375Y-28949D01*
X33262Y-28950D01*
X33200Y-29012D01*
X33200Y-29325D01*
X33612Y-29325D01*
X33675Y-29262D01*
X33675Y-29150D01*
X33675Y-29599D01*
X33675Y-29487D01*
X33612Y-29425D01*
X33200Y-29425D01*
X33200Y-29432D01*
X33100Y-29432D01*
X33100Y-29425D01*
X33100Y-29325D01*
X33100Y-29012D01*
X33037Y-28950D01*
X32924Y-28949D01*
X32825Y-28950D01*
X32750Y-28981D01*
X32674Y-28950D01*
X32575Y-28949D01*
X32462Y-28950D01*
X32400Y-29012D01*
X32400Y-29325D01*
X32687Y-29325D01*
X32812Y-29325D01*
X33100Y-29325D01*
X33100Y-29425D01*
X32812Y-29425D01*
X32687Y-29425D01*
X32400Y-29425D01*
X32400Y-29432D01*
X32300Y-29432D01*
X32300Y-29425D01*
X32300Y-29325D01*
X32300Y-29012D01*
X32237Y-28950D01*
X32124Y-28949D01*
X32025Y-28950D01*
X31933Y-28988D01*
X31900Y-29021D01*
X31866Y-28988D01*
X31774Y-28950D01*
X31675Y-28949D01*
X31562Y-28950D01*
X31500Y-29012D01*
X31500Y-29325D01*
X31887Y-29325D01*
X31912Y-29325D01*
X32300Y-29325D01*
X32300Y-29425D01*
X31912Y-29425D01*
X31887Y-29425D01*
X31500Y-29425D01*
X31500Y-29432D01*
X31400Y-29432D01*
X31400Y-29425D01*
X31400Y-29325D01*
X31400Y-29012D01*
X31337Y-28950D01*
X31224Y-28949D01*
X31125Y-28950D01*
X31050Y-28981D01*
X30974Y-28950D01*
X30875Y-28949D01*
X30762Y-28950D01*
X30700Y-29012D01*
X30700Y-29325D01*
X30987Y-29325D01*
X31112Y-29325D01*
X31400Y-29325D01*
X31400Y-29425D01*
X31112Y-29425D01*
X30987Y-29425D01*
X30700Y-29425D01*
X30700Y-29432D01*
X30600Y-29432D01*
X30600Y-29425D01*
X30592Y-29425D01*
X30592Y-29325D01*
X30600Y-29325D01*
X30600Y-29012D01*
X30537Y-28950D01*
X30424Y-28949D01*
X30384Y-28949D01*
X30384Y-28640D01*
X30884Y-28640D01*
X30995Y-28617D01*
X31025Y-28598D01*
X31054Y-28617D01*
X31165Y-28640D01*
X31165Y-28639D01*
X31165Y-28640D01*
X32049Y-28640D01*
X32049Y-28674D01*
X32087Y-28766D01*
X32158Y-28836D01*
X32250Y-28874D01*
X32349Y-28875D01*
X32699Y-28875D01*
X32791Y-28837D01*
X32850Y-28778D01*
X32908Y-28836D01*
X33000Y-28874D01*
X33099Y-28875D01*
X33449Y-28875D01*
X33541Y-28837D01*
X33611Y-28766D01*
X33649Y-28674D01*
X33649Y-28630D01*
X33675Y-28630D01*
X33699Y-28630D01*
X33699Y-28674D01*
X33731Y-28750D01*
X33700Y-28825D01*
X33699Y-28924D01*
X33699Y-29474D01*
X33737Y-29566D01*
X33808Y-29636D01*
X33845Y-29652D01*
X33845Y-29899D01*
X33845Y-29899D01*
G37*
G54D34*
X33845Y-29899D02*
X33795Y-29866D01*
X33687Y-29845D01*
X33652Y-29845D01*
X33637Y-29808D01*
X33578Y-29750D01*
X33637Y-29691D01*
X33675Y-29599D01*
X33675Y-29150D01*
X33637Y-29058D01*
X33566Y-28988D01*
X33474Y-28950D01*
X33375Y-28949D01*
X33262Y-28950D01*
X33200Y-29012D01*
X33200Y-29325D01*
X33612Y-29325D01*
X33675Y-29262D01*
X33675Y-29150D01*
X33675Y-29599D01*
X33675Y-29487D01*
X33612Y-29425D01*
X33200Y-29425D01*
X33200Y-29432D01*
X33100Y-29432D01*
X33100Y-29425D01*
X33100Y-29325D01*
X33100Y-29012D01*
X33037Y-28950D01*
X32924Y-28949D01*
X32825Y-28950D01*
X32750Y-28981D01*
X32674Y-28950D01*
X32575Y-28949D01*
X32462Y-28950D01*
X32400Y-29012D01*
X32400Y-29325D01*
X32687Y-29325D01*
X32812Y-29325D01*
X33100Y-29325D01*
X33100Y-29425D01*
X32812Y-29425D01*
X32687Y-29425D01*
X32400Y-29425D01*
X32400Y-29432D01*
X32300Y-29432D01*
X32300Y-29425D01*
X32300Y-29325D01*
X32300Y-29012D01*
X32237Y-28950D01*
X32124Y-28949D01*
X32025Y-28950D01*
X31933Y-28988D01*
X31900Y-29021D01*
X31866Y-28988D01*
X31774Y-28950D01*
X31675Y-28949D01*
X31562Y-28950D01*
X31500Y-29012D01*
X31500Y-29325D01*
X31887Y-29325D01*
X31912Y-29325D01*
X32300Y-29325D01*
X32300Y-29425D01*
X31912Y-29425D01*
X31887Y-29425D01*
X31500Y-29425D01*
X31500Y-29432D01*
X31400Y-29432D01*
X31400Y-29425D01*
X31400Y-29325D01*
X31400Y-29012D01*
X31337Y-28950D01*
X31224Y-28949D01*
X31125Y-28950D01*
X31050Y-28981D01*
X30974Y-28950D01*
X30875Y-28949D01*
X30762Y-28950D01*
X30700Y-29012D01*
X30700Y-29325D01*
X30987Y-29325D01*
X31112Y-29325D01*
X31400Y-29325D01*
X31400Y-29425D01*
X31112Y-29425D01*
X30987Y-29425D01*
X30700Y-29425D01*
X30700Y-29432D01*
X30600Y-29432D01*
X30600Y-29425D01*
X30592Y-29425D01*
X30592Y-29325D01*
X30600Y-29325D01*
X30600Y-29012D01*
X30537Y-28950D01*
X30424Y-28949D01*
X30384Y-28949D01*
X30384Y-28640D01*
X30884Y-28640D01*
X30995Y-28617D01*
X31025Y-28598D01*
X31054Y-28617D01*
X31165Y-28640D01*
X31165Y-28639D01*
X31165Y-28640D01*
X32049Y-28640D01*
X32049Y-28674D01*
X32087Y-28766D01*
X32158Y-28836D01*
X32250Y-28874D01*
X32349Y-28875D01*
X32699Y-28875D01*
X32791Y-28837D01*
X32850Y-28778D01*
X32908Y-28836D01*
X33000Y-28874D01*
X33099Y-28875D01*
X33449Y-28875D01*
X33541Y-28837D01*
X33611Y-28766D01*
X33649Y-28674D01*
X33649Y-28630D01*
X33675Y-28630D01*
X33699Y-28630D01*
X33699Y-28674D01*
X33731Y-28750D01*
X33700Y-28825D01*
X33699Y-28924D01*
X33699Y-29474D01*
X33737Y-29566D01*
X33808Y-29636D01*
X33845Y-29652D01*
X33845Y-29899D01*
G54D10*
G36*
X34618Y-35994D02*
X33524Y-35994D01*
X33506Y-35977D01*
X33415Y-35916D01*
X33308Y-35895D01*
X32552Y-35895D01*
X32537Y-35858D01*
X32466Y-35788D01*
X32465Y-35787D01*
X34170Y-35787D01*
X34278Y-35766D01*
X34278Y-35766D01*
X34368Y-35705D01*
X34508Y-35565D01*
X34508Y-35565D01*
X34543Y-35513D01*
X34618Y-35587D01*
X34618Y-35994D01*
X34618Y-35994D01*
G37*
G54D34*
X34618Y-35994D02*
X33524Y-35994D01*
X33506Y-35977D01*
X33415Y-35916D01*
X33308Y-35895D01*
X32552Y-35895D01*
X32537Y-35858D01*
X32466Y-35788D01*
X32465Y-35787D01*
X34170Y-35787D01*
X34278Y-35766D01*
X34278Y-35766D01*
X34368Y-35705D01*
X34508Y-35565D01*
X34508Y-35565D01*
X34543Y-35513D01*
X34618Y-35587D01*
X34618Y-35994D01*
G54D10*
G36*
X35057Y-32600D02*
X35050Y-32600D01*
X35050Y-32607D01*
X34950Y-32607D01*
X34950Y-32600D01*
X34942Y-32600D01*
X34942Y-32500D01*
X34950Y-32500D01*
X34950Y-32492D01*
X35050Y-32492D01*
X35050Y-32500D01*
X35057Y-32500D01*
X35057Y-32600D01*
X35057Y-32600D01*
G37*
G54D34*
X35057Y-32600D02*
X35050Y-32600D01*
X35050Y-32607D01*
X34950Y-32607D01*
X34950Y-32600D01*
X34942Y-32600D01*
X34942Y-32500D01*
X34950Y-32500D01*
X34950Y-32492D01*
X35050Y-32492D01*
X35050Y-32500D01*
X35057Y-32500D01*
X35057Y-32600D01*
G54D10*
G36*
X35076Y-38005D02*
X35005Y-38076D01*
X35000Y-38070D01*
X34994Y-38076D01*
X34923Y-38005D01*
X34929Y-38000D01*
X34923Y-37994D01*
X34994Y-37923D01*
X35000Y-37929D01*
X35005Y-37923D01*
X35076Y-37994D01*
X35070Y-38000D01*
X35076Y-38005D01*
X35076Y-38005D01*
G37*
G54D34*
X35076Y-38005D02*
X35005Y-38076D01*
X35000Y-38070D01*
X34994Y-38076D01*
X34923Y-38005D01*
X34929Y-38000D01*
X34923Y-37994D01*
X34994Y-37923D01*
X35000Y-37929D01*
X35005Y-37923D01*
X35076Y-37994D01*
X35070Y-38000D01*
X35076Y-38005D01*
G54D10*
G36*
X35094Y-29931D02*
X34897Y-30127D01*
X34898Y-30055D01*
X34838Y-29911D01*
X34729Y-29801D01*
X34585Y-29742D01*
X34430Y-29742D01*
X34405Y-29752D01*
X34405Y-29652D01*
X34441Y-29637D01*
X34500Y-29578D01*
X34558Y-29637D01*
X34650Y-29675D01*
X34762Y-29675D01*
X34825Y-29612D01*
X34825Y-29200D01*
X34817Y-29200D01*
X34817Y-29100D01*
X34825Y-29100D01*
X34825Y-28812D01*
X34825Y-28687D01*
X34825Y-28400D01*
X34817Y-28400D01*
X34817Y-28300D01*
X34825Y-28300D01*
X34825Y-28292D01*
X34925Y-28292D01*
X34925Y-28300D01*
X34932Y-28300D01*
X34932Y-28400D01*
X34925Y-28400D01*
X34925Y-28687D01*
X34925Y-28812D01*
X34925Y-29100D01*
X34932Y-29100D01*
X34932Y-29200D01*
X34925Y-29200D01*
X34925Y-29612D01*
X34987Y-29675D01*
X35094Y-29675D01*
X35094Y-29931D01*
X35094Y-29931D01*
G37*
G54D34*
X35094Y-29931D02*
X34897Y-30127D01*
X34898Y-30055D01*
X34838Y-29911D01*
X34729Y-29801D01*
X34585Y-29742D01*
X34430Y-29742D01*
X34405Y-29752D01*
X34405Y-29652D01*
X34441Y-29637D01*
X34500Y-29578D01*
X34558Y-29637D01*
X34650Y-29675D01*
X34762Y-29675D01*
X34825Y-29612D01*
X34825Y-29200D01*
X34817Y-29200D01*
X34817Y-29100D01*
X34825Y-29100D01*
X34825Y-28812D01*
X34825Y-28687D01*
X34825Y-28400D01*
X34817Y-28400D01*
X34817Y-28300D01*
X34825Y-28300D01*
X34825Y-28292D01*
X34925Y-28292D01*
X34925Y-28300D01*
X34932Y-28300D01*
X34932Y-28400D01*
X34925Y-28400D01*
X34925Y-28687D01*
X34925Y-28812D01*
X34925Y-29100D01*
X34932Y-29100D01*
X34932Y-29200D01*
X34925Y-29200D01*
X34925Y-29612D01*
X34987Y-29675D01*
X35094Y-29675D01*
X35094Y-29931D01*
G54D10*
G36*
X37520Y-25731D02*
X37118Y-25731D01*
X37059Y-25755D01*
X36980Y-25755D01*
X36917Y-25818D01*
X36917Y-25858D01*
X36098Y-25858D01*
X36047Y-25808D01*
X35904Y-25748D01*
X35749Y-25748D01*
X35606Y-25807D01*
X35555Y-25858D01*
X33826Y-25858D01*
X33770Y-25802D01*
X33679Y-25741D01*
X33572Y-25720D01*
X32200Y-25720D01*
X32200Y-25675D01*
X32162Y-25583D01*
X32130Y-25552D01*
X36917Y-25552D01*
X36917Y-25593D01*
X36980Y-25655D01*
X37059Y-25655D01*
X37117Y-25679D01*
X37217Y-25679D01*
X37520Y-25679D01*
X37520Y-25731D01*
X37520Y-25731D01*
G37*
G54D34*
X37520Y-25731D02*
X37118Y-25731D01*
X37059Y-25755D01*
X36980Y-25755D01*
X36917Y-25818D01*
X36917Y-25858D01*
X36098Y-25858D01*
X36047Y-25808D01*
X35904Y-25748D01*
X35749Y-25748D01*
X35606Y-25807D01*
X35555Y-25858D01*
X33826Y-25858D01*
X33770Y-25802D01*
X33679Y-25741D01*
X33572Y-25720D01*
X32200Y-25720D01*
X32200Y-25675D01*
X32162Y-25583D01*
X32130Y-25552D01*
X36917Y-25552D01*
X36917Y-25593D01*
X36980Y-25655D01*
X37059Y-25655D01*
X37117Y-25679D01*
X37217Y-25679D01*
X37520Y-25679D01*
X37520Y-25731D01*
G54D10*
G36*
X38042Y-38092D02*
X38022Y-38112D01*
X38021Y-38114D01*
X37806Y-38435D01*
X37805Y-38436D01*
X37756Y-38554D01*
X37681Y-38936D01*
X37681Y-38968D01*
X37675Y-39000D01*
X37675Y-39500D01*
X37675Y-39675D01*
X35311Y-39675D01*
X35311Y-39382D01*
X35000Y-39070D01*
X34688Y-39382D01*
X34714Y-39477D01*
X34919Y-39550D01*
X35136Y-39539D01*
X35285Y-39477D01*
X35311Y-39382D01*
X35311Y-39675D01*
X21446Y-39675D01*
X20952Y-39675D01*
X20693Y-39675D01*
X20719Y-39648D01*
X20675Y-39604D01*
X20811Y-39528D01*
X20952Y-39177D01*
X20947Y-38799D01*
X20811Y-38471D01*
X20675Y-38395D01*
X20719Y-38351D01*
X20746Y-38378D01*
X20910Y-38446D01*
X21088Y-38446D01*
X21252Y-38379D01*
X21378Y-38253D01*
X21446Y-38089D01*
X21446Y-37911D01*
X21379Y-37747D01*
X21253Y-37621D01*
X21089Y-37553D01*
X20911Y-37553D01*
X20747Y-37620D01*
X20621Y-37746D01*
X20553Y-37910D01*
X20553Y-38088D01*
X20620Y-38252D01*
X20648Y-38280D01*
X20604Y-38324D01*
X20528Y-38188D01*
X20177Y-38047D01*
X20025Y-38049D01*
X20025Y-35462D01*
X20025Y-35050D01*
X20025Y-34950D01*
X20025Y-34537D01*
X20025Y-33912D01*
X20025Y-33500D01*
X20025Y-33400D01*
X20025Y-32987D01*
X19962Y-32925D01*
X19850Y-32924D01*
X19758Y-32962D01*
X19688Y-33033D01*
X19650Y-33125D01*
X19649Y-33224D01*
X19650Y-33337D01*
X19712Y-33400D01*
X20025Y-33400D01*
X20025Y-33500D01*
X19712Y-33500D01*
X19650Y-33562D01*
X19649Y-33675D01*
X19650Y-33774D01*
X19688Y-33866D01*
X19758Y-33937D01*
X19850Y-33975D01*
X19962Y-33975D01*
X20025Y-33912D01*
X20025Y-34537D01*
X19962Y-34475D01*
X19850Y-34474D01*
X19758Y-34512D01*
X19688Y-34583D01*
X19650Y-34675D01*
X19649Y-34774D01*
X19650Y-34887D01*
X19712Y-34950D01*
X20025Y-34950D01*
X20025Y-35050D01*
X19712Y-35050D01*
X19650Y-35112D01*
X19649Y-35225D01*
X19650Y-35324D01*
X19688Y-35416D01*
X19758Y-35487D01*
X19850Y-35525D01*
X19962Y-35525D01*
X20025Y-35462D01*
X20025Y-38049D01*
X19799Y-38052D01*
X19471Y-38188D01*
X19395Y-38324D01*
X19351Y-38280D01*
X19325Y-38306D01*
X19325Y-32200D01*
X22689Y-32200D01*
X22658Y-32212D01*
X22588Y-32283D01*
X22550Y-32375D01*
X22550Y-32407D01*
X22487Y-32395D01*
X22402Y-32395D01*
X22387Y-32358D01*
X22316Y-32288D01*
X22224Y-32250D01*
X22125Y-32249D01*
X21575Y-32249D01*
X21483Y-32287D01*
X21413Y-32358D01*
X21375Y-32450D01*
X21374Y-32549D01*
X21374Y-32899D01*
X21412Y-32991D01*
X21471Y-33050D01*
X21413Y-33108D01*
X21397Y-33145D01*
X21250Y-33145D01*
X21250Y-33125D01*
X21212Y-33033D01*
X21141Y-32963D01*
X21049Y-32925D01*
X20950Y-32924D01*
X20600Y-32924D01*
X20508Y-32962D01*
X20450Y-33021D01*
X20391Y-32962D01*
X20299Y-32924D01*
X20187Y-32925D01*
X20125Y-32987D01*
X20125Y-33400D01*
X20132Y-33400D01*
X20132Y-33500D01*
X20125Y-33500D01*
X20125Y-33912D01*
X20187Y-33975D01*
X20299Y-33975D01*
X20391Y-33937D01*
X20450Y-33878D01*
X20508Y-33936D01*
X20600Y-33974D01*
X20699Y-33975D01*
X21049Y-33975D01*
X21141Y-33937D01*
X21211Y-33866D01*
X21249Y-33774D01*
X21250Y-33724D01*
X21327Y-33708D01*
X21327Y-33708D01*
X21332Y-33705D01*
X21332Y-33705D01*
X21397Y-33705D01*
X21412Y-33741D01*
X21483Y-33811D01*
X21575Y-33849D01*
X21575Y-33849D01*
X21575Y-33849D01*
X21483Y-33887D01*
X21413Y-33958D01*
X21375Y-34050D01*
X21374Y-34149D01*
X21374Y-34499D01*
X21412Y-34591D01*
X21471Y-34650D01*
X21413Y-34708D01*
X21397Y-34745D01*
X21390Y-34745D01*
X21384Y-34741D01*
X21277Y-34720D01*
X21250Y-34720D01*
X21250Y-34675D01*
X21212Y-34583D01*
X21141Y-34513D01*
X21049Y-34475D01*
X20950Y-34474D01*
X20600Y-34474D01*
X20508Y-34512D01*
X20450Y-34571D01*
X20391Y-34512D01*
X20299Y-34474D01*
X20187Y-34475D01*
X20125Y-34537D01*
X20125Y-34950D01*
X20132Y-34950D01*
X20132Y-35050D01*
X20125Y-35050D01*
X20125Y-35462D01*
X20187Y-35525D01*
X20299Y-35525D01*
X20391Y-35487D01*
X20450Y-35428D01*
X20508Y-35486D01*
X20600Y-35524D01*
X20699Y-35525D01*
X21049Y-35525D01*
X21141Y-35487D01*
X21211Y-35416D01*
X21249Y-35324D01*
X21249Y-35294D01*
X21302Y-35305D01*
X21397Y-35305D01*
X21412Y-35341D01*
X21483Y-35411D01*
X21575Y-35449D01*
X21674Y-35450D01*
X22224Y-35450D01*
X22316Y-35412D01*
X22386Y-35341D01*
X22402Y-35305D01*
X22499Y-35305D01*
X22499Y-35374D01*
X22537Y-35466D01*
X22571Y-35499D01*
X22538Y-35533D01*
X22500Y-35625D01*
X22499Y-35724D01*
X22500Y-35837D01*
X22562Y-35900D01*
X22875Y-35900D01*
X22875Y-35892D01*
X22975Y-35892D01*
X22975Y-35900D01*
X22982Y-35900D01*
X22982Y-36000D01*
X22975Y-36000D01*
X22975Y-36387D01*
X22975Y-36412D01*
X22975Y-36800D01*
X22982Y-36800D01*
X22982Y-36900D01*
X22975Y-36900D01*
X22975Y-37312D01*
X23037Y-37375D01*
X23149Y-37375D01*
X23241Y-37337D01*
X23300Y-37278D01*
X23358Y-37336D01*
X23450Y-37374D01*
X23549Y-37375D01*
X23899Y-37375D01*
X23991Y-37337D01*
X24061Y-37266D01*
X24099Y-37174D01*
X24100Y-37075D01*
X24100Y-36525D01*
X24062Y-36433D01*
X24028Y-36400D01*
X24061Y-36366D01*
X24099Y-36274D01*
X24100Y-36175D01*
X24100Y-35625D01*
X24062Y-35533D01*
X24028Y-35500D01*
X24061Y-35466D01*
X24099Y-35374D01*
X24100Y-35305D01*
X24547Y-35305D01*
X24562Y-35341D01*
X24621Y-35400D01*
X24563Y-35458D01*
X24525Y-35550D01*
X24524Y-35649D01*
X24524Y-35999D01*
X24562Y-36091D01*
X24633Y-36161D01*
X24725Y-36199D01*
X24774Y-36199D01*
X24791Y-36282D01*
X24852Y-36372D01*
X24942Y-36433D01*
X25050Y-36455D01*
X28247Y-36455D01*
X28262Y-36491D01*
X28321Y-36550D01*
X28262Y-36608D01*
X28224Y-36700D01*
X28225Y-36812D01*
X28287Y-36875D01*
X28700Y-36875D01*
X28700Y-36867D01*
X28800Y-36867D01*
X28800Y-36875D01*
X29212Y-36875D01*
X29275Y-36812D01*
X29275Y-36700D01*
X29237Y-36608D01*
X29178Y-36549D01*
X29236Y-36491D01*
X29274Y-36399D01*
X29275Y-36300D01*
X29275Y-35950D01*
X29237Y-35858D01*
X29166Y-35788D01*
X29165Y-35787D01*
X30834Y-35787D01*
X30833Y-35787D01*
X30763Y-35858D01*
X30725Y-35950D01*
X30724Y-36049D01*
X30724Y-36399D01*
X30762Y-36491D01*
X30821Y-36550D01*
X30762Y-36608D01*
X30724Y-36700D01*
X30725Y-36812D01*
X30787Y-36875D01*
X31200Y-36875D01*
X31200Y-36867D01*
X31300Y-36867D01*
X31300Y-36875D01*
X31587Y-36875D01*
X31712Y-36875D01*
X32000Y-36875D01*
X32000Y-36867D01*
X32100Y-36867D01*
X32100Y-36875D01*
X32512Y-36875D01*
X32575Y-36812D01*
X32575Y-36700D01*
X32537Y-36608D01*
X32478Y-36549D01*
X32536Y-36491D01*
X32552Y-36455D01*
X32802Y-36455D01*
X32755Y-36502D01*
X32675Y-36695D01*
X32674Y-36903D01*
X32754Y-37097D01*
X32902Y-37244D01*
X33095Y-37324D01*
X33303Y-37325D01*
X33497Y-37245D01*
X33644Y-37097D01*
X33700Y-36964D01*
X33754Y-37097D01*
X33902Y-37244D01*
X34069Y-37314D01*
X33405Y-37314D01*
X33298Y-37335D01*
X33268Y-37355D01*
X33207Y-37396D01*
X33137Y-37466D01*
X33108Y-37454D01*
X32891Y-37454D01*
X32691Y-37537D01*
X32575Y-37653D01*
X32575Y-37149D01*
X32575Y-37037D01*
X32512Y-36975D01*
X32100Y-36975D01*
X32100Y-37287D01*
X32162Y-37350D01*
X32275Y-37350D01*
X32374Y-37349D01*
X32466Y-37311D01*
X32537Y-37241D01*
X32575Y-37149D01*
X32575Y-37653D01*
X32537Y-37690D01*
X32500Y-37781D01*
X32462Y-37691D01*
X32309Y-37537D01*
X32108Y-37454D01*
X32000Y-37454D01*
X32000Y-37287D01*
X32000Y-36975D01*
X31712Y-36975D01*
X31587Y-36975D01*
X31300Y-36975D01*
X31300Y-37287D01*
X31362Y-37350D01*
X31475Y-37350D01*
X31574Y-37349D01*
X31650Y-37318D01*
X31725Y-37349D01*
X31824Y-37350D01*
X31937Y-37350D01*
X32000Y-37287D01*
X32000Y-37454D01*
X31891Y-37454D01*
X31691Y-37537D01*
X31537Y-37690D01*
X31500Y-37781D01*
X31462Y-37691D01*
X31309Y-37537D01*
X31200Y-37492D01*
X31200Y-37287D01*
X31200Y-36975D01*
X30787Y-36975D01*
X30725Y-37037D01*
X30724Y-37149D01*
X30762Y-37241D01*
X30833Y-37311D01*
X30925Y-37349D01*
X31024Y-37350D01*
X31137Y-37350D01*
X31200Y-37287D01*
X31200Y-37492D01*
X31108Y-37454D01*
X30891Y-37454D01*
X30691Y-37537D01*
X30537Y-37690D01*
X30500Y-37781D01*
X30462Y-37691D01*
X30309Y-37537D01*
X30108Y-37454D01*
X29891Y-37454D01*
X29691Y-37537D01*
X29537Y-37690D01*
X29500Y-37781D01*
X29462Y-37691D01*
X29309Y-37537D01*
X29275Y-37523D01*
X29275Y-37149D01*
X29275Y-37037D01*
X29212Y-36975D01*
X28800Y-36975D01*
X28800Y-37287D01*
X28862Y-37350D01*
X28975Y-37350D01*
X29074Y-37349D01*
X29166Y-37311D01*
X29237Y-37241D01*
X29275Y-37149D01*
X29275Y-37523D01*
X29108Y-37454D01*
X28891Y-37454D01*
X28700Y-37533D01*
X28700Y-37287D01*
X28700Y-36975D01*
X28287Y-36975D01*
X28225Y-37037D01*
X28224Y-37149D01*
X28262Y-37241D01*
X28333Y-37311D01*
X28425Y-37349D01*
X28524Y-37350D01*
X28637Y-37350D01*
X28700Y-37287D01*
X28700Y-37533D01*
X28691Y-37537D01*
X28537Y-37690D01*
X28500Y-37781D01*
X28462Y-37691D01*
X28309Y-37537D01*
X28108Y-37454D01*
X27891Y-37454D01*
X27691Y-37537D01*
X27537Y-37690D01*
X27500Y-37781D01*
X27462Y-37691D01*
X27309Y-37537D01*
X27108Y-37454D01*
X26891Y-37454D01*
X26691Y-37537D01*
X26537Y-37690D01*
X26500Y-37781D01*
X26462Y-37691D01*
X26309Y-37537D01*
X26108Y-37454D01*
X25891Y-37454D01*
X25691Y-37537D01*
X25537Y-37690D01*
X25500Y-37781D01*
X25462Y-37691D01*
X25309Y-37537D01*
X25108Y-37454D01*
X24891Y-37454D01*
X24691Y-37537D01*
X24537Y-37690D01*
X24500Y-37781D01*
X24462Y-37691D01*
X24309Y-37537D01*
X24108Y-37454D01*
X23891Y-37454D01*
X23691Y-37537D01*
X23537Y-37690D01*
X23500Y-37781D01*
X23462Y-37691D01*
X23309Y-37537D01*
X23108Y-37454D01*
X22891Y-37454D01*
X22875Y-37461D01*
X22875Y-37312D01*
X22875Y-36900D01*
X22875Y-36800D01*
X22875Y-36412D01*
X22875Y-36387D01*
X22875Y-36000D01*
X22562Y-36000D01*
X22500Y-36062D01*
X22499Y-36175D01*
X22500Y-36274D01*
X22538Y-36366D01*
X22571Y-36400D01*
X22538Y-36433D01*
X22500Y-36525D01*
X22499Y-36624D01*
X22500Y-36737D01*
X22562Y-36800D01*
X22875Y-36800D01*
X22875Y-36900D01*
X22562Y-36900D01*
X22500Y-36962D01*
X22499Y-37075D01*
X22500Y-37174D01*
X22538Y-37266D01*
X22608Y-37337D01*
X22700Y-37375D01*
X22812Y-37375D01*
X22875Y-37312D01*
X22875Y-37461D01*
X22691Y-37537D01*
X22537Y-37690D01*
X22454Y-37891D01*
X22454Y-38108D01*
X22537Y-38308D01*
X22690Y-38462D01*
X22781Y-38499D01*
X22691Y-38537D01*
X22537Y-38690D01*
X22454Y-38891D01*
X22454Y-39108D01*
X22537Y-39308D01*
X22690Y-39462D01*
X22891Y-39545D01*
X23108Y-39545D01*
X23308Y-39462D01*
X23462Y-39309D01*
X23499Y-39218D01*
X23537Y-39308D01*
X23690Y-39462D01*
X23891Y-39545D01*
X24108Y-39545D01*
X24308Y-39462D01*
X24462Y-39309D01*
X24499Y-39218D01*
X24537Y-39308D01*
X24690Y-39462D01*
X24891Y-39545D01*
X25108Y-39545D01*
X25308Y-39462D01*
X25462Y-39309D01*
X25499Y-39218D01*
X25537Y-39308D01*
X25690Y-39462D01*
X25891Y-39545D01*
X26108Y-39545D01*
X26308Y-39462D01*
X26462Y-39309D01*
X26499Y-39218D01*
X26537Y-39308D01*
X26690Y-39462D01*
X26891Y-39545D01*
X27108Y-39545D01*
X27308Y-39462D01*
X27462Y-39309D01*
X27499Y-39218D01*
X27537Y-39308D01*
X27690Y-39462D01*
X27891Y-39545D01*
X28108Y-39545D01*
X28308Y-39462D01*
X28462Y-39309D01*
X28499Y-39218D01*
X28537Y-39308D01*
X28690Y-39462D01*
X28891Y-39545D01*
X29108Y-39545D01*
X29308Y-39462D01*
X29462Y-39309D01*
X29499Y-39218D01*
X29537Y-39308D01*
X29690Y-39462D01*
X29891Y-39545D01*
X30108Y-39545D01*
X30308Y-39462D01*
X30462Y-39309D01*
X30499Y-39218D01*
X30537Y-39308D01*
X30690Y-39462D01*
X30891Y-39545D01*
X31108Y-39545D01*
X31308Y-39462D01*
X31462Y-39309D01*
X31499Y-39218D01*
X31537Y-39308D01*
X31690Y-39462D01*
X31891Y-39545D01*
X32108Y-39545D01*
X32308Y-39462D01*
X32462Y-39309D01*
X32499Y-39218D01*
X32537Y-39308D01*
X32690Y-39462D01*
X32891Y-39545D01*
X33108Y-39545D01*
X33308Y-39462D01*
X33462Y-39309D01*
X33499Y-39218D01*
X33537Y-39308D01*
X33690Y-39462D01*
X33891Y-39545D01*
X34108Y-39545D01*
X34308Y-39462D01*
X34462Y-39309D01*
X34497Y-39224D01*
X34522Y-39285D01*
X34617Y-39311D01*
X34929Y-39000D01*
X34923Y-38994D01*
X34994Y-38923D01*
X35000Y-38929D01*
X35005Y-38923D01*
X35076Y-38994D01*
X35070Y-39000D01*
X35382Y-39311D01*
X35454Y-39291D01*
X35454Y-39345D01*
X35492Y-39436D01*
X35562Y-39507D01*
X35654Y-39545D01*
X35754Y-39545D01*
X36345Y-39545D01*
X36436Y-39507D01*
X36507Y-39437D01*
X36545Y-39345D01*
X36545Y-39245D01*
X36545Y-38780D01*
X37179Y-38780D01*
X37286Y-38758D01*
X37286Y-38758D01*
X37377Y-38697D01*
X37983Y-38092D01*
X38042Y-38092D01*
X38042Y-38092D01*
G37*
G54D34*
X38042Y-38092D02*
X38022Y-38112D01*
X38021Y-38114D01*
X37806Y-38435D01*
X37805Y-38436D01*
X37756Y-38554D01*
X37681Y-38936D01*
X37681Y-38968D01*
X37675Y-39000D01*
X37675Y-39500D01*
X37675Y-39675D01*
X35311Y-39675D01*
X35311Y-39382D01*
X35000Y-39070D01*
X34688Y-39382D01*
X34714Y-39477D01*
X34919Y-39550D01*
X35136Y-39539D01*
X35285Y-39477D01*
X35311Y-39382D01*
X35311Y-39675D01*
X21446Y-39675D01*
X20952Y-39675D01*
X20693Y-39675D01*
X20719Y-39648D01*
X20675Y-39604D01*
X20811Y-39528D01*
X20952Y-39177D01*
X20947Y-38799D01*
X20811Y-38471D01*
X20675Y-38395D01*
X20719Y-38351D01*
X20746Y-38378D01*
X20910Y-38446D01*
X21088Y-38446D01*
X21252Y-38379D01*
X21378Y-38253D01*
X21446Y-38089D01*
X21446Y-37911D01*
X21379Y-37747D01*
X21253Y-37621D01*
X21089Y-37553D01*
X20911Y-37553D01*
X20747Y-37620D01*
X20621Y-37746D01*
X20553Y-37910D01*
X20553Y-38088D01*
X20620Y-38252D01*
X20648Y-38280D01*
X20604Y-38324D01*
X20528Y-38188D01*
X20177Y-38047D01*
X20025Y-38049D01*
X20025Y-35462D01*
X20025Y-35050D01*
X20025Y-34950D01*
X20025Y-34537D01*
X20025Y-33912D01*
X20025Y-33500D01*
X20025Y-33400D01*
X20025Y-32987D01*
X19962Y-32925D01*
X19850Y-32924D01*
X19758Y-32962D01*
X19688Y-33033D01*
X19650Y-33125D01*
X19649Y-33224D01*
X19650Y-33337D01*
X19712Y-33400D01*
X20025Y-33400D01*
X20025Y-33500D01*
X19712Y-33500D01*
X19650Y-33562D01*
X19649Y-33675D01*
X19650Y-33774D01*
X19688Y-33866D01*
X19758Y-33937D01*
X19850Y-33975D01*
X19962Y-33975D01*
X20025Y-33912D01*
X20025Y-34537D01*
X19962Y-34475D01*
X19850Y-34474D01*
X19758Y-34512D01*
X19688Y-34583D01*
X19650Y-34675D01*
X19649Y-34774D01*
X19650Y-34887D01*
X19712Y-34950D01*
X20025Y-34950D01*
X20025Y-35050D01*
X19712Y-35050D01*
X19650Y-35112D01*
X19649Y-35225D01*
X19650Y-35324D01*
X19688Y-35416D01*
X19758Y-35487D01*
X19850Y-35525D01*
X19962Y-35525D01*
X20025Y-35462D01*
X20025Y-38049D01*
X19799Y-38052D01*
X19471Y-38188D01*
X19395Y-38324D01*
X19351Y-38280D01*
X19325Y-38306D01*
X19325Y-32200D01*
X22689Y-32200D01*
X22658Y-32212D01*
X22588Y-32283D01*
X22550Y-32375D01*
X22550Y-32407D01*
X22487Y-32395D01*
X22402Y-32395D01*
X22387Y-32358D01*
X22316Y-32288D01*
X22224Y-32250D01*
X22125Y-32249D01*
X21575Y-32249D01*
X21483Y-32287D01*
X21413Y-32358D01*
X21375Y-32450D01*
X21374Y-32549D01*
X21374Y-32899D01*
X21412Y-32991D01*
X21471Y-33050D01*
X21413Y-33108D01*
X21397Y-33145D01*
X21250Y-33145D01*
X21250Y-33125D01*
X21212Y-33033D01*
X21141Y-32963D01*
X21049Y-32925D01*
X20950Y-32924D01*
X20600Y-32924D01*
X20508Y-32962D01*
X20450Y-33021D01*
X20391Y-32962D01*
X20299Y-32924D01*
X20187Y-32925D01*
X20125Y-32987D01*
X20125Y-33400D01*
X20132Y-33400D01*
X20132Y-33500D01*
X20125Y-33500D01*
X20125Y-33912D01*
X20187Y-33975D01*
X20299Y-33975D01*
X20391Y-33937D01*
X20450Y-33878D01*
X20508Y-33936D01*
X20600Y-33974D01*
X20699Y-33975D01*
X21049Y-33975D01*
X21141Y-33937D01*
X21211Y-33866D01*
X21249Y-33774D01*
X21250Y-33724D01*
X21327Y-33708D01*
X21327Y-33708D01*
X21332Y-33705D01*
X21332Y-33705D01*
X21397Y-33705D01*
X21412Y-33741D01*
X21483Y-33811D01*
X21575Y-33849D01*
X21575Y-33849D01*
X21575Y-33849D01*
X21483Y-33887D01*
X21413Y-33958D01*
X21375Y-34050D01*
X21374Y-34149D01*
X21374Y-34499D01*
X21412Y-34591D01*
X21471Y-34650D01*
X21413Y-34708D01*
X21397Y-34745D01*
X21390Y-34745D01*
X21384Y-34741D01*
X21277Y-34720D01*
X21250Y-34720D01*
X21250Y-34675D01*
X21212Y-34583D01*
X21141Y-34513D01*
X21049Y-34475D01*
X20950Y-34474D01*
X20600Y-34474D01*
X20508Y-34512D01*
X20450Y-34571D01*
X20391Y-34512D01*
X20299Y-34474D01*
X20187Y-34475D01*
X20125Y-34537D01*
X20125Y-34950D01*
X20132Y-34950D01*
X20132Y-35050D01*
X20125Y-35050D01*
X20125Y-35462D01*
X20187Y-35525D01*
X20299Y-35525D01*
X20391Y-35487D01*
X20450Y-35428D01*
X20508Y-35486D01*
X20600Y-35524D01*
X20699Y-35525D01*
X21049Y-35525D01*
X21141Y-35487D01*
X21211Y-35416D01*
X21249Y-35324D01*
X21249Y-35294D01*
X21302Y-35305D01*
X21397Y-35305D01*
X21412Y-35341D01*
X21483Y-35411D01*
X21575Y-35449D01*
X21674Y-35450D01*
X22224Y-35450D01*
X22316Y-35412D01*
X22386Y-35341D01*
X22402Y-35305D01*
X22499Y-35305D01*
X22499Y-35374D01*
X22537Y-35466D01*
X22571Y-35499D01*
X22538Y-35533D01*
X22500Y-35625D01*
X22499Y-35724D01*
X22500Y-35837D01*
X22562Y-35900D01*
X22875Y-35900D01*
X22875Y-35892D01*
X22975Y-35892D01*
X22975Y-35900D01*
X22982Y-35900D01*
X22982Y-36000D01*
X22975Y-36000D01*
X22975Y-36387D01*
X22975Y-36412D01*
X22975Y-36800D01*
X22982Y-36800D01*
X22982Y-36900D01*
X22975Y-36900D01*
X22975Y-37312D01*
X23037Y-37375D01*
X23149Y-37375D01*
X23241Y-37337D01*
X23300Y-37278D01*
X23358Y-37336D01*
X23450Y-37374D01*
X23549Y-37375D01*
X23899Y-37375D01*
X23991Y-37337D01*
X24061Y-37266D01*
X24099Y-37174D01*
X24100Y-37075D01*
X24100Y-36525D01*
X24062Y-36433D01*
X24028Y-36400D01*
X24061Y-36366D01*
X24099Y-36274D01*
X24100Y-36175D01*
X24100Y-35625D01*
X24062Y-35533D01*
X24028Y-35500D01*
X24061Y-35466D01*
X24099Y-35374D01*
X24100Y-35305D01*
X24547Y-35305D01*
X24562Y-35341D01*
X24621Y-35400D01*
X24563Y-35458D01*
X24525Y-35550D01*
X24524Y-35649D01*
X24524Y-35999D01*
X24562Y-36091D01*
X24633Y-36161D01*
X24725Y-36199D01*
X24774Y-36199D01*
X24791Y-36282D01*
X24852Y-36372D01*
X24942Y-36433D01*
X25050Y-36455D01*
X28247Y-36455D01*
X28262Y-36491D01*
X28321Y-36550D01*
X28262Y-36608D01*
X28224Y-36700D01*
X28225Y-36812D01*
X28287Y-36875D01*
X28700Y-36875D01*
X28700Y-36867D01*
X28800Y-36867D01*
X28800Y-36875D01*
X29212Y-36875D01*
X29275Y-36812D01*
X29275Y-36700D01*
X29237Y-36608D01*
X29178Y-36549D01*
X29236Y-36491D01*
X29274Y-36399D01*
X29275Y-36300D01*
X29275Y-35950D01*
X29237Y-35858D01*
X29166Y-35788D01*
X29165Y-35787D01*
X30834Y-35787D01*
X30833Y-35787D01*
X30763Y-35858D01*
X30725Y-35950D01*
X30724Y-36049D01*
X30724Y-36399D01*
X30762Y-36491D01*
X30821Y-36550D01*
X30762Y-36608D01*
X30724Y-36700D01*
X30725Y-36812D01*
X30787Y-36875D01*
X31200Y-36875D01*
X31200Y-36867D01*
X31300Y-36867D01*
X31300Y-36875D01*
X31587Y-36875D01*
X31712Y-36875D01*
X32000Y-36875D01*
X32000Y-36867D01*
X32100Y-36867D01*
X32100Y-36875D01*
X32512Y-36875D01*
X32575Y-36812D01*
X32575Y-36700D01*
X32537Y-36608D01*
X32478Y-36549D01*
X32536Y-36491D01*
X32552Y-36455D01*
X32802Y-36455D01*
X32755Y-36502D01*
X32675Y-36695D01*
X32674Y-36903D01*
X32754Y-37097D01*
X32902Y-37244D01*
X33095Y-37324D01*
X33303Y-37325D01*
X33497Y-37245D01*
X33644Y-37097D01*
X33700Y-36964D01*
X33754Y-37097D01*
X33902Y-37244D01*
X34069Y-37314D01*
X33405Y-37314D01*
X33298Y-37335D01*
X33268Y-37355D01*
X33207Y-37396D01*
X33137Y-37466D01*
X33108Y-37454D01*
X32891Y-37454D01*
X32691Y-37537D01*
X32575Y-37653D01*
X32575Y-37149D01*
X32575Y-37037D01*
X32512Y-36975D01*
X32100Y-36975D01*
X32100Y-37287D01*
X32162Y-37350D01*
X32275Y-37350D01*
X32374Y-37349D01*
X32466Y-37311D01*
X32537Y-37241D01*
X32575Y-37149D01*
X32575Y-37653D01*
X32537Y-37690D01*
X32500Y-37781D01*
X32462Y-37691D01*
X32309Y-37537D01*
X32108Y-37454D01*
X32000Y-37454D01*
X32000Y-37287D01*
X32000Y-36975D01*
X31712Y-36975D01*
X31587Y-36975D01*
X31300Y-36975D01*
X31300Y-37287D01*
X31362Y-37350D01*
X31475Y-37350D01*
X31574Y-37349D01*
X31650Y-37318D01*
X31725Y-37349D01*
X31824Y-37350D01*
X31937Y-37350D01*
X32000Y-37287D01*
X32000Y-37454D01*
X31891Y-37454D01*
X31691Y-37537D01*
X31537Y-37690D01*
X31500Y-37781D01*
X31462Y-37691D01*
X31309Y-37537D01*
X31200Y-37492D01*
X31200Y-37287D01*
X31200Y-36975D01*
X30787Y-36975D01*
X30725Y-37037D01*
X30724Y-37149D01*
X30762Y-37241D01*
X30833Y-37311D01*
X30925Y-37349D01*
X31024Y-37350D01*
X31137Y-37350D01*
X31200Y-37287D01*
X31200Y-37492D01*
X31108Y-37454D01*
X30891Y-37454D01*
X30691Y-37537D01*
X30537Y-37690D01*
X30500Y-37781D01*
X30462Y-37691D01*
X30309Y-37537D01*
X30108Y-37454D01*
X29891Y-37454D01*
X29691Y-37537D01*
X29537Y-37690D01*
X29500Y-37781D01*
X29462Y-37691D01*
X29309Y-37537D01*
X29275Y-37523D01*
X29275Y-37149D01*
X29275Y-37037D01*
X29212Y-36975D01*
X28800Y-36975D01*
X28800Y-37287D01*
X28862Y-37350D01*
X28975Y-37350D01*
X29074Y-37349D01*
X29166Y-37311D01*
X29237Y-37241D01*
X29275Y-37149D01*
X29275Y-37523D01*
X29108Y-37454D01*
X28891Y-37454D01*
X28700Y-37533D01*
X28700Y-37287D01*
X28700Y-36975D01*
X28287Y-36975D01*
X28225Y-37037D01*
X28224Y-37149D01*
X28262Y-37241D01*
X28333Y-37311D01*
X28425Y-37349D01*
X28524Y-37350D01*
X28637Y-37350D01*
X28700Y-37287D01*
X28700Y-37533D01*
X28691Y-37537D01*
X28537Y-37690D01*
X28500Y-37781D01*
X28462Y-37691D01*
X28309Y-37537D01*
X28108Y-37454D01*
X27891Y-37454D01*
X27691Y-37537D01*
X27537Y-37690D01*
X27500Y-37781D01*
X27462Y-37691D01*
X27309Y-37537D01*
X27108Y-37454D01*
X26891Y-37454D01*
X26691Y-37537D01*
X26537Y-37690D01*
X26500Y-37781D01*
X26462Y-37691D01*
X26309Y-37537D01*
X26108Y-37454D01*
X25891Y-37454D01*
X25691Y-37537D01*
X25537Y-37690D01*
X25500Y-37781D01*
X25462Y-37691D01*
X25309Y-37537D01*
X25108Y-37454D01*
X24891Y-37454D01*
X24691Y-37537D01*
X24537Y-37690D01*
X24500Y-37781D01*
X24462Y-37691D01*
X24309Y-37537D01*
X24108Y-37454D01*
X23891Y-37454D01*
X23691Y-37537D01*
X23537Y-37690D01*
X23500Y-37781D01*
X23462Y-37691D01*
X23309Y-37537D01*
X23108Y-37454D01*
X22891Y-37454D01*
X22875Y-37461D01*
X22875Y-37312D01*
X22875Y-36900D01*
X22875Y-36800D01*
X22875Y-36412D01*
X22875Y-36387D01*
X22875Y-36000D01*
X22562Y-36000D01*
X22500Y-36062D01*
X22499Y-36175D01*
X22500Y-36274D01*
X22538Y-36366D01*
X22571Y-36400D01*
X22538Y-36433D01*
X22500Y-36525D01*
X22499Y-36624D01*
X22500Y-36737D01*
X22562Y-36800D01*
X22875Y-36800D01*
X22875Y-36900D01*
X22562Y-36900D01*
X22500Y-36962D01*
X22499Y-37075D01*
X22500Y-37174D01*
X22538Y-37266D01*
X22608Y-37337D01*
X22700Y-37375D01*
X22812Y-37375D01*
X22875Y-37312D01*
X22875Y-37461D01*
X22691Y-37537D01*
X22537Y-37690D01*
X22454Y-37891D01*
X22454Y-38108D01*
X22537Y-38308D01*
X22690Y-38462D01*
X22781Y-38499D01*
X22691Y-38537D01*
X22537Y-38690D01*
X22454Y-38891D01*
X22454Y-39108D01*
X22537Y-39308D01*
X22690Y-39462D01*
X22891Y-39545D01*
X23108Y-39545D01*
X23308Y-39462D01*
X23462Y-39309D01*
X23499Y-39218D01*
X23537Y-39308D01*
X23690Y-39462D01*
X23891Y-39545D01*
X24108Y-39545D01*
X24308Y-39462D01*
X24462Y-39309D01*
X24499Y-39218D01*
X24537Y-39308D01*
X24690Y-39462D01*
X24891Y-39545D01*
X25108Y-39545D01*
X25308Y-39462D01*
X25462Y-39309D01*
X25499Y-39218D01*
X25537Y-39308D01*
X25690Y-39462D01*
X25891Y-39545D01*
X26108Y-39545D01*
X26308Y-39462D01*
X26462Y-39309D01*
X26499Y-39218D01*
X26537Y-39308D01*
X26690Y-39462D01*
X26891Y-39545D01*
X27108Y-39545D01*
X27308Y-39462D01*
X27462Y-39309D01*
X27499Y-39218D01*
X27537Y-39308D01*
X27690Y-39462D01*
X27891Y-39545D01*
X28108Y-39545D01*
X28308Y-39462D01*
X28462Y-39309D01*
X28499Y-39218D01*
X28537Y-39308D01*
X28690Y-39462D01*
X28891Y-39545D01*
X29108Y-39545D01*
X29308Y-39462D01*
X29462Y-39309D01*
X29499Y-39218D01*
X29537Y-39308D01*
X29690Y-39462D01*
X29891Y-39545D01*
X30108Y-39545D01*
X30308Y-39462D01*
X30462Y-39309D01*
X30499Y-39218D01*
X30537Y-39308D01*
X30690Y-39462D01*
X30891Y-39545D01*
X31108Y-39545D01*
X31308Y-39462D01*
X31462Y-39309D01*
X31499Y-39218D01*
X31537Y-39308D01*
X31690Y-39462D01*
X31891Y-39545D01*
X32108Y-39545D01*
X32308Y-39462D01*
X32462Y-39309D01*
X32499Y-39218D01*
X32537Y-39308D01*
X32690Y-39462D01*
X32891Y-39545D01*
X33108Y-39545D01*
X33308Y-39462D01*
X33462Y-39309D01*
X33499Y-39218D01*
X33537Y-39308D01*
X33690Y-39462D01*
X33891Y-39545D01*
X34108Y-39545D01*
X34308Y-39462D01*
X34462Y-39309D01*
X34497Y-39224D01*
X34522Y-39285D01*
X34617Y-39311D01*
X34929Y-39000D01*
X34923Y-38994D01*
X34994Y-38923D01*
X35000Y-38929D01*
X35005Y-38923D01*
X35076Y-38994D01*
X35070Y-39000D01*
X35382Y-39311D01*
X35454Y-39291D01*
X35454Y-39345D01*
X35492Y-39436D01*
X35562Y-39507D01*
X35654Y-39545D01*
X35754Y-39545D01*
X36345Y-39545D01*
X36436Y-39507D01*
X36507Y-39437D01*
X36545Y-39345D01*
X36545Y-39245D01*
X36545Y-38780D01*
X37179Y-38780D01*
X37286Y-38758D01*
X37286Y-38758D01*
X37377Y-38697D01*
X37983Y-38092D01*
X38042Y-38092D01*
G54D10*
G36*
X39325Y-36274D02*
X39150Y-36274D01*
X39150Y-36033D01*
X39150Y-35600D01*
X38717Y-35600D01*
X38654Y-35662D01*
X38654Y-35895D01*
X38692Y-35986D01*
X38762Y-36057D01*
X38854Y-36095D01*
X38954Y-36095D01*
X39087Y-36095D01*
X39150Y-36033D01*
X39150Y-36274D01*
X38875Y-36274D01*
X38783Y-36312D01*
X38713Y-36383D01*
X38675Y-36475D01*
X38674Y-36574D01*
X38674Y-36574D01*
X38645Y-36503D01*
X38497Y-36355D01*
X38304Y-36275D01*
X38096Y-36274D01*
X37903Y-36354D01*
X37755Y-36502D01*
X37699Y-36635D01*
X37645Y-36503D01*
X37497Y-36355D01*
X37304Y-36275D01*
X37096Y-36274D01*
X36903Y-36354D01*
X36755Y-36502D01*
X36699Y-36635D01*
X36645Y-36503D01*
X36497Y-36355D01*
X36304Y-36275D01*
X36096Y-36274D01*
X35975Y-36324D01*
X35975Y-34259D01*
X35975Y-34259D01*
X35959Y-34183D01*
X35990Y-34177D01*
X35990Y-34177D01*
X36080Y-34116D01*
X36166Y-34031D01*
X36243Y-33999D01*
X36299Y-33943D01*
X36380Y-33927D01*
X36380Y-33927D01*
X36471Y-33866D01*
X36611Y-33726D01*
X36611Y-33726D01*
X36651Y-33665D01*
X36671Y-33635D01*
X36671Y-33635D01*
X36693Y-33528D01*
X36693Y-33528D01*
X36693Y-33181D01*
X36693Y-33181D01*
X36681Y-33125D01*
X37928Y-33125D01*
X37978Y-33175D01*
X38122Y-33234D01*
X38277Y-33235D01*
X38420Y-33175D01*
X38530Y-33066D01*
X38589Y-32922D01*
X38590Y-32767D01*
X38530Y-32624D01*
X38421Y-32514D01*
X38277Y-32455D01*
X38122Y-32454D01*
X37979Y-32514D01*
X37928Y-32565D01*
X37590Y-32565D01*
X37590Y-32517D01*
X37530Y-32374D01*
X37486Y-32330D01*
X38700Y-32330D01*
X38654Y-32441D01*
X38654Y-32658D01*
X38737Y-32858D01*
X38890Y-33012D01*
X38981Y-33049D01*
X38891Y-33087D01*
X38737Y-33240D01*
X38654Y-33441D01*
X38654Y-33658D01*
X38737Y-33858D01*
X38890Y-34012D01*
X38981Y-34049D01*
X38891Y-34087D01*
X38737Y-34240D01*
X38654Y-34441D01*
X38654Y-34658D01*
X38737Y-34858D01*
X38882Y-35004D01*
X38854Y-35004D01*
X38762Y-35042D01*
X38692Y-35113D01*
X38654Y-35204D01*
X38654Y-35437D01*
X38717Y-35500D01*
X39150Y-35500D01*
X39150Y-35492D01*
X39250Y-35492D01*
X39250Y-35500D01*
X39257Y-35500D01*
X39257Y-35600D01*
X39250Y-35600D01*
X39250Y-36033D01*
X39312Y-36095D01*
X39325Y-36095D01*
X39325Y-36274D01*
X39325Y-36274D01*
G37*
G54D34*
X39325Y-36274D02*
X39150Y-36274D01*
X39150Y-36033D01*
X39150Y-35600D01*
X38717Y-35600D01*
X38654Y-35662D01*
X38654Y-35895D01*
X38692Y-35986D01*
X38762Y-36057D01*
X38854Y-36095D01*
X38954Y-36095D01*
X39087Y-36095D01*
X39150Y-36033D01*
X39150Y-36274D01*
X38875Y-36274D01*
X38783Y-36312D01*
X38713Y-36383D01*
X38675Y-36475D01*
X38674Y-36574D01*
X38674Y-36574D01*
X38645Y-36503D01*
X38497Y-36355D01*
X38304Y-36275D01*
X38096Y-36274D01*
X37903Y-36354D01*
X37755Y-36502D01*
X37699Y-36635D01*
X37645Y-36503D01*
X37497Y-36355D01*
X37304Y-36275D01*
X37096Y-36274D01*
X36903Y-36354D01*
X36755Y-36502D01*
X36699Y-36635D01*
X36645Y-36503D01*
X36497Y-36355D01*
X36304Y-36275D01*
X36096Y-36274D01*
X35975Y-36324D01*
X35975Y-34259D01*
X35975Y-34259D01*
X35959Y-34183D01*
X35990Y-34177D01*
X35990Y-34177D01*
X36080Y-34116D01*
X36166Y-34031D01*
X36243Y-33999D01*
X36299Y-33943D01*
X36380Y-33927D01*
X36380Y-33927D01*
X36471Y-33866D01*
X36611Y-33726D01*
X36611Y-33726D01*
X36651Y-33665D01*
X36671Y-33635D01*
X36671Y-33635D01*
X36693Y-33528D01*
X36693Y-33528D01*
X36693Y-33181D01*
X36693Y-33181D01*
X36681Y-33125D01*
X37928Y-33125D01*
X37978Y-33175D01*
X38122Y-33234D01*
X38277Y-33235D01*
X38420Y-33175D01*
X38530Y-33066D01*
X38589Y-32922D01*
X38590Y-32767D01*
X38530Y-32624D01*
X38421Y-32514D01*
X38277Y-32455D01*
X38122Y-32454D01*
X37979Y-32514D01*
X37928Y-32565D01*
X37590Y-32565D01*
X37590Y-32517D01*
X37530Y-32374D01*
X37486Y-32330D01*
X38700Y-32330D01*
X38654Y-32441D01*
X38654Y-32658D01*
X38737Y-32858D01*
X38890Y-33012D01*
X38981Y-33049D01*
X38891Y-33087D01*
X38737Y-33240D01*
X38654Y-33441D01*
X38654Y-33658D01*
X38737Y-33858D01*
X38890Y-34012D01*
X38981Y-34049D01*
X38891Y-34087D01*
X38737Y-34240D01*
X38654Y-34441D01*
X38654Y-34658D01*
X38737Y-34858D01*
X38882Y-35004D01*
X38854Y-35004D01*
X38762Y-35042D01*
X38692Y-35113D01*
X38654Y-35204D01*
X38654Y-35437D01*
X38717Y-35500D01*
X39150Y-35500D01*
X39150Y-35492D01*
X39250Y-35492D01*
X39250Y-35500D01*
X39257Y-35500D01*
X39257Y-35600D01*
X39250Y-35600D01*
X39250Y-36033D01*
X39312Y-36095D01*
X39325Y-36095D01*
X39325Y-36274D01*
G54D10*
G36*
X39675Y-31264D02*
X39582Y-31238D01*
X39511Y-31308D01*
X39511Y-31167D01*
X39485Y-31072D01*
X39285Y-31001D01*
X39325Y-30962D01*
X39325Y-30550D01*
X39317Y-30550D01*
X39317Y-30450D01*
X39325Y-30450D01*
X39325Y-30037D01*
X39262Y-29975D01*
X39150Y-29974D01*
X39058Y-30012D01*
X38999Y-30071D01*
X38941Y-30013D01*
X38905Y-29997D01*
X38905Y-29682D01*
X38883Y-29575D01*
X38883Y-29575D01*
X38880Y-29569D01*
X38880Y-29457D01*
X38899Y-29449D01*
X39049Y-29300D01*
X39129Y-29105D01*
X39130Y-28895D01*
X39049Y-28700D01*
X38900Y-28550D01*
X38705Y-28470D01*
X38495Y-28469D01*
X38300Y-28550D01*
X38150Y-28699D01*
X38070Y-28894D01*
X38069Y-29104D01*
X38150Y-29299D01*
X38299Y-29449D01*
X38320Y-29457D01*
X38320Y-29657D01*
X38341Y-29764D01*
X38345Y-29770D01*
X38345Y-29997D01*
X38308Y-30012D01*
X38250Y-30071D01*
X38191Y-30012D01*
X38099Y-29974D01*
X37987Y-29975D01*
X37925Y-30037D01*
X37925Y-30450D01*
X37932Y-30450D01*
X37932Y-30550D01*
X37925Y-30550D01*
X37925Y-30962D01*
X37987Y-31025D01*
X38099Y-31025D01*
X38191Y-30987D01*
X38250Y-30928D01*
X38308Y-30986D01*
X38400Y-31024D01*
X38499Y-31025D01*
X38849Y-31025D01*
X38941Y-30987D01*
X39000Y-30928D01*
X39058Y-30987D01*
X39110Y-31008D01*
X39063Y-31010D01*
X38914Y-31072D01*
X38888Y-31167D01*
X39200Y-31479D01*
X39511Y-31167D01*
X39511Y-31308D01*
X39270Y-31550D01*
X39276Y-31555D01*
X39205Y-31626D01*
X39200Y-31620D01*
X39194Y-31626D01*
X39123Y-31555D01*
X39129Y-31550D01*
X38817Y-31238D01*
X38722Y-31264D01*
X38649Y-31469D01*
X38660Y-31686D01*
X38695Y-31770D01*
X37040Y-31770D01*
X37040Y-31769D01*
X36933Y-31791D01*
X36842Y-31851D01*
X36775Y-31919D01*
X36726Y-31870D01*
X36687Y-31854D01*
X36694Y-31815D01*
X36694Y-30889D01*
X36727Y-30889D01*
X36737Y-30916D01*
X36808Y-30986D01*
X36900Y-31024D01*
X36999Y-31025D01*
X37349Y-31025D01*
X37441Y-30987D01*
X37500Y-30928D01*
X37558Y-30987D01*
X37650Y-31025D01*
X37762Y-31025D01*
X37825Y-30962D01*
X37825Y-30550D01*
X37817Y-30550D01*
X37817Y-30450D01*
X37825Y-30450D01*
X37825Y-30037D01*
X37762Y-29975D01*
X37650Y-29974D01*
X37558Y-30012D01*
X37499Y-30071D01*
X37441Y-30013D01*
X37349Y-29975D01*
X37250Y-29974D01*
X36900Y-29974D01*
X36808Y-30012D01*
X36764Y-30056D01*
X36804Y-29960D01*
X36804Y-29805D01*
X36745Y-29661D01*
X36636Y-29551D01*
X36583Y-29529D01*
X36704Y-29530D01*
X36899Y-29449D01*
X37049Y-29300D01*
X37129Y-29105D01*
X37130Y-28895D01*
X37049Y-28700D01*
X36900Y-28550D01*
X36705Y-28470D01*
X36495Y-28469D01*
X36300Y-28550D01*
X36293Y-28556D01*
X36293Y-28292D01*
X38850Y-28292D01*
X38957Y-28271D01*
X38957Y-28271D01*
X39048Y-28210D01*
X39188Y-28070D01*
X39188Y-28070D01*
X39228Y-28009D01*
X39249Y-27979D01*
X39249Y-27979D01*
X39270Y-27872D01*
X39270Y-27872D01*
X39270Y-24546D01*
X39270Y-24546D01*
X39249Y-24439D01*
X39249Y-24439D01*
X39228Y-24409D01*
X39188Y-24348D01*
X39188Y-24348D01*
X39130Y-24290D01*
X39130Y-22358D01*
X39130Y-21787D01*
X39092Y-21695D01*
X39022Y-21625D01*
X38930Y-21587D01*
X38830Y-21587D01*
X38446Y-21587D01*
X38446Y-20911D01*
X38379Y-20747D01*
X38253Y-20621D01*
X38089Y-20553D01*
X37911Y-20553D01*
X37747Y-20620D01*
X37621Y-20746D01*
X37553Y-20910D01*
X37553Y-21088D01*
X37620Y-21252D01*
X37746Y-21378D01*
X37910Y-21446D01*
X38088Y-21446D01*
X38252Y-21379D01*
X38378Y-21253D01*
X38446Y-21089D01*
X38446Y-20911D01*
X38446Y-21587D01*
X38043Y-21587D01*
X37951Y-21625D01*
X37881Y-21695D01*
X37842Y-21787D01*
X37842Y-21886D01*
X37842Y-22457D01*
X37880Y-22549D01*
X37951Y-22620D01*
X38042Y-22658D01*
X38142Y-22658D01*
X38929Y-22658D01*
X39021Y-22620D01*
X39092Y-22550D01*
X39130Y-22458D01*
X39130Y-22358D01*
X39130Y-24290D01*
X39048Y-24208D01*
X38957Y-24147D01*
X38850Y-24126D01*
X38008Y-24126D01*
X38008Y-24081D01*
X38008Y-23766D01*
X38004Y-23756D01*
X38008Y-23747D01*
X38008Y-23648D01*
X38008Y-23333D01*
X37970Y-23241D01*
X37900Y-23170D01*
X37808Y-23132D01*
X37708Y-23132D01*
X37118Y-23132D01*
X37026Y-23170D01*
X36955Y-23240D01*
X36947Y-23260D01*
X35862Y-23260D01*
X35862Y-22358D01*
X35862Y-21787D01*
X35824Y-21695D01*
X35754Y-21625D01*
X35662Y-21587D01*
X35563Y-21587D01*
X34775Y-21587D01*
X34683Y-21625D01*
X34613Y-21695D01*
X34575Y-21787D01*
X34575Y-21886D01*
X34575Y-22457D01*
X34613Y-22549D01*
X34683Y-22620D01*
X34775Y-22658D01*
X34874Y-22658D01*
X35662Y-22658D01*
X35754Y-22620D01*
X35824Y-22550D01*
X35862Y-22458D01*
X35862Y-22358D01*
X35862Y-23260D01*
X34472Y-23260D01*
X33414Y-22202D01*
X33323Y-22141D01*
X33216Y-22120D01*
X32200Y-22120D01*
X32200Y-22075D01*
X32162Y-21983D01*
X32091Y-21913D01*
X31999Y-21875D01*
X31900Y-21874D01*
X31774Y-21874D01*
X31795Y-21823D01*
X31795Y-21668D01*
X31736Y-21524D01*
X31626Y-21414D01*
X31483Y-21355D01*
X31416Y-21355D01*
X31462Y-21309D01*
X31499Y-21218D01*
X31537Y-21308D01*
X31690Y-21462D01*
X31891Y-21545D01*
X32108Y-21545D01*
X32308Y-21462D01*
X32462Y-21309D01*
X32499Y-21218D01*
X32537Y-21308D01*
X32690Y-21462D01*
X32891Y-21545D01*
X33108Y-21545D01*
X33308Y-21462D01*
X33462Y-21309D01*
X33499Y-21218D01*
X33537Y-21308D01*
X33690Y-21462D01*
X33891Y-21545D01*
X34108Y-21545D01*
X34308Y-21462D01*
X34462Y-21309D01*
X34499Y-21218D01*
X34537Y-21308D01*
X34690Y-21462D01*
X34891Y-21545D01*
X35108Y-21545D01*
X35308Y-21462D01*
X35462Y-21309D01*
X35499Y-21218D01*
X35537Y-21308D01*
X35690Y-21462D01*
X35891Y-21545D01*
X36108Y-21545D01*
X36308Y-21462D01*
X36462Y-21309D01*
X36545Y-21108D01*
X36545Y-20891D01*
X36462Y-20691D01*
X36309Y-20537D01*
X36218Y-20500D01*
X36308Y-20462D01*
X36462Y-20309D01*
X36545Y-20108D01*
X36545Y-19891D01*
X36462Y-19691D01*
X36309Y-19537D01*
X36108Y-19454D01*
X35891Y-19454D01*
X35691Y-19537D01*
X35537Y-19690D01*
X35500Y-19781D01*
X35462Y-19691D01*
X35309Y-19537D01*
X35108Y-19454D01*
X34891Y-19454D01*
X34691Y-19537D01*
X34537Y-19690D01*
X34500Y-19781D01*
X34462Y-19691D01*
X34309Y-19537D01*
X34108Y-19454D01*
X33891Y-19454D01*
X33691Y-19537D01*
X33537Y-19690D01*
X33500Y-19781D01*
X33462Y-19691D01*
X33309Y-19537D01*
X33108Y-19454D01*
X32891Y-19454D01*
X32691Y-19537D01*
X32537Y-19690D01*
X32500Y-19781D01*
X32462Y-19691D01*
X32309Y-19537D01*
X32108Y-19454D01*
X31891Y-19454D01*
X31691Y-19537D01*
X31537Y-19690D01*
X31500Y-19781D01*
X31462Y-19691D01*
X31309Y-19537D01*
X31108Y-19454D01*
X30891Y-19454D01*
X30691Y-19537D01*
X30537Y-19690D01*
X30500Y-19781D01*
X30462Y-19691D01*
X30309Y-19537D01*
X30108Y-19454D01*
X30100Y-19454D01*
X30100Y-19325D01*
X38669Y-19325D01*
X38575Y-19363D01*
X38364Y-19574D01*
X38250Y-19850D01*
X38249Y-20148D01*
X38363Y-20424D01*
X38574Y-20635D01*
X38850Y-20749D01*
X39148Y-20750D01*
X39424Y-20636D01*
X39635Y-20425D01*
X39675Y-20330D01*
X39675Y-30006D01*
X39599Y-29974D01*
X39487Y-29975D01*
X39425Y-30037D01*
X39425Y-30450D01*
X39432Y-30450D01*
X39432Y-30550D01*
X39425Y-30550D01*
X39425Y-30962D01*
X39487Y-31025D01*
X39599Y-31025D01*
X39675Y-30993D01*
X39675Y-31264D01*
X39675Y-31264D01*
G37*
G54D34*
X39675Y-31264D02*
X39582Y-31238D01*
X39511Y-31308D01*
X39511Y-31167D01*
X39485Y-31072D01*
X39285Y-31001D01*
X39325Y-30962D01*
X39325Y-30550D01*
X39317Y-30550D01*
X39317Y-30450D01*
X39325Y-30450D01*
X39325Y-30037D01*
X39262Y-29975D01*
X39150Y-29974D01*
X39058Y-30012D01*
X38999Y-30071D01*
X38941Y-30013D01*
X38905Y-29997D01*
X38905Y-29682D01*
X38883Y-29575D01*
X38883Y-29575D01*
X38880Y-29569D01*
X38880Y-29457D01*
X38899Y-29449D01*
X39049Y-29300D01*
X39129Y-29105D01*
X39130Y-28895D01*
X39049Y-28700D01*
X38900Y-28550D01*
X38705Y-28470D01*
X38495Y-28469D01*
X38300Y-28550D01*
X38150Y-28699D01*
X38070Y-28894D01*
X38069Y-29104D01*
X38150Y-29299D01*
X38299Y-29449D01*
X38320Y-29457D01*
X38320Y-29657D01*
X38341Y-29764D01*
X38345Y-29770D01*
X38345Y-29997D01*
X38308Y-30012D01*
X38250Y-30071D01*
X38191Y-30012D01*
X38099Y-29974D01*
X37987Y-29975D01*
X37925Y-30037D01*
X37925Y-30450D01*
X37932Y-30450D01*
X37932Y-30550D01*
X37925Y-30550D01*
X37925Y-30962D01*
X37987Y-31025D01*
X38099Y-31025D01*
X38191Y-30987D01*
X38250Y-30928D01*
X38308Y-30986D01*
X38400Y-31024D01*
X38499Y-31025D01*
X38849Y-31025D01*
X38941Y-30987D01*
X39000Y-30928D01*
X39058Y-30987D01*
X39110Y-31008D01*
X39063Y-31010D01*
X38914Y-31072D01*
X38888Y-31167D01*
X39200Y-31479D01*
X39511Y-31167D01*
X39511Y-31308D01*
X39270Y-31550D01*
X39276Y-31555D01*
X39205Y-31626D01*
X39200Y-31620D01*
X39194Y-31626D01*
X39123Y-31555D01*
X39129Y-31550D01*
X38817Y-31238D01*
X38722Y-31264D01*
X38649Y-31469D01*
X38660Y-31686D01*
X38695Y-31770D01*
X37040Y-31770D01*
X37040Y-31769D01*
X36933Y-31791D01*
X36842Y-31851D01*
X36775Y-31919D01*
X36726Y-31870D01*
X36687Y-31854D01*
X36694Y-31815D01*
X36694Y-30889D01*
X36727Y-30889D01*
X36737Y-30916D01*
X36808Y-30986D01*
X36900Y-31024D01*
X36999Y-31025D01*
X37349Y-31025D01*
X37441Y-30987D01*
X37500Y-30928D01*
X37558Y-30987D01*
X37650Y-31025D01*
X37762Y-31025D01*
X37825Y-30962D01*
X37825Y-30550D01*
X37817Y-30550D01*
X37817Y-30450D01*
X37825Y-30450D01*
X37825Y-30037D01*
X37762Y-29975D01*
X37650Y-29974D01*
X37558Y-30012D01*
X37499Y-30071D01*
X37441Y-30013D01*
X37349Y-29975D01*
X37250Y-29974D01*
X36900Y-29974D01*
X36808Y-30012D01*
X36764Y-30056D01*
X36804Y-29960D01*
X36804Y-29805D01*
X36745Y-29661D01*
X36636Y-29551D01*
X36583Y-29529D01*
X36704Y-29530D01*
X36899Y-29449D01*
X37049Y-29300D01*
X37129Y-29105D01*
X37130Y-28895D01*
X37049Y-28700D01*
X36900Y-28550D01*
X36705Y-28470D01*
X36495Y-28469D01*
X36300Y-28550D01*
X36293Y-28556D01*
X36293Y-28292D01*
X38850Y-28292D01*
X38957Y-28271D01*
X38957Y-28271D01*
X39048Y-28210D01*
X39188Y-28070D01*
X39188Y-28070D01*
X39228Y-28009D01*
X39249Y-27979D01*
X39249Y-27979D01*
X39270Y-27872D01*
X39270Y-27872D01*
X39270Y-24546D01*
X39270Y-24546D01*
X39249Y-24439D01*
X39249Y-24439D01*
X39228Y-24409D01*
X39188Y-24348D01*
X39188Y-24348D01*
X39130Y-24290D01*
X39130Y-22358D01*
X39130Y-21787D01*
X39092Y-21695D01*
X39022Y-21625D01*
X38930Y-21587D01*
X38830Y-21587D01*
X38446Y-21587D01*
X38446Y-20911D01*
X38379Y-20747D01*
X38253Y-20621D01*
X38089Y-20553D01*
X37911Y-20553D01*
X37747Y-20620D01*
X37621Y-20746D01*
X37553Y-20910D01*
X37553Y-21088D01*
X37620Y-21252D01*
X37746Y-21378D01*
X37910Y-21446D01*
X38088Y-21446D01*
X38252Y-21379D01*
X38378Y-21253D01*
X38446Y-21089D01*
X38446Y-20911D01*
X38446Y-21587D01*
X38043Y-21587D01*
X37951Y-21625D01*
X37881Y-21695D01*
X37842Y-21787D01*
X37842Y-21886D01*
X37842Y-22457D01*
X37880Y-22549D01*
X37951Y-22620D01*
X38042Y-22658D01*
X38142Y-22658D01*
X38929Y-22658D01*
X39021Y-22620D01*
X39092Y-22550D01*
X39130Y-22458D01*
X39130Y-22358D01*
X39130Y-24290D01*
X39048Y-24208D01*
X38957Y-24147D01*
X38850Y-24126D01*
X38008Y-24126D01*
X38008Y-24081D01*
X38008Y-23766D01*
X38004Y-23756D01*
X38008Y-23747D01*
X38008Y-23648D01*
X38008Y-23333D01*
X37970Y-23241D01*
X37900Y-23170D01*
X37808Y-23132D01*
X37708Y-23132D01*
X37118Y-23132D01*
X37026Y-23170D01*
X36955Y-23240D01*
X36947Y-23260D01*
X35862Y-23260D01*
X35862Y-22358D01*
X35862Y-21787D01*
X35824Y-21695D01*
X35754Y-21625D01*
X35662Y-21587D01*
X35563Y-21587D01*
X34775Y-21587D01*
X34683Y-21625D01*
X34613Y-21695D01*
X34575Y-21787D01*
X34575Y-21886D01*
X34575Y-22457D01*
X34613Y-22549D01*
X34683Y-22620D01*
X34775Y-22658D01*
X34874Y-22658D01*
X35662Y-22658D01*
X35754Y-22620D01*
X35824Y-22550D01*
X35862Y-22458D01*
X35862Y-22358D01*
X35862Y-23260D01*
X34472Y-23260D01*
X33414Y-22202D01*
X33323Y-22141D01*
X33216Y-22120D01*
X32200Y-22120D01*
X32200Y-22075D01*
X32162Y-21983D01*
X32091Y-21913D01*
X31999Y-21875D01*
X31900Y-21874D01*
X31774Y-21874D01*
X31795Y-21823D01*
X31795Y-21668D01*
X31736Y-21524D01*
X31626Y-21414D01*
X31483Y-21355D01*
X31416Y-21355D01*
X31462Y-21309D01*
X31499Y-21218D01*
X31537Y-21308D01*
X31690Y-21462D01*
X31891Y-21545D01*
X32108Y-21545D01*
X32308Y-21462D01*
X32462Y-21309D01*
X32499Y-21218D01*
X32537Y-21308D01*
X32690Y-21462D01*
X32891Y-21545D01*
X33108Y-21545D01*
X33308Y-21462D01*
X33462Y-21309D01*
X33499Y-21218D01*
X33537Y-21308D01*
X33690Y-21462D01*
X33891Y-21545D01*
X34108Y-21545D01*
X34308Y-21462D01*
X34462Y-21309D01*
X34499Y-21218D01*
X34537Y-21308D01*
X34690Y-21462D01*
X34891Y-21545D01*
X35108Y-21545D01*
X35308Y-21462D01*
X35462Y-21309D01*
X35499Y-21218D01*
X35537Y-21308D01*
X35690Y-21462D01*
X35891Y-21545D01*
X36108Y-21545D01*
X36308Y-21462D01*
X36462Y-21309D01*
X36545Y-21108D01*
X36545Y-20891D01*
X36462Y-20691D01*
X36309Y-20537D01*
X36218Y-20500D01*
X36308Y-20462D01*
X36462Y-20309D01*
X36545Y-20108D01*
X36545Y-19891D01*
X36462Y-19691D01*
X36309Y-19537D01*
X36108Y-19454D01*
X35891Y-19454D01*
X35691Y-19537D01*
X35537Y-19690D01*
X35500Y-19781D01*
X35462Y-19691D01*
X35309Y-19537D01*
X35108Y-19454D01*
X34891Y-19454D01*
X34691Y-19537D01*
X34537Y-19690D01*
X34500Y-19781D01*
X34462Y-19691D01*
X34309Y-19537D01*
X34108Y-19454D01*
X33891Y-19454D01*
X33691Y-19537D01*
X33537Y-19690D01*
X33500Y-19781D01*
X33462Y-19691D01*
X33309Y-19537D01*
X33108Y-19454D01*
X32891Y-19454D01*
X32691Y-19537D01*
X32537Y-19690D01*
X32500Y-19781D01*
X32462Y-19691D01*
X32309Y-19537D01*
X32108Y-19454D01*
X31891Y-19454D01*
X31691Y-19537D01*
X31537Y-19690D01*
X31500Y-19781D01*
X31462Y-19691D01*
X31309Y-19537D01*
X31108Y-19454D01*
X30891Y-19454D01*
X30691Y-19537D01*
X30537Y-19690D01*
X30500Y-19781D01*
X30462Y-19691D01*
X30309Y-19537D01*
X30108Y-19454D01*
X30100Y-19454D01*
X30100Y-19325D01*
X38669Y-19325D01*
X38575Y-19363D01*
X38364Y-19574D01*
X38250Y-19850D01*
X38249Y-20148D01*
X38363Y-20424D01*
X38574Y-20635D01*
X38850Y-20749D01*
X39148Y-20750D01*
X39424Y-20636D01*
X39635Y-20425D01*
X39675Y-20330D01*
X39675Y-30006D01*
X39599Y-29974D01*
X39487Y-29975D01*
X39425Y-30037D01*
X39425Y-30450D01*
X39432Y-30450D01*
X39432Y-30550D01*
X39425Y-30550D01*
X39425Y-30962D01*
X39487Y-31025D01*
X39599Y-31025D01*
X39675Y-30993D01*
X39675Y-31264D01*
M02*
