G04 (created by PCBNEW (2013-mar-13)-testing) date Tue 30 Jul 2013 04:19:20 PM CEST*
%MOIN*%
G04 Gerber Fmt 3.4, Leading zero omitted, Abs format*
%FSLAX34Y34*%
G01*
G70*
G90*
G04 APERTURE LIST*
%ADD10C,0.005906*%
%ADD11C,0.015000*%
%ADD12C,0.012000*%
%ADD13C,0.078740*%
%ADD14R,0.075100X0.075100*%
%ADD15C,0.075100*%
%ADD16C,0.156000*%
%ADD17R,0.094740X0.073087*%
%ADD18R,0.075055X0.047496*%
%ADD19C,0.116000*%
%ADD20R,0.039600X0.025800*%
%ADD21R,0.025800X0.039600*%
%ADD22R,0.145900X0.145900*%
%ADD23R,0.051000X0.071000*%
%ADD24R,0.071000X0.051000*%
%ADD25R,0.071000X0.071000*%
%ADD26C,0.071000*%
%ADD27C,0.072000*%
%ADD28C,0.048000*%
G04 APERTURE END LIST*
G54D10*
G54D11*
X19000Y-40000D02*
X19000Y-21000D01*
X38000Y-40000D02*
X19000Y-40000D01*
X40000Y-19000D02*
X40000Y-38000D01*
X21000Y-19000D02*
X40000Y-19000D01*
X39000Y-38000D02*
X40000Y-38000D01*
X38000Y-39500D02*
X38000Y-40000D01*
X19500Y-21000D02*
X19000Y-21000D01*
X21000Y-19500D02*
X21000Y-19000D01*
X20000Y-21000D02*
X19500Y-21000D01*
X21000Y-20000D02*
X21000Y-19500D01*
X38000Y-39000D02*
X38000Y-39500D01*
X39000Y-38000D02*
G75*
G03X38000Y-39000I0J-1000D01*
G74*
G01*
X20000Y-21000D02*
G75*
G03X21000Y-20000I0J1000D01*
G74*
G01*
G54D12*
X44077Y-27328D02*
X44077Y-27042D01*
X43696Y-27014D01*
X43734Y-27042D01*
X43772Y-27099D01*
X43772Y-27242D01*
X43734Y-27299D01*
X43696Y-27328D01*
X43619Y-27357D01*
X43429Y-27357D01*
X43353Y-27328D01*
X43315Y-27299D01*
X43277Y-27242D01*
X43277Y-27099D01*
X43315Y-27042D01*
X43353Y-27014D01*
X44077Y-27557D02*
X44077Y-27928D01*
X43772Y-27728D01*
X43772Y-27814D01*
X43734Y-27871D01*
X43696Y-27899D01*
X43619Y-27928D01*
X43429Y-27928D01*
X43353Y-27899D01*
X43315Y-27871D01*
X43277Y-27814D01*
X43277Y-27642D01*
X43315Y-27585D01*
X43353Y-27557D01*
X43315Y-28214D02*
X43277Y-28214D01*
X43200Y-28185D01*
X43162Y-28157D01*
X44077Y-28414D02*
X44077Y-28785D01*
X43772Y-28585D01*
X43772Y-28671D01*
X43734Y-28728D01*
X43696Y-28757D01*
X43619Y-28785D01*
X43429Y-28785D01*
X43353Y-28757D01*
X43315Y-28728D01*
X43277Y-28671D01*
X43277Y-28500D01*
X43315Y-28442D01*
X43353Y-28414D01*
X43810Y-29300D02*
X43277Y-29300D01*
X44115Y-29157D02*
X43543Y-29014D01*
X43543Y-29385D01*
X44077Y-29728D02*
X44077Y-29785D01*
X44039Y-29842D01*
X44000Y-29871D01*
X43924Y-29900D01*
X43772Y-29928D01*
X43581Y-29928D01*
X43429Y-29900D01*
X43353Y-29871D01*
X43315Y-29842D01*
X43277Y-29785D01*
X43277Y-29728D01*
X43315Y-29671D01*
X43353Y-29642D01*
X43429Y-29614D01*
X43581Y-29585D01*
X43772Y-29585D01*
X43924Y-29614D01*
X44000Y-29642D01*
X44039Y-29671D01*
X44077Y-29728D01*
X43277Y-30642D02*
X43810Y-30642D01*
X43734Y-30642D02*
X43772Y-30671D01*
X43810Y-30728D01*
X43810Y-30814D01*
X43772Y-30871D01*
X43696Y-30900D01*
X43277Y-30900D01*
X43696Y-30900D02*
X43772Y-30928D01*
X43810Y-30985D01*
X43810Y-31071D01*
X43772Y-31128D01*
X43696Y-31157D01*
X43277Y-31157D01*
X43277Y-31442D02*
X43810Y-31442D01*
X43734Y-31442D02*
X43772Y-31471D01*
X43810Y-31528D01*
X43810Y-31614D01*
X43772Y-31671D01*
X43696Y-31700D01*
X43277Y-31700D01*
X43696Y-31700D02*
X43772Y-31728D01*
X43810Y-31785D01*
X43810Y-31871D01*
X43772Y-31928D01*
X43696Y-31957D01*
X43277Y-31957D01*
X42999Y-19000D02*
X42999Y-40000D01*
X40000Y-19000D02*
X44279Y-19000D01*
X40000Y-40000D02*
X44279Y-40000D01*
X42999Y-40000D02*
X42769Y-39557D01*
X42999Y-40000D02*
X43229Y-39557D01*
X42999Y-19000D02*
X42769Y-19443D01*
X42999Y-19000D02*
X43229Y-19443D01*
X27328Y-43200D02*
X27042Y-43200D01*
X27014Y-43581D01*
X27042Y-43543D01*
X27099Y-43505D01*
X27242Y-43505D01*
X27299Y-43543D01*
X27328Y-43581D01*
X27357Y-43658D01*
X27357Y-43848D01*
X27328Y-43924D01*
X27299Y-43962D01*
X27242Y-44000D01*
X27099Y-44000D01*
X27042Y-43962D01*
X27014Y-43924D01*
X27557Y-43200D02*
X27928Y-43200D01*
X27728Y-43505D01*
X27814Y-43505D01*
X27871Y-43543D01*
X27899Y-43581D01*
X27928Y-43658D01*
X27928Y-43848D01*
X27899Y-43924D01*
X27871Y-43962D01*
X27814Y-44000D01*
X27642Y-44000D01*
X27585Y-43962D01*
X27557Y-43924D01*
X28214Y-43962D02*
X28214Y-44000D01*
X28185Y-44077D01*
X28157Y-44115D01*
X28414Y-43200D02*
X28785Y-43200D01*
X28585Y-43505D01*
X28671Y-43505D01*
X28728Y-43543D01*
X28757Y-43581D01*
X28785Y-43658D01*
X28785Y-43848D01*
X28757Y-43924D01*
X28728Y-43962D01*
X28671Y-44000D01*
X28500Y-44000D01*
X28442Y-43962D01*
X28414Y-43924D01*
X29300Y-43467D02*
X29300Y-44000D01*
X29157Y-43162D02*
X29014Y-43734D01*
X29385Y-43734D01*
X29728Y-43200D02*
X29785Y-43200D01*
X29842Y-43239D01*
X29871Y-43277D01*
X29900Y-43353D01*
X29928Y-43505D01*
X29928Y-43696D01*
X29900Y-43848D01*
X29871Y-43924D01*
X29842Y-43962D01*
X29785Y-44000D01*
X29728Y-44000D01*
X29671Y-43962D01*
X29642Y-43924D01*
X29614Y-43848D01*
X29585Y-43696D01*
X29585Y-43505D01*
X29614Y-43353D01*
X29642Y-43277D01*
X29671Y-43239D01*
X29728Y-43200D01*
X30642Y-44000D02*
X30642Y-43467D01*
X30642Y-43543D02*
X30671Y-43505D01*
X30728Y-43467D01*
X30814Y-43467D01*
X30871Y-43505D01*
X30900Y-43581D01*
X30900Y-44000D01*
X30900Y-43581D02*
X30928Y-43505D01*
X30985Y-43467D01*
X31071Y-43467D01*
X31128Y-43505D01*
X31157Y-43581D01*
X31157Y-44000D01*
X31442Y-44000D02*
X31442Y-43467D01*
X31442Y-43543D02*
X31471Y-43505D01*
X31528Y-43467D01*
X31614Y-43467D01*
X31671Y-43505D01*
X31700Y-43581D01*
X31700Y-44000D01*
X31700Y-43581D02*
X31728Y-43505D01*
X31785Y-43467D01*
X31871Y-43467D01*
X31928Y-43505D01*
X31957Y-43581D01*
X31957Y-44000D01*
X19000Y-42999D02*
X40000Y-42999D01*
X19000Y-40000D02*
X19000Y-44279D01*
X40000Y-40000D02*
X40000Y-44279D01*
X40000Y-42999D02*
X39557Y-43229D01*
X40000Y-42999D02*
X39557Y-42769D01*
X19000Y-42999D02*
X19443Y-43229D01*
X19000Y-42999D02*
X19443Y-42769D01*
G54D13*
X38000Y-21000D03*
X21000Y-38000D03*
G54D14*
X23000Y-20000D03*
G54D15*
X24000Y-20000D03*
X25000Y-20000D03*
X26000Y-20000D03*
X27000Y-20000D03*
X28000Y-20000D03*
X29000Y-20000D03*
X30000Y-20000D03*
X31000Y-20000D03*
X32000Y-20000D03*
X33000Y-20000D03*
X34000Y-20000D03*
X35000Y-20000D03*
X36000Y-20000D03*
G54D14*
X36000Y-39000D03*
G54D15*
X35000Y-39000D03*
X34000Y-39000D03*
X33000Y-39000D03*
X32000Y-39000D03*
X31000Y-39000D03*
X30000Y-39000D03*
X29000Y-39000D03*
X28000Y-39000D03*
X27000Y-39000D03*
X26000Y-39000D03*
X25000Y-39000D03*
X24000Y-39000D03*
X23000Y-39000D03*
G54D14*
X36000Y-38000D03*
G54D15*
X35000Y-38000D03*
X34000Y-38000D03*
X33000Y-38000D03*
X32000Y-38000D03*
X31000Y-38000D03*
X30000Y-38000D03*
X29000Y-38000D03*
X28000Y-38000D03*
X27000Y-38000D03*
X26000Y-38000D03*
X25000Y-38000D03*
X24000Y-38000D03*
X23000Y-38000D03*
G54D14*
X23000Y-21000D03*
G54D15*
X24000Y-21000D03*
X25000Y-21000D03*
X26000Y-21000D03*
X27000Y-21000D03*
X28000Y-21000D03*
X29000Y-21000D03*
X30000Y-21000D03*
X31000Y-21000D03*
X32000Y-21000D03*
X33000Y-21000D03*
X34000Y-21000D03*
X35000Y-21000D03*
X36000Y-21000D03*
G54D16*
X20000Y-39000D03*
G54D17*
X35218Y-27477D03*
X35218Y-22122D03*
X38486Y-22122D03*
X38486Y-27477D03*
G54D18*
X37462Y-23540D03*
X37462Y-23973D03*
X37462Y-24406D03*
X37462Y-24839D03*
X37462Y-25272D03*
X37462Y-25705D03*
X37462Y-26138D03*
X37462Y-26571D03*
G54D19*
X39000Y-20000D03*
G54D20*
X34056Y-31862D03*
X34056Y-32059D03*
X34056Y-32256D03*
X34056Y-32453D03*
X34056Y-32649D03*
X34056Y-32846D03*
X34056Y-33043D03*
X34056Y-33240D03*
G54D21*
X35098Y-33496D03*
X35294Y-33496D03*
X35491Y-33496D03*
X35688Y-33496D03*
G54D22*
X35000Y-32550D03*
G54D21*
X34311Y-33496D03*
X34508Y-33496D03*
X34705Y-33496D03*
X34901Y-33496D03*
G54D20*
X35944Y-33238D03*
X35945Y-33041D03*
X35945Y-32845D03*
X35945Y-32648D03*
X35945Y-32451D03*
X35945Y-32254D03*
X35945Y-32057D03*
X35945Y-31860D03*
G54D21*
X35689Y-31605D03*
X35492Y-31605D03*
X35295Y-31605D03*
X35099Y-31605D03*
X34902Y-31605D03*
X34705Y-31605D03*
X34508Y-31605D03*
X34311Y-31605D03*
G54D23*
X20825Y-33450D03*
X20075Y-33450D03*
X26275Y-34150D03*
X27025Y-34150D03*
G54D24*
X25050Y-35025D03*
X25050Y-35775D03*
X28750Y-36175D03*
X28750Y-36925D03*
G54D23*
X23675Y-35950D03*
X22925Y-35950D03*
X23675Y-36850D03*
X22925Y-36850D03*
X22925Y-35050D03*
X23675Y-35050D03*
X20825Y-35000D03*
X20075Y-35000D03*
G54D24*
X21900Y-34275D03*
X21900Y-35025D03*
X28300Y-33425D03*
X28300Y-32675D03*
X21900Y-32675D03*
X21900Y-33425D03*
G54D23*
X31025Y-27200D03*
X31775Y-27200D03*
G54D24*
X32050Y-36175D03*
X32050Y-36925D03*
X31250Y-36175D03*
X31250Y-36925D03*
G54D23*
X31025Y-22400D03*
X31775Y-22400D03*
X31025Y-23500D03*
X31775Y-23500D03*
X31025Y-24650D03*
X31775Y-24650D03*
X31025Y-26000D03*
X31775Y-26000D03*
G54D24*
X30650Y-30125D03*
X30650Y-29375D03*
G54D23*
X38625Y-30500D03*
X39375Y-30500D03*
X37125Y-30500D03*
X37875Y-30500D03*
X32475Y-28350D03*
X33225Y-28350D03*
X34125Y-29150D03*
X34875Y-29150D03*
X34125Y-28350D03*
X34875Y-28350D03*
G54D24*
X32350Y-30125D03*
X32350Y-29375D03*
X33150Y-30125D03*
X33150Y-29375D03*
X31450Y-30125D03*
X31450Y-29375D03*
G54D23*
X31375Y-31150D03*
X30625Y-31150D03*
X31375Y-31950D03*
X30625Y-31950D03*
G54D24*
X32100Y-33675D03*
X32100Y-32925D03*
X31300Y-33675D03*
X31300Y-32925D03*
G54D23*
X29475Y-35000D03*
X30225Y-35000D03*
X26275Y-35000D03*
X27025Y-35000D03*
G54D24*
X28300Y-34975D03*
X28300Y-34225D03*
G54D23*
X27025Y-32900D03*
X26275Y-32900D03*
G54D25*
X39200Y-36800D03*
G54D26*
X38200Y-36800D03*
X37200Y-36800D03*
X36200Y-36800D03*
X35200Y-36800D03*
X34200Y-36800D03*
X33200Y-36800D03*
G54D14*
X39200Y-35550D03*
G54D15*
X39200Y-34550D03*
X39200Y-33550D03*
X39200Y-32550D03*
X39200Y-31550D03*
G54D27*
X36600Y-29000D03*
X38600Y-29000D03*
G54D23*
X23725Y-32700D03*
X22975Y-32700D03*
X24675Y-32700D03*
X25425Y-32700D03*
G54D28*
X23800Y-29550D03*
X23800Y-31550D03*
M02*
