M48
;DRILL file {Pcbnew (2013-mar-13)-testing} date Tue 14 May 2013 04:12:45 PM CEST
;FORMAT={-:-/ absolute / inch / decimal}
FMAT,2
INCH,TZ
T1C0.016
T2C0.030
T3C0.032
T4C0.039
T5C0.100
%
G90
G05
M72
T1
X2.0075Y-3.6956
X2.14Y-3.62
X2.165Y-3.89
X2.35Y-3.39
X2.38Y-2.955
X2.38Y-3.155
X2.475Y-3.68
X2.48Y-3.39
X2.745Y-3.695
X3.Y-3.655
X3.063Y-2.465
X3.063Y-2.6
X3.063Y-2.72
X3.1406Y-2.1745
X3.2055Y-2.3973
X3.3578Y-3.1784
X3.3618Y-2.7955
X3.4125Y-3.1259
X3.4508Y-3.0132
X3.4508Y-3.5925
X3.4955Y-3.1267
X3.4955Y-3.4952
X3.5Y-3.255
X3.5295Y-3.0765
X3.5374Y-2.847
X3.5695Y-3.68
X3.5827Y-2.6139
X3.6023Y-3.3669
X3.6025Y-3.1185
X3.6075Y-3.6066
X3.6415Y-2.9882
X3.6506Y-3.2201
X3.6565Y-2.5706
X3.673Y-3.05
X3.72Y-3.2595
X3.74Y-2.
X3.77Y-3.4
X3.77Y-3.58
X3.82Y-3.2845
X3.92Y-3.1015
X3.9375Y-2.5706
T2
X3.66Y-2.9
X3.86Y-2.9
T3
X3.32Y-3.68
X3.42Y-3.68
X3.52Y-3.68
X3.62Y-3.68
X3.72Y-3.68
X3.82Y-3.68
X3.92Y-3.68
T4
X2.3Y-2.
X2.3Y-2.1
X2.3Y-3.8
X2.3Y-3.9
X2.4Y-2.
X2.4Y-2.1
X2.4Y-3.8
X2.4Y-3.9
X2.5Y-2.
X2.5Y-2.1
X2.5Y-3.8
X2.5Y-3.9
X2.6Y-2.
X2.6Y-2.1
X2.6Y-3.8
X2.6Y-3.9
X2.7Y-2.
X2.7Y-2.1
X2.7Y-3.8
X2.7Y-3.9
X2.8Y-2.
X2.8Y-2.1
X2.8Y-3.8
X2.8Y-3.9
X2.9Y-2.
X2.9Y-2.1
X2.9Y-3.8
X2.9Y-3.9
X3.Y-2.
X3.Y-2.1
X3.Y-3.8
X3.Y-3.9
X3.1Y-2.
X3.1Y-2.1
X3.1Y-3.8
X3.1Y-3.9
X3.2Y-2.
X3.2Y-2.1
X3.2Y-3.8
X3.2Y-3.9
X3.3Y-2.
X3.3Y-2.1
X3.3Y-3.8
X3.3Y-3.9
X3.4Y-2.
X3.4Y-2.1
X3.4Y-3.8
X3.4Y-3.9
X3.5Y-2.
X3.5Y-2.1
X3.5Y-3.8
X3.5Y-3.9
X3.6Y-2.
X3.6Y-2.1
X3.6Y-3.8
X3.6Y-3.9
X3.92Y-3.155
X3.92Y-3.255
X3.92Y-3.355
X3.92Y-3.455
X3.92Y-3.555
T5
X2.Y-3.9
X3.9Y-2.
T0
M30
