G04 (created by PCBNEW (2013-mar-13)-testing) date Fri 28 Jun 2013 12:11:23 PM CEST*
%MOIN*%
G04 Gerber Fmt 3.4, Leading zero omitted, Abs format*
%FSLAX34Y34*%
G01*
G70*
G90*
G04 APERTURE LIST*
%ADD10C,0.005906*%
%ADD11C,0.015000*%
%ADD12C,0.012000*%
%ADD13C,0.140000*%
%ADD14R,0.060000X0.060000*%
%ADD15C,0.060000*%
%ADD16C,0.039370*%
%ADD17R,0.011800X0.047244*%
%ADD18R,0.015700X0.053100*%
%ADD19R,0.070900X0.074800*%
%ADD20R,0.074800X0.074800*%
%ADD21C,0.059100*%
%ADD22C,0.078700*%
%ADD23R,0.059100X0.059100*%
%ADD24R,0.035000X0.055000*%
%ADD25R,0.016000X0.070900*%
%ADD26C,0.028000*%
%ADD27C,0.008000*%
%ADD28C,0.010000*%
G04 APERTURE END LIST*
G54D10*
G54D11*
X32500Y-49500D02*
X32500Y-28500D01*
X11500Y-49500D02*
X32500Y-49500D01*
X11500Y-28500D02*
X11500Y-49500D01*
X32500Y-28500D02*
X11500Y-28500D01*
G54D12*
X19828Y-53700D02*
X19542Y-53700D01*
X19514Y-54081D01*
X19542Y-54043D01*
X19599Y-54005D01*
X19742Y-54005D01*
X19799Y-54043D01*
X19828Y-54081D01*
X19857Y-54158D01*
X19857Y-54348D01*
X19828Y-54424D01*
X19799Y-54462D01*
X19742Y-54500D01*
X19599Y-54500D01*
X19542Y-54462D01*
X19514Y-54424D01*
X20057Y-53700D02*
X20428Y-53700D01*
X20228Y-54005D01*
X20314Y-54005D01*
X20371Y-54043D01*
X20399Y-54081D01*
X20428Y-54158D01*
X20428Y-54348D01*
X20399Y-54424D01*
X20371Y-54462D01*
X20314Y-54500D01*
X20142Y-54500D01*
X20085Y-54462D01*
X20057Y-54424D01*
X20714Y-54462D02*
X20714Y-54500D01*
X20685Y-54577D01*
X20657Y-54615D01*
X20914Y-53700D02*
X21285Y-53700D01*
X21085Y-54005D01*
X21171Y-54005D01*
X21228Y-54043D01*
X21257Y-54081D01*
X21285Y-54158D01*
X21285Y-54348D01*
X21257Y-54424D01*
X21228Y-54462D01*
X21171Y-54500D01*
X21000Y-54500D01*
X20942Y-54462D01*
X20914Y-54424D01*
X21800Y-53967D02*
X21800Y-54500D01*
X21657Y-53662D02*
X21514Y-54234D01*
X21885Y-54234D01*
X22228Y-53700D02*
X22285Y-53700D01*
X22342Y-53739D01*
X22371Y-53777D01*
X22400Y-53853D01*
X22428Y-54005D01*
X22428Y-54196D01*
X22400Y-54348D01*
X22371Y-54424D01*
X22342Y-54462D01*
X22285Y-54500D01*
X22228Y-54500D01*
X22171Y-54462D01*
X22142Y-54424D01*
X22114Y-54348D01*
X22085Y-54196D01*
X22085Y-54005D01*
X22114Y-53853D01*
X22142Y-53777D01*
X22171Y-53739D01*
X22228Y-53700D01*
X23142Y-54500D02*
X23142Y-53967D01*
X23142Y-54043D02*
X23171Y-54005D01*
X23228Y-53967D01*
X23314Y-53967D01*
X23371Y-54005D01*
X23400Y-54081D01*
X23400Y-54500D01*
X23400Y-54081D02*
X23428Y-54005D01*
X23485Y-53967D01*
X23571Y-53967D01*
X23628Y-54005D01*
X23657Y-54081D01*
X23657Y-54500D01*
X23942Y-54500D02*
X23942Y-53967D01*
X23942Y-54043D02*
X23971Y-54005D01*
X24028Y-53967D01*
X24114Y-53967D01*
X24171Y-54005D01*
X24200Y-54081D01*
X24200Y-54500D01*
X24200Y-54081D02*
X24228Y-54005D01*
X24285Y-53967D01*
X24371Y-53967D01*
X24428Y-54005D01*
X24457Y-54081D01*
X24457Y-54500D01*
X11500Y-53499D02*
X32500Y-53499D01*
X11500Y-49500D02*
X11500Y-54779D01*
X32500Y-49500D02*
X32500Y-54779D01*
X32500Y-53499D02*
X32057Y-53729D01*
X32500Y-53499D02*
X32057Y-53269D01*
X11500Y-53499D02*
X11943Y-53729D01*
X11500Y-53499D02*
X11943Y-53269D01*
X38201Y-41171D02*
X38201Y-41457D01*
X38582Y-41485D01*
X38544Y-41457D01*
X38506Y-41400D01*
X38506Y-41257D01*
X38544Y-41200D01*
X38582Y-41171D01*
X38659Y-41142D01*
X38849Y-41142D01*
X38925Y-41171D01*
X38963Y-41200D01*
X39001Y-41257D01*
X39001Y-41400D01*
X38963Y-41457D01*
X38925Y-41485D01*
X38201Y-40942D02*
X38201Y-40571D01*
X38506Y-40771D01*
X38506Y-40685D01*
X38544Y-40628D01*
X38582Y-40600D01*
X38659Y-40571D01*
X38849Y-40571D01*
X38925Y-40600D01*
X38963Y-40628D01*
X39001Y-40685D01*
X39001Y-40857D01*
X38963Y-40914D01*
X38925Y-40942D01*
X38963Y-40285D02*
X39001Y-40285D01*
X39078Y-40314D01*
X39116Y-40342D01*
X38201Y-40085D02*
X38201Y-39714D01*
X38506Y-39914D01*
X38506Y-39828D01*
X38544Y-39771D01*
X38582Y-39742D01*
X38659Y-39714D01*
X38849Y-39714D01*
X38925Y-39742D01*
X38963Y-39771D01*
X39001Y-39828D01*
X39001Y-40000D01*
X38963Y-40057D01*
X38925Y-40085D01*
X38468Y-39200D02*
X39001Y-39200D01*
X38163Y-39342D02*
X38735Y-39485D01*
X38735Y-39114D01*
X38201Y-38771D02*
X38201Y-38714D01*
X38240Y-38657D01*
X38278Y-38628D01*
X38354Y-38600D01*
X38506Y-38571D01*
X38697Y-38571D01*
X38849Y-38600D01*
X38925Y-38628D01*
X38963Y-38657D01*
X39001Y-38714D01*
X39001Y-38771D01*
X38963Y-38828D01*
X38925Y-38857D01*
X38849Y-38885D01*
X38697Y-38914D01*
X38506Y-38914D01*
X38354Y-38885D01*
X38278Y-38857D01*
X38240Y-38828D01*
X38201Y-38771D01*
X39001Y-37857D02*
X38468Y-37857D01*
X38544Y-37857D02*
X38506Y-37828D01*
X38468Y-37771D01*
X38468Y-37685D01*
X38506Y-37628D01*
X38582Y-37599D01*
X39001Y-37599D01*
X38582Y-37599D02*
X38506Y-37571D01*
X38468Y-37514D01*
X38468Y-37428D01*
X38506Y-37371D01*
X38582Y-37342D01*
X39001Y-37342D01*
X39001Y-37057D02*
X38468Y-37057D01*
X38544Y-37057D02*
X38506Y-37028D01*
X38468Y-36971D01*
X38468Y-36885D01*
X38506Y-36828D01*
X38582Y-36799D01*
X39001Y-36799D01*
X38582Y-36799D02*
X38506Y-36771D01*
X38468Y-36714D01*
X38468Y-36628D01*
X38506Y-36571D01*
X38582Y-36542D01*
X39001Y-36542D01*
X38000Y-49500D02*
X38000Y-28500D01*
X32500Y-49500D02*
X39280Y-49500D01*
X32500Y-28500D02*
X39280Y-28500D01*
X38000Y-28500D02*
X38230Y-28943D01*
X38000Y-28500D02*
X37770Y-28943D01*
X38000Y-49500D02*
X38230Y-49057D01*
X38000Y-49500D02*
X37770Y-49057D01*
G54D13*
X12500Y-48500D03*
G54D14*
X26358Y-45221D03*
G54D15*
X26358Y-46221D03*
G54D14*
X23996Y-45221D03*
G54D15*
X23996Y-46221D03*
G54D13*
X31500Y-48500D03*
G54D16*
X30500Y-30500D03*
X13500Y-47500D03*
G54D17*
X19122Y-39760D03*
X18866Y-39760D03*
X18354Y-39760D03*
X18610Y-39760D03*
X17843Y-39760D03*
X18098Y-39760D03*
X19634Y-39760D03*
X19378Y-39760D03*
X20146Y-39760D03*
X19890Y-39760D03*
X20402Y-39760D03*
X20657Y-39760D03*
X20657Y-42239D03*
X20402Y-42239D03*
X19890Y-42239D03*
X20146Y-42239D03*
X19378Y-42239D03*
X19634Y-42239D03*
X18098Y-42239D03*
X17843Y-42239D03*
X18610Y-42239D03*
X18354Y-42239D03*
X18866Y-42239D03*
X19122Y-42239D03*
G54D18*
X13088Y-30123D03*
X13344Y-30123D03*
X13600Y-30123D03*
X13856Y-30123D03*
X14112Y-30123D03*
G54D19*
X12025Y-29070D03*
G54D20*
X13128Y-29070D03*
X14072Y-29070D03*
G54D19*
X15175Y-29070D03*
G54D21*
X31096Y-29500D03*
X29404Y-29500D03*
G54D22*
X31628Y-30484D03*
X28872Y-30484D03*
G54D21*
X13500Y-32500D03*
X13500Y-33500D03*
X13500Y-34500D03*
X13500Y-35500D03*
X13500Y-36500D03*
X13500Y-37500D03*
X13500Y-38500D03*
X13500Y-39500D03*
X13500Y-40500D03*
X13500Y-41500D03*
X13500Y-42500D03*
X13500Y-43500D03*
X13500Y-44500D03*
G54D23*
X13500Y-45500D03*
X12500Y-45500D03*
G54D21*
X12500Y-44500D03*
X12500Y-43500D03*
X12500Y-42500D03*
X12500Y-41500D03*
X12500Y-40500D03*
X12500Y-39500D03*
X12500Y-38500D03*
X12500Y-37500D03*
X12500Y-36500D03*
X12500Y-35500D03*
X12500Y-34500D03*
X12500Y-33500D03*
X12500Y-32500D03*
X15500Y-47500D03*
X16500Y-47500D03*
X17500Y-47500D03*
X18500Y-47500D03*
X19500Y-47500D03*
X20500Y-47500D03*
X21500Y-47500D03*
X22500Y-47500D03*
X23500Y-47500D03*
X24500Y-47500D03*
X25500Y-47500D03*
X26500Y-47500D03*
X27500Y-47500D03*
G54D23*
X28500Y-47500D03*
X28500Y-48500D03*
G54D21*
X27500Y-48500D03*
X26500Y-48500D03*
X25500Y-48500D03*
X24500Y-48500D03*
X23500Y-48500D03*
X22500Y-48500D03*
X21500Y-48500D03*
X20500Y-48500D03*
X19500Y-48500D03*
X18500Y-48500D03*
X17500Y-48500D03*
X16500Y-48500D03*
X15500Y-48500D03*
X30500Y-45500D03*
X30500Y-44500D03*
X30500Y-43500D03*
X30500Y-42500D03*
X30500Y-41500D03*
X30500Y-40500D03*
X30500Y-39500D03*
X30500Y-38500D03*
X30500Y-37500D03*
X30500Y-36500D03*
X30500Y-35500D03*
X30500Y-34500D03*
X30500Y-33500D03*
G54D23*
X30500Y-32500D03*
X31500Y-32500D03*
G54D21*
X31500Y-33500D03*
X31500Y-34500D03*
X31500Y-35500D03*
X31500Y-36500D03*
X31500Y-37500D03*
X31500Y-38500D03*
X31500Y-39500D03*
X31500Y-40500D03*
X31500Y-41500D03*
X31500Y-42500D03*
X31500Y-43500D03*
X31500Y-44500D03*
X31500Y-45500D03*
G54D24*
X15808Y-36469D03*
X15058Y-36469D03*
X15906Y-38831D03*
X15156Y-38831D03*
X15808Y-35189D03*
X15058Y-35189D03*
X15906Y-40209D03*
X15156Y-40209D03*
X25257Y-36075D03*
X24507Y-36075D03*
X25257Y-34992D03*
X24507Y-34992D03*
G54D14*
X25000Y-29250D03*
G54D15*
X25000Y-30250D03*
X24000Y-29250D03*
X24000Y-30250D03*
X23000Y-29250D03*
X23000Y-30250D03*
X22000Y-29250D03*
X22000Y-30250D03*
X21000Y-29250D03*
X21000Y-30250D03*
X20000Y-29250D03*
X20000Y-30250D03*
X19000Y-29250D03*
X19000Y-30250D03*
G54D24*
X22637Y-36075D03*
X23387Y-36075D03*
X22637Y-34992D03*
X23387Y-34992D03*
X15906Y-41783D03*
X15156Y-41783D03*
X15906Y-42965D03*
X15156Y-42965D03*
X16284Y-33421D03*
X15534Y-33421D03*
G54D25*
X17326Y-37180D03*
X17576Y-37180D03*
X17836Y-37180D03*
X18096Y-37180D03*
X18346Y-37180D03*
X18606Y-37180D03*
X18866Y-37180D03*
X19116Y-37180D03*
X19376Y-37180D03*
X19626Y-37180D03*
X19886Y-37180D03*
X20146Y-37180D03*
X20396Y-37180D03*
X20656Y-37180D03*
X20656Y-34380D03*
X20396Y-34380D03*
X20156Y-34380D03*
X19886Y-34380D03*
X19626Y-34380D03*
X19376Y-34380D03*
X19116Y-34380D03*
X18866Y-34380D03*
X18606Y-34380D03*
X18346Y-34380D03*
X18096Y-34380D03*
X17836Y-34380D03*
X17576Y-34380D03*
X17326Y-34380D03*
G54D26*
X18614Y-42695D03*
X16686Y-36468D03*
X15807Y-35684D03*
X17021Y-41783D03*
X17021Y-42964D03*
X16686Y-33545D03*
X16250Y-29200D03*
X17700Y-29200D03*
X17700Y-30250D03*
X15550Y-30250D03*
X16800Y-31800D03*
X17750Y-32750D03*
X14350Y-33200D03*
X14350Y-37000D03*
X14350Y-40700D03*
X19900Y-38800D03*
X20900Y-38800D03*
X22900Y-32800D03*
X23900Y-32800D03*
X25350Y-33550D03*
X25350Y-31750D03*
X25200Y-39850D03*
X25100Y-44450D03*
X22900Y-39650D03*
X21450Y-43950D03*
X15350Y-44700D03*
X16300Y-43750D03*
X18865Y-37754D03*
X14662Y-36468D03*
X14760Y-40209D03*
X14662Y-35188D03*
X19885Y-33805D03*
X18865Y-39304D03*
X27500Y-42984D03*
X20420Y-31410D03*
X19377Y-42956D03*
X23628Y-45800D03*
X15155Y-41288D03*
X17835Y-38080D03*
X18354Y-39043D03*
X16731Y-39304D03*
X17842Y-39304D03*
X20100Y-46640D03*
X25915Y-38114D03*
X19375Y-33805D03*
X20956Y-34597D03*
X19160Y-30889D03*
X19375Y-36073D03*
G54D27*
X12915Y-45500D02*
X12500Y-45500D01*
X12915Y-45500D02*
X12915Y-45500D01*
X13500Y-45500D02*
X12915Y-45500D01*
X13500Y-45500D02*
X13500Y-45500D01*
X26357Y-46220D02*
X23995Y-46220D01*
X27220Y-46220D02*
X28500Y-47500D01*
X26357Y-46220D02*
X27220Y-46220D01*
X14220Y-46220D02*
X13500Y-45500D01*
X23995Y-46220D02*
X14220Y-46220D01*
X12500Y-43500D02*
X13500Y-43500D01*
X12500Y-42500D02*
X13500Y-42500D01*
X12500Y-41500D02*
X13500Y-41500D01*
X12500Y-40500D02*
X13500Y-40500D01*
X12500Y-39500D02*
X13500Y-39500D01*
X30500Y-34500D02*
X31500Y-34500D01*
X30500Y-35500D02*
X31500Y-35500D01*
X19122Y-42695D02*
X19122Y-42239D01*
X18614Y-42695D02*
X19122Y-42695D01*
X12500Y-38500D02*
X13500Y-38500D01*
X20655Y-32044D02*
X20655Y-34379D01*
X20495Y-31883D02*
X20655Y-32044D01*
X19580Y-31883D02*
X20495Y-31883D01*
X19420Y-31723D02*
X19580Y-31883D01*
X19420Y-29897D02*
X19420Y-31723D01*
X19260Y-29737D02*
X19420Y-29897D01*
X13600Y-29737D02*
X19260Y-29737D01*
X13600Y-30123D02*
X13600Y-29737D01*
X20395Y-32417D02*
X20395Y-34379D01*
X20235Y-32257D02*
X20395Y-32417D01*
X18240Y-32257D02*
X20235Y-32257D01*
X17228Y-31246D02*
X18240Y-32257D01*
X14016Y-31246D02*
X17228Y-31246D01*
X13855Y-31086D02*
X14016Y-31246D01*
X13855Y-30123D02*
X13855Y-31086D01*
X30500Y-43500D02*
X31500Y-43500D01*
X30500Y-44500D02*
X31500Y-44500D01*
X17842Y-40116D02*
X17842Y-39760D01*
X16661Y-42964D02*
X15905Y-42964D01*
X16661Y-41783D02*
X15905Y-41783D01*
X15807Y-35684D02*
X15807Y-35188D01*
X16686Y-36468D02*
X15807Y-36468D01*
X18354Y-42804D02*
X18354Y-42239D01*
X17842Y-40961D02*
X17021Y-41783D01*
X17842Y-40116D02*
X17842Y-40961D01*
X18193Y-42964D02*
X17021Y-42964D01*
X18354Y-42804D02*
X18193Y-42964D01*
X16661Y-42964D02*
X17021Y-42964D01*
X17021Y-39509D02*
X17021Y-41783D01*
X18096Y-38434D02*
X17021Y-39509D01*
X18096Y-37179D02*
X18096Y-38434D01*
X18095Y-37179D02*
X18096Y-37179D01*
X17935Y-36468D02*
X16686Y-36468D01*
X18095Y-36628D02*
X17935Y-36468D01*
X18095Y-37179D02*
X18095Y-36628D01*
X20155Y-33705D02*
X20155Y-34379D01*
X19995Y-33545D02*
X20155Y-33705D01*
X16686Y-33545D02*
X19995Y-33545D01*
X16661Y-41783D02*
X17021Y-41783D01*
X20769Y-45220D02*
X23995Y-45220D01*
X18354Y-42804D02*
X20769Y-45220D01*
X13500Y-44500D02*
X14350Y-43650D01*
X17700Y-29200D02*
X16250Y-29200D01*
X15550Y-30250D02*
X17700Y-30250D01*
X17750Y-32750D02*
X16800Y-31800D01*
X14350Y-37000D02*
X14350Y-33200D01*
X14350Y-43650D02*
X14350Y-40700D01*
X13500Y-44500D02*
X12500Y-44500D01*
X20657Y-42239D02*
X20657Y-41343D01*
X21650Y-39550D02*
X20900Y-38800D01*
X21650Y-40350D02*
X21650Y-39550D01*
X20657Y-41343D02*
X21650Y-40350D01*
X22900Y-31410D02*
X22900Y-32800D01*
X23900Y-31410D02*
X23900Y-32800D01*
X25200Y-31410D02*
X25200Y-31600D01*
X25200Y-31600D02*
X25350Y-31750D01*
X21450Y-43950D02*
X24600Y-43950D01*
X24600Y-43950D02*
X25100Y-44450D01*
X20657Y-42239D02*
X20657Y-43157D01*
X20657Y-43157D02*
X21450Y-43950D01*
X16300Y-43750D02*
X15350Y-44700D01*
X18865Y-37754D02*
X18865Y-37179D01*
X14662Y-36468D02*
X15057Y-36468D01*
X15155Y-40209D02*
X14760Y-40209D01*
X17842Y-42704D02*
X17842Y-42239D01*
X18097Y-42704D02*
X17842Y-42704D01*
X18097Y-42239D02*
X18097Y-42704D01*
X15057Y-35188D02*
X14662Y-35188D01*
X19885Y-34379D02*
X19885Y-33805D01*
X15218Y-33421D02*
X15218Y-33421D01*
X15534Y-33421D02*
X15218Y-33421D01*
X15534Y-33421D02*
X15534Y-33421D01*
X19115Y-34854D02*
X19115Y-34379D01*
X19276Y-35014D02*
X19115Y-34854D01*
X19725Y-35014D02*
X19276Y-35014D01*
X19885Y-34854D02*
X19725Y-35014D01*
X19885Y-34379D02*
X19885Y-34854D01*
X15155Y-40209D02*
X15155Y-38831D01*
X18750Y-39304D02*
X18865Y-39304D01*
X18610Y-39444D02*
X18750Y-39304D01*
X18610Y-39760D02*
X18610Y-39444D01*
X15057Y-33581D02*
X15218Y-33421D01*
X15057Y-35188D02*
X15057Y-33581D01*
X18610Y-39760D02*
X18610Y-41723D01*
X30552Y-48500D02*
X31500Y-48500D01*
X30052Y-48000D02*
X30552Y-48500D01*
X28000Y-48000D02*
X30052Y-48000D01*
X27500Y-47500D02*
X28000Y-48000D01*
X20817Y-42984D02*
X27500Y-42984D01*
X20657Y-42824D02*
X20817Y-42984D01*
X20657Y-42239D02*
X20657Y-42824D01*
X18258Y-41723D02*
X18610Y-41723D01*
X18097Y-41883D02*
X18258Y-41723D01*
X18097Y-42239D02*
X18097Y-41883D01*
X20496Y-41723D02*
X18610Y-41723D01*
X20657Y-41883D02*
X20496Y-41723D01*
X20657Y-42239D02*
X20657Y-41883D01*
X17835Y-33905D02*
X17835Y-34379D01*
X13087Y-31696D02*
X13087Y-30123D01*
X13248Y-31856D02*
X13087Y-31696D01*
X13652Y-31856D02*
X13248Y-31856D01*
X15218Y-33421D02*
X13652Y-31856D01*
X31095Y-31250D02*
X31095Y-29500D01*
X30935Y-31410D02*
X31095Y-31250D01*
X20420Y-31410D02*
X22900Y-31410D01*
X22900Y-31410D02*
X23900Y-31410D01*
X23900Y-31410D02*
X25200Y-31410D01*
X25200Y-31410D02*
X30935Y-31410D01*
X18095Y-33905D02*
X18095Y-34379D01*
X15534Y-33905D02*
X17835Y-33905D01*
X15534Y-33421D02*
X15534Y-33905D01*
X17835Y-33905D02*
X18095Y-33905D01*
X19115Y-33905D02*
X18095Y-33905D01*
X19115Y-34379D02*
X19115Y-33905D01*
X19115Y-34379D02*
X19115Y-34379D01*
X30500Y-45500D02*
X31500Y-45500D01*
X30500Y-37500D02*
X31500Y-37500D01*
X30500Y-36500D02*
X31500Y-36500D01*
X12500Y-34500D02*
X13500Y-34500D01*
X12500Y-35500D02*
X13500Y-35500D01*
X30500Y-38500D02*
X31500Y-38500D01*
X30500Y-39500D02*
X31500Y-39500D01*
X30500Y-40500D02*
X31500Y-40500D01*
X16284Y-31662D02*
X16284Y-33421D01*
X16124Y-31502D02*
X16284Y-31662D01*
X13504Y-31502D02*
X16124Y-31502D01*
X13344Y-31342D02*
X13504Y-31502D01*
X13344Y-30123D02*
X13344Y-31342D01*
X18605Y-35653D02*
X18605Y-34379D01*
X18766Y-35813D02*
X18605Y-35653D01*
X20075Y-35813D02*
X18766Y-35813D01*
X20890Y-36628D02*
X20075Y-35813D01*
X22772Y-36628D02*
X20890Y-36628D01*
X22932Y-36468D02*
X22772Y-36628D01*
X22932Y-34992D02*
X22932Y-36468D01*
X22637Y-34992D02*
X22932Y-34992D01*
X25000Y-30250D02*
X24000Y-30250D01*
X18865Y-35360D02*
X18865Y-34379D01*
X19026Y-35520D02*
X18865Y-35360D01*
X22637Y-35520D02*
X19026Y-35520D01*
X22637Y-36074D02*
X22637Y-35520D01*
X24507Y-34992D02*
X24507Y-34992D01*
X24051Y-34992D02*
X24507Y-34992D01*
X24051Y-34992D02*
X24051Y-34992D01*
X23387Y-34992D02*
X24051Y-34992D01*
X24507Y-36074D02*
X24507Y-36074D01*
X24211Y-36074D02*
X24507Y-36074D01*
X24211Y-36074D02*
X24211Y-36074D01*
X23387Y-36074D02*
X24211Y-36074D01*
X19377Y-42956D02*
X19377Y-42239D01*
X26047Y-29500D02*
X29404Y-29500D01*
X25717Y-29829D02*
X26047Y-29500D01*
X20579Y-29829D02*
X25717Y-29829D01*
X20000Y-29250D02*
X20579Y-29829D01*
X17325Y-37660D02*
X17325Y-37179D01*
X16336Y-38650D02*
X17325Y-37660D01*
X16336Y-40867D02*
X16336Y-38650D01*
X16175Y-41027D02*
X16336Y-40867D01*
X14860Y-41027D02*
X16175Y-41027D01*
X14700Y-41188D02*
X14860Y-41027D01*
X14700Y-45640D02*
X14700Y-41188D01*
X14860Y-45800D02*
X14700Y-45640D01*
X23628Y-45800D02*
X14860Y-45800D01*
X12500Y-36500D02*
X13500Y-36500D01*
X30500Y-33500D02*
X31500Y-33500D01*
X15155Y-41288D02*
X15155Y-41783D01*
X17835Y-38080D02*
X17835Y-37179D01*
X18354Y-39043D02*
X18354Y-39760D01*
X31500Y-32500D02*
X31500Y-32500D01*
X30915Y-32500D02*
X31500Y-32500D01*
X30915Y-32500D02*
X30915Y-32500D01*
X30500Y-32500D02*
X30915Y-32500D01*
X17575Y-37820D02*
X17575Y-37179D01*
X16731Y-38665D02*
X17575Y-37820D01*
X16731Y-39304D02*
X16731Y-38665D01*
X18097Y-39444D02*
X18097Y-39760D01*
X17957Y-39304D02*
X18097Y-39444D01*
X17842Y-39304D02*
X17957Y-39304D01*
X15451Y-42964D02*
X15155Y-42964D01*
X15451Y-41448D02*
X15451Y-42964D01*
X15611Y-41288D02*
X15451Y-41448D01*
X16571Y-41288D02*
X15611Y-41288D01*
X16731Y-41127D02*
X16571Y-41288D01*
X16731Y-39304D02*
X16731Y-41127D01*
X30500Y-41500D02*
X31500Y-41500D01*
X30500Y-42500D02*
X31500Y-42500D01*
X22640Y-46640D02*
X20100Y-46640D01*
X23500Y-47500D02*
X22640Y-46640D01*
X18345Y-37954D02*
X18345Y-37179D01*
X18506Y-38114D02*
X18345Y-37954D01*
X25915Y-38114D02*
X18506Y-38114D01*
X12500Y-37500D02*
X13500Y-37500D01*
X25257Y-34597D02*
X20956Y-34597D01*
X25257Y-34992D02*
X25257Y-34597D01*
X14112Y-30729D02*
X14112Y-30123D01*
X14272Y-30889D02*
X14112Y-30729D01*
X19160Y-30889D02*
X14272Y-30889D01*
X15451Y-36073D02*
X19375Y-36073D01*
X15451Y-38831D02*
X15451Y-36073D01*
X15905Y-38831D02*
X15451Y-38831D01*
X25257Y-34992D02*
X25257Y-36074D01*
X19375Y-33805D02*
X19375Y-34379D01*
X15905Y-38831D02*
X15905Y-40209D01*
X12500Y-33500D02*
X13500Y-33500D01*
X12500Y-32500D02*
X13500Y-32500D01*
G54D10*
G36*
X12576Y-48505D02*
X12505Y-48576D01*
X12500Y-48570D01*
X12494Y-48576D01*
X12423Y-48505D01*
X12429Y-48500D01*
X12423Y-48494D01*
X12494Y-48423D01*
X12500Y-48429D01*
X12505Y-48423D01*
X12576Y-48494D01*
X12570Y-48500D01*
X12576Y-48505D01*
X12576Y-48505D01*
G37*
G54D28*
X12576Y-48505D02*
X12505Y-48576D01*
X12500Y-48570D01*
X12494Y-48576D01*
X12423Y-48505D01*
X12429Y-48500D01*
X12423Y-48494D01*
X12494Y-48423D01*
X12500Y-48429D01*
X12505Y-48423D01*
X12576Y-48494D01*
X12570Y-48500D01*
X12576Y-48505D01*
G54D10*
G36*
X18571Y-30599D02*
X14402Y-30599D01*
X14402Y-30530D01*
X14402Y-30530D01*
X14440Y-30438D01*
X14440Y-30338D01*
X14440Y-30027D01*
X18496Y-30027D01*
X18450Y-30140D01*
X18449Y-30358D01*
X18533Y-30561D01*
X18571Y-30599D01*
X18571Y-30599D01*
G37*
G54D28*
X18571Y-30599D02*
X14402Y-30599D01*
X14402Y-30530D01*
X14402Y-30530D01*
X14440Y-30438D01*
X14440Y-30338D01*
X14440Y-30027D01*
X18496Y-30027D01*
X18450Y-30140D01*
X18449Y-30358D01*
X18533Y-30561D01*
X18571Y-30599D01*
G54D10*
G36*
X18647Y-28825D02*
X18534Y-28938D01*
X18450Y-29140D01*
X18449Y-29358D01*
X18486Y-29447D01*
X15779Y-29447D01*
X15779Y-29394D01*
X15779Y-28825D01*
X18647Y-28825D01*
X18647Y-28825D01*
G37*
G54D28*
X18647Y-28825D02*
X18534Y-28938D01*
X18450Y-29140D01*
X18449Y-29358D01*
X18486Y-29447D01*
X15779Y-29447D01*
X15779Y-29394D01*
X15779Y-28825D01*
X18647Y-28825D01*
G54D10*
G36*
X20105Y-33277D02*
X19995Y-33255D01*
X16947Y-33255D01*
X16907Y-33214D01*
X16763Y-33155D01*
X16709Y-33155D01*
X16709Y-33096D01*
X16671Y-33004D01*
X16601Y-32934D01*
X16574Y-32923D01*
X16574Y-31662D01*
X16552Y-31551D01*
X16552Y-31551D01*
X16541Y-31536D01*
X17108Y-31536D01*
X18035Y-32462D01*
X18129Y-32525D01*
X18240Y-32547D01*
X20105Y-32547D01*
X20105Y-33277D01*
X20105Y-33277D01*
G37*
G54D28*
X20105Y-33277D02*
X19995Y-33255D01*
X16947Y-33255D01*
X16907Y-33214D01*
X16763Y-33155D01*
X16709Y-33155D01*
X16709Y-33096D01*
X16671Y-33004D01*
X16601Y-32934D01*
X16574Y-32923D01*
X16574Y-31662D01*
X16552Y-31551D01*
X16552Y-31551D01*
X16541Y-31536D01*
X17108Y-31536D01*
X18035Y-32462D01*
X18129Y-32525D01*
X18240Y-32547D01*
X20105Y-32547D01*
X20105Y-33277D01*
G54D10*
G36*
X20769Y-45510D02*
X14990Y-45510D01*
X14990Y-43490D01*
X15030Y-43490D01*
X15380Y-43490D01*
X15472Y-43451D01*
X15531Y-43393D01*
X15589Y-43451D01*
X15681Y-43490D01*
X15780Y-43490D01*
X16130Y-43490D01*
X16222Y-43451D01*
X16292Y-43381D01*
X16331Y-43289D01*
X16331Y-43254D01*
X16661Y-43254D01*
X16759Y-43254D01*
X16799Y-43295D01*
X16943Y-43354D01*
X17098Y-43355D01*
X17241Y-43295D01*
X17282Y-43254D01*
X18193Y-43254D01*
X18304Y-43232D01*
X18345Y-43206D01*
X20564Y-45425D01*
X20658Y-45488D01*
X20658Y-45488D01*
X20769Y-45510D01*
X20769Y-45510D01*
G37*
G54D28*
X20769Y-45510D02*
X14990Y-45510D01*
X14990Y-43490D01*
X15030Y-43490D01*
X15380Y-43490D01*
X15472Y-43451D01*
X15531Y-43393D01*
X15589Y-43451D01*
X15681Y-43490D01*
X15780Y-43490D01*
X16130Y-43490D01*
X16222Y-43451D01*
X16292Y-43381D01*
X16331Y-43289D01*
X16331Y-43254D01*
X16661Y-43254D01*
X16759Y-43254D01*
X16799Y-43295D01*
X16943Y-43354D01*
X17098Y-43355D01*
X17241Y-43295D01*
X17282Y-43254D01*
X18193Y-43254D01*
X18304Y-43232D01*
X18345Y-43206D01*
X20564Y-45425D01*
X20658Y-45488D01*
X20658Y-45488D01*
X20769Y-45510D01*
G54D10*
G36*
X21647Y-28825D02*
X21534Y-28938D01*
X21502Y-29013D01*
X21481Y-28962D01*
X21385Y-28934D01*
X21070Y-29250D01*
X21076Y-29255D01*
X21005Y-29326D01*
X21000Y-29320D01*
X20994Y-29326D01*
X20923Y-29255D01*
X20929Y-29250D01*
X20614Y-28934D01*
X20518Y-28962D01*
X20499Y-29017D01*
X20466Y-28938D01*
X20352Y-28825D01*
X20696Y-28825D01*
X20684Y-28864D01*
X21000Y-29179D01*
X21315Y-28864D01*
X21303Y-28825D01*
X21647Y-28825D01*
X21647Y-28825D01*
G37*
G54D28*
X21647Y-28825D02*
X21534Y-28938D01*
X21502Y-29013D01*
X21481Y-28962D01*
X21385Y-28934D01*
X21070Y-29250D01*
X21076Y-29255D01*
X21005Y-29326D01*
X21000Y-29320D01*
X20994Y-29326D01*
X20923Y-29255D01*
X20929Y-29250D01*
X20614Y-28934D01*
X20518Y-28962D01*
X20499Y-29017D01*
X20466Y-28938D01*
X20352Y-28825D01*
X20696Y-28825D01*
X20684Y-28864D01*
X21000Y-29179D01*
X21315Y-28864D01*
X21303Y-28825D01*
X21647Y-28825D01*
G54D10*
G36*
X22212Y-35230D02*
X19155Y-35230D01*
X19155Y-34984D01*
X19166Y-34984D01*
X19166Y-34951D01*
X19198Y-34964D01*
X19218Y-34984D01*
X19245Y-34984D01*
X19245Y-34984D01*
X19246Y-34984D01*
X19345Y-34984D01*
X19496Y-34984D01*
X19505Y-34984D01*
X19595Y-34984D01*
X19755Y-34984D01*
X19756Y-34984D01*
X19756Y-34984D01*
X19783Y-34984D01*
X19803Y-34964D01*
X19847Y-34946D01*
X19891Y-34903D01*
X19934Y-34946D01*
X19961Y-34957D01*
X19988Y-34984D01*
X20015Y-34984D01*
X20020Y-34982D01*
X20026Y-34984D01*
X20125Y-34984D01*
X20266Y-34984D01*
X20285Y-34984D01*
X20365Y-34984D01*
X20525Y-34984D01*
X20525Y-34984D01*
X20526Y-34984D01*
X20625Y-34984D01*
X20785Y-34984D01*
X20828Y-34966D01*
X20878Y-34987D01*
X21033Y-34987D01*
X21176Y-34927D01*
X21217Y-34887D01*
X22212Y-34887D01*
X22212Y-35230D01*
X22212Y-35230D01*
G37*
G54D28*
X22212Y-35230D02*
X19155Y-35230D01*
X19155Y-34984D01*
X19166Y-34984D01*
X19166Y-34951D01*
X19198Y-34964D01*
X19218Y-34984D01*
X19245Y-34984D01*
X19245Y-34984D01*
X19246Y-34984D01*
X19345Y-34984D01*
X19496Y-34984D01*
X19505Y-34984D01*
X19595Y-34984D01*
X19755Y-34984D01*
X19756Y-34984D01*
X19756Y-34984D01*
X19783Y-34984D01*
X19803Y-34964D01*
X19847Y-34946D01*
X19891Y-34903D01*
X19934Y-34946D01*
X19961Y-34957D01*
X19988Y-34984D01*
X20015Y-34984D01*
X20020Y-34982D01*
X20026Y-34984D01*
X20125Y-34984D01*
X20266Y-34984D01*
X20285Y-34984D01*
X20365Y-34984D01*
X20525Y-34984D01*
X20525Y-34984D01*
X20526Y-34984D01*
X20625Y-34984D01*
X20785Y-34984D01*
X20828Y-34966D01*
X20878Y-34987D01*
X21033Y-34987D01*
X21176Y-34927D01*
X21217Y-34887D01*
X22212Y-34887D01*
X22212Y-35230D01*
G54D10*
G36*
X32175Y-47806D02*
X32148Y-47780D01*
X32104Y-47824D01*
X32045Y-47719D01*
X32045Y-45391D01*
X31962Y-45191D01*
X31809Y-45037D01*
X31718Y-45000D01*
X31808Y-44962D01*
X31962Y-44809D01*
X32045Y-44608D01*
X32045Y-44391D01*
X31962Y-44191D01*
X31809Y-44037D01*
X31718Y-44000D01*
X31808Y-43962D01*
X31962Y-43809D01*
X32045Y-43608D01*
X32045Y-43391D01*
X31962Y-43191D01*
X31809Y-43037D01*
X31718Y-43000D01*
X31808Y-42962D01*
X31962Y-42809D01*
X32045Y-42608D01*
X32045Y-42391D01*
X31962Y-42191D01*
X31809Y-42037D01*
X31718Y-42000D01*
X31808Y-41962D01*
X31962Y-41809D01*
X32045Y-41608D01*
X32045Y-41391D01*
X31962Y-41191D01*
X31809Y-41037D01*
X31718Y-41000D01*
X31808Y-40962D01*
X31962Y-40809D01*
X32045Y-40608D01*
X32045Y-40391D01*
X31962Y-40191D01*
X31809Y-40037D01*
X31718Y-40000D01*
X31808Y-39962D01*
X31962Y-39809D01*
X32045Y-39608D01*
X32045Y-39391D01*
X31962Y-39191D01*
X31809Y-39037D01*
X31718Y-39000D01*
X31808Y-38962D01*
X31962Y-38809D01*
X32045Y-38608D01*
X32045Y-38391D01*
X31962Y-38191D01*
X31809Y-38037D01*
X31718Y-38000D01*
X31808Y-37962D01*
X31962Y-37809D01*
X32045Y-37608D01*
X32045Y-37391D01*
X31962Y-37191D01*
X31809Y-37037D01*
X31718Y-37000D01*
X31808Y-36962D01*
X31962Y-36809D01*
X32045Y-36608D01*
X32045Y-36391D01*
X31962Y-36191D01*
X31809Y-36037D01*
X31718Y-36000D01*
X31808Y-35962D01*
X31962Y-35809D01*
X32045Y-35608D01*
X32045Y-35391D01*
X31962Y-35191D01*
X31809Y-35037D01*
X31718Y-35000D01*
X31808Y-34962D01*
X31962Y-34809D01*
X32045Y-34608D01*
X32045Y-34391D01*
X31962Y-34191D01*
X31809Y-34037D01*
X31718Y-34000D01*
X31808Y-33962D01*
X31962Y-33809D01*
X32045Y-33608D01*
X32045Y-33391D01*
X31962Y-33191D01*
X31817Y-33045D01*
X31845Y-33045D01*
X31937Y-33007D01*
X32007Y-32937D01*
X32045Y-32845D01*
X32045Y-32745D01*
X32045Y-32154D01*
X32007Y-32062D01*
X31937Y-31992D01*
X31845Y-31954D01*
X31745Y-31954D01*
X31154Y-31954D01*
X31062Y-31992D01*
X30999Y-32055D01*
X30946Y-32002D01*
X30946Y-30411D01*
X30879Y-30247D01*
X30753Y-30121D01*
X30589Y-30053D01*
X30411Y-30053D01*
X30247Y-30120D01*
X30121Y-30246D01*
X30053Y-30410D01*
X30053Y-30588D01*
X30120Y-30752D01*
X30246Y-30878D01*
X30410Y-30946D01*
X30588Y-30946D01*
X30752Y-30879D01*
X30878Y-30753D01*
X30946Y-30589D01*
X30946Y-30411D01*
X30946Y-32002D01*
X30937Y-31992D01*
X30845Y-31954D01*
X30745Y-31954D01*
X30154Y-31954D01*
X30062Y-31992D01*
X29992Y-32062D01*
X29954Y-32154D01*
X29954Y-32254D01*
X29954Y-32845D01*
X29992Y-32937D01*
X30062Y-33007D01*
X30154Y-33045D01*
X30183Y-33045D01*
X30037Y-33190D01*
X29954Y-33391D01*
X29954Y-33608D01*
X30037Y-33808D01*
X30190Y-33962D01*
X30281Y-33999D01*
X30191Y-34037D01*
X30037Y-34190D01*
X29954Y-34391D01*
X29954Y-34608D01*
X30037Y-34808D01*
X30190Y-34962D01*
X30281Y-34999D01*
X30191Y-35037D01*
X30037Y-35190D01*
X29954Y-35391D01*
X29954Y-35608D01*
X30037Y-35808D01*
X30190Y-35962D01*
X30281Y-35999D01*
X30191Y-36037D01*
X30037Y-36190D01*
X29954Y-36391D01*
X29954Y-36608D01*
X30037Y-36808D01*
X30190Y-36962D01*
X30281Y-36999D01*
X30191Y-37037D01*
X30037Y-37190D01*
X29954Y-37391D01*
X29954Y-37608D01*
X30037Y-37808D01*
X30190Y-37962D01*
X30281Y-37999D01*
X30191Y-38037D01*
X30037Y-38190D01*
X29954Y-38391D01*
X29954Y-38608D01*
X30037Y-38808D01*
X30190Y-38962D01*
X30281Y-38999D01*
X30191Y-39037D01*
X30037Y-39190D01*
X29954Y-39391D01*
X29954Y-39608D01*
X30037Y-39808D01*
X30190Y-39962D01*
X30281Y-39999D01*
X30191Y-40037D01*
X30037Y-40190D01*
X29954Y-40391D01*
X29954Y-40608D01*
X30037Y-40808D01*
X30190Y-40962D01*
X30281Y-40999D01*
X30191Y-41037D01*
X30037Y-41190D01*
X29954Y-41391D01*
X29954Y-41608D01*
X30037Y-41808D01*
X30190Y-41962D01*
X30281Y-41999D01*
X30191Y-42037D01*
X30037Y-42190D01*
X29954Y-42391D01*
X29954Y-42608D01*
X30037Y-42808D01*
X30190Y-42962D01*
X30281Y-42999D01*
X30191Y-43037D01*
X30037Y-43190D01*
X29954Y-43391D01*
X29954Y-43608D01*
X30037Y-43808D01*
X30190Y-43962D01*
X30281Y-43999D01*
X30191Y-44037D01*
X30037Y-44190D01*
X29954Y-44391D01*
X29954Y-44608D01*
X30037Y-44808D01*
X30190Y-44962D01*
X30281Y-44999D01*
X30191Y-45037D01*
X30037Y-45190D01*
X29954Y-45391D01*
X29954Y-45608D01*
X30037Y-45808D01*
X30190Y-45962D01*
X30391Y-46045D01*
X30608Y-46045D01*
X30808Y-45962D01*
X30962Y-45809D01*
X30970Y-45790D01*
X31029Y-45790D01*
X31037Y-45808D01*
X31190Y-45962D01*
X31391Y-46045D01*
X31608Y-46045D01*
X31808Y-45962D01*
X31962Y-45809D01*
X32045Y-45608D01*
X32045Y-45391D01*
X32045Y-47719D01*
X32028Y-47688D01*
X31677Y-47547D01*
X31299Y-47552D01*
X30971Y-47688D01*
X30895Y-47824D01*
X31500Y-48429D01*
X31505Y-48423D01*
X31576Y-48494D01*
X31570Y-48500D01*
X31576Y-48505D01*
X31505Y-48576D01*
X31500Y-48570D01*
X31494Y-48576D01*
X31429Y-48511D01*
X31423Y-48505D01*
X31429Y-48500D01*
X30824Y-47895D01*
X30688Y-47971D01*
X30547Y-48322D01*
X30552Y-48700D01*
X30688Y-49028D01*
X30824Y-49104D01*
X30780Y-49148D01*
X30806Y-49175D01*
X27811Y-49175D01*
X27811Y-48882D01*
X27500Y-48570D01*
X27188Y-48882D01*
X27214Y-48977D01*
X27419Y-49050D01*
X27636Y-49039D01*
X27785Y-48977D01*
X27811Y-48882D01*
X27811Y-49175D01*
X13946Y-49175D01*
X13452Y-49175D01*
X13193Y-49175D01*
X13219Y-49148D01*
X13175Y-49104D01*
X13311Y-49028D01*
X13452Y-48677D01*
X13447Y-48299D01*
X13311Y-47971D01*
X13175Y-47895D01*
X13219Y-47851D01*
X13246Y-47878D01*
X13410Y-47946D01*
X13588Y-47946D01*
X13752Y-47879D01*
X13878Y-47753D01*
X13946Y-47589D01*
X13946Y-47411D01*
X13879Y-47247D01*
X13753Y-47121D01*
X13589Y-47053D01*
X13411Y-47053D01*
X13247Y-47120D01*
X13121Y-47246D01*
X13053Y-47410D01*
X13053Y-47588D01*
X13120Y-47752D01*
X13148Y-47780D01*
X13104Y-47824D01*
X13028Y-47688D01*
X12677Y-47547D01*
X12299Y-47552D01*
X11971Y-47688D01*
X11895Y-47824D01*
X11851Y-47780D01*
X11825Y-47806D01*
X11825Y-29694D01*
X12429Y-29694D01*
X12521Y-29655D01*
X12566Y-29610D01*
X12612Y-29655D01*
X12704Y-29694D01*
X12803Y-29694D01*
X12819Y-29694D01*
X12797Y-29715D01*
X12759Y-29807D01*
X12759Y-29907D01*
X12759Y-30010D01*
X12822Y-30073D01*
X13015Y-30073D01*
X13015Y-30173D01*
X12822Y-30173D01*
X12759Y-30235D01*
X12759Y-30338D01*
X12759Y-30438D01*
X12797Y-30530D01*
X12867Y-30600D01*
X12959Y-30638D01*
X12986Y-30638D01*
X13037Y-30586D01*
X13037Y-30638D01*
X13054Y-30638D01*
X13054Y-31342D01*
X13076Y-31453D01*
X13138Y-31547D01*
X13298Y-31707D01*
X13393Y-31770D01*
X13393Y-31770D01*
X13504Y-31792D01*
X15994Y-31792D01*
X15994Y-32923D01*
X15967Y-32934D01*
X15909Y-32992D01*
X15851Y-32934D01*
X15759Y-32896D01*
X15646Y-32896D01*
X15584Y-32958D01*
X15584Y-33371D01*
X15592Y-33371D01*
X15592Y-33471D01*
X15584Y-33471D01*
X15584Y-33883D01*
X15646Y-33946D01*
X15759Y-33946D01*
X15851Y-33908D01*
X15909Y-33849D01*
X15967Y-33908D01*
X16059Y-33946D01*
X16159Y-33946D01*
X16509Y-33946D01*
X16571Y-33920D01*
X16608Y-33935D01*
X16763Y-33935D01*
X16906Y-33876D01*
X16947Y-33835D01*
X17082Y-33835D01*
X17034Y-33883D01*
X16996Y-33975D01*
X16996Y-34075D01*
X16996Y-34784D01*
X17034Y-34876D01*
X17104Y-34946D01*
X17196Y-34984D01*
X17295Y-34984D01*
X17446Y-34984D01*
X17455Y-34984D01*
X17545Y-34984D01*
X17705Y-34984D01*
X17706Y-34984D01*
X17706Y-34984D01*
X17733Y-34984D01*
X17753Y-34964D01*
X17797Y-34946D01*
X17836Y-34908D01*
X17874Y-34946D01*
X17918Y-34964D01*
X17938Y-34984D01*
X17965Y-34984D01*
X17966Y-34984D01*
X17966Y-34984D01*
X17993Y-34984D01*
X18013Y-34964D01*
X18057Y-34946D01*
X18090Y-34913D01*
X18124Y-34946D01*
X18185Y-34971D01*
X18198Y-34984D01*
X18216Y-34984D01*
X18225Y-34984D01*
X18315Y-34984D01*
X18315Y-34984D01*
X18315Y-35653D01*
X18338Y-35764D01*
X18350Y-35783D01*
X16188Y-35783D01*
X16197Y-35761D01*
X16198Y-35606D01*
X16196Y-35602D01*
X16233Y-35513D01*
X16233Y-35414D01*
X16233Y-34864D01*
X16194Y-34772D01*
X16124Y-34702D01*
X16032Y-34664D01*
X15933Y-34664D01*
X15583Y-34664D01*
X15491Y-34702D01*
X15484Y-34708D01*
X15484Y-33883D01*
X15484Y-33471D01*
X15484Y-33371D01*
X15484Y-32958D01*
X15421Y-32896D01*
X15309Y-32896D01*
X15217Y-32934D01*
X15147Y-33004D01*
X15109Y-33096D01*
X15109Y-33195D01*
X15109Y-33308D01*
X15171Y-33371D01*
X15484Y-33371D01*
X15484Y-33471D01*
X15171Y-33471D01*
X15109Y-33533D01*
X15109Y-33646D01*
X15109Y-33745D01*
X15147Y-33837D01*
X15217Y-33908D01*
X15309Y-33946D01*
X15421Y-33946D01*
X15484Y-33883D01*
X15484Y-34708D01*
X15433Y-34760D01*
X15374Y-34702D01*
X15282Y-34664D01*
X15170Y-34664D01*
X15108Y-34726D01*
X15108Y-35139D01*
X15115Y-35139D01*
X15115Y-35239D01*
X15108Y-35239D01*
X15108Y-35651D01*
X15170Y-35714D01*
X15282Y-35714D01*
X15374Y-35675D01*
X15418Y-35632D01*
X15417Y-35761D01*
X15429Y-35788D01*
X15340Y-35805D01*
X15245Y-35868D01*
X15195Y-35944D01*
X15170Y-35944D01*
X15108Y-36006D01*
X15108Y-36419D01*
X15115Y-36419D01*
X15115Y-36519D01*
X15108Y-36519D01*
X15108Y-36931D01*
X15161Y-36984D01*
X15161Y-38831D01*
X15183Y-38942D01*
X15206Y-38976D01*
X15206Y-39293D01*
X15268Y-39356D01*
X15380Y-39356D01*
X15472Y-39317D01*
X15531Y-39259D01*
X15589Y-39317D01*
X15615Y-39328D01*
X15615Y-39711D01*
X15589Y-39722D01*
X15531Y-39780D01*
X15472Y-39722D01*
X15380Y-39684D01*
X15268Y-39684D01*
X15206Y-39746D01*
X15206Y-40159D01*
X15213Y-40159D01*
X15213Y-40259D01*
X15206Y-40259D01*
X15206Y-40671D01*
X15268Y-40734D01*
X15380Y-40734D01*
X15472Y-40695D01*
X15531Y-40637D01*
X15589Y-40695D01*
X15681Y-40734D01*
X15780Y-40734D01*
X16046Y-40734D01*
X16046Y-40737D01*
X15106Y-40737D01*
X15106Y-40671D01*
X15106Y-40259D01*
X15106Y-40159D01*
X15106Y-39746D01*
X15106Y-39293D01*
X15106Y-38881D01*
X15106Y-38781D01*
X15106Y-38368D01*
X15043Y-38306D01*
X15008Y-38306D01*
X15008Y-36931D01*
X15008Y-36519D01*
X15008Y-36419D01*
X15008Y-36006D01*
X15008Y-35651D01*
X15008Y-35239D01*
X15008Y-35139D01*
X15008Y-34726D01*
X14945Y-34664D01*
X14833Y-34664D01*
X14741Y-34702D01*
X14671Y-34772D01*
X14633Y-34864D01*
X14633Y-34963D01*
X14633Y-35076D01*
X14695Y-35139D01*
X15008Y-35139D01*
X15008Y-35239D01*
X14695Y-35239D01*
X14633Y-35301D01*
X14633Y-35414D01*
X14633Y-35513D01*
X14671Y-35605D01*
X14741Y-35675D01*
X14833Y-35714D01*
X14945Y-35714D01*
X15008Y-35651D01*
X15008Y-36006D01*
X14945Y-35944D01*
X14833Y-35944D01*
X14741Y-35982D01*
X14671Y-36052D01*
X14633Y-36144D01*
X14633Y-36243D01*
X14633Y-36356D01*
X14695Y-36419D01*
X15008Y-36419D01*
X15008Y-36519D01*
X14695Y-36519D01*
X14633Y-36581D01*
X14633Y-36694D01*
X14633Y-36793D01*
X14671Y-36885D01*
X14741Y-36955D01*
X14833Y-36994D01*
X14945Y-36994D01*
X15008Y-36931D01*
X15008Y-38306D01*
X14931Y-38306D01*
X14839Y-38344D01*
X14769Y-38414D01*
X14731Y-38506D01*
X14731Y-38605D01*
X14731Y-38718D01*
X14793Y-38781D01*
X15106Y-38781D01*
X15106Y-38881D01*
X14793Y-38881D01*
X14731Y-38943D01*
X14731Y-39056D01*
X14731Y-39155D01*
X14769Y-39247D01*
X14839Y-39317D01*
X14931Y-39356D01*
X15043Y-39356D01*
X15106Y-39293D01*
X15106Y-39746D01*
X15043Y-39684D01*
X14931Y-39684D01*
X14839Y-39722D01*
X14769Y-39792D01*
X14731Y-39884D01*
X14731Y-39983D01*
X14731Y-40096D01*
X14793Y-40159D01*
X15106Y-40159D01*
X15106Y-40259D01*
X14793Y-40259D01*
X14731Y-40321D01*
X14731Y-40434D01*
X14731Y-40533D01*
X14769Y-40625D01*
X14839Y-40695D01*
X14931Y-40734D01*
X15043Y-40734D01*
X15106Y-40671D01*
X15106Y-40737D01*
X14860Y-40737D01*
X14749Y-40760D01*
X14655Y-40822D01*
X14495Y-40982D01*
X14432Y-41077D01*
X14410Y-41188D01*
X14410Y-45640D01*
X14432Y-45751D01*
X14495Y-45845D01*
X14580Y-45930D01*
X14340Y-45930D01*
X14050Y-45640D01*
X14050Y-44580D01*
X14045Y-44488D01*
X14045Y-43391D01*
X13962Y-43191D01*
X13809Y-43037D01*
X13718Y-43000D01*
X13808Y-42962D01*
X13962Y-42809D01*
X14045Y-42608D01*
X14045Y-42391D01*
X13962Y-42191D01*
X13809Y-42037D01*
X13718Y-42000D01*
X13808Y-41962D01*
X13962Y-41809D01*
X14045Y-41608D01*
X14045Y-41391D01*
X13962Y-41191D01*
X13809Y-41037D01*
X13718Y-41000D01*
X13808Y-40962D01*
X13962Y-40809D01*
X14045Y-40608D01*
X14045Y-40391D01*
X13962Y-40191D01*
X13809Y-40037D01*
X13718Y-40000D01*
X13808Y-39962D01*
X13962Y-39809D01*
X14045Y-39608D01*
X14045Y-39391D01*
X13962Y-39191D01*
X13809Y-39037D01*
X13718Y-39000D01*
X13808Y-38962D01*
X13962Y-38809D01*
X14045Y-38608D01*
X14045Y-38391D01*
X13962Y-38191D01*
X13809Y-38037D01*
X13718Y-38000D01*
X13808Y-37962D01*
X13962Y-37809D01*
X14045Y-37608D01*
X14045Y-37391D01*
X13962Y-37191D01*
X13809Y-37037D01*
X13718Y-37000D01*
X13808Y-36962D01*
X13962Y-36809D01*
X14045Y-36608D01*
X14045Y-36391D01*
X13962Y-36191D01*
X13809Y-36037D01*
X13718Y-36000D01*
X13808Y-35962D01*
X13962Y-35809D01*
X14045Y-35608D01*
X14045Y-35391D01*
X13962Y-35191D01*
X13809Y-35037D01*
X13718Y-35000D01*
X13808Y-34962D01*
X13962Y-34809D01*
X14045Y-34608D01*
X14045Y-34391D01*
X13962Y-34191D01*
X13809Y-34037D01*
X13718Y-34000D01*
X13808Y-33962D01*
X13962Y-33809D01*
X14045Y-33608D01*
X14045Y-33391D01*
X13962Y-33191D01*
X13809Y-33037D01*
X13718Y-33000D01*
X13808Y-32962D01*
X13962Y-32809D01*
X14045Y-32608D01*
X14045Y-32391D01*
X13962Y-32191D01*
X13809Y-32037D01*
X13608Y-31954D01*
X13391Y-31954D01*
X13191Y-32037D01*
X13037Y-32190D01*
X13029Y-32210D01*
X12970Y-32210D01*
X12962Y-32191D01*
X12809Y-32037D01*
X12608Y-31954D01*
X12391Y-31954D01*
X12191Y-32037D01*
X12037Y-32190D01*
X11954Y-32391D01*
X11954Y-32608D01*
X12037Y-32808D01*
X12190Y-32962D01*
X12281Y-32999D01*
X12191Y-33037D01*
X12037Y-33190D01*
X11954Y-33391D01*
X11954Y-33608D01*
X12037Y-33808D01*
X12190Y-33962D01*
X12281Y-33999D01*
X12191Y-34037D01*
X12037Y-34190D01*
X11954Y-34391D01*
X11954Y-34608D01*
X12037Y-34808D01*
X12190Y-34962D01*
X12281Y-34999D01*
X12191Y-35037D01*
X12037Y-35190D01*
X11954Y-35391D01*
X11954Y-35608D01*
X12037Y-35808D01*
X12190Y-35962D01*
X12281Y-35999D01*
X12191Y-36037D01*
X12037Y-36190D01*
X11954Y-36391D01*
X11954Y-36608D01*
X12037Y-36808D01*
X12190Y-36962D01*
X12281Y-36999D01*
X12191Y-37037D01*
X12037Y-37190D01*
X11954Y-37391D01*
X11954Y-37608D01*
X12037Y-37808D01*
X12190Y-37962D01*
X12281Y-37999D01*
X12191Y-38037D01*
X12037Y-38190D01*
X11954Y-38391D01*
X11954Y-38608D01*
X12037Y-38808D01*
X12190Y-38962D01*
X12281Y-38999D01*
X12191Y-39037D01*
X12037Y-39190D01*
X11954Y-39391D01*
X11954Y-39608D01*
X12037Y-39808D01*
X12190Y-39962D01*
X12281Y-39999D01*
X12191Y-40037D01*
X12037Y-40190D01*
X11954Y-40391D01*
X11954Y-40608D01*
X12037Y-40808D01*
X12190Y-40962D01*
X12281Y-40999D01*
X12191Y-41037D01*
X12037Y-41190D01*
X11954Y-41391D01*
X11954Y-41608D01*
X12037Y-41808D01*
X12190Y-41962D01*
X12281Y-41999D01*
X12191Y-42037D01*
X12037Y-42190D01*
X11954Y-42391D01*
X11954Y-42608D01*
X12037Y-42808D01*
X12190Y-42962D01*
X12281Y-42999D01*
X12191Y-43037D01*
X12037Y-43190D01*
X11954Y-43391D01*
X11954Y-43608D01*
X12037Y-43808D01*
X12190Y-43962D01*
X12275Y-43997D01*
X12214Y-44022D01*
X12188Y-44117D01*
X12500Y-44429D01*
X12811Y-44117D01*
X12785Y-44022D01*
X12720Y-43999D01*
X12808Y-43962D01*
X12962Y-43809D01*
X12970Y-43790D01*
X13029Y-43790D01*
X13037Y-43808D01*
X13190Y-43962D01*
X13275Y-43997D01*
X13214Y-44022D01*
X13188Y-44117D01*
X13500Y-44429D01*
X13811Y-44117D01*
X13785Y-44022D01*
X13720Y-43999D01*
X13808Y-43962D01*
X13962Y-43809D01*
X14045Y-43608D01*
X14045Y-43391D01*
X14045Y-44488D01*
X14039Y-44363D01*
X13977Y-44214D01*
X13882Y-44188D01*
X13570Y-44500D01*
X13882Y-44811D01*
X13977Y-44785D01*
X14050Y-44580D01*
X14050Y-45640D01*
X14045Y-45635D01*
X14045Y-45154D01*
X14007Y-45062D01*
X13937Y-44992D01*
X13845Y-44954D01*
X13791Y-44954D01*
X13811Y-44882D01*
X13500Y-44570D01*
X13429Y-44641D01*
X13429Y-44500D01*
X13117Y-44188D01*
X13022Y-44214D01*
X13001Y-44273D01*
X12977Y-44214D01*
X12882Y-44188D01*
X12570Y-44500D01*
X12882Y-44811D01*
X12977Y-44785D01*
X12998Y-44726D01*
X13022Y-44785D01*
X13117Y-44811D01*
X13429Y-44500D01*
X13429Y-44641D01*
X13188Y-44882D01*
X13208Y-44954D01*
X13154Y-44954D01*
X13062Y-44992D01*
X12999Y-45055D01*
X12937Y-44992D01*
X12845Y-44954D01*
X12791Y-44954D01*
X12811Y-44882D01*
X12500Y-44570D01*
X12429Y-44641D01*
X12429Y-44500D01*
X12117Y-44188D01*
X12022Y-44214D01*
X11949Y-44419D01*
X11960Y-44636D01*
X12022Y-44785D01*
X12117Y-44811D01*
X12429Y-44500D01*
X12429Y-44641D01*
X12188Y-44882D01*
X12208Y-44954D01*
X12154Y-44954D01*
X12062Y-44992D01*
X11992Y-45062D01*
X11954Y-45154D01*
X11954Y-45254D01*
X11954Y-45845D01*
X11992Y-45937D01*
X12062Y-46007D01*
X12154Y-46045D01*
X12254Y-46045D01*
X12845Y-46045D01*
X12937Y-46007D01*
X13000Y-45944D01*
X13062Y-46007D01*
X13154Y-46045D01*
X13254Y-46045D01*
X13635Y-46045D01*
X14015Y-46425D01*
X14109Y-46488D01*
X14220Y-46510D01*
X19731Y-46510D01*
X19710Y-46563D01*
X19709Y-46718D01*
X19769Y-46861D01*
X19878Y-46971D01*
X20022Y-47030D01*
X20177Y-47031D01*
X20320Y-46971D01*
X20361Y-46930D01*
X22520Y-46930D01*
X22544Y-46954D01*
X22391Y-46954D01*
X22191Y-47037D01*
X22037Y-47190D01*
X22000Y-47281D01*
X21962Y-47191D01*
X21809Y-47037D01*
X21608Y-46954D01*
X21391Y-46954D01*
X21191Y-47037D01*
X21037Y-47190D01*
X21000Y-47281D01*
X20962Y-47191D01*
X20809Y-47037D01*
X20608Y-46954D01*
X20391Y-46954D01*
X20191Y-47037D01*
X20037Y-47190D01*
X20000Y-47281D01*
X19962Y-47191D01*
X19809Y-47037D01*
X19608Y-46954D01*
X19391Y-46954D01*
X19191Y-47037D01*
X19037Y-47190D01*
X19000Y-47281D01*
X18962Y-47191D01*
X18809Y-47037D01*
X18608Y-46954D01*
X18391Y-46954D01*
X18191Y-47037D01*
X18037Y-47190D01*
X18000Y-47281D01*
X17962Y-47191D01*
X17809Y-47037D01*
X17608Y-46954D01*
X17391Y-46954D01*
X17191Y-47037D01*
X17037Y-47190D01*
X17000Y-47281D01*
X16962Y-47191D01*
X16809Y-47037D01*
X16608Y-46954D01*
X16391Y-46954D01*
X16191Y-47037D01*
X16037Y-47190D01*
X16000Y-47281D01*
X15962Y-47191D01*
X15809Y-47037D01*
X15608Y-46954D01*
X15391Y-46954D01*
X15191Y-47037D01*
X15037Y-47190D01*
X14954Y-47391D01*
X14954Y-47608D01*
X15037Y-47808D01*
X15190Y-47962D01*
X15281Y-47999D01*
X15191Y-48037D01*
X15037Y-48190D01*
X14954Y-48391D01*
X14954Y-48608D01*
X15037Y-48808D01*
X15190Y-48962D01*
X15391Y-49045D01*
X15608Y-49045D01*
X15808Y-48962D01*
X15962Y-48809D01*
X15999Y-48718D01*
X16037Y-48808D01*
X16190Y-48962D01*
X16391Y-49045D01*
X16608Y-49045D01*
X16808Y-48962D01*
X16962Y-48809D01*
X16999Y-48718D01*
X17037Y-48808D01*
X17190Y-48962D01*
X17391Y-49045D01*
X17608Y-49045D01*
X17808Y-48962D01*
X17962Y-48809D01*
X17999Y-48718D01*
X18037Y-48808D01*
X18190Y-48962D01*
X18391Y-49045D01*
X18608Y-49045D01*
X18808Y-48962D01*
X18962Y-48809D01*
X18999Y-48718D01*
X19037Y-48808D01*
X19190Y-48962D01*
X19391Y-49045D01*
X19608Y-49045D01*
X19808Y-48962D01*
X19962Y-48809D01*
X19999Y-48718D01*
X20037Y-48808D01*
X20190Y-48962D01*
X20391Y-49045D01*
X20608Y-49045D01*
X20808Y-48962D01*
X20962Y-48809D01*
X20999Y-48718D01*
X21037Y-48808D01*
X21190Y-48962D01*
X21391Y-49045D01*
X21608Y-49045D01*
X21808Y-48962D01*
X21962Y-48809D01*
X21999Y-48718D01*
X22037Y-48808D01*
X22190Y-48962D01*
X22391Y-49045D01*
X22608Y-49045D01*
X22808Y-48962D01*
X22962Y-48809D01*
X22999Y-48718D01*
X23037Y-48808D01*
X23190Y-48962D01*
X23391Y-49045D01*
X23608Y-49045D01*
X23808Y-48962D01*
X23962Y-48809D01*
X23999Y-48718D01*
X24037Y-48808D01*
X24190Y-48962D01*
X24391Y-49045D01*
X24608Y-49045D01*
X24808Y-48962D01*
X24962Y-48809D01*
X24999Y-48718D01*
X25037Y-48808D01*
X25190Y-48962D01*
X25391Y-49045D01*
X25608Y-49045D01*
X25808Y-48962D01*
X25962Y-48809D01*
X25999Y-48718D01*
X26037Y-48808D01*
X26190Y-48962D01*
X26391Y-49045D01*
X26608Y-49045D01*
X26808Y-48962D01*
X26962Y-48809D01*
X26997Y-48724D01*
X27022Y-48785D01*
X27117Y-48811D01*
X27429Y-48500D01*
X27117Y-48188D01*
X27022Y-48214D01*
X26999Y-48279D01*
X26962Y-48191D01*
X26809Y-48037D01*
X26718Y-48000D01*
X26808Y-47962D01*
X26962Y-47809D01*
X26997Y-47724D01*
X27022Y-47785D01*
X27117Y-47811D01*
X27429Y-47500D01*
X27117Y-47188D01*
X27022Y-47214D01*
X26999Y-47279D01*
X26962Y-47191D01*
X26809Y-47037D01*
X26608Y-46954D01*
X26391Y-46954D01*
X26191Y-47037D01*
X26037Y-47190D01*
X26000Y-47281D01*
X25962Y-47191D01*
X25809Y-47037D01*
X25608Y-46954D01*
X25391Y-46954D01*
X25191Y-47037D01*
X25037Y-47190D01*
X25000Y-47281D01*
X24962Y-47191D01*
X24809Y-47037D01*
X24608Y-46954D01*
X24391Y-46954D01*
X24191Y-47037D01*
X24037Y-47190D01*
X24000Y-47281D01*
X23962Y-47191D01*
X23809Y-47037D01*
X23608Y-46954D01*
X23391Y-46954D01*
X23372Y-46962D01*
X22920Y-46510D01*
X23520Y-46510D01*
X23529Y-46532D01*
X23684Y-46686D01*
X23886Y-46770D01*
X24104Y-46771D01*
X24307Y-46687D01*
X24461Y-46532D01*
X24471Y-46510D01*
X25882Y-46510D01*
X25891Y-46532D01*
X26046Y-46686D01*
X26248Y-46770D01*
X26466Y-46771D01*
X26669Y-46687D01*
X26823Y-46532D01*
X26833Y-46510D01*
X27100Y-46510D01*
X27541Y-46951D01*
X27363Y-46960D01*
X27214Y-47022D01*
X27188Y-47117D01*
X27500Y-47429D01*
X27505Y-47423D01*
X27576Y-47494D01*
X27570Y-47500D01*
X27882Y-47811D01*
X27954Y-47791D01*
X27954Y-47845D01*
X27992Y-47937D01*
X28055Y-48000D01*
X27992Y-48062D01*
X27954Y-48154D01*
X27954Y-48208D01*
X27882Y-48188D01*
X27811Y-48258D01*
X27811Y-48117D01*
X27785Y-48022D01*
X27726Y-48001D01*
X27785Y-47977D01*
X27811Y-47882D01*
X27500Y-47570D01*
X27188Y-47882D01*
X27214Y-47977D01*
X27273Y-47998D01*
X27214Y-48022D01*
X27188Y-48117D01*
X27500Y-48429D01*
X27811Y-48117D01*
X27811Y-48258D01*
X27570Y-48500D01*
X27882Y-48811D01*
X27954Y-48791D01*
X27954Y-48845D01*
X27992Y-48937D01*
X28062Y-49007D01*
X28154Y-49045D01*
X28254Y-49045D01*
X28845Y-49045D01*
X28937Y-49007D01*
X29007Y-48937D01*
X29045Y-48845D01*
X29045Y-48745D01*
X29045Y-48154D01*
X29007Y-48062D01*
X28944Y-47999D01*
X29007Y-47937D01*
X29045Y-47845D01*
X29045Y-47745D01*
X29045Y-47154D01*
X29007Y-47062D01*
X28937Y-46992D01*
X28845Y-46954D01*
X28745Y-46954D01*
X28364Y-46954D01*
X27425Y-46015D01*
X27331Y-45952D01*
X27220Y-45930D01*
X26833Y-45930D01*
X26824Y-45909D01*
X26685Y-45771D01*
X26707Y-45771D01*
X26799Y-45732D01*
X26869Y-45662D01*
X26908Y-45570D01*
X26908Y-45471D01*
X26908Y-44871D01*
X26869Y-44779D01*
X26799Y-44709D01*
X26707Y-44671D01*
X26608Y-44671D01*
X26008Y-44671D01*
X25916Y-44709D01*
X25846Y-44779D01*
X25808Y-44871D01*
X25808Y-44970D01*
X25808Y-45570D01*
X25846Y-45662D01*
X25916Y-45732D01*
X26008Y-45771D01*
X26030Y-45771D01*
X25892Y-45909D01*
X25882Y-45930D01*
X24471Y-45930D01*
X24462Y-45909D01*
X24323Y-45771D01*
X24345Y-45771D01*
X24437Y-45732D01*
X24507Y-45662D01*
X24546Y-45570D01*
X24546Y-45471D01*
X24546Y-44871D01*
X24507Y-44779D01*
X24437Y-44709D01*
X24345Y-44671D01*
X24246Y-44671D01*
X23646Y-44671D01*
X23554Y-44709D01*
X23484Y-44779D01*
X23446Y-44871D01*
X23446Y-44930D01*
X20890Y-44930D01*
X19305Y-43345D01*
X19455Y-43346D01*
X19598Y-43286D01*
X19708Y-43177D01*
X19767Y-43033D01*
X19768Y-42878D01*
X19708Y-42735D01*
X19699Y-42725D01*
X19742Y-42725D01*
X19761Y-42717D01*
X19781Y-42725D01*
X19880Y-42725D01*
X19998Y-42725D01*
X20017Y-42717D01*
X20037Y-42725D01*
X20136Y-42725D01*
X20254Y-42725D01*
X20273Y-42717D01*
X20293Y-42725D01*
X20392Y-42725D01*
X20510Y-42725D01*
X20529Y-42718D01*
X20548Y-42725D01*
X20565Y-42725D01*
X20627Y-42663D01*
X20627Y-42662D01*
X20672Y-42617D01*
X20686Y-42584D01*
X20686Y-42663D01*
X20749Y-42725D01*
X20765Y-42725D01*
X20857Y-42687D01*
X20927Y-42617D01*
X20966Y-42525D01*
X20966Y-42426D01*
X20966Y-42352D01*
X20903Y-42289D01*
X20711Y-42289D01*
X20711Y-42189D01*
X20903Y-42189D01*
X20966Y-42127D01*
X20966Y-42053D01*
X20966Y-41953D01*
X20927Y-41861D01*
X20857Y-41791D01*
X20765Y-41753D01*
X20749Y-41753D01*
X20686Y-41816D01*
X20686Y-41894D01*
X20672Y-41861D01*
X20627Y-41816D01*
X20627Y-41816D01*
X20565Y-41753D01*
X20548Y-41753D01*
X20529Y-41761D01*
X20510Y-41753D01*
X20411Y-41753D01*
X20293Y-41753D01*
X20274Y-41761D01*
X20254Y-41753D01*
X20155Y-41753D01*
X20037Y-41753D01*
X20018Y-41761D01*
X19998Y-41753D01*
X19899Y-41753D01*
X19781Y-41753D01*
X19762Y-41761D01*
X19742Y-41753D01*
X19643Y-41753D01*
X19525Y-41753D01*
X19506Y-41761D01*
X19486Y-41753D01*
X19387Y-41753D01*
X19269Y-41753D01*
X19250Y-41761D01*
X19230Y-41753D01*
X19131Y-41753D01*
X19013Y-41753D01*
X18994Y-41761D01*
X18974Y-41753D01*
X18875Y-41753D01*
X18757Y-41753D01*
X18738Y-41761D01*
X18718Y-41753D01*
X18619Y-41753D01*
X18501Y-41753D01*
X18482Y-41761D01*
X18462Y-41753D01*
X18363Y-41753D01*
X18245Y-41753D01*
X18226Y-41761D01*
X18206Y-41753D01*
X18190Y-41753D01*
X18127Y-41816D01*
X18127Y-41817D01*
X18098Y-41846D01*
X18068Y-41816D01*
X18068Y-41816D01*
X18006Y-41753D01*
X17989Y-41753D01*
X17970Y-41761D01*
X17951Y-41753D01*
X17935Y-41753D01*
X17872Y-41816D01*
X17872Y-41816D01*
X17827Y-41861D01*
X17813Y-41894D01*
X17813Y-41816D01*
X17751Y-41753D01*
X17734Y-41753D01*
X17642Y-41791D01*
X17572Y-41861D01*
X17534Y-41953D01*
X17534Y-42053D01*
X17534Y-42127D01*
X17596Y-42189D01*
X17813Y-42189D01*
X17813Y-42151D01*
X17851Y-42189D01*
X17872Y-42189D01*
X17900Y-42189D01*
X17900Y-42289D01*
X17872Y-42289D01*
X17851Y-42289D01*
X17843Y-42297D01*
X17813Y-42297D01*
X17813Y-42289D01*
X17596Y-42289D01*
X17534Y-42352D01*
X17534Y-42426D01*
X17534Y-42525D01*
X17572Y-42617D01*
X17629Y-42674D01*
X17282Y-42674D01*
X17242Y-42634D01*
X17099Y-42575D01*
X16943Y-42574D01*
X16800Y-42634D01*
X16759Y-42674D01*
X16661Y-42674D01*
X16331Y-42674D01*
X16331Y-42640D01*
X16292Y-42548D01*
X16222Y-42478D01*
X16130Y-42440D01*
X16031Y-42440D01*
X15741Y-42440D01*
X15741Y-42308D01*
X15780Y-42308D01*
X16130Y-42308D01*
X16222Y-42269D01*
X16292Y-42199D01*
X16331Y-42107D01*
X16331Y-42073D01*
X16661Y-42073D01*
X16759Y-42073D01*
X16799Y-42113D01*
X16943Y-42173D01*
X17098Y-42173D01*
X17241Y-42113D01*
X17351Y-42004D01*
X17411Y-41860D01*
X17411Y-41803D01*
X18048Y-41166D01*
X18110Y-41072D01*
X18132Y-40961D01*
X18132Y-40246D01*
X18206Y-40246D01*
X18225Y-40238D01*
X18245Y-40246D01*
X18344Y-40246D01*
X18462Y-40246D01*
X18482Y-40238D01*
X18501Y-40246D01*
X18518Y-40246D01*
X18580Y-40184D01*
X18580Y-40182D01*
X18610Y-40153D01*
X18639Y-40182D01*
X18639Y-40184D01*
X18702Y-40246D01*
X18718Y-40246D01*
X18737Y-40238D01*
X18757Y-40246D01*
X18856Y-40246D01*
X18974Y-40246D01*
X18993Y-40238D01*
X19013Y-40246D01*
X19112Y-40246D01*
X19230Y-40246D01*
X19249Y-40238D01*
X19269Y-40246D01*
X19368Y-40246D01*
X19486Y-40246D01*
X19505Y-40238D01*
X19525Y-40246D01*
X19624Y-40246D01*
X19742Y-40246D01*
X19761Y-40238D01*
X19781Y-40246D01*
X19880Y-40246D01*
X19998Y-40246D01*
X20017Y-40238D01*
X20037Y-40246D01*
X20136Y-40246D01*
X20254Y-40246D01*
X20273Y-40238D01*
X20293Y-40246D01*
X20392Y-40246D01*
X20510Y-40246D01*
X20529Y-40238D01*
X20548Y-40246D01*
X20647Y-40246D01*
X20765Y-40246D01*
X20857Y-40208D01*
X20927Y-40138D01*
X20966Y-40046D01*
X20966Y-39946D01*
X20966Y-39474D01*
X20927Y-39382D01*
X20857Y-39312D01*
X20765Y-39274D01*
X20666Y-39274D01*
X20548Y-39274D01*
X20529Y-39281D01*
X20510Y-39274D01*
X20411Y-39274D01*
X20293Y-39274D01*
X20274Y-39282D01*
X20254Y-39274D01*
X20155Y-39274D01*
X20037Y-39274D01*
X20018Y-39282D01*
X19998Y-39274D01*
X19899Y-39274D01*
X19781Y-39274D01*
X19762Y-39282D01*
X19742Y-39274D01*
X19643Y-39274D01*
X19525Y-39274D01*
X19506Y-39282D01*
X19486Y-39274D01*
X19387Y-39274D01*
X19269Y-39274D01*
X19250Y-39282D01*
X19230Y-39274D01*
X19131Y-39274D01*
X19013Y-39274D01*
X18994Y-39282D01*
X18974Y-39274D01*
X18875Y-39274D01*
X18757Y-39274D01*
X18738Y-39282D01*
X18718Y-39274D01*
X18702Y-39274D01*
X18660Y-39316D01*
X18660Y-39289D01*
X18684Y-39265D01*
X18743Y-39121D01*
X18744Y-38966D01*
X18684Y-38823D01*
X18575Y-38713D01*
X18431Y-38654D01*
X18286Y-38653D01*
X18301Y-38639D01*
X18363Y-38545D01*
X18386Y-38434D01*
X18386Y-38376D01*
X18395Y-38382D01*
X18395Y-38382D01*
X18506Y-38404D01*
X25653Y-38404D01*
X25694Y-38444D01*
X25837Y-38504D01*
X25992Y-38504D01*
X26136Y-38445D01*
X26245Y-38335D01*
X26305Y-38192D01*
X26305Y-38037D01*
X26246Y-37893D01*
X26136Y-37784D01*
X25993Y-37724D01*
X25838Y-37724D01*
X25694Y-37783D01*
X25654Y-37824D01*
X18635Y-37824D01*
X18635Y-37784D01*
X18735Y-37784D01*
X18736Y-37784D01*
X18736Y-37784D01*
X18763Y-37784D01*
X18783Y-37764D01*
X18827Y-37746D01*
X18860Y-37713D01*
X18894Y-37746D01*
X18955Y-37771D01*
X18968Y-37784D01*
X18986Y-37784D01*
X18995Y-37784D01*
X19085Y-37784D01*
X19245Y-37784D01*
X19245Y-37784D01*
X19246Y-37784D01*
X19345Y-37784D01*
X19496Y-37784D01*
X19505Y-37784D01*
X19595Y-37784D01*
X19755Y-37784D01*
X19755Y-37784D01*
X19756Y-37784D01*
X19855Y-37784D01*
X20015Y-37784D01*
X20015Y-37784D01*
X20016Y-37784D01*
X20115Y-37784D01*
X20266Y-37784D01*
X20275Y-37784D01*
X20365Y-37784D01*
X20525Y-37784D01*
X20525Y-37784D01*
X20526Y-37784D01*
X20625Y-37784D01*
X20785Y-37784D01*
X20877Y-37746D01*
X20947Y-37676D01*
X20986Y-37584D01*
X20986Y-37484D01*
X20986Y-36918D01*
X22772Y-36918D01*
X22882Y-36896D01*
X22977Y-36833D01*
X23137Y-36673D01*
X23186Y-36600D01*
X23261Y-36600D01*
X23611Y-36600D01*
X23703Y-36561D01*
X23773Y-36491D01*
X23812Y-36399D01*
X23812Y-36364D01*
X24082Y-36364D01*
X24082Y-36399D01*
X24120Y-36491D01*
X24190Y-36561D01*
X24282Y-36600D01*
X24381Y-36600D01*
X24731Y-36600D01*
X24823Y-36561D01*
X24882Y-36503D01*
X24940Y-36561D01*
X25032Y-36600D01*
X25131Y-36600D01*
X25481Y-36600D01*
X25573Y-36561D01*
X25643Y-36491D01*
X25682Y-36399D01*
X25682Y-36300D01*
X25682Y-35750D01*
X25643Y-35658D01*
X25573Y-35588D01*
X25547Y-35577D01*
X25547Y-35489D01*
X25573Y-35478D01*
X25643Y-35408D01*
X25682Y-35316D01*
X25682Y-35217D01*
X25682Y-34667D01*
X25643Y-34575D01*
X25573Y-34505D01*
X25523Y-34484D01*
X25462Y-34392D01*
X25367Y-34329D01*
X25257Y-34307D01*
X21217Y-34307D01*
X21177Y-34266D01*
X21033Y-34207D01*
X20986Y-34207D01*
X20986Y-33975D01*
X20947Y-33883D01*
X20945Y-33881D01*
X20945Y-32044D01*
X20923Y-31933D01*
X20923Y-31933D01*
X20861Y-31838D01*
X20701Y-31678D01*
X20606Y-31616D01*
X20495Y-31593D01*
X19710Y-31593D01*
X19710Y-30725D01*
X19890Y-30799D01*
X20108Y-30800D01*
X20311Y-30716D01*
X20465Y-30561D01*
X20499Y-30480D01*
X20533Y-30561D01*
X20688Y-30715D01*
X20890Y-30799D01*
X21108Y-30800D01*
X21311Y-30716D01*
X21465Y-30561D01*
X21499Y-30480D01*
X21533Y-30561D01*
X21688Y-30715D01*
X21890Y-30799D01*
X22108Y-30800D01*
X22311Y-30716D01*
X22465Y-30561D01*
X22499Y-30480D01*
X22533Y-30561D01*
X22688Y-30715D01*
X22890Y-30799D01*
X23108Y-30800D01*
X23311Y-30716D01*
X23465Y-30561D01*
X23499Y-30480D01*
X23533Y-30561D01*
X23688Y-30715D01*
X23890Y-30799D01*
X24108Y-30800D01*
X24311Y-30716D01*
X24465Y-30561D01*
X24475Y-30540D01*
X24524Y-30540D01*
X24533Y-30561D01*
X24688Y-30715D01*
X24890Y-30799D01*
X25108Y-30800D01*
X25311Y-30716D01*
X25465Y-30561D01*
X25549Y-30359D01*
X25550Y-30141D01*
X25541Y-30119D01*
X25717Y-30119D01*
X25828Y-30097D01*
X25922Y-30035D01*
X26167Y-29790D01*
X28933Y-29790D01*
X28941Y-29808D01*
X28973Y-29840D01*
X28744Y-29840D01*
X28507Y-29938D01*
X28326Y-30119D01*
X28228Y-30355D01*
X28228Y-30611D01*
X28326Y-30848D01*
X28507Y-31029D01*
X28743Y-31127D01*
X28999Y-31127D01*
X29236Y-31029D01*
X29417Y-30848D01*
X29515Y-30612D01*
X29515Y-30356D01*
X29417Y-30119D01*
X29343Y-30045D01*
X29512Y-30045D01*
X29712Y-29962D01*
X29866Y-29809D01*
X29949Y-29608D01*
X29949Y-29391D01*
X29866Y-29191D01*
X29713Y-29037D01*
X29512Y-28954D01*
X29295Y-28954D01*
X29095Y-29037D01*
X28941Y-29190D01*
X28933Y-29210D01*
X26047Y-29210D01*
X25936Y-29232D01*
X25842Y-29294D01*
X25597Y-29539D01*
X25550Y-29539D01*
X25550Y-29500D01*
X25550Y-28900D01*
X25518Y-28825D01*
X32175Y-28825D01*
X32175Y-30122D01*
X32173Y-30119D01*
X31992Y-29938D01*
X31756Y-29840D01*
X31646Y-29840D01*
X31507Y-29840D01*
X31478Y-29811D01*
X31573Y-29785D01*
X31646Y-29580D01*
X31635Y-29363D01*
X31573Y-29214D01*
X31478Y-29188D01*
X31407Y-29258D01*
X31407Y-29117D01*
X31381Y-29022D01*
X31176Y-28949D01*
X30959Y-28960D01*
X30810Y-29022D01*
X30784Y-29117D01*
X31096Y-29429D01*
X31407Y-29117D01*
X31407Y-29258D01*
X31166Y-29500D01*
X31172Y-29505D01*
X31101Y-29576D01*
X31096Y-29570D01*
X31025Y-29641D01*
X31025Y-29500D01*
X30713Y-29188D01*
X30618Y-29214D01*
X30545Y-29419D01*
X30556Y-29636D01*
X30618Y-29785D01*
X30713Y-29811D01*
X31025Y-29500D01*
X31025Y-29641D01*
X30784Y-29882D01*
X30810Y-29977D01*
X31015Y-30050D01*
X31158Y-30043D01*
X31082Y-30119D01*
X30984Y-30355D01*
X30984Y-30611D01*
X31082Y-30848D01*
X31263Y-31029D01*
X31499Y-31127D01*
X31755Y-31127D01*
X31992Y-31029D01*
X32173Y-30848D01*
X32175Y-30844D01*
X32175Y-47806D01*
X32175Y-47806D01*
G37*
G54D28*
X32175Y-47806D02*
X32148Y-47780D01*
X32104Y-47824D01*
X32045Y-47719D01*
X32045Y-45391D01*
X31962Y-45191D01*
X31809Y-45037D01*
X31718Y-45000D01*
X31808Y-44962D01*
X31962Y-44809D01*
X32045Y-44608D01*
X32045Y-44391D01*
X31962Y-44191D01*
X31809Y-44037D01*
X31718Y-44000D01*
X31808Y-43962D01*
X31962Y-43809D01*
X32045Y-43608D01*
X32045Y-43391D01*
X31962Y-43191D01*
X31809Y-43037D01*
X31718Y-43000D01*
X31808Y-42962D01*
X31962Y-42809D01*
X32045Y-42608D01*
X32045Y-42391D01*
X31962Y-42191D01*
X31809Y-42037D01*
X31718Y-42000D01*
X31808Y-41962D01*
X31962Y-41809D01*
X32045Y-41608D01*
X32045Y-41391D01*
X31962Y-41191D01*
X31809Y-41037D01*
X31718Y-41000D01*
X31808Y-40962D01*
X31962Y-40809D01*
X32045Y-40608D01*
X32045Y-40391D01*
X31962Y-40191D01*
X31809Y-40037D01*
X31718Y-40000D01*
X31808Y-39962D01*
X31962Y-39809D01*
X32045Y-39608D01*
X32045Y-39391D01*
X31962Y-39191D01*
X31809Y-39037D01*
X31718Y-39000D01*
X31808Y-38962D01*
X31962Y-38809D01*
X32045Y-38608D01*
X32045Y-38391D01*
X31962Y-38191D01*
X31809Y-38037D01*
X31718Y-38000D01*
X31808Y-37962D01*
X31962Y-37809D01*
X32045Y-37608D01*
X32045Y-37391D01*
X31962Y-37191D01*
X31809Y-37037D01*
X31718Y-37000D01*
X31808Y-36962D01*
X31962Y-36809D01*
X32045Y-36608D01*
X32045Y-36391D01*
X31962Y-36191D01*
X31809Y-36037D01*
X31718Y-36000D01*
X31808Y-35962D01*
X31962Y-35809D01*
X32045Y-35608D01*
X32045Y-35391D01*
X31962Y-35191D01*
X31809Y-35037D01*
X31718Y-35000D01*
X31808Y-34962D01*
X31962Y-34809D01*
X32045Y-34608D01*
X32045Y-34391D01*
X31962Y-34191D01*
X31809Y-34037D01*
X31718Y-34000D01*
X31808Y-33962D01*
X31962Y-33809D01*
X32045Y-33608D01*
X32045Y-33391D01*
X31962Y-33191D01*
X31817Y-33045D01*
X31845Y-33045D01*
X31937Y-33007D01*
X32007Y-32937D01*
X32045Y-32845D01*
X32045Y-32745D01*
X32045Y-32154D01*
X32007Y-32062D01*
X31937Y-31992D01*
X31845Y-31954D01*
X31745Y-31954D01*
X31154Y-31954D01*
X31062Y-31992D01*
X30999Y-32055D01*
X30946Y-32002D01*
X30946Y-30411D01*
X30879Y-30247D01*
X30753Y-30121D01*
X30589Y-30053D01*
X30411Y-30053D01*
X30247Y-30120D01*
X30121Y-30246D01*
X30053Y-30410D01*
X30053Y-30588D01*
X30120Y-30752D01*
X30246Y-30878D01*
X30410Y-30946D01*
X30588Y-30946D01*
X30752Y-30879D01*
X30878Y-30753D01*
X30946Y-30589D01*
X30946Y-30411D01*
X30946Y-32002D01*
X30937Y-31992D01*
X30845Y-31954D01*
X30745Y-31954D01*
X30154Y-31954D01*
X30062Y-31992D01*
X29992Y-32062D01*
X29954Y-32154D01*
X29954Y-32254D01*
X29954Y-32845D01*
X29992Y-32937D01*
X30062Y-33007D01*
X30154Y-33045D01*
X30183Y-33045D01*
X30037Y-33190D01*
X29954Y-33391D01*
X29954Y-33608D01*
X30037Y-33808D01*
X30190Y-33962D01*
X30281Y-33999D01*
X30191Y-34037D01*
X30037Y-34190D01*
X29954Y-34391D01*
X29954Y-34608D01*
X30037Y-34808D01*
X30190Y-34962D01*
X30281Y-34999D01*
X30191Y-35037D01*
X30037Y-35190D01*
X29954Y-35391D01*
X29954Y-35608D01*
X30037Y-35808D01*
X30190Y-35962D01*
X30281Y-35999D01*
X30191Y-36037D01*
X30037Y-36190D01*
X29954Y-36391D01*
X29954Y-36608D01*
X30037Y-36808D01*
X30190Y-36962D01*
X30281Y-36999D01*
X30191Y-37037D01*
X30037Y-37190D01*
X29954Y-37391D01*
X29954Y-37608D01*
X30037Y-37808D01*
X30190Y-37962D01*
X30281Y-37999D01*
X30191Y-38037D01*
X30037Y-38190D01*
X29954Y-38391D01*
X29954Y-38608D01*
X30037Y-38808D01*
X30190Y-38962D01*
X30281Y-38999D01*
X30191Y-39037D01*
X30037Y-39190D01*
X29954Y-39391D01*
X29954Y-39608D01*
X30037Y-39808D01*
X30190Y-39962D01*
X30281Y-39999D01*
X30191Y-40037D01*
X30037Y-40190D01*
X29954Y-40391D01*
X29954Y-40608D01*
X30037Y-40808D01*
X30190Y-40962D01*
X30281Y-40999D01*
X30191Y-41037D01*
X30037Y-41190D01*
X29954Y-41391D01*
X29954Y-41608D01*
X30037Y-41808D01*
X30190Y-41962D01*
X30281Y-41999D01*
X30191Y-42037D01*
X30037Y-42190D01*
X29954Y-42391D01*
X29954Y-42608D01*
X30037Y-42808D01*
X30190Y-42962D01*
X30281Y-42999D01*
X30191Y-43037D01*
X30037Y-43190D01*
X29954Y-43391D01*
X29954Y-43608D01*
X30037Y-43808D01*
X30190Y-43962D01*
X30281Y-43999D01*
X30191Y-44037D01*
X30037Y-44190D01*
X29954Y-44391D01*
X29954Y-44608D01*
X30037Y-44808D01*
X30190Y-44962D01*
X30281Y-44999D01*
X30191Y-45037D01*
X30037Y-45190D01*
X29954Y-45391D01*
X29954Y-45608D01*
X30037Y-45808D01*
X30190Y-45962D01*
X30391Y-46045D01*
X30608Y-46045D01*
X30808Y-45962D01*
X30962Y-45809D01*
X30970Y-45790D01*
X31029Y-45790D01*
X31037Y-45808D01*
X31190Y-45962D01*
X31391Y-46045D01*
X31608Y-46045D01*
X31808Y-45962D01*
X31962Y-45809D01*
X32045Y-45608D01*
X32045Y-45391D01*
X32045Y-47719D01*
X32028Y-47688D01*
X31677Y-47547D01*
X31299Y-47552D01*
X30971Y-47688D01*
X30895Y-47824D01*
X31500Y-48429D01*
X31505Y-48423D01*
X31576Y-48494D01*
X31570Y-48500D01*
X31576Y-48505D01*
X31505Y-48576D01*
X31500Y-48570D01*
X31494Y-48576D01*
X31429Y-48511D01*
X31423Y-48505D01*
X31429Y-48500D01*
X30824Y-47895D01*
X30688Y-47971D01*
X30547Y-48322D01*
X30552Y-48700D01*
X30688Y-49028D01*
X30824Y-49104D01*
X30780Y-49148D01*
X30806Y-49175D01*
X27811Y-49175D01*
X27811Y-48882D01*
X27500Y-48570D01*
X27188Y-48882D01*
X27214Y-48977D01*
X27419Y-49050D01*
X27636Y-49039D01*
X27785Y-48977D01*
X27811Y-48882D01*
X27811Y-49175D01*
X13946Y-49175D01*
X13452Y-49175D01*
X13193Y-49175D01*
X13219Y-49148D01*
X13175Y-49104D01*
X13311Y-49028D01*
X13452Y-48677D01*
X13447Y-48299D01*
X13311Y-47971D01*
X13175Y-47895D01*
X13219Y-47851D01*
X13246Y-47878D01*
X13410Y-47946D01*
X13588Y-47946D01*
X13752Y-47879D01*
X13878Y-47753D01*
X13946Y-47589D01*
X13946Y-47411D01*
X13879Y-47247D01*
X13753Y-47121D01*
X13589Y-47053D01*
X13411Y-47053D01*
X13247Y-47120D01*
X13121Y-47246D01*
X13053Y-47410D01*
X13053Y-47588D01*
X13120Y-47752D01*
X13148Y-47780D01*
X13104Y-47824D01*
X13028Y-47688D01*
X12677Y-47547D01*
X12299Y-47552D01*
X11971Y-47688D01*
X11895Y-47824D01*
X11851Y-47780D01*
X11825Y-47806D01*
X11825Y-29694D01*
X12429Y-29694D01*
X12521Y-29655D01*
X12566Y-29610D01*
X12612Y-29655D01*
X12704Y-29694D01*
X12803Y-29694D01*
X12819Y-29694D01*
X12797Y-29715D01*
X12759Y-29807D01*
X12759Y-29907D01*
X12759Y-30010D01*
X12822Y-30073D01*
X13015Y-30073D01*
X13015Y-30173D01*
X12822Y-30173D01*
X12759Y-30235D01*
X12759Y-30338D01*
X12759Y-30438D01*
X12797Y-30530D01*
X12867Y-30600D01*
X12959Y-30638D01*
X12986Y-30638D01*
X13037Y-30586D01*
X13037Y-30638D01*
X13054Y-30638D01*
X13054Y-31342D01*
X13076Y-31453D01*
X13138Y-31547D01*
X13298Y-31707D01*
X13393Y-31770D01*
X13393Y-31770D01*
X13504Y-31792D01*
X15994Y-31792D01*
X15994Y-32923D01*
X15967Y-32934D01*
X15909Y-32992D01*
X15851Y-32934D01*
X15759Y-32896D01*
X15646Y-32896D01*
X15584Y-32958D01*
X15584Y-33371D01*
X15592Y-33371D01*
X15592Y-33471D01*
X15584Y-33471D01*
X15584Y-33883D01*
X15646Y-33946D01*
X15759Y-33946D01*
X15851Y-33908D01*
X15909Y-33849D01*
X15967Y-33908D01*
X16059Y-33946D01*
X16159Y-33946D01*
X16509Y-33946D01*
X16571Y-33920D01*
X16608Y-33935D01*
X16763Y-33935D01*
X16906Y-33876D01*
X16947Y-33835D01*
X17082Y-33835D01*
X17034Y-33883D01*
X16996Y-33975D01*
X16996Y-34075D01*
X16996Y-34784D01*
X17034Y-34876D01*
X17104Y-34946D01*
X17196Y-34984D01*
X17295Y-34984D01*
X17446Y-34984D01*
X17455Y-34984D01*
X17545Y-34984D01*
X17705Y-34984D01*
X17706Y-34984D01*
X17706Y-34984D01*
X17733Y-34984D01*
X17753Y-34964D01*
X17797Y-34946D01*
X17836Y-34908D01*
X17874Y-34946D01*
X17918Y-34964D01*
X17938Y-34984D01*
X17965Y-34984D01*
X17966Y-34984D01*
X17966Y-34984D01*
X17993Y-34984D01*
X18013Y-34964D01*
X18057Y-34946D01*
X18090Y-34913D01*
X18124Y-34946D01*
X18185Y-34971D01*
X18198Y-34984D01*
X18216Y-34984D01*
X18225Y-34984D01*
X18315Y-34984D01*
X18315Y-34984D01*
X18315Y-35653D01*
X18338Y-35764D01*
X18350Y-35783D01*
X16188Y-35783D01*
X16197Y-35761D01*
X16198Y-35606D01*
X16196Y-35602D01*
X16233Y-35513D01*
X16233Y-35414D01*
X16233Y-34864D01*
X16194Y-34772D01*
X16124Y-34702D01*
X16032Y-34664D01*
X15933Y-34664D01*
X15583Y-34664D01*
X15491Y-34702D01*
X15484Y-34708D01*
X15484Y-33883D01*
X15484Y-33471D01*
X15484Y-33371D01*
X15484Y-32958D01*
X15421Y-32896D01*
X15309Y-32896D01*
X15217Y-32934D01*
X15147Y-33004D01*
X15109Y-33096D01*
X15109Y-33195D01*
X15109Y-33308D01*
X15171Y-33371D01*
X15484Y-33371D01*
X15484Y-33471D01*
X15171Y-33471D01*
X15109Y-33533D01*
X15109Y-33646D01*
X15109Y-33745D01*
X15147Y-33837D01*
X15217Y-33908D01*
X15309Y-33946D01*
X15421Y-33946D01*
X15484Y-33883D01*
X15484Y-34708D01*
X15433Y-34760D01*
X15374Y-34702D01*
X15282Y-34664D01*
X15170Y-34664D01*
X15108Y-34726D01*
X15108Y-35139D01*
X15115Y-35139D01*
X15115Y-35239D01*
X15108Y-35239D01*
X15108Y-35651D01*
X15170Y-35714D01*
X15282Y-35714D01*
X15374Y-35675D01*
X15418Y-35632D01*
X15417Y-35761D01*
X15429Y-35788D01*
X15340Y-35805D01*
X15245Y-35868D01*
X15195Y-35944D01*
X15170Y-35944D01*
X15108Y-36006D01*
X15108Y-36419D01*
X15115Y-36419D01*
X15115Y-36519D01*
X15108Y-36519D01*
X15108Y-36931D01*
X15161Y-36984D01*
X15161Y-38831D01*
X15183Y-38942D01*
X15206Y-38976D01*
X15206Y-39293D01*
X15268Y-39356D01*
X15380Y-39356D01*
X15472Y-39317D01*
X15531Y-39259D01*
X15589Y-39317D01*
X15615Y-39328D01*
X15615Y-39711D01*
X15589Y-39722D01*
X15531Y-39780D01*
X15472Y-39722D01*
X15380Y-39684D01*
X15268Y-39684D01*
X15206Y-39746D01*
X15206Y-40159D01*
X15213Y-40159D01*
X15213Y-40259D01*
X15206Y-40259D01*
X15206Y-40671D01*
X15268Y-40734D01*
X15380Y-40734D01*
X15472Y-40695D01*
X15531Y-40637D01*
X15589Y-40695D01*
X15681Y-40734D01*
X15780Y-40734D01*
X16046Y-40734D01*
X16046Y-40737D01*
X15106Y-40737D01*
X15106Y-40671D01*
X15106Y-40259D01*
X15106Y-40159D01*
X15106Y-39746D01*
X15106Y-39293D01*
X15106Y-38881D01*
X15106Y-38781D01*
X15106Y-38368D01*
X15043Y-38306D01*
X15008Y-38306D01*
X15008Y-36931D01*
X15008Y-36519D01*
X15008Y-36419D01*
X15008Y-36006D01*
X15008Y-35651D01*
X15008Y-35239D01*
X15008Y-35139D01*
X15008Y-34726D01*
X14945Y-34664D01*
X14833Y-34664D01*
X14741Y-34702D01*
X14671Y-34772D01*
X14633Y-34864D01*
X14633Y-34963D01*
X14633Y-35076D01*
X14695Y-35139D01*
X15008Y-35139D01*
X15008Y-35239D01*
X14695Y-35239D01*
X14633Y-35301D01*
X14633Y-35414D01*
X14633Y-35513D01*
X14671Y-35605D01*
X14741Y-35675D01*
X14833Y-35714D01*
X14945Y-35714D01*
X15008Y-35651D01*
X15008Y-36006D01*
X14945Y-35944D01*
X14833Y-35944D01*
X14741Y-35982D01*
X14671Y-36052D01*
X14633Y-36144D01*
X14633Y-36243D01*
X14633Y-36356D01*
X14695Y-36419D01*
X15008Y-36419D01*
X15008Y-36519D01*
X14695Y-36519D01*
X14633Y-36581D01*
X14633Y-36694D01*
X14633Y-36793D01*
X14671Y-36885D01*
X14741Y-36955D01*
X14833Y-36994D01*
X14945Y-36994D01*
X15008Y-36931D01*
X15008Y-38306D01*
X14931Y-38306D01*
X14839Y-38344D01*
X14769Y-38414D01*
X14731Y-38506D01*
X14731Y-38605D01*
X14731Y-38718D01*
X14793Y-38781D01*
X15106Y-38781D01*
X15106Y-38881D01*
X14793Y-38881D01*
X14731Y-38943D01*
X14731Y-39056D01*
X14731Y-39155D01*
X14769Y-39247D01*
X14839Y-39317D01*
X14931Y-39356D01*
X15043Y-39356D01*
X15106Y-39293D01*
X15106Y-39746D01*
X15043Y-39684D01*
X14931Y-39684D01*
X14839Y-39722D01*
X14769Y-39792D01*
X14731Y-39884D01*
X14731Y-39983D01*
X14731Y-40096D01*
X14793Y-40159D01*
X15106Y-40159D01*
X15106Y-40259D01*
X14793Y-40259D01*
X14731Y-40321D01*
X14731Y-40434D01*
X14731Y-40533D01*
X14769Y-40625D01*
X14839Y-40695D01*
X14931Y-40734D01*
X15043Y-40734D01*
X15106Y-40671D01*
X15106Y-40737D01*
X14860Y-40737D01*
X14749Y-40760D01*
X14655Y-40822D01*
X14495Y-40982D01*
X14432Y-41077D01*
X14410Y-41188D01*
X14410Y-45640D01*
X14432Y-45751D01*
X14495Y-45845D01*
X14580Y-45930D01*
X14340Y-45930D01*
X14050Y-45640D01*
X14050Y-44580D01*
X14045Y-44488D01*
X14045Y-43391D01*
X13962Y-43191D01*
X13809Y-43037D01*
X13718Y-43000D01*
X13808Y-42962D01*
X13962Y-42809D01*
X14045Y-42608D01*
X14045Y-42391D01*
X13962Y-42191D01*
X13809Y-42037D01*
X13718Y-42000D01*
X13808Y-41962D01*
X13962Y-41809D01*
X14045Y-41608D01*
X14045Y-41391D01*
X13962Y-41191D01*
X13809Y-41037D01*
X13718Y-41000D01*
X13808Y-40962D01*
X13962Y-40809D01*
X14045Y-40608D01*
X14045Y-40391D01*
X13962Y-40191D01*
X13809Y-40037D01*
X13718Y-40000D01*
X13808Y-39962D01*
X13962Y-39809D01*
X14045Y-39608D01*
X14045Y-39391D01*
X13962Y-39191D01*
X13809Y-39037D01*
X13718Y-39000D01*
X13808Y-38962D01*
X13962Y-38809D01*
X14045Y-38608D01*
X14045Y-38391D01*
X13962Y-38191D01*
X13809Y-38037D01*
X13718Y-38000D01*
X13808Y-37962D01*
X13962Y-37809D01*
X14045Y-37608D01*
X14045Y-37391D01*
X13962Y-37191D01*
X13809Y-37037D01*
X13718Y-37000D01*
X13808Y-36962D01*
X13962Y-36809D01*
X14045Y-36608D01*
X14045Y-36391D01*
X13962Y-36191D01*
X13809Y-36037D01*
X13718Y-36000D01*
X13808Y-35962D01*
X13962Y-35809D01*
X14045Y-35608D01*
X14045Y-35391D01*
X13962Y-35191D01*
X13809Y-35037D01*
X13718Y-35000D01*
X13808Y-34962D01*
X13962Y-34809D01*
X14045Y-34608D01*
X14045Y-34391D01*
X13962Y-34191D01*
X13809Y-34037D01*
X13718Y-34000D01*
X13808Y-33962D01*
X13962Y-33809D01*
X14045Y-33608D01*
X14045Y-33391D01*
X13962Y-33191D01*
X13809Y-33037D01*
X13718Y-33000D01*
X13808Y-32962D01*
X13962Y-32809D01*
X14045Y-32608D01*
X14045Y-32391D01*
X13962Y-32191D01*
X13809Y-32037D01*
X13608Y-31954D01*
X13391Y-31954D01*
X13191Y-32037D01*
X13037Y-32190D01*
X13029Y-32210D01*
X12970Y-32210D01*
X12962Y-32191D01*
X12809Y-32037D01*
X12608Y-31954D01*
X12391Y-31954D01*
X12191Y-32037D01*
X12037Y-32190D01*
X11954Y-32391D01*
X11954Y-32608D01*
X12037Y-32808D01*
X12190Y-32962D01*
X12281Y-32999D01*
X12191Y-33037D01*
X12037Y-33190D01*
X11954Y-33391D01*
X11954Y-33608D01*
X12037Y-33808D01*
X12190Y-33962D01*
X12281Y-33999D01*
X12191Y-34037D01*
X12037Y-34190D01*
X11954Y-34391D01*
X11954Y-34608D01*
X12037Y-34808D01*
X12190Y-34962D01*
X12281Y-34999D01*
X12191Y-35037D01*
X12037Y-35190D01*
X11954Y-35391D01*
X11954Y-35608D01*
X12037Y-35808D01*
X12190Y-35962D01*
X12281Y-35999D01*
X12191Y-36037D01*
X12037Y-36190D01*
X11954Y-36391D01*
X11954Y-36608D01*
X12037Y-36808D01*
X12190Y-36962D01*
X12281Y-36999D01*
X12191Y-37037D01*
X12037Y-37190D01*
X11954Y-37391D01*
X11954Y-37608D01*
X12037Y-37808D01*
X12190Y-37962D01*
X12281Y-37999D01*
X12191Y-38037D01*
X12037Y-38190D01*
X11954Y-38391D01*
X11954Y-38608D01*
X12037Y-38808D01*
X12190Y-38962D01*
X12281Y-38999D01*
X12191Y-39037D01*
X12037Y-39190D01*
X11954Y-39391D01*
X11954Y-39608D01*
X12037Y-39808D01*
X12190Y-39962D01*
X12281Y-39999D01*
X12191Y-40037D01*
X12037Y-40190D01*
X11954Y-40391D01*
X11954Y-40608D01*
X12037Y-40808D01*
X12190Y-40962D01*
X12281Y-40999D01*
X12191Y-41037D01*
X12037Y-41190D01*
X11954Y-41391D01*
X11954Y-41608D01*
X12037Y-41808D01*
X12190Y-41962D01*
X12281Y-41999D01*
X12191Y-42037D01*
X12037Y-42190D01*
X11954Y-42391D01*
X11954Y-42608D01*
X12037Y-42808D01*
X12190Y-42962D01*
X12281Y-42999D01*
X12191Y-43037D01*
X12037Y-43190D01*
X11954Y-43391D01*
X11954Y-43608D01*
X12037Y-43808D01*
X12190Y-43962D01*
X12275Y-43997D01*
X12214Y-44022D01*
X12188Y-44117D01*
X12500Y-44429D01*
X12811Y-44117D01*
X12785Y-44022D01*
X12720Y-43999D01*
X12808Y-43962D01*
X12962Y-43809D01*
X12970Y-43790D01*
X13029Y-43790D01*
X13037Y-43808D01*
X13190Y-43962D01*
X13275Y-43997D01*
X13214Y-44022D01*
X13188Y-44117D01*
X13500Y-44429D01*
X13811Y-44117D01*
X13785Y-44022D01*
X13720Y-43999D01*
X13808Y-43962D01*
X13962Y-43809D01*
X14045Y-43608D01*
X14045Y-43391D01*
X14045Y-44488D01*
X14039Y-44363D01*
X13977Y-44214D01*
X13882Y-44188D01*
X13570Y-44500D01*
X13882Y-44811D01*
X13977Y-44785D01*
X14050Y-44580D01*
X14050Y-45640D01*
X14045Y-45635D01*
X14045Y-45154D01*
X14007Y-45062D01*
X13937Y-44992D01*
X13845Y-44954D01*
X13791Y-44954D01*
X13811Y-44882D01*
X13500Y-44570D01*
X13429Y-44641D01*
X13429Y-44500D01*
X13117Y-44188D01*
X13022Y-44214D01*
X13001Y-44273D01*
X12977Y-44214D01*
X12882Y-44188D01*
X12570Y-44500D01*
X12882Y-44811D01*
X12977Y-44785D01*
X12998Y-44726D01*
X13022Y-44785D01*
X13117Y-44811D01*
X13429Y-44500D01*
X13429Y-44641D01*
X13188Y-44882D01*
X13208Y-44954D01*
X13154Y-44954D01*
X13062Y-44992D01*
X12999Y-45055D01*
X12937Y-44992D01*
X12845Y-44954D01*
X12791Y-44954D01*
X12811Y-44882D01*
X12500Y-44570D01*
X12429Y-44641D01*
X12429Y-44500D01*
X12117Y-44188D01*
X12022Y-44214D01*
X11949Y-44419D01*
X11960Y-44636D01*
X12022Y-44785D01*
X12117Y-44811D01*
X12429Y-44500D01*
X12429Y-44641D01*
X12188Y-44882D01*
X12208Y-44954D01*
X12154Y-44954D01*
X12062Y-44992D01*
X11992Y-45062D01*
X11954Y-45154D01*
X11954Y-45254D01*
X11954Y-45845D01*
X11992Y-45937D01*
X12062Y-46007D01*
X12154Y-46045D01*
X12254Y-46045D01*
X12845Y-46045D01*
X12937Y-46007D01*
X13000Y-45944D01*
X13062Y-46007D01*
X13154Y-46045D01*
X13254Y-46045D01*
X13635Y-46045D01*
X14015Y-46425D01*
X14109Y-46488D01*
X14220Y-46510D01*
X19731Y-46510D01*
X19710Y-46563D01*
X19709Y-46718D01*
X19769Y-46861D01*
X19878Y-46971D01*
X20022Y-47030D01*
X20177Y-47031D01*
X20320Y-46971D01*
X20361Y-46930D01*
X22520Y-46930D01*
X22544Y-46954D01*
X22391Y-46954D01*
X22191Y-47037D01*
X22037Y-47190D01*
X22000Y-47281D01*
X21962Y-47191D01*
X21809Y-47037D01*
X21608Y-46954D01*
X21391Y-46954D01*
X21191Y-47037D01*
X21037Y-47190D01*
X21000Y-47281D01*
X20962Y-47191D01*
X20809Y-47037D01*
X20608Y-46954D01*
X20391Y-46954D01*
X20191Y-47037D01*
X20037Y-47190D01*
X20000Y-47281D01*
X19962Y-47191D01*
X19809Y-47037D01*
X19608Y-46954D01*
X19391Y-46954D01*
X19191Y-47037D01*
X19037Y-47190D01*
X19000Y-47281D01*
X18962Y-47191D01*
X18809Y-47037D01*
X18608Y-46954D01*
X18391Y-46954D01*
X18191Y-47037D01*
X18037Y-47190D01*
X18000Y-47281D01*
X17962Y-47191D01*
X17809Y-47037D01*
X17608Y-46954D01*
X17391Y-46954D01*
X17191Y-47037D01*
X17037Y-47190D01*
X17000Y-47281D01*
X16962Y-47191D01*
X16809Y-47037D01*
X16608Y-46954D01*
X16391Y-46954D01*
X16191Y-47037D01*
X16037Y-47190D01*
X16000Y-47281D01*
X15962Y-47191D01*
X15809Y-47037D01*
X15608Y-46954D01*
X15391Y-46954D01*
X15191Y-47037D01*
X15037Y-47190D01*
X14954Y-47391D01*
X14954Y-47608D01*
X15037Y-47808D01*
X15190Y-47962D01*
X15281Y-47999D01*
X15191Y-48037D01*
X15037Y-48190D01*
X14954Y-48391D01*
X14954Y-48608D01*
X15037Y-48808D01*
X15190Y-48962D01*
X15391Y-49045D01*
X15608Y-49045D01*
X15808Y-48962D01*
X15962Y-48809D01*
X15999Y-48718D01*
X16037Y-48808D01*
X16190Y-48962D01*
X16391Y-49045D01*
X16608Y-49045D01*
X16808Y-48962D01*
X16962Y-48809D01*
X16999Y-48718D01*
X17037Y-48808D01*
X17190Y-48962D01*
X17391Y-49045D01*
X17608Y-49045D01*
X17808Y-48962D01*
X17962Y-48809D01*
X17999Y-48718D01*
X18037Y-48808D01*
X18190Y-48962D01*
X18391Y-49045D01*
X18608Y-49045D01*
X18808Y-48962D01*
X18962Y-48809D01*
X18999Y-48718D01*
X19037Y-48808D01*
X19190Y-48962D01*
X19391Y-49045D01*
X19608Y-49045D01*
X19808Y-48962D01*
X19962Y-48809D01*
X19999Y-48718D01*
X20037Y-48808D01*
X20190Y-48962D01*
X20391Y-49045D01*
X20608Y-49045D01*
X20808Y-48962D01*
X20962Y-48809D01*
X20999Y-48718D01*
X21037Y-48808D01*
X21190Y-48962D01*
X21391Y-49045D01*
X21608Y-49045D01*
X21808Y-48962D01*
X21962Y-48809D01*
X21999Y-48718D01*
X22037Y-48808D01*
X22190Y-48962D01*
X22391Y-49045D01*
X22608Y-49045D01*
X22808Y-48962D01*
X22962Y-48809D01*
X22999Y-48718D01*
X23037Y-48808D01*
X23190Y-48962D01*
X23391Y-49045D01*
X23608Y-49045D01*
X23808Y-48962D01*
X23962Y-48809D01*
X23999Y-48718D01*
X24037Y-48808D01*
X24190Y-48962D01*
X24391Y-49045D01*
X24608Y-49045D01*
X24808Y-48962D01*
X24962Y-48809D01*
X24999Y-48718D01*
X25037Y-48808D01*
X25190Y-48962D01*
X25391Y-49045D01*
X25608Y-49045D01*
X25808Y-48962D01*
X25962Y-48809D01*
X25999Y-48718D01*
X26037Y-48808D01*
X26190Y-48962D01*
X26391Y-49045D01*
X26608Y-49045D01*
X26808Y-48962D01*
X26962Y-48809D01*
X26997Y-48724D01*
X27022Y-48785D01*
X27117Y-48811D01*
X27429Y-48500D01*
X27117Y-48188D01*
X27022Y-48214D01*
X26999Y-48279D01*
X26962Y-48191D01*
X26809Y-48037D01*
X26718Y-48000D01*
X26808Y-47962D01*
X26962Y-47809D01*
X26997Y-47724D01*
X27022Y-47785D01*
X27117Y-47811D01*
X27429Y-47500D01*
X27117Y-47188D01*
X27022Y-47214D01*
X26999Y-47279D01*
X26962Y-47191D01*
X26809Y-47037D01*
X26608Y-46954D01*
X26391Y-46954D01*
X26191Y-47037D01*
X26037Y-47190D01*
X26000Y-47281D01*
X25962Y-47191D01*
X25809Y-47037D01*
X25608Y-46954D01*
X25391Y-46954D01*
X25191Y-47037D01*
X25037Y-47190D01*
X25000Y-47281D01*
X24962Y-47191D01*
X24809Y-47037D01*
X24608Y-46954D01*
X24391Y-46954D01*
X24191Y-47037D01*
X24037Y-47190D01*
X24000Y-47281D01*
X23962Y-47191D01*
X23809Y-47037D01*
X23608Y-46954D01*
X23391Y-46954D01*
X23372Y-46962D01*
X22920Y-46510D01*
X23520Y-46510D01*
X23529Y-46532D01*
X23684Y-46686D01*
X23886Y-46770D01*
X24104Y-46771D01*
X24307Y-46687D01*
X24461Y-46532D01*
X24471Y-46510D01*
X25882Y-46510D01*
X25891Y-46532D01*
X26046Y-46686D01*
X26248Y-46770D01*
X26466Y-46771D01*
X26669Y-46687D01*
X26823Y-46532D01*
X26833Y-46510D01*
X27100Y-46510D01*
X27541Y-46951D01*
X27363Y-46960D01*
X27214Y-47022D01*
X27188Y-47117D01*
X27500Y-47429D01*
X27505Y-47423D01*
X27576Y-47494D01*
X27570Y-47500D01*
X27882Y-47811D01*
X27954Y-47791D01*
X27954Y-47845D01*
X27992Y-47937D01*
X28055Y-48000D01*
X27992Y-48062D01*
X27954Y-48154D01*
X27954Y-48208D01*
X27882Y-48188D01*
X27811Y-48258D01*
X27811Y-48117D01*
X27785Y-48022D01*
X27726Y-48001D01*
X27785Y-47977D01*
X27811Y-47882D01*
X27500Y-47570D01*
X27188Y-47882D01*
X27214Y-47977D01*
X27273Y-47998D01*
X27214Y-48022D01*
X27188Y-48117D01*
X27500Y-48429D01*
X27811Y-48117D01*
X27811Y-48258D01*
X27570Y-48500D01*
X27882Y-48811D01*
X27954Y-48791D01*
X27954Y-48845D01*
X27992Y-48937D01*
X28062Y-49007D01*
X28154Y-49045D01*
X28254Y-49045D01*
X28845Y-49045D01*
X28937Y-49007D01*
X29007Y-48937D01*
X29045Y-48845D01*
X29045Y-48745D01*
X29045Y-48154D01*
X29007Y-48062D01*
X28944Y-47999D01*
X29007Y-47937D01*
X29045Y-47845D01*
X29045Y-47745D01*
X29045Y-47154D01*
X29007Y-47062D01*
X28937Y-46992D01*
X28845Y-46954D01*
X28745Y-46954D01*
X28364Y-46954D01*
X27425Y-46015D01*
X27331Y-45952D01*
X27220Y-45930D01*
X26833Y-45930D01*
X26824Y-45909D01*
X26685Y-45771D01*
X26707Y-45771D01*
X26799Y-45732D01*
X26869Y-45662D01*
X26908Y-45570D01*
X26908Y-45471D01*
X26908Y-44871D01*
X26869Y-44779D01*
X26799Y-44709D01*
X26707Y-44671D01*
X26608Y-44671D01*
X26008Y-44671D01*
X25916Y-44709D01*
X25846Y-44779D01*
X25808Y-44871D01*
X25808Y-44970D01*
X25808Y-45570D01*
X25846Y-45662D01*
X25916Y-45732D01*
X26008Y-45771D01*
X26030Y-45771D01*
X25892Y-45909D01*
X25882Y-45930D01*
X24471Y-45930D01*
X24462Y-45909D01*
X24323Y-45771D01*
X24345Y-45771D01*
X24437Y-45732D01*
X24507Y-45662D01*
X24546Y-45570D01*
X24546Y-45471D01*
X24546Y-44871D01*
X24507Y-44779D01*
X24437Y-44709D01*
X24345Y-44671D01*
X24246Y-44671D01*
X23646Y-44671D01*
X23554Y-44709D01*
X23484Y-44779D01*
X23446Y-44871D01*
X23446Y-44930D01*
X20890Y-44930D01*
X19305Y-43345D01*
X19455Y-43346D01*
X19598Y-43286D01*
X19708Y-43177D01*
X19767Y-43033D01*
X19768Y-42878D01*
X19708Y-42735D01*
X19699Y-42725D01*
X19742Y-42725D01*
X19761Y-42717D01*
X19781Y-42725D01*
X19880Y-42725D01*
X19998Y-42725D01*
X20017Y-42717D01*
X20037Y-42725D01*
X20136Y-42725D01*
X20254Y-42725D01*
X20273Y-42717D01*
X20293Y-42725D01*
X20392Y-42725D01*
X20510Y-42725D01*
X20529Y-42718D01*
X20548Y-42725D01*
X20565Y-42725D01*
X20627Y-42663D01*
X20627Y-42662D01*
X20672Y-42617D01*
X20686Y-42584D01*
X20686Y-42663D01*
X20749Y-42725D01*
X20765Y-42725D01*
X20857Y-42687D01*
X20927Y-42617D01*
X20966Y-42525D01*
X20966Y-42426D01*
X20966Y-42352D01*
X20903Y-42289D01*
X20711Y-42289D01*
X20711Y-42189D01*
X20903Y-42189D01*
X20966Y-42127D01*
X20966Y-42053D01*
X20966Y-41953D01*
X20927Y-41861D01*
X20857Y-41791D01*
X20765Y-41753D01*
X20749Y-41753D01*
X20686Y-41816D01*
X20686Y-41894D01*
X20672Y-41861D01*
X20627Y-41816D01*
X20627Y-41816D01*
X20565Y-41753D01*
X20548Y-41753D01*
X20529Y-41761D01*
X20510Y-41753D01*
X20411Y-41753D01*
X20293Y-41753D01*
X20274Y-41761D01*
X20254Y-41753D01*
X20155Y-41753D01*
X20037Y-41753D01*
X20018Y-41761D01*
X19998Y-41753D01*
X19899Y-41753D01*
X19781Y-41753D01*
X19762Y-41761D01*
X19742Y-41753D01*
X19643Y-41753D01*
X19525Y-41753D01*
X19506Y-41761D01*
X19486Y-41753D01*
X19387Y-41753D01*
X19269Y-41753D01*
X19250Y-41761D01*
X19230Y-41753D01*
X19131Y-41753D01*
X19013Y-41753D01*
X18994Y-41761D01*
X18974Y-41753D01*
X18875Y-41753D01*
X18757Y-41753D01*
X18738Y-41761D01*
X18718Y-41753D01*
X18619Y-41753D01*
X18501Y-41753D01*
X18482Y-41761D01*
X18462Y-41753D01*
X18363Y-41753D01*
X18245Y-41753D01*
X18226Y-41761D01*
X18206Y-41753D01*
X18190Y-41753D01*
X18127Y-41816D01*
X18127Y-41817D01*
X18098Y-41846D01*
X18068Y-41816D01*
X18068Y-41816D01*
X18006Y-41753D01*
X17989Y-41753D01*
X17970Y-41761D01*
X17951Y-41753D01*
X17935Y-41753D01*
X17872Y-41816D01*
X17872Y-41816D01*
X17827Y-41861D01*
X17813Y-41894D01*
X17813Y-41816D01*
X17751Y-41753D01*
X17734Y-41753D01*
X17642Y-41791D01*
X17572Y-41861D01*
X17534Y-41953D01*
X17534Y-42053D01*
X17534Y-42127D01*
X17596Y-42189D01*
X17813Y-42189D01*
X17813Y-42151D01*
X17851Y-42189D01*
X17872Y-42189D01*
X17900Y-42189D01*
X17900Y-42289D01*
X17872Y-42289D01*
X17851Y-42289D01*
X17843Y-42297D01*
X17813Y-42297D01*
X17813Y-42289D01*
X17596Y-42289D01*
X17534Y-42352D01*
X17534Y-42426D01*
X17534Y-42525D01*
X17572Y-42617D01*
X17629Y-42674D01*
X17282Y-42674D01*
X17242Y-42634D01*
X17099Y-42575D01*
X16943Y-42574D01*
X16800Y-42634D01*
X16759Y-42674D01*
X16661Y-42674D01*
X16331Y-42674D01*
X16331Y-42640D01*
X16292Y-42548D01*
X16222Y-42478D01*
X16130Y-42440D01*
X16031Y-42440D01*
X15741Y-42440D01*
X15741Y-42308D01*
X15780Y-42308D01*
X16130Y-42308D01*
X16222Y-42269D01*
X16292Y-42199D01*
X16331Y-42107D01*
X16331Y-42073D01*
X16661Y-42073D01*
X16759Y-42073D01*
X16799Y-42113D01*
X16943Y-42173D01*
X17098Y-42173D01*
X17241Y-42113D01*
X17351Y-42004D01*
X17411Y-41860D01*
X17411Y-41803D01*
X18048Y-41166D01*
X18110Y-41072D01*
X18132Y-40961D01*
X18132Y-40246D01*
X18206Y-40246D01*
X18225Y-40238D01*
X18245Y-40246D01*
X18344Y-40246D01*
X18462Y-40246D01*
X18482Y-40238D01*
X18501Y-40246D01*
X18518Y-40246D01*
X18580Y-40184D01*
X18580Y-40182D01*
X18610Y-40153D01*
X18639Y-40182D01*
X18639Y-40184D01*
X18702Y-40246D01*
X18718Y-40246D01*
X18737Y-40238D01*
X18757Y-40246D01*
X18856Y-40246D01*
X18974Y-40246D01*
X18993Y-40238D01*
X19013Y-40246D01*
X19112Y-40246D01*
X19230Y-40246D01*
X19249Y-40238D01*
X19269Y-40246D01*
X19368Y-40246D01*
X19486Y-40246D01*
X19505Y-40238D01*
X19525Y-40246D01*
X19624Y-40246D01*
X19742Y-40246D01*
X19761Y-40238D01*
X19781Y-40246D01*
X19880Y-40246D01*
X19998Y-40246D01*
X20017Y-40238D01*
X20037Y-40246D01*
X20136Y-40246D01*
X20254Y-40246D01*
X20273Y-40238D01*
X20293Y-40246D01*
X20392Y-40246D01*
X20510Y-40246D01*
X20529Y-40238D01*
X20548Y-40246D01*
X20647Y-40246D01*
X20765Y-40246D01*
X20857Y-40208D01*
X20927Y-40138D01*
X20966Y-40046D01*
X20966Y-39946D01*
X20966Y-39474D01*
X20927Y-39382D01*
X20857Y-39312D01*
X20765Y-39274D01*
X20666Y-39274D01*
X20548Y-39274D01*
X20529Y-39281D01*
X20510Y-39274D01*
X20411Y-39274D01*
X20293Y-39274D01*
X20274Y-39282D01*
X20254Y-39274D01*
X20155Y-39274D01*
X20037Y-39274D01*
X20018Y-39282D01*
X19998Y-39274D01*
X19899Y-39274D01*
X19781Y-39274D01*
X19762Y-39282D01*
X19742Y-39274D01*
X19643Y-39274D01*
X19525Y-39274D01*
X19506Y-39282D01*
X19486Y-39274D01*
X19387Y-39274D01*
X19269Y-39274D01*
X19250Y-39282D01*
X19230Y-39274D01*
X19131Y-39274D01*
X19013Y-39274D01*
X18994Y-39282D01*
X18974Y-39274D01*
X18875Y-39274D01*
X18757Y-39274D01*
X18738Y-39282D01*
X18718Y-39274D01*
X18702Y-39274D01*
X18660Y-39316D01*
X18660Y-39289D01*
X18684Y-39265D01*
X18743Y-39121D01*
X18744Y-38966D01*
X18684Y-38823D01*
X18575Y-38713D01*
X18431Y-38654D01*
X18286Y-38653D01*
X18301Y-38639D01*
X18363Y-38545D01*
X18386Y-38434D01*
X18386Y-38376D01*
X18395Y-38382D01*
X18395Y-38382D01*
X18506Y-38404D01*
X25653Y-38404D01*
X25694Y-38444D01*
X25837Y-38504D01*
X25992Y-38504D01*
X26136Y-38445D01*
X26245Y-38335D01*
X26305Y-38192D01*
X26305Y-38037D01*
X26246Y-37893D01*
X26136Y-37784D01*
X25993Y-37724D01*
X25838Y-37724D01*
X25694Y-37783D01*
X25654Y-37824D01*
X18635Y-37824D01*
X18635Y-37784D01*
X18735Y-37784D01*
X18736Y-37784D01*
X18736Y-37784D01*
X18763Y-37784D01*
X18783Y-37764D01*
X18827Y-37746D01*
X18860Y-37713D01*
X18894Y-37746D01*
X18955Y-37771D01*
X18968Y-37784D01*
X18986Y-37784D01*
X18995Y-37784D01*
X19085Y-37784D01*
X19245Y-37784D01*
X19245Y-37784D01*
X19246Y-37784D01*
X19345Y-37784D01*
X19496Y-37784D01*
X19505Y-37784D01*
X19595Y-37784D01*
X19755Y-37784D01*
X19755Y-37784D01*
X19756Y-37784D01*
X19855Y-37784D01*
X20015Y-37784D01*
X20015Y-37784D01*
X20016Y-37784D01*
X20115Y-37784D01*
X20266Y-37784D01*
X20275Y-37784D01*
X20365Y-37784D01*
X20525Y-37784D01*
X20525Y-37784D01*
X20526Y-37784D01*
X20625Y-37784D01*
X20785Y-37784D01*
X20877Y-37746D01*
X20947Y-37676D01*
X20986Y-37584D01*
X20986Y-37484D01*
X20986Y-36918D01*
X22772Y-36918D01*
X22882Y-36896D01*
X22977Y-36833D01*
X23137Y-36673D01*
X23186Y-36600D01*
X23261Y-36600D01*
X23611Y-36600D01*
X23703Y-36561D01*
X23773Y-36491D01*
X23812Y-36399D01*
X23812Y-36364D01*
X24082Y-36364D01*
X24082Y-36399D01*
X24120Y-36491D01*
X24190Y-36561D01*
X24282Y-36600D01*
X24381Y-36600D01*
X24731Y-36600D01*
X24823Y-36561D01*
X24882Y-36503D01*
X24940Y-36561D01*
X25032Y-36600D01*
X25131Y-36600D01*
X25481Y-36600D01*
X25573Y-36561D01*
X25643Y-36491D01*
X25682Y-36399D01*
X25682Y-36300D01*
X25682Y-35750D01*
X25643Y-35658D01*
X25573Y-35588D01*
X25547Y-35577D01*
X25547Y-35489D01*
X25573Y-35478D01*
X25643Y-35408D01*
X25682Y-35316D01*
X25682Y-35217D01*
X25682Y-34667D01*
X25643Y-34575D01*
X25573Y-34505D01*
X25523Y-34484D01*
X25462Y-34392D01*
X25367Y-34329D01*
X25257Y-34307D01*
X21217Y-34307D01*
X21177Y-34266D01*
X21033Y-34207D01*
X20986Y-34207D01*
X20986Y-33975D01*
X20947Y-33883D01*
X20945Y-33881D01*
X20945Y-32044D01*
X20923Y-31933D01*
X20923Y-31933D01*
X20861Y-31838D01*
X20701Y-31678D01*
X20606Y-31616D01*
X20495Y-31593D01*
X19710Y-31593D01*
X19710Y-30725D01*
X19890Y-30799D01*
X20108Y-30800D01*
X20311Y-30716D01*
X20465Y-30561D01*
X20499Y-30480D01*
X20533Y-30561D01*
X20688Y-30715D01*
X20890Y-30799D01*
X21108Y-30800D01*
X21311Y-30716D01*
X21465Y-30561D01*
X21499Y-30480D01*
X21533Y-30561D01*
X21688Y-30715D01*
X21890Y-30799D01*
X22108Y-30800D01*
X22311Y-30716D01*
X22465Y-30561D01*
X22499Y-30480D01*
X22533Y-30561D01*
X22688Y-30715D01*
X22890Y-30799D01*
X23108Y-30800D01*
X23311Y-30716D01*
X23465Y-30561D01*
X23499Y-30480D01*
X23533Y-30561D01*
X23688Y-30715D01*
X23890Y-30799D01*
X24108Y-30800D01*
X24311Y-30716D01*
X24465Y-30561D01*
X24475Y-30540D01*
X24524Y-30540D01*
X24533Y-30561D01*
X24688Y-30715D01*
X24890Y-30799D01*
X25108Y-30800D01*
X25311Y-30716D01*
X25465Y-30561D01*
X25549Y-30359D01*
X25550Y-30141D01*
X25541Y-30119D01*
X25717Y-30119D01*
X25828Y-30097D01*
X25922Y-30035D01*
X26167Y-29790D01*
X28933Y-29790D01*
X28941Y-29808D01*
X28973Y-29840D01*
X28744Y-29840D01*
X28507Y-29938D01*
X28326Y-30119D01*
X28228Y-30355D01*
X28228Y-30611D01*
X28326Y-30848D01*
X28507Y-31029D01*
X28743Y-31127D01*
X28999Y-31127D01*
X29236Y-31029D01*
X29417Y-30848D01*
X29515Y-30612D01*
X29515Y-30356D01*
X29417Y-30119D01*
X29343Y-30045D01*
X29512Y-30045D01*
X29712Y-29962D01*
X29866Y-29809D01*
X29949Y-29608D01*
X29949Y-29391D01*
X29866Y-29191D01*
X29713Y-29037D01*
X29512Y-28954D01*
X29295Y-28954D01*
X29095Y-29037D01*
X28941Y-29190D01*
X28933Y-29210D01*
X26047Y-29210D01*
X25936Y-29232D01*
X25842Y-29294D01*
X25597Y-29539D01*
X25550Y-29539D01*
X25550Y-29500D01*
X25550Y-28900D01*
X25518Y-28825D01*
X32175Y-28825D01*
X32175Y-30122D01*
X32173Y-30119D01*
X31992Y-29938D01*
X31756Y-29840D01*
X31646Y-29840D01*
X31507Y-29840D01*
X31478Y-29811D01*
X31573Y-29785D01*
X31646Y-29580D01*
X31635Y-29363D01*
X31573Y-29214D01*
X31478Y-29188D01*
X31407Y-29258D01*
X31407Y-29117D01*
X31381Y-29022D01*
X31176Y-28949D01*
X30959Y-28960D01*
X30810Y-29022D01*
X30784Y-29117D01*
X31096Y-29429D01*
X31407Y-29117D01*
X31407Y-29258D01*
X31166Y-29500D01*
X31172Y-29505D01*
X31101Y-29576D01*
X31096Y-29570D01*
X31025Y-29641D01*
X31025Y-29500D01*
X30713Y-29188D01*
X30618Y-29214D01*
X30545Y-29419D01*
X30556Y-29636D01*
X30618Y-29785D01*
X30713Y-29811D01*
X31025Y-29500D01*
X31025Y-29641D01*
X30784Y-29882D01*
X30810Y-29977D01*
X31015Y-30050D01*
X31158Y-30043D01*
X31082Y-30119D01*
X30984Y-30355D01*
X30984Y-30611D01*
X31082Y-30848D01*
X31263Y-31029D01*
X31499Y-31127D01*
X31755Y-31127D01*
X31992Y-31029D01*
X32173Y-30848D01*
X32175Y-30844D01*
X32175Y-47806D01*
M02*
