G04 (created by PCBNEW (2013-mar-13)-testing) date Fri 28 Jun 2013 12:11:23 PM CEST*
%MOIN*%
G04 Gerber Fmt 3.4, Leading zero omitted, Abs format*
%FSLAX34Y34*%
G01*
G70*
G90*
G04 APERTURE LIST*
%ADD10C,0.005906*%
%ADD11C,0.015000*%
%ADD12C,0.012000*%
%ADD13C,0.005000*%
%ADD14C,0.006000*%
%ADD15C,0.011972*%
%ADD16C,0.009000*%
%ADD17C,0.003000*%
%ADD18C,0.007000*%
%ADD19C,0.008000*%
%ADD20C,0.156000*%
%ADD21R,0.076000X0.076000*%
%ADD22C,0.076000*%
%ADD23C,0.075100*%
%ADD24C,0.094700*%
%ADD25R,0.075100X0.075100*%
G04 APERTURE END LIST*
G54D10*
G54D11*
X32500Y-49500D02*
X32500Y-28500D01*
X11500Y-49500D02*
X32500Y-49500D01*
X11500Y-28500D02*
X11500Y-49500D01*
X32500Y-28500D02*
X11500Y-28500D01*
G54D12*
X19828Y-53700D02*
X19542Y-53700D01*
X19514Y-54081D01*
X19542Y-54043D01*
X19599Y-54005D01*
X19742Y-54005D01*
X19799Y-54043D01*
X19828Y-54081D01*
X19857Y-54158D01*
X19857Y-54348D01*
X19828Y-54424D01*
X19799Y-54462D01*
X19742Y-54500D01*
X19599Y-54500D01*
X19542Y-54462D01*
X19514Y-54424D01*
X20057Y-53700D02*
X20428Y-53700D01*
X20228Y-54005D01*
X20314Y-54005D01*
X20371Y-54043D01*
X20399Y-54081D01*
X20428Y-54158D01*
X20428Y-54348D01*
X20399Y-54424D01*
X20371Y-54462D01*
X20314Y-54500D01*
X20142Y-54500D01*
X20085Y-54462D01*
X20057Y-54424D01*
X20714Y-54462D02*
X20714Y-54500D01*
X20685Y-54577D01*
X20657Y-54615D01*
X20914Y-53700D02*
X21285Y-53700D01*
X21085Y-54005D01*
X21171Y-54005D01*
X21228Y-54043D01*
X21257Y-54081D01*
X21285Y-54158D01*
X21285Y-54348D01*
X21257Y-54424D01*
X21228Y-54462D01*
X21171Y-54500D01*
X21000Y-54500D01*
X20942Y-54462D01*
X20914Y-54424D01*
X21800Y-53967D02*
X21800Y-54500D01*
X21657Y-53662D02*
X21514Y-54234D01*
X21885Y-54234D01*
X22228Y-53700D02*
X22285Y-53700D01*
X22342Y-53739D01*
X22371Y-53777D01*
X22400Y-53853D01*
X22428Y-54005D01*
X22428Y-54196D01*
X22400Y-54348D01*
X22371Y-54424D01*
X22342Y-54462D01*
X22285Y-54500D01*
X22228Y-54500D01*
X22171Y-54462D01*
X22142Y-54424D01*
X22114Y-54348D01*
X22085Y-54196D01*
X22085Y-54005D01*
X22114Y-53853D01*
X22142Y-53777D01*
X22171Y-53739D01*
X22228Y-53700D01*
X23142Y-54500D02*
X23142Y-53967D01*
X23142Y-54043D02*
X23171Y-54005D01*
X23228Y-53967D01*
X23314Y-53967D01*
X23371Y-54005D01*
X23400Y-54081D01*
X23400Y-54500D01*
X23400Y-54081D02*
X23428Y-54005D01*
X23485Y-53967D01*
X23571Y-53967D01*
X23628Y-54005D01*
X23657Y-54081D01*
X23657Y-54500D01*
X23942Y-54500D02*
X23942Y-53967D01*
X23942Y-54043D02*
X23971Y-54005D01*
X24028Y-53967D01*
X24114Y-53967D01*
X24171Y-54005D01*
X24200Y-54081D01*
X24200Y-54500D01*
X24200Y-54081D02*
X24228Y-54005D01*
X24285Y-53967D01*
X24371Y-53967D01*
X24428Y-54005D01*
X24457Y-54081D01*
X24457Y-54500D01*
X11500Y-53499D02*
X32500Y-53499D01*
X11500Y-49500D02*
X11500Y-54779D01*
X32500Y-49500D02*
X32500Y-54779D01*
X32500Y-53499D02*
X32057Y-53729D01*
X32500Y-53499D02*
X32057Y-53269D01*
X11500Y-53499D02*
X11943Y-53729D01*
X11500Y-53499D02*
X11943Y-53269D01*
X38201Y-41171D02*
X38201Y-41457D01*
X38582Y-41485D01*
X38544Y-41457D01*
X38506Y-41400D01*
X38506Y-41257D01*
X38544Y-41200D01*
X38582Y-41171D01*
X38659Y-41142D01*
X38849Y-41142D01*
X38925Y-41171D01*
X38963Y-41200D01*
X39001Y-41257D01*
X39001Y-41400D01*
X38963Y-41457D01*
X38925Y-41485D01*
X38201Y-40942D02*
X38201Y-40571D01*
X38506Y-40771D01*
X38506Y-40685D01*
X38544Y-40628D01*
X38582Y-40600D01*
X38659Y-40571D01*
X38849Y-40571D01*
X38925Y-40600D01*
X38963Y-40628D01*
X39001Y-40685D01*
X39001Y-40857D01*
X38963Y-40914D01*
X38925Y-40942D01*
X38963Y-40285D02*
X39001Y-40285D01*
X39078Y-40314D01*
X39116Y-40342D01*
X38201Y-40085D02*
X38201Y-39714D01*
X38506Y-39914D01*
X38506Y-39828D01*
X38544Y-39771D01*
X38582Y-39742D01*
X38659Y-39714D01*
X38849Y-39714D01*
X38925Y-39742D01*
X38963Y-39771D01*
X39001Y-39828D01*
X39001Y-40000D01*
X38963Y-40057D01*
X38925Y-40085D01*
X38468Y-39200D02*
X39001Y-39200D01*
X38163Y-39342D02*
X38735Y-39485D01*
X38735Y-39114D01*
X38201Y-38771D02*
X38201Y-38714D01*
X38240Y-38657D01*
X38278Y-38628D01*
X38354Y-38600D01*
X38506Y-38571D01*
X38697Y-38571D01*
X38849Y-38600D01*
X38925Y-38628D01*
X38963Y-38657D01*
X39001Y-38714D01*
X39001Y-38771D01*
X38963Y-38828D01*
X38925Y-38857D01*
X38849Y-38885D01*
X38697Y-38914D01*
X38506Y-38914D01*
X38354Y-38885D01*
X38278Y-38857D01*
X38240Y-38828D01*
X38201Y-38771D01*
X39001Y-37857D02*
X38468Y-37857D01*
X38544Y-37857D02*
X38506Y-37828D01*
X38468Y-37771D01*
X38468Y-37685D01*
X38506Y-37628D01*
X38582Y-37599D01*
X39001Y-37599D01*
X38582Y-37599D02*
X38506Y-37571D01*
X38468Y-37514D01*
X38468Y-37428D01*
X38506Y-37371D01*
X38582Y-37342D01*
X39001Y-37342D01*
X39001Y-37057D02*
X38468Y-37057D01*
X38544Y-37057D02*
X38506Y-37028D01*
X38468Y-36971D01*
X38468Y-36885D01*
X38506Y-36828D01*
X38582Y-36799D01*
X39001Y-36799D01*
X38582Y-36799D02*
X38506Y-36771D01*
X38468Y-36714D01*
X38468Y-36628D01*
X38506Y-36571D01*
X38582Y-36542D01*
X39001Y-36542D01*
X38000Y-49500D02*
X38000Y-28500D01*
X32500Y-49500D02*
X39280Y-49500D01*
X32500Y-28500D02*
X39280Y-28500D01*
X38000Y-28500D02*
X38230Y-28943D01*
X38000Y-28500D02*
X37770Y-28943D01*
X38000Y-49500D02*
X38230Y-49057D01*
X38000Y-49500D02*
X37770Y-49057D01*
G54D13*
X29742Y-32409D02*
X29700Y-32422D01*
X29628Y-32422D01*
X29600Y-32409D01*
X29585Y-32396D01*
X29571Y-32370D01*
X29571Y-32345D01*
X29585Y-32319D01*
X29600Y-32306D01*
X29628Y-32293D01*
X29685Y-32280D01*
X29714Y-32267D01*
X29728Y-32255D01*
X29742Y-32229D01*
X29742Y-32203D01*
X29728Y-32177D01*
X29714Y-32165D01*
X29685Y-32152D01*
X29614Y-32152D01*
X29571Y-32165D01*
X29442Y-32422D02*
X29442Y-32152D01*
X29371Y-32152D01*
X29328Y-32165D01*
X29300Y-32190D01*
X29285Y-32216D01*
X29271Y-32267D01*
X29271Y-32306D01*
X29285Y-32357D01*
X29300Y-32383D01*
X29328Y-32409D01*
X29371Y-32422D01*
X29442Y-32422D01*
X29157Y-32345D02*
X29014Y-32345D01*
X29185Y-32422D02*
X29085Y-32152D01*
X28985Y-32422D01*
X29728Y-32850D02*
X29728Y-32580D01*
X29614Y-32580D01*
X29585Y-32593D01*
X29571Y-32605D01*
X29557Y-32631D01*
X29557Y-32670D01*
X29571Y-32695D01*
X29585Y-32708D01*
X29614Y-32721D01*
X29728Y-32721D01*
X29457Y-32580D02*
X29271Y-32580D01*
X29371Y-32683D01*
X29328Y-32683D01*
X29300Y-32695D01*
X29285Y-32708D01*
X29271Y-32734D01*
X29271Y-32798D01*
X29285Y-32824D01*
X29300Y-32837D01*
X29328Y-32850D01*
X29414Y-32850D01*
X29442Y-32837D01*
X29457Y-32824D01*
X29142Y-32824D02*
X29128Y-32837D01*
X29142Y-32850D01*
X29157Y-32837D01*
X29142Y-32824D01*
X29142Y-32850D01*
X28842Y-32850D02*
X29014Y-32850D01*
X28928Y-32850D02*
X28928Y-32580D01*
X28957Y-32618D01*
X28985Y-32644D01*
X29014Y-32657D01*
X29742Y-33409D02*
X29700Y-33422D01*
X29628Y-33422D01*
X29600Y-33409D01*
X29585Y-33396D01*
X29571Y-33370D01*
X29571Y-33345D01*
X29585Y-33319D01*
X29600Y-33306D01*
X29628Y-33293D01*
X29685Y-33280D01*
X29714Y-33267D01*
X29728Y-33255D01*
X29742Y-33229D01*
X29742Y-33203D01*
X29728Y-33177D01*
X29714Y-33165D01*
X29685Y-33152D01*
X29614Y-33152D01*
X29571Y-33165D01*
X29271Y-33396D02*
X29285Y-33409D01*
X29328Y-33422D01*
X29357Y-33422D01*
X29400Y-33409D01*
X29428Y-33383D01*
X29442Y-33357D01*
X29457Y-33306D01*
X29457Y-33267D01*
X29442Y-33216D01*
X29428Y-33190D01*
X29400Y-33165D01*
X29357Y-33152D01*
X29328Y-33152D01*
X29285Y-33165D01*
X29271Y-33177D01*
X29000Y-33422D02*
X29142Y-33422D01*
X29142Y-33152D01*
X29728Y-33850D02*
X29728Y-33580D01*
X29614Y-33580D01*
X29585Y-33593D01*
X29571Y-33605D01*
X29557Y-33631D01*
X29557Y-33670D01*
X29571Y-33695D01*
X29585Y-33708D01*
X29614Y-33721D01*
X29728Y-33721D01*
X29457Y-33580D02*
X29271Y-33580D01*
X29371Y-33683D01*
X29328Y-33683D01*
X29300Y-33695D01*
X29285Y-33708D01*
X29271Y-33734D01*
X29271Y-33798D01*
X29285Y-33824D01*
X29300Y-33837D01*
X29328Y-33850D01*
X29414Y-33850D01*
X29442Y-33837D01*
X29457Y-33824D01*
X29142Y-33824D02*
X29128Y-33837D01*
X29142Y-33850D01*
X29157Y-33837D01*
X29142Y-33824D01*
X29142Y-33850D01*
X29014Y-33605D02*
X29000Y-33593D01*
X28971Y-33580D01*
X28900Y-33580D01*
X28871Y-33593D01*
X28857Y-33605D01*
X28842Y-33631D01*
X28842Y-33657D01*
X28857Y-33695D01*
X29028Y-33850D01*
X28842Y-33850D01*
X29742Y-34345D02*
X29600Y-34345D01*
X29771Y-34422D02*
X29671Y-34152D01*
X29571Y-34422D01*
X29471Y-34422D02*
X29471Y-34152D01*
X29400Y-34152D01*
X29357Y-34165D01*
X29328Y-34190D01*
X29314Y-34216D01*
X29300Y-34267D01*
X29300Y-34306D01*
X29314Y-34357D01*
X29328Y-34383D01*
X29357Y-34409D01*
X29400Y-34422D01*
X29471Y-34422D01*
X29000Y-34396D02*
X29014Y-34409D01*
X29057Y-34422D01*
X29085Y-34422D01*
X29128Y-34409D01*
X29157Y-34383D01*
X29171Y-34357D01*
X29185Y-34306D01*
X29185Y-34267D01*
X29171Y-34216D01*
X29157Y-34190D01*
X29128Y-34165D01*
X29085Y-34152D01*
X29057Y-34152D01*
X29014Y-34165D01*
X29000Y-34177D01*
X28728Y-34152D02*
X28871Y-34152D01*
X28885Y-34280D01*
X28871Y-34267D01*
X28842Y-34255D01*
X28771Y-34255D01*
X28742Y-34267D01*
X28728Y-34280D01*
X28714Y-34306D01*
X28714Y-34370D01*
X28728Y-34396D01*
X28742Y-34409D01*
X28771Y-34422D01*
X28842Y-34422D01*
X28871Y-34409D01*
X28885Y-34396D01*
X29728Y-34850D02*
X29728Y-34580D01*
X29614Y-34580D01*
X29585Y-34593D01*
X29571Y-34605D01*
X29557Y-34631D01*
X29557Y-34670D01*
X29571Y-34695D01*
X29585Y-34708D01*
X29614Y-34721D01*
X29728Y-34721D01*
X29300Y-34580D02*
X29357Y-34580D01*
X29385Y-34593D01*
X29400Y-34605D01*
X29428Y-34644D01*
X29442Y-34695D01*
X29442Y-34798D01*
X29428Y-34824D01*
X29414Y-34837D01*
X29385Y-34850D01*
X29328Y-34850D01*
X29300Y-34837D01*
X29285Y-34824D01*
X29271Y-34798D01*
X29271Y-34734D01*
X29285Y-34708D01*
X29300Y-34695D01*
X29328Y-34683D01*
X29385Y-34683D01*
X29414Y-34695D01*
X29428Y-34708D01*
X29442Y-34734D01*
X29142Y-34824D02*
X29128Y-34837D01*
X29142Y-34850D01*
X29157Y-34837D01*
X29142Y-34824D01*
X29142Y-34850D01*
X28857Y-34580D02*
X29000Y-34580D01*
X29014Y-34708D01*
X29000Y-34695D01*
X28971Y-34683D01*
X28900Y-34683D01*
X28871Y-34695D01*
X28857Y-34708D01*
X28842Y-34734D01*
X28842Y-34798D01*
X28857Y-34824D01*
X28871Y-34837D01*
X28900Y-34850D01*
X28971Y-34850D01*
X29000Y-34837D01*
X29014Y-34824D01*
X29728Y-36422D02*
X29728Y-36152D01*
X29585Y-36422D02*
X29585Y-36152D01*
X29414Y-36422D01*
X29414Y-36152D01*
X29314Y-36152D02*
X29142Y-36152D01*
X29228Y-36422D02*
X29228Y-36152D01*
X29057Y-36177D02*
X29042Y-36165D01*
X29014Y-36152D01*
X28942Y-36152D01*
X28914Y-36165D01*
X28900Y-36177D01*
X28885Y-36203D01*
X28885Y-36229D01*
X28900Y-36267D01*
X29071Y-36422D01*
X28885Y-36422D01*
X29728Y-36850D02*
X29728Y-36580D01*
X29614Y-36580D01*
X29585Y-36593D01*
X29571Y-36605D01*
X29557Y-36631D01*
X29557Y-36670D01*
X29571Y-36695D01*
X29585Y-36708D01*
X29614Y-36721D01*
X29728Y-36721D01*
X29442Y-36605D02*
X29428Y-36593D01*
X29400Y-36580D01*
X29328Y-36580D01*
X29300Y-36593D01*
X29285Y-36605D01*
X29271Y-36631D01*
X29271Y-36657D01*
X29285Y-36695D01*
X29457Y-36850D01*
X29271Y-36850D01*
X29142Y-36824D02*
X29128Y-36837D01*
X29142Y-36850D01*
X29157Y-36837D01*
X29142Y-36824D01*
X29142Y-36850D01*
X28857Y-36580D02*
X29000Y-36580D01*
X29014Y-36708D01*
X29000Y-36695D01*
X28971Y-36683D01*
X28900Y-36683D01*
X28871Y-36695D01*
X28857Y-36708D01*
X28842Y-36734D01*
X28842Y-36798D01*
X28857Y-36824D01*
X28871Y-36837D01*
X28900Y-36850D01*
X28971Y-36850D01*
X29000Y-36837D01*
X29014Y-36824D01*
X29728Y-37422D02*
X29728Y-37152D01*
X29585Y-37422D02*
X29585Y-37152D01*
X29414Y-37422D01*
X29414Y-37152D01*
X29314Y-37152D02*
X29142Y-37152D01*
X29228Y-37422D02*
X29228Y-37152D01*
X28885Y-37422D02*
X29057Y-37422D01*
X28971Y-37422D02*
X28971Y-37152D01*
X29000Y-37190D01*
X29028Y-37216D01*
X29057Y-37229D01*
X29728Y-37850D02*
X29728Y-37580D01*
X29614Y-37580D01*
X29585Y-37593D01*
X29571Y-37605D01*
X29557Y-37631D01*
X29557Y-37670D01*
X29571Y-37695D01*
X29585Y-37708D01*
X29614Y-37721D01*
X29728Y-37721D01*
X29442Y-37605D02*
X29428Y-37593D01*
X29400Y-37580D01*
X29328Y-37580D01*
X29300Y-37593D01*
X29285Y-37605D01*
X29271Y-37631D01*
X29271Y-37657D01*
X29285Y-37695D01*
X29457Y-37850D01*
X29271Y-37850D01*
X29142Y-37824D02*
X29128Y-37837D01*
X29142Y-37850D01*
X29157Y-37837D01*
X29142Y-37824D01*
X29142Y-37850D01*
X29028Y-37580D02*
X28842Y-37580D01*
X28942Y-37683D01*
X28900Y-37683D01*
X28871Y-37695D01*
X28857Y-37708D01*
X28842Y-37734D01*
X28842Y-37798D01*
X28857Y-37824D01*
X28871Y-37837D01*
X28900Y-37850D01*
X28985Y-37850D01*
X29014Y-37837D01*
X29028Y-37824D01*
X29585Y-38422D02*
X29728Y-38422D01*
X29728Y-38152D01*
X29485Y-38280D02*
X29385Y-38280D01*
X29342Y-38422D02*
X29485Y-38422D01*
X29485Y-38152D01*
X29342Y-38152D01*
X29214Y-38422D02*
X29214Y-38152D01*
X29142Y-38152D01*
X29100Y-38165D01*
X29071Y-38190D01*
X29057Y-38216D01*
X29042Y-38267D01*
X29042Y-38306D01*
X29057Y-38357D01*
X29071Y-38383D01*
X29100Y-38409D01*
X29142Y-38422D01*
X29214Y-38422D01*
X28857Y-38152D02*
X28828Y-38152D01*
X28800Y-38165D01*
X28785Y-38177D01*
X28771Y-38203D01*
X28757Y-38255D01*
X28757Y-38319D01*
X28771Y-38370D01*
X28785Y-38396D01*
X28800Y-38409D01*
X28828Y-38422D01*
X28857Y-38422D01*
X28885Y-38409D01*
X28900Y-38396D01*
X28914Y-38370D01*
X28928Y-38319D01*
X28928Y-38255D01*
X28914Y-38203D01*
X28900Y-38177D01*
X28885Y-38165D01*
X28857Y-38152D01*
X29728Y-38850D02*
X29728Y-38580D01*
X29614Y-38580D01*
X29585Y-38593D01*
X29571Y-38605D01*
X29557Y-38631D01*
X29557Y-38670D01*
X29571Y-38695D01*
X29585Y-38708D01*
X29614Y-38721D01*
X29728Y-38721D01*
X29385Y-38695D02*
X29414Y-38683D01*
X29428Y-38670D01*
X29442Y-38644D01*
X29442Y-38631D01*
X29428Y-38605D01*
X29414Y-38593D01*
X29385Y-38580D01*
X29328Y-38580D01*
X29300Y-38593D01*
X29285Y-38605D01*
X29271Y-38631D01*
X29271Y-38644D01*
X29285Y-38670D01*
X29300Y-38683D01*
X29328Y-38695D01*
X29385Y-38695D01*
X29414Y-38708D01*
X29428Y-38721D01*
X29442Y-38747D01*
X29442Y-38798D01*
X29428Y-38824D01*
X29414Y-38837D01*
X29385Y-38850D01*
X29328Y-38850D01*
X29300Y-38837D01*
X29285Y-38824D01*
X29271Y-38798D01*
X29271Y-38747D01*
X29285Y-38721D01*
X29300Y-38708D01*
X29328Y-38695D01*
X29142Y-38824D02*
X29128Y-38837D01*
X29142Y-38850D01*
X29157Y-38837D01*
X29142Y-38824D01*
X29142Y-38850D01*
X28942Y-38580D02*
X28914Y-38580D01*
X28885Y-38593D01*
X28871Y-38605D01*
X28857Y-38631D01*
X28842Y-38683D01*
X28842Y-38747D01*
X28857Y-38798D01*
X28871Y-38824D01*
X28885Y-38837D01*
X28914Y-38850D01*
X28942Y-38850D01*
X28971Y-38837D01*
X28985Y-38824D01*
X29000Y-38798D01*
X29014Y-38747D01*
X29014Y-38683D01*
X29000Y-38631D01*
X28985Y-38605D01*
X28971Y-38593D01*
X28942Y-38580D01*
X29585Y-39422D02*
X29728Y-39422D01*
X29728Y-39152D01*
X29485Y-39280D02*
X29385Y-39280D01*
X29342Y-39422D02*
X29485Y-39422D01*
X29485Y-39152D01*
X29342Y-39152D01*
X29214Y-39422D02*
X29214Y-39152D01*
X29142Y-39152D01*
X29100Y-39165D01*
X29071Y-39190D01*
X29057Y-39216D01*
X29042Y-39267D01*
X29042Y-39306D01*
X29057Y-39357D01*
X29071Y-39383D01*
X29100Y-39409D01*
X29142Y-39422D01*
X29214Y-39422D01*
X28757Y-39422D02*
X28928Y-39422D01*
X28842Y-39422D02*
X28842Y-39152D01*
X28871Y-39190D01*
X28900Y-39216D01*
X28928Y-39229D01*
X29728Y-39850D02*
X29728Y-39580D01*
X29614Y-39580D01*
X29585Y-39593D01*
X29571Y-39605D01*
X29557Y-39631D01*
X29557Y-39670D01*
X29571Y-39695D01*
X29585Y-39708D01*
X29614Y-39721D01*
X29728Y-39721D01*
X29385Y-39695D02*
X29414Y-39683D01*
X29428Y-39670D01*
X29442Y-39644D01*
X29442Y-39631D01*
X29428Y-39605D01*
X29414Y-39593D01*
X29385Y-39580D01*
X29328Y-39580D01*
X29300Y-39593D01*
X29285Y-39605D01*
X29271Y-39631D01*
X29271Y-39644D01*
X29285Y-39670D01*
X29300Y-39683D01*
X29328Y-39695D01*
X29385Y-39695D01*
X29414Y-39708D01*
X29428Y-39721D01*
X29442Y-39747D01*
X29442Y-39798D01*
X29428Y-39824D01*
X29414Y-39837D01*
X29385Y-39850D01*
X29328Y-39850D01*
X29300Y-39837D01*
X29285Y-39824D01*
X29271Y-39798D01*
X29271Y-39747D01*
X29285Y-39721D01*
X29300Y-39708D01*
X29328Y-39695D01*
X29142Y-39824D02*
X29128Y-39837D01*
X29142Y-39850D01*
X29157Y-39837D01*
X29142Y-39824D01*
X29142Y-39850D01*
X28842Y-39850D02*
X29014Y-39850D01*
X28928Y-39850D02*
X28928Y-39580D01*
X28957Y-39618D01*
X28985Y-39644D01*
X29014Y-39657D01*
X29585Y-40422D02*
X29728Y-40422D01*
X29728Y-40152D01*
X29485Y-40280D02*
X29385Y-40280D01*
X29342Y-40422D02*
X29485Y-40422D01*
X29485Y-40152D01*
X29342Y-40152D01*
X29214Y-40422D02*
X29214Y-40152D01*
X29142Y-40152D01*
X29100Y-40165D01*
X29071Y-40190D01*
X29057Y-40216D01*
X29042Y-40267D01*
X29042Y-40306D01*
X29057Y-40357D01*
X29071Y-40383D01*
X29100Y-40409D01*
X29142Y-40422D01*
X29214Y-40422D01*
X28928Y-40177D02*
X28914Y-40165D01*
X28885Y-40152D01*
X28814Y-40152D01*
X28785Y-40165D01*
X28771Y-40177D01*
X28757Y-40203D01*
X28757Y-40229D01*
X28771Y-40267D01*
X28942Y-40422D01*
X28757Y-40422D01*
X29728Y-40850D02*
X29728Y-40580D01*
X29614Y-40580D01*
X29585Y-40593D01*
X29571Y-40605D01*
X29557Y-40631D01*
X29557Y-40670D01*
X29571Y-40695D01*
X29585Y-40708D01*
X29614Y-40721D01*
X29728Y-40721D01*
X29385Y-40695D02*
X29414Y-40683D01*
X29428Y-40670D01*
X29442Y-40644D01*
X29442Y-40631D01*
X29428Y-40605D01*
X29414Y-40593D01*
X29385Y-40580D01*
X29328Y-40580D01*
X29300Y-40593D01*
X29285Y-40605D01*
X29271Y-40631D01*
X29271Y-40644D01*
X29285Y-40670D01*
X29300Y-40683D01*
X29328Y-40695D01*
X29385Y-40695D01*
X29414Y-40708D01*
X29428Y-40721D01*
X29442Y-40747D01*
X29442Y-40798D01*
X29428Y-40824D01*
X29414Y-40837D01*
X29385Y-40850D01*
X29328Y-40850D01*
X29300Y-40837D01*
X29285Y-40824D01*
X29271Y-40798D01*
X29271Y-40747D01*
X29285Y-40721D01*
X29300Y-40708D01*
X29328Y-40695D01*
X29142Y-40824D02*
X29128Y-40837D01*
X29142Y-40850D01*
X29157Y-40837D01*
X29142Y-40824D01*
X29142Y-40850D01*
X29014Y-40605D02*
X29000Y-40593D01*
X28971Y-40580D01*
X28900Y-40580D01*
X28871Y-40593D01*
X28857Y-40605D01*
X28842Y-40631D01*
X28842Y-40657D01*
X28857Y-40695D01*
X29028Y-40850D01*
X28842Y-40850D01*
X29742Y-41409D02*
X29700Y-41422D01*
X29628Y-41422D01*
X29600Y-41409D01*
X29585Y-41396D01*
X29571Y-41370D01*
X29571Y-41345D01*
X29585Y-41319D01*
X29600Y-41306D01*
X29628Y-41293D01*
X29685Y-41280D01*
X29714Y-41267D01*
X29728Y-41255D01*
X29742Y-41229D01*
X29742Y-41203D01*
X29728Y-41177D01*
X29714Y-41165D01*
X29685Y-41152D01*
X29614Y-41152D01*
X29571Y-41165D01*
X29442Y-41422D02*
X29442Y-41152D01*
X29271Y-41422D01*
X29271Y-41152D01*
X29071Y-41152D02*
X29042Y-41152D01*
X29014Y-41165D01*
X29000Y-41177D01*
X28985Y-41203D01*
X28971Y-41255D01*
X28971Y-41319D01*
X28985Y-41370D01*
X29000Y-41396D01*
X29014Y-41409D01*
X29042Y-41422D01*
X29071Y-41422D01*
X29100Y-41409D01*
X29114Y-41396D01*
X29128Y-41370D01*
X29142Y-41319D01*
X29142Y-41255D01*
X29128Y-41203D01*
X29114Y-41177D01*
X29100Y-41165D01*
X29071Y-41152D01*
X28914Y-41447D02*
X28685Y-41447D01*
X28614Y-41280D02*
X28514Y-41280D01*
X28471Y-41422D02*
X28614Y-41422D01*
X28614Y-41152D01*
X28471Y-41152D01*
X28342Y-41422D02*
X28342Y-41152D01*
X28171Y-41422D01*
X28171Y-41152D01*
X29728Y-41850D02*
X29728Y-41580D01*
X29614Y-41580D01*
X29585Y-41593D01*
X29571Y-41605D01*
X29557Y-41631D01*
X29557Y-41670D01*
X29571Y-41695D01*
X29585Y-41708D01*
X29614Y-41721D01*
X29728Y-41721D01*
X29385Y-41695D02*
X29414Y-41683D01*
X29428Y-41670D01*
X29442Y-41644D01*
X29442Y-41631D01*
X29428Y-41605D01*
X29414Y-41593D01*
X29385Y-41580D01*
X29328Y-41580D01*
X29300Y-41593D01*
X29285Y-41605D01*
X29271Y-41631D01*
X29271Y-41644D01*
X29285Y-41670D01*
X29300Y-41683D01*
X29328Y-41695D01*
X29385Y-41695D01*
X29414Y-41708D01*
X29428Y-41721D01*
X29442Y-41747D01*
X29442Y-41798D01*
X29428Y-41824D01*
X29414Y-41837D01*
X29385Y-41850D01*
X29328Y-41850D01*
X29300Y-41837D01*
X29285Y-41824D01*
X29271Y-41798D01*
X29271Y-41747D01*
X29285Y-41721D01*
X29300Y-41708D01*
X29328Y-41695D01*
X29142Y-41824D02*
X29128Y-41837D01*
X29142Y-41850D01*
X29157Y-41837D01*
X29142Y-41824D01*
X29142Y-41850D01*
X29028Y-41580D02*
X28842Y-41580D01*
X28942Y-41683D01*
X28900Y-41683D01*
X28871Y-41695D01*
X28857Y-41708D01*
X28842Y-41734D01*
X28842Y-41798D01*
X28857Y-41824D01*
X28871Y-41837D01*
X28900Y-41850D01*
X28985Y-41850D01*
X29014Y-41837D01*
X29028Y-41824D01*
X29742Y-42409D02*
X29700Y-42422D01*
X29628Y-42422D01*
X29600Y-42409D01*
X29585Y-42396D01*
X29571Y-42370D01*
X29571Y-42345D01*
X29585Y-42319D01*
X29600Y-42306D01*
X29628Y-42293D01*
X29685Y-42280D01*
X29714Y-42267D01*
X29728Y-42255D01*
X29742Y-42229D01*
X29742Y-42203D01*
X29728Y-42177D01*
X29714Y-42165D01*
X29685Y-42152D01*
X29614Y-42152D01*
X29571Y-42165D01*
X29442Y-42422D02*
X29442Y-42152D01*
X29271Y-42422D01*
X29271Y-42152D01*
X28971Y-42422D02*
X29142Y-42422D01*
X29057Y-42422D02*
X29057Y-42152D01*
X29085Y-42190D01*
X29114Y-42216D01*
X29142Y-42229D01*
X28914Y-42447D02*
X28685Y-42447D01*
X28614Y-42280D02*
X28514Y-42280D01*
X28471Y-42422D02*
X28614Y-42422D01*
X28614Y-42152D01*
X28471Y-42152D01*
X28342Y-42422D02*
X28342Y-42152D01*
X28171Y-42422D01*
X28171Y-42152D01*
X29728Y-42850D02*
X29728Y-42580D01*
X29614Y-42580D01*
X29585Y-42593D01*
X29571Y-42605D01*
X29557Y-42631D01*
X29557Y-42670D01*
X29571Y-42695D01*
X29585Y-42708D01*
X29614Y-42721D01*
X29728Y-42721D01*
X29385Y-42695D02*
X29414Y-42683D01*
X29428Y-42670D01*
X29442Y-42644D01*
X29442Y-42631D01*
X29428Y-42605D01*
X29414Y-42593D01*
X29385Y-42580D01*
X29328Y-42580D01*
X29300Y-42593D01*
X29285Y-42605D01*
X29271Y-42631D01*
X29271Y-42644D01*
X29285Y-42670D01*
X29300Y-42683D01*
X29328Y-42695D01*
X29385Y-42695D01*
X29414Y-42708D01*
X29428Y-42721D01*
X29442Y-42747D01*
X29442Y-42798D01*
X29428Y-42824D01*
X29414Y-42837D01*
X29385Y-42850D01*
X29328Y-42850D01*
X29300Y-42837D01*
X29285Y-42824D01*
X29271Y-42798D01*
X29271Y-42747D01*
X29285Y-42721D01*
X29300Y-42708D01*
X29328Y-42695D01*
X29142Y-42824D02*
X29128Y-42837D01*
X29142Y-42850D01*
X29157Y-42837D01*
X29142Y-42824D01*
X29142Y-42850D01*
X28871Y-42670D02*
X28871Y-42850D01*
X28942Y-42567D02*
X29014Y-42760D01*
X28828Y-42760D01*
X29728Y-43422D02*
X29728Y-43152D01*
X29657Y-43152D01*
X29614Y-43165D01*
X29585Y-43190D01*
X29571Y-43216D01*
X29557Y-43267D01*
X29557Y-43306D01*
X29571Y-43357D01*
X29585Y-43383D01*
X29614Y-43409D01*
X29657Y-43422D01*
X29728Y-43422D01*
X29428Y-43422D02*
X29428Y-43152D01*
X29228Y-43152D02*
X29171Y-43152D01*
X29142Y-43165D01*
X29114Y-43190D01*
X29100Y-43242D01*
X29100Y-43332D01*
X29114Y-43383D01*
X29142Y-43409D01*
X29171Y-43422D01*
X29228Y-43422D01*
X29257Y-43409D01*
X29285Y-43383D01*
X29300Y-43332D01*
X29300Y-43242D01*
X29285Y-43190D01*
X29257Y-43165D01*
X29228Y-43152D01*
X28985Y-43177D02*
X28971Y-43165D01*
X28942Y-43152D01*
X28871Y-43152D01*
X28842Y-43165D01*
X28828Y-43177D01*
X28814Y-43203D01*
X28814Y-43229D01*
X28828Y-43267D01*
X29000Y-43422D01*
X28814Y-43422D01*
X29728Y-43850D02*
X29728Y-43580D01*
X29614Y-43580D01*
X29585Y-43593D01*
X29571Y-43605D01*
X29557Y-43631D01*
X29557Y-43670D01*
X29571Y-43695D01*
X29585Y-43708D01*
X29614Y-43721D01*
X29728Y-43721D01*
X29385Y-43695D02*
X29414Y-43683D01*
X29428Y-43670D01*
X29442Y-43644D01*
X29442Y-43631D01*
X29428Y-43605D01*
X29414Y-43593D01*
X29385Y-43580D01*
X29328Y-43580D01*
X29300Y-43593D01*
X29285Y-43605D01*
X29271Y-43631D01*
X29271Y-43644D01*
X29285Y-43670D01*
X29300Y-43683D01*
X29328Y-43695D01*
X29385Y-43695D01*
X29414Y-43708D01*
X29428Y-43721D01*
X29442Y-43747D01*
X29442Y-43798D01*
X29428Y-43824D01*
X29414Y-43837D01*
X29385Y-43850D01*
X29328Y-43850D01*
X29300Y-43837D01*
X29285Y-43824D01*
X29271Y-43798D01*
X29271Y-43747D01*
X29285Y-43721D01*
X29300Y-43708D01*
X29328Y-43695D01*
X29142Y-43824D02*
X29128Y-43837D01*
X29142Y-43850D01*
X29157Y-43837D01*
X29142Y-43824D01*
X29142Y-43850D01*
X28857Y-43580D02*
X29000Y-43580D01*
X29014Y-43708D01*
X29000Y-43695D01*
X28971Y-43683D01*
X28900Y-43683D01*
X28871Y-43695D01*
X28857Y-43708D01*
X28842Y-43734D01*
X28842Y-43798D01*
X28857Y-43824D01*
X28871Y-43837D01*
X28900Y-43850D01*
X28971Y-43850D01*
X29000Y-43837D01*
X29014Y-43824D01*
X29728Y-44422D02*
X29728Y-44152D01*
X29657Y-44152D01*
X29614Y-44165D01*
X29585Y-44190D01*
X29571Y-44216D01*
X29557Y-44267D01*
X29557Y-44306D01*
X29571Y-44357D01*
X29585Y-44383D01*
X29614Y-44409D01*
X29657Y-44422D01*
X29728Y-44422D01*
X29428Y-44422D02*
X29428Y-44152D01*
X29228Y-44152D02*
X29171Y-44152D01*
X29142Y-44165D01*
X29114Y-44190D01*
X29100Y-44242D01*
X29100Y-44332D01*
X29114Y-44383D01*
X29142Y-44409D01*
X29171Y-44422D01*
X29228Y-44422D01*
X29257Y-44409D01*
X29285Y-44383D01*
X29300Y-44332D01*
X29300Y-44242D01*
X29285Y-44190D01*
X29257Y-44165D01*
X29228Y-44152D01*
X29000Y-44152D02*
X28814Y-44152D01*
X28914Y-44255D01*
X28871Y-44255D01*
X28842Y-44267D01*
X28828Y-44280D01*
X28814Y-44306D01*
X28814Y-44370D01*
X28828Y-44396D01*
X28842Y-44409D01*
X28871Y-44422D01*
X28957Y-44422D01*
X28985Y-44409D01*
X29000Y-44396D01*
X29728Y-44850D02*
X29728Y-44580D01*
X29614Y-44580D01*
X29585Y-44593D01*
X29571Y-44605D01*
X29557Y-44631D01*
X29557Y-44670D01*
X29571Y-44695D01*
X29585Y-44708D01*
X29614Y-44721D01*
X29728Y-44721D01*
X29385Y-44695D02*
X29414Y-44683D01*
X29428Y-44670D01*
X29442Y-44644D01*
X29442Y-44631D01*
X29428Y-44605D01*
X29414Y-44593D01*
X29385Y-44580D01*
X29328Y-44580D01*
X29300Y-44593D01*
X29285Y-44605D01*
X29271Y-44631D01*
X29271Y-44644D01*
X29285Y-44670D01*
X29300Y-44683D01*
X29328Y-44695D01*
X29385Y-44695D01*
X29414Y-44708D01*
X29428Y-44721D01*
X29442Y-44747D01*
X29442Y-44798D01*
X29428Y-44824D01*
X29414Y-44837D01*
X29385Y-44850D01*
X29328Y-44850D01*
X29300Y-44837D01*
X29285Y-44824D01*
X29271Y-44798D01*
X29271Y-44747D01*
X29285Y-44721D01*
X29300Y-44708D01*
X29328Y-44695D01*
X29142Y-44824D02*
X29128Y-44837D01*
X29142Y-44850D01*
X29157Y-44837D01*
X29142Y-44824D01*
X29142Y-44850D01*
X28871Y-44580D02*
X28928Y-44580D01*
X28957Y-44593D01*
X28971Y-44605D01*
X29000Y-44644D01*
X29014Y-44695D01*
X29014Y-44798D01*
X29000Y-44824D01*
X28985Y-44837D01*
X28957Y-44850D01*
X28900Y-44850D01*
X28871Y-44837D01*
X28857Y-44824D01*
X28842Y-44798D01*
X28842Y-44734D01*
X28857Y-44708D01*
X28871Y-44695D01*
X28900Y-44683D01*
X28957Y-44683D01*
X28985Y-44695D01*
X29000Y-44708D01*
X29014Y-44734D01*
X29728Y-45422D02*
X29728Y-45152D01*
X29585Y-45422D02*
X29585Y-45152D01*
X29414Y-45422D01*
X29414Y-45152D01*
X29314Y-45152D02*
X29142Y-45152D01*
X29228Y-45422D02*
X29228Y-45152D01*
X28985Y-45152D02*
X28957Y-45152D01*
X28928Y-45165D01*
X28914Y-45177D01*
X28900Y-45203D01*
X28885Y-45255D01*
X28885Y-45319D01*
X28900Y-45370D01*
X28914Y-45396D01*
X28928Y-45409D01*
X28957Y-45422D01*
X28985Y-45422D01*
X29014Y-45409D01*
X29028Y-45396D01*
X29042Y-45370D01*
X29057Y-45319D01*
X29057Y-45255D01*
X29042Y-45203D01*
X29028Y-45177D01*
X29014Y-45165D01*
X28985Y-45152D01*
X29728Y-45850D02*
X29728Y-45580D01*
X29614Y-45580D01*
X29585Y-45593D01*
X29571Y-45605D01*
X29557Y-45631D01*
X29557Y-45670D01*
X29571Y-45695D01*
X29585Y-45708D01*
X29614Y-45721D01*
X29728Y-45721D01*
X29442Y-45605D02*
X29428Y-45593D01*
X29400Y-45580D01*
X29328Y-45580D01*
X29300Y-45593D01*
X29285Y-45605D01*
X29271Y-45631D01*
X29271Y-45657D01*
X29285Y-45695D01*
X29457Y-45850D01*
X29271Y-45850D01*
X29142Y-45824D02*
X29128Y-45837D01*
X29142Y-45850D01*
X29157Y-45837D01*
X29142Y-45824D01*
X29142Y-45850D01*
X28942Y-45580D02*
X28914Y-45580D01*
X28885Y-45593D01*
X28871Y-45605D01*
X28857Y-45631D01*
X28842Y-45683D01*
X28842Y-45747D01*
X28857Y-45798D01*
X28871Y-45824D01*
X28885Y-45837D01*
X28914Y-45850D01*
X28942Y-45850D01*
X28971Y-45837D01*
X28985Y-45824D01*
X29000Y-45798D01*
X29014Y-45747D01*
X29014Y-45683D01*
X29000Y-45631D01*
X28985Y-45605D01*
X28971Y-45593D01*
X28942Y-45580D01*
X29742Y-35345D02*
X29600Y-35345D01*
X29771Y-35422D02*
X29671Y-35152D01*
X29571Y-35422D01*
X29471Y-35422D02*
X29471Y-35152D01*
X29400Y-35152D01*
X29357Y-35165D01*
X29328Y-35190D01*
X29314Y-35216D01*
X29300Y-35267D01*
X29300Y-35306D01*
X29314Y-35357D01*
X29328Y-35383D01*
X29357Y-35409D01*
X29400Y-35422D01*
X29471Y-35422D01*
X29000Y-35396D02*
X29014Y-35409D01*
X29057Y-35422D01*
X29085Y-35422D01*
X29128Y-35409D01*
X29157Y-35383D01*
X29171Y-35357D01*
X29185Y-35306D01*
X29185Y-35267D01*
X29171Y-35216D01*
X29157Y-35190D01*
X29128Y-35165D01*
X29085Y-35152D01*
X29057Y-35152D01*
X29014Y-35165D01*
X29000Y-35177D01*
X28742Y-35152D02*
X28800Y-35152D01*
X28828Y-35165D01*
X28842Y-35177D01*
X28871Y-35216D01*
X28885Y-35267D01*
X28885Y-35370D01*
X28871Y-35396D01*
X28857Y-35409D01*
X28828Y-35422D01*
X28771Y-35422D01*
X28742Y-35409D01*
X28728Y-35396D01*
X28714Y-35370D01*
X28714Y-35306D01*
X28728Y-35280D01*
X28742Y-35267D01*
X28771Y-35255D01*
X28828Y-35255D01*
X28857Y-35267D01*
X28871Y-35280D01*
X28885Y-35306D01*
X29728Y-35850D02*
X29728Y-35580D01*
X29614Y-35580D01*
X29585Y-35593D01*
X29571Y-35605D01*
X29557Y-35631D01*
X29557Y-35670D01*
X29571Y-35695D01*
X29585Y-35708D01*
X29614Y-35721D01*
X29728Y-35721D01*
X29300Y-35580D02*
X29357Y-35580D01*
X29385Y-35593D01*
X29400Y-35605D01*
X29428Y-35644D01*
X29442Y-35695D01*
X29442Y-35798D01*
X29428Y-35824D01*
X29414Y-35837D01*
X29385Y-35850D01*
X29328Y-35850D01*
X29300Y-35837D01*
X29285Y-35824D01*
X29271Y-35798D01*
X29271Y-35734D01*
X29285Y-35708D01*
X29300Y-35695D01*
X29328Y-35683D01*
X29385Y-35683D01*
X29414Y-35695D01*
X29428Y-35708D01*
X29442Y-35734D01*
X29142Y-35824D02*
X29128Y-35837D01*
X29142Y-35850D01*
X29157Y-35837D01*
X29142Y-35824D01*
X29142Y-35850D01*
X28871Y-35580D02*
X28928Y-35580D01*
X28957Y-35593D01*
X28971Y-35605D01*
X29000Y-35644D01*
X29014Y-35695D01*
X29014Y-35798D01*
X29000Y-35824D01*
X28985Y-35837D01*
X28957Y-35850D01*
X28900Y-35850D01*
X28871Y-35837D01*
X28857Y-35824D01*
X28842Y-35798D01*
X28842Y-35734D01*
X28857Y-35708D01*
X28871Y-35695D01*
X28900Y-35683D01*
X28957Y-35683D01*
X28985Y-35695D01*
X29000Y-35708D01*
X29014Y-35734D01*
G54D14*
X29850Y-32200D02*
X29850Y-33800D01*
X29850Y-34200D02*
X29850Y-35800D01*
X29850Y-36200D02*
X29850Y-37800D01*
X29850Y-38200D02*
X29850Y-40800D01*
X29850Y-41200D02*
X29850Y-42800D01*
X29850Y-43200D02*
X29850Y-44800D01*
X29850Y-45200D02*
X29850Y-45800D01*
G54D13*
X15099Y-35422D02*
X15099Y-35152D01*
X14957Y-35422D02*
X14957Y-35152D01*
X14785Y-35422D01*
X14785Y-35152D01*
X14685Y-35152D02*
X14514Y-35152D01*
X14599Y-35422D02*
X14599Y-35152D01*
X14285Y-35242D02*
X14285Y-35422D01*
X14357Y-35139D02*
X14428Y-35332D01*
X14242Y-35332D01*
X15142Y-35850D02*
X15142Y-35580D01*
X15028Y-35580D01*
X14999Y-35593D01*
X14985Y-35605D01*
X14971Y-35631D01*
X14971Y-35670D01*
X14985Y-35695D01*
X14999Y-35708D01*
X15028Y-35721D01*
X15142Y-35721D01*
X14857Y-35605D02*
X14842Y-35593D01*
X14814Y-35580D01*
X14742Y-35580D01*
X14714Y-35593D01*
X14699Y-35605D01*
X14685Y-35631D01*
X14685Y-35657D01*
X14699Y-35695D01*
X14871Y-35850D01*
X14685Y-35850D01*
X14557Y-35824D02*
X14542Y-35837D01*
X14557Y-35850D01*
X14571Y-35837D01*
X14557Y-35824D01*
X14557Y-35850D01*
X14442Y-35580D02*
X14242Y-35580D01*
X14371Y-35850D01*
X14422Y-45885D02*
X14422Y-45700D01*
X14320Y-45800D01*
X14320Y-45757D01*
X14307Y-45728D01*
X14294Y-45714D01*
X14268Y-45700D01*
X14204Y-45700D01*
X14178Y-45714D01*
X14165Y-45728D01*
X14152Y-45757D01*
X14152Y-45842D01*
X14165Y-45871D01*
X14178Y-45885D01*
X14422Y-45614D02*
X14152Y-45514D01*
X14422Y-45414D01*
X14422Y-45342D02*
X14422Y-45157D01*
X14320Y-45257D01*
X14320Y-45214D01*
X14307Y-45185D01*
X14294Y-45171D01*
X14268Y-45157D01*
X14204Y-45157D01*
X14178Y-45171D01*
X14165Y-45185D01*
X14152Y-45214D01*
X14152Y-45300D01*
X14165Y-45328D01*
X14178Y-45342D01*
X14410Y-44735D02*
X14422Y-44764D01*
X14422Y-44807D01*
X14410Y-44850D01*
X14384Y-44878D01*
X14358Y-44892D01*
X14307Y-44907D01*
X14268Y-44907D01*
X14217Y-44892D01*
X14191Y-44878D01*
X14165Y-44850D01*
X14152Y-44807D01*
X14152Y-44778D01*
X14165Y-44735D01*
X14178Y-44721D01*
X14268Y-44721D01*
X14268Y-44778D01*
X14152Y-44592D02*
X14422Y-44592D01*
X14152Y-44421D01*
X14422Y-44421D01*
X14152Y-44278D02*
X14422Y-44278D01*
X14422Y-44207D01*
X14410Y-44164D01*
X14384Y-44135D01*
X14358Y-44121D01*
X14307Y-44107D01*
X14268Y-44107D01*
X14217Y-44121D01*
X14191Y-44135D01*
X14165Y-44164D01*
X14152Y-44207D01*
X14152Y-44278D01*
X15285Y-43345D02*
X15142Y-43345D01*
X15314Y-43422D02*
X15214Y-43152D01*
X15114Y-43422D01*
X15014Y-43422D02*
X15014Y-43152D01*
X14942Y-43152D01*
X14900Y-43165D01*
X14871Y-43190D01*
X14857Y-43216D01*
X14842Y-43267D01*
X14842Y-43306D01*
X14857Y-43357D01*
X14871Y-43383D01*
X14900Y-43409D01*
X14942Y-43422D01*
X15014Y-43422D01*
X14542Y-43396D02*
X14557Y-43409D01*
X14600Y-43422D01*
X14628Y-43422D01*
X14671Y-43409D01*
X14700Y-43383D01*
X14714Y-43357D01*
X14728Y-43306D01*
X14728Y-43267D01*
X14714Y-43216D01*
X14700Y-43190D01*
X14671Y-43165D01*
X14628Y-43152D01*
X14600Y-43152D01*
X14557Y-43165D01*
X14542Y-43177D01*
X14357Y-43152D02*
X14328Y-43152D01*
X14300Y-43165D01*
X14285Y-43177D01*
X14271Y-43203D01*
X14257Y-43255D01*
X14257Y-43319D01*
X14271Y-43370D01*
X14285Y-43396D01*
X14300Y-43409D01*
X14328Y-43422D01*
X14357Y-43422D01*
X14385Y-43409D01*
X14400Y-43396D01*
X14414Y-43370D01*
X14428Y-43319D01*
X14428Y-43255D01*
X14414Y-43203D01*
X14400Y-43177D01*
X14385Y-43165D01*
X14357Y-43152D01*
X15142Y-43850D02*
X15142Y-43580D01*
X15028Y-43580D01*
X14999Y-43593D01*
X14985Y-43605D01*
X14971Y-43631D01*
X14971Y-43670D01*
X14985Y-43695D01*
X14999Y-43708D01*
X15028Y-43721D01*
X15142Y-43721D01*
X14714Y-43580D02*
X14771Y-43580D01*
X14799Y-43593D01*
X14814Y-43605D01*
X14842Y-43644D01*
X14857Y-43695D01*
X14857Y-43798D01*
X14842Y-43824D01*
X14828Y-43837D01*
X14799Y-43850D01*
X14742Y-43850D01*
X14714Y-43837D01*
X14699Y-43824D01*
X14685Y-43798D01*
X14685Y-43734D01*
X14699Y-43708D01*
X14714Y-43695D01*
X14742Y-43683D01*
X14799Y-43683D01*
X14828Y-43695D01*
X14842Y-43708D01*
X14857Y-43734D01*
X14557Y-43824D02*
X14542Y-43837D01*
X14557Y-43850D01*
X14571Y-43837D01*
X14557Y-43824D01*
X14557Y-43850D01*
X14357Y-43580D02*
X14328Y-43580D01*
X14300Y-43593D01*
X14285Y-43605D01*
X14271Y-43631D01*
X14257Y-43683D01*
X14257Y-43747D01*
X14271Y-43798D01*
X14285Y-43824D01*
X14300Y-43837D01*
X14328Y-43850D01*
X14357Y-43850D01*
X14385Y-43837D01*
X14400Y-43824D01*
X14414Y-43798D01*
X14428Y-43747D01*
X14428Y-43683D01*
X14414Y-43631D01*
X14400Y-43605D01*
X14385Y-43593D01*
X14357Y-43580D01*
X15285Y-42345D02*
X15142Y-42345D01*
X15314Y-42422D02*
X15214Y-42152D01*
X15114Y-42422D01*
X15014Y-42422D02*
X15014Y-42152D01*
X14942Y-42152D01*
X14900Y-42165D01*
X14871Y-42190D01*
X14857Y-42216D01*
X14842Y-42267D01*
X14842Y-42306D01*
X14857Y-42357D01*
X14871Y-42383D01*
X14900Y-42409D01*
X14942Y-42422D01*
X15014Y-42422D01*
X14542Y-42396D02*
X14557Y-42409D01*
X14600Y-42422D01*
X14628Y-42422D01*
X14671Y-42409D01*
X14700Y-42383D01*
X14714Y-42357D01*
X14728Y-42306D01*
X14728Y-42267D01*
X14714Y-42216D01*
X14700Y-42190D01*
X14671Y-42165D01*
X14628Y-42152D01*
X14600Y-42152D01*
X14557Y-42165D01*
X14542Y-42177D01*
X14257Y-42422D02*
X14428Y-42422D01*
X14342Y-42422D02*
X14342Y-42152D01*
X14371Y-42190D01*
X14400Y-42216D01*
X14428Y-42229D01*
X15142Y-42850D02*
X15142Y-42580D01*
X15028Y-42580D01*
X14999Y-42593D01*
X14985Y-42605D01*
X14971Y-42631D01*
X14971Y-42670D01*
X14985Y-42695D01*
X14999Y-42708D01*
X15028Y-42721D01*
X15142Y-42721D01*
X14714Y-42580D02*
X14771Y-42580D01*
X14799Y-42593D01*
X14814Y-42605D01*
X14842Y-42644D01*
X14857Y-42695D01*
X14857Y-42798D01*
X14842Y-42824D01*
X14828Y-42837D01*
X14799Y-42850D01*
X14742Y-42850D01*
X14714Y-42837D01*
X14699Y-42824D01*
X14685Y-42798D01*
X14685Y-42734D01*
X14699Y-42708D01*
X14714Y-42695D01*
X14742Y-42683D01*
X14799Y-42683D01*
X14828Y-42695D01*
X14842Y-42708D01*
X14857Y-42734D01*
X14557Y-42824D02*
X14542Y-42837D01*
X14557Y-42850D01*
X14571Y-42837D01*
X14557Y-42824D01*
X14557Y-42850D01*
X14257Y-42850D02*
X14428Y-42850D01*
X14342Y-42850D02*
X14342Y-42580D01*
X14371Y-42618D01*
X14400Y-42644D01*
X14428Y-42657D01*
X15285Y-41345D02*
X15142Y-41345D01*
X15314Y-41422D02*
X15214Y-41152D01*
X15114Y-41422D01*
X15014Y-41422D02*
X15014Y-41152D01*
X14942Y-41152D01*
X14900Y-41165D01*
X14871Y-41190D01*
X14857Y-41216D01*
X14842Y-41267D01*
X14842Y-41306D01*
X14857Y-41357D01*
X14871Y-41383D01*
X14900Y-41409D01*
X14942Y-41422D01*
X15014Y-41422D01*
X14542Y-41396D02*
X14557Y-41409D01*
X14600Y-41422D01*
X14628Y-41422D01*
X14671Y-41409D01*
X14700Y-41383D01*
X14714Y-41357D01*
X14728Y-41306D01*
X14728Y-41267D01*
X14714Y-41216D01*
X14700Y-41190D01*
X14671Y-41165D01*
X14628Y-41152D01*
X14600Y-41152D01*
X14557Y-41165D01*
X14542Y-41177D01*
X14428Y-41177D02*
X14414Y-41165D01*
X14385Y-41152D01*
X14314Y-41152D01*
X14285Y-41165D01*
X14271Y-41177D01*
X14257Y-41203D01*
X14257Y-41229D01*
X14271Y-41267D01*
X14442Y-41422D01*
X14257Y-41422D01*
X15142Y-41850D02*
X15142Y-41580D01*
X15028Y-41580D01*
X14999Y-41593D01*
X14985Y-41605D01*
X14971Y-41631D01*
X14971Y-41670D01*
X14985Y-41695D01*
X14999Y-41708D01*
X15028Y-41721D01*
X15142Y-41721D01*
X14714Y-41580D02*
X14771Y-41580D01*
X14799Y-41593D01*
X14814Y-41605D01*
X14842Y-41644D01*
X14857Y-41695D01*
X14857Y-41798D01*
X14842Y-41824D01*
X14828Y-41837D01*
X14799Y-41850D01*
X14742Y-41850D01*
X14714Y-41837D01*
X14699Y-41824D01*
X14685Y-41798D01*
X14685Y-41734D01*
X14699Y-41708D01*
X14714Y-41695D01*
X14742Y-41683D01*
X14799Y-41683D01*
X14828Y-41695D01*
X14842Y-41708D01*
X14857Y-41734D01*
X14557Y-41824D02*
X14542Y-41837D01*
X14557Y-41850D01*
X14571Y-41837D01*
X14557Y-41824D01*
X14557Y-41850D01*
X14428Y-41605D02*
X14414Y-41593D01*
X14385Y-41580D01*
X14314Y-41580D01*
X14285Y-41593D01*
X14271Y-41605D01*
X14257Y-41631D01*
X14257Y-41657D01*
X14271Y-41695D01*
X14442Y-41850D01*
X14257Y-41850D01*
X15285Y-40345D02*
X15142Y-40345D01*
X15314Y-40422D02*
X15214Y-40152D01*
X15114Y-40422D01*
X15014Y-40422D02*
X15014Y-40152D01*
X14942Y-40152D01*
X14900Y-40165D01*
X14871Y-40190D01*
X14857Y-40216D01*
X14842Y-40267D01*
X14842Y-40306D01*
X14857Y-40357D01*
X14871Y-40383D01*
X14900Y-40409D01*
X14942Y-40422D01*
X15014Y-40422D01*
X14542Y-40396D02*
X14557Y-40409D01*
X14600Y-40422D01*
X14628Y-40422D01*
X14671Y-40409D01*
X14700Y-40383D01*
X14714Y-40357D01*
X14728Y-40306D01*
X14728Y-40267D01*
X14714Y-40216D01*
X14700Y-40190D01*
X14671Y-40165D01*
X14628Y-40152D01*
X14600Y-40152D01*
X14557Y-40165D01*
X14542Y-40177D01*
X14442Y-40152D02*
X14257Y-40152D01*
X14357Y-40255D01*
X14314Y-40255D01*
X14285Y-40267D01*
X14271Y-40280D01*
X14257Y-40306D01*
X14257Y-40370D01*
X14271Y-40396D01*
X14285Y-40409D01*
X14314Y-40422D01*
X14400Y-40422D01*
X14428Y-40409D01*
X14442Y-40396D01*
X15142Y-40850D02*
X15142Y-40580D01*
X15028Y-40580D01*
X14999Y-40593D01*
X14985Y-40605D01*
X14971Y-40631D01*
X14971Y-40670D01*
X14985Y-40695D01*
X14999Y-40708D01*
X15028Y-40721D01*
X15142Y-40721D01*
X14714Y-40580D02*
X14771Y-40580D01*
X14799Y-40593D01*
X14814Y-40605D01*
X14842Y-40644D01*
X14857Y-40695D01*
X14857Y-40798D01*
X14842Y-40824D01*
X14828Y-40837D01*
X14799Y-40850D01*
X14742Y-40850D01*
X14714Y-40837D01*
X14699Y-40824D01*
X14685Y-40798D01*
X14685Y-40734D01*
X14699Y-40708D01*
X14714Y-40695D01*
X14742Y-40683D01*
X14799Y-40683D01*
X14828Y-40695D01*
X14842Y-40708D01*
X14857Y-40734D01*
X14557Y-40824D02*
X14542Y-40837D01*
X14557Y-40850D01*
X14571Y-40837D01*
X14557Y-40824D01*
X14557Y-40850D01*
X14442Y-40580D02*
X14257Y-40580D01*
X14357Y-40683D01*
X14314Y-40683D01*
X14285Y-40695D01*
X14271Y-40708D01*
X14257Y-40734D01*
X14257Y-40798D01*
X14271Y-40824D01*
X14285Y-40837D01*
X14314Y-40850D01*
X14400Y-40850D01*
X14428Y-40837D01*
X14442Y-40824D01*
X15285Y-39345D02*
X15142Y-39345D01*
X15314Y-39422D02*
X15214Y-39152D01*
X15114Y-39422D01*
X15014Y-39422D02*
X15014Y-39152D01*
X14942Y-39152D01*
X14900Y-39165D01*
X14871Y-39190D01*
X14857Y-39216D01*
X14842Y-39267D01*
X14842Y-39306D01*
X14857Y-39357D01*
X14871Y-39383D01*
X14900Y-39409D01*
X14942Y-39422D01*
X15014Y-39422D01*
X14542Y-39396D02*
X14557Y-39409D01*
X14600Y-39422D01*
X14628Y-39422D01*
X14671Y-39409D01*
X14700Y-39383D01*
X14714Y-39357D01*
X14728Y-39306D01*
X14728Y-39267D01*
X14714Y-39216D01*
X14700Y-39190D01*
X14671Y-39165D01*
X14628Y-39152D01*
X14600Y-39152D01*
X14557Y-39165D01*
X14542Y-39177D01*
X14285Y-39242D02*
X14285Y-39422D01*
X14357Y-39139D02*
X14428Y-39332D01*
X14242Y-39332D01*
X15142Y-39850D02*
X15142Y-39580D01*
X15028Y-39580D01*
X14999Y-39593D01*
X14985Y-39605D01*
X14971Y-39631D01*
X14971Y-39670D01*
X14985Y-39695D01*
X14999Y-39708D01*
X15028Y-39721D01*
X15142Y-39721D01*
X14714Y-39580D02*
X14771Y-39580D01*
X14799Y-39593D01*
X14814Y-39605D01*
X14842Y-39644D01*
X14857Y-39695D01*
X14857Y-39798D01*
X14842Y-39824D01*
X14828Y-39837D01*
X14799Y-39850D01*
X14742Y-39850D01*
X14714Y-39837D01*
X14699Y-39824D01*
X14685Y-39798D01*
X14685Y-39734D01*
X14699Y-39708D01*
X14714Y-39695D01*
X14742Y-39683D01*
X14799Y-39683D01*
X14828Y-39695D01*
X14842Y-39708D01*
X14857Y-39734D01*
X14557Y-39824D02*
X14542Y-39837D01*
X14557Y-39850D01*
X14571Y-39837D01*
X14557Y-39824D01*
X14557Y-39850D01*
X14285Y-39670D02*
X14285Y-39850D01*
X14357Y-39567D02*
X14428Y-39760D01*
X14242Y-39760D01*
X15657Y-38621D02*
X15671Y-38634D01*
X15714Y-38647D01*
X15742Y-38647D01*
X15785Y-38634D01*
X15814Y-38608D01*
X15828Y-38582D01*
X15842Y-38531D01*
X15842Y-38492D01*
X15828Y-38441D01*
X15814Y-38415D01*
X15785Y-38390D01*
X15742Y-38377D01*
X15714Y-38377D01*
X15671Y-38390D01*
X15657Y-38402D01*
X15385Y-38647D02*
X15528Y-38647D01*
X15528Y-38377D01*
X15285Y-38647D02*
X15285Y-38377D01*
X15114Y-38647D02*
X15242Y-38492D01*
X15114Y-38377D02*
X15285Y-38531D01*
X14928Y-38377D02*
X14871Y-38377D01*
X14842Y-38390D01*
X14814Y-38415D01*
X14800Y-38467D01*
X14800Y-38557D01*
X14814Y-38608D01*
X14842Y-38634D01*
X14871Y-38647D01*
X14928Y-38647D01*
X14957Y-38634D01*
X14985Y-38608D01*
X15000Y-38557D01*
X15000Y-38467D01*
X14985Y-38415D01*
X14957Y-38390D01*
X14928Y-38377D01*
X14671Y-38377D02*
X14671Y-38595D01*
X14657Y-38621D01*
X14642Y-38634D01*
X14614Y-38647D01*
X14557Y-38647D01*
X14528Y-38634D01*
X14514Y-38621D01*
X14500Y-38595D01*
X14500Y-38377D01*
X14400Y-38377D02*
X14228Y-38377D01*
X14314Y-38647D02*
X14314Y-38377D01*
X16957Y-37152D02*
X16785Y-37152D01*
X16871Y-37422D02*
X16871Y-37152D01*
X16714Y-37152D02*
X16514Y-37422D01*
X16514Y-37152D02*
X16714Y-37422D01*
X16399Y-37422D02*
X16399Y-37152D01*
X16328Y-37152D01*
X16285Y-37165D01*
X16257Y-37190D01*
X16242Y-37216D01*
X16228Y-37267D01*
X16228Y-37306D01*
X16242Y-37357D01*
X16257Y-37383D01*
X16285Y-37409D01*
X16328Y-37422D01*
X16399Y-37422D01*
X16114Y-37177D02*
X16099Y-37165D01*
X16071Y-37152D01*
X15999Y-37152D01*
X15971Y-37165D01*
X15957Y-37177D01*
X15942Y-37203D01*
X15942Y-37229D01*
X15957Y-37267D01*
X16128Y-37422D01*
X15942Y-37422D01*
X15600Y-37139D02*
X15857Y-37486D01*
X15499Y-37422D02*
X15499Y-37152D01*
X15399Y-37345D01*
X15299Y-37152D01*
X15299Y-37422D01*
X15100Y-37152D02*
X15042Y-37152D01*
X15014Y-37165D01*
X14985Y-37190D01*
X14971Y-37242D01*
X14971Y-37332D01*
X14985Y-37383D01*
X15014Y-37409D01*
X15042Y-37422D01*
X15100Y-37422D01*
X15128Y-37409D01*
X15157Y-37383D01*
X15171Y-37332D01*
X15171Y-37242D01*
X15157Y-37190D01*
X15128Y-37165D01*
X15100Y-37152D01*
X14857Y-37409D02*
X14814Y-37422D01*
X14742Y-37422D01*
X14714Y-37409D01*
X14699Y-37396D01*
X14685Y-37370D01*
X14685Y-37345D01*
X14699Y-37319D01*
X14714Y-37306D01*
X14742Y-37293D01*
X14799Y-37280D01*
X14828Y-37267D01*
X14842Y-37255D01*
X14857Y-37229D01*
X14857Y-37203D01*
X14842Y-37177D01*
X14828Y-37165D01*
X14799Y-37152D01*
X14728Y-37152D01*
X14685Y-37165D01*
X14557Y-37422D02*
X14557Y-37152D01*
X14442Y-37152D02*
X14257Y-37152D01*
X14357Y-37255D01*
X14314Y-37255D01*
X14285Y-37267D01*
X14271Y-37280D01*
X14257Y-37306D01*
X14257Y-37370D01*
X14271Y-37396D01*
X14285Y-37409D01*
X14314Y-37422D01*
X14400Y-37422D01*
X14428Y-37409D01*
X14442Y-37396D01*
X15142Y-37850D02*
X15142Y-37580D01*
X15028Y-37580D01*
X14999Y-37593D01*
X14985Y-37605D01*
X14971Y-37631D01*
X14971Y-37670D01*
X14985Y-37695D01*
X14999Y-37708D01*
X15028Y-37721D01*
X15142Y-37721D01*
X14699Y-37580D02*
X14842Y-37580D01*
X14857Y-37708D01*
X14842Y-37695D01*
X14814Y-37683D01*
X14742Y-37683D01*
X14714Y-37695D01*
X14699Y-37708D01*
X14685Y-37734D01*
X14685Y-37798D01*
X14699Y-37824D01*
X14714Y-37837D01*
X14742Y-37850D01*
X14814Y-37850D01*
X14842Y-37837D01*
X14857Y-37824D01*
X14557Y-37824D02*
X14542Y-37837D01*
X14557Y-37850D01*
X14571Y-37837D01*
X14557Y-37824D01*
X14557Y-37850D01*
X14285Y-37580D02*
X14342Y-37580D01*
X14371Y-37593D01*
X14385Y-37605D01*
X14414Y-37644D01*
X14428Y-37695D01*
X14428Y-37798D01*
X14414Y-37824D01*
X14400Y-37837D01*
X14371Y-37850D01*
X14314Y-37850D01*
X14285Y-37837D01*
X14271Y-37824D01*
X14257Y-37798D01*
X14257Y-37734D01*
X14271Y-37708D01*
X14285Y-37695D01*
X14314Y-37683D01*
X14371Y-37683D01*
X14400Y-37695D01*
X14414Y-37708D01*
X14428Y-37734D01*
X16814Y-36422D02*
X16914Y-36293D01*
X16985Y-36422D02*
X16985Y-36152D01*
X16871Y-36152D01*
X16842Y-36165D01*
X16828Y-36177D01*
X16814Y-36203D01*
X16814Y-36242D01*
X16828Y-36267D01*
X16842Y-36280D01*
X16871Y-36293D01*
X16985Y-36293D01*
X16714Y-36152D02*
X16514Y-36422D01*
X16514Y-36152D02*
X16714Y-36422D01*
X16399Y-36422D02*
X16399Y-36152D01*
X16328Y-36152D01*
X16285Y-36165D01*
X16257Y-36190D01*
X16242Y-36216D01*
X16228Y-36267D01*
X16228Y-36306D01*
X16242Y-36357D01*
X16257Y-36383D01*
X16285Y-36409D01*
X16328Y-36422D01*
X16399Y-36422D01*
X16114Y-36177D02*
X16099Y-36165D01*
X16071Y-36152D01*
X15999Y-36152D01*
X15971Y-36165D01*
X15957Y-36177D01*
X15942Y-36203D01*
X15942Y-36229D01*
X15957Y-36267D01*
X16128Y-36422D01*
X15942Y-36422D01*
X15600Y-36139D02*
X15857Y-36486D01*
X15499Y-36422D02*
X15499Y-36152D01*
X15399Y-36345D01*
X15299Y-36152D01*
X15299Y-36422D01*
X15157Y-36422D02*
X15157Y-36152D01*
X15028Y-36409D02*
X14985Y-36422D01*
X14914Y-36422D01*
X14885Y-36409D01*
X14871Y-36396D01*
X14857Y-36370D01*
X14857Y-36345D01*
X14871Y-36319D01*
X14885Y-36306D01*
X14914Y-36293D01*
X14971Y-36280D01*
X15000Y-36267D01*
X15014Y-36255D01*
X15028Y-36229D01*
X15028Y-36203D01*
X15014Y-36177D01*
X15000Y-36165D01*
X14971Y-36152D01*
X14900Y-36152D01*
X14857Y-36165D01*
X14671Y-36152D02*
X14614Y-36152D01*
X14585Y-36165D01*
X14557Y-36190D01*
X14542Y-36242D01*
X14542Y-36332D01*
X14557Y-36383D01*
X14585Y-36409D01*
X14614Y-36422D01*
X14671Y-36422D01*
X14700Y-36409D01*
X14728Y-36383D01*
X14742Y-36332D01*
X14742Y-36242D01*
X14728Y-36190D01*
X14700Y-36165D01*
X14671Y-36152D01*
X14442Y-36152D02*
X14257Y-36152D01*
X14357Y-36255D01*
X14314Y-36255D01*
X14285Y-36267D01*
X14271Y-36280D01*
X14257Y-36306D01*
X14257Y-36370D01*
X14271Y-36396D01*
X14285Y-36409D01*
X14314Y-36422D01*
X14400Y-36422D01*
X14428Y-36409D01*
X14442Y-36396D01*
X15142Y-36850D02*
X15142Y-36580D01*
X15028Y-36580D01*
X14999Y-36593D01*
X14985Y-36605D01*
X14971Y-36631D01*
X14971Y-36670D01*
X14985Y-36695D01*
X14999Y-36708D01*
X15028Y-36721D01*
X15142Y-36721D01*
X14699Y-36580D02*
X14842Y-36580D01*
X14857Y-36708D01*
X14842Y-36695D01*
X14814Y-36683D01*
X14742Y-36683D01*
X14714Y-36695D01*
X14699Y-36708D01*
X14685Y-36734D01*
X14685Y-36798D01*
X14699Y-36824D01*
X14714Y-36837D01*
X14742Y-36850D01*
X14814Y-36850D01*
X14842Y-36837D01*
X14857Y-36824D01*
X14557Y-36824D02*
X14542Y-36837D01*
X14557Y-36850D01*
X14571Y-36837D01*
X14557Y-36824D01*
X14557Y-36850D01*
X14442Y-36580D02*
X14242Y-36580D01*
X14371Y-36850D01*
X15099Y-34422D02*
X15099Y-34152D01*
X14957Y-34422D02*
X14957Y-34152D01*
X14785Y-34422D01*
X14785Y-34152D01*
X14685Y-34152D02*
X14514Y-34152D01*
X14599Y-34422D02*
X14599Y-34152D01*
X14442Y-34152D02*
X14257Y-34152D01*
X14357Y-34255D01*
X14314Y-34255D01*
X14285Y-34267D01*
X14271Y-34280D01*
X14257Y-34306D01*
X14257Y-34370D01*
X14271Y-34396D01*
X14285Y-34409D01*
X14314Y-34422D01*
X14400Y-34422D01*
X14428Y-34409D01*
X14442Y-34396D01*
X15142Y-34850D02*
X15142Y-34580D01*
X15028Y-34580D01*
X14999Y-34593D01*
X14985Y-34605D01*
X14971Y-34631D01*
X14971Y-34670D01*
X14985Y-34695D01*
X14999Y-34708D01*
X15028Y-34721D01*
X15142Y-34721D01*
X14857Y-34605D02*
X14842Y-34593D01*
X14814Y-34580D01*
X14742Y-34580D01*
X14714Y-34593D01*
X14699Y-34605D01*
X14685Y-34631D01*
X14685Y-34657D01*
X14699Y-34695D01*
X14871Y-34850D01*
X14685Y-34850D01*
X14557Y-34824D02*
X14542Y-34837D01*
X14557Y-34850D01*
X14571Y-34837D01*
X14557Y-34824D01*
X14557Y-34850D01*
X14285Y-34580D02*
X14342Y-34580D01*
X14371Y-34593D01*
X14385Y-34605D01*
X14414Y-34644D01*
X14428Y-34695D01*
X14428Y-34798D01*
X14414Y-34824D01*
X14400Y-34837D01*
X14371Y-34850D01*
X14314Y-34850D01*
X14285Y-34837D01*
X14271Y-34824D01*
X14257Y-34798D01*
X14257Y-34734D01*
X14271Y-34708D01*
X14285Y-34695D01*
X14314Y-34683D01*
X14371Y-34683D01*
X14400Y-34695D01*
X14414Y-34708D01*
X14428Y-34734D01*
X15628Y-33152D02*
X15528Y-33422D01*
X15428Y-33152D01*
X15157Y-33422D02*
X15257Y-33293D01*
X15328Y-33422D02*
X15328Y-33152D01*
X15214Y-33152D01*
X15185Y-33165D01*
X15171Y-33177D01*
X15157Y-33203D01*
X15157Y-33242D01*
X15171Y-33267D01*
X15185Y-33280D01*
X15214Y-33293D01*
X15328Y-33293D01*
X15028Y-33280D02*
X14928Y-33280D01*
X14885Y-33422D02*
X15028Y-33422D01*
X15028Y-33152D01*
X14885Y-33152D01*
X14657Y-33280D02*
X14757Y-33280D01*
X14757Y-33422D02*
X14757Y-33152D01*
X14614Y-33152D01*
X14500Y-33319D02*
X14271Y-33319D01*
X14385Y-33422D02*
X14385Y-33216D01*
X15142Y-33850D02*
X15142Y-33580D01*
X15028Y-33580D01*
X14999Y-33593D01*
X14985Y-33605D01*
X14971Y-33631D01*
X14971Y-33670D01*
X14985Y-33695D01*
X14999Y-33708D01*
X15028Y-33721D01*
X15142Y-33721D01*
X14699Y-33580D02*
X14842Y-33580D01*
X14857Y-33708D01*
X14842Y-33695D01*
X14814Y-33683D01*
X14742Y-33683D01*
X14714Y-33695D01*
X14699Y-33708D01*
X14685Y-33734D01*
X14685Y-33798D01*
X14699Y-33824D01*
X14714Y-33837D01*
X14742Y-33850D01*
X14814Y-33850D01*
X14842Y-33837D01*
X14857Y-33824D01*
X14557Y-33824D02*
X14542Y-33837D01*
X14557Y-33850D01*
X14571Y-33837D01*
X14557Y-33824D01*
X14557Y-33850D01*
X14357Y-33580D02*
X14328Y-33580D01*
X14300Y-33593D01*
X14285Y-33605D01*
X14271Y-33631D01*
X14257Y-33683D01*
X14257Y-33747D01*
X14271Y-33798D01*
X14285Y-33824D01*
X14300Y-33837D01*
X14328Y-33850D01*
X14357Y-33850D01*
X14385Y-33837D01*
X14400Y-33824D01*
X14414Y-33798D01*
X14428Y-33747D01*
X14428Y-33683D01*
X14414Y-33631D01*
X14400Y-33605D01*
X14385Y-33593D01*
X14357Y-33580D01*
X15142Y-32472D02*
X15142Y-32202D01*
X15028Y-32202D01*
X14999Y-32215D01*
X14985Y-32227D01*
X14971Y-32253D01*
X14971Y-32292D01*
X14985Y-32317D01*
X14999Y-32330D01*
X15028Y-32343D01*
X15142Y-32343D01*
X14699Y-32202D02*
X14842Y-32202D01*
X14857Y-32330D01*
X14842Y-32317D01*
X14814Y-32305D01*
X14742Y-32305D01*
X14714Y-32317D01*
X14699Y-32330D01*
X14685Y-32356D01*
X14685Y-32420D01*
X14699Y-32446D01*
X14714Y-32459D01*
X14742Y-32472D01*
X14814Y-32472D01*
X14842Y-32459D01*
X14857Y-32446D01*
X14557Y-32446D02*
X14542Y-32459D01*
X14557Y-32472D01*
X14571Y-32459D01*
X14557Y-32446D01*
X14557Y-32472D01*
X14257Y-32472D02*
X14428Y-32472D01*
X14342Y-32472D02*
X14342Y-32202D01*
X14371Y-32240D01*
X14400Y-32266D01*
X14428Y-32279D01*
X15485Y-32630D02*
X15385Y-32900D01*
X15285Y-32630D01*
X15014Y-32900D02*
X15114Y-32771D01*
X15185Y-32900D02*
X15185Y-32630D01*
X15071Y-32630D01*
X15042Y-32643D01*
X15028Y-32655D01*
X15014Y-32681D01*
X15014Y-32720D01*
X15028Y-32745D01*
X15042Y-32758D01*
X15071Y-32771D01*
X15185Y-32771D01*
X14885Y-32758D02*
X14785Y-32758D01*
X14742Y-32900D02*
X14885Y-32900D01*
X14885Y-32630D01*
X14742Y-32630D01*
X14514Y-32758D02*
X14614Y-32758D01*
X14614Y-32900D02*
X14614Y-32630D01*
X14471Y-32630D01*
G54D14*
X14150Y-32250D02*
X14150Y-33800D01*
G54D13*
X14400Y-32750D02*
X14250Y-32750D01*
G54D14*
X14150Y-34200D02*
X14150Y-35800D01*
X14150Y-36200D02*
X14150Y-37800D01*
X14150Y-38200D02*
X14150Y-38800D01*
X14150Y-39200D02*
X14150Y-43800D01*
G54D13*
X27735Y-46590D02*
X27764Y-46577D01*
X27807Y-46577D01*
X27850Y-46590D01*
X27878Y-46615D01*
X27892Y-46641D01*
X27907Y-46692D01*
X27907Y-46731D01*
X27892Y-46782D01*
X27878Y-46808D01*
X27850Y-46834D01*
X27807Y-46847D01*
X27778Y-46847D01*
X27735Y-46834D01*
X27721Y-46821D01*
X27721Y-46731D01*
X27778Y-46731D01*
X27592Y-46847D02*
X27592Y-46577D01*
X27421Y-46847D01*
X27421Y-46577D01*
X27278Y-46847D02*
X27278Y-46577D01*
X27207Y-46577D01*
X27164Y-46590D01*
X27135Y-46615D01*
X27121Y-46641D01*
X27107Y-46692D01*
X27107Y-46731D01*
X27121Y-46782D01*
X27135Y-46808D01*
X27164Y-46834D01*
X27207Y-46847D01*
X27278Y-46847D01*
X28885Y-46577D02*
X28700Y-46577D01*
X28800Y-46680D01*
X28757Y-46680D01*
X28728Y-46692D01*
X28714Y-46705D01*
X28700Y-46731D01*
X28700Y-46795D01*
X28714Y-46821D01*
X28728Y-46834D01*
X28757Y-46847D01*
X28842Y-46847D01*
X28871Y-46834D01*
X28885Y-46821D01*
X28614Y-46577D02*
X28514Y-46847D01*
X28414Y-46577D01*
X28342Y-46577D02*
X28157Y-46577D01*
X28257Y-46680D01*
X28214Y-46680D01*
X28185Y-46692D01*
X28171Y-46705D01*
X28157Y-46731D01*
X28157Y-46795D01*
X28171Y-46821D01*
X28185Y-46834D01*
X28214Y-46847D01*
X28300Y-46847D01*
X28328Y-46834D01*
X28342Y-46821D01*
X15472Y-45857D02*
X15202Y-45857D01*
X15202Y-45971D01*
X15215Y-46000D01*
X15227Y-46014D01*
X15253Y-46028D01*
X15292Y-46028D01*
X15317Y-46014D01*
X15330Y-46000D01*
X15343Y-45971D01*
X15343Y-45857D01*
X15202Y-46128D02*
X15202Y-46314D01*
X15305Y-46214D01*
X15305Y-46257D01*
X15317Y-46285D01*
X15330Y-46300D01*
X15356Y-46314D01*
X15420Y-46314D01*
X15446Y-46300D01*
X15459Y-46285D01*
X15472Y-46257D01*
X15472Y-46171D01*
X15459Y-46142D01*
X15446Y-46128D01*
X15446Y-46442D02*
X15459Y-46457D01*
X15472Y-46442D01*
X15459Y-46428D01*
X15446Y-46442D01*
X15472Y-46442D01*
X15202Y-46557D02*
X15202Y-46742D01*
X15305Y-46642D01*
X15305Y-46685D01*
X15317Y-46714D01*
X15330Y-46728D01*
X15356Y-46742D01*
X15420Y-46742D01*
X15446Y-46728D01*
X15459Y-46714D01*
X15472Y-46685D01*
X15472Y-46600D01*
X15459Y-46571D01*
X15446Y-46557D01*
X15758Y-45114D02*
X15771Y-45157D01*
X15784Y-45171D01*
X15810Y-45185D01*
X15848Y-45185D01*
X15874Y-45171D01*
X15887Y-45157D01*
X15900Y-45128D01*
X15900Y-45014D01*
X15630Y-45014D01*
X15630Y-45114D01*
X15643Y-45142D01*
X15655Y-45157D01*
X15681Y-45171D01*
X15707Y-45171D01*
X15733Y-45157D01*
X15745Y-45142D01*
X15758Y-45114D01*
X15758Y-45014D01*
X15887Y-45300D02*
X15900Y-45342D01*
X15900Y-45414D01*
X15887Y-45442D01*
X15874Y-45457D01*
X15848Y-45471D01*
X15823Y-45471D01*
X15797Y-45457D01*
X15784Y-45442D01*
X15771Y-45414D01*
X15758Y-45357D01*
X15745Y-45328D01*
X15733Y-45314D01*
X15707Y-45300D01*
X15681Y-45300D01*
X15655Y-45314D01*
X15643Y-45328D01*
X15630Y-45357D01*
X15630Y-45428D01*
X15643Y-45471D01*
X15900Y-45742D02*
X15900Y-45600D01*
X15630Y-45600D01*
X15925Y-45771D02*
X15925Y-46000D01*
X15887Y-46057D02*
X15900Y-46100D01*
X15900Y-46171D01*
X15887Y-46200D01*
X15874Y-46214D01*
X15848Y-46228D01*
X15823Y-46228D01*
X15797Y-46214D01*
X15784Y-46200D01*
X15771Y-46171D01*
X15758Y-46114D01*
X15745Y-46085D01*
X15733Y-46071D01*
X15707Y-46057D01*
X15681Y-46057D01*
X15655Y-46071D01*
X15643Y-46085D01*
X15630Y-46114D01*
X15630Y-46185D01*
X15643Y-46228D01*
X15758Y-46357D02*
X15758Y-46457D01*
X15900Y-46500D02*
X15900Y-46357D01*
X15630Y-46357D01*
X15630Y-46500D01*
X15900Y-46771D02*
X15900Y-46628D01*
X15630Y-46628D01*
X16422Y-45828D02*
X16152Y-45828D01*
X16152Y-45900D01*
X16165Y-45942D01*
X16190Y-45971D01*
X16216Y-45985D01*
X16267Y-46000D01*
X16306Y-46000D01*
X16357Y-45985D01*
X16383Y-45971D01*
X16409Y-45942D01*
X16422Y-45900D01*
X16422Y-45828D01*
X16422Y-46128D02*
X16152Y-46128D01*
X16152Y-46328D02*
X16152Y-46385D01*
X16165Y-46414D01*
X16190Y-46442D01*
X16242Y-46457D01*
X16332Y-46457D01*
X16383Y-46442D01*
X16409Y-46414D01*
X16422Y-46385D01*
X16422Y-46328D01*
X16409Y-46300D01*
X16383Y-46271D01*
X16332Y-46257D01*
X16242Y-46257D01*
X16190Y-46271D01*
X16165Y-46300D01*
X16152Y-46328D01*
X16422Y-46742D02*
X16422Y-46571D01*
X16422Y-46657D02*
X16152Y-46657D01*
X16190Y-46628D01*
X16216Y-46600D01*
X16229Y-46571D01*
X16850Y-45857D02*
X16580Y-45857D01*
X16580Y-45971D01*
X16593Y-46000D01*
X16605Y-46014D01*
X16631Y-46028D01*
X16670Y-46028D01*
X16695Y-46014D01*
X16708Y-46000D01*
X16721Y-45971D01*
X16721Y-45857D01*
X16580Y-46128D02*
X16580Y-46328D01*
X16850Y-46200D01*
X16824Y-46442D02*
X16837Y-46457D01*
X16850Y-46442D01*
X16837Y-46428D01*
X16824Y-46442D01*
X16850Y-46442D01*
X16580Y-46728D02*
X16580Y-46585D01*
X16708Y-46571D01*
X16695Y-46585D01*
X16683Y-46614D01*
X16683Y-46685D01*
X16695Y-46714D01*
X16708Y-46728D01*
X16734Y-46742D01*
X16798Y-46742D01*
X16824Y-46728D01*
X16837Y-46714D01*
X16850Y-46685D01*
X16850Y-46614D01*
X16837Y-46585D01*
X16824Y-46571D01*
X17422Y-45828D02*
X17152Y-45828D01*
X17152Y-45900D01*
X17165Y-45942D01*
X17190Y-45971D01*
X17216Y-45985D01*
X17267Y-46000D01*
X17306Y-46000D01*
X17357Y-45985D01*
X17383Y-45971D01*
X17409Y-45942D01*
X17422Y-45900D01*
X17422Y-45828D01*
X17422Y-46128D02*
X17152Y-46128D01*
X17152Y-46328D02*
X17152Y-46385D01*
X17165Y-46414D01*
X17190Y-46442D01*
X17242Y-46457D01*
X17332Y-46457D01*
X17383Y-46442D01*
X17409Y-46414D01*
X17422Y-46385D01*
X17422Y-46328D01*
X17409Y-46300D01*
X17383Y-46271D01*
X17332Y-46257D01*
X17242Y-46257D01*
X17190Y-46271D01*
X17165Y-46300D01*
X17152Y-46328D01*
X17152Y-46642D02*
X17152Y-46671D01*
X17165Y-46700D01*
X17177Y-46714D01*
X17203Y-46728D01*
X17255Y-46742D01*
X17319Y-46742D01*
X17370Y-46728D01*
X17396Y-46714D01*
X17409Y-46700D01*
X17422Y-46671D01*
X17422Y-46642D01*
X17409Y-46614D01*
X17396Y-46600D01*
X17370Y-46585D01*
X17319Y-46571D01*
X17255Y-46571D01*
X17203Y-46585D01*
X17177Y-46600D01*
X17165Y-46614D01*
X17152Y-46642D01*
X17850Y-45857D02*
X17580Y-45857D01*
X17580Y-45971D01*
X17593Y-46000D01*
X17605Y-46014D01*
X17631Y-46028D01*
X17670Y-46028D01*
X17695Y-46014D01*
X17708Y-46000D01*
X17721Y-45971D01*
X17721Y-45857D01*
X17580Y-46128D02*
X17580Y-46328D01*
X17850Y-46200D01*
X17824Y-46442D02*
X17837Y-46457D01*
X17850Y-46442D01*
X17837Y-46428D01*
X17824Y-46442D01*
X17850Y-46442D01*
X17670Y-46714D02*
X17850Y-46714D01*
X17567Y-46642D02*
X17760Y-46571D01*
X17760Y-46757D01*
X19152Y-44757D02*
X19152Y-44928D01*
X19422Y-44842D02*
X19152Y-44842D01*
X19396Y-45200D02*
X19409Y-45185D01*
X19422Y-45142D01*
X19422Y-45114D01*
X19409Y-45071D01*
X19383Y-45042D01*
X19357Y-45028D01*
X19306Y-45014D01*
X19267Y-45014D01*
X19216Y-45028D01*
X19190Y-45042D01*
X19165Y-45071D01*
X19152Y-45114D01*
X19152Y-45142D01*
X19165Y-45185D01*
X19177Y-45200D01*
X19422Y-45328D02*
X19152Y-45328D01*
X19422Y-45500D02*
X19267Y-45371D01*
X19152Y-45500D02*
X19306Y-45328D01*
X19139Y-45842D02*
X19486Y-45585D01*
X19422Y-45942D02*
X19152Y-45942D01*
X19152Y-46057D01*
X19165Y-46085D01*
X19177Y-46100D01*
X19203Y-46114D01*
X19242Y-46114D01*
X19267Y-46100D01*
X19280Y-46085D01*
X19293Y-46057D01*
X19293Y-45942D01*
X19422Y-46242D02*
X19152Y-46242D01*
X19345Y-46342D01*
X19152Y-46442D01*
X19422Y-46442D01*
X19177Y-46571D02*
X19165Y-46585D01*
X19152Y-46614D01*
X19152Y-46685D01*
X19165Y-46714D01*
X19177Y-46728D01*
X19203Y-46742D01*
X19229Y-46742D01*
X19267Y-46728D01*
X19422Y-46557D01*
X19422Y-46742D01*
X19850Y-45914D02*
X19580Y-45914D01*
X19580Y-46028D01*
X19593Y-46057D01*
X19605Y-46071D01*
X19631Y-46085D01*
X19670Y-46085D01*
X19695Y-46071D01*
X19708Y-46057D01*
X19721Y-46028D01*
X19721Y-45914D01*
X19580Y-46300D02*
X19773Y-46300D01*
X19811Y-46285D01*
X19837Y-46257D01*
X19850Y-46214D01*
X19850Y-46185D01*
X19824Y-46442D02*
X19837Y-46457D01*
X19850Y-46442D01*
X19837Y-46428D01*
X19824Y-46442D01*
X19850Y-46442D01*
X19580Y-46557D02*
X19580Y-46742D01*
X19683Y-46642D01*
X19683Y-46685D01*
X19695Y-46714D01*
X19708Y-46728D01*
X19734Y-46742D01*
X19798Y-46742D01*
X19824Y-46728D01*
X19837Y-46714D01*
X19850Y-46685D01*
X19850Y-46600D01*
X19837Y-46571D01*
X19824Y-46557D01*
X20152Y-44785D02*
X20152Y-44957D01*
X20422Y-44871D02*
X20152Y-44871D01*
X20422Y-45057D02*
X20152Y-45057D01*
X20345Y-45157D01*
X20152Y-45257D01*
X20422Y-45257D01*
X20409Y-45385D02*
X20422Y-45428D01*
X20422Y-45500D01*
X20409Y-45528D01*
X20396Y-45542D01*
X20370Y-45557D01*
X20345Y-45557D01*
X20319Y-45542D01*
X20306Y-45528D01*
X20293Y-45500D01*
X20280Y-45442D01*
X20267Y-45414D01*
X20255Y-45400D01*
X20229Y-45385D01*
X20203Y-45385D01*
X20177Y-45400D01*
X20165Y-45414D01*
X20152Y-45442D01*
X20152Y-45514D01*
X20165Y-45557D01*
X20139Y-45900D02*
X20486Y-45642D01*
X20396Y-46171D02*
X20409Y-46157D01*
X20422Y-46114D01*
X20422Y-46085D01*
X20409Y-46042D01*
X20383Y-46014D01*
X20357Y-46000D01*
X20306Y-45985D01*
X20267Y-45985D01*
X20216Y-46000D01*
X20190Y-46014D01*
X20165Y-46042D01*
X20152Y-46085D01*
X20152Y-46114D01*
X20165Y-46157D01*
X20177Y-46171D01*
X20409Y-46285D02*
X20422Y-46328D01*
X20422Y-46400D01*
X20409Y-46428D01*
X20396Y-46442D01*
X20370Y-46457D01*
X20345Y-46457D01*
X20319Y-46442D01*
X20306Y-46428D01*
X20293Y-46400D01*
X20280Y-46342D01*
X20267Y-46314D01*
X20255Y-46300D01*
X20229Y-46285D01*
X20203Y-46285D01*
X20177Y-46300D01*
X20165Y-46314D01*
X20152Y-46342D01*
X20152Y-46414D01*
X20165Y-46457D01*
X20177Y-46571D02*
X20165Y-46585D01*
X20152Y-46614D01*
X20152Y-46685D01*
X20165Y-46714D01*
X20177Y-46728D01*
X20203Y-46742D01*
X20229Y-46742D01*
X20267Y-46728D01*
X20422Y-46557D01*
X20422Y-46742D01*
X20850Y-45914D02*
X20580Y-45914D01*
X20580Y-46028D01*
X20593Y-46057D01*
X20605Y-46071D01*
X20631Y-46085D01*
X20670Y-46085D01*
X20695Y-46071D01*
X20708Y-46057D01*
X20721Y-46028D01*
X20721Y-45914D01*
X20580Y-46300D02*
X20773Y-46300D01*
X20811Y-46285D01*
X20837Y-46257D01*
X20850Y-46214D01*
X20850Y-46185D01*
X20824Y-46442D02*
X20837Y-46457D01*
X20850Y-46442D01*
X20837Y-46428D01*
X20824Y-46442D01*
X20850Y-46442D01*
X20605Y-46571D02*
X20593Y-46585D01*
X20580Y-46614D01*
X20580Y-46685D01*
X20593Y-46714D01*
X20605Y-46728D01*
X20631Y-46742D01*
X20657Y-46742D01*
X20695Y-46728D01*
X20850Y-46557D01*
X20850Y-46742D01*
X21152Y-44914D02*
X21152Y-45085D01*
X21422Y-45000D02*
X21152Y-45000D01*
X21422Y-45185D02*
X21152Y-45185D01*
X21152Y-45257D01*
X21165Y-45300D01*
X21190Y-45328D01*
X21216Y-45342D01*
X21267Y-45357D01*
X21306Y-45357D01*
X21357Y-45342D01*
X21383Y-45328D01*
X21409Y-45300D01*
X21422Y-45257D01*
X21422Y-45185D01*
X21422Y-45485D02*
X21152Y-45485D01*
X21139Y-45842D02*
X21486Y-45585D01*
X21422Y-45942D02*
X21152Y-45942D01*
X21152Y-46057D01*
X21165Y-46085D01*
X21177Y-46100D01*
X21203Y-46114D01*
X21242Y-46114D01*
X21267Y-46100D01*
X21280Y-46085D01*
X21293Y-46057D01*
X21293Y-45942D01*
X21422Y-46242D02*
X21152Y-46242D01*
X21345Y-46342D01*
X21152Y-46442D01*
X21422Y-46442D01*
X21422Y-46742D02*
X21422Y-46571D01*
X21422Y-46657D02*
X21152Y-46657D01*
X21190Y-46628D01*
X21216Y-46600D01*
X21229Y-46571D01*
X21850Y-45914D02*
X21580Y-45914D01*
X21580Y-46028D01*
X21593Y-46057D01*
X21605Y-46071D01*
X21631Y-46085D01*
X21670Y-46085D01*
X21695Y-46071D01*
X21708Y-46057D01*
X21721Y-46028D01*
X21721Y-45914D01*
X21580Y-46300D02*
X21773Y-46300D01*
X21811Y-46285D01*
X21837Y-46257D01*
X21850Y-46214D01*
X21850Y-46185D01*
X21824Y-46442D02*
X21837Y-46457D01*
X21850Y-46442D01*
X21837Y-46428D01*
X21824Y-46442D01*
X21850Y-46442D01*
X21850Y-46742D02*
X21850Y-46571D01*
X21850Y-46657D02*
X21580Y-46657D01*
X21618Y-46628D01*
X21644Y-46600D01*
X21657Y-46571D01*
X22152Y-44800D02*
X22152Y-44971D01*
X22422Y-44885D02*
X22152Y-44885D01*
X22422Y-45071D02*
X22152Y-45071D01*
X22152Y-45142D01*
X22165Y-45185D01*
X22190Y-45214D01*
X22216Y-45228D01*
X22267Y-45242D01*
X22306Y-45242D01*
X22357Y-45228D01*
X22383Y-45214D01*
X22409Y-45185D01*
X22422Y-45142D01*
X22422Y-45071D01*
X22152Y-45428D02*
X22152Y-45485D01*
X22165Y-45514D01*
X22190Y-45542D01*
X22242Y-45557D01*
X22332Y-45557D01*
X22383Y-45542D01*
X22409Y-45514D01*
X22422Y-45485D01*
X22422Y-45428D01*
X22409Y-45400D01*
X22383Y-45371D01*
X22332Y-45357D01*
X22242Y-45357D01*
X22190Y-45371D01*
X22165Y-45400D01*
X22152Y-45428D01*
X22139Y-45900D02*
X22486Y-45642D01*
X22396Y-46171D02*
X22409Y-46157D01*
X22422Y-46114D01*
X22422Y-46085D01*
X22409Y-46042D01*
X22383Y-46014D01*
X22357Y-46000D01*
X22306Y-45985D01*
X22267Y-45985D01*
X22216Y-46000D01*
X22190Y-46014D01*
X22165Y-46042D01*
X22152Y-46085D01*
X22152Y-46114D01*
X22165Y-46157D01*
X22177Y-46171D01*
X22409Y-46285D02*
X22422Y-46328D01*
X22422Y-46400D01*
X22409Y-46428D01*
X22396Y-46442D01*
X22370Y-46457D01*
X22345Y-46457D01*
X22319Y-46442D01*
X22306Y-46428D01*
X22293Y-46400D01*
X22280Y-46342D01*
X22267Y-46314D01*
X22255Y-46300D01*
X22229Y-46285D01*
X22203Y-46285D01*
X22177Y-46300D01*
X22165Y-46314D01*
X22152Y-46342D01*
X22152Y-46414D01*
X22165Y-46457D01*
X22422Y-46742D02*
X22422Y-46571D01*
X22422Y-46657D02*
X22152Y-46657D01*
X22190Y-46628D01*
X22216Y-46600D01*
X22229Y-46571D01*
X22850Y-45914D02*
X22580Y-45914D01*
X22580Y-46028D01*
X22593Y-46057D01*
X22605Y-46071D01*
X22631Y-46085D01*
X22670Y-46085D01*
X22695Y-46071D01*
X22708Y-46057D01*
X22721Y-46028D01*
X22721Y-45914D01*
X22580Y-46300D02*
X22773Y-46300D01*
X22811Y-46285D01*
X22837Y-46257D01*
X22850Y-46214D01*
X22850Y-46185D01*
X22824Y-46442D02*
X22837Y-46457D01*
X22850Y-46442D01*
X22837Y-46428D01*
X22824Y-46442D01*
X22850Y-46442D01*
X22580Y-46642D02*
X22580Y-46671D01*
X22593Y-46700D01*
X22605Y-46714D01*
X22631Y-46728D01*
X22683Y-46742D01*
X22747Y-46742D01*
X22798Y-46728D01*
X22824Y-46714D01*
X22837Y-46700D01*
X22850Y-46671D01*
X22850Y-46642D01*
X22837Y-46614D01*
X22824Y-46600D01*
X22798Y-46585D01*
X22747Y-46571D01*
X22683Y-46571D01*
X22631Y-46585D01*
X22605Y-46600D01*
X22593Y-46614D01*
X22580Y-46642D01*
X23377Y-45814D02*
X23377Y-45985D01*
X23647Y-45900D02*
X23377Y-45900D01*
X23505Y-46085D02*
X23505Y-46185D01*
X23647Y-46228D02*
X23647Y-46085D01*
X23377Y-46085D01*
X23377Y-46228D01*
X23634Y-46342D02*
X23647Y-46385D01*
X23647Y-46457D01*
X23634Y-46485D01*
X23621Y-46500D01*
X23595Y-46514D01*
X23570Y-46514D01*
X23544Y-46500D01*
X23531Y-46485D01*
X23518Y-46457D01*
X23505Y-46400D01*
X23492Y-46371D01*
X23480Y-46357D01*
X23454Y-46342D01*
X23428Y-46342D01*
X23402Y-46357D01*
X23390Y-46371D01*
X23377Y-46400D01*
X23377Y-46471D01*
X23390Y-46514D01*
X23377Y-46600D02*
X23377Y-46771D01*
X23647Y-46685D02*
X23377Y-46685D01*
X24409Y-45971D02*
X24422Y-46014D01*
X24422Y-46085D01*
X24409Y-46114D01*
X24396Y-46128D01*
X24370Y-46142D01*
X24345Y-46142D01*
X24319Y-46128D01*
X24306Y-46114D01*
X24293Y-46085D01*
X24280Y-46028D01*
X24267Y-46000D01*
X24255Y-45985D01*
X24229Y-45971D01*
X24203Y-45971D01*
X24177Y-45985D01*
X24165Y-46000D01*
X24152Y-46028D01*
X24152Y-46100D01*
X24165Y-46142D01*
X24396Y-46442D02*
X24409Y-46428D01*
X24422Y-46385D01*
X24422Y-46357D01*
X24409Y-46314D01*
X24383Y-46285D01*
X24357Y-46271D01*
X24306Y-46257D01*
X24267Y-46257D01*
X24216Y-46271D01*
X24190Y-46285D01*
X24165Y-46314D01*
X24152Y-46357D01*
X24152Y-46385D01*
X24165Y-46428D01*
X24177Y-46442D01*
X24422Y-46571D02*
X24152Y-46571D01*
X24422Y-46742D02*
X24267Y-46614D01*
X24152Y-46742D02*
X24306Y-46571D01*
X24850Y-45857D02*
X24580Y-45857D01*
X24580Y-45971D01*
X24593Y-46000D01*
X24605Y-46014D01*
X24631Y-46028D01*
X24670Y-46028D01*
X24695Y-46014D01*
X24708Y-46000D01*
X24721Y-45971D01*
X24721Y-45857D01*
X24580Y-46128D02*
X24580Y-46314D01*
X24683Y-46214D01*
X24683Y-46257D01*
X24695Y-46285D01*
X24708Y-46300D01*
X24734Y-46314D01*
X24798Y-46314D01*
X24824Y-46300D01*
X24837Y-46285D01*
X24850Y-46257D01*
X24850Y-46171D01*
X24837Y-46142D01*
X24824Y-46128D01*
X24824Y-46442D02*
X24837Y-46457D01*
X24850Y-46442D01*
X24837Y-46428D01*
X24824Y-46442D01*
X24850Y-46442D01*
X24580Y-46642D02*
X24580Y-46671D01*
X24593Y-46700D01*
X24605Y-46714D01*
X24631Y-46728D01*
X24683Y-46742D01*
X24747Y-46742D01*
X24798Y-46728D01*
X24824Y-46714D01*
X24837Y-46700D01*
X24850Y-46671D01*
X24850Y-46642D01*
X24837Y-46614D01*
X24824Y-46600D01*
X24798Y-46585D01*
X24747Y-46571D01*
X24683Y-46571D01*
X24631Y-46585D01*
X24605Y-46600D01*
X24593Y-46614D01*
X24580Y-46642D01*
X25422Y-44757D02*
X25293Y-44657D01*
X25422Y-44585D02*
X25152Y-44585D01*
X25152Y-44700D01*
X25165Y-44728D01*
X25177Y-44742D01*
X25203Y-44757D01*
X25242Y-44757D01*
X25267Y-44742D01*
X25280Y-44728D01*
X25293Y-44700D01*
X25293Y-44585D01*
X25152Y-44857D02*
X25422Y-45057D01*
X25152Y-45057D02*
X25422Y-44857D01*
X25422Y-45171D02*
X25152Y-45171D01*
X25152Y-45242D01*
X25165Y-45285D01*
X25190Y-45314D01*
X25216Y-45328D01*
X25267Y-45342D01*
X25306Y-45342D01*
X25357Y-45328D01*
X25383Y-45314D01*
X25409Y-45285D01*
X25422Y-45242D01*
X25422Y-45171D01*
X25139Y-45685D02*
X25486Y-45428D01*
X25422Y-45785D02*
X25152Y-45785D01*
X25345Y-45885D01*
X25152Y-45985D01*
X25422Y-45985D01*
X25422Y-46128D02*
X25152Y-46128D01*
X25409Y-46257D02*
X25422Y-46300D01*
X25422Y-46371D01*
X25409Y-46400D01*
X25396Y-46414D01*
X25370Y-46428D01*
X25345Y-46428D01*
X25319Y-46414D01*
X25306Y-46400D01*
X25293Y-46371D01*
X25280Y-46314D01*
X25267Y-46285D01*
X25255Y-46271D01*
X25229Y-46257D01*
X25203Y-46257D01*
X25177Y-46271D01*
X25165Y-46285D01*
X25152Y-46314D01*
X25152Y-46385D01*
X25165Y-46428D01*
X25152Y-46614D02*
X25152Y-46671D01*
X25165Y-46700D01*
X25190Y-46728D01*
X25242Y-46742D01*
X25332Y-46742D01*
X25383Y-46728D01*
X25409Y-46700D01*
X25422Y-46671D01*
X25422Y-46614D01*
X25409Y-46585D01*
X25383Y-46557D01*
X25332Y-46542D01*
X25242Y-46542D01*
X25190Y-46557D01*
X25165Y-46585D01*
X25152Y-46614D01*
X25850Y-44528D02*
X25580Y-44528D01*
X25580Y-44642D01*
X25593Y-44671D01*
X25605Y-44685D01*
X25631Y-44700D01*
X25670Y-44700D01*
X25695Y-44685D01*
X25708Y-44671D01*
X25721Y-44642D01*
X25721Y-44528D01*
X25605Y-44814D02*
X25593Y-44828D01*
X25580Y-44857D01*
X25580Y-44928D01*
X25593Y-44957D01*
X25605Y-44971D01*
X25631Y-44985D01*
X25657Y-44985D01*
X25695Y-44971D01*
X25850Y-44800D01*
X25850Y-44985D01*
X25824Y-45114D02*
X25837Y-45128D01*
X25850Y-45114D01*
X25837Y-45100D01*
X25824Y-45114D01*
X25850Y-45114D01*
X25605Y-45242D02*
X25593Y-45257D01*
X25580Y-45285D01*
X25580Y-45357D01*
X25593Y-45385D01*
X25605Y-45400D01*
X25631Y-45414D01*
X25657Y-45414D01*
X25695Y-45400D01*
X25850Y-45228D01*
X25850Y-45414D01*
X25567Y-45757D02*
X25914Y-45500D01*
X25850Y-45857D02*
X25580Y-45857D01*
X25580Y-45971D01*
X25593Y-46000D01*
X25605Y-46014D01*
X25631Y-46028D01*
X25670Y-46028D01*
X25695Y-46014D01*
X25708Y-46000D01*
X25721Y-45971D01*
X25721Y-45857D01*
X25580Y-46128D02*
X25580Y-46314D01*
X25683Y-46214D01*
X25683Y-46257D01*
X25695Y-46285D01*
X25708Y-46300D01*
X25734Y-46314D01*
X25798Y-46314D01*
X25824Y-46300D01*
X25837Y-46285D01*
X25850Y-46257D01*
X25850Y-46171D01*
X25837Y-46142D01*
X25824Y-46128D01*
X25824Y-46442D02*
X25837Y-46457D01*
X25850Y-46442D01*
X25837Y-46428D01*
X25824Y-46442D01*
X25850Y-46442D01*
X25580Y-46728D02*
X25580Y-46585D01*
X25708Y-46571D01*
X25695Y-46585D01*
X25683Y-46614D01*
X25683Y-46685D01*
X25695Y-46714D01*
X25708Y-46728D01*
X25734Y-46742D01*
X25798Y-46742D01*
X25824Y-46728D01*
X25837Y-46714D01*
X25850Y-46685D01*
X25850Y-46614D01*
X25837Y-46585D01*
X25824Y-46571D01*
X26152Y-44614D02*
X26152Y-44785D01*
X26422Y-44700D02*
X26152Y-44700D01*
X26152Y-44857D02*
X26422Y-45057D01*
X26152Y-45057D02*
X26422Y-44857D01*
X26422Y-45171D02*
X26152Y-45171D01*
X26152Y-45242D01*
X26165Y-45285D01*
X26190Y-45314D01*
X26216Y-45328D01*
X26267Y-45342D01*
X26306Y-45342D01*
X26357Y-45328D01*
X26383Y-45314D01*
X26409Y-45285D01*
X26422Y-45242D01*
X26422Y-45171D01*
X26139Y-45685D02*
X26486Y-45428D01*
X26422Y-45785D02*
X26152Y-45785D01*
X26345Y-45885D01*
X26152Y-45985D01*
X26422Y-45985D01*
X26152Y-46185D02*
X26152Y-46242D01*
X26165Y-46271D01*
X26190Y-46300D01*
X26242Y-46314D01*
X26332Y-46314D01*
X26383Y-46300D01*
X26409Y-46271D01*
X26422Y-46242D01*
X26422Y-46185D01*
X26409Y-46157D01*
X26383Y-46128D01*
X26332Y-46114D01*
X26242Y-46114D01*
X26190Y-46128D01*
X26165Y-46157D01*
X26152Y-46185D01*
X26409Y-46428D02*
X26422Y-46471D01*
X26422Y-46542D01*
X26409Y-46571D01*
X26396Y-46585D01*
X26370Y-46600D01*
X26345Y-46600D01*
X26319Y-46585D01*
X26306Y-46571D01*
X26293Y-46542D01*
X26280Y-46485D01*
X26267Y-46457D01*
X26255Y-46442D01*
X26229Y-46428D01*
X26203Y-46428D01*
X26177Y-46442D01*
X26165Y-46457D01*
X26152Y-46485D01*
X26152Y-46557D01*
X26165Y-46600D01*
X26422Y-46728D02*
X26152Y-46728D01*
X26850Y-44528D02*
X26580Y-44528D01*
X26580Y-44642D01*
X26593Y-44671D01*
X26605Y-44685D01*
X26631Y-44700D01*
X26670Y-44700D01*
X26695Y-44685D01*
X26708Y-44671D01*
X26721Y-44642D01*
X26721Y-44528D01*
X26605Y-44814D02*
X26593Y-44828D01*
X26580Y-44857D01*
X26580Y-44928D01*
X26593Y-44957D01*
X26605Y-44971D01*
X26631Y-44985D01*
X26657Y-44985D01*
X26695Y-44971D01*
X26850Y-44800D01*
X26850Y-44985D01*
X26824Y-45114D02*
X26837Y-45128D01*
X26850Y-45114D01*
X26837Y-45100D01*
X26824Y-45114D01*
X26850Y-45114D01*
X26850Y-45414D02*
X26850Y-45242D01*
X26850Y-45328D02*
X26580Y-45328D01*
X26618Y-45300D01*
X26644Y-45271D01*
X26657Y-45242D01*
X26567Y-45757D02*
X26914Y-45500D01*
X26850Y-45857D02*
X26580Y-45857D01*
X26580Y-45971D01*
X26593Y-46000D01*
X26605Y-46014D01*
X26631Y-46028D01*
X26670Y-46028D01*
X26695Y-46014D01*
X26708Y-46000D01*
X26721Y-45971D01*
X26721Y-45857D01*
X26580Y-46128D02*
X26580Y-46314D01*
X26683Y-46214D01*
X26683Y-46257D01*
X26695Y-46285D01*
X26708Y-46300D01*
X26734Y-46314D01*
X26798Y-46314D01*
X26824Y-46300D01*
X26837Y-46285D01*
X26850Y-46257D01*
X26850Y-46171D01*
X26837Y-46142D01*
X26824Y-46128D01*
X26824Y-46442D02*
X26837Y-46457D01*
X26850Y-46442D01*
X26837Y-46428D01*
X26824Y-46442D01*
X26850Y-46442D01*
X26670Y-46714D02*
X26850Y-46714D01*
X26567Y-46642D02*
X26760Y-46571D01*
X26760Y-46757D01*
X18647Y-45685D02*
X18518Y-45585D01*
X18647Y-45514D02*
X18377Y-45514D01*
X18377Y-45628D01*
X18390Y-45657D01*
X18402Y-45671D01*
X18428Y-45685D01*
X18467Y-45685D01*
X18492Y-45671D01*
X18505Y-45657D01*
X18518Y-45628D01*
X18518Y-45514D01*
X18505Y-45814D02*
X18505Y-45914D01*
X18647Y-45957D02*
X18647Y-45814D01*
X18377Y-45814D01*
X18377Y-45957D01*
X18634Y-46071D02*
X18647Y-46114D01*
X18647Y-46185D01*
X18634Y-46214D01*
X18621Y-46228D01*
X18595Y-46242D01*
X18570Y-46242D01*
X18544Y-46228D01*
X18531Y-46214D01*
X18518Y-46185D01*
X18505Y-46128D01*
X18492Y-46100D01*
X18480Y-46085D01*
X18454Y-46071D01*
X18428Y-46071D01*
X18402Y-46085D01*
X18390Y-46100D01*
X18377Y-46128D01*
X18377Y-46200D01*
X18390Y-46242D01*
X18505Y-46371D02*
X18505Y-46471D01*
X18647Y-46514D02*
X18647Y-46371D01*
X18377Y-46371D01*
X18377Y-46514D01*
X18377Y-46600D02*
X18377Y-46771D01*
X18647Y-46685D02*
X18377Y-46685D01*
G54D14*
X26800Y-46850D02*
X25200Y-46850D01*
X24800Y-46850D02*
X24200Y-46850D01*
X23800Y-46850D02*
X23200Y-46850D01*
X22800Y-46850D02*
X19200Y-46850D01*
X17800Y-46850D02*
X16200Y-46850D01*
X15850Y-46850D02*
X15250Y-46850D01*
X18200Y-46850D02*
X18800Y-46850D01*
G54D12*
X12000Y-32000D02*
X14000Y-32000D01*
X12000Y-46000D02*
X14000Y-46000D01*
X12000Y-45000D02*
X14000Y-45000D01*
G54D15*
X14000Y-46000D02*
X14000Y-32000D01*
X13000Y-46000D02*
X13000Y-32000D01*
X12000Y-46000D02*
X12000Y-32000D01*
G54D12*
X15000Y-49000D02*
X15000Y-47000D01*
X29000Y-49000D02*
X29000Y-47000D01*
X28000Y-49000D02*
X28000Y-47000D01*
G54D15*
X29000Y-47000D02*
X15000Y-47000D01*
X29000Y-48000D02*
X15000Y-48000D01*
X29000Y-49000D02*
X15000Y-49000D01*
G54D12*
X32000Y-46000D02*
X30000Y-46000D01*
X32000Y-32000D02*
X30000Y-32000D01*
X32000Y-33000D02*
X30000Y-33000D01*
G54D15*
X30000Y-32000D02*
X30000Y-46000D01*
X31000Y-32000D02*
X31000Y-46000D01*
X32000Y-32000D02*
X32000Y-46000D01*
G54D14*
X26750Y-43300D02*
X17250Y-43300D01*
G54D16*
X18807Y-40771D02*
X18807Y-40171D01*
X18578Y-40171D01*
X18521Y-40200D01*
X18492Y-40228D01*
X18464Y-40285D01*
X18464Y-40371D01*
X18492Y-40428D01*
X18521Y-40457D01*
X18578Y-40485D01*
X18807Y-40485D01*
X18207Y-40771D02*
X18207Y-40171D01*
X18064Y-40171D01*
X17978Y-40200D01*
X17921Y-40257D01*
X17892Y-40314D01*
X17864Y-40428D01*
X17864Y-40514D01*
X17892Y-40628D01*
X17921Y-40685D01*
X17978Y-40742D01*
X18064Y-40771D01*
X18207Y-40771D01*
G54D17*
X24842Y-43735D02*
X24842Y-43435D01*
X24771Y-43435D01*
X24728Y-43450D01*
X24700Y-43478D01*
X24685Y-43507D01*
X24671Y-43564D01*
X24671Y-43607D01*
X24685Y-43664D01*
X24700Y-43692D01*
X24728Y-43721D01*
X24771Y-43735D01*
X24842Y-43735D01*
X24428Y-43721D02*
X24457Y-43735D01*
X24514Y-43735D01*
X24542Y-43721D01*
X24557Y-43692D01*
X24557Y-43578D01*
X24542Y-43550D01*
X24514Y-43535D01*
X24457Y-43535D01*
X24428Y-43550D01*
X24414Y-43578D01*
X24414Y-43607D01*
X24557Y-43635D01*
X24300Y-43721D02*
X24271Y-43735D01*
X24214Y-43735D01*
X24185Y-43721D01*
X24171Y-43692D01*
X24171Y-43678D01*
X24185Y-43650D01*
X24214Y-43635D01*
X24257Y-43635D01*
X24285Y-43621D01*
X24300Y-43592D01*
X24300Y-43578D01*
X24285Y-43550D01*
X24257Y-43535D01*
X24214Y-43535D01*
X24185Y-43550D01*
X24042Y-43735D02*
X24042Y-43535D01*
X24042Y-43435D02*
X24057Y-43450D01*
X24042Y-43464D01*
X24028Y-43450D01*
X24042Y-43435D01*
X24042Y-43464D01*
X23771Y-43535D02*
X23771Y-43778D01*
X23785Y-43807D01*
X23800Y-43821D01*
X23828Y-43835D01*
X23871Y-43835D01*
X23900Y-43821D01*
X23771Y-43721D02*
X23800Y-43735D01*
X23857Y-43735D01*
X23885Y-43721D01*
X23900Y-43707D01*
X23914Y-43678D01*
X23914Y-43592D01*
X23900Y-43564D01*
X23885Y-43550D01*
X23857Y-43535D01*
X23800Y-43535D01*
X23771Y-43550D01*
X23628Y-43535D02*
X23628Y-43735D01*
X23628Y-43564D02*
X23614Y-43550D01*
X23585Y-43535D01*
X23542Y-43535D01*
X23514Y-43550D01*
X23500Y-43578D01*
X23500Y-43735D01*
X23242Y-43721D02*
X23271Y-43735D01*
X23328Y-43735D01*
X23357Y-43721D01*
X23371Y-43692D01*
X23371Y-43578D01*
X23357Y-43550D01*
X23328Y-43535D01*
X23271Y-43535D01*
X23242Y-43550D01*
X23228Y-43578D01*
X23228Y-43607D01*
X23371Y-43635D01*
X22971Y-43735D02*
X22971Y-43435D01*
X22971Y-43721D02*
X22999Y-43735D01*
X23057Y-43735D01*
X23085Y-43721D01*
X23099Y-43707D01*
X23114Y-43678D01*
X23114Y-43592D01*
X23099Y-43564D01*
X23085Y-43550D01*
X23057Y-43535D01*
X22999Y-43535D01*
X22971Y-43550D01*
X22357Y-43735D02*
X22371Y-43735D01*
X22399Y-43721D01*
X22442Y-43678D01*
X22514Y-43592D01*
X22542Y-43550D01*
X22557Y-43507D01*
X22557Y-43478D01*
X22542Y-43450D01*
X22514Y-43435D01*
X22499Y-43435D01*
X22471Y-43450D01*
X22457Y-43478D01*
X22457Y-43492D01*
X22471Y-43521D01*
X22485Y-43535D01*
X22571Y-43592D01*
X22585Y-43607D01*
X22599Y-43635D01*
X22599Y-43678D01*
X22585Y-43707D01*
X22571Y-43721D01*
X22542Y-43735D01*
X22499Y-43735D01*
X22471Y-43721D01*
X22457Y-43707D01*
X22414Y-43650D01*
X22399Y-43607D01*
X22399Y-43578D01*
X21999Y-43735D02*
X21999Y-43435D01*
X21899Y-43650D01*
X21799Y-43435D01*
X21799Y-43735D01*
X21528Y-43735D02*
X21528Y-43578D01*
X21542Y-43550D01*
X21571Y-43535D01*
X21628Y-43535D01*
X21657Y-43550D01*
X21528Y-43721D02*
X21557Y-43735D01*
X21628Y-43735D01*
X21657Y-43721D01*
X21671Y-43692D01*
X21671Y-43664D01*
X21657Y-43635D01*
X21628Y-43621D01*
X21557Y-43621D01*
X21528Y-43607D01*
X21257Y-43735D02*
X21257Y-43435D01*
X21257Y-43721D02*
X21285Y-43735D01*
X21342Y-43735D01*
X21371Y-43721D01*
X21385Y-43707D01*
X21399Y-43678D01*
X21399Y-43592D01*
X21385Y-43564D01*
X21371Y-43550D01*
X21342Y-43535D01*
X21285Y-43535D01*
X21257Y-43550D01*
X20999Y-43721D02*
X21028Y-43735D01*
X21085Y-43735D01*
X21114Y-43721D01*
X21128Y-43692D01*
X21128Y-43578D01*
X21114Y-43550D01*
X21085Y-43535D01*
X21028Y-43535D01*
X20999Y-43550D01*
X20985Y-43578D01*
X20985Y-43607D01*
X21128Y-43635D01*
X20628Y-43735D02*
X20628Y-43535D01*
X20628Y-43435D02*
X20642Y-43450D01*
X20628Y-43464D01*
X20614Y-43450D01*
X20628Y-43435D01*
X20628Y-43464D01*
X20485Y-43535D02*
X20485Y-43735D01*
X20485Y-43564D02*
X20471Y-43550D01*
X20442Y-43535D01*
X20399Y-43535D01*
X20371Y-43550D01*
X20357Y-43578D01*
X20357Y-43735D01*
X19985Y-43735D02*
X19985Y-43435D01*
X19885Y-43535D02*
X19771Y-43535D01*
X19842Y-43435D02*
X19842Y-43692D01*
X19828Y-43721D01*
X19799Y-43735D01*
X19771Y-43735D01*
X19542Y-43735D02*
X19542Y-43578D01*
X19557Y-43550D01*
X19585Y-43535D01*
X19642Y-43535D01*
X19671Y-43550D01*
X19542Y-43721D02*
X19571Y-43735D01*
X19642Y-43735D01*
X19671Y-43721D01*
X19685Y-43692D01*
X19685Y-43664D01*
X19671Y-43635D01*
X19642Y-43621D01*
X19571Y-43621D01*
X19542Y-43607D01*
X19357Y-43735D02*
X19385Y-43721D01*
X19399Y-43692D01*
X19399Y-43435D01*
X19271Y-43535D02*
X19199Y-43735D01*
X19128Y-43535D02*
X19199Y-43735D01*
X19228Y-43807D01*
X19242Y-43821D01*
X19271Y-43835D01*
G54D18*
X24771Y-42714D02*
X24695Y-42980D01*
X24619Y-42790D01*
X24542Y-42980D01*
X24466Y-42714D01*
X24352Y-42714D02*
X24276Y-42980D01*
X24200Y-42790D01*
X24123Y-42980D01*
X24047Y-42714D01*
X23933Y-42714D02*
X23857Y-42980D01*
X23780Y-42790D01*
X23704Y-42980D01*
X23628Y-42714D01*
X23476Y-42942D02*
X23457Y-42961D01*
X23476Y-42980D01*
X23495Y-42961D01*
X23476Y-42942D01*
X23476Y-42980D01*
X23323Y-42714D02*
X23228Y-42980D01*
X23133Y-42714D01*
X22980Y-42980D02*
X22980Y-42714D01*
X22980Y-42580D02*
X22999Y-42600D01*
X22980Y-42619D01*
X22961Y-42600D01*
X22980Y-42580D01*
X22980Y-42619D01*
X22790Y-42980D02*
X22790Y-42714D01*
X22790Y-42790D02*
X22771Y-42752D01*
X22752Y-42733D01*
X22714Y-42714D01*
X22676Y-42714D01*
X22599Y-42714D02*
X22447Y-42714D01*
X22542Y-42580D02*
X22542Y-42923D01*
X22523Y-42961D01*
X22485Y-42980D01*
X22447Y-42980D01*
X22142Y-42714D02*
X22142Y-42980D01*
X22314Y-42714D02*
X22314Y-42923D01*
X22295Y-42961D01*
X22257Y-42980D01*
X22200Y-42980D01*
X22161Y-42961D01*
X22142Y-42942D01*
X21780Y-42980D02*
X21780Y-42771D01*
X21800Y-42733D01*
X21838Y-42714D01*
X21914Y-42714D01*
X21952Y-42733D01*
X21780Y-42961D02*
X21819Y-42980D01*
X21914Y-42980D01*
X21952Y-42961D01*
X21971Y-42923D01*
X21971Y-42885D01*
X21952Y-42847D01*
X21914Y-42828D01*
X21819Y-42828D01*
X21780Y-42809D01*
X21533Y-42980D02*
X21571Y-42961D01*
X21590Y-42923D01*
X21590Y-42580D01*
X21400Y-42961D02*
X21361Y-42980D01*
X21285Y-42980D01*
X21247Y-42961D01*
X21228Y-42923D01*
X21228Y-42904D01*
X21247Y-42866D01*
X21285Y-42847D01*
X21342Y-42847D01*
X21380Y-42828D01*
X21400Y-42790D01*
X21400Y-42771D01*
X21380Y-42733D01*
X21342Y-42714D01*
X21285Y-42714D01*
X21247Y-42733D01*
X20904Y-42961D02*
X20942Y-42980D01*
X21019Y-42980D01*
X21057Y-42961D01*
X21076Y-42923D01*
X21076Y-42771D01*
X21057Y-42733D01*
X21019Y-42714D01*
X20942Y-42714D01*
X20904Y-42733D01*
X20885Y-42771D01*
X20885Y-42809D01*
X21076Y-42847D01*
X20714Y-42714D02*
X20714Y-42980D01*
X20714Y-42752D02*
X20695Y-42733D01*
X20657Y-42714D01*
X20600Y-42714D01*
X20561Y-42733D01*
X20542Y-42771D01*
X20542Y-42980D01*
X20371Y-42961D02*
X20333Y-42980D01*
X20257Y-42980D01*
X20219Y-42961D01*
X20200Y-42923D01*
X20200Y-42904D01*
X20219Y-42866D01*
X20257Y-42847D01*
X20314Y-42847D01*
X20352Y-42828D01*
X20371Y-42790D01*
X20371Y-42771D01*
X20352Y-42733D01*
X20314Y-42714D01*
X20257Y-42714D01*
X20219Y-42733D01*
X19876Y-42961D02*
X19914Y-42980D01*
X19990Y-42980D01*
X20028Y-42961D01*
X20047Y-42923D01*
X20047Y-42771D01*
X20028Y-42733D01*
X19990Y-42714D01*
X19914Y-42714D01*
X19876Y-42733D01*
X19857Y-42771D01*
X19857Y-42809D01*
X20047Y-42847D01*
X19685Y-42942D02*
X19666Y-42961D01*
X19685Y-42980D01*
X19704Y-42961D01*
X19685Y-42942D01*
X19685Y-42980D01*
X19495Y-42980D02*
X19495Y-42714D01*
X19495Y-42580D02*
X19514Y-42600D01*
X19495Y-42619D01*
X19476Y-42600D01*
X19495Y-42580D01*
X19495Y-42619D01*
X19361Y-42714D02*
X19209Y-42714D01*
X19304Y-42580D02*
X19304Y-42923D01*
X19285Y-42961D01*
X19247Y-42980D01*
X19209Y-42980D01*
G54D19*
X24533Y-41819D02*
X24514Y-41800D01*
X24476Y-41780D01*
X24380Y-41780D01*
X24342Y-41800D01*
X24323Y-41819D01*
X24304Y-41857D01*
X24304Y-41895D01*
X24323Y-41952D01*
X24552Y-42180D01*
X24304Y-42180D01*
X23961Y-41780D02*
X24038Y-41780D01*
X24076Y-41800D01*
X24095Y-41819D01*
X24133Y-41876D01*
X24152Y-41952D01*
X24152Y-42104D01*
X24133Y-42142D01*
X24114Y-42161D01*
X24076Y-42180D01*
X24000Y-42180D01*
X23961Y-42161D01*
X23942Y-42142D01*
X23923Y-42104D01*
X23923Y-42009D01*
X23942Y-41971D01*
X23961Y-41952D01*
X24000Y-41933D01*
X24076Y-41933D01*
X24114Y-41952D01*
X24133Y-41971D01*
X24152Y-42009D01*
X23771Y-41819D02*
X23752Y-41800D01*
X23714Y-41780D01*
X23619Y-41780D01*
X23580Y-41800D01*
X23561Y-41819D01*
X23542Y-41857D01*
X23542Y-41895D01*
X23561Y-41952D01*
X23790Y-42180D01*
X23542Y-42180D01*
X23295Y-41780D02*
X23257Y-41780D01*
X23219Y-41800D01*
X23200Y-41819D01*
X23180Y-41857D01*
X23161Y-41933D01*
X23161Y-42028D01*
X23180Y-42104D01*
X23200Y-42142D01*
X23219Y-42161D01*
X23257Y-42180D01*
X23295Y-42180D01*
X23333Y-42161D01*
X23352Y-42142D01*
X23371Y-42104D01*
X23390Y-42028D01*
X23390Y-41933D01*
X23371Y-41857D01*
X23352Y-41819D01*
X23333Y-41800D01*
X23295Y-41780D01*
X22780Y-42180D02*
X23009Y-42180D01*
X22895Y-42180D02*
X22895Y-41780D01*
X22933Y-41838D01*
X22971Y-41876D01*
X23009Y-41895D01*
X22647Y-41780D02*
X22400Y-41780D01*
X22533Y-41933D01*
X22476Y-41933D01*
X22438Y-41952D01*
X22419Y-41971D01*
X22400Y-42009D01*
X22400Y-42104D01*
X22419Y-42142D01*
X22438Y-42161D01*
X22476Y-42180D01*
X22590Y-42180D01*
X22628Y-42161D01*
X22647Y-42142D01*
X21923Y-42028D02*
X21619Y-42028D01*
X21161Y-41914D02*
X21066Y-42180D01*
X20971Y-41914D01*
X20609Y-42180D02*
X20838Y-42180D01*
X20723Y-42180D02*
X20723Y-41780D01*
X20761Y-41838D01*
X20800Y-41876D01*
X20838Y-41895D01*
X20438Y-42142D02*
X20419Y-42161D01*
X20438Y-42180D01*
X20457Y-42161D01*
X20438Y-42142D01*
X20438Y-42180D01*
X20038Y-42180D02*
X20266Y-42180D01*
X20152Y-42180D02*
X20152Y-41780D01*
X20190Y-41838D01*
X20228Y-41876D01*
X20266Y-41895D01*
X19866Y-42142D02*
X19847Y-42161D01*
X19866Y-42180D01*
X19885Y-42161D01*
X19866Y-42142D01*
X19866Y-42180D01*
X19599Y-41780D02*
X19561Y-41780D01*
X19523Y-41800D01*
X19504Y-41819D01*
X19485Y-41857D01*
X19466Y-41933D01*
X19466Y-42028D01*
X19485Y-42104D01*
X19504Y-42142D01*
X19523Y-42161D01*
X19561Y-42180D01*
X19599Y-42180D01*
X19638Y-42161D01*
X19657Y-42142D01*
X19676Y-42104D01*
X19695Y-42028D01*
X19695Y-41933D01*
X19676Y-41857D01*
X19657Y-41819D01*
X19638Y-41800D01*
X19599Y-41780D01*
G54D13*
X26350Y-41310D02*
X26350Y-41153D01*
X26364Y-41125D01*
X26392Y-41110D01*
X26450Y-41110D01*
X26478Y-41125D01*
X26350Y-41296D02*
X26378Y-41310D01*
X26450Y-41310D01*
X26478Y-41296D01*
X26492Y-41267D01*
X26492Y-41239D01*
X26478Y-41210D01*
X26450Y-41196D01*
X26378Y-41196D01*
X26350Y-41182D01*
X26207Y-41110D02*
X26207Y-41310D01*
X26207Y-41139D02*
X26192Y-41125D01*
X26164Y-41110D01*
X26121Y-41110D01*
X26092Y-41125D01*
X26078Y-41153D01*
X26078Y-41310D01*
X25650Y-41010D02*
X25592Y-41010D01*
X25564Y-41025D01*
X25535Y-41053D01*
X25521Y-41110D01*
X25521Y-41210D01*
X25535Y-41267D01*
X25564Y-41296D01*
X25592Y-41310D01*
X25650Y-41310D01*
X25678Y-41296D01*
X25707Y-41267D01*
X25721Y-41210D01*
X25721Y-41110D01*
X25707Y-41053D01*
X25678Y-41025D01*
X25650Y-41010D01*
X25392Y-41110D02*
X25392Y-41410D01*
X25392Y-41125D02*
X25364Y-41110D01*
X25307Y-41110D01*
X25278Y-41125D01*
X25264Y-41139D01*
X25250Y-41167D01*
X25250Y-41253D01*
X25264Y-41282D01*
X25278Y-41296D01*
X25307Y-41310D01*
X25364Y-41310D01*
X25392Y-41296D01*
X25007Y-41296D02*
X25035Y-41310D01*
X25092Y-41310D01*
X25121Y-41296D01*
X25135Y-41267D01*
X25135Y-41153D01*
X25121Y-41125D01*
X25092Y-41110D01*
X25035Y-41110D01*
X25007Y-41125D01*
X24992Y-41153D01*
X24992Y-41182D01*
X25135Y-41210D01*
X24864Y-41110D02*
X24864Y-41310D01*
X24864Y-41139D02*
X24850Y-41125D01*
X24821Y-41110D01*
X24778Y-41110D01*
X24750Y-41125D01*
X24735Y-41153D01*
X24735Y-41310D01*
X24364Y-41310D02*
X24364Y-41010D01*
X24364Y-41153D02*
X24192Y-41153D01*
X24192Y-41310D02*
X24192Y-41010D01*
X23921Y-41310D02*
X23921Y-41153D01*
X23935Y-41125D01*
X23964Y-41110D01*
X24021Y-41110D01*
X24050Y-41125D01*
X23921Y-41296D02*
X23950Y-41310D01*
X24021Y-41310D01*
X24050Y-41296D01*
X24064Y-41267D01*
X24064Y-41239D01*
X24050Y-41210D01*
X24021Y-41196D01*
X23950Y-41196D01*
X23921Y-41182D01*
X23778Y-41310D02*
X23778Y-41110D01*
X23778Y-41167D02*
X23764Y-41139D01*
X23750Y-41125D01*
X23721Y-41110D01*
X23692Y-41110D01*
X23464Y-41310D02*
X23464Y-41010D01*
X23464Y-41296D02*
X23492Y-41310D01*
X23550Y-41310D01*
X23578Y-41296D01*
X23592Y-41282D01*
X23607Y-41253D01*
X23607Y-41167D01*
X23592Y-41139D01*
X23578Y-41125D01*
X23550Y-41110D01*
X23492Y-41110D01*
X23464Y-41125D01*
X23350Y-41110D02*
X23292Y-41310D01*
X23235Y-41167D01*
X23178Y-41310D01*
X23121Y-41110D01*
X22878Y-41310D02*
X22878Y-41153D01*
X22892Y-41125D01*
X22921Y-41110D01*
X22978Y-41110D01*
X23007Y-41125D01*
X22878Y-41296D02*
X22907Y-41310D01*
X22978Y-41310D01*
X23007Y-41296D01*
X23021Y-41267D01*
X23021Y-41239D01*
X23007Y-41210D01*
X22978Y-41196D01*
X22907Y-41196D01*
X22878Y-41182D01*
X22735Y-41310D02*
X22735Y-41110D01*
X22735Y-41167D02*
X22721Y-41139D01*
X22707Y-41125D01*
X22678Y-41110D01*
X22649Y-41110D01*
X22435Y-41296D02*
X22464Y-41310D01*
X22521Y-41310D01*
X22549Y-41296D01*
X22564Y-41267D01*
X22564Y-41153D01*
X22549Y-41125D01*
X22521Y-41110D01*
X22464Y-41110D01*
X22435Y-41125D01*
X22421Y-41153D01*
X22421Y-41182D01*
X22564Y-41210D01*
X22007Y-41010D02*
X21950Y-41010D01*
X21921Y-41025D01*
X21892Y-41053D01*
X21878Y-41110D01*
X21878Y-41210D01*
X21892Y-41267D01*
X21921Y-41296D01*
X21950Y-41310D01*
X22007Y-41310D01*
X22035Y-41296D01*
X22064Y-41267D01*
X22078Y-41210D01*
X22078Y-41110D01*
X22064Y-41053D01*
X22035Y-41025D01*
X22007Y-41010D01*
X21749Y-41110D02*
X21749Y-41410D01*
X21749Y-41125D02*
X21721Y-41110D01*
X21664Y-41110D01*
X21635Y-41125D01*
X21621Y-41139D01*
X21607Y-41167D01*
X21607Y-41253D01*
X21621Y-41282D01*
X21635Y-41296D01*
X21664Y-41310D01*
X21721Y-41310D01*
X21749Y-41296D01*
X21364Y-41296D02*
X21392Y-41310D01*
X21449Y-41310D01*
X21478Y-41296D01*
X21492Y-41267D01*
X21492Y-41153D01*
X21478Y-41125D01*
X21449Y-41110D01*
X21392Y-41110D01*
X21364Y-41125D01*
X21349Y-41153D01*
X21349Y-41182D01*
X21492Y-41210D01*
X21221Y-41110D02*
X21221Y-41310D01*
X21221Y-41139D02*
X21207Y-41125D01*
X21178Y-41110D01*
X21135Y-41110D01*
X21107Y-41125D01*
X21092Y-41153D01*
X21092Y-41310D01*
X20735Y-41296D02*
X20692Y-41310D01*
X20621Y-41310D01*
X20592Y-41296D01*
X20578Y-41282D01*
X20564Y-41253D01*
X20564Y-41225D01*
X20578Y-41196D01*
X20592Y-41182D01*
X20621Y-41167D01*
X20678Y-41153D01*
X20707Y-41139D01*
X20721Y-41125D01*
X20735Y-41096D01*
X20735Y-41067D01*
X20721Y-41039D01*
X20707Y-41025D01*
X20678Y-41010D01*
X20607Y-41010D01*
X20564Y-41025D01*
X20392Y-41310D02*
X20421Y-41296D01*
X20435Y-41282D01*
X20449Y-41253D01*
X20449Y-41167D01*
X20435Y-41139D01*
X20421Y-41125D01*
X20392Y-41110D01*
X20349Y-41110D01*
X20321Y-41125D01*
X20307Y-41139D01*
X20292Y-41167D01*
X20292Y-41253D01*
X20307Y-41282D01*
X20321Y-41296D01*
X20349Y-41310D01*
X20392Y-41310D01*
X20035Y-41110D02*
X20035Y-41310D01*
X20164Y-41110D02*
X20164Y-41267D01*
X20149Y-41296D01*
X20121Y-41310D01*
X20078Y-41310D01*
X20049Y-41296D01*
X20035Y-41282D01*
X19892Y-41310D02*
X19892Y-41110D01*
X19892Y-41167D02*
X19878Y-41139D01*
X19864Y-41125D01*
X19835Y-41110D01*
X19807Y-41110D01*
X19578Y-41296D02*
X19607Y-41310D01*
X19664Y-41310D01*
X19692Y-41296D01*
X19707Y-41282D01*
X19721Y-41253D01*
X19721Y-41167D01*
X19707Y-41139D01*
X19692Y-41125D01*
X19664Y-41110D01*
X19607Y-41110D01*
X19578Y-41125D01*
X19335Y-41296D02*
X19364Y-41310D01*
X19421Y-41310D01*
X19449Y-41296D01*
X19464Y-41267D01*
X19464Y-41153D01*
X19449Y-41125D01*
X19421Y-41110D01*
X19364Y-41110D01*
X19335Y-41125D01*
X19321Y-41153D01*
X19321Y-41182D01*
X19464Y-41210D01*
X18964Y-41310D02*
X18964Y-41010D01*
X18849Y-41010D01*
X18821Y-41025D01*
X18807Y-41039D01*
X18792Y-41067D01*
X18792Y-41110D01*
X18807Y-41139D01*
X18821Y-41153D01*
X18849Y-41167D01*
X18964Y-41167D01*
X18664Y-41310D02*
X18664Y-41110D01*
X18664Y-41167D02*
X18649Y-41139D01*
X18635Y-41125D01*
X18607Y-41110D01*
X18578Y-41110D01*
X18435Y-41310D02*
X18464Y-41296D01*
X18478Y-41282D01*
X18492Y-41253D01*
X18492Y-41167D01*
X18478Y-41139D01*
X18464Y-41125D01*
X18435Y-41110D01*
X18392Y-41110D01*
X18364Y-41125D01*
X18349Y-41139D01*
X18335Y-41167D01*
X18335Y-41253D01*
X18349Y-41282D01*
X18364Y-41296D01*
X18392Y-41310D01*
X18435Y-41310D01*
X18207Y-41110D02*
X18207Y-41367D01*
X18221Y-41396D01*
X18249Y-41410D01*
X18264Y-41410D01*
X18207Y-41010D02*
X18221Y-41025D01*
X18207Y-41039D01*
X18192Y-41025D01*
X18207Y-41010D01*
X18207Y-41039D01*
X17949Y-41296D02*
X17978Y-41310D01*
X18035Y-41310D01*
X18064Y-41296D01*
X18078Y-41267D01*
X18078Y-41153D01*
X18064Y-41125D01*
X18035Y-41110D01*
X17978Y-41110D01*
X17949Y-41125D01*
X17935Y-41153D01*
X17935Y-41182D01*
X18078Y-41210D01*
X17678Y-41296D02*
X17707Y-41310D01*
X17764Y-41310D01*
X17792Y-41296D01*
X17807Y-41282D01*
X17821Y-41253D01*
X17821Y-41167D01*
X17807Y-41139D01*
X17792Y-41125D01*
X17764Y-41110D01*
X17707Y-41110D01*
X17678Y-41125D01*
X17592Y-41110D02*
X17478Y-41110D01*
X17549Y-41010D02*
X17549Y-41267D01*
X17535Y-41296D01*
X17507Y-41310D01*
X17478Y-41310D01*
G54D16*
X26064Y-40171D02*
X25864Y-40771D01*
X25664Y-40171D01*
X25464Y-40771D02*
X25464Y-40371D01*
X25464Y-40171D02*
X25492Y-40200D01*
X25464Y-40228D01*
X25435Y-40200D01*
X25464Y-40171D01*
X25464Y-40228D01*
X25178Y-40771D02*
X25178Y-40371D01*
X25178Y-40485D02*
X25150Y-40428D01*
X25121Y-40400D01*
X25064Y-40371D01*
X25007Y-40371D01*
X24892Y-40371D02*
X24664Y-40371D01*
X24807Y-40171D02*
X24807Y-40685D01*
X24778Y-40742D01*
X24721Y-40771D01*
X24664Y-40771D01*
X24207Y-40371D02*
X24207Y-40771D01*
X24464Y-40371D02*
X24464Y-40685D01*
X24435Y-40742D01*
X24378Y-40771D01*
X24292Y-40771D01*
X24235Y-40742D01*
X24207Y-40714D01*
X23664Y-40771D02*
X23664Y-40457D01*
X23692Y-40400D01*
X23750Y-40371D01*
X23864Y-40371D01*
X23921Y-40400D01*
X23664Y-40742D02*
X23721Y-40771D01*
X23864Y-40771D01*
X23921Y-40742D01*
X23950Y-40685D01*
X23950Y-40628D01*
X23921Y-40571D01*
X23864Y-40542D01*
X23721Y-40542D01*
X23664Y-40514D01*
X23292Y-40771D02*
X23350Y-40742D01*
X23378Y-40685D01*
X23378Y-40171D01*
X23092Y-40742D02*
X23007Y-40771D01*
X22864Y-40771D01*
X22807Y-40742D01*
X22778Y-40714D01*
X22750Y-40657D01*
X22750Y-40600D01*
X22778Y-40542D01*
X22807Y-40514D01*
X22864Y-40485D01*
X22978Y-40457D01*
X23035Y-40428D01*
X23064Y-40400D01*
X23092Y-40342D01*
X23092Y-40285D01*
X23064Y-40228D01*
X23035Y-40200D01*
X22978Y-40171D01*
X22835Y-40171D01*
X22750Y-40200D01*
X22264Y-40742D02*
X22321Y-40771D01*
X22435Y-40771D01*
X22492Y-40742D01*
X22521Y-40685D01*
X22521Y-40457D01*
X22492Y-40400D01*
X22435Y-40371D01*
X22321Y-40371D01*
X22264Y-40400D01*
X22235Y-40457D01*
X22235Y-40514D01*
X22521Y-40571D01*
X21978Y-40371D02*
X21978Y-40771D01*
X21978Y-40428D02*
X21949Y-40400D01*
X21892Y-40371D01*
X21807Y-40371D01*
X21749Y-40400D01*
X21721Y-40457D01*
X21721Y-40771D01*
X21464Y-40742D02*
X21407Y-40771D01*
X21292Y-40771D01*
X21235Y-40742D01*
X21207Y-40685D01*
X21207Y-40657D01*
X21235Y-40600D01*
X21292Y-40571D01*
X21378Y-40571D01*
X21435Y-40542D01*
X21464Y-40485D01*
X21464Y-40457D01*
X21435Y-40400D01*
X21378Y-40371D01*
X21292Y-40371D01*
X21235Y-40400D01*
X20721Y-40742D02*
X20778Y-40771D01*
X20892Y-40771D01*
X20950Y-40742D01*
X20978Y-40685D01*
X20978Y-40457D01*
X20950Y-40400D01*
X20892Y-40371D01*
X20778Y-40371D01*
X20721Y-40400D01*
X20692Y-40457D01*
X20692Y-40514D01*
X20978Y-40571D01*
X19978Y-40542D02*
X19521Y-40542D01*
%LPC*%
G54D20*
X12500Y-48500D03*
G54D21*
X26358Y-45221D03*
G54D22*
X26358Y-46221D03*
G54D21*
X23996Y-45221D03*
G54D22*
X23996Y-46221D03*
G54D20*
X31500Y-48500D03*
G54D23*
X31096Y-29500D03*
X29404Y-29500D03*
G54D24*
X31628Y-30484D03*
X28872Y-30484D03*
G54D23*
X13500Y-32500D03*
X13500Y-33500D03*
X13500Y-34500D03*
X13500Y-35500D03*
X13500Y-36500D03*
X13500Y-37500D03*
X13500Y-38500D03*
X13500Y-39500D03*
X13500Y-40500D03*
X13500Y-41500D03*
X13500Y-42500D03*
X13500Y-43500D03*
X13500Y-44500D03*
G54D25*
X13500Y-45500D03*
X12500Y-45500D03*
G54D23*
X12500Y-44500D03*
X12500Y-43500D03*
X12500Y-42500D03*
X12500Y-41500D03*
X12500Y-40500D03*
X12500Y-39500D03*
X12500Y-38500D03*
X12500Y-37500D03*
X12500Y-36500D03*
X12500Y-35500D03*
X12500Y-34500D03*
X12500Y-33500D03*
X12500Y-32500D03*
X15500Y-47500D03*
X16500Y-47500D03*
X17500Y-47500D03*
X18500Y-47500D03*
X19500Y-47500D03*
X20500Y-47500D03*
X21500Y-47500D03*
X22500Y-47500D03*
X23500Y-47500D03*
X24500Y-47500D03*
X25500Y-47500D03*
X26500Y-47500D03*
X27500Y-47500D03*
G54D25*
X28500Y-47500D03*
X28500Y-48500D03*
G54D23*
X27500Y-48500D03*
X26500Y-48500D03*
X25500Y-48500D03*
X24500Y-48500D03*
X23500Y-48500D03*
X22500Y-48500D03*
X21500Y-48500D03*
X20500Y-48500D03*
X19500Y-48500D03*
X18500Y-48500D03*
X17500Y-48500D03*
X16500Y-48500D03*
X15500Y-48500D03*
X30500Y-45500D03*
X30500Y-44500D03*
X30500Y-43500D03*
X30500Y-42500D03*
X30500Y-41500D03*
X30500Y-40500D03*
X30500Y-39500D03*
X30500Y-38500D03*
X30500Y-37500D03*
X30500Y-36500D03*
X30500Y-35500D03*
X30500Y-34500D03*
X30500Y-33500D03*
G54D25*
X30500Y-32500D03*
X31500Y-32500D03*
G54D23*
X31500Y-33500D03*
X31500Y-34500D03*
X31500Y-35500D03*
X31500Y-36500D03*
X31500Y-37500D03*
X31500Y-38500D03*
X31500Y-39500D03*
X31500Y-40500D03*
X31500Y-41500D03*
X31500Y-42500D03*
X31500Y-43500D03*
X31500Y-44500D03*
X31500Y-45500D03*
G54D21*
X25000Y-29250D03*
G54D22*
X25000Y-30250D03*
X24000Y-29250D03*
X24000Y-30250D03*
X23000Y-29250D03*
X23000Y-30250D03*
X22000Y-29250D03*
X22000Y-30250D03*
X21000Y-29250D03*
X21000Y-30250D03*
X20000Y-29250D03*
X20000Y-30250D03*
X19000Y-29250D03*
X19000Y-30250D03*
M02*
