M48
;DRILL file {Pcbnew (2013-mar-13)-testing} date Thu 27 Jun 2013 11:48:04 AM CEST
;FORMAT={-:-/ absolute / inch / decimal}
FMAT,2
INCH,TZ
T1C0.016
T2C0.039
T3C0.040
T4C0.047
T5C0.059
T6C0.100
%
G90
G05
M72
T1
X1.435Y-3.32
X1.435Y-3.7
X1.435Y-4.07
X1.4663Y-3.5189
X1.4663Y-3.6469
X1.4761Y-4.0209
X1.5156Y-4.1288
X1.535Y-4.47
X1.555Y-3.025
X1.5808Y-3.5684
X1.625Y-2.92
X1.63Y-4.375
X1.6686Y-3.3545
X1.6686Y-3.6469
X1.6731Y-3.9304
X1.68Y-3.18
X1.7021Y-4.1783
X1.7021Y-4.2965
X1.77Y-2.92
X1.77Y-3.025
X1.775Y-3.275
X1.7836Y-3.8081
X1.7843Y-3.9304
X1.8354Y-3.9044
X1.8614Y-4.2696
X1.8866Y-3.7754
X1.8866Y-3.9304
X1.916Y-3.089
X1.9376Y-3.3805
X1.9376Y-3.6074
X1.9378Y-4.2956
X1.9886Y-3.3805
X1.99Y-3.88
X2.01Y-4.6641
X2.042Y-3.141
X2.09Y-3.88
X2.0956Y-3.4597
X2.145Y-4.395
X2.29Y-3.28
X2.29Y-3.965
X2.3628Y-4.5801
X2.39Y-3.28
X2.51Y-4.445
X2.52Y-3.985
X2.535Y-3.175
X2.535Y-3.355
X2.5916Y-3.8114
X2.75Y-4.2984
T2
X1.25Y-3.25
X1.25Y-3.35
X1.25Y-3.45
X1.25Y-3.55
X1.25Y-3.65
X1.25Y-3.75
X1.25Y-3.85
X1.25Y-3.95
X1.25Y-4.05
X1.25Y-4.15
X1.25Y-4.25
X1.25Y-4.35
X1.25Y-4.45
X1.25Y-4.55
X1.35Y-3.25
X1.35Y-3.35
X1.35Y-3.45
X1.35Y-3.55
X1.35Y-3.65
X1.35Y-3.75
X1.35Y-3.85
X1.35Y-3.95
X1.35Y-4.05
X1.35Y-4.15
X1.35Y-4.25
X1.35Y-4.35
X1.35Y-4.45
X1.35Y-4.55
X1.55Y-4.75
X1.55Y-4.85
X1.65Y-4.75
X1.65Y-4.85
X1.75Y-4.75
X1.75Y-4.85
X1.85Y-4.75
X1.85Y-4.85
X1.95Y-4.75
X1.95Y-4.85
X2.05Y-4.75
X2.05Y-4.85
X2.15Y-4.75
X2.15Y-4.85
X2.25Y-4.75
X2.25Y-4.85
X2.35Y-4.75
X2.35Y-4.85
X2.45Y-4.75
X2.45Y-4.85
X2.55Y-4.75
X2.55Y-4.85
X2.65Y-4.75
X2.65Y-4.85
X2.75Y-4.75
X2.75Y-4.85
X2.85Y-4.75
X2.85Y-4.85
X2.9404Y-2.95
X3.05Y-3.25
X3.05Y-3.35
X3.05Y-3.45
X3.05Y-3.55
X3.05Y-3.65
X3.05Y-3.75
X3.05Y-3.85
X3.05Y-3.95
X3.05Y-4.05
X3.05Y-4.15
X3.05Y-4.25
X3.05Y-4.35
X3.05Y-4.45
X3.05Y-4.55
X3.1096Y-2.95
X3.15Y-3.25
X3.15Y-3.35
X3.15Y-3.45
X3.15Y-3.55
X3.15Y-3.65
X3.15Y-3.75
X3.15Y-3.85
X3.15Y-3.95
X3.15Y-4.05
X3.15Y-4.15
X3.15Y-4.25
X3.15Y-4.35
X3.15Y-4.45
X3.15Y-4.55
T3
X1.9Y-2.925
X1.9Y-3.025
X2.Y-2.925
X2.Y-3.025
X2.1Y-2.925
X2.1Y-3.025
X2.2Y-2.925
X2.2Y-3.025
X2.3Y-2.925
X2.3Y-3.025
X2.3996Y-4.5221
X2.3996Y-4.6221
X2.4Y-2.925
X2.4Y-3.025
X2.5Y-2.925
X2.5Y-3.025
X2.6358Y-4.5221
X2.6358Y-4.6221
T4
X3.1628Y-3.0484
T5
X2.8872Y-3.0484
T6
X1.25Y-4.85
X3.15Y-4.85
T0
M30
