G04 (created by PCBNEW (2013-mar-13)-testing) date Fri 28 Jun 2013 12:11:23 PM CEST*
%MOIN*%
G04 Gerber Fmt 3.4, Leading zero omitted, Abs format*
%FSLAX34Y34*%
G01*
G70*
G90*
G04 APERTURE LIST*
%ADD10C,0.005906*%
%ADD11C,0.015000*%
%ADD12C,0.012000*%
%ADD13C,0.140000*%
%ADD14R,0.060000X0.060000*%
%ADD15C,0.060000*%
%ADD16C,0.059100*%
%ADD17C,0.078700*%
%ADD18R,0.059100X0.059100*%
%ADD19C,0.028000*%
%ADD20C,0.008000*%
%ADD21C,0.010000*%
G04 APERTURE END LIST*
G54D10*
G54D11*
X32500Y-49500D02*
X32500Y-28500D01*
X11500Y-49500D02*
X32500Y-49500D01*
X11500Y-28500D02*
X11500Y-49500D01*
X32500Y-28500D02*
X11500Y-28500D01*
G54D12*
X19828Y-53700D02*
X19542Y-53700D01*
X19514Y-54081D01*
X19542Y-54043D01*
X19599Y-54005D01*
X19742Y-54005D01*
X19799Y-54043D01*
X19828Y-54081D01*
X19857Y-54158D01*
X19857Y-54348D01*
X19828Y-54424D01*
X19799Y-54462D01*
X19742Y-54500D01*
X19599Y-54500D01*
X19542Y-54462D01*
X19514Y-54424D01*
X20057Y-53700D02*
X20428Y-53700D01*
X20228Y-54005D01*
X20314Y-54005D01*
X20371Y-54043D01*
X20399Y-54081D01*
X20428Y-54158D01*
X20428Y-54348D01*
X20399Y-54424D01*
X20371Y-54462D01*
X20314Y-54500D01*
X20142Y-54500D01*
X20085Y-54462D01*
X20057Y-54424D01*
X20714Y-54462D02*
X20714Y-54500D01*
X20685Y-54577D01*
X20657Y-54615D01*
X20914Y-53700D02*
X21285Y-53700D01*
X21085Y-54005D01*
X21171Y-54005D01*
X21228Y-54043D01*
X21257Y-54081D01*
X21285Y-54158D01*
X21285Y-54348D01*
X21257Y-54424D01*
X21228Y-54462D01*
X21171Y-54500D01*
X21000Y-54500D01*
X20942Y-54462D01*
X20914Y-54424D01*
X21800Y-53967D02*
X21800Y-54500D01*
X21657Y-53662D02*
X21514Y-54234D01*
X21885Y-54234D01*
X22228Y-53700D02*
X22285Y-53700D01*
X22342Y-53739D01*
X22371Y-53777D01*
X22400Y-53853D01*
X22428Y-54005D01*
X22428Y-54196D01*
X22400Y-54348D01*
X22371Y-54424D01*
X22342Y-54462D01*
X22285Y-54500D01*
X22228Y-54500D01*
X22171Y-54462D01*
X22142Y-54424D01*
X22114Y-54348D01*
X22085Y-54196D01*
X22085Y-54005D01*
X22114Y-53853D01*
X22142Y-53777D01*
X22171Y-53739D01*
X22228Y-53700D01*
X23142Y-54500D02*
X23142Y-53967D01*
X23142Y-54043D02*
X23171Y-54005D01*
X23228Y-53967D01*
X23314Y-53967D01*
X23371Y-54005D01*
X23400Y-54081D01*
X23400Y-54500D01*
X23400Y-54081D02*
X23428Y-54005D01*
X23485Y-53967D01*
X23571Y-53967D01*
X23628Y-54005D01*
X23657Y-54081D01*
X23657Y-54500D01*
X23942Y-54500D02*
X23942Y-53967D01*
X23942Y-54043D02*
X23971Y-54005D01*
X24028Y-53967D01*
X24114Y-53967D01*
X24171Y-54005D01*
X24200Y-54081D01*
X24200Y-54500D01*
X24200Y-54081D02*
X24228Y-54005D01*
X24285Y-53967D01*
X24371Y-53967D01*
X24428Y-54005D01*
X24457Y-54081D01*
X24457Y-54500D01*
X11500Y-53499D02*
X32500Y-53499D01*
X11500Y-49500D02*
X11500Y-54779D01*
X32500Y-49500D02*
X32500Y-54779D01*
X32500Y-53499D02*
X32057Y-53729D01*
X32500Y-53499D02*
X32057Y-53269D01*
X11500Y-53499D02*
X11943Y-53729D01*
X11500Y-53499D02*
X11943Y-53269D01*
X38201Y-41171D02*
X38201Y-41457D01*
X38582Y-41485D01*
X38544Y-41457D01*
X38506Y-41400D01*
X38506Y-41257D01*
X38544Y-41200D01*
X38582Y-41171D01*
X38659Y-41142D01*
X38849Y-41142D01*
X38925Y-41171D01*
X38963Y-41200D01*
X39001Y-41257D01*
X39001Y-41400D01*
X38963Y-41457D01*
X38925Y-41485D01*
X38201Y-40942D02*
X38201Y-40571D01*
X38506Y-40771D01*
X38506Y-40685D01*
X38544Y-40628D01*
X38582Y-40600D01*
X38659Y-40571D01*
X38849Y-40571D01*
X38925Y-40600D01*
X38963Y-40628D01*
X39001Y-40685D01*
X39001Y-40857D01*
X38963Y-40914D01*
X38925Y-40942D01*
X38963Y-40285D02*
X39001Y-40285D01*
X39078Y-40314D01*
X39116Y-40342D01*
X38201Y-40085D02*
X38201Y-39714D01*
X38506Y-39914D01*
X38506Y-39828D01*
X38544Y-39771D01*
X38582Y-39742D01*
X38659Y-39714D01*
X38849Y-39714D01*
X38925Y-39742D01*
X38963Y-39771D01*
X39001Y-39828D01*
X39001Y-40000D01*
X38963Y-40057D01*
X38925Y-40085D01*
X38468Y-39200D02*
X39001Y-39200D01*
X38163Y-39342D02*
X38735Y-39485D01*
X38735Y-39114D01*
X38201Y-38771D02*
X38201Y-38714D01*
X38240Y-38657D01*
X38278Y-38628D01*
X38354Y-38600D01*
X38506Y-38571D01*
X38697Y-38571D01*
X38849Y-38600D01*
X38925Y-38628D01*
X38963Y-38657D01*
X39001Y-38714D01*
X39001Y-38771D01*
X38963Y-38828D01*
X38925Y-38857D01*
X38849Y-38885D01*
X38697Y-38914D01*
X38506Y-38914D01*
X38354Y-38885D01*
X38278Y-38857D01*
X38240Y-38828D01*
X38201Y-38771D01*
X39001Y-37857D02*
X38468Y-37857D01*
X38544Y-37857D02*
X38506Y-37828D01*
X38468Y-37771D01*
X38468Y-37685D01*
X38506Y-37628D01*
X38582Y-37599D01*
X39001Y-37599D01*
X38582Y-37599D02*
X38506Y-37571D01*
X38468Y-37514D01*
X38468Y-37428D01*
X38506Y-37371D01*
X38582Y-37342D01*
X39001Y-37342D01*
X39001Y-37057D02*
X38468Y-37057D01*
X38544Y-37057D02*
X38506Y-37028D01*
X38468Y-36971D01*
X38468Y-36885D01*
X38506Y-36828D01*
X38582Y-36799D01*
X39001Y-36799D01*
X38582Y-36799D02*
X38506Y-36771D01*
X38468Y-36714D01*
X38468Y-36628D01*
X38506Y-36571D01*
X38582Y-36542D01*
X39001Y-36542D01*
X38000Y-49500D02*
X38000Y-28500D01*
X32500Y-49500D02*
X39280Y-49500D01*
X32500Y-28500D02*
X39280Y-28500D01*
X38000Y-28500D02*
X38230Y-28943D01*
X38000Y-28500D02*
X37770Y-28943D01*
X38000Y-49500D02*
X38230Y-49057D01*
X38000Y-49500D02*
X37770Y-49057D01*
G54D13*
X12500Y-48500D03*
G54D14*
X26358Y-45221D03*
G54D15*
X26358Y-46221D03*
G54D14*
X23996Y-45221D03*
G54D15*
X23996Y-46221D03*
G54D13*
X31500Y-48500D03*
G54D16*
X31096Y-29500D03*
X29404Y-29500D03*
G54D17*
X31628Y-30484D03*
X28872Y-30484D03*
G54D16*
X13500Y-32500D03*
X13500Y-33500D03*
X13500Y-34500D03*
X13500Y-35500D03*
X13500Y-36500D03*
X13500Y-37500D03*
X13500Y-38500D03*
X13500Y-39500D03*
X13500Y-40500D03*
X13500Y-41500D03*
X13500Y-42500D03*
X13500Y-43500D03*
X13500Y-44500D03*
G54D18*
X13500Y-45500D03*
X12500Y-45500D03*
G54D16*
X12500Y-44500D03*
X12500Y-43500D03*
X12500Y-42500D03*
X12500Y-41500D03*
X12500Y-40500D03*
X12500Y-39500D03*
X12500Y-38500D03*
X12500Y-37500D03*
X12500Y-36500D03*
X12500Y-35500D03*
X12500Y-34500D03*
X12500Y-33500D03*
X12500Y-32500D03*
X15500Y-47500D03*
X16500Y-47500D03*
X17500Y-47500D03*
X18500Y-47500D03*
X19500Y-47500D03*
X20500Y-47500D03*
X21500Y-47500D03*
X22500Y-47500D03*
X23500Y-47500D03*
X24500Y-47500D03*
X25500Y-47500D03*
X26500Y-47500D03*
X27500Y-47500D03*
G54D18*
X28500Y-47500D03*
X28500Y-48500D03*
G54D16*
X27500Y-48500D03*
X26500Y-48500D03*
X25500Y-48500D03*
X24500Y-48500D03*
X23500Y-48500D03*
X22500Y-48500D03*
X21500Y-48500D03*
X20500Y-48500D03*
X19500Y-48500D03*
X18500Y-48500D03*
X17500Y-48500D03*
X16500Y-48500D03*
X15500Y-48500D03*
X30500Y-45500D03*
X30500Y-44500D03*
X30500Y-43500D03*
X30500Y-42500D03*
X30500Y-41500D03*
X30500Y-40500D03*
X30500Y-39500D03*
X30500Y-38500D03*
X30500Y-37500D03*
X30500Y-36500D03*
X30500Y-35500D03*
X30500Y-34500D03*
X30500Y-33500D03*
G54D18*
X30500Y-32500D03*
X31500Y-32500D03*
G54D16*
X31500Y-33500D03*
X31500Y-34500D03*
X31500Y-35500D03*
X31500Y-36500D03*
X31500Y-37500D03*
X31500Y-38500D03*
X31500Y-39500D03*
X31500Y-40500D03*
X31500Y-41500D03*
X31500Y-42500D03*
X31500Y-43500D03*
X31500Y-44500D03*
X31500Y-45500D03*
G54D14*
X25000Y-29250D03*
G54D15*
X25000Y-30250D03*
X24000Y-29250D03*
X24000Y-30250D03*
X23000Y-29250D03*
X23000Y-30250D03*
X22000Y-29250D03*
X22000Y-30250D03*
X21000Y-29250D03*
X21000Y-30250D03*
X20000Y-29250D03*
X20000Y-30250D03*
X19000Y-29250D03*
X19000Y-30250D03*
G54D19*
X18614Y-42695D03*
X16686Y-36468D03*
X15807Y-35684D03*
X17021Y-41783D03*
X17021Y-42964D03*
X16686Y-33545D03*
X16250Y-29200D03*
X17700Y-29200D03*
X17700Y-30250D03*
X15550Y-30250D03*
X16800Y-31800D03*
X17750Y-32750D03*
X14350Y-33200D03*
X14350Y-37000D03*
X14350Y-40700D03*
X19900Y-38800D03*
X20900Y-38800D03*
X22900Y-32800D03*
X23900Y-32800D03*
X25350Y-33550D03*
X25350Y-31750D03*
X25200Y-39850D03*
X25100Y-44450D03*
X22900Y-39650D03*
X21450Y-43950D03*
X15350Y-44700D03*
X16300Y-43750D03*
X18865Y-37754D03*
X14662Y-36468D03*
X14760Y-40209D03*
X14662Y-35188D03*
X19885Y-33805D03*
X18865Y-39304D03*
X27500Y-42984D03*
X20420Y-31410D03*
X19377Y-42956D03*
X23628Y-45800D03*
X15155Y-41288D03*
X17835Y-38080D03*
X18354Y-39043D03*
X16731Y-39304D03*
X17842Y-39304D03*
X20100Y-46640D03*
X25915Y-38114D03*
X19375Y-33805D03*
X20956Y-34597D03*
X19160Y-30889D03*
X19375Y-36073D03*
G54D20*
X28500Y-47500D02*
X28500Y-48500D01*
X15500Y-47500D02*
X15500Y-48500D01*
X17755Y-43554D02*
X18614Y-42695D01*
X17755Y-43692D02*
X17755Y-43554D01*
X15500Y-45947D02*
X17755Y-43692D01*
X15500Y-47500D02*
X15500Y-45947D01*
X17500Y-48500D02*
X17500Y-47500D01*
X16500Y-48500D02*
X16500Y-47500D01*
X15807Y-36308D02*
X15807Y-35684D01*
X15968Y-36468D02*
X15807Y-36308D01*
X16686Y-36468D02*
X15968Y-36468D01*
X17021Y-41783D02*
X17021Y-42964D01*
X16686Y-36468D02*
X16686Y-33545D01*
X17700Y-30250D02*
X17700Y-29200D01*
X15550Y-30550D02*
X15550Y-30250D01*
X16800Y-31800D02*
X15550Y-30550D01*
X14800Y-32750D02*
X17750Y-32750D01*
X14350Y-33200D02*
X14800Y-32750D01*
X14350Y-40700D02*
X14350Y-37000D01*
X20900Y-38800D02*
X19900Y-38800D01*
X25350Y-31750D02*
X25350Y-33550D01*
X25200Y-44350D02*
X25200Y-39850D01*
X25100Y-44450D02*
X25200Y-44350D01*
X22900Y-42500D02*
X22900Y-39650D01*
X21450Y-43950D02*
X22900Y-42500D01*
X13500Y-44500D02*
X14250Y-43750D01*
X14250Y-43750D02*
X16300Y-43750D01*
X27500Y-47500D02*
X27500Y-48500D01*
X14662Y-36468D02*
X14662Y-35188D01*
X20420Y-31050D02*
X20420Y-31410D01*
X18865Y-37754D02*
X18865Y-39304D01*
X14760Y-37494D02*
X14920Y-37334D01*
X14760Y-40209D02*
X14760Y-37494D01*
X27500Y-47500D02*
X27500Y-42984D01*
X14920Y-37080D02*
X14920Y-37334D01*
X14662Y-36822D02*
X14920Y-37080D01*
X14662Y-36468D02*
X14662Y-36822D01*
X20420Y-29829D02*
X21000Y-29250D01*
X20420Y-31050D02*
X20420Y-29829D01*
X18445Y-37334D02*
X14920Y-37334D01*
X18865Y-37754D02*
X18445Y-37334D01*
X14760Y-43239D02*
X14760Y-40209D01*
X13500Y-44500D02*
X14760Y-43239D01*
X13915Y-47084D02*
X12500Y-48500D01*
X13915Y-44915D02*
X13915Y-47084D01*
X13500Y-44500D02*
X13915Y-44915D01*
X20420Y-33271D02*
X20420Y-31410D01*
X19885Y-33805D02*
X20420Y-33271D01*
X26357Y-31607D02*
X26357Y-45220D01*
X25000Y-30250D02*
X26357Y-31607D01*
X18500Y-47500D02*
X18500Y-48500D01*
X18500Y-43834D02*
X19377Y-42956D01*
X18500Y-47500D02*
X18500Y-43834D01*
X19377Y-37010D02*
X19377Y-42956D01*
X18419Y-36052D02*
X19377Y-37010D01*
X18419Y-29990D02*
X18419Y-36052D01*
X18579Y-29829D02*
X18419Y-29990D01*
X19420Y-29829D02*
X18579Y-29829D01*
X20000Y-29250D02*
X19420Y-29829D01*
X25500Y-47500D02*
X25500Y-48500D01*
X25339Y-45800D02*
X23628Y-45800D01*
X25500Y-45960D02*
X25339Y-45800D01*
X25500Y-47500D02*
X25500Y-45960D01*
X24500Y-48500D02*
X24500Y-47500D01*
X15316Y-38883D02*
X17835Y-38883D01*
X15155Y-39043D02*
X15316Y-38883D01*
X15155Y-41288D02*
X15155Y-39043D01*
X17835Y-38883D02*
X17835Y-38080D01*
X17996Y-39043D02*
X18354Y-39043D01*
X17835Y-38883D02*
X17996Y-39043D01*
X16731Y-39304D02*
X17842Y-39304D01*
X19500Y-47500D02*
X19500Y-48500D01*
X21420Y-29829D02*
X22000Y-29250D01*
X21420Y-41394D02*
X21420Y-29829D01*
X19500Y-43314D02*
X21420Y-41394D01*
X19500Y-47500D02*
X19500Y-43314D01*
X21500Y-47500D02*
X21500Y-48500D01*
X23420Y-29829D02*
X24000Y-29250D01*
X23420Y-43088D02*
X23420Y-29829D01*
X21500Y-45008D02*
X23420Y-43088D01*
X21500Y-47500D02*
X21500Y-45008D01*
X22500Y-47500D02*
X22500Y-48500D01*
X24420Y-29829D02*
X25000Y-29250D01*
X24420Y-43408D02*
X24420Y-29829D01*
X22500Y-45328D02*
X24420Y-43408D01*
X22500Y-47500D02*
X22500Y-45328D01*
X23500Y-47500D02*
X23500Y-48500D01*
X22000Y-41672D02*
X22000Y-30250D01*
X20100Y-43572D02*
X22000Y-41672D01*
X20100Y-46640D02*
X20100Y-43572D01*
X20500Y-47500D02*
X20500Y-48500D01*
X22420Y-29829D02*
X23000Y-29250D01*
X22420Y-41968D02*
X22420Y-29829D01*
X20500Y-43888D02*
X22420Y-41968D01*
X20500Y-47500D02*
X20500Y-43888D01*
X26500Y-47500D02*
X26500Y-48500D01*
X25915Y-46915D02*
X25915Y-38114D01*
X26500Y-47500D02*
X25915Y-46915D01*
X20956Y-34597D02*
X19536Y-34597D01*
X19375Y-31105D02*
X19160Y-30889D01*
X19375Y-33805D02*
X19375Y-31105D01*
X19375Y-34757D02*
X19375Y-36073D01*
X19536Y-34597D02*
X19375Y-34757D01*
X19375Y-34437D02*
X19536Y-34597D01*
X19375Y-33805D02*
X19375Y-34437D01*
G54D10*
G36*
X21130Y-34247D02*
X21033Y-34207D01*
X20878Y-34207D01*
X20735Y-34266D01*
X20694Y-34307D01*
X19665Y-34307D01*
X19665Y-34066D01*
X19706Y-34026D01*
X19765Y-33883D01*
X19766Y-33728D01*
X19706Y-33584D01*
X19665Y-33543D01*
X19665Y-31105D01*
X19665Y-31105D01*
X19665Y-31105D01*
X19647Y-31012D01*
X19643Y-30994D01*
X19643Y-30994D01*
X19581Y-30900D01*
X19550Y-30869D01*
X19550Y-30812D01*
X19490Y-30668D01*
X19424Y-30602D01*
X19465Y-30561D01*
X19499Y-30480D01*
X19533Y-30561D01*
X19688Y-30715D01*
X19890Y-30799D01*
X20108Y-30800D01*
X20311Y-30716D01*
X20465Y-30561D01*
X20499Y-30480D01*
X20533Y-30561D01*
X20688Y-30715D01*
X20890Y-30799D01*
X21108Y-30800D01*
X21130Y-30791D01*
X21130Y-34247D01*
X21130Y-34247D01*
G37*
G54D21*
X21130Y-34247D02*
X21033Y-34207D01*
X20878Y-34207D01*
X20735Y-34266D01*
X20694Y-34307D01*
X19665Y-34307D01*
X19665Y-34066D01*
X19706Y-34026D01*
X19765Y-33883D01*
X19766Y-33728D01*
X19706Y-33584D01*
X19665Y-33543D01*
X19665Y-31105D01*
X19665Y-31105D01*
X19665Y-31105D01*
X19647Y-31012D01*
X19643Y-30994D01*
X19643Y-30994D01*
X19581Y-30900D01*
X19550Y-30869D01*
X19550Y-30812D01*
X19490Y-30668D01*
X19424Y-30602D01*
X19465Y-30561D01*
X19499Y-30480D01*
X19533Y-30561D01*
X19688Y-30715D01*
X19890Y-30799D01*
X20108Y-30800D01*
X20311Y-30716D01*
X20465Y-30561D01*
X20499Y-30480D01*
X20533Y-30561D01*
X20688Y-30715D01*
X20890Y-30799D01*
X21108Y-30800D01*
X21130Y-30791D01*
X21130Y-34247D01*
G54D10*
G36*
X21130Y-41274D02*
X19688Y-42715D01*
X19667Y-42694D01*
X19667Y-37010D01*
X19667Y-37010D01*
X19657Y-36957D01*
X19645Y-36899D01*
X19645Y-36899D01*
X19645Y-36899D01*
X19610Y-36846D01*
X19583Y-36805D01*
X19583Y-36805D01*
X19583Y-36805D01*
X19583Y-36805D01*
X19201Y-36423D01*
X19298Y-36463D01*
X19453Y-36463D01*
X19596Y-36404D01*
X19706Y-36295D01*
X19765Y-36151D01*
X19766Y-35996D01*
X19706Y-35853D01*
X19665Y-35812D01*
X19665Y-34887D01*
X20694Y-34887D01*
X20734Y-34927D01*
X20878Y-34987D01*
X21033Y-34987D01*
X21130Y-34947D01*
X21130Y-41274D01*
X21130Y-41274D01*
G37*
G54D21*
X21130Y-41274D02*
X19688Y-42715D01*
X19667Y-42694D01*
X19667Y-37010D01*
X19667Y-37010D01*
X19657Y-36957D01*
X19645Y-36899D01*
X19645Y-36899D01*
X19645Y-36899D01*
X19610Y-36846D01*
X19583Y-36805D01*
X19583Y-36805D01*
X19583Y-36805D01*
X19583Y-36805D01*
X19201Y-36423D01*
X19298Y-36463D01*
X19453Y-36463D01*
X19596Y-36404D01*
X19706Y-36295D01*
X19765Y-36151D01*
X19766Y-35996D01*
X19706Y-35853D01*
X19665Y-35812D01*
X19665Y-34887D01*
X20694Y-34887D01*
X20734Y-34927D01*
X20878Y-34987D01*
X21033Y-34987D01*
X21130Y-34947D01*
X21130Y-41274D01*
G54D10*
G36*
X21647Y-28825D02*
X21534Y-28938D01*
X21502Y-29013D01*
X21481Y-28962D01*
X21385Y-28934D01*
X21070Y-29250D01*
X21076Y-29255D01*
X21005Y-29326D01*
X21000Y-29320D01*
X20684Y-29635D01*
X20712Y-29731D01*
X20767Y-29750D01*
X20688Y-29783D01*
X20534Y-29938D01*
X20500Y-30019D01*
X20466Y-29938D01*
X20311Y-29784D01*
X20230Y-29750D01*
X20311Y-29716D01*
X20465Y-29561D01*
X20497Y-29486D01*
X20518Y-29537D01*
X20614Y-29565D01*
X20929Y-29250D01*
X20614Y-28934D01*
X20518Y-28962D01*
X20499Y-29017D01*
X20466Y-28938D01*
X20352Y-28825D01*
X20696Y-28825D01*
X20684Y-28864D01*
X21000Y-29179D01*
X21315Y-28864D01*
X21303Y-28825D01*
X21647Y-28825D01*
X21647Y-28825D01*
G37*
G54D21*
X21647Y-28825D02*
X21534Y-28938D01*
X21502Y-29013D01*
X21481Y-28962D01*
X21385Y-28934D01*
X21070Y-29250D01*
X21076Y-29255D01*
X21005Y-29326D01*
X21000Y-29320D01*
X20684Y-29635D01*
X20712Y-29731D01*
X20767Y-29750D01*
X20688Y-29783D01*
X20534Y-29938D01*
X20500Y-30019D01*
X20466Y-29938D01*
X20311Y-29784D01*
X20230Y-29750D01*
X20311Y-29716D01*
X20465Y-29561D01*
X20497Y-29486D01*
X20518Y-29537D01*
X20614Y-29565D01*
X20929Y-29250D01*
X20614Y-28934D01*
X20518Y-28962D01*
X20499Y-29017D01*
X20466Y-28938D01*
X20352Y-28825D01*
X20696Y-28825D01*
X20684Y-28864D01*
X21000Y-29179D01*
X21315Y-28864D01*
X21303Y-28825D01*
X21647Y-28825D01*
G54D10*
G36*
X23130Y-42968D02*
X21294Y-44803D01*
X21232Y-44897D01*
X21210Y-45008D01*
X21210Y-47029D01*
X21191Y-47037D01*
X21037Y-47190D01*
X21000Y-47281D01*
X20962Y-47191D01*
X20809Y-47037D01*
X20790Y-47029D01*
X20790Y-44008D01*
X22625Y-42173D01*
X22687Y-42079D01*
X22710Y-41968D01*
X22710Y-30725D01*
X22890Y-30799D01*
X23108Y-30800D01*
X23130Y-30791D01*
X23130Y-42968D01*
X23130Y-42968D01*
G37*
G54D21*
X23130Y-42968D02*
X21294Y-44803D01*
X21232Y-44897D01*
X21210Y-45008D01*
X21210Y-47029D01*
X21191Y-47037D01*
X21037Y-47190D01*
X21000Y-47281D01*
X20962Y-47191D01*
X20809Y-47037D01*
X20790Y-47029D01*
X20790Y-44008D01*
X22625Y-42173D01*
X22687Y-42079D01*
X22710Y-41968D01*
X22710Y-30725D01*
X22890Y-30799D01*
X23108Y-30800D01*
X23130Y-30791D01*
X23130Y-42968D01*
G54D10*
G36*
X24130Y-43288D02*
X22294Y-45123D01*
X22232Y-45217D01*
X22210Y-45328D01*
X22210Y-47029D01*
X22191Y-47037D01*
X22037Y-47190D01*
X22000Y-47281D01*
X21962Y-47191D01*
X21809Y-47037D01*
X21790Y-47029D01*
X21790Y-45128D01*
X23625Y-43293D01*
X23687Y-43199D01*
X23710Y-43088D01*
X23710Y-30725D01*
X23890Y-30799D01*
X24108Y-30800D01*
X24130Y-30791D01*
X24130Y-43288D01*
X24130Y-43288D01*
G37*
G54D21*
X24130Y-43288D02*
X22294Y-45123D01*
X22232Y-45217D01*
X22210Y-45328D01*
X22210Y-47029D01*
X22191Y-47037D01*
X22037Y-47190D01*
X22000Y-47281D01*
X21962Y-47191D01*
X21809Y-47037D01*
X21790Y-47029D01*
X21790Y-45128D01*
X23625Y-43293D01*
X23687Y-43199D01*
X23710Y-43088D01*
X23710Y-30725D01*
X23890Y-30799D01*
X24108Y-30800D01*
X24130Y-30791D01*
X24130Y-43288D01*
G54D10*
G36*
X26067Y-37755D02*
X25993Y-37724D01*
X25838Y-37724D01*
X25694Y-37783D01*
X25585Y-37893D01*
X25525Y-38036D01*
X25525Y-38191D01*
X25584Y-38335D01*
X25625Y-38376D01*
X25625Y-45676D01*
X25545Y-45595D01*
X25450Y-45532D01*
X25339Y-45510D01*
X24546Y-45510D01*
X24546Y-45471D01*
X24546Y-44871D01*
X24507Y-44779D01*
X24437Y-44709D01*
X24345Y-44671D01*
X24246Y-44671D01*
X23646Y-44671D01*
X23554Y-44709D01*
X23484Y-44779D01*
X23446Y-44871D01*
X23446Y-44970D01*
X23446Y-45454D01*
X23407Y-45470D01*
X23297Y-45579D01*
X23238Y-45722D01*
X23238Y-45878D01*
X23297Y-46021D01*
X23407Y-46131D01*
X23446Y-46147D01*
X23445Y-46329D01*
X23529Y-46532D01*
X23684Y-46686D01*
X23886Y-46770D01*
X24104Y-46771D01*
X24307Y-46687D01*
X24461Y-46532D01*
X24545Y-46330D01*
X24546Y-46112D01*
X24537Y-46090D01*
X25210Y-46090D01*
X25210Y-47029D01*
X25191Y-47037D01*
X25037Y-47190D01*
X25000Y-47281D01*
X24962Y-47191D01*
X24809Y-47037D01*
X24608Y-46954D01*
X24391Y-46954D01*
X24191Y-47037D01*
X24037Y-47190D01*
X24000Y-47281D01*
X23962Y-47191D01*
X23809Y-47037D01*
X23608Y-46954D01*
X23391Y-46954D01*
X23191Y-47037D01*
X23037Y-47190D01*
X23000Y-47281D01*
X22962Y-47191D01*
X22809Y-47037D01*
X22790Y-47029D01*
X22790Y-45448D01*
X24625Y-43613D01*
X24687Y-43519D01*
X24710Y-43408D01*
X24710Y-30725D01*
X24890Y-30799D01*
X25108Y-30800D01*
X25130Y-30791D01*
X26067Y-31728D01*
X26067Y-37755D01*
X26067Y-37755D01*
G37*
G54D21*
X26067Y-37755D02*
X25993Y-37724D01*
X25838Y-37724D01*
X25694Y-37783D01*
X25585Y-37893D01*
X25525Y-38036D01*
X25525Y-38191D01*
X25584Y-38335D01*
X25625Y-38376D01*
X25625Y-45676D01*
X25545Y-45595D01*
X25450Y-45532D01*
X25339Y-45510D01*
X24546Y-45510D01*
X24546Y-45471D01*
X24546Y-44871D01*
X24507Y-44779D01*
X24437Y-44709D01*
X24345Y-44671D01*
X24246Y-44671D01*
X23646Y-44671D01*
X23554Y-44709D01*
X23484Y-44779D01*
X23446Y-44871D01*
X23446Y-44970D01*
X23446Y-45454D01*
X23407Y-45470D01*
X23297Y-45579D01*
X23238Y-45722D01*
X23238Y-45878D01*
X23297Y-46021D01*
X23407Y-46131D01*
X23446Y-46147D01*
X23445Y-46329D01*
X23529Y-46532D01*
X23684Y-46686D01*
X23886Y-46770D01*
X24104Y-46771D01*
X24307Y-46687D01*
X24461Y-46532D01*
X24545Y-46330D01*
X24546Y-46112D01*
X24537Y-46090D01*
X25210Y-46090D01*
X25210Y-47029D01*
X25191Y-47037D01*
X25037Y-47190D01*
X25000Y-47281D01*
X24962Y-47191D01*
X24809Y-47037D01*
X24608Y-46954D01*
X24391Y-46954D01*
X24191Y-47037D01*
X24037Y-47190D01*
X24000Y-47281D01*
X23962Y-47191D01*
X23809Y-47037D01*
X23608Y-46954D01*
X23391Y-46954D01*
X23191Y-47037D01*
X23037Y-47190D01*
X23000Y-47281D01*
X22962Y-47191D01*
X22809Y-47037D01*
X22790Y-47029D01*
X22790Y-45448D01*
X24625Y-43613D01*
X24687Y-43519D01*
X24710Y-43408D01*
X24710Y-30725D01*
X24890Y-30799D01*
X25108Y-30800D01*
X25130Y-30791D01*
X26067Y-31728D01*
X26067Y-37755D01*
G54D10*
G36*
X32175Y-47806D02*
X32148Y-47780D01*
X32104Y-47824D01*
X32045Y-47719D01*
X32045Y-45391D01*
X31962Y-45191D01*
X31809Y-45037D01*
X31718Y-45000D01*
X31808Y-44962D01*
X31962Y-44809D01*
X32045Y-44608D01*
X32045Y-44391D01*
X31962Y-44191D01*
X31809Y-44037D01*
X31718Y-44000D01*
X31808Y-43962D01*
X31962Y-43809D01*
X32045Y-43608D01*
X32045Y-43391D01*
X31962Y-43191D01*
X31809Y-43037D01*
X31718Y-43000D01*
X31808Y-42962D01*
X31962Y-42809D01*
X32045Y-42608D01*
X32045Y-42391D01*
X31962Y-42191D01*
X31809Y-42037D01*
X31718Y-42000D01*
X31808Y-41962D01*
X31962Y-41809D01*
X32045Y-41608D01*
X32045Y-41391D01*
X31962Y-41191D01*
X31809Y-41037D01*
X31718Y-41000D01*
X31808Y-40962D01*
X31962Y-40809D01*
X32045Y-40608D01*
X32045Y-40391D01*
X31962Y-40191D01*
X31809Y-40037D01*
X31718Y-40000D01*
X31808Y-39962D01*
X31962Y-39809D01*
X32045Y-39608D01*
X32045Y-39391D01*
X31962Y-39191D01*
X31809Y-39037D01*
X31718Y-39000D01*
X31808Y-38962D01*
X31962Y-38809D01*
X32045Y-38608D01*
X32045Y-38391D01*
X31962Y-38191D01*
X31809Y-38037D01*
X31718Y-38000D01*
X31808Y-37962D01*
X31962Y-37809D01*
X32045Y-37608D01*
X32045Y-37391D01*
X31962Y-37191D01*
X31809Y-37037D01*
X31718Y-37000D01*
X31808Y-36962D01*
X31962Y-36809D01*
X32045Y-36608D01*
X32045Y-36391D01*
X31962Y-36191D01*
X31809Y-36037D01*
X31718Y-36000D01*
X31808Y-35962D01*
X31962Y-35809D01*
X32045Y-35608D01*
X32045Y-35391D01*
X31962Y-35191D01*
X31809Y-35037D01*
X31718Y-35000D01*
X31808Y-34962D01*
X31962Y-34809D01*
X32045Y-34608D01*
X32045Y-34391D01*
X31962Y-34191D01*
X31809Y-34037D01*
X31718Y-34000D01*
X31808Y-33962D01*
X31962Y-33809D01*
X32045Y-33608D01*
X32045Y-33391D01*
X31962Y-33191D01*
X31817Y-33045D01*
X31845Y-33045D01*
X31937Y-33007D01*
X32007Y-32937D01*
X32045Y-32845D01*
X32045Y-32745D01*
X32045Y-32154D01*
X32007Y-32062D01*
X31937Y-31992D01*
X31845Y-31954D01*
X31745Y-31954D01*
X31154Y-31954D01*
X31062Y-31992D01*
X30999Y-32055D01*
X30937Y-31992D01*
X30845Y-31954D01*
X30745Y-31954D01*
X30154Y-31954D01*
X30062Y-31992D01*
X29992Y-32062D01*
X29954Y-32154D01*
X29954Y-32254D01*
X29954Y-32845D01*
X29992Y-32937D01*
X30062Y-33007D01*
X30154Y-33045D01*
X30183Y-33045D01*
X30037Y-33190D01*
X29954Y-33391D01*
X29954Y-33608D01*
X30037Y-33808D01*
X30190Y-33962D01*
X30281Y-33999D01*
X30191Y-34037D01*
X30037Y-34190D01*
X29954Y-34391D01*
X29954Y-34608D01*
X30037Y-34808D01*
X30190Y-34962D01*
X30281Y-34999D01*
X30191Y-35037D01*
X30037Y-35190D01*
X29954Y-35391D01*
X29954Y-35608D01*
X30037Y-35808D01*
X30190Y-35962D01*
X30281Y-35999D01*
X30191Y-36037D01*
X30037Y-36190D01*
X29954Y-36391D01*
X29954Y-36608D01*
X30037Y-36808D01*
X30190Y-36962D01*
X30281Y-36999D01*
X30191Y-37037D01*
X30037Y-37190D01*
X29954Y-37391D01*
X29954Y-37608D01*
X30037Y-37808D01*
X30190Y-37962D01*
X30281Y-37999D01*
X30191Y-38037D01*
X30037Y-38190D01*
X29954Y-38391D01*
X29954Y-38608D01*
X30037Y-38808D01*
X30190Y-38962D01*
X30281Y-38999D01*
X30191Y-39037D01*
X30037Y-39190D01*
X29954Y-39391D01*
X29954Y-39608D01*
X30037Y-39808D01*
X30190Y-39962D01*
X30281Y-39999D01*
X30191Y-40037D01*
X30037Y-40190D01*
X29954Y-40391D01*
X29954Y-40608D01*
X30037Y-40808D01*
X30190Y-40962D01*
X30281Y-40999D01*
X30191Y-41037D01*
X30037Y-41190D01*
X29954Y-41391D01*
X29954Y-41608D01*
X30037Y-41808D01*
X30190Y-41962D01*
X30281Y-41999D01*
X30191Y-42037D01*
X30037Y-42190D01*
X29954Y-42391D01*
X29954Y-42608D01*
X30037Y-42808D01*
X30190Y-42962D01*
X30281Y-42999D01*
X30191Y-43037D01*
X30037Y-43190D01*
X29954Y-43391D01*
X29954Y-43608D01*
X30037Y-43808D01*
X30190Y-43962D01*
X30281Y-43999D01*
X30191Y-44037D01*
X30037Y-44190D01*
X29954Y-44391D01*
X29954Y-44608D01*
X30037Y-44808D01*
X30190Y-44962D01*
X30281Y-44999D01*
X30191Y-45037D01*
X30037Y-45190D01*
X29954Y-45391D01*
X29954Y-45608D01*
X30037Y-45808D01*
X30190Y-45962D01*
X30391Y-46045D01*
X30608Y-46045D01*
X30808Y-45962D01*
X30962Y-45809D01*
X30999Y-45718D01*
X31037Y-45808D01*
X31190Y-45962D01*
X31391Y-46045D01*
X31608Y-46045D01*
X31808Y-45962D01*
X31962Y-45809D01*
X32045Y-45608D01*
X32045Y-45391D01*
X32045Y-47719D01*
X32028Y-47688D01*
X31677Y-47547D01*
X31299Y-47552D01*
X30971Y-47688D01*
X30895Y-47824D01*
X31500Y-48429D01*
X31505Y-48423D01*
X31576Y-48494D01*
X31570Y-48500D01*
X31576Y-48505D01*
X31505Y-48576D01*
X31500Y-48570D01*
X31494Y-48576D01*
X31429Y-48511D01*
X31423Y-48505D01*
X31429Y-48500D01*
X30824Y-47895D01*
X30688Y-47971D01*
X30547Y-48322D01*
X30552Y-48700D01*
X30688Y-49028D01*
X30824Y-49104D01*
X30780Y-49148D01*
X30806Y-49175D01*
X29949Y-49175D01*
X29949Y-29391D01*
X29866Y-29191D01*
X29713Y-29037D01*
X29512Y-28954D01*
X29295Y-28954D01*
X29095Y-29037D01*
X28941Y-29190D01*
X28858Y-29391D01*
X28858Y-29608D01*
X28941Y-29808D01*
X28973Y-29840D01*
X28744Y-29840D01*
X28507Y-29938D01*
X28326Y-30119D01*
X28228Y-30355D01*
X28228Y-30611D01*
X28326Y-30848D01*
X28507Y-31029D01*
X28743Y-31127D01*
X28999Y-31127D01*
X29236Y-31029D01*
X29417Y-30848D01*
X29515Y-30612D01*
X29515Y-30356D01*
X29417Y-30119D01*
X29343Y-30045D01*
X29512Y-30045D01*
X29712Y-29962D01*
X29866Y-29809D01*
X29949Y-29608D01*
X29949Y-29391D01*
X29949Y-49175D01*
X29045Y-49175D01*
X29045Y-48845D01*
X29045Y-48745D01*
X29045Y-48154D01*
X29007Y-48062D01*
X28944Y-47999D01*
X29007Y-47937D01*
X29045Y-47845D01*
X29045Y-47745D01*
X29045Y-47154D01*
X29007Y-47062D01*
X28937Y-46992D01*
X28845Y-46954D01*
X28745Y-46954D01*
X28154Y-46954D01*
X28062Y-46992D01*
X27992Y-47062D01*
X27954Y-47154D01*
X27954Y-47208D01*
X27882Y-47188D01*
X27811Y-47258D01*
X27811Y-47117D01*
X27785Y-47022D01*
X27580Y-46949D01*
X27363Y-46960D01*
X27214Y-47022D01*
X27188Y-47117D01*
X27500Y-47429D01*
X27811Y-47117D01*
X27811Y-47258D01*
X27570Y-47500D01*
X27882Y-47811D01*
X27954Y-47791D01*
X27954Y-47845D01*
X27992Y-47937D01*
X28055Y-48000D01*
X27992Y-48062D01*
X27954Y-48154D01*
X27954Y-48208D01*
X27882Y-48188D01*
X27811Y-48258D01*
X27811Y-48117D01*
X27785Y-48022D01*
X27726Y-48001D01*
X27785Y-47977D01*
X27811Y-47882D01*
X27500Y-47570D01*
X27188Y-47882D01*
X27214Y-47977D01*
X27273Y-47998D01*
X27214Y-48022D01*
X27188Y-48117D01*
X27500Y-48429D01*
X27811Y-48117D01*
X27811Y-48258D01*
X27570Y-48500D01*
X27882Y-48811D01*
X27954Y-48791D01*
X27954Y-48845D01*
X27992Y-48937D01*
X28062Y-49007D01*
X28154Y-49045D01*
X28254Y-49045D01*
X28845Y-49045D01*
X28937Y-49007D01*
X29007Y-48937D01*
X29045Y-48845D01*
X29045Y-49175D01*
X27811Y-49175D01*
X27811Y-48882D01*
X27500Y-48570D01*
X27188Y-48882D01*
X27214Y-48977D01*
X27419Y-49050D01*
X27636Y-49039D01*
X27785Y-48977D01*
X27811Y-48882D01*
X27811Y-49175D01*
X14050Y-49175D01*
X14050Y-44580D01*
X14045Y-44488D01*
X14045Y-43391D01*
X13962Y-43191D01*
X13809Y-43037D01*
X13718Y-43000D01*
X13808Y-42962D01*
X13962Y-42809D01*
X14045Y-42608D01*
X14045Y-42391D01*
X13962Y-42191D01*
X13809Y-42037D01*
X13718Y-42000D01*
X13808Y-41962D01*
X13962Y-41809D01*
X14045Y-41608D01*
X14045Y-41391D01*
X13962Y-41191D01*
X13809Y-41037D01*
X13718Y-41000D01*
X13808Y-40962D01*
X13962Y-40809D01*
X14045Y-40608D01*
X14045Y-40391D01*
X13962Y-40191D01*
X13809Y-40037D01*
X13718Y-40000D01*
X13808Y-39962D01*
X13962Y-39809D01*
X14045Y-39608D01*
X14045Y-39391D01*
X13962Y-39191D01*
X13809Y-39037D01*
X13718Y-39000D01*
X13808Y-38962D01*
X13962Y-38809D01*
X14045Y-38608D01*
X14045Y-38391D01*
X13962Y-38191D01*
X13809Y-38037D01*
X13718Y-38000D01*
X13808Y-37962D01*
X13962Y-37809D01*
X14045Y-37608D01*
X14045Y-37391D01*
X13962Y-37191D01*
X13809Y-37037D01*
X13718Y-37000D01*
X13808Y-36962D01*
X13962Y-36809D01*
X14045Y-36608D01*
X14045Y-36391D01*
X13962Y-36191D01*
X13809Y-36037D01*
X13718Y-36000D01*
X13808Y-35962D01*
X13962Y-35809D01*
X14045Y-35608D01*
X14045Y-35391D01*
X13962Y-35191D01*
X13809Y-35037D01*
X13718Y-35000D01*
X13808Y-34962D01*
X13962Y-34809D01*
X14045Y-34608D01*
X14045Y-34391D01*
X13962Y-34191D01*
X13809Y-34037D01*
X13718Y-34000D01*
X13808Y-33962D01*
X13962Y-33809D01*
X14045Y-33608D01*
X14045Y-33391D01*
X13962Y-33191D01*
X13809Y-33037D01*
X13718Y-33000D01*
X13808Y-32962D01*
X13962Y-32809D01*
X14045Y-32608D01*
X14045Y-32391D01*
X13962Y-32191D01*
X13809Y-32037D01*
X13608Y-31954D01*
X13391Y-31954D01*
X13191Y-32037D01*
X13037Y-32190D01*
X13000Y-32281D01*
X12962Y-32191D01*
X12809Y-32037D01*
X12608Y-31954D01*
X12391Y-31954D01*
X12191Y-32037D01*
X12037Y-32190D01*
X11954Y-32391D01*
X11954Y-32608D01*
X12037Y-32808D01*
X12190Y-32962D01*
X12281Y-32999D01*
X12191Y-33037D01*
X12037Y-33190D01*
X11954Y-33391D01*
X11954Y-33608D01*
X12037Y-33808D01*
X12190Y-33962D01*
X12281Y-33999D01*
X12191Y-34037D01*
X12037Y-34190D01*
X11954Y-34391D01*
X11954Y-34608D01*
X12037Y-34808D01*
X12190Y-34962D01*
X12281Y-34999D01*
X12191Y-35037D01*
X12037Y-35190D01*
X11954Y-35391D01*
X11954Y-35608D01*
X12037Y-35808D01*
X12190Y-35962D01*
X12281Y-35999D01*
X12191Y-36037D01*
X12037Y-36190D01*
X11954Y-36391D01*
X11954Y-36608D01*
X12037Y-36808D01*
X12190Y-36962D01*
X12281Y-36999D01*
X12191Y-37037D01*
X12037Y-37190D01*
X11954Y-37391D01*
X11954Y-37608D01*
X12037Y-37808D01*
X12190Y-37962D01*
X12281Y-37999D01*
X12191Y-38037D01*
X12037Y-38190D01*
X11954Y-38391D01*
X11954Y-38608D01*
X12037Y-38808D01*
X12190Y-38962D01*
X12281Y-38999D01*
X12191Y-39037D01*
X12037Y-39190D01*
X11954Y-39391D01*
X11954Y-39608D01*
X12037Y-39808D01*
X12190Y-39962D01*
X12281Y-39999D01*
X12191Y-40037D01*
X12037Y-40190D01*
X11954Y-40391D01*
X11954Y-40608D01*
X12037Y-40808D01*
X12190Y-40962D01*
X12281Y-40999D01*
X12191Y-41037D01*
X12037Y-41190D01*
X11954Y-41391D01*
X11954Y-41608D01*
X12037Y-41808D01*
X12190Y-41962D01*
X12281Y-41999D01*
X12191Y-42037D01*
X12037Y-42190D01*
X11954Y-42391D01*
X11954Y-42608D01*
X12037Y-42808D01*
X12190Y-42962D01*
X12281Y-42999D01*
X12191Y-43037D01*
X12037Y-43190D01*
X11954Y-43391D01*
X11954Y-43608D01*
X12037Y-43808D01*
X12190Y-43962D01*
X12275Y-43997D01*
X12214Y-44022D01*
X12188Y-44117D01*
X12500Y-44429D01*
X12811Y-44117D01*
X12785Y-44022D01*
X12720Y-43999D01*
X12808Y-43962D01*
X12962Y-43809D01*
X12999Y-43718D01*
X13037Y-43808D01*
X13190Y-43962D01*
X13275Y-43997D01*
X13214Y-44022D01*
X13188Y-44117D01*
X13500Y-44429D01*
X13811Y-44117D01*
X13785Y-44022D01*
X13720Y-43999D01*
X13808Y-43962D01*
X13962Y-43809D01*
X14045Y-43608D01*
X14045Y-43391D01*
X14045Y-44488D01*
X14039Y-44363D01*
X13977Y-44214D01*
X13882Y-44188D01*
X13570Y-44500D01*
X13882Y-44811D01*
X13977Y-44785D01*
X14050Y-44580D01*
X14050Y-49175D01*
X14045Y-49175D01*
X14045Y-45845D01*
X14045Y-45745D01*
X14045Y-45154D01*
X14007Y-45062D01*
X13937Y-44992D01*
X13845Y-44954D01*
X13791Y-44954D01*
X13811Y-44882D01*
X13500Y-44570D01*
X13429Y-44641D01*
X13429Y-44500D01*
X13117Y-44188D01*
X13022Y-44214D01*
X13001Y-44273D01*
X12977Y-44214D01*
X12882Y-44188D01*
X12570Y-44500D01*
X12882Y-44811D01*
X12977Y-44785D01*
X12998Y-44726D01*
X13022Y-44785D01*
X13117Y-44811D01*
X13429Y-44500D01*
X13429Y-44641D01*
X13188Y-44882D01*
X13208Y-44954D01*
X13154Y-44954D01*
X13062Y-44992D01*
X12999Y-45055D01*
X12937Y-44992D01*
X12845Y-44954D01*
X12791Y-44954D01*
X12811Y-44882D01*
X12500Y-44570D01*
X12429Y-44641D01*
X12429Y-44500D01*
X12117Y-44188D01*
X12022Y-44214D01*
X11949Y-44419D01*
X11960Y-44636D01*
X12022Y-44785D01*
X12117Y-44811D01*
X12429Y-44500D01*
X12429Y-44641D01*
X12188Y-44882D01*
X12208Y-44954D01*
X12154Y-44954D01*
X12062Y-44992D01*
X11992Y-45062D01*
X11954Y-45154D01*
X11954Y-45254D01*
X11954Y-45845D01*
X11992Y-45937D01*
X12062Y-46007D01*
X12154Y-46045D01*
X12254Y-46045D01*
X12845Y-46045D01*
X12937Y-46007D01*
X13000Y-45944D01*
X13062Y-46007D01*
X13154Y-46045D01*
X13254Y-46045D01*
X13845Y-46045D01*
X13937Y-46007D01*
X14007Y-45937D01*
X14045Y-45845D01*
X14045Y-49175D01*
X13452Y-49175D01*
X13193Y-49175D01*
X13219Y-49148D01*
X13175Y-49104D01*
X13311Y-49028D01*
X13452Y-48677D01*
X13447Y-48299D01*
X13311Y-47971D01*
X13175Y-47895D01*
X13104Y-47966D01*
X12570Y-48500D01*
X12576Y-48505D01*
X12505Y-48576D01*
X12500Y-48570D01*
X12494Y-48576D01*
X12423Y-48505D01*
X12429Y-48500D01*
X12423Y-48494D01*
X12494Y-48423D01*
X12500Y-48429D01*
X13104Y-47824D01*
X13028Y-47688D01*
X12677Y-47547D01*
X12299Y-47552D01*
X11971Y-47688D01*
X11895Y-47824D01*
X11851Y-47780D01*
X11825Y-47806D01*
X11825Y-28825D01*
X18647Y-28825D01*
X18534Y-28938D01*
X18450Y-29140D01*
X18449Y-29358D01*
X18528Y-29550D01*
X18468Y-29562D01*
X18374Y-29624D01*
X18214Y-29784D01*
X18151Y-29879D01*
X18129Y-29990D01*
X18129Y-36052D01*
X18129Y-36052D01*
X18140Y-36105D01*
X18151Y-36163D01*
X18151Y-36163D01*
X18151Y-36163D01*
X18182Y-36208D01*
X18214Y-36257D01*
X18214Y-36257D01*
X19087Y-37130D01*
X19087Y-42694D01*
X19047Y-42734D01*
X18988Y-42878D01*
X18988Y-42935D01*
X18294Y-43628D01*
X18232Y-43723D01*
X18210Y-43834D01*
X18210Y-47029D01*
X18191Y-47037D01*
X18037Y-47190D01*
X18000Y-47281D01*
X17962Y-47191D01*
X17809Y-47037D01*
X17608Y-46954D01*
X17391Y-46954D01*
X17191Y-47037D01*
X17037Y-47190D01*
X17000Y-47281D01*
X16962Y-47191D01*
X16809Y-47037D01*
X16608Y-46954D01*
X16391Y-46954D01*
X16191Y-47037D01*
X16037Y-47190D01*
X16000Y-47281D01*
X15962Y-47191D01*
X15809Y-47037D01*
X15790Y-47029D01*
X15790Y-46067D01*
X17960Y-43897D01*
X18023Y-43803D01*
X18045Y-43692D01*
X18045Y-43674D01*
X18634Y-43086D01*
X18691Y-43086D01*
X18834Y-43026D01*
X18944Y-42917D01*
X19003Y-42773D01*
X19004Y-42618D01*
X18944Y-42475D01*
X18835Y-42365D01*
X18744Y-42327D01*
X18744Y-38966D01*
X18684Y-38823D01*
X18575Y-38713D01*
X18431Y-38654D01*
X18276Y-38653D01*
X18133Y-38713D01*
X18125Y-38720D01*
X18125Y-38342D01*
X18166Y-38301D01*
X18225Y-38158D01*
X18226Y-38003D01*
X18166Y-37860D01*
X18057Y-37750D01*
X17913Y-37690D01*
X17758Y-37690D01*
X17615Y-37749D01*
X17505Y-37859D01*
X17446Y-38002D01*
X17445Y-38157D01*
X17505Y-38301D01*
X17545Y-38342D01*
X17545Y-38593D01*
X17076Y-38593D01*
X17076Y-36391D01*
X17016Y-36248D01*
X16976Y-36207D01*
X16976Y-33806D01*
X17016Y-33766D01*
X17075Y-33623D01*
X17076Y-33468D01*
X17016Y-33324D01*
X16907Y-33214D01*
X16763Y-33155D01*
X16608Y-33155D01*
X16465Y-33214D01*
X16355Y-33324D01*
X16296Y-33467D01*
X16295Y-33622D01*
X16355Y-33765D01*
X16396Y-33806D01*
X16396Y-36178D01*
X16097Y-36178D01*
X16097Y-35945D01*
X16138Y-35905D01*
X16197Y-35761D01*
X16198Y-35606D01*
X16138Y-35463D01*
X16029Y-35353D01*
X15885Y-35294D01*
X15730Y-35293D01*
X15587Y-35353D01*
X15477Y-35462D01*
X15418Y-35606D01*
X15417Y-35761D01*
X15477Y-35904D01*
X15517Y-35945D01*
X15517Y-36308D01*
X15540Y-36419D01*
X15602Y-36513D01*
X15762Y-36673D01*
X15857Y-36736D01*
X15857Y-36736D01*
X15968Y-36758D01*
X16424Y-36758D01*
X16464Y-36799D01*
X16608Y-36858D01*
X16763Y-36858D01*
X16906Y-36799D01*
X17016Y-36690D01*
X17075Y-36546D01*
X17076Y-36391D01*
X17076Y-38593D01*
X15316Y-38593D01*
X15205Y-38616D01*
X15110Y-38678D01*
X14950Y-38838D01*
X14888Y-38932D01*
X14865Y-39043D01*
X14865Y-41026D01*
X14825Y-41066D01*
X14766Y-41210D01*
X14765Y-41365D01*
X14825Y-41508D01*
X14934Y-41618D01*
X15078Y-41677D01*
X15233Y-41678D01*
X15376Y-41618D01*
X15486Y-41509D01*
X15545Y-41365D01*
X15546Y-41210D01*
X15486Y-41067D01*
X15445Y-41026D01*
X15445Y-39173D01*
X16362Y-39173D01*
X16341Y-39226D01*
X16341Y-39381D01*
X16400Y-39524D01*
X16509Y-39634D01*
X16653Y-39693D01*
X16808Y-39694D01*
X16951Y-39634D01*
X16992Y-39594D01*
X17581Y-39594D01*
X17621Y-39634D01*
X17765Y-39693D01*
X17920Y-39694D01*
X18063Y-39634D01*
X18173Y-39525D01*
X18220Y-39410D01*
X18276Y-39433D01*
X18431Y-39434D01*
X18574Y-39374D01*
X18684Y-39265D01*
X18743Y-39121D01*
X18744Y-38966D01*
X18744Y-42327D01*
X18691Y-42306D01*
X18536Y-42305D01*
X18393Y-42365D01*
X18283Y-42474D01*
X18224Y-42618D01*
X18224Y-42675D01*
X17550Y-43349D01*
X17487Y-43443D01*
X17465Y-43554D01*
X17465Y-43572D01*
X17411Y-43626D01*
X17411Y-42887D01*
X17351Y-42744D01*
X17311Y-42703D01*
X17311Y-42044D01*
X17351Y-42004D01*
X17411Y-41860D01*
X17411Y-41705D01*
X17351Y-41562D01*
X17242Y-41452D01*
X17099Y-41393D01*
X16943Y-41393D01*
X16800Y-41452D01*
X16690Y-41561D01*
X16631Y-41705D01*
X16631Y-41860D01*
X16690Y-42003D01*
X16731Y-42044D01*
X16731Y-42703D01*
X16690Y-42743D01*
X16631Y-42887D01*
X16631Y-43042D01*
X16690Y-43185D01*
X16799Y-43295D01*
X16943Y-43354D01*
X17098Y-43355D01*
X17241Y-43295D01*
X17351Y-43186D01*
X17411Y-43042D01*
X17411Y-42887D01*
X17411Y-43626D01*
X15294Y-45742D01*
X15232Y-45836D01*
X15210Y-45947D01*
X15210Y-47029D01*
X15191Y-47037D01*
X15037Y-47190D01*
X14954Y-47391D01*
X14954Y-47608D01*
X15037Y-47808D01*
X15190Y-47962D01*
X15210Y-47970D01*
X15210Y-48029D01*
X15191Y-48037D01*
X15037Y-48190D01*
X14954Y-48391D01*
X14954Y-48608D01*
X15037Y-48808D01*
X15190Y-48962D01*
X15391Y-49045D01*
X15608Y-49045D01*
X15808Y-48962D01*
X15962Y-48809D01*
X15999Y-48718D01*
X16037Y-48808D01*
X16190Y-48962D01*
X16391Y-49045D01*
X16608Y-49045D01*
X16808Y-48962D01*
X16962Y-48809D01*
X16999Y-48718D01*
X17037Y-48808D01*
X17190Y-48962D01*
X17391Y-49045D01*
X17608Y-49045D01*
X17808Y-48962D01*
X17962Y-48809D01*
X17999Y-48718D01*
X18037Y-48808D01*
X18190Y-48962D01*
X18391Y-49045D01*
X18608Y-49045D01*
X18808Y-48962D01*
X18962Y-48809D01*
X18999Y-48718D01*
X19037Y-48808D01*
X19190Y-48962D01*
X19391Y-49045D01*
X19608Y-49045D01*
X19808Y-48962D01*
X19962Y-48809D01*
X19999Y-48718D01*
X20037Y-48808D01*
X20190Y-48962D01*
X20391Y-49045D01*
X20608Y-49045D01*
X20808Y-48962D01*
X20962Y-48809D01*
X20999Y-48718D01*
X21037Y-48808D01*
X21190Y-48962D01*
X21391Y-49045D01*
X21608Y-49045D01*
X21808Y-48962D01*
X21962Y-48809D01*
X21999Y-48718D01*
X22037Y-48808D01*
X22190Y-48962D01*
X22391Y-49045D01*
X22608Y-49045D01*
X22808Y-48962D01*
X22962Y-48809D01*
X22999Y-48718D01*
X23037Y-48808D01*
X23190Y-48962D01*
X23391Y-49045D01*
X23608Y-49045D01*
X23808Y-48962D01*
X23962Y-48809D01*
X23999Y-48718D01*
X24037Y-48808D01*
X24190Y-48962D01*
X24391Y-49045D01*
X24608Y-49045D01*
X24808Y-48962D01*
X24962Y-48809D01*
X24999Y-48718D01*
X25037Y-48808D01*
X25190Y-48962D01*
X25391Y-49045D01*
X25608Y-49045D01*
X25808Y-48962D01*
X25962Y-48809D01*
X25999Y-48718D01*
X26037Y-48808D01*
X26190Y-48962D01*
X26391Y-49045D01*
X26608Y-49045D01*
X26808Y-48962D01*
X26962Y-48809D01*
X26997Y-48724D01*
X27022Y-48785D01*
X27117Y-48811D01*
X27429Y-48500D01*
X27117Y-48188D01*
X27022Y-48214D01*
X26999Y-48279D01*
X26962Y-48191D01*
X26809Y-48037D01*
X26790Y-48029D01*
X26790Y-47970D01*
X26808Y-47962D01*
X26962Y-47809D01*
X26997Y-47724D01*
X27022Y-47785D01*
X27117Y-47811D01*
X27429Y-47500D01*
X27117Y-47188D01*
X27022Y-47214D01*
X26999Y-47279D01*
X26962Y-47191D01*
X26809Y-47037D01*
X26608Y-46954D01*
X26391Y-46954D01*
X26372Y-46962D01*
X26205Y-46795D01*
X26205Y-46753D01*
X26248Y-46770D01*
X26466Y-46771D01*
X26669Y-46687D01*
X26823Y-46532D01*
X26907Y-46330D01*
X26908Y-46112D01*
X26824Y-45909D01*
X26685Y-45771D01*
X26707Y-45771D01*
X26799Y-45732D01*
X26869Y-45662D01*
X26908Y-45570D01*
X26908Y-45471D01*
X26908Y-44871D01*
X26869Y-44779D01*
X26799Y-44709D01*
X26707Y-44671D01*
X26647Y-44671D01*
X26647Y-31607D01*
X26625Y-31497D01*
X26625Y-31497D01*
X26563Y-31402D01*
X25541Y-30381D01*
X25549Y-30359D01*
X25550Y-30141D01*
X25466Y-29938D01*
X25327Y-29800D01*
X25349Y-29800D01*
X25441Y-29761D01*
X25511Y-29691D01*
X25550Y-29599D01*
X25550Y-29500D01*
X25550Y-28900D01*
X25518Y-28825D01*
X32175Y-28825D01*
X32175Y-30122D01*
X32173Y-30119D01*
X31992Y-29938D01*
X31756Y-29840D01*
X31646Y-29840D01*
X31507Y-29840D01*
X31478Y-29811D01*
X31573Y-29785D01*
X31646Y-29580D01*
X31635Y-29363D01*
X31573Y-29214D01*
X31478Y-29188D01*
X31407Y-29258D01*
X31407Y-29117D01*
X31381Y-29022D01*
X31176Y-28949D01*
X30959Y-28960D01*
X30810Y-29022D01*
X30784Y-29117D01*
X31096Y-29429D01*
X31407Y-29117D01*
X31407Y-29258D01*
X31166Y-29500D01*
X31172Y-29505D01*
X31101Y-29576D01*
X31096Y-29570D01*
X31025Y-29641D01*
X31025Y-29500D01*
X30713Y-29188D01*
X30618Y-29214D01*
X30545Y-29419D01*
X30556Y-29636D01*
X30618Y-29785D01*
X30713Y-29811D01*
X31025Y-29500D01*
X31025Y-29641D01*
X30784Y-29882D01*
X30810Y-29977D01*
X31015Y-30050D01*
X31158Y-30043D01*
X31082Y-30119D01*
X30984Y-30355D01*
X30984Y-30611D01*
X31082Y-30848D01*
X31263Y-31029D01*
X31499Y-31127D01*
X31755Y-31127D01*
X31992Y-31029D01*
X32173Y-30848D01*
X32175Y-30844D01*
X32175Y-47806D01*
X32175Y-47806D01*
G37*
G54D21*
X32175Y-47806D02*
X32148Y-47780D01*
X32104Y-47824D01*
X32045Y-47719D01*
X32045Y-45391D01*
X31962Y-45191D01*
X31809Y-45037D01*
X31718Y-45000D01*
X31808Y-44962D01*
X31962Y-44809D01*
X32045Y-44608D01*
X32045Y-44391D01*
X31962Y-44191D01*
X31809Y-44037D01*
X31718Y-44000D01*
X31808Y-43962D01*
X31962Y-43809D01*
X32045Y-43608D01*
X32045Y-43391D01*
X31962Y-43191D01*
X31809Y-43037D01*
X31718Y-43000D01*
X31808Y-42962D01*
X31962Y-42809D01*
X32045Y-42608D01*
X32045Y-42391D01*
X31962Y-42191D01*
X31809Y-42037D01*
X31718Y-42000D01*
X31808Y-41962D01*
X31962Y-41809D01*
X32045Y-41608D01*
X32045Y-41391D01*
X31962Y-41191D01*
X31809Y-41037D01*
X31718Y-41000D01*
X31808Y-40962D01*
X31962Y-40809D01*
X32045Y-40608D01*
X32045Y-40391D01*
X31962Y-40191D01*
X31809Y-40037D01*
X31718Y-40000D01*
X31808Y-39962D01*
X31962Y-39809D01*
X32045Y-39608D01*
X32045Y-39391D01*
X31962Y-39191D01*
X31809Y-39037D01*
X31718Y-39000D01*
X31808Y-38962D01*
X31962Y-38809D01*
X32045Y-38608D01*
X32045Y-38391D01*
X31962Y-38191D01*
X31809Y-38037D01*
X31718Y-38000D01*
X31808Y-37962D01*
X31962Y-37809D01*
X32045Y-37608D01*
X32045Y-37391D01*
X31962Y-37191D01*
X31809Y-37037D01*
X31718Y-37000D01*
X31808Y-36962D01*
X31962Y-36809D01*
X32045Y-36608D01*
X32045Y-36391D01*
X31962Y-36191D01*
X31809Y-36037D01*
X31718Y-36000D01*
X31808Y-35962D01*
X31962Y-35809D01*
X32045Y-35608D01*
X32045Y-35391D01*
X31962Y-35191D01*
X31809Y-35037D01*
X31718Y-35000D01*
X31808Y-34962D01*
X31962Y-34809D01*
X32045Y-34608D01*
X32045Y-34391D01*
X31962Y-34191D01*
X31809Y-34037D01*
X31718Y-34000D01*
X31808Y-33962D01*
X31962Y-33809D01*
X32045Y-33608D01*
X32045Y-33391D01*
X31962Y-33191D01*
X31817Y-33045D01*
X31845Y-33045D01*
X31937Y-33007D01*
X32007Y-32937D01*
X32045Y-32845D01*
X32045Y-32745D01*
X32045Y-32154D01*
X32007Y-32062D01*
X31937Y-31992D01*
X31845Y-31954D01*
X31745Y-31954D01*
X31154Y-31954D01*
X31062Y-31992D01*
X30999Y-32055D01*
X30937Y-31992D01*
X30845Y-31954D01*
X30745Y-31954D01*
X30154Y-31954D01*
X30062Y-31992D01*
X29992Y-32062D01*
X29954Y-32154D01*
X29954Y-32254D01*
X29954Y-32845D01*
X29992Y-32937D01*
X30062Y-33007D01*
X30154Y-33045D01*
X30183Y-33045D01*
X30037Y-33190D01*
X29954Y-33391D01*
X29954Y-33608D01*
X30037Y-33808D01*
X30190Y-33962D01*
X30281Y-33999D01*
X30191Y-34037D01*
X30037Y-34190D01*
X29954Y-34391D01*
X29954Y-34608D01*
X30037Y-34808D01*
X30190Y-34962D01*
X30281Y-34999D01*
X30191Y-35037D01*
X30037Y-35190D01*
X29954Y-35391D01*
X29954Y-35608D01*
X30037Y-35808D01*
X30190Y-35962D01*
X30281Y-35999D01*
X30191Y-36037D01*
X30037Y-36190D01*
X29954Y-36391D01*
X29954Y-36608D01*
X30037Y-36808D01*
X30190Y-36962D01*
X30281Y-36999D01*
X30191Y-37037D01*
X30037Y-37190D01*
X29954Y-37391D01*
X29954Y-37608D01*
X30037Y-37808D01*
X30190Y-37962D01*
X30281Y-37999D01*
X30191Y-38037D01*
X30037Y-38190D01*
X29954Y-38391D01*
X29954Y-38608D01*
X30037Y-38808D01*
X30190Y-38962D01*
X30281Y-38999D01*
X30191Y-39037D01*
X30037Y-39190D01*
X29954Y-39391D01*
X29954Y-39608D01*
X30037Y-39808D01*
X30190Y-39962D01*
X30281Y-39999D01*
X30191Y-40037D01*
X30037Y-40190D01*
X29954Y-40391D01*
X29954Y-40608D01*
X30037Y-40808D01*
X30190Y-40962D01*
X30281Y-40999D01*
X30191Y-41037D01*
X30037Y-41190D01*
X29954Y-41391D01*
X29954Y-41608D01*
X30037Y-41808D01*
X30190Y-41962D01*
X30281Y-41999D01*
X30191Y-42037D01*
X30037Y-42190D01*
X29954Y-42391D01*
X29954Y-42608D01*
X30037Y-42808D01*
X30190Y-42962D01*
X30281Y-42999D01*
X30191Y-43037D01*
X30037Y-43190D01*
X29954Y-43391D01*
X29954Y-43608D01*
X30037Y-43808D01*
X30190Y-43962D01*
X30281Y-43999D01*
X30191Y-44037D01*
X30037Y-44190D01*
X29954Y-44391D01*
X29954Y-44608D01*
X30037Y-44808D01*
X30190Y-44962D01*
X30281Y-44999D01*
X30191Y-45037D01*
X30037Y-45190D01*
X29954Y-45391D01*
X29954Y-45608D01*
X30037Y-45808D01*
X30190Y-45962D01*
X30391Y-46045D01*
X30608Y-46045D01*
X30808Y-45962D01*
X30962Y-45809D01*
X30999Y-45718D01*
X31037Y-45808D01*
X31190Y-45962D01*
X31391Y-46045D01*
X31608Y-46045D01*
X31808Y-45962D01*
X31962Y-45809D01*
X32045Y-45608D01*
X32045Y-45391D01*
X32045Y-47719D01*
X32028Y-47688D01*
X31677Y-47547D01*
X31299Y-47552D01*
X30971Y-47688D01*
X30895Y-47824D01*
X31500Y-48429D01*
X31505Y-48423D01*
X31576Y-48494D01*
X31570Y-48500D01*
X31576Y-48505D01*
X31505Y-48576D01*
X31500Y-48570D01*
X31494Y-48576D01*
X31429Y-48511D01*
X31423Y-48505D01*
X31429Y-48500D01*
X30824Y-47895D01*
X30688Y-47971D01*
X30547Y-48322D01*
X30552Y-48700D01*
X30688Y-49028D01*
X30824Y-49104D01*
X30780Y-49148D01*
X30806Y-49175D01*
X29949Y-49175D01*
X29949Y-29391D01*
X29866Y-29191D01*
X29713Y-29037D01*
X29512Y-28954D01*
X29295Y-28954D01*
X29095Y-29037D01*
X28941Y-29190D01*
X28858Y-29391D01*
X28858Y-29608D01*
X28941Y-29808D01*
X28973Y-29840D01*
X28744Y-29840D01*
X28507Y-29938D01*
X28326Y-30119D01*
X28228Y-30355D01*
X28228Y-30611D01*
X28326Y-30848D01*
X28507Y-31029D01*
X28743Y-31127D01*
X28999Y-31127D01*
X29236Y-31029D01*
X29417Y-30848D01*
X29515Y-30612D01*
X29515Y-30356D01*
X29417Y-30119D01*
X29343Y-30045D01*
X29512Y-30045D01*
X29712Y-29962D01*
X29866Y-29809D01*
X29949Y-29608D01*
X29949Y-29391D01*
X29949Y-49175D01*
X29045Y-49175D01*
X29045Y-48845D01*
X29045Y-48745D01*
X29045Y-48154D01*
X29007Y-48062D01*
X28944Y-47999D01*
X29007Y-47937D01*
X29045Y-47845D01*
X29045Y-47745D01*
X29045Y-47154D01*
X29007Y-47062D01*
X28937Y-46992D01*
X28845Y-46954D01*
X28745Y-46954D01*
X28154Y-46954D01*
X28062Y-46992D01*
X27992Y-47062D01*
X27954Y-47154D01*
X27954Y-47208D01*
X27882Y-47188D01*
X27811Y-47258D01*
X27811Y-47117D01*
X27785Y-47022D01*
X27580Y-46949D01*
X27363Y-46960D01*
X27214Y-47022D01*
X27188Y-47117D01*
X27500Y-47429D01*
X27811Y-47117D01*
X27811Y-47258D01*
X27570Y-47500D01*
X27882Y-47811D01*
X27954Y-47791D01*
X27954Y-47845D01*
X27992Y-47937D01*
X28055Y-48000D01*
X27992Y-48062D01*
X27954Y-48154D01*
X27954Y-48208D01*
X27882Y-48188D01*
X27811Y-48258D01*
X27811Y-48117D01*
X27785Y-48022D01*
X27726Y-48001D01*
X27785Y-47977D01*
X27811Y-47882D01*
X27500Y-47570D01*
X27188Y-47882D01*
X27214Y-47977D01*
X27273Y-47998D01*
X27214Y-48022D01*
X27188Y-48117D01*
X27500Y-48429D01*
X27811Y-48117D01*
X27811Y-48258D01*
X27570Y-48500D01*
X27882Y-48811D01*
X27954Y-48791D01*
X27954Y-48845D01*
X27992Y-48937D01*
X28062Y-49007D01*
X28154Y-49045D01*
X28254Y-49045D01*
X28845Y-49045D01*
X28937Y-49007D01*
X29007Y-48937D01*
X29045Y-48845D01*
X29045Y-49175D01*
X27811Y-49175D01*
X27811Y-48882D01*
X27500Y-48570D01*
X27188Y-48882D01*
X27214Y-48977D01*
X27419Y-49050D01*
X27636Y-49039D01*
X27785Y-48977D01*
X27811Y-48882D01*
X27811Y-49175D01*
X14050Y-49175D01*
X14050Y-44580D01*
X14045Y-44488D01*
X14045Y-43391D01*
X13962Y-43191D01*
X13809Y-43037D01*
X13718Y-43000D01*
X13808Y-42962D01*
X13962Y-42809D01*
X14045Y-42608D01*
X14045Y-42391D01*
X13962Y-42191D01*
X13809Y-42037D01*
X13718Y-42000D01*
X13808Y-41962D01*
X13962Y-41809D01*
X14045Y-41608D01*
X14045Y-41391D01*
X13962Y-41191D01*
X13809Y-41037D01*
X13718Y-41000D01*
X13808Y-40962D01*
X13962Y-40809D01*
X14045Y-40608D01*
X14045Y-40391D01*
X13962Y-40191D01*
X13809Y-40037D01*
X13718Y-40000D01*
X13808Y-39962D01*
X13962Y-39809D01*
X14045Y-39608D01*
X14045Y-39391D01*
X13962Y-39191D01*
X13809Y-39037D01*
X13718Y-39000D01*
X13808Y-38962D01*
X13962Y-38809D01*
X14045Y-38608D01*
X14045Y-38391D01*
X13962Y-38191D01*
X13809Y-38037D01*
X13718Y-38000D01*
X13808Y-37962D01*
X13962Y-37809D01*
X14045Y-37608D01*
X14045Y-37391D01*
X13962Y-37191D01*
X13809Y-37037D01*
X13718Y-37000D01*
X13808Y-36962D01*
X13962Y-36809D01*
X14045Y-36608D01*
X14045Y-36391D01*
X13962Y-36191D01*
X13809Y-36037D01*
X13718Y-36000D01*
X13808Y-35962D01*
X13962Y-35809D01*
X14045Y-35608D01*
X14045Y-35391D01*
X13962Y-35191D01*
X13809Y-35037D01*
X13718Y-35000D01*
X13808Y-34962D01*
X13962Y-34809D01*
X14045Y-34608D01*
X14045Y-34391D01*
X13962Y-34191D01*
X13809Y-34037D01*
X13718Y-34000D01*
X13808Y-33962D01*
X13962Y-33809D01*
X14045Y-33608D01*
X14045Y-33391D01*
X13962Y-33191D01*
X13809Y-33037D01*
X13718Y-33000D01*
X13808Y-32962D01*
X13962Y-32809D01*
X14045Y-32608D01*
X14045Y-32391D01*
X13962Y-32191D01*
X13809Y-32037D01*
X13608Y-31954D01*
X13391Y-31954D01*
X13191Y-32037D01*
X13037Y-32190D01*
X13000Y-32281D01*
X12962Y-32191D01*
X12809Y-32037D01*
X12608Y-31954D01*
X12391Y-31954D01*
X12191Y-32037D01*
X12037Y-32190D01*
X11954Y-32391D01*
X11954Y-32608D01*
X12037Y-32808D01*
X12190Y-32962D01*
X12281Y-32999D01*
X12191Y-33037D01*
X12037Y-33190D01*
X11954Y-33391D01*
X11954Y-33608D01*
X12037Y-33808D01*
X12190Y-33962D01*
X12281Y-33999D01*
X12191Y-34037D01*
X12037Y-34190D01*
X11954Y-34391D01*
X11954Y-34608D01*
X12037Y-34808D01*
X12190Y-34962D01*
X12281Y-34999D01*
X12191Y-35037D01*
X12037Y-35190D01*
X11954Y-35391D01*
X11954Y-35608D01*
X12037Y-35808D01*
X12190Y-35962D01*
X12281Y-35999D01*
X12191Y-36037D01*
X12037Y-36190D01*
X11954Y-36391D01*
X11954Y-36608D01*
X12037Y-36808D01*
X12190Y-36962D01*
X12281Y-36999D01*
X12191Y-37037D01*
X12037Y-37190D01*
X11954Y-37391D01*
X11954Y-37608D01*
X12037Y-37808D01*
X12190Y-37962D01*
X12281Y-37999D01*
X12191Y-38037D01*
X12037Y-38190D01*
X11954Y-38391D01*
X11954Y-38608D01*
X12037Y-38808D01*
X12190Y-38962D01*
X12281Y-38999D01*
X12191Y-39037D01*
X12037Y-39190D01*
X11954Y-39391D01*
X11954Y-39608D01*
X12037Y-39808D01*
X12190Y-39962D01*
X12281Y-39999D01*
X12191Y-40037D01*
X12037Y-40190D01*
X11954Y-40391D01*
X11954Y-40608D01*
X12037Y-40808D01*
X12190Y-40962D01*
X12281Y-40999D01*
X12191Y-41037D01*
X12037Y-41190D01*
X11954Y-41391D01*
X11954Y-41608D01*
X12037Y-41808D01*
X12190Y-41962D01*
X12281Y-41999D01*
X12191Y-42037D01*
X12037Y-42190D01*
X11954Y-42391D01*
X11954Y-42608D01*
X12037Y-42808D01*
X12190Y-42962D01*
X12281Y-42999D01*
X12191Y-43037D01*
X12037Y-43190D01*
X11954Y-43391D01*
X11954Y-43608D01*
X12037Y-43808D01*
X12190Y-43962D01*
X12275Y-43997D01*
X12214Y-44022D01*
X12188Y-44117D01*
X12500Y-44429D01*
X12811Y-44117D01*
X12785Y-44022D01*
X12720Y-43999D01*
X12808Y-43962D01*
X12962Y-43809D01*
X12999Y-43718D01*
X13037Y-43808D01*
X13190Y-43962D01*
X13275Y-43997D01*
X13214Y-44022D01*
X13188Y-44117D01*
X13500Y-44429D01*
X13811Y-44117D01*
X13785Y-44022D01*
X13720Y-43999D01*
X13808Y-43962D01*
X13962Y-43809D01*
X14045Y-43608D01*
X14045Y-43391D01*
X14045Y-44488D01*
X14039Y-44363D01*
X13977Y-44214D01*
X13882Y-44188D01*
X13570Y-44500D01*
X13882Y-44811D01*
X13977Y-44785D01*
X14050Y-44580D01*
X14050Y-49175D01*
X14045Y-49175D01*
X14045Y-45845D01*
X14045Y-45745D01*
X14045Y-45154D01*
X14007Y-45062D01*
X13937Y-44992D01*
X13845Y-44954D01*
X13791Y-44954D01*
X13811Y-44882D01*
X13500Y-44570D01*
X13429Y-44641D01*
X13429Y-44500D01*
X13117Y-44188D01*
X13022Y-44214D01*
X13001Y-44273D01*
X12977Y-44214D01*
X12882Y-44188D01*
X12570Y-44500D01*
X12882Y-44811D01*
X12977Y-44785D01*
X12998Y-44726D01*
X13022Y-44785D01*
X13117Y-44811D01*
X13429Y-44500D01*
X13429Y-44641D01*
X13188Y-44882D01*
X13208Y-44954D01*
X13154Y-44954D01*
X13062Y-44992D01*
X12999Y-45055D01*
X12937Y-44992D01*
X12845Y-44954D01*
X12791Y-44954D01*
X12811Y-44882D01*
X12500Y-44570D01*
X12429Y-44641D01*
X12429Y-44500D01*
X12117Y-44188D01*
X12022Y-44214D01*
X11949Y-44419D01*
X11960Y-44636D01*
X12022Y-44785D01*
X12117Y-44811D01*
X12429Y-44500D01*
X12429Y-44641D01*
X12188Y-44882D01*
X12208Y-44954D01*
X12154Y-44954D01*
X12062Y-44992D01*
X11992Y-45062D01*
X11954Y-45154D01*
X11954Y-45254D01*
X11954Y-45845D01*
X11992Y-45937D01*
X12062Y-46007D01*
X12154Y-46045D01*
X12254Y-46045D01*
X12845Y-46045D01*
X12937Y-46007D01*
X13000Y-45944D01*
X13062Y-46007D01*
X13154Y-46045D01*
X13254Y-46045D01*
X13845Y-46045D01*
X13937Y-46007D01*
X14007Y-45937D01*
X14045Y-45845D01*
X14045Y-49175D01*
X13452Y-49175D01*
X13193Y-49175D01*
X13219Y-49148D01*
X13175Y-49104D01*
X13311Y-49028D01*
X13452Y-48677D01*
X13447Y-48299D01*
X13311Y-47971D01*
X13175Y-47895D01*
X13104Y-47966D01*
X12570Y-48500D01*
X12576Y-48505D01*
X12505Y-48576D01*
X12500Y-48570D01*
X12494Y-48576D01*
X12423Y-48505D01*
X12429Y-48500D01*
X12423Y-48494D01*
X12494Y-48423D01*
X12500Y-48429D01*
X13104Y-47824D01*
X13028Y-47688D01*
X12677Y-47547D01*
X12299Y-47552D01*
X11971Y-47688D01*
X11895Y-47824D01*
X11851Y-47780D01*
X11825Y-47806D01*
X11825Y-28825D01*
X18647Y-28825D01*
X18534Y-28938D01*
X18450Y-29140D01*
X18449Y-29358D01*
X18528Y-29550D01*
X18468Y-29562D01*
X18374Y-29624D01*
X18214Y-29784D01*
X18151Y-29879D01*
X18129Y-29990D01*
X18129Y-36052D01*
X18129Y-36052D01*
X18140Y-36105D01*
X18151Y-36163D01*
X18151Y-36163D01*
X18151Y-36163D01*
X18182Y-36208D01*
X18214Y-36257D01*
X18214Y-36257D01*
X19087Y-37130D01*
X19087Y-42694D01*
X19047Y-42734D01*
X18988Y-42878D01*
X18988Y-42935D01*
X18294Y-43628D01*
X18232Y-43723D01*
X18210Y-43834D01*
X18210Y-47029D01*
X18191Y-47037D01*
X18037Y-47190D01*
X18000Y-47281D01*
X17962Y-47191D01*
X17809Y-47037D01*
X17608Y-46954D01*
X17391Y-46954D01*
X17191Y-47037D01*
X17037Y-47190D01*
X17000Y-47281D01*
X16962Y-47191D01*
X16809Y-47037D01*
X16608Y-46954D01*
X16391Y-46954D01*
X16191Y-47037D01*
X16037Y-47190D01*
X16000Y-47281D01*
X15962Y-47191D01*
X15809Y-47037D01*
X15790Y-47029D01*
X15790Y-46067D01*
X17960Y-43897D01*
X18023Y-43803D01*
X18045Y-43692D01*
X18045Y-43674D01*
X18634Y-43086D01*
X18691Y-43086D01*
X18834Y-43026D01*
X18944Y-42917D01*
X19003Y-42773D01*
X19004Y-42618D01*
X18944Y-42475D01*
X18835Y-42365D01*
X18744Y-42327D01*
X18744Y-38966D01*
X18684Y-38823D01*
X18575Y-38713D01*
X18431Y-38654D01*
X18276Y-38653D01*
X18133Y-38713D01*
X18125Y-38720D01*
X18125Y-38342D01*
X18166Y-38301D01*
X18225Y-38158D01*
X18226Y-38003D01*
X18166Y-37860D01*
X18057Y-37750D01*
X17913Y-37690D01*
X17758Y-37690D01*
X17615Y-37749D01*
X17505Y-37859D01*
X17446Y-38002D01*
X17445Y-38157D01*
X17505Y-38301D01*
X17545Y-38342D01*
X17545Y-38593D01*
X17076Y-38593D01*
X17076Y-36391D01*
X17016Y-36248D01*
X16976Y-36207D01*
X16976Y-33806D01*
X17016Y-33766D01*
X17075Y-33623D01*
X17076Y-33468D01*
X17016Y-33324D01*
X16907Y-33214D01*
X16763Y-33155D01*
X16608Y-33155D01*
X16465Y-33214D01*
X16355Y-33324D01*
X16296Y-33467D01*
X16295Y-33622D01*
X16355Y-33765D01*
X16396Y-33806D01*
X16396Y-36178D01*
X16097Y-36178D01*
X16097Y-35945D01*
X16138Y-35905D01*
X16197Y-35761D01*
X16198Y-35606D01*
X16138Y-35463D01*
X16029Y-35353D01*
X15885Y-35294D01*
X15730Y-35293D01*
X15587Y-35353D01*
X15477Y-35462D01*
X15418Y-35606D01*
X15417Y-35761D01*
X15477Y-35904D01*
X15517Y-35945D01*
X15517Y-36308D01*
X15540Y-36419D01*
X15602Y-36513D01*
X15762Y-36673D01*
X15857Y-36736D01*
X15857Y-36736D01*
X15968Y-36758D01*
X16424Y-36758D01*
X16464Y-36799D01*
X16608Y-36858D01*
X16763Y-36858D01*
X16906Y-36799D01*
X17016Y-36690D01*
X17075Y-36546D01*
X17076Y-36391D01*
X17076Y-38593D01*
X15316Y-38593D01*
X15205Y-38616D01*
X15110Y-38678D01*
X14950Y-38838D01*
X14888Y-38932D01*
X14865Y-39043D01*
X14865Y-41026D01*
X14825Y-41066D01*
X14766Y-41210D01*
X14765Y-41365D01*
X14825Y-41508D01*
X14934Y-41618D01*
X15078Y-41677D01*
X15233Y-41678D01*
X15376Y-41618D01*
X15486Y-41509D01*
X15545Y-41365D01*
X15546Y-41210D01*
X15486Y-41067D01*
X15445Y-41026D01*
X15445Y-39173D01*
X16362Y-39173D01*
X16341Y-39226D01*
X16341Y-39381D01*
X16400Y-39524D01*
X16509Y-39634D01*
X16653Y-39693D01*
X16808Y-39694D01*
X16951Y-39634D01*
X16992Y-39594D01*
X17581Y-39594D01*
X17621Y-39634D01*
X17765Y-39693D01*
X17920Y-39694D01*
X18063Y-39634D01*
X18173Y-39525D01*
X18220Y-39410D01*
X18276Y-39433D01*
X18431Y-39434D01*
X18574Y-39374D01*
X18684Y-39265D01*
X18743Y-39121D01*
X18744Y-38966D01*
X18744Y-42327D01*
X18691Y-42306D01*
X18536Y-42305D01*
X18393Y-42365D01*
X18283Y-42474D01*
X18224Y-42618D01*
X18224Y-42675D01*
X17550Y-43349D01*
X17487Y-43443D01*
X17465Y-43554D01*
X17465Y-43572D01*
X17411Y-43626D01*
X17411Y-42887D01*
X17351Y-42744D01*
X17311Y-42703D01*
X17311Y-42044D01*
X17351Y-42004D01*
X17411Y-41860D01*
X17411Y-41705D01*
X17351Y-41562D01*
X17242Y-41452D01*
X17099Y-41393D01*
X16943Y-41393D01*
X16800Y-41452D01*
X16690Y-41561D01*
X16631Y-41705D01*
X16631Y-41860D01*
X16690Y-42003D01*
X16731Y-42044D01*
X16731Y-42703D01*
X16690Y-42743D01*
X16631Y-42887D01*
X16631Y-43042D01*
X16690Y-43185D01*
X16799Y-43295D01*
X16943Y-43354D01*
X17098Y-43355D01*
X17241Y-43295D01*
X17351Y-43186D01*
X17411Y-43042D01*
X17411Y-42887D01*
X17411Y-43626D01*
X15294Y-45742D01*
X15232Y-45836D01*
X15210Y-45947D01*
X15210Y-47029D01*
X15191Y-47037D01*
X15037Y-47190D01*
X14954Y-47391D01*
X14954Y-47608D01*
X15037Y-47808D01*
X15190Y-47962D01*
X15210Y-47970D01*
X15210Y-48029D01*
X15191Y-48037D01*
X15037Y-48190D01*
X14954Y-48391D01*
X14954Y-48608D01*
X15037Y-48808D01*
X15190Y-48962D01*
X15391Y-49045D01*
X15608Y-49045D01*
X15808Y-48962D01*
X15962Y-48809D01*
X15999Y-48718D01*
X16037Y-48808D01*
X16190Y-48962D01*
X16391Y-49045D01*
X16608Y-49045D01*
X16808Y-48962D01*
X16962Y-48809D01*
X16999Y-48718D01*
X17037Y-48808D01*
X17190Y-48962D01*
X17391Y-49045D01*
X17608Y-49045D01*
X17808Y-48962D01*
X17962Y-48809D01*
X17999Y-48718D01*
X18037Y-48808D01*
X18190Y-48962D01*
X18391Y-49045D01*
X18608Y-49045D01*
X18808Y-48962D01*
X18962Y-48809D01*
X18999Y-48718D01*
X19037Y-48808D01*
X19190Y-48962D01*
X19391Y-49045D01*
X19608Y-49045D01*
X19808Y-48962D01*
X19962Y-48809D01*
X19999Y-48718D01*
X20037Y-48808D01*
X20190Y-48962D01*
X20391Y-49045D01*
X20608Y-49045D01*
X20808Y-48962D01*
X20962Y-48809D01*
X20999Y-48718D01*
X21037Y-48808D01*
X21190Y-48962D01*
X21391Y-49045D01*
X21608Y-49045D01*
X21808Y-48962D01*
X21962Y-48809D01*
X21999Y-48718D01*
X22037Y-48808D01*
X22190Y-48962D01*
X22391Y-49045D01*
X22608Y-49045D01*
X22808Y-48962D01*
X22962Y-48809D01*
X22999Y-48718D01*
X23037Y-48808D01*
X23190Y-48962D01*
X23391Y-49045D01*
X23608Y-49045D01*
X23808Y-48962D01*
X23962Y-48809D01*
X23999Y-48718D01*
X24037Y-48808D01*
X24190Y-48962D01*
X24391Y-49045D01*
X24608Y-49045D01*
X24808Y-48962D01*
X24962Y-48809D01*
X24999Y-48718D01*
X25037Y-48808D01*
X25190Y-48962D01*
X25391Y-49045D01*
X25608Y-49045D01*
X25808Y-48962D01*
X25962Y-48809D01*
X25999Y-48718D01*
X26037Y-48808D01*
X26190Y-48962D01*
X26391Y-49045D01*
X26608Y-49045D01*
X26808Y-48962D01*
X26962Y-48809D01*
X26997Y-48724D01*
X27022Y-48785D01*
X27117Y-48811D01*
X27429Y-48500D01*
X27117Y-48188D01*
X27022Y-48214D01*
X26999Y-48279D01*
X26962Y-48191D01*
X26809Y-48037D01*
X26790Y-48029D01*
X26790Y-47970D01*
X26808Y-47962D01*
X26962Y-47809D01*
X26997Y-47724D01*
X27022Y-47785D01*
X27117Y-47811D01*
X27429Y-47500D01*
X27117Y-47188D01*
X27022Y-47214D01*
X26999Y-47279D01*
X26962Y-47191D01*
X26809Y-47037D01*
X26608Y-46954D01*
X26391Y-46954D01*
X26372Y-46962D01*
X26205Y-46795D01*
X26205Y-46753D01*
X26248Y-46770D01*
X26466Y-46771D01*
X26669Y-46687D01*
X26823Y-46532D01*
X26907Y-46330D01*
X26908Y-46112D01*
X26824Y-45909D01*
X26685Y-45771D01*
X26707Y-45771D01*
X26799Y-45732D01*
X26869Y-45662D01*
X26908Y-45570D01*
X26908Y-45471D01*
X26908Y-44871D01*
X26869Y-44779D01*
X26799Y-44709D01*
X26707Y-44671D01*
X26647Y-44671D01*
X26647Y-31607D01*
X26625Y-31497D01*
X26625Y-31497D01*
X26563Y-31402D01*
X25541Y-30381D01*
X25549Y-30359D01*
X25550Y-30141D01*
X25466Y-29938D01*
X25327Y-29800D01*
X25349Y-29800D01*
X25441Y-29761D01*
X25511Y-29691D01*
X25550Y-29599D01*
X25550Y-29500D01*
X25550Y-28900D01*
X25518Y-28825D01*
X32175Y-28825D01*
X32175Y-30122D01*
X32173Y-30119D01*
X31992Y-29938D01*
X31756Y-29840D01*
X31646Y-29840D01*
X31507Y-29840D01*
X31478Y-29811D01*
X31573Y-29785D01*
X31646Y-29580D01*
X31635Y-29363D01*
X31573Y-29214D01*
X31478Y-29188D01*
X31407Y-29258D01*
X31407Y-29117D01*
X31381Y-29022D01*
X31176Y-28949D01*
X30959Y-28960D01*
X30810Y-29022D01*
X30784Y-29117D01*
X31096Y-29429D01*
X31407Y-29117D01*
X31407Y-29258D01*
X31166Y-29500D01*
X31172Y-29505D01*
X31101Y-29576D01*
X31096Y-29570D01*
X31025Y-29641D01*
X31025Y-29500D01*
X30713Y-29188D01*
X30618Y-29214D01*
X30545Y-29419D01*
X30556Y-29636D01*
X30618Y-29785D01*
X30713Y-29811D01*
X31025Y-29500D01*
X31025Y-29641D01*
X30784Y-29882D01*
X30810Y-29977D01*
X31015Y-30050D01*
X31158Y-30043D01*
X31082Y-30119D01*
X30984Y-30355D01*
X30984Y-30611D01*
X31082Y-30848D01*
X31263Y-31029D01*
X31499Y-31127D01*
X31755Y-31127D01*
X31992Y-31029D01*
X32173Y-30848D01*
X32175Y-30844D01*
X32175Y-47806D01*
M02*
