M48
;DRILL file {Pcbnew (2013-mar-13)-testing} date Mon 16 Sep 2013 05:27:26 PM CEST
;FORMAT={-:-/ absolute / inch / decimal}
FMAT,2
INCH,TZ
T1C0.008
T2C0.020
T3C0.039
T4C0.059
T5C0.100
%
G90
G05
M72
T1
X2.499Y-4.171
X2.535Y-2.573
X2.591Y-4.171
X2.662Y-2.573
X2.671Y-4.342
X2.682Y-4.265
X2.716Y-2.458
X2.745Y-2.9775
X2.745Y-3.1675
X2.745Y-3.285
X2.745Y-3.39
X2.761Y-4.342
X2.77Y-2.72
X2.7806Y-3.58
X2.79Y-3.7498
X2.79Y-3.83
X2.805Y-2.3975
X2.825Y-2.845
X2.835Y-3.355
X2.8525Y-4.3275
X2.8536Y-3.0202
X2.86Y-4.2265
X2.8795Y-3.9008
X2.8825Y-3.3075
X2.886Y-3.5307
X2.894Y-3.7384
X2.8973Y-3.4052
X2.91Y-2.5025
X2.91Y-3.5775
X2.9262Y-3.5912
X2.9325Y-2.3975
X2.935Y-2.87
X2.9358Y-3.5164
X2.9423Y-3.5694
X2.9521Y-3.011
X2.956Y-3.41
X2.9571Y-4.1197
X2.98Y-4.3275
X2.9997Y-3.4099
X3.0151Y-4.0371
X3.0208Y-3.0341
X3.0214Y-3.141
X3.031Y-3.611
X3.031Y-3.6425
X3.031Y-3.737
X3.031Y-3.7685
X3.031Y-3.8
X3.031Y-3.8945
X3.031Y-3.989
X3.031Y-3.8315
X3.042Y-2.375
X3.0468Y-3.284
X3.051Y-2.967
X3.058Y-4.19
X3.0625Y-3.7685
X3.0625Y-3.8945
X3.0625Y-3.926
X3.0625Y-3.989
X3.0625Y-4.3275
X3.0768Y-4.082
X3.08Y-3.562
X3.084Y-2.6145
X3.0845Y-2.7115
X3.0921Y-3.0894
X3.0925Y-2.9075
X3.094Y-3.6425
X3.094Y-3.7055
X3.094Y-3.8945
X3.094Y-3.926
X3.094Y-3.9575
X3.1Y-2.7521
X3.116Y-2.797
X3.1255Y-3.9575
X3.1255Y-3.989
X3.1425Y-4.3275
X3.1497Y-3.7867
X3.15Y-3.7425
X3.1628Y-3.1363
X3.1695Y-3.8712
X3.175Y-2.99
X3.1791Y-4.0405
X3.1804Y-3.9026
X3.184Y-3.218
X3.1877Y-2.6734
X3.19Y-2.795
X3.1915Y-2.8725
X3.213Y-2.376
X3.2226Y-3.0852
X3.225Y-4.3275
X3.2275Y-3.7425
X3.2275Y-3.7875
X3.23Y-3.275
X3.23Y-3.336
X3.23Y-3.4085
X3.234Y-3.9045
X3.2357Y-3.541
X3.2514Y-3.0492
X3.2592Y-2.67
X3.26Y-2.865
X3.26Y-2.939
X3.2609Y-3.8791
X3.2658Y-2.5
X3.2668Y-4.1202
X3.267Y-3.9185
X3.28Y-4.278
X3.2838Y-4.0226
X3.2862Y-3.8581
X3.294Y-3.7215
X3.3005Y-3.408
X3.3025Y-3.354
X3.303Y-3.256
X3.3035Y-3.004
X3.3035Y-3.123
X3.304Y-3.8745
X3.305Y-2.795
X3.3087Y-4.0267
X3.315Y-2.89
X3.3195Y-3.7925
X3.32Y-3.551
X3.3245Y-3.408
X3.33Y-4.3275
X3.341Y-3.858
X3.3437Y-3.7682
X3.3447Y-2.6718
X3.346Y-3.674
X3.346Y-3.7055
X3.3475Y-4.07
X3.3515Y-4.149
X3.3551Y-3.3849
X3.3565Y-3.536
X3.37Y-3.5164
X3.3775Y-3.553
X3.3775Y-3.611
X3.3775Y-3.674
X3.3775Y-3.7055
X3.3843Y-2.9365
X3.4078Y-2.9484
X3.409Y-3.737
X3.409Y-3.8
X3.409Y-3.611
X3.41Y-4.0725
X3.4125Y-3.315
X3.4125Y-3.375
X3.422Y-2.671
X3.4237Y-3.5622
X3.425Y-2.3756
X3.4408Y-3.5208
X3.4454Y-3.6755
X3.447Y-3.751
X3.4497Y-3.7827
X3.465Y-4.0425
X3.4667Y-3.03
X3.47Y-2.795
X3.47Y-2.91
X3.47Y-4.305
X3.4725Y-3.3175
X3.4725Y-3.375
X3.483Y-3.5145
X3.49Y-3.915
X3.491Y-3.5745
X3.491Y-3.643
X3.4915Y-3.4515
X3.4915Y-3.724
X3.4925Y-3.985
X3.5Y-2.7521
X3.5019Y-3.4066
X3.5175Y-4.0425
X3.529Y-3.509
X3.543Y-3.8062
X3.5575Y-3.985
X3.5678Y-4.1935
X3.5775Y-2.955
X3.5775Y-3.3725
X3.58Y-3.315
X3.585Y-4.305
X3.5855Y-3.5205
X3.586Y-3.4475
X3.5865Y-3.64
X3.5975Y-2.7025
X3.6021Y-3.7849
X3.605Y-3.915
X3.6285Y-3.726
X3.6312Y-3.5734
X3.6375Y-3.7993
X3.6487Y-3.8385
X3.65Y-3.315
X3.65Y-3.3725
X3.6525Y-2.835
X3.655Y-2.4425
X3.66Y-2.5875
X3.6762Y-3.1339
X3.6915Y-3.7255
X3.6955Y-3.82
X3.7075Y-3.375
X3.7195Y-3.7576
X3.7203Y-3.7804
X3.7275Y-2.955
X3.7305Y-3.7
X3.7482Y-3.6881
X3.76Y-2.705
X3.78Y-3.3975
X3.79Y-3.64
X3.8005Y-4.14
X3.8125Y-2.835
X3.82Y-2.42
X3.8225Y-3.245
X3.8225Y-3.33
X3.8431Y-3.448
X3.8525Y-2.515
X3.8682Y-3.3163
X3.881Y-4.347
X3.883Y-4.273
X3.8875Y-2.955
X3.9025Y-3.255
X3.903Y-4.0212
X3.925Y-3.9361
X3.9275Y-3.16
X3.9694Y-3.1977
X3.9875Y-3.245
X3.9875Y-3.305
X3.992Y-4.089
X4.0075Y-3.945
X4.008Y-4.145
X4.0225Y-3.098
X4.058Y-3.2685
X4.0715Y-3.349
X4.0775Y-3.2175
X4.0875Y-2.9975
X4.105Y-3.5295
X4.1125Y-2.4575
X4.1125Y-2.53
X4.1125Y-2.6225
X4.1125Y-2.7075
X4.1125Y-3.58
X4.12Y-3.7248
X4.12Y-4.011
X4.1252Y-3.209
X4.1325Y-3.32
X4.1325Y-3.4075
X4.145Y-3.6375
X4.165Y-2.73
X4.169Y-3.49
X4.17Y-3.255
X4.175Y-2.9975
X4.1755Y-3.43
X4.19Y-2.8975
X4.2Y-2.52
X4.2Y-2.57
X4.2Y-2.6225
X4.2075Y-3.5675
X4.2075Y-3.6375
X4.22Y-3.7195
X4.22Y-4.011
X4.2225Y-2.4475
X4.2325Y-3.3175
X4.2375Y-3.2325
X4.2475Y-2.52
X4.2475Y-2.57
X4.2475Y-2.6225
X4.2514Y-3.8786
X4.2575Y-2.385
X4.2675Y-2.8075
X4.27Y-2.7225
X4.301Y-2.435
X4.382Y-4.116
X4.424Y-2.523
X4.487Y-4.117
X4.499Y-2.523
T2
X3.66Y-3.94
X3.8Y-3.75
X3.9Y-3.75
X4.18Y-2.81
T3
X2.55Y-2.7
X2.55Y-2.8
X2.55Y-2.9
X2.55Y-3.
X2.55Y-3.1
X2.55Y-3.2
X2.55Y-3.3
X2.55Y-3.4
X2.55Y-3.5
X2.55Y-3.6
X2.55Y-3.7
X2.55Y-3.8
X2.55Y-3.9
X2.55Y-4.
X2.65Y-2.7
X2.65Y-2.8
X2.65Y-2.9
X2.65Y-3.
X2.65Y-3.1
X2.65Y-3.2
X2.65Y-3.3
X2.65Y-3.4
X2.65Y-3.5
X2.65Y-3.6
X2.65Y-3.7
X2.65Y-3.8
X2.65Y-3.9
X2.65Y-4.
X4.35Y-2.7
X4.35Y-2.8
X4.35Y-2.9
X4.35Y-3.
X4.35Y-3.1
X4.35Y-3.2
X4.35Y-3.3
X4.35Y-3.4
X4.35Y-3.5
X4.35Y-3.6
X4.35Y-3.7
X4.35Y-3.8
X4.35Y-3.9
X4.35Y-4.
X4.45Y-2.7
X4.45Y-2.8
X4.45Y-2.9
X4.45Y-3.
X4.45Y-3.1
X4.45Y-3.2
X4.45Y-3.3
X4.45Y-3.4
X4.45Y-3.5
X4.45Y-3.6
X4.45Y-3.7
X4.45Y-3.8
X4.45Y-3.9
X4.45Y-4.
T4
X2.7936Y-2.51
X3.7464Y-2.51
T5
X2.55Y-4.3
X4.45Y-2.4
T0
M30
