G04 (created by PCBNEW (2013-mar-13)-testing) date Tue 10 Sep 2013 12:58:44 PM CEST*
%MOIN*%
G04 Gerber Fmt 3.4, Leading zero omitted, Abs format*
%FSLAX34Y34*%
G01*
G70*
G90*
G04 APERTURE LIST*
%ADD10C,0.005906*%
%ADD11C,0.059055*%
%ADD12C,0.015000*%
%ADD13C,0.012000*%
%ADD14C,0.007874*%
%ADD15C,0.006000*%
%ADD16C,0.004700*%
%ADD17C,0.010000*%
%ADD18C,0.010700*%
%ADD19C,0.005000*%
%ADD20C,0.005100*%
%ADD21C,0.009000*%
%ADD22C,0.003000*%
%ADD23C,0.007000*%
%ADD24C,0.008000*%
G04 APERTURE END LIST*
G54D10*
G54D11*
X39000Y-38000D02*
G75*
G03X38000Y-39000I0J-1000D01*
G74*
G01*
X39000Y-38000D02*
X40000Y-38000D01*
X38000Y-39000D02*
X38000Y-40000D01*
G54D12*
X40000Y-38000D02*
X40000Y-19000D01*
X39500Y-38000D02*
X40000Y-38000D01*
X38000Y-39500D02*
X38000Y-40000D01*
X38000Y-40000D02*
X19000Y-40000D01*
X19000Y-40000D02*
X19000Y-21000D01*
X19000Y-21000D02*
X19500Y-21000D01*
X21000Y-19000D02*
X21000Y-19500D01*
X21000Y-19000D02*
X40000Y-19000D01*
X39000Y-38000D02*
X39500Y-38000D01*
X21000Y-20000D02*
X21000Y-19500D01*
X20000Y-21000D02*
X19500Y-21000D01*
X38000Y-39000D02*
X38000Y-39500D01*
X39000Y-38000D02*
G75*
G03X38000Y-39000I0J-1000D01*
G74*
G01*
X20000Y-21000D02*
G75*
G03X21000Y-20000I0J1000D01*
G74*
G01*
G54D13*
X44077Y-27328D02*
X44077Y-27042D01*
X43696Y-27014D01*
X43734Y-27042D01*
X43772Y-27099D01*
X43772Y-27242D01*
X43734Y-27299D01*
X43696Y-27328D01*
X43619Y-27357D01*
X43429Y-27357D01*
X43353Y-27328D01*
X43315Y-27299D01*
X43277Y-27242D01*
X43277Y-27099D01*
X43315Y-27042D01*
X43353Y-27014D01*
X44077Y-27557D02*
X44077Y-27928D01*
X43772Y-27728D01*
X43772Y-27814D01*
X43734Y-27871D01*
X43696Y-27899D01*
X43619Y-27928D01*
X43429Y-27928D01*
X43353Y-27899D01*
X43315Y-27871D01*
X43277Y-27814D01*
X43277Y-27642D01*
X43315Y-27585D01*
X43353Y-27557D01*
X43315Y-28214D02*
X43277Y-28214D01*
X43200Y-28185D01*
X43162Y-28157D01*
X44077Y-28414D02*
X44077Y-28785D01*
X43772Y-28585D01*
X43772Y-28671D01*
X43734Y-28728D01*
X43696Y-28757D01*
X43619Y-28785D01*
X43429Y-28785D01*
X43353Y-28757D01*
X43315Y-28728D01*
X43277Y-28671D01*
X43277Y-28500D01*
X43315Y-28442D01*
X43353Y-28414D01*
X43810Y-29300D02*
X43277Y-29300D01*
X44115Y-29157D02*
X43543Y-29014D01*
X43543Y-29385D01*
X44077Y-29728D02*
X44077Y-29785D01*
X44039Y-29842D01*
X44000Y-29871D01*
X43924Y-29900D01*
X43772Y-29928D01*
X43581Y-29928D01*
X43429Y-29900D01*
X43353Y-29871D01*
X43315Y-29842D01*
X43277Y-29785D01*
X43277Y-29728D01*
X43315Y-29671D01*
X43353Y-29642D01*
X43429Y-29614D01*
X43581Y-29585D01*
X43772Y-29585D01*
X43924Y-29614D01*
X44000Y-29642D01*
X44039Y-29671D01*
X44077Y-29728D01*
X43277Y-30642D02*
X43810Y-30642D01*
X43734Y-30642D02*
X43772Y-30671D01*
X43810Y-30728D01*
X43810Y-30814D01*
X43772Y-30871D01*
X43696Y-30900D01*
X43277Y-30900D01*
X43696Y-30900D02*
X43772Y-30928D01*
X43810Y-30985D01*
X43810Y-31071D01*
X43772Y-31128D01*
X43696Y-31157D01*
X43277Y-31157D01*
X43277Y-31442D02*
X43810Y-31442D01*
X43734Y-31442D02*
X43772Y-31471D01*
X43810Y-31528D01*
X43810Y-31614D01*
X43772Y-31671D01*
X43696Y-31700D01*
X43277Y-31700D01*
X43696Y-31700D02*
X43772Y-31728D01*
X43810Y-31785D01*
X43810Y-31871D01*
X43772Y-31928D01*
X43696Y-31957D01*
X43277Y-31957D01*
X42999Y-19000D02*
X42999Y-40000D01*
X40000Y-19000D02*
X44279Y-19000D01*
X40000Y-40000D02*
X44279Y-40000D01*
X42999Y-40000D02*
X42769Y-39557D01*
X42999Y-40000D02*
X43229Y-39557D01*
X42999Y-19000D02*
X42769Y-19443D01*
X42999Y-19000D02*
X43229Y-19443D01*
X27328Y-43200D02*
X27042Y-43200D01*
X27014Y-43581D01*
X27042Y-43543D01*
X27099Y-43505D01*
X27242Y-43505D01*
X27299Y-43543D01*
X27328Y-43581D01*
X27357Y-43658D01*
X27357Y-43848D01*
X27328Y-43924D01*
X27299Y-43962D01*
X27242Y-44000D01*
X27099Y-44000D01*
X27042Y-43962D01*
X27014Y-43924D01*
X27557Y-43200D02*
X27928Y-43200D01*
X27728Y-43505D01*
X27814Y-43505D01*
X27871Y-43543D01*
X27899Y-43581D01*
X27928Y-43658D01*
X27928Y-43848D01*
X27899Y-43924D01*
X27871Y-43962D01*
X27814Y-44000D01*
X27642Y-44000D01*
X27585Y-43962D01*
X27557Y-43924D01*
X28214Y-43962D02*
X28214Y-44000D01*
X28185Y-44077D01*
X28157Y-44115D01*
X28414Y-43200D02*
X28785Y-43200D01*
X28585Y-43505D01*
X28671Y-43505D01*
X28728Y-43543D01*
X28757Y-43581D01*
X28785Y-43658D01*
X28785Y-43848D01*
X28757Y-43924D01*
X28728Y-43962D01*
X28671Y-44000D01*
X28500Y-44000D01*
X28442Y-43962D01*
X28414Y-43924D01*
X29300Y-43467D02*
X29300Y-44000D01*
X29157Y-43162D02*
X29014Y-43734D01*
X29385Y-43734D01*
X29728Y-43200D02*
X29785Y-43200D01*
X29842Y-43239D01*
X29871Y-43277D01*
X29900Y-43353D01*
X29928Y-43505D01*
X29928Y-43696D01*
X29900Y-43848D01*
X29871Y-43924D01*
X29842Y-43962D01*
X29785Y-44000D01*
X29728Y-44000D01*
X29671Y-43962D01*
X29642Y-43924D01*
X29614Y-43848D01*
X29585Y-43696D01*
X29585Y-43505D01*
X29614Y-43353D01*
X29642Y-43277D01*
X29671Y-43239D01*
X29728Y-43200D01*
X30642Y-44000D02*
X30642Y-43467D01*
X30642Y-43543D02*
X30671Y-43505D01*
X30728Y-43467D01*
X30814Y-43467D01*
X30871Y-43505D01*
X30900Y-43581D01*
X30900Y-44000D01*
X30900Y-43581D02*
X30928Y-43505D01*
X30985Y-43467D01*
X31071Y-43467D01*
X31128Y-43505D01*
X31157Y-43581D01*
X31157Y-44000D01*
X31442Y-44000D02*
X31442Y-43467D01*
X31442Y-43543D02*
X31471Y-43505D01*
X31528Y-43467D01*
X31614Y-43467D01*
X31671Y-43505D01*
X31700Y-43581D01*
X31700Y-44000D01*
X31700Y-43581D02*
X31728Y-43505D01*
X31785Y-43467D01*
X31871Y-43467D01*
X31928Y-43505D01*
X31957Y-43581D01*
X31957Y-44000D01*
X19000Y-42999D02*
X40000Y-42999D01*
X19000Y-40000D02*
X19000Y-44279D01*
X40000Y-40000D02*
X40000Y-44279D01*
X40000Y-42999D02*
X39557Y-43229D01*
X40000Y-42999D02*
X39557Y-42769D01*
X19000Y-42999D02*
X19443Y-43229D01*
X19000Y-42999D02*
X19443Y-42769D01*
G54D12*
X39800Y-20000D02*
G75*
G03X39800Y-20000I-800J0D01*
G74*
G01*
X20800Y-39000D02*
G75*
G03X20800Y-39000I-800J0D01*
G74*
G01*
G54D13*
X36500Y-19500D02*
X36500Y-21500D01*
X23500Y-19500D02*
X23500Y-21500D01*
X22500Y-19500D02*
X22500Y-21500D01*
X36500Y-21500D02*
X22500Y-21500D01*
X22500Y-20500D02*
X36500Y-20500D01*
X22500Y-19500D02*
X36500Y-19500D01*
X22500Y-39500D02*
X22500Y-37500D01*
X35500Y-39500D02*
X35500Y-37500D01*
X36500Y-39500D02*
X36500Y-37500D01*
X22500Y-37500D02*
X36500Y-37500D01*
X36500Y-38500D02*
X22500Y-38500D01*
X36500Y-39500D02*
X22500Y-39500D01*
G54D14*
X19406Y-23890D02*
X19406Y-22709D01*
X19406Y-22709D02*
X20193Y-22709D01*
X20193Y-22709D02*
X20193Y-23890D01*
X20193Y-23890D02*
X19406Y-23890D01*
X20193Y-24409D02*
X20193Y-25590D01*
X20193Y-25590D02*
X19406Y-25590D01*
X19406Y-25590D02*
X19406Y-24409D01*
X19406Y-24409D02*
X20193Y-24409D01*
X34390Y-22693D02*
X33209Y-22693D01*
X33209Y-22693D02*
X33209Y-21906D01*
X33209Y-21906D02*
X34390Y-21906D01*
X34390Y-21906D02*
X34390Y-22693D01*
X34390Y-23693D02*
X33209Y-23693D01*
X33209Y-23693D02*
X33209Y-22906D01*
X33209Y-22906D02*
X34390Y-22906D01*
X34390Y-22906D02*
X34390Y-23693D01*
X31190Y-22693D02*
X30009Y-22693D01*
X30009Y-22693D02*
X30009Y-21906D01*
X30009Y-21906D02*
X31190Y-21906D01*
X31190Y-21906D02*
X31190Y-22693D01*
X24893Y-23409D02*
X24893Y-24590D01*
X24893Y-24590D02*
X24106Y-24590D01*
X24106Y-24590D02*
X24106Y-23409D01*
X24106Y-23409D02*
X24893Y-23409D01*
X28008Y-27833D02*
X26591Y-27833D01*
X26591Y-27833D02*
X26591Y-26966D01*
X26591Y-26966D02*
X28008Y-26966D01*
X28008Y-26966D02*
X28008Y-27833D01*
X25693Y-23409D02*
X25693Y-24590D01*
X25693Y-24590D02*
X24906Y-24590D01*
X24906Y-24590D02*
X24906Y-23409D01*
X24906Y-23409D02*
X25693Y-23409D01*
X27890Y-26893D02*
X26709Y-26893D01*
X26709Y-26893D02*
X26709Y-26106D01*
X26709Y-26106D02*
X27890Y-26106D01*
X27890Y-26106D02*
X27890Y-26893D01*
X32793Y-26709D02*
X32793Y-27890D01*
X32793Y-27890D02*
X32006Y-27890D01*
X32006Y-27890D02*
X32006Y-26709D01*
X32006Y-26709D02*
X32793Y-26709D01*
X36391Y-28166D02*
X37808Y-28166D01*
X37808Y-28166D02*
X37808Y-29033D01*
X37808Y-29033D02*
X36391Y-29033D01*
X36391Y-29033D02*
X36391Y-28166D01*
X27890Y-23293D02*
X26709Y-23293D01*
X26709Y-23293D02*
X26709Y-22506D01*
X26709Y-22506D02*
X27890Y-22506D01*
X27890Y-22506D02*
X27890Y-23293D01*
X26709Y-24306D02*
X27890Y-24306D01*
X27890Y-24306D02*
X27890Y-25093D01*
X27890Y-25093D02*
X26709Y-25093D01*
X26709Y-25093D02*
X26709Y-24306D01*
X28690Y-29393D02*
X27509Y-29393D01*
X27509Y-29393D02*
X27509Y-28606D01*
X27509Y-28606D02*
X28690Y-28606D01*
X28690Y-28606D02*
X28690Y-29393D01*
X37609Y-30306D02*
X38790Y-30306D01*
X38790Y-30306D02*
X38790Y-31093D01*
X38790Y-31093D02*
X37609Y-31093D01*
X37609Y-31093D02*
X37609Y-30306D01*
X27590Y-35293D02*
X26409Y-35293D01*
X26409Y-35293D02*
X26409Y-34506D01*
X26409Y-34506D02*
X27590Y-34506D01*
X27590Y-34506D02*
X27590Y-35293D01*
X27809Y-34506D02*
X28990Y-34506D01*
X28990Y-34506D02*
X28990Y-35293D01*
X28990Y-35293D02*
X27809Y-35293D01*
X27809Y-35293D02*
X27809Y-34506D01*
X21891Y-34466D02*
X23308Y-34466D01*
X23308Y-34466D02*
X23308Y-35333D01*
X23308Y-35333D02*
X21891Y-35333D01*
X21891Y-35333D02*
X21891Y-34466D01*
X22009Y-35506D02*
X23190Y-35506D01*
X23190Y-35506D02*
X23190Y-36293D01*
X23190Y-36293D02*
X22009Y-36293D01*
X22009Y-36293D02*
X22009Y-35506D01*
X34293Y-35709D02*
X34293Y-36890D01*
X34293Y-36890D02*
X33506Y-36890D01*
X33506Y-36890D02*
X33506Y-35709D01*
X33506Y-35709D02*
X34293Y-35709D01*
X33493Y-35709D02*
X33493Y-36890D01*
X33493Y-36890D02*
X32706Y-36890D01*
X32706Y-36890D02*
X32706Y-35709D01*
X32706Y-35709D02*
X33493Y-35709D01*
X35093Y-35709D02*
X35093Y-36890D01*
X35093Y-36890D02*
X34306Y-36890D01*
X34306Y-36890D02*
X34306Y-35709D01*
X34306Y-35709D02*
X35093Y-35709D01*
X37609Y-31306D02*
X38790Y-31306D01*
X38790Y-31306D02*
X38790Y-32093D01*
X38790Y-32093D02*
X37609Y-32093D01*
X37609Y-32093D02*
X37609Y-31306D01*
G54D15*
X36500Y-21800D02*
X37500Y-21800D01*
X37500Y-21800D02*
X37500Y-23800D01*
X37500Y-23800D02*
X36500Y-23800D01*
X36500Y-23800D02*
X36500Y-21800D01*
G54D14*
X35166Y-37108D02*
X35166Y-35691D01*
X35166Y-35691D02*
X36033Y-35691D01*
X36033Y-35691D02*
X36033Y-37108D01*
X36033Y-37108D02*
X35166Y-37108D01*
X36166Y-37108D02*
X36166Y-35691D01*
X36166Y-35691D02*
X37033Y-35691D01*
X37033Y-35691D02*
X37033Y-37108D01*
X37033Y-37108D02*
X36166Y-37108D01*
G54D16*
X38900Y-37050D02*
X37700Y-37050D01*
X37700Y-37050D02*
X37700Y-36750D01*
X37700Y-36750D02*
X38900Y-36750D01*
X38900Y-36750D02*
X38900Y-37050D01*
G54D14*
X29193Y-26609D02*
X29193Y-27790D01*
X29193Y-27790D02*
X28406Y-27790D01*
X28406Y-27790D02*
X28406Y-26609D01*
X28406Y-26609D02*
X29193Y-26609D01*
X24093Y-23409D02*
X24093Y-24590D01*
X24093Y-24590D02*
X23306Y-24590D01*
X23306Y-24590D02*
X23306Y-23409D01*
X23306Y-23409D02*
X24093Y-23409D01*
X24093Y-24609D02*
X24093Y-25790D01*
X24093Y-25790D02*
X23306Y-25790D01*
X23306Y-25790D02*
X23306Y-24609D01*
X23306Y-24609D02*
X24093Y-24609D01*
X31206Y-27890D02*
X31206Y-26709D01*
X31206Y-26709D02*
X31993Y-26709D01*
X31993Y-26709D02*
X31993Y-27890D01*
X31993Y-27890D02*
X31206Y-27890D01*
X26709Y-25306D02*
X27890Y-25306D01*
X27890Y-25306D02*
X27890Y-26093D01*
X27890Y-26093D02*
X26709Y-26093D01*
X26709Y-26093D02*
X26709Y-25306D01*
X27890Y-22493D02*
X26709Y-22493D01*
X26709Y-22493D02*
X26709Y-21706D01*
X26709Y-21706D02*
X27890Y-21706D01*
X27890Y-21706D02*
X27890Y-22493D01*
X27890Y-24293D02*
X26709Y-24293D01*
X26709Y-24293D02*
X26709Y-23506D01*
X26709Y-23506D02*
X27890Y-23506D01*
X27890Y-23506D02*
X27890Y-24293D01*
X34390Y-24793D02*
X33209Y-24793D01*
X33209Y-24793D02*
X33209Y-24006D01*
X33209Y-24006D02*
X34390Y-24006D01*
X34390Y-24006D02*
X34390Y-24793D01*
X26293Y-29609D02*
X26293Y-30790D01*
X26293Y-30790D02*
X25506Y-30790D01*
X25506Y-30790D02*
X25506Y-29609D01*
X25506Y-29609D02*
X26293Y-29609D01*
X27093Y-29609D02*
X27093Y-30790D01*
X27093Y-30790D02*
X26306Y-30790D01*
X26306Y-30790D02*
X26306Y-29609D01*
X26306Y-29609D02*
X27093Y-29609D01*
X37609Y-33906D02*
X38790Y-33906D01*
X38790Y-33906D02*
X38790Y-34693D01*
X38790Y-34693D02*
X37609Y-34693D01*
X37609Y-34693D02*
X37609Y-33906D01*
X38790Y-33093D02*
X37609Y-33093D01*
X37609Y-33093D02*
X37609Y-32306D01*
X37609Y-32306D02*
X38790Y-32306D01*
X38790Y-32306D02*
X38790Y-33093D01*
X37609Y-33106D02*
X38790Y-33106D01*
X38790Y-33106D02*
X38790Y-33893D01*
X38790Y-33893D02*
X37609Y-33893D01*
X37609Y-33893D02*
X37609Y-33106D01*
X37609Y-34706D02*
X38790Y-34706D01*
X38790Y-34706D02*
X38790Y-35493D01*
X38790Y-35493D02*
X37609Y-35493D01*
X37609Y-35493D02*
X37609Y-34706D01*
X28790Y-33293D02*
X27609Y-33293D01*
X27609Y-33293D02*
X27609Y-32506D01*
X27609Y-32506D02*
X28790Y-32506D01*
X28790Y-32506D02*
X28790Y-33293D01*
X20409Y-29106D02*
X21590Y-29106D01*
X21590Y-29106D02*
X21590Y-29893D01*
X21590Y-29893D02*
X20409Y-29893D01*
X20409Y-29893D02*
X20409Y-29106D01*
X20409Y-29906D02*
X21590Y-29906D01*
X21590Y-29906D02*
X21590Y-30693D01*
X21590Y-30693D02*
X20409Y-30693D01*
X20409Y-30693D02*
X20409Y-29906D01*
X20409Y-30706D02*
X21590Y-30706D01*
X21590Y-30706D02*
X21590Y-31493D01*
X21590Y-31493D02*
X20409Y-31493D01*
X20409Y-31493D02*
X20409Y-30706D01*
X20409Y-31506D02*
X21590Y-31506D01*
X21590Y-31506D02*
X21590Y-32293D01*
X21590Y-32293D02*
X20409Y-32293D01*
X20409Y-32293D02*
X20409Y-31506D01*
X20409Y-32306D02*
X21590Y-32306D01*
X21590Y-32306D02*
X21590Y-33093D01*
X21590Y-33093D02*
X20409Y-33093D01*
X20409Y-33093D02*
X20409Y-32306D01*
X20409Y-33106D02*
X21590Y-33106D01*
X21590Y-33106D02*
X21590Y-33893D01*
X21590Y-33893D02*
X20409Y-33893D01*
X20409Y-33893D02*
X20409Y-33106D01*
X30206Y-36890D02*
X30206Y-35709D01*
X30206Y-35709D02*
X30993Y-35709D01*
X30993Y-35709D02*
X30993Y-36890D01*
X30993Y-36890D02*
X30206Y-36890D01*
X31006Y-36890D02*
X31006Y-35709D01*
X31006Y-35709D02*
X31793Y-35709D01*
X31793Y-35709D02*
X31793Y-36890D01*
X31793Y-36890D02*
X31006Y-36890D01*
X31806Y-36890D02*
X31806Y-35709D01*
X31806Y-35709D02*
X32593Y-35709D01*
X32593Y-35709D02*
X32593Y-36890D01*
X32593Y-36890D02*
X31806Y-36890D01*
X27609Y-33306D02*
X28790Y-33306D01*
X28790Y-33306D02*
X28790Y-34093D01*
X28790Y-34093D02*
X27609Y-34093D01*
X27609Y-34093D02*
X27609Y-33306D01*
G54D15*
X29400Y-25625D02*
X29400Y-23975D01*
X29400Y-23975D02*
X29400Y-23600D01*
X29400Y-23600D02*
X31800Y-23600D01*
X31800Y-23600D02*
X31800Y-26000D01*
X31800Y-26000D02*
X29775Y-26000D01*
X29775Y-26000D02*
X29400Y-25625D01*
G54D14*
X28100Y-29491D02*
X28100Y-30200D01*
X28100Y-30200D02*
X28966Y-30200D01*
X28966Y-29491D02*
X27233Y-29491D01*
X27233Y-29491D02*
X27233Y-30908D01*
X27233Y-30908D02*
X28966Y-30908D01*
X28966Y-30908D02*
X28966Y-29491D01*
G54D12*
X28979Y-35311D02*
X26420Y-35311D01*
X28979Y-36688D02*
X26420Y-36688D01*
X26420Y-36689D02*
X26420Y-35311D01*
X28979Y-35311D02*
X28979Y-36689D01*
G54D15*
X51279Y-12225D02*
X60779Y-12225D01*
G54D14*
X33809Y-25106D02*
X34990Y-25106D01*
X34990Y-25106D02*
X34990Y-25893D01*
X34990Y-25893D02*
X33809Y-25893D01*
X33809Y-25893D02*
X33809Y-25106D01*
X33809Y-26106D02*
X34990Y-26106D01*
X34990Y-26106D02*
X34990Y-26893D01*
X34990Y-26893D02*
X33809Y-26893D01*
X33809Y-26893D02*
X33809Y-26106D01*
G54D12*
X36165Y-34662D02*
X36362Y-34662D01*
X36362Y-34662D02*
X36362Y-34465D01*
X36362Y-30134D02*
X36165Y-29937D01*
X36165Y-29937D02*
X31834Y-29937D01*
X31834Y-29937D02*
X31637Y-30134D01*
X31637Y-30134D02*
X31637Y-34465D01*
X31637Y-34465D02*
X31834Y-34662D01*
X31834Y-34662D02*
X36165Y-34662D01*
X36165Y-34662D02*
X36362Y-34465D01*
X36362Y-34465D02*
X36362Y-30134D01*
X20420Y-22909D02*
X22979Y-22909D01*
X22979Y-22909D02*
X22979Y-24090D01*
X22979Y-24090D02*
X20420Y-24090D01*
X20420Y-24090D02*
X20420Y-22909D01*
G54D14*
X31816Y-26590D02*
X31816Y-25409D01*
X31816Y-25409D02*
X32603Y-25409D01*
X32603Y-25409D02*
X32603Y-26590D01*
X32603Y-26590D02*
X31816Y-26590D01*
G54D17*
X37204Y-15180D02*
X37204Y-14780D01*
X37357Y-14780D01*
X37395Y-14800D01*
X37414Y-14819D01*
X37433Y-14857D01*
X37433Y-14914D01*
X37414Y-14952D01*
X37395Y-14971D01*
X37357Y-14990D01*
X37204Y-14990D01*
X37585Y-14819D02*
X37604Y-14800D01*
X37642Y-14780D01*
X37738Y-14780D01*
X37776Y-14800D01*
X37795Y-14819D01*
X37814Y-14857D01*
X37814Y-14895D01*
X37795Y-14952D01*
X37566Y-15180D01*
X37814Y-15180D01*
X34652Y-15142D02*
X34633Y-15161D01*
X34576Y-15180D01*
X34538Y-15180D01*
X34480Y-15161D01*
X34442Y-15123D01*
X34423Y-15085D01*
X34404Y-15009D01*
X34404Y-14952D01*
X34423Y-14876D01*
X34442Y-14838D01*
X34480Y-14800D01*
X34538Y-14780D01*
X34576Y-14780D01*
X34633Y-14800D01*
X34652Y-14819D01*
X34900Y-14780D02*
X34976Y-14780D01*
X35014Y-14800D01*
X35052Y-14838D01*
X35071Y-14914D01*
X35071Y-15047D01*
X35052Y-15123D01*
X35014Y-15161D01*
X34976Y-15180D01*
X34900Y-15180D01*
X34861Y-15161D01*
X34823Y-15123D01*
X34804Y-15047D01*
X34804Y-14914D01*
X34823Y-14838D01*
X34861Y-14800D01*
X34900Y-14780D01*
X35242Y-15180D02*
X35242Y-14780D01*
X35471Y-15180D01*
X35471Y-14780D01*
X35661Y-15180D02*
X35661Y-14780D01*
X35890Y-15180D01*
X35890Y-14780D01*
X35985Y-15219D02*
X36290Y-15219D01*
X36595Y-15180D02*
X36366Y-15180D01*
X36480Y-15180D02*
X36480Y-14780D01*
X36442Y-14838D01*
X36404Y-14876D01*
X36366Y-14895D01*
X28104Y-14380D02*
X28104Y-13980D01*
X28257Y-13980D01*
X28295Y-14000D01*
X28314Y-14019D01*
X28333Y-14057D01*
X28333Y-14114D01*
X28314Y-14152D01*
X28295Y-14171D01*
X28257Y-14190D01*
X28104Y-14190D01*
X28466Y-13980D02*
X28714Y-13980D01*
X28580Y-14133D01*
X28638Y-14133D01*
X28676Y-14152D01*
X28695Y-14171D01*
X28714Y-14209D01*
X28714Y-14304D01*
X28695Y-14342D01*
X28676Y-14361D01*
X28638Y-14380D01*
X28523Y-14380D01*
X28485Y-14361D01*
X28466Y-14342D01*
X24552Y-13542D02*
X24533Y-13561D01*
X24476Y-13580D01*
X24438Y-13580D01*
X24380Y-13561D01*
X24342Y-13523D01*
X24323Y-13485D01*
X24304Y-13409D01*
X24304Y-13352D01*
X24323Y-13276D01*
X24342Y-13238D01*
X24380Y-13200D01*
X24438Y-13180D01*
X24476Y-13180D01*
X24533Y-13200D01*
X24552Y-13219D01*
X24800Y-13180D02*
X24876Y-13180D01*
X24914Y-13200D01*
X24952Y-13238D01*
X24971Y-13314D01*
X24971Y-13447D01*
X24952Y-13523D01*
X24914Y-13561D01*
X24876Y-13580D01*
X24800Y-13580D01*
X24761Y-13561D01*
X24723Y-13523D01*
X24704Y-13447D01*
X24704Y-13314D01*
X24723Y-13238D01*
X24761Y-13200D01*
X24800Y-13180D01*
X25142Y-13580D02*
X25142Y-13180D01*
X25371Y-13580D01*
X25371Y-13180D01*
X25561Y-13580D02*
X25561Y-13180D01*
X25790Y-13580D01*
X25790Y-13180D01*
X25885Y-13619D02*
X26190Y-13619D01*
X26495Y-13580D02*
X26266Y-13580D01*
X26380Y-13580D02*
X26380Y-13180D01*
X26342Y-13238D01*
X26304Y-13276D01*
X26266Y-13295D01*
G54D13*
X19157Y-12871D02*
X19157Y-12271D01*
X19385Y-12271D01*
X19442Y-12300D01*
X19471Y-12328D01*
X19500Y-12385D01*
X19500Y-12471D01*
X19471Y-12528D01*
X19442Y-12557D01*
X19385Y-12585D01*
X19157Y-12585D01*
X20014Y-12271D02*
X19900Y-12271D01*
X19842Y-12300D01*
X19814Y-12328D01*
X19757Y-12414D01*
X19728Y-12528D01*
X19728Y-12757D01*
X19757Y-12814D01*
X19785Y-12842D01*
X19842Y-12871D01*
X19957Y-12871D01*
X20014Y-12842D01*
X20042Y-12814D01*
X20071Y-12757D01*
X20071Y-12614D01*
X20042Y-12557D01*
X20014Y-12528D01*
X19957Y-12500D01*
X19842Y-12500D01*
X19785Y-12528D01*
X19757Y-12557D01*
X19728Y-12614D01*
X15928Y-12814D02*
X15900Y-12842D01*
X15814Y-12871D01*
X15757Y-12871D01*
X15671Y-12842D01*
X15614Y-12785D01*
X15585Y-12728D01*
X15557Y-12614D01*
X15557Y-12528D01*
X15585Y-12414D01*
X15614Y-12357D01*
X15671Y-12300D01*
X15757Y-12271D01*
X15814Y-12271D01*
X15900Y-12300D01*
X15928Y-12328D01*
X16300Y-12271D02*
X16414Y-12271D01*
X16471Y-12300D01*
X16528Y-12357D01*
X16557Y-12471D01*
X16557Y-12671D01*
X16528Y-12785D01*
X16471Y-12842D01*
X16414Y-12871D01*
X16300Y-12871D01*
X16242Y-12842D01*
X16185Y-12785D01*
X16157Y-12671D01*
X16157Y-12471D01*
X16185Y-12357D01*
X16242Y-12300D01*
X16300Y-12271D01*
X16814Y-12871D02*
X16814Y-12271D01*
X17157Y-12871D01*
X17157Y-12271D01*
X17442Y-12871D02*
X17442Y-12271D01*
X17785Y-12871D01*
X17785Y-12271D01*
X17928Y-12928D02*
X18385Y-12928D01*
X18842Y-12871D02*
X18500Y-12871D01*
X18671Y-12871D02*
X18671Y-12271D01*
X18614Y-12357D01*
X18557Y-12414D01*
X18500Y-12442D01*
X32460Y-14346D02*
X32460Y-13746D01*
X32689Y-13746D01*
X32746Y-13774D01*
X32774Y-13803D01*
X32803Y-13860D01*
X32803Y-13946D01*
X32774Y-14003D01*
X32746Y-14031D01*
X32689Y-14060D01*
X32460Y-14060D01*
X33346Y-13746D02*
X33060Y-13746D01*
X33032Y-14031D01*
X33060Y-14003D01*
X33117Y-13974D01*
X33260Y-13974D01*
X33317Y-14003D01*
X33346Y-14031D01*
X33374Y-14089D01*
X33374Y-14231D01*
X33346Y-14289D01*
X33317Y-14317D01*
X33260Y-14346D01*
X33117Y-14346D01*
X33060Y-14317D01*
X33032Y-14289D01*
X34535Y-13757D02*
X34507Y-13786D01*
X34421Y-13814D01*
X34364Y-13814D01*
X34278Y-13786D01*
X34221Y-13729D01*
X34192Y-13671D01*
X34164Y-13557D01*
X34164Y-13471D01*
X34192Y-13357D01*
X34221Y-13300D01*
X34278Y-13243D01*
X34364Y-13214D01*
X34421Y-13214D01*
X34507Y-13243D01*
X34535Y-13271D01*
X34907Y-13214D02*
X35021Y-13214D01*
X35078Y-13243D01*
X35135Y-13300D01*
X35164Y-13414D01*
X35164Y-13614D01*
X35135Y-13729D01*
X35078Y-13786D01*
X35021Y-13814D01*
X34907Y-13814D01*
X34849Y-13786D01*
X34792Y-13729D01*
X34764Y-13614D01*
X34764Y-13414D01*
X34792Y-13300D01*
X34849Y-13243D01*
X34907Y-13214D01*
X35421Y-13814D02*
X35421Y-13214D01*
X35764Y-13814D01*
X35764Y-13214D01*
X36049Y-13814D02*
X36049Y-13214D01*
X36392Y-13814D01*
X36392Y-13214D01*
X36535Y-13871D02*
X36992Y-13871D01*
X37449Y-13814D02*
X37107Y-13814D01*
X37278Y-13814D02*
X37278Y-13214D01*
X37221Y-13300D01*
X37164Y-13357D01*
X37107Y-13386D01*
G54D18*
X22243Y-21243D02*
X22275Y-21264D01*
X22308Y-21325D01*
X22308Y-21366D01*
X22275Y-21427D01*
X22210Y-21468D01*
X22145Y-21488D01*
X22016Y-21508D01*
X21918Y-21508D01*
X21789Y-21488D01*
X21724Y-21468D01*
X21659Y-21427D01*
X21627Y-21366D01*
X21627Y-21325D01*
X21659Y-21264D01*
X21691Y-21243D01*
X21627Y-20978D02*
X21627Y-20897D01*
X21659Y-20856D01*
X21724Y-20815D01*
X21854Y-20795D01*
X22081Y-20795D01*
X22210Y-20815D01*
X22275Y-20856D01*
X22308Y-20897D01*
X22308Y-20978D01*
X22275Y-21019D01*
X22210Y-21060D01*
X22081Y-21080D01*
X21854Y-21080D01*
X21724Y-21060D01*
X21659Y-21019D01*
X21627Y-20978D01*
X22308Y-20612D02*
X21627Y-20612D01*
X22308Y-20367D01*
X21627Y-20367D01*
X22308Y-20163D02*
X21627Y-20163D01*
X22308Y-19919D01*
X21627Y-19919D01*
X22308Y-19491D02*
X22308Y-19735D01*
X22308Y-19613D02*
X21627Y-19613D01*
X21724Y-19654D01*
X21789Y-19694D01*
X21821Y-19735D01*
G54D17*
X28961Y-12714D02*
X28942Y-12742D01*
X28885Y-12771D01*
X28847Y-12771D01*
X28790Y-12742D01*
X28752Y-12685D01*
X28733Y-12628D01*
X28714Y-12514D01*
X28714Y-12428D01*
X28733Y-12314D01*
X28752Y-12257D01*
X28790Y-12200D01*
X28847Y-12171D01*
X28885Y-12171D01*
X28942Y-12200D01*
X28961Y-12228D01*
X29209Y-12171D02*
X29285Y-12171D01*
X29323Y-12200D01*
X29361Y-12257D01*
X29380Y-12371D01*
X29380Y-12571D01*
X29361Y-12685D01*
X29323Y-12742D01*
X29285Y-12771D01*
X29209Y-12771D01*
X29171Y-12742D01*
X29133Y-12685D01*
X29114Y-12571D01*
X29114Y-12371D01*
X29133Y-12257D01*
X29171Y-12200D01*
X29209Y-12171D01*
X29552Y-12771D02*
X29552Y-12171D01*
X29780Y-12771D01*
X29780Y-12171D01*
X29971Y-12771D02*
X29971Y-12171D01*
X30200Y-12771D01*
X30200Y-12171D01*
X30295Y-12828D02*
X30600Y-12828D01*
X30904Y-12771D02*
X30676Y-12771D01*
X30790Y-12771D02*
X30790Y-12171D01*
X30752Y-12257D01*
X30714Y-12314D01*
X30676Y-12342D01*
X31247Y-12371D02*
X31247Y-12771D01*
X31152Y-12142D02*
X31057Y-12571D01*
X31304Y-12571D01*
G54D18*
X37243Y-39243D02*
X37275Y-39264D01*
X37308Y-39325D01*
X37308Y-39366D01*
X37275Y-39427D01*
X37210Y-39468D01*
X37145Y-39488D01*
X37016Y-39508D01*
X36918Y-39508D01*
X36789Y-39488D01*
X36724Y-39468D01*
X36659Y-39427D01*
X36627Y-39366D01*
X36627Y-39325D01*
X36659Y-39264D01*
X36691Y-39243D01*
X36627Y-38978D02*
X36627Y-38897D01*
X36659Y-38856D01*
X36724Y-38815D01*
X36854Y-38795D01*
X37081Y-38795D01*
X37210Y-38815D01*
X37275Y-38856D01*
X37308Y-38897D01*
X37308Y-38978D01*
X37275Y-39019D01*
X37210Y-39060D01*
X37081Y-39080D01*
X36854Y-39080D01*
X36724Y-39060D01*
X36659Y-39019D01*
X36627Y-38978D01*
X37308Y-38612D02*
X36627Y-38612D01*
X37308Y-38367D01*
X36627Y-38367D01*
X37308Y-38163D02*
X36627Y-38163D01*
X37308Y-37919D01*
X36627Y-37919D01*
X36627Y-37756D02*
X36627Y-37491D01*
X36886Y-37633D01*
X36886Y-37572D01*
X36918Y-37531D01*
X36951Y-37511D01*
X37016Y-37491D01*
X37178Y-37491D01*
X37243Y-37511D01*
X37275Y-37531D01*
X37308Y-37572D01*
X37308Y-37694D01*
X37275Y-37735D01*
X37243Y-37756D01*
G54D17*
X22961Y-12214D02*
X22942Y-12242D01*
X22885Y-12271D01*
X22847Y-12271D01*
X22790Y-12242D01*
X22752Y-12185D01*
X22733Y-12128D01*
X22714Y-12014D01*
X22714Y-11928D01*
X22733Y-11814D01*
X22752Y-11757D01*
X22790Y-11700D01*
X22847Y-11671D01*
X22885Y-11671D01*
X22942Y-11700D01*
X22961Y-11728D01*
X23209Y-11671D02*
X23285Y-11671D01*
X23323Y-11700D01*
X23361Y-11757D01*
X23380Y-11871D01*
X23380Y-12071D01*
X23361Y-12185D01*
X23323Y-12242D01*
X23285Y-12271D01*
X23209Y-12271D01*
X23171Y-12242D01*
X23133Y-12185D01*
X23114Y-12071D01*
X23114Y-11871D01*
X23133Y-11757D01*
X23171Y-11700D01*
X23209Y-11671D01*
X23552Y-12271D02*
X23552Y-11671D01*
X23780Y-12271D01*
X23780Y-11671D01*
X23971Y-12271D02*
X23971Y-11671D01*
X24200Y-12271D01*
X24200Y-11671D01*
X24295Y-12328D02*
X24600Y-12328D01*
X24904Y-12271D02*
X24676Y-12271D01*
X24790Y-12271D02*
X24790Y-11671D01*
X24752Y-11757D01*
X24714Y-11814D01*
X24676Y-11842D01*
X25247Y-11871D02*
X25247Y-12271D01*
X25152Y-11642D02*
X25057Y-12071D01*
X25304Y-12071D01*
G54D19*
X19758Y-25689D02*
X19746Y-25701D01*
X19710Y-25713D01*
X19686Y-25713D01*
X19651Y-25701D01*
X19627Y-25677D01*
X19615Y-25653D01*
X19603Y-25605D01*
X19603Y-25570D01*
X19615Y-25522D01*
X19627Y-25498D01*
X19651Y-25475D01*
X19686Y-25463D01*
X19710Y-25463D01*
X19746Y-25475D01*
X19758Y-25486D01*
X19853Y-25486D02*
X19865Y-25475D01*
X19889Y-25463D01*
X19948Y-25463D01*
X19972Y-25475D01*
X19984Y-25486D01*
X19996Y-25510D01*
X19996Y-25534D01*
X19984Y-25570D01*
X19841Y-25713D01*
X19996Y-25713D01*
X19758Y-24189D02*
X19746Y-24201D01*
X19710Y-24213D01*
X19686Y-24213D01*
X19651Y-24201D01*
X19627Y-24177D01*
X19615Y-24153D01*
X19603Y-24105D01*
X19603Y-24070D01*
X19615Y-24022D01*
X19627Y-23998D01*
X19651Y-23975D01*
X19686Y-23963D01*
X19710Y-23963D01*
X19746Y-23975D01*
X19758Y-23986D01*
X19841Y-23963D02*
X19996Y-23963D01*
X19913Y-24058D01*
X19948Y-24058D01*
X19972Y-24070D01*
X19984Y-24082D01*
X19996Y-24105D01*
X19996Y-24165D01*
X19984Y-24189D01*
X19972Y-24201D01*
X19948Y-24213D01*
X19877Y-24213D01*
X19853Y-24201D01*
X19841Y-24189D01*
X32858Y-22389D02*
X32846Y-22401D01*
X32810Y-22413D01*
X32786Y-22413D01*
X32751Y-22401D01*
X32727Y-22377D01*
X32715Y-22353D01*
X32703Y-22305D01*
X32703Y-22270D01*
X32715Y-22222D01*
X32727Y-22198D01*
X32751Y-22175D01*
X32786Y-22163D01*
X32810Y-22163D01*
X32846Y-22175D01*
X32858Y-22186D01*
X33072Y-22246D02*
X33072Y-22413D01*
X33013Y-22151D02*
X32953Y-22329D01*
X33108Y-22329D01*
X32808Y-23389D02*
X32796Y-23401D01*
X32760Y-23413D01*
X32736Y-23413D01*
X32701Y-23401D01*
X32677Y-23377D01*
X32665Y-23353D01*
X32653Y-23305D01*
X32653Y-23270D01*
X32665Y-23222D01*
X32677Y-23198D01*
X32701Y-23175D01*
X32736Y-23163D01*
X32760Y-23163D01*
X32796Y-23175D01*
X32808Y-23186D01*
X33034Y-23163D02*
X32915Y-23163D01*
X32903Y-23282D01*
X32915Y-23270D01*
X32939Y-23258D01*
X32998Y-23258D01*
X33022Y-23270D01*
X33034Y-23282D01*
X33046Y-23305D01*
X33046Y-23365D01*
X33034Y-23389D01*
X33022Y-23401D01*
X32998Y-23413D01*
X32939Y-23413D01*
X32915Y-23401D01*
X32903Y-23389D01*
X29839Y-22341D02*
X29851Y-22353D01*
X29863Y-22389D01*
X29863Y-22413D01*
X29851Y-22448D01*
X29827Y-22472D01*
X29803Y-22484D01*
X29755Y-22496D01*
X29720Y-22496D01*
X29672Y-22484D01*
X29648Y-22472D01*
X29625Y-22448D01*
X29613Y-22413D01*
X29613Y-22389D01*
X29625Y-22353D01*
X29636Y-22341D01*
X29863Y-22222D02*
X29863Y-22175D01*
X29851Y-22151D01*
X29839Y-22139D01*
X29803Y-22115D01*
X29755Y-22103D01*
X29660Y-22103D01*
X29636Y-22115D01*
X29625Y-22127D01*
X29613Y-22151D01*
X29613Y-22198D01*
X29625Y-22222D01*
X29636Y-22234D01*
X29660Y-22246D01*
X29720Y-22246D01*
X29744Y-22234D01*
X29755Y-22222D01*
X29767Y-22198D01*
X29767Y-22151D01*
X29755Y-22127D01*
X29744Y-22115D01*
X29720Y-22103D01*
X24439Y-23289D02*
X24427Y-23301D01*
X24391Y-23313D01*
X24367Y-23313D01*
X24332Y-23301D01*
X24308Y-23277D01*
X24296Y-23253D01*
X24284Y-23205D01*
X24284Y-23170D01*
X24296Y-23122D01*
X24308Y-23098D01*
X24332Y-23075D01*
X24367Y-23063D01*
X24391Y-23063D01*
X24427Y-23075D01*
X24439Y-23086D01*
X24677Y-23313D02*
X24534Y-23313D01*
X24605Y-23313D02*
X24605Y-23063D01*
X24582Y-23098D01*
X24558Y-23122D01*
X24534Y-23134D01*
X24832Y-23063D02*
X24855Y-23063D01*
X24879Y-23075D01*
X24891Y-23086D01*
X24903Y-23110D01*
X24915Y-23158D01*
X24915Y-23217D01*
X24903Y-23265D01*
X24891Y-23289D01*
X24879Y-23301D01*
X24855Y-23313D01*
X24832Y-23313D01*
X24808Y-23301D01*
X24796Y-23289D01*
X24784Y-23265D01*
X24772Y-23217D01*
X24772Y-23158D01*
X24784Y-23110D01*
X24796Y-23086D01*
X24808Y-23075D01*
X24832Y-23063D01*
X26489Y-27560D02*
X26501Y-27572D01*
X26513Y-27608D01*
X26513Y-27632D01*
X26501Y-27667D01*
X26477Y-27691D01*
X26453Y-27703D01*
X26405Y-27715D01*
X26370Y-27715D01*
X26322Y-27703D01*
X26298Y-27691D01*
X26275Y-27667D01*
X26263Y-27632D01*
X26263Y-27608D01*
X26275Y-27572D01*
X26286Y-27560D01*
X26513Y-27322D02*
X26513Y-27465D01*
X26513Y-27394D02*
X26263Y-27394D01*
X26298Y-27417D01*
X26322Y-27441D01*
X26334Y-27465D01*
X26286Y-27227D02*
X26275Y-27215D01*
X26263Y-27191D01*
X26263Y-27132D01*
X26275Y-27108D01*
X26286Y-27096D01*
X26310Y-27084D01*
X26334Y-27084D01*
X26370Y-27096D01*
X26513Y-27239D01*
X26513Y-27084D01*
X25139Y-23289D02*
X25127Y-23301D01*
X25091Y-23313D01*
X25067Y-23313D01*
X25032Y-23301D01*
X25008Y-23277D01*
X24996Y-23253D01*
X24984Y-23205D01*
X24984Y-23170D01*
X24996Y-23122D01*
X25008Y-23098D01*
X25032Y-23075D01*
X25067Y-23063D01*
X25091Y-23063D01*
X25127Y-23075D01*
X25139Y-23086D01*
X25377Y-23313D02*
X25234Y-23313D01*
X25305Y-23313D02*
X25305Y-23063D01*
X25282Y-23098D01*
X25258Y-23122D01*
X25234Y-23134D01*
X25460Y-23063D02*
X25615Y-23063D01*
X25532Y-23158D01*
X25567Y-23158D01*
X25591Y-23170D01*
X25603Y-23182D01*
X25615Y-23205D01*
X25615Y-23265D01*
X25603Y-23289D01*
X25591Y-23301D01*
X25567Y-23313D01*
X25496Y-23313D01*
X25472Y-23301D01*
X25460Y-23289D01*
X26589Y-26660D02*
X26601Y-26672D01*
X26613Y-26708D01*
X26613Y-26732D01*
X26601Y-26767D01*
X26577Y-26791D01*
X26553Y-26803D01*
X26505Y-26815D01*
X26470Y-26815D01*
X26422Y-26803D01*
X26398Y-26791D01*
X26375Y-26767D01*
X26363Y-26732D01*
X26363Y-26708D01*
X26375Y-26672D01*
X26386Y-26660D01*
X26613Y-26422D02*
X26613Y-26565D01*
X26613Y-26494D02*
X26363Y-26494D01*
X26398Y-26517D01*
X26422Y-26541D01*
X26434Y-26565D01*
X26446Y-26208D02*
X26613Y-26208D01*
X26351Y-26267D02*
X26529Y-26327D01*
X26529Y-26172D01*
X32239Y-28189D02*
X32227Y-28201D01*
X32191Y-28213D01*
X32167Y-28213D01*
X32132Y-28201D01*
X32108Y-28177D01*
X32096Y-28153D01*
X32084Y-28105D01*
X32084Y-28070D01*
X32096Y-28022D01*
X32108Y-27998D01*
X32132Y-27975D01*
X32167Y-27963D01*
X32191Y-27963D01*
X32227Y-27975D01*
X32239Y-27986D01*
X32477Y-28213D02*
X32334Y-28213D01*
X32405Y-28213D02*
X32405Y-27963D01*
X32382Y-27998D01*
X32358Y-28022D01*
X32334Y-28034D01*
X32703Y-27963D02*
X32584Y-27963D01*
X32572Y-28082D01*
X32584Y-28070D01*
X32608Y-28058D01*
X32667Y-28058D01*
X32691Y-28070D01*
X32703Y-28082D01*
X32715Y-28105D01*
X32715Y-28165D01*
X32703Y-28189D01*
X32691Y-28201D01*
X32667Y-28213D01*
X32608Y-28213D01*
X32584Y-28201D01*
X32572Y-28189D01*
X38039Y-28689D02*
X38027Y-28701D01*
X37991Y-28713D01*
X37967Y-28713D01*
X37932Y-28701D01*
X37908Y-28677D01*
X37896Y-28653D01*
X37884Y-28605D01*
X37884Y-28570D01*
X37896Y-28522D01*
X37908Y-28498D01*
X37932Y-28475D01*
X37967Y-28463D01*
X37991Y-28463D01*
X38027Y-28475D01*
X38039Y-28486D01*
X38277Y-28713D02*
X38134Y-28713D01*
X38205Y-28713D02*
X38205Y-28463D01*
X38182Y-28498D01*
X38158Y-28522D01*
X38134Y-28534D01*
X38360Y-28463D02*
X38527Y-28463D01*
X38420Y-28713D01*
X26539Y-23060D02*
X26551Y-23072D01*
X26563Y-23108D01*
X26563Y-23132D01*
X26551Y-23167D01*
X26527Y-23191D01*
X26503Y-23203D01*
X26455Y-23215D01*
X26420Y-23215D01*
X26372Y-23203D01*
X26348Y-23191D01*
X26325Y-23167D01*
X26313Y-23132D01*
X26313Y-23108D01*
X26325Y-23072D01*
X26336Y-23060D01*
X26563Y-22822D02*
X26563Y-22965D01*
X26563Y-22894D02*
X26313Y-22894D01*
X26348Y-22917D01*
X26372Y-22941D01*
X26384Y-22965D01*
X26420Y-22679D02*
X26408Y-22703D01*
X26396Y-22715D01*
X26372Y-22727D01*
X26360Y-22727D01*
X26336Y-22715D01*
X26325Y-22703D01*
X26313Y-22679D01*
X26313Y-22632D01*
X26325Y-22608D01*
X26336Y-22596D01*
X26360Y-22584D01*
X26372Y-22584D01*
X26396Y-22596D01*
X26408Y-22608D01*
X26420Y-22632D01*
X26420Y-22679D01*
X26432Y-22703D01*
X26444Y-22715D01*
X26467Y-22727D01*
X26515Y-22727D01*
X26539Y-22715D01*
X26551Y-22703D01*
X26563Y-22679D01*
X26563Y-22632D01*
X26551Y-22608D01*
X26539Y-22596D01*
X26515Y-22584D01*
X26467Y-22584D01*
X26444Y-22596D01*
X26432Y-22608D01*
X26420Y-22632D01*
X26589Y-24860D02*
X26601Y-24872D01*
X26613Y-24908D01*
X26613Y-24932D01*
X26601Y-24967D01*
X26577Y-24991D01*
X26553Y-25003D01*
X26505Y-25015D01*
X26470Y-25015D01*
X26422Y-25003D01*
X26398Y-24991D01*
X26375Y-24967D01*
X26363Y-24932D01*
X26363Y-24908D01*
X26375Y-24872D01*
X26386Y-24860D01*
X26613Y-24622D02*
X26613Y-24765D01*
X26613Y-24694D02*
X26363Y-24694D01*
X26398Y-24717D01*
X26422Y-24741D01*
X26434Y-24765D01*
X26613Y-24503D02*
X26613Y-24455D01*
X26601Y-24432D01*
X26589Y-24420D01*
X26553Y-24396D01*
X26505Y-24384D01*
X26410Y-24384D01*
X26386Y-24396D01*
X26375Y-24408D01*
X26363Y-24432D01*
X26363Y-24479D01*
X26375Y-24503D01*
X26386Y-24515D01*
X26410Y-24527D01*
X26470Y-24527D01*
X26494Y-24515D01*
X26505Y-24503D01*
X26517Y-24479D01*
X26517Y-24432D01*
X26505Y-24408D01*
X26494Y-24396D01*
X26470Y-24384D01*
X27389Y-29160D02*
X27401Y-29172D01*
X27413Y-29208D01*
X27413Y-29232D01*
X27401Y-29267D01*
X27377Y-29291D01*
X27353Y-29303D01*
X27305Y-29315D01*
X27270Y-29315D01*
X27222Y-29303D01*
X27198Y-29291D01*
X27175Y-29267D01*
X27163Y-29232D01*
X27163Y-29208D01*
X27175Y-29172D01*
X27186Y-29160D01*
X27186Y-29065D02*
X27175Y-29053D01*
X27163Y-29029D01*
X27163Y-28970D01*
X27175Y-28946D01*
X27186Y-28934D01*
X27210Y-28922D01*
X27234Y-28922D01*
X27270Y-28934D01*
X27413Y-29077D01*
X27413Y-28922D01*
X27186Y-28827D02*
X27175Y-28815D01*
X27163Y-28791D01*
X27163Y-28732D01*
X27175Y-28708D01*
X27186Y-28696D01*
X27210Y-28684D01*
X27234Y-28684D01*
X27270Y-28696D01*
X27413Y-28839D01*
X27413Y-28684D01*
X39039Y-30789D02*
X39027Y-30801D01*
X38991Y-30813D01*
X38967Y-30813D01*
X38932Y-30801D01*
X38908Y-30777D01*
X38896Y-30753D01*
X38884Y-30705D01*
X38884Y-30670D01*
X38896Y-30622D01*
X38908Y-30598D01*
X38932Y-30575D01*
X38967Y-30563D01*
X38991Y-30563D01*
X39027Y-30575D01*
X39039Y-30586D01*
X39134Y-30586D02*
X39146Y-30575D01*
X39170Y-30563D01*
X39229Y-30563D01*
X39253Y-30575D01*
X39265Y-30586D01*
X39277Y-30610D01*
X39277Y-30634D01*
X39265Y-30670D01*
X39122Y-30813D01*
X39277Y-30813D01*
X39503Y-30563D02*
X39384Y-30563D01*
X39372Y-30682D01*
X39384Y-30670D01*
X39408Y-30658D01*
X39467Y-30658D01*
X39491Y-30670D01*
X39503Y-30682D01*
X39515Y-30705D01*
X39515Y-30765D01*
X39503Y-30789D01*
X39491Y-30801D01*
X39467Y-30813D01*
X39408Y-30813D01*
X39384Y-30801D01*
X39372Y-30789D01*
X26289Y-35060D02*
X26301Y-35072D01*
X26313Y-35108D01*
X26313Y-35132D01*
X26301Y-35167D01*
X26277Y-35191D01*
X26253Y-35203D01*
X26205Y-35215D01*
X26170Y-35215D01*
X26122Y-35203D01*
X26098Y-35191D01*
X26075Y-35167D01*
X26063Y-35132D01*
X26063Y-35108D01*
X26075Y-35072D01*
X26086Y-35060D01*
X26086Y-34965D02*
X26075Y-34953D01*
X26063Y-34929D01*
X26063Y-34870D01*
X26075Y-34846D01*
X26086Y-34834D01*
X26110Y-34822D01*
X26134Y-34822D01*
X26170Y-34834D01*
X26313Y-34977D01*
X26313Y-34822D01*
X26063Y-34739D02*
X26063Y-34572D01*
X26313Y-34679D01*
X29289Y-35060D02*
X29301Y-35072D01*
X29313Y-35108D01*
X29313Y-35132D01*
X29301Y-35167D01*
X29277Y-35191D01*
X29253Y-35203D01*
X29205Y-35215D01*
X29170Y-35215D01*
X29122Y-35203D01*
X29098Y-35191D01*
X29075Y-35167D01*
X29063Y-35132D01*
X29063Y-35108D01*
X29075Y-35072D01*
X29086Y-35060D01*
X29086Y-34965D02*
X29075Y-34953D01*
X29063Y-34929D01*
X29063Y-34870D01*
X29075Y-34846D01*
X29086Y-34834D01*
X29110Y-34822D01*
X29134Y-34822D01*
X29170Y-34834D01*
X29313Y-34977D01*
X29313Y-34822D01*
X29170Y-34679D02*
X29158Y-34703D01*
X29146Y-34715D01*
X29122Y-34727D01*
X29110Y-34727D01*
X29086Y-34715D01*
X29075Y-34703D01*
X29063Y-34679D01*
X29063Y-34632D01*
X29075Y-34608D01*
X29086Y-34596D01*
X29110Y-34584D01*
X29122Y-34584D01*
X29146Y-34596D01*
X29158Y-34608D01*
X29170Y-34632D01*
X29170Y-34679D01*
X29182Y-34703D01*
X29194Y-34715D01*
X29217Y-34727D01*
X29265Y-34727D01*
X29289Y-34715D01*
X29301Y-34703D01*
X29313Y-34679D01*
X29313Y-34632D01*
X29301Y-34608D01*
X29289Y-34596D01*
X29265Y-34584D01*
X29217Y-34584D01*
X29194Y-34596D01*
X29182Y-34608D01*
X29170Y-34632D01*
X23639Y-34989D02*
X23627Y-35001D01*
X23591Y-35013D01*
X23567Y-35013D01*
X23532Y-35001D01*
X23508Y-34977D01*
X23496Y-34953D01*
X23484Y-34905D01*
X23484Y-34870D01*
X23496Y-34822D01*
X23508Y-34798D01*
X23532Y-34775D01*
X23567Y-34763D01*
X23591Y-34763D01*
X23627Y-34775D01*
X23639Y-34786D01*
X23734Y-34786D02*
X23746Y-34775D01*
X23770Y-34763D01*
X23829Y-34763D01*
X23853Y-34775D01*
X23865Y-34786D01*
X23877Y-34810D01*
X23877Y-34834D01*
X23865Y-34870D01*
X23722Y-35013D01*
X23877Y-35013D01*
X23996Y-35013D02*
X24044Y-35013D01*
X24067Y-35001D01*
X24079Y-34989D01*
X24103Y-34953D01*
X24115Y-34905D01*
X24115Y-34810D01*
X24103Y-34786D01*
X24091Y-34775D01*
X24067Y-34763D01*
X24020Y-34763D01*
X23996Y-34775D01*
X23984Y-34786D01*
X23972Y-34810D01*
X23972Y-34870D01*
X23984Y-34894D01*
X23996Y-34905D01*
X24020Y-34917D01*
X24067Y-34917D01*
X24091Y-34905D01*
X24103Y-34894D01*
X24115Y-34870D01*
X23539Y-35989D02*
X23527Y-36001D01*
X23491Y-36013D01*
X23467Y-36013D01*
X23432Y-36001D01*
X23408Y-35977D01*
X23396Y-35953D01*
X23384Y-35905D01*
X23384Y-35870D01*
X23396Y-35822D01*
X23408Y-35798D01*
X23432Y-35775D01*
X23467Y-35763D01*
X23491Y-35763D01*
X23527Y-35775D01*
X23539Y-35786D01*
X23622Y-35763D02*
X23777Y-35763D01*
X23694Y-35858D01*
X23729Y-35858D01*
X23753Y-35870D01*
X23765Y-35882D01*
X23777Y-35905D01*
X23777Y-35965D01*
X23765Y-35989D01*
X23753Y-36001D01*
X23729Y-36013D01*
X23658Y-36013D01*
X23634Y-36001D01*
X23622Y-35989D01*
X23932Y-35763D02*
X23955Y-35763D01*
X23979Y-35775D01*
X23991Y-35786D01*
X24003Y-35810D01*
X24015Y-35858D01*
X24015Y-35917D01*
X24003Y-35965D01*
X23991Y-35989D01*
X23979Y-36001D01*
X23955Y-36013D01*
X23932Y-36013D01*
X23908Y-36001D01*
X23896Y-35989D01*
X23884Y-35965D01*
X23872Y-35917D01*
X23872Y-35858D01*
X23884Y-35810D01*
X23896Y-35786D01*
X23908Y-35775D01*
X23932Y-35763D01*
X33739Y-37189D02*
X33727Y-37201D01*
X33691Y-37213D01*
X33667Y-37213D01*
X33632Y-37201D01*
X33608Y-37177D01*
X33596Y-37153D01*
X33584Y-37105D01*
X33584Y-37070D01*
X33596Y-37022D01*
X33608Y-36998D01*
X33632Y-36975D01*
X33667Y-36963D01*
X33691Y-36963D01*
X33727Y-36975D01*
X33739Y-36986D01*
X33822Y-36963D02*
X33977Y-36963D01*
X33894Y-37058D01*
X33929Y-37058D01*
X33953Y-37070D01*
X33965Y-37082D01*
X33977Y-37105D01*
X33977Y-37165D01*
X33965Y-37189D01*
X33953Y-37201D01*
X33929Y-37213D01*
X33858Y-37213D01*
X33834Y-37201D01*
X33822Y-37189D01*
X34215Y-37213D02*
X34072Y-37213D01*
X34144Y-37213D02*
X34144Y-36963D01*
X34120Y-36998D01*
X34096Y-37022D01*
X34072Y-37034D01*
X32939Y-37189D02*
X32927Y-37201D01*
X32891Y-37213D01*
X32867Y-37213D01*
X32832Y-37201D01*
X32808Y-37177D01*
X32796Y-37153D01*
X32784Y-37105D01*
X32784Y-37070D01*
X32796Y-37022D01*
X32808Y-36998D01*
X32832Y-36975D01*
X32867Y-36963D01*
X32891Y-36963D01*
X32927Y-36975D01*
X32939Y-36986D01*
X33022Y-36963D02*
X33177Y-36963D01*
X33094Y-37058D01*
X33129Y-37058D01*
X33153Y-37070D01*
X33165Y-37082D01*
X33177Y-37105D01*
X33177Y-37165D01*
X33165Y-37189D01*
X33153Y-37201D01*
X33129Y-37213D01*
X33058Y-37213D01*
X33034Y-37201D01*
X33022Y-37189D01*
X33260Y-36963D02*
X33415Y-36963D01*
X33332Y-37058D01*
X33367Y-37058D01*
X33391Y-37070D01*
X33403Y-37082D01*
X33415Y-37105D01*
X33415Y-37165D01*
X33403Y-37189D01*
X33391Y-37201D01*
X33367Y-37213D01*
X33296Y-37213D01*
X33272Y-37201D01*
X33260Y-37189D01*
X34539Y-37189D02*
X34527Y-37201D01*
X34491Y-37213D01*
X34467Y-37213D01*
X34432Y-37201D01*
X34408Y-37177D01*
X34396Y-37153D01*
X34384Y-37105D01*
X34384Y-37070D01*
X34396Y-37022D01*
X34408Y-36998D01*
X34432Y-36975D01*
X34467Y-36963D01*
X34491Y-36963D01*
X34527Y-36975D01*
X34539Y-36986D01*
X34622Y-36963D02*
X34777Y-36963D01*
X34694Y-37058D01*
X34729Y-37058D01*
X34753Y-37070D01*
X34765Y-37082D01*
X34777Y-37105D01*
X34777Y-37165D01*
X34765Y-37189D01*
X34753Y-37201D01*
X34729Y-37213D01*
X34658Y-37213D01*
X34634Y-37201D01*
X34622Y-37189D01*
X35003Y-36963D02*
X34884Y-36963D01*
X34872Y-37082D01*
X34884Y-37070D01*
X34908Y-37058D01*
X34967Y-37058D01*
X34991Y-37070D01*
X35003Y-37082D01*
X35015Y-37105D01*
X35015Y-37165D01*
X35003Y-37189D01*
X34991Y-37201D01*
X34967Y-37213D01*
X34908Y-37213D01*
X34884Y-37201D01*
X34872Y-37189D01*
X38915Y-31813D02*
X38915Y-31563D01*
X38975Y-31563D01*
X39010Y-31575D01*
X39034Y-31598D01*
X39046Y-31622D01*
X39058Y-31670D01*
X39058Y-31705D01*
X39046Y-31753D01*
X39034Y-31777D01*
X39010Y-31801D01*
X38975Y-31813D01*
X38915Y-31813D01*
X39296Y-31813D02*
X39153Y-31813D01*
X39225Y-31813D02*
X39225Y-31563D01*
X39201Y-31598D01*
X39177Y-31622D01*
X39153Y-31634D01*
G54D15*
X36750Y-21385D02*
X36750Y-21600D01*
X36735Y-21642D01*
X36707Y-21671D01*
X36664Y-21685D01*
X36635Y-21685D01*
X36892Y-21685D02*
X36892Y-21385D01*
X37007Y-21385D01*
X37035Y-21400D01*
X37050Y-21414D01*
X37064Y-21442D01*
X37064Y-21485D01*
X37050Y-21514D01*
X37035Y-21528D01*
X37007Y-21542D01*
X36892Y-21542D01*
X37350Y-21685D02*
X37178Y-21685D01*
X37264Y-21685D02*
X37264Y-21385D01*
X37235Y-21428D01*
X37207Y-21457D01*
X37178Y-21471D01*
G54D19*
X35558Y-35613D02*
X35439Y-35613D01*
X35439Y-35363D01*
X35772Y-35613D02*
X35629Y-35613D01*
X35701Y-35613D02*
X35701Y-35363D01*
X35677Y-35398D01*
X35653Y-35422D01*
X35629Y-35434D01*
X36558Y-35613D02*
X36439Y-35613D01*
X36439Y-35363D01*
X36629Y-35386D02*
X36641Y-35375D01*
X36665Y-35363D01*
X36725Y-35363D01*
X36748Y-35375D01*
X36760Y-35386D01*
X36772Y-35410D01*
X36772Y-35434D01*
X36760Y-35470D01*
X36617Y-35613D01*
X36772Y-35613D01*
G54D13*
X27457Y-11771D02*
X27457Y-11171D01*
X27685Y-11171D01*
X27742Y-11200D01*
X27771Y-11228D01*
X27800Y-11285D01*
X27800Y-11371D01*
X27771Y-11428D01*
X27742Y-11457D01*
X27685Y-11485D01*
X27457Y-11485D01*
X28371Y-11771D02*
X28028Y-11771D01*
X28200Y-11771D02*
X28200Y-11171D01*
X28142Y-11257D01*
X28085Y-11314D01*
X28028Y-11342D01*
X19628Y-11771D02*
X19285Y-11771D01*
X19457Y-11771D02*
X19457Y-11171D01*
X19399Y-11257D01*
X19342Y-11314D01*
X19285Y-11342D01*
X19800Y-11171D02*
X20000Y-11771D01*
X20200Y-11171D01*
X20485Y-11428D02*
X20428Y-11400D01*
X20400Y-11371D01*
X20371Y-11314D01*
X20371Y-11285D01*
X20400Y-11228D01*
X20428Y-11200D01*
X20485Y-11171D01*
X20600Y-11171D01*
X20657Y-11200D01*
X20685Y-11228D01*
X20714Y-11285D01*
X20714Y-11314D01*
X20685Y-11371D01*
X20657Y-11400D01*
X20600Y-11428D01*
X20485Y-11428D01*
X20428Y-11457D01*
X20400Y-11485D01*
X20371Y-11542D01*
X20371Y-11657D01*
X20400Y-11714D01*
X20428Y-11742D01*
X20485Y-11771D01*
X20600Y-11771D01*
X20657Y-11742D01*
X20685Y-11714D01*
X20714Y-11657D01*
X20714Y-11542D01*
X20685Y-11485D01*
X20657Y-11457D01*
X20600Y-11428D01*
X21314Y-11714D02*
X21285Y-11742D01*
X21200Y-11771D01*
X21142Y-11771D01*
X21057Y-11742D01*
X21000Y-11685D01*
X20971Y-11628D01*
X20942Y-11514D01*
X20942Y-11428D01*
X20971Y-11314D01*
X21000Y-11257D01*
X21057Y-11200D01*
X21142Y-11171D01*
X21200Y-11171D01*
X21285Y-11200D01*
X21314Y-11228D01*
X21914Y-11714D02*
X21885Y-11742D01*
X21800Y-11771D01*
X21742Y-11771D01*
X21657Y-11742D01*
X21600Y-11685D01*
X21571Y-11628D01*
X21542Y-11514D01*
X21542Y-11428D01*
X21571Y-11314D01*
X21600Y-11257D01*
X21657Y-11200D01*
X21742Y-11171D01*
X21800Y-11171D01*
X21885Y-11200D01*
X21914Y-11228D01*
X28157Y-10471D02*
X28157Y-9871D01*
X28385Y-9871D01*
X28442Y-9900D01*
X28471Y-9928D01*
X28500Y-9985D01*
X28500Y-10071D01*
X28471Y-10128D01*
X28442Y-10157D01*
X28385Y-10185D01*
X28157Y-10185D01*
X29014Y-10071D02*
X29014Y-10471D01*
X28871Y-9842D02*
X28728Y-10271D01*
X29100Y-10271D01*
X34528Y-11271D02*
X34185Y-11271D01*
X34357Y-11271D02*
X34357Y-10671D01*
X34299Y-10757D01*
X34242Y-10814D01*
X34185Y-10842D01*
X34700Y-10671D02*
X34900Y-11271D01*
X35100Y-10671D01*
X35242Y-10671D02*
X35614Y-10671D01*
X35414Y-10900D01*
X35500Y-10900D01*
X35557Y-10928D01*
X35585Y-10957D01*
X35614Y-11014D01*
X35614Y-11157D01*
X35585Y-11214D01*
X35557Y-11242D01*
X35500Y-11271D01*
X35328Y-11271D01*
X35271Y-11242D01*
X35242Y-11214D01*
X36214Y-11214D02*
X36185Y-11242D01*
X36100Y-11271D01*
X36042Y-11271D01*
X35957Y-11242D01*
X35900Y-11185D01*
X35871Y-11128D01*
X35842Y-11014D01*
X35842Y-10928D01*
X35871Y-10814D01*
X35900Y-10757D01*
X35957Y-10700D01*
X36042Y-10671D01*
X36100Y-10671D01*
X36185Y-10700D01*
X36214Y-10728D01*
X36814Y-11214D02*
X36785Y-11242D01*
X36700Y-11271D01*
X36642Y-11271D01*
X36557Y-11242D01*
X36500Y-11185D01*
X36471Y-11128D01*
X36442Y-11014D01*
X36442Y-10928D01*
X36471Y-10814D01*
X36500Y-10757D01*
X36557Y-10700D01*
X36642Y-10671D01*
X36700Y-10671D01*
X36785Y-10700D01*
X36814Y-10728D01*
X23771Y-14871D02*
X23771Y-14271D01*
X24000Y-14271D01*
X24057Y-14300D01*
X24085Y-14328D01*
X24114Y-14385D01*
X24114Y-14471D01*
X24085Y-14528D01*
X24057Y-14557D01*
X24000Y-14585D01*
X23771Y-14585D01*
X24685Y-14871D02*
X24342Y-14871D01*
X24514Y-14871D02*
X24514Y-14271D01*
X24457Y-14357D01*
X24400Y-14414D01*
X24342Y-14442D01*
X25057Y-14271D02*
X25114Y-14271D01*
X25171Y-14300D01*
X25200Y-14328D01*
X25228Y-14385D01*
X25257Y-14500D01*
X25257Y-14642D01*
X25228Y-14757D01*
X25200Y-14814D01*
X25171Y-14842D01*
X25114Y-14871D01*
X25057Y-14871D01*
X25000Y-14842D01*
X24971Y-14814D01*
X24942Y-14757D01*
X24914Y-14642D01*
X24914Y-14500D01*
X24942Y-14385D01*
X24971Y-14328D01*
X25000Y-14300D01*
X25057Y-14271D01*
X25942Y-15371D02*
X25942Y-14771D01*
X26085Y-14771D01*
X26171Y-14800D01*
X26228Y-14857D01*
X26257Y-14914D01*
X26285Y-15028D01*
X26285Y-15114D01*
X26257Y-15228D01*
X26228Y-15285D01*
X26171Y-15342D01*
X26085Y-15371D01*
X25942Y-15371D01*
X26514Y-15342D02*
X26600Y-15371D01*
X26742Y-15371D01*
X26800Y-15342D01*
X26828Y-15314D01*
X26857Y-15257D01*
X26857Y-15200D01*
X26828Y-15142D01*
X26800Y-15114D01*
X26742Y-15085D01*
X26628Y-15057D01*
X26571Y-15028D01*
X26542Y-15000D01*
X26514Y-14942D01*
X26514Y-14885D01*
X26542Y-14828D01*
X26571Y-14800D01*
X26628Y-14771D01*
X26771Y-14771D01*
X26857Y-14800D01*
X27114Y-15371D02*
X27114Y-14771D01*
X27342Y-14771D01*
X27400Y-14800D01*
X27428Y-14828D01*
X27457Y-14885D01*
X27457Y-14971D01*
X27428Y-15028D01*
X27400Y-15057D01*
X27342Y-15085D01*
X27114Y-15085D01*
X27714Y-15142D02*
X28171Y-15142D01*
X28428Y-15342D02*
X28514Y-15371D01*
X28657Y-15371D01*
X28714Y-15342D01*
X28742Y-15314D01*
X28771Y-15257D01*
X28771Y-15200D01*
X28742Y-15142D01*
X28714Y-15114D01*
X28657Y-15085D01*
X28542Y-15057D01*
X28485Y-15028D01*
X28457Y-15000D01*
X28428Y-14942D01*
X28428Y-14885D01*
X28457Y-14828D01*
X28485Y-14800D01*
X28542Y-14771D01*
X28685Y-14771D01*
X28771Y-14800D01*
X29028Y-15371D02*
X29028Y-14771D01*
X29171Y-14771D01*
X29257Y-14800D01*
X29314Y-14857D01*
X29342Y-14914D01*
X29371Y-15028D01*
X29371Y-15114D01*
X29342Y-15228D01*
X29314Y-15285D01*
X29257Y-15342D01*
X29171Y-15371D01*
X29028Y-15371D01*
X29600Y-15200D02*
X29885Y-15200D01*
X29542Y-15371D02*
X29742Y-14771D01*
X29942Y-15371D01*
X20671Y-12871D02*
X20671Y-12271D01*
X20900Y-12271D01*
X20957Y-12300D01*
X20985Y-12328D01*
X21014Y-12385D01*
X21014Y-12471D01*
X20985Y-12528D01*
X20957Y-12557D01*
X20900Y-12585D01*
X20671Y-12585D01*
X21585Y-12871D02*
X21242Y-12871D01*
X21414Y-12871D02*
X21414Y-12271D01*
X21357Y-12357D01*
X21300Y-12414D01*
X21242Y-12442D01*
X22157Y-12871D02*
X21814Y-12871D01*
X21985Y-12871D02*
X21985Y-12271D01*
X21928Y-12357D01*
X21871Y-12414D01*
X21814Y-12442D01*
X18057Y-14071D02*
X18057Y-13471D01*
X18200Y-13471D01*
X18285Y-13500D01*
X18342Y-13557D01*
X18371Y-13614D01*
X18400Y-13728D01*
X18400Y-13814D01*
X18371Y-13928D01*
X18342Y-13985D01*
X18285Y-14042D01*
X18200Y-14071D01*
X18057Y-14071D01*
X18628Y-14042D02*
X18714Y-14071D01*
X18857Y-14071D01*
X18914Y-14042D01*
X18942Y-14014D01*
X18971Y-13957D01*
X18971Y-13900D01*
X18942Y-13842D01*
X18914Y-13814D01*
X18857Y-13785D01*
X18742Y-13757D01*
X18685Y-13728D01*
X18657Y-13700D01*
X18628Y-13642D01*
X18628Y-13585D01*
X18657Y-13528D01*
X18685Y-13500D01*
X18742Y-13471D01*
X18885Y-13471D01*
X18971Y-13500D01*
X19228Y-14071D02*
X19228Y-13471D01*
X19457Y-13471D01*
X19514Y-13500D01*
X19542Y-13528D01*
X19571Y-13585D01*
X19571Y-13671D01*
X19542Y-13728D01*
X19514Y-13757D01*
X19457Y-13785D01*
X19228Y-13785D01*
X19828Y-13842D02*
X20285Y-13842D01*
X20542Y-14042D02*
X20628Y-14071D01*
X20771Y-14071D01*
X20828Y-14042D01*
X20857Y-14014D01*
X20885Y-13957D01*
X20885Y-13900D01*
X20857Y-13842D01*
X20828Y-13814D01*
X20771Y-13785D01*
X20657Y-13757D01*
X20600Y-13728D01*
X20571Y-13700D01*
X20542Y-13642D01*
X20542Y-13585D01*
X20571Y-13528D01*
X20600Y-13500D01*
X20657Y-13471D01*
X20800Y-13471D01*
X20885Y-13500D01*
X21485Y-14014D02*
X21457Y-14042D01*
X21371Y-14071D01*
X21314Y-14071D01*
X21228Y-14042D01*
X21171Y-13985D01*
X21142Y-13928D01*
X21114Y-13814D01*
X21114Y-13728D01*
X21142Y-13614D01*
X21171Y-13557D01*
X21228Y-13500D01*
X21314Y-13471D01*
X21371Y-13471D01*
X21457Y-13500D01*
X21485Y-13528D01*
X22028Y-14071D02*
X21742Y-14071D01*
X21742Y-13471D01*
G54D20*
X38871Y-36664D02*
X38842Y-36650D01*
X38814Y-36621D01*
X38771Y-36578D01*
X38742Y-36564D01*
X38714Y-36564D01*
X38728Y-36635D02*
X38700Y-36621D01*
X38671Y-36592D01*
X38657Y-36535D01*
X38657Y-36435D01*
X38671Y-36378D01*
X38700Y-36350D01*
X38728Y-36335D01*
X38785Y-36335D01*
X38814Y-36350D01*
X38842Y-36378D01*
X38857Y-36435D01*
X38857Y-36535D01*
X38842Y-36592D01*
X38814Y-36621D01*
X38785Y-36635D01*
X38728Y-36635D01*
X39142Y-36635D02*
X38971Y-36635D01*
X39057Y-36635D02*
X39057Y-36335D01*
X39028Y-36378D01*
X39000Y-36407D01*
X38971Y-36421D01*
X36628Y-12335D02*
X36628Y-12035D01*
X36728Y-12250D01*
X36828Y-12035D01*
X36828Y-12335D01*
X37028Y-12035D02*
X37085Y-12035D01*
X37114Y-12050D01*
X37142Y-12078D01*
X37157Y-12135D01*
X37157Y-12235D01*
X37142Y-12292D01*
X37114Y-12321D01*
X37085Y-12335D01*
X37028Y-12335D01*
X37000Y-12321D01*
X36971Y-12292D01*
X36957Y-12235D01*
X36957Y-12135D01*
X36971Y-12078D01*
X37000Y-12050D01*
X37028Y-12035D01*
X37271Y-12321D02*
X37314Y-12335D01*
X37385Y-12335D01*
X37414Y-12321D01*
X37428Y-12307D01*
X37442Y-12278D01*
X37442Y-12250D01*
X37428Y-12221D01*
X37414Y-12207D01*
X37385Y-12192D01*
X37328Y-12178D01*
X37300Y-12164D01*
X37285Y-12150D01*
X37271Y-12121D01*
X37271Y-12092D01*
X37285Y-12064D01*
X37300Y-12050D01*
X37328Y-12035D01*
X37400Y-12035D01*
X37442Y-12050D01*
X37500Y-12364D02*
X37728Y-12364D01*
X37800Y-12335D02*
X37800Y-12035D01*
X37971Y-12335D01*
X37971Y-12035D01*
G54D19*
X29543Y-27241D02*
X29423Y-27325D01*
X29543Y-27384D02*
X29293Y-27384D01*
X29293Y-27289D01*
X29304Y-27265D01*
X29316Y-27253D01*
X29340Y-27241D01*
X29376Y-27241D01*
X29400Y-27253D01*
X29412Y-27265D01*
X29423Y-27289D01*
X29423Y-27384D01*
X29293Y-27158D02*
X29293Y-27003D01*
X29388Y-27086D01*
X29388Y-27051D01*
X29400Y-27027D01*
X29412Y-27015D01*
X29435Y-27003D01*
X29495Y-27003D01*
X29519Y-27015D01*
X29531Y-27027D01*
X29543Y-27051D01*
X29543Y-27122D01*
X29531Y-27146D01*
X29519Y-27158D01*
X23658Y-23313D02*
X23575Y-23194D01*
X23515Y-23313D02*
X23515Y-23063D01*
X23610Y-23063D01*
X23634Y-23075D01*
X23646Y-23086D01*
X23658Y-23110D01*
X23658Y-23146D01*
X23646Y-23170D01*
X23634Y-23182D01*
X23610Y-23194D01*
X23515Y-23194D01*
X23884Y-23063D02*
X23765Y-23063D01*
X23753Y-23182D01*
X23765Y-23170D01*
X23789Y-23158D01*
X23848Y-23158D01*
X23872Y-23170D01*
X23884Y-23182D01*
X23896Y-23205D01*
X23896Y-23265D01*
X23884Y-23289D01*
X23872Y-23301D01*
X23848Y-23313D01*
X23789Y-23313D01*
X23765Y-23301D01*
X23753Y-23289D01*
X23658Y-26113D02*
X23575Y-25994D01*
X23515Y-26113D02*
X23515Y-25863D01*
X23610Y-25863D01*
X23634Y-25875D01*
X23646Y-25886D01*
X23658Y-25910D01*
X23658Y-25946D01*
X23646Y-25970D01*
X23634Y-25982D01*
X23610Y-25994D01*
X23515Y-25994D01*
X23872Y-25863D02*
X23825Y-25863D01*
X23801Y-25875D01*
X23789Y-25886D01*
X23765Y-25922D01*
X23753Y-25970D01*
X23753Y-26065D01*
X23765Y-26089D01*
X23777Y-26101D01*
X23801Y-26113D01*
X23848Y-26113D01*
X23872Y-26101D01*
X23884Y-26089D01*
X23896Y-26065D01*
X23896Y-26005D01*
X23884Y-25982D01*
X23872Y-25970D01*
X23848Y-25958D01*
X23801Y-25958D01*
X23777Y-25970D01*
X23765Y-25982D01*
X23753Y-26005D01*
X31558Y-28213D02*
X31475Y-28094D01*
X31415Y-28213D02*
X31415Y-27963D01*
X31510Y-27963D01*
X31534Y-27975D01*
X31546Y-27986D01*
X31558Y-28010D01*
X31558Y-28046D01*
X31546Y-28070D01*
X31534Y-28082D01*
X31510Y-28094D01*
X31415Y-28094D01*
X31641Y-27963D02*
X31808Y-27963D01*
X31701Y-28213D01*
X26613Y-25741D02*
X26494Y-25825D01*
X26613Y-25884D02*
X26363Y-25884D01*
X26363Y-25789D01*
X26375Y-25765D01*
X26386Y-25753D01*
X26410Y-25741D01*
X26446Y-25741D01*
X26470Y-25753D01*
X26482Y-25765D01*
X26494Y-25789D01*
X26494Y-25884D01*
X26470Y-25598D02*
X26458Y-25622D01*
X26446Y-25634D01*
X26422Y-25646D01*
X26410Y-25646D01*
X26386Y-25634D01*
X26375Y-25622D01*
X26363Y-25598D01*
X26363Y-25551D01*
X26375Y-25527D01*
X26386Y-25515D01*
X26410Y-25503D01*
X26422Y-25503D01*
X26446Y-25515D01*
X26458Y-25527D01*
X26470Y-25551D01*
X26470Y-25598D01*
X26482Y-25622D01*
X26494Y-25634D01*
X26517Y-25646D01*
X26565Y-25646D01*
X26589Y-25634D01*
X26601Y-25622D01*
X26613Y-25598D01*
X26613Y-25551D01*
X26601Y-25527D01*
X26589Y-25515D01*
X26565Y-25503D01*
X26517Y-25503D01*
X26494Y-25515D01*
X26482Y-25527D01*
X26470Y-25551D01*
X26563Y-22260D02*
X26444Y-22344D01*
X26563Y-22403D02*
X26313Y-22403D01*
X26313Y-22308D01*
X26325Y-22284D01*
X26336Y-22272D01*
X26360Y-22260D01*
X26396Y-22260D01*
X26420Y-22272D01*
X26432Y-22284D01*
X26444Y-22308D01*
X26444Y-22403D01*
X26563Y-22022D02*
X26563Y-22165D01*
X26563Y-22094D02*
X26313Y-22094D01*
X26348Y-22117D01*
X26372Y-22141D01*
X26384Y-22165D01*
X26563Y-21784D02*
X26563Y-21927D01*
X26563Y-21855D02*
X26313Y-21855D01*
X26348Y-21879D01*
X26372Y-21903D01*
X26384Y-21927D01*
X26613Y-24060D02*
X26494Y-24144D01*
X26613Y-24203D02*
X26363Y-24203D01*
X26363Y-24108D01*
X26375Y-24084D01*
X26386Y-24072D01*
X26410Y-24060D01*
X26446Y-24060D01*
X26470Y-24072D01*
X26482Y-24084D01*
X26494Y-24108D01*
X26494Y-24203D01*
X26613Y-23822D02*
X26613Y-23965D01*
X26613Y-23894D02*
X26363Y-23894D01*
X26398Y-23917D01*
X26422Y-23941D01*
X26434Y-23965D01*
X26386Y-23727D02*
X26375Y-23715D01*
X26363Y-23691D01*
X26363Y-23632D01*
X26375Y-23608D01*
X26386Y-23596D01*
X26410Y-23584D01*
X26434Y-23584D01*
X26470Y-23596D01*
X26613Y-23739D01*
X26613Y-23584D01*
X32639Y-24513D02*
X32555Y-24394D01*
X32496Y-24513D02*
X32496Y-24263D01*
X32591Y-24263D01*
X32615Y-24275D01*
X32627Y-24286D01*
X32639Y-24310D01*
X32639Y-24346D01*
X32627Y-24370D01*
X32615Y-24382D01*
X32591Y-24394D01*
X32496Y-24394D01*
X32877Y-24513D02*
X32734Y-24513D01*
X32805Y-24513D02*
X32805Y-24263D01*
X32782Y-24298D01*
X32758Y-24322D01*
X32734Y-24334D01*
X32960Y-24263D02*
X33115Y-24263D01*
X33032Y-24358D01*
X33067Y-24358D01*
X33091Y-24370D01*
X33103Y-24382D01*
X33115Y-24405D01*
X33115Y-24465D01*
X33103Y-24489D01*
X33091Y-24501D01*
X33067Y-24513D01*
X32996Y-24513D01*
X32972Y-24501D01*
X32960Y-24489D01*
X25739Y-29513D02*
X25655Y-29394D01*
X25596Y-29513D02*
X25596Y-29263D01*
X25691Y-29263D01*
X25715Y-29275D01*
X25727Y-29286D01*
X25739Y-29310D01*
X25739Y-29346D01*
X25727Y-29370D01*
X25715Y-29382D01*
X25691Y-29394D01*
X25596Y-29394D01*
X25977Y-29513D02*
X25834Y-29513D01*
X25905Y-29513D02*
X25905Y-29263D01*
X25882Y-29298D01*
X25858Y-29322D01*
X25834Y-29334D01*
X26191Y-29346D02*
X26191Y-29513D01*
X26132Y-29251D02*
X26072Y-29429D01*
X26227Y-29429D01*
X26539Y-29513D02*
X26455Y-29394D01*
X26396Y-29513D02*
X26396Y-29263D01*
X26491Y-29263D01*
X26515Y-29275D01*
X26527Y-29286D01*
X26539Y-29310D01*
X26539Y-29346D01*
X26527Y-29370D01*
X26515Y-29382D01*
X26491Y-29394D01*
X26396Y-29394D01*
X26777Y-29513D02*
X26634Y-29513D01*
X26705Y-29513D02*
X26705Y-29263D01*
X26682Y-29298D01*
X26658Y-29322D01*
X26634Y-29334D01*
X27003Y-29263D02*
X26884Y-29263D01*
X26872Y-29382D01*
X26884Y-29370D01*
X26908Y-29358D01*
X26967Y-29358D01*
X26991Y-29370D01*
X27003Y-29382D01*
X27015Y-29405D01*
X27015Y-29465D01*
X27003Y-29489D01*
X26991Y-29501D01*
X26967Y-29513D01*
X26908Y-29513D01*
X26884Y-29501D01*
X26872Y-29489D01*
X39039Y-34413D02*
X38955Y-34294D01*
X38896Y-34413D02*
X38896Y-34163D01*
X38991Y-34163D01*
X39015Y-34175D01*
X39027Y-34186D01*
X39039Y-34210D01*
X39039Y-34246D01*
X39027Y-34270D01*
X39015Y-34282D01*
X38991Y-34294D01*
X38896Y-34294D01*
X39277Y-34413D02*
X39134Y-34413D01*
X39205Y-34413D02*
X39205Y-34163D01*
X39182Y-34198D01*
X39158Y-34222D01*
X39134Y-34234D01*
X39360Y-34163D02*
X39527Y-34163D01*
X39420Y-34413D01*
X39039Y-32813D02*
X38955Y-32694D01*
X38896Y-32813D02*
X38896Y-32563D01*
X38991Y-32563D01*
X39015Y-32575D01*
X39027Y-32586D01*
X39039Y-32610D01*
X39039Y-32646D01*
X39027Y-32670D01*
X39015Y-32682D01*
X38991Y-32694D01*
X38896Y-32694D01*
X39277Y-32813D02*
X39134Y-32813D01*
X39205Y-32813D02*
X39205Y-32563D01*
X39182Y-32598D01*
X39158Y-32622D01*
X39134Y-32634D01*
X39420Y-32670D02*
X39396Y-32658D01*
X39384Y-32646D01*
X39372Y-32622D01*
X39372Y-32610D01*
X39384Y-32586D01*
X39396Y-32575D01*
X39420Y-32563D01*
X39467Y-32563D01*
X39491Y-32575D01*
X39503Y-32586D01*
X39515Y-32610D01*
X39515Y-32622D01*
X39503Y-32646D01*
X39491Y-32658D01*
X39467Y-32670D01*
X39420Y-32670D01*
X39396Y-32682D01*
X39384Y-32694D01*
X39372Y-32717D01*
X39372Y-32765D01*
X39384Y-32789D01*
X39396Y-32801D01*
X39420Y-32813D01*
X39467Y-32813D01*
X39491Y-32801D01*
X39503Y-32789D01*
X39515Y-32765D01*
X39515Y-32717D01*
X39503Y-32694D01*
X39491Y-32682D01*
X39467Y-32670D01*
X39039Y-33613D02*
X38955Y-33494D01*
X38896Y-33613D02*
X38896Y-33363D01*
X38991Y-33363D01*
X39015Y-33375D01*
X39027Y-33386D01*
X39039Y-33410D01*
X39039Y-33446D01*
X39027Y-33470D01*
X39015Y-33482D01*
X38991Y-33494D01*
X38896Y-33494D01*
X39277Y-33613D02*
X39134Y-33613D01*
X39205Y-33613D02*
X39205Y-33363D01*
X39182Y-33398D01*
X39158Y-33422D01*
X39134Y-33434D01*
X39396Y-33613D02*
X39444Y-33613D01*
X39467Y-33601D01*
X39479Y-33589D01*
X39503Y-33553D01*
X39515Y-33505D01*
X39515Y-33410D01*
X39503Y-33386D01*
X39491Y-33375D01*
X39467Y-33363D01*
X39420Y-33363D01*
X39396Y-33375D01*
X39384Y-33386D01*
X39372Y-33410D01*
X39372Y-33470D01*
X39384Y-33494D01*
X39396Y-33505D01*
X39420Y-33517D01*
X39467Y-33517D01*
X39491Y-33505D01*
X39503Y-33494D01*
X39515Y-33470D01*
X39039Y-35213D02*
X38955Y-35094D01*
X38896Y-35213D02*
X38896Y-34963D01*
X38991Y-34963D01*
X39015Y-34975D01*
X39027Y-34986D01*
X39039Y-35010D01*
X39039Y-35046D01*
X39027Y-35070D01*
X39015Y-35082D01*
X38991Y-35094D01*
X38896Y-35094D01*
X39134Y-34986D02*
X39146Y-34975D01*
X39170Y-34963D01*
X39229Y-34963D01*
X39253Y-34975D01*
X39265Y-34986D01*
X39277Y-35010D01*
X39277Y-35034D01*
X39265Y-35070D01*
X39122Y-35213D01*
X39277Y-35213D01*
X39515Y-35213D02*
X39372Y-35213D01*
X39444Y-35213D02*
X39444Y-34963D01*
X39420Y-34998D01*
X39396Y-35022D01*
X39372Y-35034D01*
X27513Y-33860D02*
X27394Y-33944D01*
X27513Y-34003D02*
X27263Y-34003D01*
X27263Y-33908D01*
X27275Y-33884D01*
X27286Y-33872D01*
X27310Y-33860D01*
X27346Y-33860D01*
X27370Y-33872D01*
X27382Y-33884D01*
X27394Y-33908D01*
X27394Y-34003D01*
X27286Y-33765D02*
X27275Y-33753D01*
X27263Y-33729D01*
X27263Y-33670D01*
X27275Y-33646D01*
X27286Y-33634D01*
X27310Y-33622D01*
X27334Y-33622D01*
X27370Y-33634D01*
X27513Y-33777D01*
X27513Y-33622D01*
X27286Y-33527D02*
X27275Y-33515D01*
X27263Y-33491D01*
X27263Y-33432D01*
X27275Y-33408D01*
X27286Y-33396D01*
X27310Y-33384D01*
X27334Y-33384D01*
X27370Y-33396D01*
X27513Y-33539D01*
X27513Y-33384D01*
X21839Y-29613D02*
X21755Y-29494D01*
X21696Y-29613D02*
X21696Y-29363D01*
X21791Y-29363D01*
X21815Y-29375D01*
X21827Y-29386D01*
X21839Y-29410D01*
X21839Y-29446D01*
X21827Y-29470D01*
X21815Y-29482D01*
X21791Y-29494D01*
X21696Y-29494D01*
X21934Y-29386D02*
X21946Y-29375D01*
X21970Y-29363D01*
X22029Y-29363D01*
X22053Y-29375D01*
X22065Y-29386D01*
X22077Y-29410D01*
X22077Y-29434D01*
X22065Y-29470D01*
X21922Y-29613D01*
X22077Y-29613D01*
X22160Y-29363D02*
X22315Y-29363D01*
X22232Y-29458D01*
X22267Y-29458D01*
X22291Y-29470D01*
X22303Y-29482D01*
X22315Y-29505D01*
X22315Y-29565D01*
X22303Y-29589D01*
X22291Y-29601D01*
X22267Y-29613D01*
X22196Y-29613D01*
X22172Y-29601D01*
X22160Y-29589D01*
X21839Y-30413D02*
X21755Y-30294D01*
X21696Y-30413D02*
X21696Y-30163D01*
X21791Y-30163D01*
X21815Y-30175D01*
X21827Y-30186D01*
X21839Y-30210D01*
X21839Y-30246D01*
X21827Y-30270D01*
X21815Y-30282D01*
X21791Y-30294D01*
X21696Y-30294D01*
X21934Y-30186D02*
X21946Y-30175D01*
X21970Y-30163D01*
X22029Y-30163D01*
X22053Y-30175D01*
X22065Y-30186D01*
X22077Y-30210D01*
X22077Y-30234D01*
X22065Y-30270D01*
X21922Y-30413D01*
X22077Y-30413D01*
X22291Y-30246D02*
X22291Y-30413D01*
X22232Y-30151D02*
X22172Y-30329D01*
X22327Y-30329D01*
X21839Y-31213D02*
X21755Y-31094D01*
X21696Y-31213D02*
X21696Y-30963D01*
X21791Y-30963D01*
X21815Y-30975D01*
X21827Y-30986D01*
X21839Y-31010D01*
X21839Y-31046D01*
X21827Y-31070D01*
X21815Y-31082D01*
X21791Y-31094D01*
X21696Y-31094D01*
X21934Y-30986D02*
X21946Y-30975D01*
X21970Y-30963D01*
X22029Y-30963D01*
X22053Y-30975D01*
X22065Y-30986D01*
X22077Y-31010D01*
X22077Y-31034D01*
X22065Y-31070D01*
X21922Y-31213D01*
X22077Y-31213D01*
X22303Y-30963D02*
X22184Y-30963D01*
X22172Y-31082D01*
X22184Y-31070D01*
X22208Y-31058D01*
X22267Y-31058D01*
X22291Y-31070D01*
X22303Y-31082D01*
X22315Y-31105D01*
X22315Y-31165D01*
X22303Y-31189D01*
X22291Y-31201D01*
X22267Y-31213D01*
X22208Y-31213D01*
X22184Y-31201D01*
X22172Y-31189D01*
X21839Y-32013D02*
X21755Y-31894D01*
X21696Y-32013D02*
X21696Y-31763D01*
X21791Y-31763D01*
X21815Y-31775D01*
X21827Y-31786D01*
X21839Y-31810D01*
X21839Y-31846D01*
X21827Y-31870D01*
X21815Y-31882D01*
X21791Y-31894D01*
X21696Y-31894D01*
X21934Y-31786D02*
X21946Y-31775D01*
X21970Y-31763D01*
X22029Y-31763D01*
X22053Y-31775D01*
X22065Y-31786D01*
X22077Y-31810D01*
X22077Y-31834D01*
X22065Y-31870D01*
X21922Y-32013D01*
X22077Y-32013D01*
X22291Y-31763D02*
X22244Y-31763D01*
X22220Y-31775D01*
X22208Y-31786D01*
X22184Y-31822D01*
X22172Y-31870D01*
X22172Y-31965D01*
X22184Y-31989D01*
X22196Y-32001D01*
X22220Y-32013D01*
X22267Y-32013D01*
X22291Y-32001D01*
X22303Y-31989D01*
X22315Y-31965D01*
X22315Y-31905D01*
X22303Y-31882D01*
X22291Y-31870D01*
X22267Y-31858D01*
X22220Y-31858D01*
X22196Y-31870D01*
X22184Y-31882D01*
X22172Y-31905D01*
X21839Y-32813D02*
X21755Y-32694D01*
X21696Y-32813D02*
X21696Y-32563D01*
X21791Y-32563D01*
X21815Y-32575D01*
X21827Y-32586D01*
X21839Y-32610D01*
X21839Y-32646D01*
X21827Y-32670D01*
X21815Y-32682D01*
X21791Y-32694D01*
X21696Y-32694D01*
X21934Y-32586D02*
X21946Y-32575D01*
X21970Y-32563D01*
X22029Y-32563D01*
X22053Y-32575D01*
X22065Y-32586D01*
X22077Y-32610D01*
X22077Y-32634D01*
X22065Y-32670D01*
X21922Y-32813D01*
X22077Y-32813D01*
X22160Y-32563D02*
X22327Y-32563D01*
X22220Y-32813D01*
X21839Y-33613D02*
X21755Y-33494D01*
X21696Y-33613D02*
X21696Y-33363D01*
X21791Y-33363D01*
X21815Y-33375D01*
X21827Y-33386D01*
X21839Y-33410D01*
X21839Y-33446D01*
X21827Y-33470D01*
X21815Y-33482D01*
X21791Y-33494D01*
X21696Y-33494D01*
X21934Y-33386D02*
X21946Y-33375D01*
X21970Y-33363D01*
X22029Y-33363D01*
X22053Y-33375D01*
X22065Y-33386D01*
X22077Y-33410D01*
X22077Y-33434D01*
X22065Y-33470D01*
X21922Y-33613D01*
X22077Y-33613D01*
X22220Y-33470D02*
X22196Y-33458D01*
X22184Y-33446D01*
X22172Y-33422D01*
X22172Y-33410D01*
X22184Y-33386D01*
X22196Y-33375D01*
X22220Y-33363D01*
X22267Y-33363D01*
X22291Y-33375D01*
X22303Y-33386D01*
X22315Y-33410D01*
X22315Y-33422D01*
X22303Y-33446D01*
X22291Y-33458D01*
X22267Y-33470D01*
X22220Y-33470D01*
X22196Y-33482D01*
X22184Y-33494D01*
X22172Y-33517D01*
X22172Y-33565D01*
X22184Y-33589D01*
X22196Y-33601D01*
X22220Y-33613D01*
X22267Y-33613D01*
X22291Y-33601D01*
X22303Y-33589D01*
X22315Y-33565D01*
X22315Y-33517D01*
X22303Y-33494D01*
X22291Y-33482D01*
X22267Y-33470D01*
X30439Y-37213D02*
X30355Y-37094D01*
X30296Y-37213D02*
X30296Y-36963D01*
X30391Y-36963D01*
X30415Y-36975D01*
X30427Y-36986D01*
X30439Y-37010D01*
X30439Y-37046D01*
X30427Y-37070D01*
X30415Y-37082D01*
X30391Y-37094D01*
X30296Y-37094D01*
X30534Y-36986D02*
X30546Y-36975D01*
X30570Y-36963D01*
X30629Y-36963D01*
X30653Y-36975D01*
X30665Y-36986D01*
X30677Y-37010D01*
X30677Y-37034D01*
X30665Y-37070D01*
X30522Y-37213D01*
X30677Y-37213D01*
X30796Y-37213D02*
X30844Y-37213D01*
X30867Y-37201D01*
X30879Y-37189D01*
X30903Y-37153D01*
X30915Y-37105D01*
X30915Y-37010D01*
X30903Y-36986D01*
X30891Y-36975D01*
X30867Y-36963D01*
X30820Y-36963D01*
X30796Y-36975D01*
X30784Y-36986D01*
X30772Y-37010D01*
X30772Y-37070D01*
X30784Y-37094D01*
X30796Y-37105D01*
X30820Y-37117D01*
X30867Y-37117D01*
X30891Y-37105D01*
X30903Y-37094D01*
X30915Y-37070D01*
X31239Y-37213D02*
X31155Y-37094D01*
X31096Y-37213D02*
X31096Y-36963D01*
X31191Y-36963D01*
X31215Y-36975D01*
X31227Y-36986D01*
X31239Y-37010D01*
X31239Y-37046D01*
X31227Y-37070D01*
X31215Y-37082D01*
X31191Y-37094D01*
X31096Y-37094D01*
X31322Y-36963D02*
X31477Y-36963D01*
X31394Y-37058D01*
X31429Y-37058D01*
X31453Y-37070D01*
X31465Y-37082D01*
X31477Y-37105D01*
X31477Y-37165D01*
X31465Y-37189D01*
X31453Y-37201D01*
X31429Y-37213D01*
X31358Y-37213D01*
X31334Y-37201D01*
X31322Y-37189D01*
X31632Y-36963D02*
X31655Y-36963D01*
X31679Y-36975D01*
X31691Y-36986D01*
X31703Y-37010D01*
X31715Y-37058D01*
X31715Y-37117D01*
X31703Y-37165D01*
X31691Y-37189D01*
X31679Y-37201D01*
X31655Y-37213D01*
X31632Y-37213D01*
X31608Y-37201D01*
X31596Y-37189D01*
X31584Y-37165D01*
X31572Y-37117D01*
X31572Y-37058D01*
X31584Y-37010D01*
X31596Y-36986D01*
X31608Y-36975D01*
X31632Y-36963D01*
X32039Y-37213D02*
X31955Y-37094D01*
X31896Y-37213D02*
X31896Y-36963D01*
X31991Y-36963D01*
X32015Y-36975D01*
X32027Y-36986D01*
X32039Y-37010D01*
X32039Y-37046D01*
X32027Y-37070D01*
X32015Y-37082D01*
X31991Y-37094D01*
X31896Y-37094D01*
X32122Y-36963D02*
X32277Y-36963D01*
X32194Y-37058D01*
X32229Y-37058D01*
X32253Y-37070D01*
X32265Y-37082D01*
X32277Y-37105D01*
X32277Y-37165D01*
X32265Y-37189D01*
X32253Y-37201D01*
X32229Y-37213D01*
X32158Y-37213D01*
X32134Y-37201D01*
X32122Y-37189D01*
X32515Y-37213D02*
X32372Y-37213D01*
X32444Y-37213D02*
X32444Y-36963D01*
X32420Y-36998D01*
X32396Y-37022D01*
X32372Y-37034D01*
X27513Y-33060D02*
X27394Y-33144D01*
X27513Y-33203D02*
X27263Y-33203D01*
X27263Y-33108D01*
X27275Y-33084D01*
X27286Y-33072D01*
X27310Y-33060D01*
X27346Y-33060D01*
X27370Y-33072D01*
X27382Y-33084D01*
X27394Y-33108D01*
X27394Y-33203D01*
X27263Y-32977D02*
X27263Y-32822D01*
X27358Y-32905D01*
X27358Y-32870D01*
X27370Y-32846D01*
X27382Y-32834D01*
X27405Y-32822D01*
X27465Y-32822D01*
X27489Y-32834D01*
X27501Y-32846D01*
X27513Y-32870D01*
X27513Y-32941D01*
X27501Y-32965D01*
X27489Y-32977D01*
X27286Y-32727D02*
X27275Y-32715D01*
X27263Y-32691D01*
X27263Y-32632D01*
X27275Y-32608D01*
X27286Y-32596D01*
X27310Y-32584D01*
X27334Y-32584D01*
X27370Y-32596D01*
X27513Y-32739D01*
X27513Y-32584D01*
G54D15*
X28801Y-23605D02*
X28801Y-23848D01*
X28815Y-23877D01*
X28830Y-23891D01*
X28858Y-23905D01*
X28915Y-23905D01*
X28944Y-23891D01*
X28958Y-23877D01*
X28972Y-23848D01*
X28972Y-23605D01*
X29101Y-23634D02*
X29115Y-23620D01*
X29144Y-23605D01*
X29215Y-23605D01*
X29244Y-23620D01*
X29258Y-23634D01*
X29272Y-23662D01*
X29272Y-23691D01*
X29258Y-23734D01*
X29087Y-23905D01*
X29272Y-23905D01*
X30664Y-13385D02*
X30835Y-13385D01*
X30750Y-13685D02*
X30750Y-13385D01*
X31078Y-13685D02*
X30935Y-13685D01*
X30935Y-13385D01*
X31135Y-13385D02*
X31235Y-13685D01*
X31335Y-13385D01*
X31407Y-13385D02*
X31592Y-13385D01*
X31492Y-13500D01*
X31535Y-13500D01*
X31564Y-13514D01*
X31578Y-13528D01*
X31592Y-13557D01*
X31592Y-13628D01*
X31578Y-13657D01*
X31564Y-13671D01*
X31535Y-13685D01*
X31450Y-13685D01*
X31421Y-13671D01*
X31407Y-13657D01*
X31707Y-13414D02*
X31721Y-13400D01*
X31750Y-13385D01*
X31821Y-13385D01*
X31850Y-13400D01*
X31864Y-13414D01*
X31878Y-13442D01*
X31878Y-13471D01*
X31864Y-13514D01*
X31692Y-13685D01*
X31878Y-13685D01*
X32064Y-13385D02*
X32092Y-13385D01*
X32121Y-13400D01*
X32135Y-13414D01*
X32150Y-13442D01*
X32164Y-13500D01*
X32164Y-13571D01*
X32150Y-13628D01*
X32135Y-13657D01*
X32121Y-13671D01*
X32092Y-13685D01*
X32064Y-13685D01*
X32035Y-13671D01*
X32021Y-13657D01*
X32007Y-13628D01*
X31992Y-13571D01*
X31992Y-13500D01*
X32007Y-13442D01*
X32021Y-13414D01*
X32035Y-13400D01*
X32064Y-13385D01*
X32278Y-13600D02*
X32421Y-13600D01*
X32250Y-13685D02*
X32350Y-13385D01*
X32450Y-13685D01*
X32550Y-13685D02*
X32550Y-13385D01*
X32864Y-13657D02*
X32850Y-13671D01*
X32807Y-13685D01*
X32778Y-13685D01*
X32735Y-13671D01*
X32707Y-13642D01*
X32692Y-13614D01*
X32678Y-13557D01*
X32678Y-13514D01*
X32692Y-13457D01*
X32707Y-13428D01*
X32735Y-13400D01*
X32778Y-13385D01*
X32807Y-13385D01*
X32850Y-13400D01*
X32864Y-13414D01*
X32964Y-13385D02*
X33150Y-13385D01*
X33050Y-13500D01*
X33092Y-13500D01*
X33121Y-13514D01*
X33135Y-13528D01*
X33150Y-13557D01*
X33150Y-13628D01*
X33135Y-13657D01*
X33121Y-13671D01*
X33092Y-13685D01*
X33007Y-13685D01*
X32978Y-13671D01*
X32964Y-13657D01*
X33264Y-13414D02*
X33278Y-13400D01*
X33307Y-13385D01*
X33378Y-13385D01*
X33407Y-13400D01*
X33421Y-13414D01*
X33435Y-13442D01*
X33435Y-13471D01*
X33421Y-13514D01*
X33250Y-13685D01*
X33435Y-13685D01*
X33621Y-13385D02*
X33650Y-13385D01*
X33678Y-13400D01*
X33692Y-13414D01*
X33707Y-13442D01*
X33721Y-13500D01*
X33721Y-13571D01*
X33707Y-13628D01*
X33692Y-13657D01*
X33678Y-13671D01*
X33650Y-13685D01*
X33621Y-13685D01*
X33592Y-13671D01*
X33578Y-13657D01*
X33564Y-13628D01*
X33550Y-13571D01*
X33550Y-13500D01*
X33564Y-13442D01*
X33578Y-13414D01*
X33592Y-13400D01*
X33621Y-13385D01*
X33978Y-13485D02*
X33978Y-13685D01*
X33907Y-13371D02*
X33835Y-13585D01*
X34021Y-13585D01*
G54D13*
X27642Y-31071D02*
X27642Y-31557D01*
X27671Y-31614D01*
X27700Y-31642D01*
X27757Y-31671D01*
X27871Y-31671D01*
X27928Y-31642D01*
X27957Y-31614D01*
X27985Y-31557D01*
X27985Y-31071D01*
X28528Y-31271D02*
X28528Y-31671D01*
X28385Y-31042D02*
X28242Y-31471D01*
X28614Y-31471D01*
X26171Y-11571D02*
X26171Y-10971D01*
X26314Y-10971D01*
X26399Y-11000D01*
X26457Y-11057D01*
X26485Y-11114D01*
X26514Y-11228D01*
X26514Y-11314D01*
X26485Y-11428D01*
X26457Y-11485D01*
X26399Y-11542D01*
X26314Y-11571D01*
X26171Y-11571D01*
X26742Y-11542D02*
X26828Y-11571D01*
X26971Y-11571D01*
X27028Y-11542D01*
X27057Y-11514D01*
X27085Y-11457D01*
X27085Y-11400D01*
X27057Y-11342D01*
X27028Y-11314D01*
X26971Y-11285D01*
X26857Y-11257D01*
X26799Y-11228D01*
X26771Y-11200D01*
X26742Y-11142D01*
X26742Y-11085D01*
X26771Y-11028D01*
X26799Y-11000D01*
X26857Y-10971D01*
X26999Y-10971D01*
X27085Y-11000D01*
X27285Y-10971D02*
X27685Y-11571D01*
X27685Y-10971D02*
X27285Y-11571D01*
X27857Y-10971D02*
X28228Y-10971D01*
X28028Y-11200D01*
X28114Y-11200D01*
X28171Y-11228D01*
X28199Y-11257D01*
X28228Y-11314D01*
X28228Y-11457D01*
X28199Y-11514D01*
X28171Y-11542D01*
X28114Y-11571D01*
X27942Y-11571D01*
X27885Y-11542D01*
X27857Y-11514D01*
X28457Y-11028D02*
X28485Y-11000D01*
X28542Y-10971D01*
X28685Y-10971D01*
X28742Y-11000D01*
X28771Y-11028D01*
X28800Y-11085D01*
X28800Y-11142D01*
X28771Y-11228D01*
X28428Y-11571D01*
X28800Y-11571D01*
X29371Y-11571D02*
X29028Y-11571D01*
X29200Y-11571D02*
X29200Y-10971D01*
X29142Y-11057D01*
X29085Y-11114D01*
X29028Y-11142D01*
X29942Y-11000D02*
X29885Y-10971D01*
X29800Y-10971D01*
X29714Y-11000D01*
X29657Y-11057D01*
X29628Y-11114D01*
X29600Y-11228D01*
X29600Y-11314D01*
X29628Y-11428D01*
X29657Y-11485D01*
X29714Y-11542D01*
X29800Y-11571D01*
X29857Y-11571D01*
X29942Y-11542D01*
X29971Y-11514D01*
X29971Y-11314D01*
X29857Y-11314D01*
X30085Y-11628D02*
X30542Y-11628D01*
X31000Y-11571D02*
X30657Y-11571D01*
X30828Y-11571D02*
X30828Y-10971D01*
X30771Y-11057D01*
X30714Y-11114D01*
X30657Y-11142D01*
X31228Y-11028D02*
X31257Y-11000D01*
X31314Y-10971D01*
X31457Y-10971D01*
X31514Y-11000D01*
X31542Y-11028D01*
X31571Y-11085D01*
X31571Y-11142D01*
X31542Y-11228D01*
X31200Y-11571D01*
X31571Y-11571D01*
X31828Y-11571D02*
X31828Y-10971D01*
X32028Y-11400D01*
X32228Y-10971D01*
X32228Y-11571D01*
X32514Y-11571D02*
X32514Y-10971D01*
X32514Y-11257D02*
X32857Y-11257D01*
X32857Y-11571D02*
X32857Y-10971D01*
X33085Y-10971D02*
X33485Y-10971D01*
X33085Y-11571D01*
X33485Y-11571D01*
X25314Y-35671D02*
X25714Y-36271D01*
X25714Y-35671D02*
X25314Y-36271D01*
X26257Y-36271D02*
X25914Y-36271D01*
X26085Y-36271D02*
X26085Y-35671D01*
X26028Y-35757D01*
X25971Y-35814D01*
X25914Y-35842D01*
X22357Y-13421D02*
X22728Y-13421D01*
X22528Y-13650D01*
X22614Y-13650D01*
X22671Y-13678D01*
X22699Y-13707D01*
X22728Y-13764D01*
X22728Y-13907D01*
X22699Y-13964D01*
X22671Y-13992D01*
X22614Y-14021D01*
X22442Y-14021D01*
X22385Y-13992D01*
X22357Y-13964D01*
X22957Y-13478D02*
X22985Y-13450D01*
X23042Y-13421D01*
X23185Y-13421D01*
X23242Y-13450D01*
X23271Y-13478D01*
X23300Y-13535D01*
X23300Y-13592D01*
X23271Y-13678D01*
X22928Y-14021D01*
X23300Y-14021D01*
X23557Y-13964D02*
X23585Y-13992D01*
X23557Y-14021D01*
X23528Y-13992D01*
X23557Y-13964D01*
X23557Y-14021D01*
X23785Y-13421D02*
X24185Y-13421D01*
X23928Y-14021D01*
X24671Y-13421D02*
X24557Y-13421D01*
X24500Y-13450D01*
X24471Y-13478D01*
X24414Y-13564D01*
X24385Y-13678D01*
X24385Y-13907D01*
X24414Y-13964D01*
X24442Y-13992D01*
X24500Y-14021D01*
X24614Y-14021D01*
X24671Y-13992D01*
X24700Y-13964D01*
X24728Y-13907D01*
X24728Y-13764D01*
X24700Y-13707D01*
X24671Y-13678D01*
X24614Y-13650D01*
X24500Y-13650D01*
X24442Y-13678D01*
X24414Y-13707D01*
X24385Y-13764D01*
X25071Y-13678D02*
X25014Y-13650D01*
X24985Y-13621D01*
X24957Y-13564D01*
X24957Y-13535D01*
X24985Y-13478D01*
X25014Y-13450D01*
X25071Y-13421D01*
X25185Y-13421D01*
X25242Y-13450D01*
X25271Y-13478D01*
X25300Y-13535D01*
X25300Y-13564D01*
X25271Y-13621D01*
X25242Y-13650D01*
X25185Y-13678D01*
X25071Y-13678D01*
X25014Y-13707D01*
X24985Y-13735D01*
X24957Y-13792D01*
X24957Y-13907D01*
X24985Y-13964D01*
X25014Y-13992D01*
X25071Y-14021D01*
X25185Y-14021D01*
X25242Y-13992D01*
X25271Y-13964D01*
X25300Y-13907D01*
X25300Y-13792D01*
X25271Y-13735D01*
X25242Y-13707D01*
X25185Y-13678D01*
X25557Y-14021D02*
X25557Y-13421D01*
X25900Y-14021D02*
X25642Y-13678D01*
X25900Y-13421D02*
X25557Y-13764D01*
X26157Y-14021D02*
X26157Y-13421D01*
X26157Y-13707D02*
X26500Y-13707D01*
X26500Y-14021D02*
X26500Y-13421D01*
X26728Y-13621D02*
X27042Y-13621D01*
X26728Y-14021D01*
X27042Y-14021D01*
G54D21*
X59508Y-9296D02*
X59508Y-9696D01*
X59251Y-9296D02*
X59251Y-9610D01*
X59279Y-9667D01*
X59337Y-9696D01*
X59422Y-9696D01*
X59479Y-9667D01*
X59508Y-9639D01*
X60137Y-9639D02*
X60108Y-9667D01*
X60022Y-9696D01*
X59965Y-9696D01*
X59879Y-9667D01*
X59822Y-9610D01*
X59794Y-9553D01*
X59765Y-9439D01*
X59765Y-9353D01*
X59794Y-9239D01*
X59822Y-9182D01*
X59879Y-9125D01*
X59965Y-9096D01*
X60022Y-9096D01*
X60108Y-9125D01*
X60137Y-9153D01*
G54D22*
X50772Y-10920D02*
X50772Y-10620D01*
X50843Y-10620D01*
X50886Y-10635D01*
X50914Y-10663D01*
X50929Y-10692D01*
X50943Y-10749D01*
X50943Y-10792D01*
X50929Y-10849D01*
X50914Y-10877D01*
X50886Y-10906D01*
X50843Y-10920D01*
X50772Y-10920D01*
X51186Y-10906D02*
X51157Y-10920D01*
X51100Y-10920D01*
X51072Y-10906D01*
X51057Y-10877D01*
X51057Y-10763D01*
X51072Y-10735D01*
X51100Y-10720D01*
X51157Y-10720D01*
X51186Y-10735D01*
X51200Y-10763D01*
X51200Y-10792D01*
X51057Y-10820D01*
X51314Y-10906D02*
X51343Y-10920D01*
X51400Y-10920D01*
X51429Y-10906D01*
X51443Y-10877D01*
X51443Y-10863D01*
X51429Y-10835D01*
X51400Y-10820D01*
X51357Y-10820D01*
X51329Y-10806D01*
X51314Y-10777D01*
X51314Y-10763D01*
X51329Y-10735D01*
X51357Y-10720D01*
X51400Y-10720D01*
X51429Y-10735D01*
X51572Y-10920D02*
X51572Y-10720D01*
X51572Y-10620D02*
X51557Y-10635D01*
X51572Y-10649D01*
X51586Y-10635D01*
X51572Y-10620D01*
X51572Y-10649D01*
X51843Y-10720D02*
X51843Y-10963D01*
X51829Y-10992D01*
X51814Y-11006D01*
X51786Y-11020D01*
X51743Y-11020D01*
X51714Y-11006D01*
X51843Y-10906D02*
X51814Y-10920D01*
X51757Y-10920D01*
X51729Y-10906D01*
X51714Y-10892D01*
X51700Y-10863D01*
X51700Y-10777D01*
X51714Y-10749D01*
X51729Y-10735D01*
X51757Y-10720D01*
X51814Y-10720D01*
X51843Y-10735D01*
X51986Y-10720D02*
X51986Y-10920D01*
X51986Y-10749D02*
X52000Y-10735D01*
X52029Y-10720D01*
X52072Y-10720D01*
X52100Y-10735D01*
X52114Y-10763D01*
X52114Y-10920D01*
X52372Y-10906D02*
X52343Y-10920D01*
X52286Y-10920D01*
X52257Y-10906D01*
X52243Y-10877D01*
X52243Y-10763D01*
X52257Y-10735D01*
X52286Y-10720D01*
X52343Y-10720D01*
X52372Y-10735D01*
X52386Y-10763D01*
X52386Y-10792D01*
X52243Y-10820D01*
X52643Y-10920D02*
X52643Y-10620D01*
X52643Y-10906D02*
X52614Y-10920D01*
X52557Y-10920D01*
X52529Y-10906D01*
X52514Y-10892D01*
X52500Y-10863D01*
X52500Y-10777D01*
X52514Y-10749D01*
X52529Y-10735D01*
X52557Y-10720D01*
X52614Y-10720D01*
X52643Y-10735D01*
X53257Y-10920D02*
X53243Y-10920D01*
X53214Y-10906D01*
X53172Y-10863D01*
X53100Y-10777D01*
X53072Y-10735D01*
X53057Y-10692D01*
X53057Y-10663D01*
X53072Y-10635D01*
X53100Y-10620D01*
X53114Y-10620D01*
X53143Y-10635D01*
X53157Y-10663D01*
X53157Y-10677D01*
X53143Y-10706D01*
X53129Y-10720D01*
X53043Y-10777D01*
X53029Y-10792D01*
X53014Y-10820D01*
X53014Y-10863D01*
X53029Y-10892D01*
X53043Y-10906D01*
X53072Y-10920D01*
X53114Y-10920D01*
X53143Y-10906D01*
X53157Y-10892D01*
X53200Y-10835D01*
X53214Y-10792D01*
X53214Y-10763D01*
X53614Y-10920D02*
X53614Y-10620D01*
X53714Y-10835D01*
X53814Y-10620D01*
X53814Y-10920D01*
X54086Y-10920D02*
X54086Y-10763D01*
X54072Y-10735D01*
X54043Y-10720D01*
X53986Y-10720D01*
X53957Y-10735D01*
X54086Y-10906D02*
X54057Y-10920D01*
X53986Y-10920D01*
X53957Y-10906D01*
X53943Y-10877D01*
X53943Y-10849D01*
X53957Y-10820D01*
X53986Y-10806D01*
X54057Y-10806D01*
X54086Y-10792D01*
X54357Y-10920D02*
X54357Y-10620D01*
X54357Y-10906D02*
X54329Y-10920D01*
X54272Y-10920D01*
X54243Y-10906D01*
X54229Y-10892D01*
X54214Y-10863D01*
X54214Y-10777D01*
X54229Y-10749D01*
X54243Y-10735D01*
X54272Y-10720D01*
X54329Y-10720D01*
X54357Y-10735D01*
X54614Y-10906D02*
X54586Y-10920D01*
X54529Y-10920D01*
X54500Y-10906D01*
X54486Y-10877D01*
X54486Y-10763D01*
X54500Y-10735D01*
X54529Y-10720D01*
X54586Y-10720D01*
X54614Y-10735D01*
X54629Y-10763D01*
X54629Y-10792D01*
X54486Y-10820D01*
X54986Y-10920D02*
X54986Y-10720D01*
X54986Y-10620D02*
X54972Y-10635D01*
X54986Y-10649D01*
X55000Y-10635D01*
X54986Y-10620D01*
X54986Y-10649D01*
X55129Y-10720D02*
X55129Y-10920D01*
X55129Y-10749D02*
X55143Y-10735D01*
X55172Y-10720D01*
X55214Y-10720D01*
X55243Y-10735D01*
X55257Y-10763D01*
X55257Y-10920D01*
X55629Y-10920D02*
X55629Y-10620D01*
X55729Y-10720D02*
X55843Y-10720D01*
X55772Y-10620D02*
X55772Y-10877D01*
X55786Y-10906D01*
X55814Y-10920D01*
X55843Y-10920D01*
X56072Y-10920D02*
X56072Y-10763D01*
X56057Y-10735D01*
X56029Y-10720D01*
X55972Y-10720D01*
X55943Y-10735D01*
X56072Y-10906D02*
X56043Y-10920D01*
X55972Y-10920D01*
X55943Y-10906D01*
X55929Y-10877D01*
X55929Y-10849D01*
X55943Y-10820D01*
X55972Y-10806D01*
X56043Y-10806D01*
X56072Y-10792D01*
X56257Y-10920D02*
X56229Y-10906D01*
X56214Y-10877D01*
X56214Y-10620D01*
X56343Y-10720D02*
X56414Y-10920D01*
X56486Y-10720D02*
X56414Y-10920D01*
X56386Y-10992D01*
X56372Y-11006D01*
X56343Y-11020D01*
G54D23*
X50038Y-10244D02*
X50114Y-10510D01*
X50190Y-10320D01*
X50267Y-10510D01*
X50343Y-10244D01*
X50457Y-10244D02*
X50533Y-10510D01*
X50609Y-10320D01*
X50686Y-10510D01*
X50762Y-10244D01*
X50876Y-10244D02*
X50952Y-10510D01*
X51028Y-10320D01*
X51105Y-10510D01*
X51181Y-10244D01*
X51333Y-10472D02*
X51352Y-10491D01*
X51333Y-10510D01*
X51314Y-10491D01*
X51333Y-10472D01*
X51333Y-10510D01*
X51486Y-10244D02*
X51581Y-10510D01*
X51676Y-10244D01*
X51828Y-10510D02*
X51828Y-10244D01*
X51828Y-10110D02*
X51809Y-10130D01*
X51828Y-10149D01*
X51848Y-10130D01*
X51828Y-10110D01*
X51828Y-10149D01*
X52019Y-10510D02*
X52019Y-10244D01*
X52019Y-10320D02*
X52038Y-10282D01*
X52057Y-10263D01*
X52095Y-10244D01*
X52133Y-10244D01*
X52209Y-10244D02*
X52362Y-10244D01*
X52267Y-10110D02*
X52267Y-10453D01*
X52286Y-10491D01*
X52324Y-10510D01*
X52362Y-10510D01*
X52667Y-10244D02*
X52667Y-10510D01*
X52495Y-10244D02*
X52495Y-10453D01*
X52514Y-10491D01*
X52552Y-10510D01*
X52609Y-10510D01*
X52648Y-10491D01*
X52667Y-10472D01*
X53028Y-10510D02*
X53028Y-10301D01*
X53009Y-10263D01*
X52971Y-10244D01*
X52895Y-10244D01*
X52857Y-10263D01*
X53028Y-10491D02*
X52990Y-10510D01*
X52895Y-10510D01*
X52857Y-10491D01*
X52838Y-10453D01*
X52838Y-10415D01*
X52857Y-10377D01*
X52895Y-10358D01*
X52990Y-10358D01*
X53028Y-10339D01*
X53276Y-10510D02*
X53238Y-10491D01*
X53219Y-10453D01*
X53219Y-10110D01*
X53409Y-10491D02*
X53448Y-10510D01*
X53524Y-10510D01*
X53562Y-10491D01*
X53581Y-10453D01*
X53581Y-10434D01*
X53562Y-10396D01*
X53524Y-10377D01*
X53467Y-10377D01*
X53428Y-10358D01*
X53409Y-10320D01*
X53409Y-10301D01*
X53428Y-10263D01*
X53467Y-10244D01*
X53524Y-10244D01*
X53562Y-10263D01*
X53905Y-10491D02*
X53867Y-10510D01*
X53790Y-10510D01*
X53752Y-10491D01*
X53733Y-10453D01*
X53733Y-10301D01*
X53752Y-10263D01*
X53790Y-10244D01*
X53867Y-10244D01*
X53905Y-10263D01*
X53924Y-10301D01*
X53924Y-10339D01*
X53733Y-10377D01*
X54095Y-10244D02*
X54095Y-10510D01*
X54095Y-10282D02*
X54114Y-10263D01*
X54152Y-10244D01*
X54209Y-10244D01*
X54248Y-10263D01*
X54267Y-10301D01*
X54267Y-10510D01*
X54438Y-10491D02*
X54476Y-10510D01*
X54552Y-10510D01*
X54590Y-10491D01*
X54609Y-10453D01*
X54609Y-10434D01*
X54590Y-10396D01*
X54552Y-10377D01*
X54495Y-10377D01*
X54457Y-10358D01*
X54438Y-10320D01*
X54438Y-10301D01*
X54457Y-10263D01*
X54495Y-10244D01*
X54552Y-10244D01*
X54590Y-10263D01*
X54933Y-10491D02*
X54895Y-10510D01*
X54819Y-10510D01*
X54781Y-10491D01*
X54762Y-10453D01*
X54762Y-10301D01*
X54781Y-10263D01*
X54819Y-10244D01*
X54895Y-10244D01*
X54933Y-10263D01*
X54952Y-10301D01*
X54952Y-10339D01*
X54762Y-10377D01*
X55124Y-10472D02*
X55143Y-10491D01*
X55124Y-10510D01*
X55105Y-10491D01*
X55124Y-10472D01*
X55124Y-10510D01*
X55314Y-10510D02*
X55314Y-10244D01*
X55314Y-10110D02*
X55295Y-10130D01*
X55314Y-10149D01*
X55333Y-10130D01*
X55314Y-10110D01*
X55314Y-10149D01*
X55448Y-10244D02*
X55600Y-10244D01*
X55505Y-10110D02*
X55505Y-10453D01*
X55524Y-10491D01*
X55562Y-10510D01*
X55600Y-10510D01*
G54D24*
X51886Y-10289D02*
X51905Y-10270D01*
X51943Y-10250D01*
X52038Y-10250D01*
X52077Y-10270D01*
X52096Y-10289D01*
X52115Y-10327D01*
X52115Y-10365D01*
X52096Y-10422D01*
X51867Y-10650D01*
X52115Y-10650D01*
X52458Y-10250D02*
X52381Y-10250D01*
X52343Y-10270D01*
X52324Y-10289D01*
X52286Y-10346D01*
X52267Y-10422D01*
X52267Y-10574D01*
X52286Y-10612D01*
X52305Y-10631D01*
X52343Y-10650D01*
X52419Y-10650D01*
X52458Y-10631D01*
X52477Y-10612D01*
X52496Y-10574D01*
X52496Y-10479D01*
X52477Y-10441D01*
X52458Y-10422D01*
X52419Y-10403D01*
X52343Y-10403D01*
X52305Y-10422D01*
X52286Y-10441D01*
X52267Y-10479D01*
X52648Y-10289D02*
X52667Y-10270D01*
X52705Y-10250D01*
X52800Y-10250D01*
X52838Y-10270D01*
X52858Y-10289D01*
X52877Y-10327D01*
X52877Y-10365D01*
X52858Y-10422D01*
X52629Y-10650D01*
X52877Y-10650D01*
X53124Y-10250D02*
X53162Y-10250D01*
X53200Y-10270D01*
X53219Y-10289D01*
X53238Y-10327D01*
X53258Y-10403D01*
X53258Y-10498D01*
X53238Y-10574D01*
X53219Y-10612D01*
X53200Y-10631D01*
X53162Y-10650D01*
X53124Y-10650D01*
X53086Y-10631D01*
X53067Y-10612D01*
X53048Y-10574D01*
X53029Y-10498D01*
X53029Y-10403D01*
X53048Y-10327D01*
X53067Y-10289D01*
X53086Y-10270D01*
X53124Y-10250D01*
X53638Y-10650D02*
X53410Y-10650D01*
X53524Y-10650D02*
X53524Y-10250D01*
X53486Y-10308D01*
X53448Y-10346D01*
X53410Y-10365D01*
X53772Y-10250D02*
X54019Y-10250D01*
X53886Y-10403D01*
X53943Y-10403D01*
X53981Y-10422D01*
X54000Y-10441D01*
X54019Y-10479D01*
X54019Y-10574D01*
X54000Y-10612D01*
X53981Y-10631D01*
X53943Y-10650D01*
X53829Y-10650D01*
X53791Y-10631D01*
X53772Y-10612D01*
X54496Y-10498D02*
X54800Y-10498D01*
X55258Y-10384D02*
X55353Y-10650D01*
X55448Y-10384D01*
X55810Y-10650D02*
X55581Y-10650D01*
X55696Y-10650D02*
X55696Y-10250D01*
X55658Y-10308D01*
X55619Y-10346D01*
X55581Y-10365D01*
X55981Y-10612D02*
X56000Y-10631D01*
X55981Y-10650D01*
X55962Y-10631D01*
X55981Y-10612D01*
X55981Y-10650D01*
X56381Y-10650D02*
X56153Y-10650D01*
X56267Y-10650D02*
X56267Y-10250D01*
X56229Y-10308D01*
X56191Y-10346D01*
X56153Y-10365D01*
X56553Y-10612D02*
X56572Y-10631D01*
X56553Y-10650D01*
X56534Y-10631D01*
X56553Y-10612D01*
X56553Y-10650D01*
X56819Y-10250D02*
X56858Y-10250D01*
X56896Y-10270D01*
X56915Y-10289D01*
X56934Y-10327D01*
X56953Y-10403D01*
X56953Y-10498D01*
X56934Y-10574D01*
X56915Y-10612D01*
X56896Y-10631D01*
X56858Y-10650D01*
X56819Y-10650D01*
X56781Y-10631D01*
X56762Y-10612D01*
X56743Y-10574D01*
X56724Y-10498D01*
X56724Y-10403D01*
X56743Y-10327D01*
X56762Y-10289D01*
X56781Y-10270D01*
X56819Y-10250D01*
G54D19*
X51679Y-10235D02*
X51679Y-10078D01*
X51665Y-10050D01*
X51637Y-10035D01*
X51579Y-10035D01*
X51551Y-10050D01*
X51679Y-10221D02*
X51651Y-10235D01*
X51579Y-10235D01*
X51551Y-10221D01*
X51537Y-10192D01*
X51537Y-10164D01*
X51551Y-10135D01*
X51579Y-10121D01*
X51651Y-10121D01*
X51679Y-10107D01*
X51822Y-10035D02*
X51822Y-10235D01*
X51822Y-10064D02*
X51837Y-10050D01*
X51865Y-10035D01*
X51908Y-10035D01*
X51937Y-10050D01*
X51951Y-10078D01*
X51951Y-10235D01*
X52379Y-9935D02*
X52437Y-9935D01*
X52465Y-9950D01*
X52494Y-9978D01*
X52508Y-10035D01*
X52508Y-10135D01*
X52494Y-10192D01*
X52465Y-10221D01*
X52437Y-10235D01*
X52379Y-10235D01*
X52351Y-10221D01*
X52322Y-10192D01*
X52308Y-10135D01*
X52308Y-10035D01*
X52322Y-9978D01*
X52351Y-9950D01*
X52379Y-9935D01*
X52637Y-10035D02*
X52637Y-10335D01*
X52637Y-10050D02*
X52665Y-10035D01*
X52722Y-10035D01*
X52751Y-10050D01*
X52765Y-10064D01*
X52779Y-10092D01*
X52779Y-10178D01*
X52765Y-10207D01*
X52751Y-10221D01*
X52722Y-10235D01*
X52665Y-10235D01*
X52637Y-10221D01*
X53022Y-10221D02*
X52994Y-10235D01*
X52937Y-10235D01*
X52908Y-10221D01*
X52894Y-10192D01*
X52894Y-10078D01*
X52908Y-10050D01*
X52937Y-10035D01*
X52994Y-10035D01*
X53022Y-10050D01*
X53037Y-10078D01*
X53037Y-10107D01*
X52894Y-10135D01*
X53165Y-10035D02*
X53165Y-10235D01*
X53165Y-10064D02*
X53179Y-10050D01*
X53208Y-10035D01*
X53251Y-10035D01*
X53279Y-10050D01*
X53294Y-10078D01*
X53294Y-10235D01*
X53665Y-10235D02*
X53665Y-9935D01*
X53665Y-10078D02*
X53837Y-10078D01*
X53837Y-10235D02*
X53837Y-9935D01*
X54108Y-10235D02*
X54108Y-10078D01*
X54094Y-10050D01*
X54065Y-10035D01*
X54008Y-10035D01*
X53979Y-10050D01*
X54108Y-10221D02*
X54079Y-10235D01*
X54008Y-10235D01*
X53979Y-10221D01*
X53965Y-10192D01*
X53965Y-10164D01*
X53979Y-10135D01*
X54008Y-10121D01*
X54079Y-10121D01*
X54108Y-10107D01*
X54251Y-10235D02*
X54251Y-10035D01*
X54251Y-10092D02*
X54265Y-10064D01*
X54279Y-10050D01*
X54308Y-10035D01*
X54337Y-10035D01*
X54565Y-10235D02*
X54565Y-9935D01*
X54565Y-10221D02*
X54537Y-10235D01*
X54479Y-10235D01*
X54451Y-10221D01*
X54437Y-10207D01*
X54422Y-10178D01*
X54422Y-10092D01*
X54437Y-10064D01*
X54451Y-10050D01*
X54479Y-10035D01*
X54537Y-10035D01*
X54565Y-10050D01*
X54679Y-10035D02*
X54737Y-10235D01*
X54794Y-10092D01*
X54851Y-10235D01*
X54908Y-10035D01*
X55151Y-10235D02*
X55151Y-10078D01*
X55137Y-10050D01*
X55108Y-10035D01*
X55051Y-10035D01*
X55022Y-10050D01*
X55151Y-10221D02*
X55122Y-10235D01*
X55051Y-10235D01*
X55022Y-10221D01*
X55008Y-10192D01*
X55008Y-10164D01*
X55022Y-10135D01*
X55051Y-10121D01*
X55122Y-10121D01*
X55151Y-10107D01*
X55294Y-10235D02*
X55294Y-10035D01*
X55294Y-10092D02*
X55308Y-10064D01*
X55322Y-10050D01*
X55351Y-10035D01*
X55379Y-10035D01*
X55594Y-10221D02*
X55565Y-10235D01*
X55508Y-10235D01*
X55479Y-10221D01*
X55465Y-10192D01*
X55465Y-10078D01*
X55479Y-10050D01*
X55508Y-10035D01*
X55565Y-10035D01*
X55594Y-10050D01*
X55608Y-10078D01*
X55608Y-10107D01*
X55465Y-10135D01*
X56022Y-9935D02*
X56079Y-9935D01*
X56108Y-9950D01*
X56137Y-9978D01*
X56151Y-10035D01*
X56151Y-10135D01*
X56137Y-10192D01*
X56108Y-10221D01*
X56079Y-10235D01*
X56022Y-10235D01*
X55994Y-10221D01*
X55965Y-10192D01*
X55951Y-10135D01*
X55951Y-10035D01*
X55965Y-9978D01*
X55994Y-9950D01*
X56022Y-9935D01*
X56279Y-10035D02*
X56279Y-10335D01*
X56279Y-10050D02*
X56308Y-10035D01*
X56365Y-10035D01*
X56394Y-10050D01*
X56408Y-10064D01*
X56422Y-10092D01*
X56422Y-10178D01*
X56408Y-10207D01*
X56394Y-10221D01*
X56365Y-10235D01*
X56308Y-10235D01*
X56279Y-10221D01*
X56665Y-10221D02*
X56637Y-10235D01*
X56579Y-10235D01*
X56551Y-10221D01*
X56537Y-10192D01*
X56537Y-10078D01*
X56551Y-10050D01*
X56579Y-10035D01*
X56637Y-10035D01*
X56665Y-10050D01*
X56679Y-10078D01*
X56679Y-10107D01*
X56537Y-10135D01*
X56808Y-10035D02*
X56808Y-10235D01*
X56808Y-10064D02*
X56822Y-10050D01*
X56851Y-10035D01*
X56894Y-10035D01*
X56922Y-10050D01*
X56937Y-10078D01*
X56937Y-10235D01*
X57294Y-10221D02*
X57337Y-10235D01*
X57408Y-10235D01*
X57437Y-10221D01*
X57451Y-10207D01*
X57465Y-10178D01*
X57465Y-10150D01*
X57451Y-10121D01*
X57437Y-10107D01*
X57408Y-10092D01*
X57351Y-10078D01*
X57322Y-10064D01*
X57308Y-10050D01*
X57294Y-10021D01*
X57294Y-9992D01*
X57308Y-9964D01*
X57322Y-9950D01*
X57351Y-9935D01*
X57422Y-9935D01*
X57465Y-9950D01*
X57637Y-10235D02*
X57608Y-10221D01*
X57594Y-10207D01*
X57579Y-10178D01*
X57579Y-10092D01*
X57594Y-10064D01*
X57608Y-10050D01*
X57637Y-10035D01*
X57679Y-10035D01*
X57708Y-10050D01*
X57722Y-10064D01*
X57737Y-10092D01*
X57737Y-10178D01*
X57722Y-10207D01*
X57708Y-10221D01*
X57679Y-10235D01*
X57637Y-10235D01*
X57994Y-10035D02*
X57994Y-10235D01*
X57865Y-10035D02*
X57865Y-10192D01*
X57879Y-10221D01*
X57908Y-10235D01*
X57951Y-10235D01*
X57979Y-10221D01*
X57994Y-10207D01*
X58137Y-10235D02*
X58137Y-10035D01*
X58137Y-10092D02*
X58151Y-10064D01*
X58165Y-10050D01*
X58194Y-10035D01*
X58222Y-10035D01*
X58451Y-10221D02*
X58422Y-10235D01*
X58365Y-10235D01*
X58337Y-10221D01*
X58322Y-10207D01*
X58308Y-10178D01*
X58308Y-10092D01*
X58322Y-10064D01*
X58337Y-10050D01*
X58365Y-10035D01*
X58422Y-10035D01*
X58451Y-10050D01*
X58694Y-10221D02*
X58665Y-10235D01*
X58608Y-10235D01*
X58579Y-10221D01*
X58565Y-10192D01*
X58565Y-10078D01*
X58579Y-10050D01*
X58608Y-10035D01*
X58665Y-10035D01*
X58694Y-10050D01*
X58708Y-10078D01*
X58708Y-10107D01*
X58565Y-10135D01*
X59065Y-10235D02*
X59065Y-9935D01*
X59179Y-9935D01*
X59208Y-9950D01*
X59222Y-9964D01*
X59237Y-9992D01*
X59237Y-10035D01*
X59222Y-10064D01*
X59208Y-10078D01*
X59179Y-10092D01*
X59065Y-10092D01*
X59365Y-10235D02*
X59365Y-10035D01*
X59365Y-10092D02*
X59379Y-10064D01*
X59394Y-10050D01*
X59422Y-10035D01*
X59451Y-10035D01*
X59594Y-10235D02*
X59565Y-10221D01*
X59551Y-10207D01*
X59537Y-10178D01*
X59537Y-10092D01*
X59551Y-10064D01*
X59565Y-10050D01*
X59594Y-10035D01*
X59637Y-10035D01*
X59665Y-10050D01*
X59679Y-10064D01*
X59694Y-10092D01*
X59694Y-10178D01*
X59679Y-10207D01*
X59665Y-10221D01*
X59637Y-10235D01*
X59594Y-10235D01*
X59822Y-10035D02*
X59822Y-10292D01*
X59808Y-10321D01*
X59779Y-10335D01*
X59765Y-10335D01*
X59822Y-9935D02*
X59808Y-9950D01*
X59822Y-9964D01*
X59837Y-9950D01*
X59822Y-9935D01*
X59822Y-9964D01*
X60079Y-10221D02*
X60051Y-10235D01*
X59994Y-10235D01*
X59965Y-10221D01*
X59951Y-10192D01*
X59951Y-10078D01*
X59965Y-10050D01*
X59994Y-10035D01*
X60051Y-10035D01*
X60079Y-10050D01*
X60094Y-10078D01*
X60094Y-10107D01*
X59951Y-10135D01*
X60351Y-10221D02*
X60322Y-10235D01*
X60265Y-10235D01*
X60237Y-10221D01*
X60222Y-10207D01*
X60208Y-10178D01*
X60208Y-10092D01*
X60222Y-10064D01*
X60237Y-10050D01*
X60265Y-10035D01*
X60322Y-10035D01*
X60351Y-10050D01*
X60437Y-10035D02*
X60551Y-10035D01*
X60479Y-9935D02*
X60479Y-10192D01*
X60494Y-10221D01*
X60522Y-10235D01*
X60551Y-10235D01*
G54D21*
X51965Y-9096D02*
X52165Y-9696D01*
X52365Y-9096D01*
X52565Y-9696D02*
X52565Y-9296D01*
X52565Y-9096D02*
X52537Y-9125D01*
X52565Y-9153D01*
X52594Y-9125D01*
X52565Y-9096D01*
X52565Y-9153D01*
X52851Y-9696D02*
X52851Y-9296D01*
X52851Y-9410D02*
X52879Y-9353D01*
X52908Y-9325D01*
X52965Y-9296D01*
X53022Y-9296D01*
X53137Y-9296D02*
X53365Y-9296D01*
X53222Y-9096D02*
X53222Y-9610D01*
X53251Y-9667D01*
X53308Y-9696D01*
X53365Y-9696D01*
X53822Y-9296D02*
X53822Y-9696D01*
X53565Y-9296D02*
X53565Y-9610D01*
X53594Y-9667D01*
X53651Y-9696D01*
X53737Y-9696D01*
X53794Y-9667D01*
X53822Y-9639D01*
X54365Y-9696D02*
X54365Y-9382D01*
X54337Y-9325D01*
X54279Y-9296D01*
X54165Y-9296D01*
X54108Y-9325D01*
X54365Y-9667D02*
X54308Y-9696D01*
X54165Y-9696D01*
X54108Y-9667D01*
X54079Y-9610D01*
X54079Y-9553D01*
X54108Y-9496D01*
X54165Y-9467D01*
X54308Y-9467D01*
X54365Y-9439D01*
X54737Y-9696D02*
X54679Y-9667D01*
X54651Y-9610D01*
X54651Y-9096D01*
X54937Y-9667D02*
X55022Y-9696D01*
X55165Y-9696D01*
X55222Y-9667D01*
X55251Y-9639D01*
X55279Y-9582D01*
X55279Y-9525D01*
X55251Y-9467D01*
X55222Y-9439D01*
X55165Y-9410D01*
X55051Y-9382D01*
X54994Y-9353D01*
X54965Y-9325D01*
X54937Y-9267D01*
X54937Y-9210D01*
X54965Y-9153D01*
X54994Y-9125D01*
X55051Y-9096D01*
X55194Y-9096D01*
X55279Y-9125D01*
X55765Y-9667D02*
X55708Y-9696D01*
X55594Y-9696D01*
X55537Y-9667D01*
X55508Y-9610D01*
X55508Y-9382D01*
X55537Y-9325D01*
X55594Y-9296D01*
X55708Y-9296D01*
X55765Y-9325D01*
X55794Y-9382D01*
X55794Y-9439D01*
X55508Y-9496D01*
X56051Y-9296D02*
X56051Y-9696D01*
X56051Y-9353D02*
X56079Y-9325D01*
X56137Y-9296D01*
X56222Y-9296D01*
X56279Y-9325D01*
X56308Y-9382D01*
X56308Y-9696D01*
X56565Y-9667D02*
X56622Y-9696D01*
X56737Y-9696D01*
X56794Y-9667D01*
X56822Y-9610D01*
X56822Y-9582D01*
X56794Y-9525D01*
X56737Y-9496D01*
X56651Y-9496D01*
X56594Y-9467D01*
X56565Y-9410D01*
X56565Y-9382D01*
X56594Y-9325D01*
X56651Y-9296D01*
X56737Y-9296D01*
X56794Y-9325D01*
X57308Y-9667D02*
X57251Y-9696D01*
X57137Y-9696D01*
X57079Y-9667D01*
X57051Y-9610D01*
X57051Y-9382D01*
X57079Y-9325D01*
X57137Y-9296D01*
X57251Y-9296D01*
X57308Y-9325D01*
X57337Y-9382D01*
X57337Y-9439D01*
X57051Y-9496D01*
X58051Y-9467D02*
X58508Y-9467D01*
G54D19*
X35239Y-25613D02*
X35155Y-25494D01*
X35096Y-25613D02*
X35096Y-25363D01*
X35191Y-25363D01*
X35215Y-25375D01*
X35227Y-25386D01*
X35239Y-25410D01*
X35239Y-25446D01*
X35227Y-25470D01*
X35215Y-25482D01*
X35191Y-25494D01*
X35096Y-25494D01*
X35322Y-25363D02*
X35477Y-25363D01*
X35394Y-25458D01*
X35429Y-25458D01*
X35453Y-25470D01*
X35465Y-25482D01*
X35477Y-25505D01*
X35477Y-25565D01*
X35465Y-25589D01*
X35453Y-25601D01*
X35429Y-25613D01*
X35358Y-25613D01*
X35334Y-25601D01*
X35322Y-25589D01*
X35560Y-25363D02*
X35715Y-25363D01*
X35632Y-25458D01*
X35667Y-25458D01*
X35691Y-25470D01*
X35703Y-25482D01*
X35715Y-25505D01*
X35715Y-25565D01*
X35703Y-25589D01*
X35691Y-25601D01*
X35667Y-25613D01*
X35596Y-25613D01*
X35572Y-25601D01*
X35560Y-25589D01*
X35239Y-26613D02*
X35155Y-26494D01*
X35096Y-26613D02*
X35096Y-26363D01*
X35191Y-26363D01*
X35215Y-26375D01*
X35227Y-26386D01*
X35239Y-26410D01*
X35239Y-26446D01*
X35227Y-26470D01*
X35215Y-26482D01*
X35191Y-26494D01*
X35096Y-26494D01*
X35322Y-26363D02*
X35477Y-26363D01*
X35394Y-26458D01*
X35429Y-26458D01*
X35453Y-26470D01*
X35465Y-26482D01*
X35477Y-26505D01*
X35477Y-26565D01*
X35465Y-26589D01*
X35453Y-26601D01*
X35429Y-26613D01*
X35358Y-26613D01*
X35334Y-26601D01*
X35322Y-26589D01*
X35691Y-26446D02*
X35691Y-26613D01*
X35632Y-26351D02*
X35572Y-26529D01*
X35727Y-26529D01*
G54D13*
X33592Y-29171D02*
X33592Y-29657D01*
X33621Y-29714D01*
X33650Y-29742D01*
X33707Y-29771D01*
X33821Y-29771D01*
X33878Y-29742D01*
X33907Y-29714D01*
X33935Y-29657D01*
X33935Y-29171D01*
X34507Y-29171D02*
X34221Y-29171D01*
X34192Y-29457D01*
X34221Y-29428D01*
X34278Y-29400D01*
X34421Y-29400D01*
X34478Y-29428D01*
X34507Y-29457D01*
X34535Y-29514D01*
X34535Y-29657D01*
X34507Y-29714D01*
X34478Y-29742D01*
X34421Y-29771D01*
X34278Y-29771D01*
X34221Y-29742D01*
X34192Y-29714D01*
X30092Y-10654D02*
X30064Y-10682D01*
X29978Y-10711D01*
X29921Y-10711D01*
X29835Y-10682D01*
X29778Y-10625D01*
X29749Y-10568D01*
X29721Y-10454D01*
X29721Y-10368D01*
X29749Y-10254D01*
X29778Y-10197D01*
X29835Y-10140D01*
X29921Y-10111D01*
X29978Y-10111D01*
X30064Y-10140D01*
X30092Y-10168D01*
X30635Y-10111D02*
X30349Y-10111D01*
X30321Y-10397D01*
X30349Y-10368D01*
X30407Y-10340D01*
X30549Y-10340D01*
X30607Y-10368D01*
X30635Y-10397D01*
X30664Y-10454D01*
X30664Y-10597D01*
X30635Y-10654D01*
X30607Y-10682D01*
X30549Y-10711D01*
X30407Y-10711D01*
X30349Y-10682D01*
X30321Y-10654D01*
X31207Y-10111D02*
X30921Y-10111D01*
X30892Y-10397D01*
X30921Y-10368D01*
X30978Y-10340D01*
X31121Y-10340D01*
X31178Y-10368D01*
X31207Y-10397D01*
X31235Y-10454D01*
X31235Y-10597D01*
X31207Y-10654D01*
X31178Y-10682D01*
X31121Y-10711D01*
X30978Y-10711D01*
X30921Y-10682D01*
X30892Y-10654D01*
X31435Y-10111D02*
X31807Y-10111D01*
X31607Y-10340D01*
X31692Y-10340D01*
X31750Y-10368D01*
X31778Y-10397D01*
X31807Y-10454D01*
X31807Y-10597D01*
X31778Y-10654D01*
X31750Y-10682D01*
X31692Y-10711D01*
X31521Y-10711D01*
X31464Y-10682D01*
X31435Y-10654D01*
X32350Y-10111D02*
X32064Y-10111D01*
X32035Y-10397D01*
X32064Y-10368D01*
X32121Y-10340D01*
X32264Y-10340D01*
X32321Y-10368D01*
X32350Y-10397D01*
X32378Y-10454D01*
X32378Y-10597D01*
X32350Y-10654D01*
X32321Y-10682D01*
X32264Y-10711D01*
X32121Y-10711D01*
X32064Y-10682D01*
X32035Y-10654D01*
X22667Y-21971D02*
X22667Y-22457D01*
X22696Y-22514D01*
X22725Y-22542D01*
X22782Y-22571D01*
X22896Y-22571D01*
X22953Y-22542D01*
X22982Y-22514D01*
X23010Y-22457D01*
X23010Y-21971D01*
X23239Y-21971D02*
X23610Y-21971D01*
X23410Y-22200D01*
X23496Y-22200D01*
X23553Y-22228D01*
X23582Y-22257D01*
X23610Y-22314D01*
X23610Y-22457D01*
X23582Y-22514D01*
X23553Y-22542D01*
X23496Y-22571D01*
X23325Y-22571D01*
X23267Y-22542D01*
X23239Y-22514D01*
X20599Y-10046D02*
X20942Y-10046D01*
X20771Y-10646D02*
X20771Y-10046D01*
X21142Y-10646D02*
X21142Y-10046D01*
X21371Y-10046D01*
X21428Y-10075D01*
X21457Y-10103D01*
X21485Y-10160D01*
X21485Y-10246D01*
X21457Y-10303D01*
X21428Y-10332D01*
X21371Y-10360D01*
X21142Y-10360D01*
X21714Y-10617D02*
X21799Y-10646D01*
X21942Y-10646D01*
X21999Y-10617D01*
X22028Y-10589D01*
X22057Y-10532D01*
X22057Y-10475D01*
X22028Y-10417D01*
X21999Y-10389D01*
X21942Y-10360D01*
X21828Y-10332D01*
X21771Y-10303D01*
X21742Y-10275D01*
X21714Y-10217D01*
X21714Y-10160D01*
X21742Y-10103D01*
X21771Y-10075D01*
X21828Y-10046D01*
X21971Y-10046D01*
X22057Y-10075D01*
X22257Y-10046D02*
X22657Y-10046D01*
X22399Y-10646D01*
X22914Y-10646D02*
X23028Y-10646D01*
X23085Y-10617D01*
X23114Y-10589D01*
X23171Y-10503D01*
X23200Y-10389D01*
X23200Y-10160D01*
X23171Y-10103D01*
X23142Y-10075D01*
X23085Y-10046D01*
X22971Y-10046D01*
X22914Y-10075D01*
X22885Y-10103D01*
X22857Y-10160D01*
X22857Y-10303D01*
X22885Y-10360D01*
X22914Y-10389D01*
X22971Y-10417D01*
X23085Y-10417D01*
X23142Y-10389D01*
X23171Y-10360D01*
X23200Y-10303D01*
X23742Y-10046D02*
X23457Y-10046D01*
X23428Y-10332D01*
X23457Y-10303D01*
X23514Y-10275D01*
X23657Y-10275D01*
X23714Y-10303D01*
X23742Y-10332D01*
X23771Y-10389D01*
X23771Y-10532D01*
X23742Y-10589D01*
X23714Y-10617D01*
X23657Y-10646D01*
X23514Y-10646D01*
X23457Y-10617D01*
X23428Y-10589D01*
X24142Y-10046D02*
X24200Y-10046D01*
X24257Y-10075D01*
X24285Y-10103D01*
X24314Y-10160D01*
X24342Y-10275D01*
X24342Y-10417D01*
X24314Y-10532D01*
X24285Y-10589D01*
X24257Y-10617D01*
X24200Y-10646D01*
X24142Y-10646D01*
X24085Y-10617D01*
X24057Y-10589D01*
X24028Y-10532D01*
X24000Y-10417D01*
X24000Y-10275D01*
X24028Y-10160D01*
X24057Y-10103D01*
X24085Y-10075D01*
X24142Y-10046D01*
X24914Y-10646D02*
X24571Y-10646D01*
X24742Y-10646D02*
X24742Y-10046D01*
X24685Y-10132D01*
X24628Y-10189D01*
X24571Y-10217D01*
X25171Y-10646D02*
X25171Y-10046D01*
X25314Y-10046D01*
X25400Y-10075D01*
X25457Y-10132D01*
X25485Y-10189D01*
X25514Y-10303D01*
X25514Y-10389D01*
X25485Y-10503D01*
X25457Y-10560D01*
X25400Y-10617D01*
X25314Y-10646D01*
X25171Y-10646D01*
X26114Y-10589D02*
X26085Y-10617D01*
X26000Y-10646D01*
X25942Y-10646D01*
X25857Y-10617D01*
X25800Y-10560D01*
X25771Y-10503D01*
X25742Y-10389D01*
X25742Y-10303D01*
X25771Y-10189D01*
X25800Y-10132D01*
X25857Y-10075D01*
X25942Y-10046D01*
X26000Y-10046D01*
X26085Y-10075D01*
X26114Y-10103D01*
X26771Y-10703D02*
X26714Y-10675D01*
X26657Y-10617D01*
X26571Y-10532D01*
X26514Y-10503D01*
X26457Y-10503D01*
X26485Y-10646D02*
X26428Y-10617D01*
X26371Y-10560D01*
X26342Y-10446D01*
X26342Y-10246D01*
X26371Y-10132D01*
X26428Y-10075D01*
X26485Y-10046D01*
X26600Y-10046D01*
X26657Y-10075D01*
X26714Y-10132D01*
X26742Y-10246D01*
X26742Y-10446D01*
X26714Y-10560D01*
X26657Y-10617D01*
X26600Y-10646D01*
X26485Y-10646D01*
G54D19*
X32953Y-26160D02*
X32834Y-26244D01*
X32953Y-26303D02*
X32703Y-26303D01*
X32703Y-26208D01*
X32715Y-26184D01*
X32726Y-26172D01*
X32750Y-26160D01*
X32786Y-26160D01*
X32810Y-26172D01*
X32822Y-26184D01*
X32834Y-26208D01*
X32834Y-26303D01*
X32703Y-26077D02*
X32703Y-25922D01*
X32798Y-26005D01*
X32798Y-25970D01*
X32810Y-25946D01*
X32822Y-25934D01*
X32845Y-25922D01*
X32905Y-25922D01*
X32929Y-25934D01*
X32941Y-25946D01*
X32953Y-25970D01*
X32953Y-26041D01*
X32941Y-26065D01*
X32929Y-26077D01*
X32703Y-25696D02*
X32703Y-25815D01*
X32822Y-25827D01*
X32810Y-25815D01*
X32798Y-25791D01*
X32798Y-25732D01*
X32810Y-25708D01*
X32822Y-25696D01*
X32845Y-25684D01*
X32905Y-25684D01*
X32929Y-25696D01*
X32941Y-25708D01*
X32953Y-25732D01*
X32953Y-25791D01*
X32941Y-25815D01*
X32929Y-25827D01*
M02*
