M48
;DRILL file {Pcbnew (2013-mar-13)-testing} date Wed 04 Sep 2013 11:16:55 AM CEST
;FORMAT={-:-/ absolute / inch / decimal}
FMAT,2
INCH,TZ
T1C0.008
T2C0.020
T3C0.039
T4C0.039
T5C0.040
T6C0.059
T7C0.100
%
G90
G05
M72
T1
X1.9825Y-2.22
X1.9975Y-3.5175
X1.9975Y-3.645
X2.02Y-2.63
X2.0425Y-2.795
X2.1Y-3.1842
X2.1025Y-3.54
X2.11Y-2.1275
X2.115Y-2.5975
X2.1675Y-3.9425
X2.1875Y-2.79
X2.1925Y-3.8
X2.27Y-3.1908
X2.2718Y-3.1053
X2.2734Y-3.2623
X2.2747Y-3.0281
X2.3025Y-2.8525
X2.305Y-2.69
X2.32Y-3.68
X2.33Y-2.285
X2.3521Y-2.95
X2.3521Y-3.35
X2.3671Y-3.4487
X2.4075Y-2.1825
X2.435Y-2.6375
X2.435Y-2.7975
X2.445Y-3.625
X2.47Y-3.515
X2.4975Y-2.26
X2.5075Y-3.3575
X2.5484Y-3.0412
X2.555Y-2.5625
X2.555Y-2.7225
X2.555Y-2.8725
X2.5553Y-3.0657
X2.565Y-3.4035
X2.5775Y-3.705
X2.59Y-3.275
X2.5975Y-2.275
X2.5975Y-2.3625
X2.63Y-2.9833
X2.698Y-2.4299
X2.7339Y-2.7738
X2.7675Y-3.705
X2.7977Y-2.4806
X2.809Y-2.3248
X2.8121Y-2.3595
X2.814Y-3.262
X2.8325Y-2.2125
X2.845Y-2.6275
X2.855Y-2.28
X2.855Y-2.5475
X2.8841Y-3.3989
X2.885Y-3.705
X2.9075Y-3.5675
X2.915Y-2.8
X2.915Y-2.87
X2.915Y-3.0375
X2.9175Y-2.2175
X2.9175Y-2.9775
X2.92Y-2.3175
X2.93Y-2.6275
X2.9471Y-2.5687
X2.955Y-3.615
X2.9698Y-3.2143
X2.9725Y-2.8
X2.9725Y-2.8725
X2.975Y-2.7425
X2.975Y-2.9775
X2.975Y-3.0375
X2.9849Y-3.0955
X2.99Y-3.705
X2.9975Y-2.67
X3.0052Y-3.5527
X3.0066Y-2.9481
X3.0075Y-2.3175
X3.0096Y-3.447
X3.0103Y-3.4925
X3.0216Y-3.1267
X3.048Y-2.6069
X3.0548Y-2.23
X3.0975Y-2.2866
X3.1085Y-2.921
X3.1164Y-3.08
X3.1164Y-3.5142
X3.1208Y-3.0092
X3.1235Y-2.3535
X3.1307Y-3.564
X3.1326Y-3.1024
X3.1422Y-3.0633
X3.1584Y-3.1241
X3.162Y-3.37
X3.1622Y-3.0263
X3.1675Y-2.2425
X3.1694Y-3.5077
X3.1775Y-3.54
X3.18Y-2.3375
X3.18Y-3.6694
X3.1913Y-3.522
X3.211Y-3.0724
X3.211Y-3.041
X3.211Y-3.419
X3.2375Y-2.2425
X3.2375Y-2.305
X3.24Y-2.6626
X3.2423Y-3.4191
X3.2425Y-3.356
X3.2741Y-3.0725
X3.2742Y-3.1038
X3.2755Y-3.0046
X3.2881Y-2.7018
X3.3Y-2.7195
X3.3054Y-3.3556
X3.3057Y-3.0726
X3.3119Y-3.1506
X3.3251Y-2.33
X3.3253Y-2.2414
X3.3367Y-3.1037
X3.3368Y-3.3558
X3.337Y-3.041
X3.3371Y-3.419
X3.3384Y-3.556
X3.3425Y-3.2225
X3.3425Y-3.3
X3.3511Y-3.003
X3.3576Y-2.7305
X3.3682Y-3.1063
X3.3686Y-3.4188
X3.3804Y-2.7297
X3.3827Y-3.0003
X3.3867Y-3.3003
X3.3875Y-3.2225
X3.3993Y-2.8125
X3.4Y-3.4186
X3.4Y-3.041
X3.4001Y-3.3876
X3.407Y-3.1413
X3.42Y-2.7545
X3.43Y-3.66
X3.4315Y-3.419
X3.4385Y-2.8013
X3.4552Y-3.1111
X3.4612Y-3.1656
X3.4712Y-3.2805
X3.4763Y-3.1504
X3.4786Y-2.1986
X3.4788Y-3.1883
X3.4944Y-3.3875
X3.4944Y-3.4188
X3.4947Y-3.3559
X3.5006Y-3.2069
X3.5008Y-3.5705
X3.5026Y-3.2696
X3.515Y-2.845
X3.515Y-2.96
X3.5197Y-3.1828
X3.5259Y-3.3558
X3.526Y-3.3877
X3.545Y-2.4425
X3.5575Y-3.356
X3.5575Y-3.3245
X3.585Y-2.8925
X3.585Y-2.9575
X3.5888Y-3.4188
X3.589Y-3.3245
X3.5892Y-3.3876
X3.6226Y-3.1662
X3.6259Y-3.1412
X3.6371Y-3.4349
X3.6405Y-3.2709
X3.6425Y-2.9325
X3.6425Y-2.985
X3.67Y-3.1025
X3.6725Y-3.04
X3.682Y-3.3732
X3.7125Y-2.0725
X3.7197Y-3.4929
X3.7202Y-3.1832
X3.7225Y-2.445
X3.735Y-1.9525
X3.7396Y-3.0986
X3.74Y-2.6495
X3.79Y-3.3954
X3.7935Y-2.8822
X3.8249Y-3.4472
X3.8541Y-3.2048
X3.905Y-2.865
X3.905Y-2.98
X3.9125Y-2.565
X3.915Y-2.41
X3.9275Y-3.12
X3.9275Y-3.225
X3.9275Y-3.3075
X3.9275Y-3.3875
X3.9275Y-3.47
X3.9275Y-3.5975
X3.93Y-3.735
T2
X2.41Y-2.27
X3.17Y-2.59
X3.35Y-2.55
X3.35Y-2.65
X3.54Y-2.79
T3
X3.8787Y-2.2308
X3.8787Y-2.3292
T4
X2.3Y-2.
X2.3Y-2.1
X2.3Y-3.8
X2.3Y-3.9
X2.4Y-2.
X2.4Y-2.1
X2.4Y-3.8
X2.4Y-3.9
X2.5Y-2.
X2.5Y-2.1
X2.5Y-3.8
X2.5Y-3.9
X2.6Y-2.
X2.6Y-2.1
X2.6Y-3.8
X2.6Y-3.9
X2.7Y-2.
X2.7Y-2.1
X2.7Y-3.8
X2.7Y-3.9
X2.8Y-2.
X2.8Y-2.1
X2.8Y-3.8
X2.8Y-3.9
X2.9Y-2.
X2.9Y-2.1
X2.9Y-3.8
X2.9Y-3.9
X3.Y-2.
X3.Y-2.1
X3.Y-3.8
X3.Y-3.9
X3.1Y-2.
X3.1Y-2.1
X3.1Y-3.8
X3.1Y-3.9
X3.2Y-2.
X3.2Y-2.1
X3.2Y-3.8
X3.2Y-3.9
X3.3Y-2.
X3.3Y-2.1
X3.3Y-3.8
X3.3Y-3.9
X3.4Y-2.
X3.4Y-2.1
X3.4Y-3.8
X3.4Y-3.9
X3.5Y-2.
X3.5Y-2.1
X3.5Y-3.8
X3.5Y-3.9
X3.6Y-2.
X3.6Y-2.1
X3.6Y-3.8
X3.6Y-3.9
T5
X3.7Y-2.23
X3.7Y-2.33
T6
X2.11Y-2.7036
X2.11Y-3.6564
T7
X2.Y-3.9
X3.9Y-2.
T0
M30
