G04 (created by PCBNEW (2013-mar-13)-testing) date Mon 16 Sep 2013 05:27:24 PM CEST*
%MOIN*%
G04 Gerber Fmt 3.4, Leading zero omitted, Abs format*
%FSLAX34Y34*%
G01*
G70*
G90*
G04 APERTURE LIST*
%ADD10C,0.005906*%
%ADD11C,0.015000*%
%ADD12C,0.012000*%
%ADD13R,0.025000X0.045000*%
%ADD14R,0.045000X0.025000*%
%ADD15R,0.055000X0.035000*%
%ADD16R,0.035000X0.055000*%
%ADD17R,0.036000X0.036000*%
%ADD18R,0.009843X0.033465*%
%ADD19R,0.033465X0.009843*%
%ADD20R,0.135827X0.135827*%
%ADD21R,0.047244X0.055118*%
%ADD22R,0.086600X0.066929*%
%ADD23C,0.019685*%
%ADD24R,0.086614X0.023622*%
%ADD25R,0.086614X0.137795*%
%ADD26R,0.078740X0.118110*%
G04 APERTURE END LIST*
G54D10*
G54D11*
X26500Y-23000D02*
X45500Y-23000D01*
X24500Y-25000D02*
X24500Y-44000D01*
X39500Y-44000D02*
X24500Y-44000D01*
X45500Y-23000D02*
X45500Y-42000D01*
X40000Y-42000D02*
G75*
G03X39500Y-42500I0J-500D01*
G74*
G01*
X39500Y-44000D02*
X39500Y-42500D01*
X45500Y-42000D02*
X40000Y-42000D01*
X25500Y-25000D02*
G75*
G03X26500Y-24000I0J1000D01*
G74*
G01*
X24500Y-25000D02*
X25500Y-25000D01*
X26500Y-23000D02*
X26500Y-24000D01*
G54D12*
X48701Y-35671D02*
X48701Y-35957D01*
X49082Y-35985D01*
X49044Y-35957D01*
X49006Y-35900D01*
X49006Y-35757D01*
X49044Y-35700D01*
X49082Y-35671D01*
X49159Y-35642D01*
X49349Y-35642D01*
X49425Y-35671D01*
X49463Y-35700D01*
X49501Y-35757D01*
X49501Y-35900D01*
X49463Y-35957D01*
X49425Y-35985D01*
X48701Y-35442D02*
X48701Y-35071D01*
X49006Y-35271D01*
X49006Y-35185D01*
X49044Y-35128D01*
X49082Y-35100D01*
X49159Y-35071D01*
X49349Y-35071D01*
X49425Y-35100D01*
X49463Y-35128D01*
X49501Y-35185D01*
X49501Y-35357D01*
X49463Y-35414D01*
X49425Y-35442D01*
X49425Y-34814D02*
X49463Y-34785D01*
X49501Y-34814D01*
X49463Y-34842D01*
X49425Y-34814D01*
X49501Y-34814D01*
X48701Y-34585D02*
X48701Y-34214D01*
X49006Y-34414D01*
X49006Y-34328D01*
X49044Y-34271D01*
X49082Y-34242D01*
X49159Y-34214D01*
X49349Y-34214D01*
X49425Y-34242D01*
X49463Y-34271D01*
X49501Y-34328D01*
X49501Y-34500D01*
X49463Y-34557D01*
X49425Y-34585D01*
X48968Y-33700D02*
X49501Y-33700D01*
X48663Y-33842D02*
X49235Y-33985D01*
X49235Y-33614D01*
X48701Y-33271D02*
X48701Y-33214D01*
X48740Y-33157D01*
X48778Y-33128D01*
X48854Y-33100D01*
X49006Y-33071D01*
X49197Y-33071D01*
X49349Y-33100D01*
X49425Y-33128D01*
X49463Y-33157D01*
X49501Y-33214D01*
X49501Y-33271D01*
X49463Y-33328D01*
X49425Y-33357D01*
X49349Y-33385D01*
X49197Y-33414D01*
X49006Y-33414D01*
X48854Y-33385D01*
X48778Y-33357D01*
X48740Y-33328D01*
X48701Y-33271D01*
X49501Y-32357D02*
X48968Y-32357D01*
X49044Y-32357D02*
X49006Y-32328D01*
X48968Y-32271D01*
X48968Y-32185D01*
X49006Y-32128D01*
X49082Y-32099D01*
X49501Y-32099D01*
X49082Y-32099D02*
X49006Y-32071D01*
X48968Y-32014D01*
X48968Y-31928D01*
X49006Y-31871D01*
X49082Y-31842D01*
X49501Y-31842D01*
X49501Y-31557D02*
X48968Y-31557D01*
X49044Y-31557D02*
X49006Y-31528D01*
X48968Y-31471D01*
X48968Y-31385D01*
X49006Y-31328D01*
X49082Y-31299D01*
X49501Y-31299D01*
X49082Y-31299D02*
X49006Y-31271D01*
X48968Y-31214D01*
X48968Y-31128D01*
X49006Y-31071D01*
X49082Y-31042D01*
X49501Y-31042D01*
X48500Y-44000D02*
X48500Y-23000D01*
X45500Y-44000D02*
X49780Y-44000D01*
X45500Y-23000D02*
X49780Y-23000D01*
X48500Y-23000D02*
X48730Y-23443D01*
X48500Y-23000D02*
X48269Y-23443D01*
X48500Y-44000D02*
X48730Y-43556D01*
X48500Y-44000D02*
X48269Y-43556D01*
X32828Y-47201D02*
X32542Y-47201D01*
X32514Y-47582D01*
X32542Y-47544D01*
X32599Y-47506D01*
X32742Y-47506D01*
X32799Y-47544D01*
X32828Y-47582D01*
X32857Y-47659D01*
X32857Y-47849D01*
X32828Y-47925D01*
X32799Y-47963D01*
X32742Y-48001D01*
X32599Y-48001D01*
X32542Y-47963D01*
X32514Y-47925D01*
X33057Y-47201D02*
X33428Y-47201D01*
X33228Y-47506D01*
X33314Y-47506D01*
X33371Y-47544D01*
X33399Y-47582D01*
X33428Y-47659D01*
X33428Y-47849D01*
X33399Y-47925D01*
X33371Y-47963D01*
X33314Y-48001D01*
X33142Y-48001D01*
X33085Y-47963D01*
X33057Y-47925D01*
X33685Y-47925D02*
X33714Y-47963D01*
X33685Y-48001D01*
X33657Y-47963D01*
X33685Y-47925D01*
X33685Y-48001D01*
X33914Y-47201D02*
X34285Y-47201D01*
X34085Y-47506D01*
X34171Y-47506D01*
X34228Y-47544D01*
X34257Y-47582D01*
X34285Y-47659D01*
X34285Y-47849D01*
X34257Y-47925D01*
X34228Y-47963D01*
X34171Y-48001D01*
X34000Y-48001D01*
X33942Y-47963D01*
X33914Y-47925D01*
X34800Y-47468D02*
X34800Y-48001D01*
X34657Y-47163D02*
X34514Y-47735D01*
X34885Y-47735D01*
X35228Y-47201D02*
X35285Y-47201D01*
X35342Y-47240D01*
X35371Y-47278D01*
X35400Y-47354D01*
X35428Y-47506D01*
X35428Y-47697D01*
X35400Y-47849D01*
X35371Y-47925D01*
X35342Y-47963D01*
X35285Y-48001D01*
X35228Y-48001D01*
X35171Y-47963D01*
X35142Y-47925D01*
X35114Y-47849D01*
X35085Y-47697D01*
X35085Y-47506D01*
X35114Y-47354D01*
X35142Y-47278D01*
X35171Y-47240D01*
X35228Y-47201D01*
X36142Y-48001D02*
X36142Y-47468D01*
X36142Y-47544D02*
X36171Y-47506D01*
X36228Y-47468D01*
X36314Y-47468D01*
X36371Y-47506D01*
X36400Y-47582D01*
X36400Y-48001D01*
X36400Y-47582D02*
X36428Y-47506D01*
X36485Y-47468D01*
X36571Y-47468D01*
X36628Y-47506D01*
X36657Y-47582D01*
X36657Y-48001D01*
X36942Y-48001D02*
X36942Y-47468D01*
X36942Y-47544D02*
X36971Y-47506D01*
X37028Y-47468D01*
X37114Y-47468D01*
X37171Y-47506D01*
X37200Y-47582D01*
X37200Y-48001D01*
X37200Y-47582D02*
X37228Y-47506D01*
X37285Y-47468D01*
X37371Y-47468D01*
X37428Y-47506D01*
X37457Y-47582D01*
X37457Y-48001D01*
X45500Y-47000D02*
X24500Y-47000D01*
X45500Y-44000D02*
X45500Y-48280D01*
X24500Y-44000D02*
X24500Y-48280D01*
X24500Y-47000D02*
X24943Y-46769D01*
X24500Y-47000D02*
X24943Y-47230D01*
X45500Y-47000D02*
X45056Y-46769D01*
X45500Y-47000D02*
X45056Y-47230D01*
G54D13*
X40900Y-23800D03*
X41500Y-23800D03*
X39800Y-23800D03*
X39200Y-23800D03*
G54D14*
X42200Y-38100D03*
X42200Y-37500D03*
X41200Y-38100D03*
X41200Y-37500D03*
X42200Y-34900D03*
X42200Y-34300D03*
G54D13*
X40800Y-28500D03*
X40200Y-28500D03*
G54D15*
X37100Y-31675D03*
X37100Y-30925D03*
G54D13*
X40800Y-29300D03*
X40200Y-29300D03*
G54D14*
X38000Y-31600D03*
X38000Y-31000D03*
G54D13*
X37500Y-36400D03*
X36900Y-36400D03*
G54D15*
X35900Y-40725D03*
X35900Y-41475D03*
G54D14*
X41600Y-31600D03*
X41600Y-31000D03*
X39800Y-31000D03*
X39800Y-31600D03*
X35500Y-32400D03*
X35500Y-31800D03*
X33800Y-41900D03*
X33800Y-42500D03*
X29600Y-31300D03*
X29600Y-30700D03*
X29600Y-32100D03*
X29600Y-32700D03*
G54D15*
X29600Y-26225D03*
X29600Y-26975D03*
G54D14*
X28600Y-26300D03*
X28600Y-26900D03*
G54D13*
X28500Y-37900D03*
X27900Y-37900D03*
X28500Y-37100D03*
X27900Y-37100D03*
X28500Y-38700D03*
X27900Y-38700D03*
G54D14*
X32800Y-41900D03*
X32800Y-42500D03*
G54D16*
X27725Y-39600D03*
X28475Y-39600D03*
X27725Y-40600D03*
X28475Y-40600D03*
G54D17*
X27200Y-42650D03*
X27200Y-41950D03*
X28000Y-42300D03*
G54D13*
X37600Y-32800D03*
X37000Y-32800D03*
X40800Y-27700D03*
X40200Y-27700D03*
X39600Y-27700D03*
X39000Y-27700D03*
X36900Y-35600D03*
X37500Y-35600D03*
G54D14*
X38800Y-31000D03*
X38800Y-31600D03*
X42400Y-31600D03*
X42400Y-31000D03*
X40600Y-31600D03*
X40600Y-31000D03*
X40100Y-38100D03*
X40100Y-37500D03*
G54D13*
X34600Y-29900D03*
X34000Y-29900D03*
X34600Y-30700D03*
X34000Y-30700D03*
G54D14*
X30200Y-41900D03*
X30200Y-42500D03*
X31800Y-42500D03*
X31800Y-41900D03*
X31000Y-41900D03*
X31000Y-42500D03*
X29400Y-41900D03*
X29400Y-42500D03*
X31600Y-32500D03*
X31600Y-31900D03*
X35000Y-24700D03*
X35000Y-25300D03*
X34200Y-24700D03*
X34200Y-25300D03*
X33400Y-24700D03*
X33400Y-25300D03*
X32600Y-24700D03*
X32600Y-25300D03*
X31800Y-24700D03*
X31800Y-25300D03*
X31000Y-24700D03*
X31000Y-25300D03*
G54D13*
X27900Y-34600D03*
X28500Y-34600D03*
X27900Y-35400D03*
X28500Y-35400D03*
X27900Y-36200D03*
X28500Y-36200D03*
G54D14*
X30800Y-31900D03*
X30800Y-32500D03*
G54D18*
X39207Y-33625D03*
X39404Y-33625D03*
X39601Y-33625D03*
X39011Y-33625D03*
G54D19*
X38725Y-33911D03*
X38725Y-34107D03*
X38725Y-34304D03*
X38725Y-34501D03*
X38725Y-34698D03*
X38725Y-34895D03*
X38725Y-35092D03*
X38725Y-35288D03*
G54D18*
X40388Y-35574D03*
X39011Y-35574D03*
X39207Y-35574D03*
X39404Y-35574D03*
X39601Y-35574D03*
X39798Y-35574D03*
X39995Y-35574D03*
X40192Y-35574D03*
G54D19*
X40674Y-35288D03*
X40674Y-35092D03*
X40674Y-34895D03*
X40674Y-34698D03*
X40674Y-34501D03*
X40674Y-34304D03*
X40674Y-34107D03*
X40674Y-33911D03*
G54D18*
X40388Y-33625D03*
X40192Y-33625D03*
X39995Y-33625D03*
X39798Y-33625D03*
G54D20*
X39700Y-34600D03*
G54D21*
X34634Y-32533D03*
X34634Y-31666D03*
X33965Y-31666D03*
X33965Y-32533D03*
G54D22*
X28500Y-31050D03*
X28500Y-32349D03*
G54D14*
X39000Y-38100D03*
X39000Y-38700D03*
X38000Y-38100D03*
X38000Y-38700D03*
G54D23*
X34247Y-38157D03*
X34247Y-38472D03*
X34247Y-37842D03*
X34247Y-37527D03*
X34247Y-37212D03*
X34247Y-36897D03*
X34247Y-36582D03*
X34247Y-36267D03*
X34247Y-35952D03*
X34247Y-40047D03*
X34247Y-39732D03*
X34247Y-39417D03*
X34247Y-39102D03*
X34247Y-38787D03*
X33932Y-40047D03*
X33932Y-39732D03*
X33932Y-39417D03*
X33932Y-39102D03*
X33932Y-38787D03*
X33932Y-38472D03*
X33932Y-38157D03*
X33932Y-37842D03*
X33932Y-37527D03*
X33932Y-37212D03*
X33932Y-36897D03*
X33932Y-36582D03*
X33932Y-36267D03*
X33932Y-35952D03*
X33617Y-40047D03*
X33617Y-39732D03*
X33617Y-39417D03*
X33617Y-39102D03*
X33617Y-38787D03*
X33617Y-38472D03*
X33617Y-38157D03*
X33617Y-37842D03*
X33617Y-37527D03*
X33617Y-37212D03*
X33617Y-36897D03*
X33617Y-36582D03*
X33617Y-36267D03*
X33617Y-35952D03*
X33302Y-40047D03*
X33302Y-39732D03*
X33302Y-39417D03*
X33302Y-39102D03*
X33302Y-38787D03*
X33302Y-37212D03*
X33302Y-36897D03*
X33302Y-36582D03*
X33302Y-36267D03*
X33302Y-35952D03*
X32987Y-40047D03*
X32987Y-39732D03*
X32987Y-39417D03*
X32987Y-39102D03*
X32987Y-36897D03*
X32987Y-36582D03*
X32987Y-36267D03*
X32987Y-35952D03*
X32672Y-40047D03*
X32672Y-39732D03*
X32672Y-39417D03*
X32672Y-36582D03*
X32672Y-36267D03*
X32672Y-35952D03*
X32357Y-40047D03*
X32357Y-39732D03*
X32357Y-39417D03*
X32357Y-36582D03*
X32357Y-36267D03*
X32357Y-35952D03*
X32042Y-40047D03*
X32042Y-39732D03*
X32042Y-39417D03*
X32042Y-36582D03*
X32042Y-36267D03*
X32042Y-35952D03*
X31727Y-40047D03*
X31727Y-39732D03*
X31727Y-39417D03*
X31727Y-36582D03*
X31727Y-36267D03*
X31727Y-35952D03*
X31412Y-40047D03*
X31412Y-39732D03*
X31412Y-39417D03*
X31412Y-39102D03*
X31412Y-36897D03*
X31412Y-36582D03*
X31412Y-36267D03*
X31412Y-35952D03*
X31097Y-40047D03*
X31097Y-39732D03*
X31097Y-39417D03*
X31097Y-39102D03*
X31097Y-38787D03*
X31097Y-37212D03*
X31097Y-36897D03*
X31097Y-36582D03*
X31097Y-36267D03*
X31097Y-35952D03*
X30782Y-40047D03*
X30782Y-39732D03*
X30782Y-39417D03*
X30782Y-39102D03*
X30782Y-38787D03*
X30782Y-38472D03*
X30782Y-38157D03*
X30782Y-37842D03*
X30782Y-37527D03*
X30782Y-37212D03*
X30782Y-36897D03*
X30782Y-36582D03*
X30782Y-36267D03*
X30782Y-35952D03*
X30467Y-40047D03*
X30467Y-39732D03*
X30467Y-39417D03*
X30467Y-39102D03*
X30467Y-38787D03*
X30467Y-38472D03*
X30467Y-38157D03*
X30467Y-37842D03*
X30467Y-37527D03*
X30467Y-37212D03*
X30467Y-36897D03*
X30467Y-36582D03*
X30467Y-36267D03*
X30467Y-35952D03*
X30152Y-40047D03*
X30152Y-39732D03*
X30152Y-39417D03*
X30152Y-39102D03*
X30152Y-38787D03*
X30152Y-38472D03*
X30152Y-38157D03*
X30152Y-37842D03*
X30152Y-37527D03*
X30152Y-37212D03*
X30152Y-36897D03*
X30152Y-36582D03*
X30152Y-36267D03*
X30152Y-35952D03*
G54D24*
X39779Y-24700D03*
X39779Y-25200D03*
X39779Y-25700D03*
X39779Y-26200D03*
X39779Y-26700D03*
G54D25*
X42220Y-25700D03*
G54D13*
X38200Y-36210D03*
X38800Y-36210D03*
G54D26*
X42181Y-41015D03*
X41000Y-41015D03*
M02*
