G04 (created by PCBNEW (2013-mar-13)-testing) date Mon 16 Sep 2013 05:27:24 PM CEST*
%MOIN*%
G04 Gerber Fmt 3.4, Leading zero omitted, Abs format*
%FSLAX34Y34*%
G01*
G70*
G90*
G04 APERTURE LIST*
%ADD10C,0.005906*%
%ADD11C,0.015000*%
%ADD12C,0.012000*%
%ADD13C,0.148000*%
%ADD14R,0.043000X0.063000*%
%ADD15R,0.053000X0.033000*%
%ADD16R,0.063000X0.043000*%
%ADD17R,0.033000X0.053000*%
%ADD18C,0.039496*%
%ADD19R,0.031600X0.063100*%
%ADD20R,0.047370X0.067055*%
%ADD21C,0.067055*%
%ADD22R,0.055244X0.094614*%
%ADD23R,0.065087X0.086740*%
%ADD24R,0.039496X0.067055*%
%ADD25C,0.067100*%
%ADD26R,0.067100X0.067100*%
G04 APERTURE END LIST*
G54D10*
G54D11*
X26500Y-23000D02*
X45500Y-23000D01*
X24500Y-25000D02*
X24500Y-44000D01*
X39500Y-44000D02*
X24500Y-44000D01*
X45500Y-23000D02*
X45500Y-42000D01*
X40000Y-42000D02*
G75*
G03X39500Y-42500I0J-500D01*
G74*
G01*
X39500Y-44000D02*
X39500Y-42500D01*
X45500Y-42000D02*
X40000Y-42000D01*
X25500Y-25000D02*
G75*
G03X26500Y-24000I0J1000D01*
G74*
G01*
X24500Y-25000D02*
X25500Y-25000D01*
X26500Y-23000D02*
X26500Y-24000D01*
G54D12*
X48701Y-35671D02*
X48701Y-35957D01*
X49082Y-35985D01*
X49044Y-35957D01*
X49006Y-35900D01*
X49006Y-35757D01*
X49044Y-35700D01*
X49082Y-35671D01*
X49159Y-35642D01*
X49349Y-35642D01*
X49425Y-35671D01*
X49463Y-35700D01*
X49501Y-35757D01*
X49501Y-35900D01*
X49463Y-35957D01*
X49425Y-35985D01*
X48701Y-35442D02*
X48701Y-35071D01*
X49006Y-35271D01*
X49006Y-35185D01*
X49044Y-35128D01*
X49082Y-35100D01*
X49159Y-35071D01*
X49349Y-35071D01*
X49425Y-35100D01*
X49463Y-35128D01*
X49501Y-35185D01*
X49501Y-35357D01*
X49463Y-35414D01*
X49425Y-35442D01*
X49425Y-34814D02*
X49463Y-34785D01*
X49501Y-34814D01*
X49463Y-34842D01*
X49425Y-34814D01*
X49501Y-34814D01*
X48701Y-34585D02*
X48701Y-34214D01*
X49006Y-34414D01*
X49006Y-34328D01*
X49044Y-34271D01*
X49082Y-34242D01*
X49159Y-34214D01*
X49349Y-34214D01*
X49425Y-34242D01*
X49463Y-34271D01*
X49501Y-34328D01*
X49501Y-34500D01*
X49463Y-34557D01*
X49425Y-34585D01*
X48968Y-33700D02*
X49501Y-33700D01*
X48663Y-33842D02*
X49235Y-33985D01*
X49235Y-33614D01*
X48701Y-33271D02*
X48701Y-33214D01*
X48740Y-33157D01*
X48778Y-33128D01*
X48854Y-33100D01*
X49006Y-33071D01*
X49197Y-33071D01*
X49349Y-33100D01*
X49425Y-33128D01*
X49463Y-33157D01*
X49501Y-33214D01*
X49501Y-33271D01*
X49463Y-33328D01*
X49425Y-33357D01*
X49349Y-33385D01*
X49197Y-33414D01*
X49006Y-33414D01*
X48854Y-33385D01*
X48778Y-33357D01*
X48740Y-33328D01*
X48701Y-33271D01*
X49501Y-32357D02*
X48968Y-32357D01*
X49044Y-32357D02*
X49006Y-32328D01*
X48968Y-32271D01*
X48968Y-32185D01*
X49006Y-32128D01*
X49082Y-32099D01*
X49501Y-32099D01*
X49082Y-32099D02*
X49006Y-32071D01*
X48968Y-32014D01*
X48968Y-31928D01*
X49006Y-31871D01*
X49082Y-31842D01*
X49501Y-31842D01*
X49501Y-31557D02*
X48968Y-31557D01*
X49044Y-31557D02*
X49006Y-31528D01*
X48968Y-31471D01*
X48968Y-31385D01*
X49006Y-31328D01*
X49082Y-31299D01*
X49501Y-31299D01*
X49082Y-31299D02*
X49006Y-31271D01*
X48968Y-31214D01*
X48968Y-31128D01*
X49006Y-31071D01*
X49082Y-31042D01*
X49501Y-31042D01*
X48500Y-44000D02*
X48500Y-23000D01*
X45500Y-44000D02*
X49780Y-44000D01*
X45500Y-23000D02*
X49780Y-23000D01*
X48500Y-23000D02*
X48730Y-23443D01*
X48500Y-23000D02*
X48269Y-23443D01*
X48500Y-44000D02*
X48730Y-43556D01*
X48500Y-44000D02*
X48269Y-43556D01*
X32828Y-47201D02*
X32542Y-47201D01*
X32514Y-47582D01*
X32542Y-47544D01*
X32599Y-47506D01*
X32742Y-47506D01*
X32799Y-47544D01*
X32828Y-47582D01*
X32857Y-47659D01*
X32857Y-47849D01*
X32828Y-47925D01*
X32799Y-47963D01*
X32742Y-48001D01*
X32599Y-48001D01*
X32542Y-47963D01*
X32514Y-47925D01*
X33057Y-47201D02*
X33428Y-47201D01*
X33228Y-47506D01*
X33314Y-47506D01*
X33371Y-47544D01*
X33399Y-47582D01*
X33428Y-47659D01*
X33428Y-47849D01*
X33399Y-47925D01*
X33371Y-47963D01*
X33314Y-48001D01*
X33142Y-48001D01*
X33085Y-47963D01*
X33057Y-47925D01*
X33685Y-47925D02*
X33714Y-47963D01*
X33685Y-48001D01*
X33657Y-47963D01*
X33685Y-47925D01*
X33685Y-48001D01*
X33914Y-47201D02*
X34285Y-47201D01*
X34085Y-47506D01*
X34171Y-47506D01*
X34228Y-47544D01*
X34257Y-47582D01*
X34285Y-47659D01*
X34285Y-47849D01*
X34257Y-47925D01*
X34228Y-47963D01*
X34171Y-48001D01*
X34000Y-48001D01*
X33942Y-47963D01*
X33914Y-47925D01*
X34800Y-47468D02*
X34800Y-48001D01*
X34657Y-47163D02*
X34514Y-47735D01*
X34885Y-47735D01*
X35228Y-47201D02*
X35285Y-47201D01*
X35342Y-47240D01*
X35371Y-47278D01*
X35400Y-47354D01*
X35428Y-47506D01*
X35428Y-47697D01*
X35400Y-47849D01*
X35371Y-47925D01*
X35342Y-47963D01*
X35285Y-48001D01*
X35228Y-48001D01*
X35171Y-47963D01*
X35142Y-47925D01*
X35114Y-47849D01*
X35085Y-47697D01*
X35085Y-47506D01*
X35114Y-47354D01*
X35142Y-47278D01*
X35171Y-47240D01*
X35228Y-47201D01*
X36142Y-48001D02*
X36142Y-47468D01*
X36142Y-47544D02*
X36171Y-47506D01*
X36228Y-47468D01*
X36314Y-47468D01*
X36371Y-47506D01*
X36400Y-47582D01*
X36400Y-48001D01*
X36400Y-47582D02*
X36428Y-47506D01*
X36485Y-47468D01*
X36571Y-47468D01*
X36628Y-47506D01*
X36657Y-47582D01*
X36657Y-48001D01*
X36942Y-48001D02*
X36942Y-47468D01*
X36942Y-47544D02*
X36971Y-47506D01*
X37028Y-47468D01*
X37114Y-47468D01*
X37171Y-47506D01*
X37200Y-47582D01*
X37200Y-48001D01*
X37200Y-47582D02*
X37228Y-47506D01*
X37285Y-47468D01*
X37371Y-47468D01*
X37428Y-47506D01*
X37457Y-47582D01*
X37457Y-48001D01*
X45500Y-47000D02*
X24500Y-47000D01*
X45500Y-44000D02*
X45500Y-48280D01*
X24500Y-44000D02*
X24500Y-48280D01*
X24500Y-47000D02*
X24943Y-46769D01*
X24500Y-47000D02*
X24943Y-47230D01*
X45500Y-47000D02*
X45056Y-46769D01*
X45500Y-47000D02*
X45056Y-47230D01*
G54D13*
X44500Y-24000D03*
X25500Y-43000D03*
G54D14*
X37125Y-43000D03*
X37875Y-43000D03*
G54D15*
X42200Y-37500D03*
X42200Y-38100D03*
G54D16*
X42200Y-34975D03*
X42200Y-34225D03*
G54D15*
X41200Y-37500D03*
X41200Y-38100D03*
G54D14*
X37575Y-36400D03*
X36825Y-36400D03*
G54D16*
X35900Y-40725D03*
X35900Y-41475D03*
X41600Y-31675D03*
X41600Y-30925D03*
X39800Y-30925D03*
X39800Y-31675D03*
X29200Y-41825D03*
X29200Y-42575D03*
G54D15*
X31100Y-41900D03*
X31100Y-42500D03*
X33800Y-41900D03*
X33800Y-42500D03*
G54D17*
X28500Y-37900D03*
X27900Y-37900D03*
X28500Y-37100D03*
X27900Y-37100D03*
X28500Y-36300D03*
X27900Y-36300D03*
X28500Y-38700D03*
X27900Y-38700D03*
G54D14*
X27725Y-39600D03*
X28475Y-39600D03*
G54D18*
X41800Y-28100D03*
X36600Y-39400D03*
X39000Y-37500D03*
X38000Y-37500D03*
G54D15*
X42200Y-39700D03*
X42200Y-39100D03*
X41200Y-39100D03*
X41200Y-39700D03*
X39100Y-40800D03*
X39100Y-41400D03*
G54D17*
X37200Y-39100D03*
X37800Y-39100D03*
X37800Y-38200D03*
X37200Y-38200D03*
G54D15*
X32800Y-42500D03*
X32800Y-41900D03*
X30200Y-42500D03*
X30200Y-41900D03*
G54D19*
X38250Y-40050D03*
X38250Y-42150D03*
X37750Y-40050D03*
X37250Y-40050D03*
X36750Y-40050D03*
X37750Y-42150D03*
X37250Y-42150D03*
X36750Y-42150D03*
G54D20*
X36390Y-34666D03*
X35406Y-34666D03*
X34422Y-34666D03*
X33772Y-34666D03*
X33123Y-34666D03*
X32453Y-34666D03*
X31469Y-34666D03*
X30485Y-34666D03*
X29530Y-34666D03*
X28861Y-34666D03*
X27542Y-34666D03*
G54D21*
X37463Y-25100D03*
X27936Y-25100D03*
G54D22*
X38369Y-26399D03*
X27345Y-25926D03*
G54D23*
X35577Y-24918D03*
X30222Y-24918D03*
X30222Y-28186D03*
X35577Y-28186D03*
G54D24*
X31640Y-27162D03*
X32073Y-27162D03*
X32506Y-27162D03*
X32939Y-27162D03*
X33372Y-27162D03*
X33805Y-27162D03*
X34238Y-27162D03*
X34671Y-27162D03*
G54D25*
X26500Y-27000D03*
X26500Y-28000D03*
X26500Y-29000D03*
X26500Y-30000D03*
X26500Y-31000D03*
X26500Y-32000D03*
X26500Y-33000D03*
X26500Y-34000D03*
X26500Y-35000D03*
X26500Y-36000D03*
X26500Y-37000D03*
X26500Y-38000D03*
X26500Y-39000D03*
G54D26*
X26500Y-40000D03*
X25500Y-40000D03*
G54D25*
X25500Y-39000D03*
X25500Y-38000D03*
X25500Y-37000D03*
X25500Y-36000D03*
X25500Y-35000D03*
X25500Y-34000D03*
X25500Y-33000D03*
X25500Y-32000D03*
X25500Y-31000D03*
X25500Y-30000D03*
X25500Y-29000D03*
X25500Y-28000D03*
X25500Y-27000D03*
X43500Y-40000D03*
X43500Y-39000D03*
X43500Y-38000D03*
X43500Y-37000D03*
X43500Y-36000D03*
X43500Y-35000D03*
X43500Y-34000D03*
X43500Y-33000D03*
X43500Y-32000D03*
X43500Y-31000D03*
X43500Y-30000D03*
X43500Y-29000D03*
X43500Y-28000D03*
G54D26*
X43500Y-27000D03*
X44500Y-27000D03*
G54D25*
X44500Y-28000D03*
X44500Y-29000D03*
X44500Y-30000D03*
X44500Y-31000D03*
X44500Y-32000D03*
X44500Y-33000D03*
X44500Y-34000D03*
X44500Y-35000D03*
X44500Y-36000D03*
X44500Y-37000D03*
X44500Y-38000D03*
X44500Y-39000D03*
X44500Y-40000D03*
M02*
