G04 (created by PCBNEW (2013-mar-13)-testing) date Mon 16 Sep 2013 05:27:24 PM CEST*
%MOIN*%
G04 Gerber Fmt 3.4, Leading zero omitted, Abs format*
%FSLAX34Y34*%
G01*
G70*
G90*
G04 APERTURE LIST*
%ADD10C,0.005906*%
%ADD11C,0.015000*%
%ADD12C,0.012000*%
%ADD13C,0.007874*%
%ADD14C,0.005000*%
%ADD15C,0.011972*%
%ADD16C,0.006000*%
G04 APERTURE END LIST*
G54D10*
G54D11*
X26500Y-23000D02*
X45500Y-23000D01*
X24500Y-25000D02*
X24500Y-44000D01*
X39500Y-44000D02*
X24500Y-44000D01*
X45500Y-23000D02*
X45500Y-42000D01*
X40000Y-42000D02*
G75*
G03X39500Y-42500I0J-500D01*
G74*
G01*
X39500Y-44000D02*
X39500Y-42500D01*
X45500Y-42000D02*
X40000Y-42000D01*
X25500Y-25000D02*
G75*
G03X26500Y-24000I0J1000D01*
G74*
G01*
X24500Y-25000D02*
X25500Y-25000D01*
X26500Y-23000D02*
X26500Y-24000D01*
G54D12*
X48701Y-35671D02*
X48701Y-35957D01*
X49082Y-35985D01*
X49044Y-35957D01*
X49006Y-35900D01*
X49006Y-35757D01*
X49044Y-35700D01*
X49082Y-35671D01*
X49159Y-35642D01*
X49349Y-35642D01*
X49425Y-35671D01*
X49463Y-35700D01*
X49501Y-35757D01*
X49501Y-35900D01*
X49463Y-35957D01*
X49425Y-35985D01*
X48701Y-35442D02*
X48701Y-35071D01*
X49006Y-35271D01*
X49006Y-35185D01*
X49044Y-35128D01*
X49082Y-35100D01*
X49159Y-35071D01*
X49349Y-35071D01*
X49425Y-35100D01*
X49463Y-35128D01*
X49501Y-35185D01*
X49501Y-35357D01*
X49463Y-35414D01*
X49425Y-35442D01*
X49425Y-34814D02*
X49463Y-34785D01*
X49501Y-34814D01*
X49463Y-34842D01*
X49425Y-34814D01*
X49501Y-34814D01*
X48701Y-34585D02*
X48701Y-34214D01*
X49006Y-34414D01*
X49006Y-34328D01*
X49044Y-34271D01*
X49082Y-34242D01*
X49159Y-34214D01*
X49349Y-34214D01*
X49425Y-34242D01*
X49463Y-34271D01*
X49501Y-34328D01*
X49501Y-34500D01*
X49463Y-34557D01*
X49425Y-34585D01*
X48968Y-33700D02*
X49501Y-33700D01*
X48663Y-33842D02*
X49235Y-33985D01*
X49235Y-33614D01*
X48701Y-33271D02*
X48701Y-33214D01*
X48740Y-33157D01*
X48778Y-33128D01*
X48854Y-33100D01*
X49006Y-33071D01*
X49197Y-33071D01*
X49349Y-33100D01*
X49425Y-33128D01*
X49463Y-33157D01*
X49501Y-33214D01*
X49501Y-33271D01*
X49463Y-33328D01*
X49425Y-33357D01*
X49349Y-33385D01*
X49197Y-33414D01*
X49006Y-33414D01*
X48854Y-33385D01*
X48778Y-33357D01*
X48740Y-33328D01*
X48701Y-33271D01*
X49501Y-32357D02*
X48968Y-32357D01*
X49044Y-32357D02*
X49006Y-32328D01*
X48968Y-32271D01*
X48968Y-32185D01*
X49006Y-32128D01*
X49082Y-32099D01*
X49501Y-32099D01*
X49082Y-32099D02*
X49006Y-32071D01*
X48968Y-32014D01*
X48968Y-31928D01*
X49006Y-31871D01*
X49082Y-31842D01*
X49501Y-31842D01*
X49501Y-31557D02*
X48968Y-31557D01*
X49044Y-31557D02*
X49006Y-31528D01*
X48968Y-31471D01*
X48968Y-31385D01*
X49006Y-31328D01*
X49082Y-31299D01*
X49501Y-31299D01*
X49082Y-31299D02*
X49006Y-31271D01*
X48968Y-31214D01*
X48968Y-31128D01*
X49006Y-31071D01*
X49082Y-31042D01*
X49501Y-31042D01*
X48500Y-44000D02*
X48500Y-23000D01*
X45500Y-44000D02*
X49780Y-44000D01*
X45500Y-23000D02*
X49780Y-23000D01*
X48500Y-23000D02*
X48730Y-23443D01*
X48500Y-23000D02*
X48269Y-23443D01*
X48500Y-44000D02*
X48730Y-43556D01*
X48500Y-44000D02*
X48269Y-43556D01*
X32828Y-47201D02*
X32542Y-47201D01*
X32514Y-47582D01*
X32542Y-47544D01*
X32599Y-47506D01*
X32742Y-47506D01*
X32799Y-47544D01*
X32828Y-47582D01*
X32857Y-47659D01*
X32857Y-47849D01*
X32828Y-47925D01*
X32799Y-47963D01*
X32742Y-48001D01*
X32599Y-48001D01*
X32542Y-47963D01*
X32514Y-47925D01*
X33057Y-47201D02*
X33428Y-47201D01*
X33228Y-47506D01*
X33314Y-47506D01*
X33371Y-47544D01*
X33399Y-47582D01*
X33428Y-47659D01*
X33428Y-47849D01*
X33399Y-47925D01*
X33371Y-47963D01*
X33314Y-48001D01*
X33142Y-48001D01*
X33085Y-47963D01*
X33057Y-47925D01*
X33685Y-47925D02*
X33714Y-47963D01*
X33685Y-48001D01*
X33657Y-47963D01*
X33685Y-47925D01*
X33685Y-48001D01*
X33914Y-47201D02*
X34285Y-47201D01*
X34085Y-47506D01*
X34171Y-47506D01*
X34228Y-47544D01*
X34257Y-47582D01*
X34285Y-47659D01*
X34285Y-47849D01*
X34257Y-47925D01*
X34228Y-47963D01*
X34171Y-48001D01*
X34000Y-48001D01*
X33942Y-47963D01*
X33914Y-47925D01*
X34800Y-47468D02*
X34800Y-48001D01*
X34657Y-47163D02*
X34514Y-47735D01*
X34885Y-47735D01*
X35228Y-47201D02*
X35285Y-47201D01*
X35342Y-47240D01*
X35371Y-47278D01*
X35400Y-47354D01*
X35428Y-47506D01*
X35428Y-47697D01*
X35400Y-47849D01*
X35371Y-47925D01*
X35342Y-47963D01*
X35285Y-48001D01*
X35228Y-48001D01*
X35171Y-47963D01*
X35142Y-47925D01*
X35114Y-47849D01*
X35085Y-47697D01*
X35085Y-47506D01*
X35114Y-47354D01*
X35142Y-47278D01*
X35171Y-47240D01*
X35228Y-47201D01*
X36142Y-48001D02*
X36142Y-47468D01*
X36142Y-47544D02*
X36171Y-47506D01*
X36228Y-47468D01*
X36314Y-47468D01*
X36371Y-47506D01*
X36400Y-47582D01*
X36400Y-48001D01*
X36400Y-47582D02*
X36428Y-47506D01*
X36485Y-47468D01*
X36571Y-47468D01*
X36628Y-47506D01*
X36657Y-47582D01*
X36657Y-48001D01*
X36942Y-48001D02*
X36942Y-47468D01*
X36942Y-47544D02*
X36971Y-47506D01*
X37028Y-47468D01*
X37114Y-47468D01*
X37171Y-47506D01*
X37200Y-47582D01*
X37200Y-48001D01*
X37200Y-47582D02*
X37228Y-47506D01*
X37285Y-47468D01*
X37371Y-47468D01*
X37428Y-47506D01*
X37457Y-47582D01*
X37457Y-48001D01*
X45500Y-47000D02*
X24500Y-47000D01*
X45500Y-44000D02*
X45500Y-48280D01*
X24500Y-44000D02*
X24500Y-48280D01*
X24500Y-47000D02*
X24943Y-46769D01*
X24500Y-47000D02*
X24943Y-47230D01*
X45500Y-47000D02*
X45056Y-46769D01*
X45500Y-47000D02*
X45056Y-47230D01*
G54D13*
X36791Y-43433D02*
X38208Y-43433D01*
X38208Y-43433D02*
X38208Y-42566D01*
X38208Y-42566D02*
X36791Y-42566D01*
X36791Y-42566D02*
X36791Y-43433D01*
X41806Y-37209D02*
X41806Y-38390D01*
X41806Y-38390D02*
X42593Y-38390D01*
X42593Y-38390D02*
X42593Y-37209D01*
X42593Y-37209D02*
X41806Y-37209D01*
X42633Y-35308D02*
X42633Y-33891D01*
X42633Y-33891D02*
X41766Y-33891D01*
X41766Y-33891D02*
X41766Y-35308D01*
X41766Y-35308D02*
X42633Y-35308D01*
X40806Y-37209D02*
X40806Y-38390D01*
X40806Y-38390D02*
X41593Y-38390D01*
X41593Y-38390D02*
X41593Y-37209D01*
X41593Y-37209D02*
X40806Y-37209D01*
X37908Y-35966D02*
X36491Y-35966D01*
X36491Y-35966D02*
X36491Y-36833D01*
X36491Y-36833D02*
X37908Y-36833D01*
X37908Y-36833D02*
X37908Y-35966D01*
X35466Y-40391D02*
X35466Y-41808D01*
X35466Y-41808D02*
X36333Y-41808D01*
X36333Y-41808D02*
X36333Y-40391D01*
X36333Y-40391D02*
X35466Y-40391D01*
X42033Y-32008D02*
X42033Y-30591D01*
X42033Y-30591D02*
X41166Y-30591D01*
X41166Y-30591D02*
X41166Y-32008D01*
X41166Y-32008D02*
X42033Y-32008D01*
X39366Y-30591D02*
X39366Y-32008D01*
X39366Y-32008D02*
X40233Y-32008D01*
X40233Y-32008D02*
X40233Y-30591D01*
X40233Y-30591D02*
X39366Y-30591D01*
X28766Y-41491D02*
X28766Y-42908D01*
X28766Y-42908D02*
X29633Y-42908D01*
X29633Y-42908D02*
X29633Y-41491D01*
X29633Y-41491D02*
X28766Y-41491D01*
X30706Y-41609D02*
X30706Y-42790D01*
X30706Y-42790D02*
X31493Y-42790D01*
X31493Y-42790D02*
X31493Y-41609D01*
X31493Y-41609D02*
X30706Y-41609D01*
X33406Y-41609D02*
X33406Y-42790D01*
X33406Y-42790D02*
X34193Y-42790D01*
X34193Y-42790D02*
X34193Y-41609D01*
X34193Y-41609D02*
X33406Y-41609D01*
X28790Y-37506D02*
X27609Y-37506D01*
X27609Y-37506D02*
X27609Y-38293D01*
X27609Y-38293D02*
X28790Y-38293D01*
X28790Y-38293D02*
X28790Y-37506D01*
X28790Y-36706D02*
X27609Y-36706D01*
X27609Y-36706D02*
X27609Y-37493D01*
X27609Y-37493D02*
X28790Y-37493D01*
X28790Y-37493D02*
X28790Y-36706D01*
X28790Y-35906D02*
X27609Y-35906D01*
X27609Y-35906D02*
X27609Y-36693D01*
X27609Y-36693D02*
X28790Y-36693D01*
X28790Y-36693D02*
X28790Y-35906D01*
X28790Y-38306D02*
X27609Y-38306D01*
X27609Y-38306D02*
X27609Y-39093D01*
X27609Y-39093D02*
X28790Y-39093D01*
X28790Y-39093D02*
X28790Y-38306D01*
X27391Y-40033D02*
X28808Y-40033D01*
X28808Y-40033D02*
X28808Y-39166D01*
X28808Y-39166D02*
X27391Y-39166D01*
X27391Y-39166D02*
X27391Y-40033D01*
X42593Y-39990D02*
X42593Y-38809D01*
X42593Y-38809D02*
X41806Y-38809D01*
X41806Y-38809D02*
X41806Y-39990D01*
X41806Y-39990D02*
X42593Y-39990D01*
X40806Y-38809D02*
X40806Y-39990D01*
X40806Y-39990D02*
X41593Y-39990D01*
X41593Y-39990D02*
X41593Y-38809D01*
X41593Y-38809D02*
X40806Y-38809D01*
X38706Y-40509D02*
X38706Y-41690D01*
X38706Y-41690D02*
X39493Y-41690D01*
X39493Y-41690D02*
X39493Y-40509D01*
X39493Y-40509D02*
X38706Y-40509D01*
X36909Y-39493D02*
X38090Y-39493D01*
X38090Y-39493D02*
X38090Y-38706D01*
X38090Y-38706D02*
X36909Y-38706D01*
X36909Y-38706D02*
X36909Y-39493D01*
X38090Y-37806D02*
X36909Y-37806D01*
X36909Y-37806D02*
X36909Y-38593D01*
X36909Y-38593D02*
X38090Y-38593D01*
X38090Y-38593D02*
X38090Y-37806D01*
X33193Y-42790D02*
X33193Y-41609D01*
X33193Y-41609D02*
X32406Y-41609D01*
X32406Y-41609D02*
X32406Y-42790D01*
X32406Y-42790D02*
X33193Y-42790D01*
X30593Y-42790D02*
X30593Y-41609D01*
X30593Y-41609D02*
X29806Y-41609D01*
X29806Y-41609D02*
X29806Y-42790D01*
X29806Y-42790D02*
X30593Y-42790D01*
G54D14*
X38550Y-41750D02*
X36450Y-41750D01*
X36450Y-40450D02*
X38550Y-40450D01*
X38550Y-40450D02*
X38550Y-41750D01*
X38550Y-40900D02*
X38350Y-40900D01*
X38350Y-40900D02*
X38350Y-41300D01*
X38350Y-41300D02*
X38550Y-41300D01*
X36450Y-40450D02*
X36450Y-41750D01*
G54D13*
X27188Y-34430D02*
X27188Y-26517D01*
X38566Y-26989D02*
X38566Y-34430D01*
X38566Y-34430D02*
X36755Y-34430D01*
X27188Y-25336D02*
X27188Y-23131D01*
X27188Y-23131D02*
X38566Y-23131D01*
X38566Y-23131D02*
X38566Y-25808D01*
G54D11*
X30801Y-28718D02*
X34998Y-28718D01*
X30222Y-24210D02*
X30222Y-23481D01*
X30222Y-23481D02*
X35577Y-23481D01*
X35577Y-24210D02*
X35577Y-23481D01*
X35577Y-27477D02*
X35577Y-25627D01*
X30222Y-27477D02*
X30222Y-25627D01*
G54D12*
X25000Y-26500D02*
X27000Y-26500D01*
X25000Y-40500D02*
X27000Y-40500D01*
X25000Y-39500D02*
X27000Y-39500D01*
G54D15*
X27000Y-40500D02*
X27000Y-26500D01*
X26000Y-40500D02*
X26000Y-26500D01*
X25000Y-40500D02*
X25000Y-26500D01*
G54D12*
X45000Y-40500D02*
X43000Y-40500D01*
X45000Y-26500D02*
X43000Y-26500D01*
X45000Y-27500D02*
X43000Y-27500D01*
G54D15*
X43000Y-26500D02*
X43000Y-40500D01*
X44000Y-26500D02*
X44000Y-40500D01*
X45000Y-26500D02*
X45000Y-40500D01*
G54D14*
X37541Y-43739D02*
X37553Y-43751D01*
X37589Y-43763D01*
X37613Y-43763D01*
X37648Y-43751D01*
X37672Y-43727D01*
X37684Y-43703D01*
X37696Y-43655D01*
X37696Y-43620D01*
X37684Y-43572D01*
X37672Y-43548D01*
X37648Y-43525D01*
X37613Y-43513D01*
X37589Y-43513D01*
X37553Y-43525D01*
X37541Y-43536D01*
X37303Y-43763D02*
X37446Y-43763D01*
X37375Y-43763D02*
X37375Y-43513D01*
X37398Y-43548D01*
X37422Y-43572D01*
X37446Y-43584D01*
X42241Y-37039D02*
X42253Y-37051D01*
X42289Y-37063D01*
X42313Y-37063D01*
X42348Y-37051D01*
X42372Y-37027D01*
X42384Y-37003D01*
X42396Y-36955D01*
X42396Y-36920D01*
X42384Y-36872D01*
X42372Y-36848D01*
X42348Y-36825D01*
X42313Y-36813D01*
X42289Y-36813D01*
X42253Y-36825D01*
X42241Y-36836D01*
X42027Y-36813D02*
X42075Y-36813D01*
X42098Y-36825D01*
X42110Y-36836D01*
X42134Y-36872D01*
X42146Y-36920D01*
X42146Y-37015D01*
X42134Y-37039D01*
X42122Y-37051D01*
X42098Y-37063D01*
X42051Y-37063D01*
X42027Y-37051D01*
X42015Y-37039D01*
X42003Y-37015D01*
X42003Y-36955D01*
X42015Y-36932D01*
X42027Y-36920D01*
X42051Y-36908D01*
X42098Y-36908D01*
X42122Y-36920D01*
X42134Y-36932D01*
X42146Y-36955D01*
X42241Y-33739D02*
X42253Y-33751D01*
X42289Y-33763D01*
X42313Y-33763D01*
X42348Y-33751D01*
X42372Y-33727D01*
X42384Y-33703D01*
X42396Y-33655D01*
X42396Y-33620D01*
X42384Y-33572D01*
X42372Y-33548D01*
X42348Y-33525D01*
X42313Y-33513D01*
X42289Y-33513D01*
X42253Y-33525D01*
X42241Y-33536D01*
X42158Y-33513D02*
X41991Y-33513D01*
X42098Y-33763D01*
X41241Y-37039D02*
X41253Y-37051D01*
X41289Y-37063D01*
X41313Y-37063D01*
X41348Y-37051D01*
X41372Y-37027D01*
X41384Y-37003D01*
X41396Y-36955D01*
X41396Y-36920D01*
X41384Y-36872D01*
X41372Y-36848D01*
X41348Y-36825D01*
X41313Y-36813D01*
X41289Y-36813D01*
X41253Y-36825D01*
X41241Y-36836D01*
X41098Y-36920D02*
X41122Y-36908D01*
X41134Y-36896D01*
X41146Y-36872D01*
X41146Y-36860D01*
X41134Y-36836D01*
X41122Y-36825D01*
X41098Y-36813D01*
X41051Y-36813D01*
X41027Y-36825D01*
X41015Y-36836D01*
X41003Y-36860D01*
X41003Y-36872D01*
X41015Y-36896D01*
X41027Y-36908D01*
X41051Y-36920D01*
X41098Y-36920D01*
X41122Y-36932D01*
X41134Y-36944D01*
X41146Y-36967D01*
X41146Y-37015D01*
X41134Y-37039D01*
X41122Y-37051D01*
X41098Y-37063D01*
X41051Y-37063D01*
X41027Y-37051D01*
X41015Y-37039D01*
X41003Y-37015D01*
X41003Y-36967D01*
X41015Y-36944D01*
X41027Y-36932D01*
X41051Y-36920D01*
X37360Y-35839D02*
X37372Y-35851D01*
X37408Y-35863D01*
X37432Y-35863D01*
X37467Y-35851D01*
X37491Y-35827D01*
X37503Y-35803D01*
X37515Y-35755D01*
X37515Y-35720D01*
X37503Y-35672D01*
X37491Y-35648D01*
X37467Y-35625D01*
X37432Y-35613D01*
X37408Y-35613D01*
X37372Y-35625D01*
X37360Y-35636D01*
X37122Y-35863D02*
X37265Y-35863D01*
X37194Y-35863D02*
X37194Y-35613D01*
X37217Y-35648D01*
X37241Y-35672D01*
X37265Y-35684D01*
X36884Y-35863D02*
X37027Y-35863D01*
X36955Y-35863D02*
X36955Y-35613D01*
X36979Y-35648D01*
X37003Y-35672D01*
X37027Y-35684D01*
X36260Y-42139D02*
X36272Y-42151D01*
X36308Y-42163D01*
X36332Y-42163D01*
X36367Y-42151D01*
X36391Y-42127D01*
X36403Y-42103D01*
X36415Y-42055D01*
X36415Y-42020D01*
X36403Y-41972D01*
X36391Y-41948D01*
X36367Y-41925D01*
X36332Y-41913D01*
X36308Y-41913D01*
X36272Y-41925D01*
X36260Y-41936D01*
X36022Y-42163D02*
X36165Y-42163D01*
X36094Y-42163D02*
X36094Y-41913D01*
X36117Y-41948D01*
X36141Y-41972D01*
X36165Y-41984D01*
X35808Y-41913D02*
X35855Y-41913D01*
X35879Y-41925D01*
X35891Y-41936D01*
X35915Y-41972D01*
X35927Y-42020D01*
X35927Y-42115D01*
X35915Y-42139D01*
X35903Y-42151D01*
X35879Y-42163D01*
X35832Y-42163D01*
X35808Y-42151D01*
X35796Y-42139D01*
X35784Y-42115D01*
X35784Y-42055D01*
X35796Y-42032D01*
X35808Y-42020D01*
X35832Y-42008D01*
X35879Y-42008D01*
X35903Y-42020D01*
X35915Y-42032D01*
X35927Y-42055D01*
X41755Y-30434D02*
X41767Y-30446D01*
X41803Y-30458D01*
X41827Y-30458D01*
X41862Y-30446D01*
X41886Y-30422D01*
X41898Y-30398D01*
X41910Y-30350D01*
X41910Y-30315D01*
X41898Y-30267D01*
X41886Y-30243D01*
X41862Y-30220D01*
X41827Y-30208D01*
X41803Y-30208D01*
X41767Y-30220D01*
X41755Y-30231D01*
X41660Y-30231D02*
X41648Y-30220D01*
X41624Y-30208D01*
X41565Y-30208D01*
X41541Y-30220D01*
X41529Y-30231D01*
X41517Y-30255D01*
X41517Y-30279D01*
X41529Y-30315D01*
X41672Y-30458D01*
X41517Y-30458D01*
X41362Y-30208D02*
X41339Y-30208D01*
X41315Y-30220D01*
X41303Y-30231D01*
X41291Y-30255D01*
X41279Y-30303D01*
X41279Y-30362D01*
X41291Y-30410D01*
X41303Y-30434D01*
X41315Y-30446D01*
X41339Y-30458D01*
X41362Y-30458D01*
X41386Y-30446D01*
X41398Y-30434D01*
X41410Y-30410D01*
X41422Y-30362D01*
X41422Y-30303D01*
X41410Y-30255D01*
X41398Y-30231D01*
X41386Y-30220D01*
X41362Y-30208D01*
X39960Y-30439D02*
X39972Y-30451D01*
X40008Y-30463D01*
X40032Y-30463D01*
X40067Y-30451D01*
X40091Y-30427D01*
X40103Y-30403D01*
X40115Y-30355D01*
X40115Y-30320D01*
X40103Y-30272D01*
X40091Y-30248D01*
X40067Y-30225D01*
X40032Y-30213D01*
X40008Y-30213D01*
X39972Y-30225D01*
X39960Y-30236D01*
X39865Y-30236D02*
X39853Y-30225D01*
X39829Y-30213D01*
X39770Y-30213D01*
X39746Y-30225D01*
X39734Y-30236D01*
X39722Y-30260D01*
X39722Y-30284D01*
X39734Y-30320D01*
X39877Y-30463D01*
X39722Y-30463D01*
X39484Y-30463D02*
X39627Y-30463D01*
X39555Y-30463D02*
X39555Y-30213D01*
X39579Y-30248D01*
X39603Y-30272D01*
X39627Y-30284D01*
X29360Y-43239D02*
X29372Y-43251D01*
X29408Y-43263D01*
X29432Y-43263D01*
X29467Y-43251D01*
X29491Y-43227D01*
X29503Y-43203D01*
X29515Y-43155D01*
X29515Y-43120D01*
X29503Y-43072D01*
X29491Y-43048D01*
X29467Y-43025D01*
X29432Y-43013D01*
X29408Y-43013D01*
X29372Y-43025D01*
X29360Y-43036D01*
X29265Y-43036D02*
X29253Y-43025D01*
X29229Y-43013D01*
X29170Y-43013D01*
X29146Y-43025D01*
X29134Y-43036D01*
X29122Y-43060D01*
X29122Y-43084D01*
X29134Y-43120D01*
X29277Y-43263D01*
X29122Y-43263D01*
X29039Y-43013D02*
X28884Y-43013D01*
X28967Y-43108D01*
X28932Y-43108D01*
X28908Y-43120D01*
X28896Y-43132D01*
X28884Y-43155D01*
X28884Y-43215D01*
X28896Y-43239D01*
X28908Y-43251D01*
X28932Y-43263D01*
X29003Y-43263D01*
X29027Y-43251D01*
X29039Y-43239D01*
X31260Y-43139D02*
X31272Y-43151D01*
X31308Y-43163D01*
X31332Y-43163D01*
X31367Y-43151D01*
X31391Y-43127D01*
X31403Y-43103D01*
X31415Y-43055D01*
X31415Y-43020D01*
X31403Y-42972D01*
X31391Y-42948D01*
X31367Y-42925D01*
X31332Y-42913D01*
X31308Y-42913D01*
X31272Y-42925D01*
X31260Y-42936D01*
X31165Y-42936D02*
X31153Y-42925D01*
X31129Y-42913D01*
X31070Y-42913D01*
X31046Y-42925D01*
X31034Y-42936D01*
X31022Y-42960D01*
X31022Y-42984D01*
X31034Y-43020D01*
X31177Y-43163D01*
X31022Y-43163D01*
X30808Y-42996D02*
X30808Y-43163D01*
X30867Y-42901D02*
X30927Y-43079D01*
X30772Y-43079D01*
X33960Y-43139D02*
X33972Y-43151D01*
X34008Y-43163D01*
X34032Y-43163D01*
X34067Y-43151D01*
X34091Y-43127D01*
X34103Y-43103D01*
X34115Y-43055D01*
X34115Y-43020D01*
X34103Y-42972D01*
X34091Y-42948D01*
X34067Y-42925D01*
X34032Y-42913D01*
X34008Y-42913D01*
X33972Y-42925D01*
X33960Y-42936D01*
X33865Y-42936D02*
X33853Y-42925D01*
X33829Y-42913D01*
X33770Y-42913D01*
X33746Y-42925D01*
X33734Y-42936D01*
X33722Y-42960D01*
X33722Y-42984D01*
X33734Y-43020D01*
X33877Y-43163D01*
X33722Y-43163D01*
X33508Y-42913D02*
X33555Y-42913D01*
X33579Y-42925D01*
X33591Y-42936D01*
X33615Y-42972D01*
X33627Y-43020D01*
X33627Y-43115D01*
X33615Y-43139D01*
X33603Y-43151D01*
X33579Y-43163D01*
X33532Y-43163D01*
X33508Y-43151D01*
X33496Y-43139D01*
X33484Y-43115D01*
X33484Y-43055D01*
X33496Y-43032D01*
X33508Y-43020D01*
X33532Y-43008D01*
X33579Y-43008D01*
X33603Y-43020D01*
X33615Y-43032D01*
X33627Y-43055D01*
X29360Y-37989D02*
X29372Y-38001D01*
X29408Y-38013D01*
X29432Y-38013D01*
X29467Y-38001D01*
X29491Y-37977D01*
X29503Y-37953D01*
X29515Y-37905D01*
X29515Y-37870D01*
X29503Y-37822D01*
X29491Y-37798D01*
X29467Y-37775D01*
X29432Y-37763D01*
X29408Y-37763D01*
X29372Y-37775D01*
X29360Y-37786D01*
X29277Y-37763D02*
X29122Y-37763D01*
X29205Y-37858D01*
X29170Y-37858D01*
X29146Y-37870D01*
X29134Y-37882D01*
X29122Y-37905D01*
X29122Y-37965D01*
X29134Y-37989D01*
X29146Y-38001D01*
X29170Y-38013D01*
X29241Y-38013D01*
X29265Y-38001D01*
X29277Y-37989D01*
X29027Y-37786D02*
X29015Y-37775D01*
X28991Y-37763D01*
X28932Y-37763D01*
X28908Y-37775D01*
X28896Y-37786D01*
X28884Y-37810D01*
X28884Y-37834D01*
X28896Y-37870D01*
X29039Y-38013D01*
X28884Y-38013D01*
X29360Y-37189D02*
X29372Y-37201D01*
X29408Y-37213D01*
X29432Y-37213D01*
X29467Y-37201D01*
X29491Y-37177D01*
X29503Y-37153D01*
X29515Y-37105D01*
X29515Y-37070D01*
X29503Y-37022D01*
X29491Y-36998D01*
X29467Y-36975D01*
X29432Y-36963D01*
X29408Y-36963D01*
X29372Y-36975D01*
X29360Y-36986D01*
X29277Y-36963D02*
X29122Y-36963D01*
X29205Y-37058D01*
X29170Y-37058D01*
X29146Y-37070D01*
X29134Y-37082D01*
X29122Y-37105D01*
X29122Y-37165D01*
X29134Y-37189D01*
X29146Y-37201D01*
X29170Y-37213D01*
X29241Y-37213D01*
X29265Y-37201D01*
X29277Y-37189D01*
X28908Y-37046D02*
X28908Y-37213D01*
X28967Y-36951D02*
X29027Y-37129D01*
X28872Y-37129D01*
X29360Y-36389D02*
X29372Y-36401D01*
X29408Y-36413D01*
X29432Y-36413D01*
X29467Y-36401D01*
X29491Y-36377D01*
X29503Y-36353D01*
X29515Y-36305D01*
X29515Y-36270D01*
X29503Y-36222D01*
X29491Y-36198D01*
X29467Y-36175D01*
X29432Y-36163D01*
X29408Y-36163D01*
X29372Y-36175D01*
X29360Y-36186D01*
X29277Y-36163D02*
X29122Y-36163D01*
X29205Y-36258D01*
X29170Y-36258D01*
X29146Y-36270D01*
X29134Y-36282D01*
X29122Y-36305D01*
X29122Y-36365D01*
X29134Y-36389D01*
X29146Y-36401D01*
X29170Y-36413D01*
X29241Y-36413D01*
X29265Y-36401D01*
X29277Y-36389D01*
X28908Y-36163D02*
X28955Y-36163D01*
X28979Y-36175D01*
X28991Y-36186D01*
X29015Y-36222D01*
X29027Y-36270D01*
X29027Y-36365D01*
X29015Y-36389D01*
X29003Y-36401D01*
X28979Y-36413D01*
X28932Y-36413D01*
X28908Y-36401D01*
X28896Y-36389D01*
X28884Y-36365D01*
X28884Y-36305D01*
X28896Y-36282D01*
X28908Y-36270D01*
X28932Y-36258D01*
X28979Y-36258D01*
X29003Y-36270D01*
X29015Y-36282D01*
X29027Y-36305D01*
X29360Y-38789D02*
X29372Y-38801D01*
X29408Y-38813D01*
X29432Y-38813D01*
X29467Y-38801D01*
X29491Y-38777D01*
X29503Y-38753D01*
X29515Y-38705D01*
X29515Y-38670D01*
X29503Y-38622D01*
X29491Y-38598D01*
X29467Y-38575D01*
X29432Y-38563D01*
X29408Y-38563D01*
X29372Y-38575D01*
X29360Y-38586D01*
X29277Y-38563D02*
X29122Y-38563D01*
X29205Y-38658D01*
X29170Y-38658D01*
X29146Y-38670D01*
X29134Y-38682D01*
X29122Y-38705D01*
X29122Y-38765D01*
X29134Y-38789D01*
X29146Y-38801D01*
X29170Y-38813D01*
X29241Y-38813D01*
X29265Y-38801D01*
X29277Y-38789D01*
X29039Y-38563D02*
X28872Y-38563D01*
X28979Y-38813D01*
X29141Y-39713D02*
X29260Y-39713D01*
X29260Y-39463D01*
X29082Y-39463D02*
X28927Y-39463D01*
X29010Y-39558D01*
X28975Y-39558D01*
X28951Y-39570D01*
X28939Y-39582D01*
X28927Y-39605D01*
X28927Y-39665D01*
X28939Y-39689D01*
X28951Y-39701D01*
X28975Y-39713D01*
X29046Y-39713D01*
X29070Y-39701D01*
X29082Y-39689D01*
X42241Y-38713D02*
X42325Y-38594D01*
X42384Y-38713D02*
X42384Y-38463D01*
X42289Y-38463D01*
X42265Y-38475D01*
X42253Y-38486D01*
X42241Y-38510D01*
X42241Y-38546D01*
X42253Y-38570D01*
X42265Y-38582D01*
X42289Y-38594D01*
X42384Y-38594D01*
X42003Y-38713D02*
X42146Y-38713D01*
X42075Y-38713D02*
X42075Y-38463D01*
X42098Y-38498D01*
X42122Y-38522D01*
X42146Y-38534D01*
X41241Y-38713D02*
X41325Y-38594D01*
X41384Y-38713D02*
X41384Y-38463D01*
X41289Y-38463D01*
X41265Y-38475D01*
X41253Y-38486D01*
X41241Y-38510D01*
X41241Y-38546D01*
X41253Y-38570D01*
X41265Y-38582D01*
X41289Y-38594D01*
X41384Y-38594D01*
X41146Y-38486D02*
X41134Y-38475D01*
X41110Y-38463D01*
X41051Y-38463D01*
X41027Y-38475D01*
X41015Y-38486D01*
X41003Y-38510D01*
X41003Y-38534D01*
X41015Y-38570D01*
X41158Y-38713D01*
X41003Y-38713D01*
X39141Y-42063D02*
X39225Y-41944D01*
X39284Y-42063D02*
X39284Y-41813D01*
X39189Y-41813D01*
X39165Y-41825D01*
X39153Y-41836D01*
X39141Y-41860D01*
X39141Y-41896D01*
X39153Y-41920D01*
X39165Y-41932D01*
X39189Y-41944D01*
X39284Y-41944D01*
X38927Y-41896D02*
X38927Y-42063D01*
X38986Y-41801D02*
X39046Y-41979D01*
X38891Y-41979D01*
X38441Y-39213D02*
X38525Y-39094D01*
X38584Y-39213D02*
X38584Y-38963D01*
X38489Y-38963D01*
X38465Y-38975D01*
X38453Y-38986D01*
X38441Y-39010D01*
X38441Y-39046D01*
X38453Y-39070D01*
X38465Y-39082D01*
X38489Y-39094D01*
X38584Y-39094D01*
X38322Y-39213D02*
X38275Y-39213D01*
X38251Y-39201D01*
X38239Y-39189D01*
X38215Y-39153D01*
X38203Y-39105D01*
X38203Y-39010D01*
X38215Y-38986D01*
X38227Y-38975D01*
X38251Y-38963D01*
X38298Y-38963D01*
X38322Y-38975D01*
X38334Y-38986D01*
X38346Y-39010D01*
X38346Y-39070D01*
X38334Y-39094D01*
X38322Y-39105D01*
X38298Y-39117D01*
X38251Y-39117D01*
X38227Y-39105D01*
X38215Y-39094D01*
X38203Y-39070D01*
X38660Y-38313D02*
X38744Y-38194D01*
X38803Y-38313D02*
X38803Y-38063D01*
X38708Y-38063D01*
X38684Y-38075D01*
X38672Y-38086D01*
X38660Y-38110D01*
X38660Y-38146D01*
X38672Y-38170D01*
X38684Y-38182D01*
X38708Y-38194D01*
X38803Y-38194D01*
X38422Y-38313D02*
X38565Y-38313D01*
X38494Y-38313D02*
X38494Y-38063D01*
X38517Y-38098D01*
X38541Y-38122D01*
X38565Y-38134D01*
X38267Y-38063D02*
X38244Y-38063D01*
X38220Y-38075D01*
X38208Y-38086D01*
X38196Y-38110D01*
X38184Y-38158D01*
X38184Y-38217D01*
X38196Y-38265D01*
X38208Y-38289D01*
X38220Y-38301D01*
X38244Y-38313D01*
X38267Y-38313D01*
X38291Y-38301D01*
X38303Y-38289D01*
X38315Y-38265D01*
X38327Y-38217D01*
X38327Y-38158D01*
X38315Y-38110D01*
X38303Y-38086D01*
X38291Y-38075D01*
X38267Y-38063D01*
X32960Y-43163D02*
X33044Y-43044D01*
X33103Y-43163D02*
X33103Y-42913D01*
X33008Y-42913D01*
X32984Y-42925D01*
X32972Y-42936D01*
X32960Y-42960D01*
X32960Y-42996D01*
X32972Y-43020D01*
X32984Y-43032D01*
X33008Y-43044D01*
X33103Y-43044D01*
X32722Y-43163D02*
X32865Y-43163D01*
X32794Y-43163D02*
X32794Y-42913D01*
X32817Y-42948D01*
X32841Y-42972D01*
X32865Y-42984D01*
X32508Y-42913D02*
X32555Y-42913D01*
X32579Y-42925D01*
X32591Y-42936D01*
X32615Y-42972D01*
X32627Y-43020D01*
X32627Y-43115D01*
X32615Y-43139D01*
X32603Y-43151D01*
X32579Y-43163D01*
X32532Y-43163D01*
X32508Y-43151D01*
X32496Y-43139D01*
X32484Y-43115D01*
X32484Y-43055D01*
X32496Y-43032D01*
X32508Y-43020D01*
X32532Y-43008D01*
X32579Y-43008D01*
X32603Y-43020D01*
X32615Y-43032D01*
X32627Y-43055D01*
X30360Y-43163D02*
X30444Y-43044D01*
X30503Y-43163D02*
X30503Y-42913D01*
X30408Y-42913D01*
X30384Y-42925D01*
X30372Y-42936D01*
X30360Y-42960D01*
X30360Y-42996D01*
X30372Y-43020D01*
X30384Y-43032D01*
X30408Y-43044D01*
X30503Y-43044D01*
X30265Y-42936D02*
X30253Y-42925D01*
X30229Y-42913D01*
X30170Y-42913D01*
X30146Y-42925D01*
X30134Y-42936D01*
X30122Y-42960D01*
X30122Y-42984D01*
X30134Y-43020D01*
X30277Y-43163D01*
X30122Y-43163D01*
X29967Y-42913D02*
X29944Y-42913D01*
X29920Y-42925D01*
X29908Y-42936D01*
X29896Y-42960D01*
X29884Y-43008D01*
X29884Y-43067D01*
X29896Y-43115D01*
X29908Y-43139D01*
X29920Y-43151D01*
X29944Y-43163D01*
X29967Y-43163D01*
X29991Y-43151D01*
X30003Y-43139D01*
X30015Y-43115D01*
X30027Y-43067D01*
X30027Y-43008D01*
X30015Y-42960D01*
X30003Y-42936D01*
X29991Y-42925D01*
X29967Y-42913D01*
G54D16*
X36492Y-39803D02*
X36492Y-40167D01*
X36471Y-40210D01*
X36450Y-40232D01*
X36407Y-40253D01*
X36321Y-40253D01*
X36278Y-40232D01*
X36257Y-40210D01*
X36235Y-40167D01*
X36235Y-39803D01*
X35785Y-40253D02*
X36042Y-40253D01*
X35914Y-40253D02*
X35914Y-39803D01*
X35957Y-39867D01*
X36000Y-39910D01*
X36042Y-39932D01*
X24005Y-10518D02*
X23805Y-10518D01*
X23905Y-10868D02*
X23905Y-10518D01*
X23688Y-10868D02*
X23688Y-10518D01*
X23555Y-10518D01*
X23521Y-10535D01*
X23505Y-10551D01*
X23488Y-10585D01*
X23488Y-10635D01*
X23505Y-10668D01*
X23521Y-10685D01*
X23555Y-10701D01*
X23688Y-10701D01*
X23355Y-10851D02*
X23305Y-10868D01*
X23221Y-10868D01*
X23188Y-10851D01*
X23171Y-10835D01*
X23155Y-10801D01*
X23155Y-10768D01*
X23171Y-10735D01*
X23188Y-10718D01*
X23221Y-10701D01*
X23288Y-10685D01*
X23321Y-10668D01*
X23338Y-10651D01*
X23355Y-10618D01*
X23355Y-10585D01*
X23338Y-10551D01*
X23321Y-10535D01*
X23288Y-10518D01*
X23205Y-10518D01*
X23155Y-10535D01*
X23038Y-10518D02*
X22805Y-10518D01*
X22955Y-10868D01*
X22705Y-10518D02*
X22471Y-10518D01*
X22621Y-10868D01*
X22288Y-10668D02*
X22321Y-10651D01*
X22338Y-10635D01*
X22355Y-10601D01*
X22355Y-10585D01*
X22338Y-10551D01*
X22321Y-10535D01*
X22288Y-10518D01*
X22221Y-10518D01*
X22188Y-10535D01*
X22171Y-10551D01*
X22155Y-10585D01*
X22155Y-10601D01*
X22171Y-10635D01*
X22188Y-10651D01*
X22221Y-10668D01*
X22288Y-10668D01*
X22321Y-10685D01*
X22338Y-10701D01*
X22355Y-10735D01*
X22355Y-10801D01*
X22338Y-10835D01*
X22321Y-10851D01*
X22288Y-10868D01*
X22221Y-10868D01*
X22188Y-10851D01*
X22171Y-10835D01*
X22155Y-10801D01*
X22155Y-10735D01*
X22171Y-10701D01*
X22188Y-10685D01*
X22221Y-10668D01*
X21938Y-10518D02*
X21904Y-10518D01*
X21871Y-10535D01*
X21854Y-10551D01*
X21838Y-10585D01*
X21821Y-10651D01*
X21821Y-10735D01*
X21838Y-10801D01*
X21854Y-10835D01*
X21871Y-10851D01*
X21904Y-10868D01*
X21938Y-10868D01*
X21971Y-10851D01*
X21988Y-10835D01*
X22004Y-10801D01*
X22021Y-10735D01*
X22021Y-10651D01*
X22004Y-10585D01*
X21988Y-10551D01*
X21971Y-10535D01*
X21938Y-10518D01*
X21488Y-10868D02*
X21688Y-10868D01*
X21588Y-10868D02*
X21588Y-10518D01*
X21621Y-10568D01*
X21654Y-10601D01*
X21688Y-10618D01*
G54D12*
X37957Y-26071D02*
X37957Y-26557D01*
X37928Y-26614D01*
X37900Y-26642D01*
X37842Y-26671D01*
X37728Y-26671D01*
X37671Y-26642D01*
X37642Y-26614D01*
X37614Y-26557D01*
X37614Y-26071D01*
X37071Y-26071D02*
X37185Y-26071D01*
X37242Y-26100D01*
X37271Y-26128D01*
X37328Y-26214D01*
X37357Y-26328D01*
X37357Y-26557D01*
X37328Y-26614D01*
X37300Y-26642D01*
X37242Y-26671D01*
X37128Y-26671D01*
X37071Y-26642D01*
X37042Y-26614D01*
X37014Y-26557D01*
X37014Y-26414D01*
X37042Y-26357D01*
X37071Y-26328D01*
X37128Y-26300D01*
X37242Y-26300D01*
X37300Y-26328D01*
X37328Y-26357D01*
X37357Y-26414D01*
X26561Y-9552D02*
X26475Y-9581D01*
X26332Y-9581D01*
X26275Y-9552D01*
X26247Y-9524D01*
X26218Y-9467D01*
X26218Y-9410D01*
X26247Y-9352D01*
X26275Y-9324D01*
X26332Y-9295D01*
X26447Y-9267D01*
X26504Y-9238D01*
X26532Y-9210D01*
X26561Y-9152D01*
X26561Y-9095D01*
X26532Y-9038D01*
X26504Y-9010D01*
X26447Y-8981D01*
X26304Y-8981D01*
X26218Y-9010D01*
X25961Y-9581D02*
X25961Y-8981D01*
X25818Y-8981D01*
X25732Y-9010D01*
X25675Y-9067D01*
X25647Y-9124D01*
X25618Y-9238D01*
X25618Y-9324D01*
X25647Y-9438D01*
X25675Y-9495D01*
X25732Y-9552D01*
X25818Y-9581D01*
X25961Y-9581D01*
X35107Y-24571D02*
X35107Y-25057D01*
X35078Y-25114D01*
X35050Y-25142D01*
X34992Y-25171D01*
X34878Y-25171D01*
X34821Y-25142D01*
X34792Y-25114D01*
X34764Y-25057D01*
X34764Y-24571D01*
X34535Y-24571D02*
X34135Y-24571D01*
X34392Y-25171D01*
X40331Y-10611D02*
X40331Y-10011D01*
X40131Y-10440D01*
X39931Y-10011D01*
X39931Y-10611D01*
X39645Y-10611D02*
X39645Y-10011D01*
X39017Y-10554D02*
X39045Y-10582D01*
X39131Y-10611D01*
X39188Y-10611D01*
X39274Y-10582D01*
X39331Y-10525D01*
X39360Y-10468D01*
X39388Y-10354D01*
X39388Y-10268D01*
X39360Y-10154D01*
X39331Y-10097D01*
X39274Y-10040D01*
X39188Y-10011D01*
X39131Y-10011D01*
X39045Y-10040D01*
X39017Y-10068D01*
X38417Y-10611D02*
X38617Y-10325D01*
X38760Y-10611D02*
X38760Y-10011D01*
X38531Y-10011D01*
X38474Y-10040D01*
X38445Y-10068D01*
X38417Y-10125D01*
X38417Y-10211D01*
X38445Y-10268D01*
X38474Y-10297D01*
X38531Y-10325D01*
X38760Y-10325D01*
X38045Y-10011D02*
X37931Y-10011D01*
X37874Y-10040D01*
X37817Y-10097D01*
X37788Y-10211D01*
X37788Y-10411D01*
X37817Y-10525D01*
X37874Y-10582D01*
X37931Y-10611D01*
X38045Y-10611D01*
X38102Y-10582D01*
X38160Y-10525D01*
X38188Y-10411D01*
X38188Y-10211D01*
X38160Y-10097D01*
X38102Y-10040D01*
X38045Y-10011D01*
X37674Y-10668D02*
X37217Y-10668D01*
X37102Y-10582D02*
X37017Y-10611D01*
X36874Y-10611D01*
X36817Y-10582D01*
X36788Y-10554D01*
X36760Y-10497D01*
X36760Y-10440D01*
X36788Y-10382D01*
X36817Y-10354D01*
X36874Y-10325D01*
X36988Y-10297D01*
X37045Y-10268D01*
X37074Y-10240D01*
X37102Y-10182D01*
X37102Y-10125D01*
X37074Y-10068D01*
X37045Y-10040D01*
X36988Y-10011D01*
X36845Y-10011D01*
X36760Y-10040D01*
X36502Y-10611D02*
X36502Y-10011D01*
X36360Y-10011D01*
X36274Y-10040D01*
X36217Y-10097D01*
X36188Y-10154D01*
X36160Y-10268D01*
X36160Y-10354D01*
X36188Y-10468D01*
X36217Y-10525D01*
X36274Y-10582D01*
X36360Y-10611D01*
X36502Y-10611D01*
M02*
