G04 (created by PCBNEW (2013-mar-13)-testing) date Wed 04 Sep 2013 11:16:51 AM CEST*
%MOIN*%
G04 Gerber Fmt 3.4, Leading zero omitted, Abs format*
%FSLAX34Y34*%
G01*
G70*
G90*
G04 APERTURE LIST*
%ADD10C,0.005906*%
%ADD11C,0.015000*%
%ADD12C,0.012000*%
%ADD13R,0.045000X0.025000*%
%ADD14R,0.025000X0.045000*%
%ADD15R,0.035000X0.055000*%
%ADD16R,0.055000X0.035000*%
%ADD17R,0.036000X0.036000*%
%ADD18R,0.033465X0.009843*%
%ADD19R,0.009843X0.033465*%
%ADD20R,0.135827X0.135827*%
%ADD21R,0.055118X0.047244*%
%ADD22R,0.066929X0.086600*%
%ADD23C,0.019685*%
%ADD24R,0.023622X0.086614*%
%ADD25R,0.137795X0.086614*%
G04 APERTURE END LIST*
G54D10*
G54D11*
X40000Y-38000D02*
X40000Y-19000D01*
X39500Y-38000D02*
X40000Y-38000D01*
X38000Y-39500D02*
X38000Y-40000D01*
X38000Y-40000D02*
X19000Y-40000D01*
X19000Y-40000D02*
X19000Y-21000D01*
X19000Y-21000D02*
X19500Y-21000D01*
X21000Y-19000D02*
X21000Y-19500D01*
X21000Y-19000D02*
X40000Y-19000D01*
X39000Y-38000D02*
X39500Y-38000D01*
X21000Y-20000D02*
X21000Y-19500D01*
X20000Y-21000D02*
X19500Y-21000D01*
X38000Y-39000D02*
X38000Y-39500D01*
X39000Y-38000D02*
G75*
G03X38000Y-39000I0J-1000D01*
G74*
G01*
X20000Y-21000D02*
G75*
G03X21000Y-20000I0J1000D01*
G74*
G01*
G54D12*
X44077Y-27328D02*
X44077Y-27042D01*
X43696Y-27014D01*
X43734Y-27042D01*
X43772Y-27099D01*
X43772Y-27242D01*
X43734Y-27299D01*
X43696Y-27328D01*
X43619Y-27357D01*
X43429Y-27357D01*
X43353Y-27328D01*
X43315Y-27299D01*
X43277Y-27242D01*
X43277Y-27099D01*
X43315Y-27042D01*
X43353Y-27014D01*
X44077Y-27557D02*
X44077Y-27928D01*
X43772Y-27728D01*
X43772Y-27814D01*
X43734Y-27871D01*
X43696Y-27899D01*
X43619Y-27928D01*
X43429Y-27928D01*
X43353Y-27899D01*
X43315Y-27871D01*
X43277Y-27814D01*
X43277Y-27642D01*
X43315Y-27585D01*
X43353Y-27557D01*
X43315Y-28214D02*
X43277Y-28214D01*
X43200Y-28185D01*
X43162Y-28157D01*
X44077Y-28414D02*
X44077Y-28785D01*
X43772Y-28585D01*
X43772Y-28671D01*
X43734Y-28728D01*
X43696Y-28757D01*
X43619Y-28785D01*
X43429Y-28785D01*
X43353Y-28757D01*
X43315Y-28728D01*
X43277Y-28671D01*
X43277Y-28500D01*
X43315Y-28442D01*
X43353Y-28414D01*
X43810Y-29300D02*
X43277Y-29300D01*
X44115Y-29157D02*
X43543Y-29014D01*
X43543Y-29385D01*
X44077Y-29728D02*
X44077Y-29785D01*
X44039Y-29842D01*
X44000Y-29871D01*
X43924Y-29900D01*
X43772Y-29928D01*
X43581Y-29928D01*
X43429Y-29900D01*
X43353Y-29871D01*
X43315Y-29842D01*
X43277Y-29785D01*
X43277Y-29728D01*
X43315Y-29671D01*
X43353Y-29642D01*
X43429Y-29614D01*
X43581Y-29585D01*
X43772Y-29585D01*
X43924Y-29614D01*
X44000Y-29642D01*
X44039Y-29671D01*
X44077Y-29728D01*
X43277Y-30642D02*
X43810Y-30642D01*
X43734Y-30642D02*
X43772Y-30671D01*
X43810Y-30728D01*
X43810Y-30814D01*
X43772Y-30871D01*
X43696Y-30900D01*
X43277Y-30900D01*
X43696Y-30900D02*
X43772Y-30928D01*
X43810Y-30985D01*
X43810Y-31071D01*
X43772Y-31128D01*
X43696Y-31157D01*
X43277Y-31157D01*
X43277Y-31442D02*
X43810Y-31442D01*
X43734Y-31442D02*
X43772Y-31471D01*
X43810Y-31528D01*
X43810Y-31614D01*
X43772Y-31671D01*
X43696Y-31700D01*
X43277Y-31700D01*
X43696Y-31700D02*
X43772Y-31728D01*
X43810Y-31785D01*
X43810Y-31871D01*
X43772Y-31928D01*
X43696Y-31957D01*
X43277Y-31957D01*
X42999Y-19000D02*
X42999Y-40000D01*
X40000Y-19000D02*
X44279Y-19000D01*
X40000Y-40000D02*
X44279Y-40000D01*
X42999Y-40000D02*
X42769Y-39557D01*
X42999Y-40000D02*
X43229Y-39557D01*
X42999Y-19000D02*
X42769Y-19443D01*
X42999Y-19000D02*
X43229Y-19443D01*
X27328Y-43200D02*
X27042Y-43200D01*
X27014Y-43581D01*
X27042Y-43543D01*
X27099Y-43505D01*
X27242Y-43505D01*
X27299Y-43543D01*
X27328Y-43581D01*
X27357Y-43658D01*
X27357Y-43848D01*
X27328Y-43924D01*
X27299Y-43962D01*
X27242Y-44000D01*
X27099Y-44000D01*
X27042Y-43962D01*
X27014Y-43924D01*
X27557Y-43200D02*
X27928Y-43200D01*
X27728Y-43505D01*
X27814Y-43505D01*
X27871Y-43543D01*
X27899Y-43581D01*
X27928Y-43658D01*
X27928Y-43848D01*
X27899Y-43924D01*
X27871Y-43962D01*
X27814Y-44000D01*
X27642Y-44000D01*
X27585Y-43962D01*
X27557Y-43924D01*
X28214Y-43962D02*
X28214Y-44000D01*
X28185Y-44077D01*
X28157Y-44115D01*
X28414Y-43200D02*
X28785Y-43200D01*
X28585Y-43505D01*
X28671Y-43505D01*
X28728Y-43543D01*
X28757Y-43581D01*
X28785Y-43658D01*
X28785Y-43848D01*
X28757Y-43924D01*
X28728Y-43962D01*
X28671Y-44000D01*
X28500Y-44000D01*
X28442Y-43962D01*
X28414Y-43924D01*
X29300Y-43467D02*
X29300Y-44000D01*
X29157Y-43162D02*
X29014Y-43734D01*
X29385Y-43734D01*
X29728Y-43200D02*
X29785Y-43200D01*
X29842Y-43239D01*
X29871Y-43277D01*
X29900Y-43353D01*
X29928Y-43505D01*
X29928Y-43696D01*
X29900Y-43848D01*
X29871Y-43924D01*
X29842Y-43962D01*
X29785Y-44000D01*
X29728Y-44000D01*
X29671Y-43962D01*
X29642Y-43924D01*
X29614Y-43848D01*
X29585Y-43696D01*
X29585Y-43505D01*
X29614Y-43353D01*
X29642Y-43277D01*
X29671Y-43239D01*
X29728Y-43200D01*
X30642Y-44000D02*
X30642Y-43467D01*
X30642Y-43543D02*
X30671Y-43505D01*
X30728Y-43467D01*
X30814Y-43467D01*
X30871Y-43505D01*
X30900Y-43581D01*
X30900Y-44000D01*
X30900Y-43581D02*
X30928Y-43505D01*
X30985Y-43467D01*
X31071Y-43467D01*
X31128Y-43505D01*
X31157Y-43581D01*
X31157Y-44000D01*
X31442Y-44000D02*
X31442Y-43467D01*
X31442Y-43543D02*
X31471Y-43505D01*
X31528Y-43467D01*
X31614Y-43467D01*
X31671Y-43505D01*
X31700Y-43581D01*
X31700Y-44000D01*
X31700Y-43581D02*
X31728Y-43505D01*
X31785Y-43467D01*
X31871Y-43467D01*
X31928Y-43505D01*
X31957Y-43581D01*
X31957Y-44000D01*
X19000Y-42999D02*
X40000Y-42999D01*
X19000Y-40000D02*
X19000Y-44279D01*
X40000Y-40000D02*
X40000Y-44279D01*
X40000Y-42999D02*
X39557Y-43229D01*
X40000Y-42999D02*
X39557Y-42769D01*
X19000Y-42999D02*
X19443Y-43229D01*
X19000Y-42999D02*
X19443Y-42769D01*
G54D13*
X19800Y-23600D03*
X19800Y-23000D03*
X19800Y-24700D03*
X19800Y-25300D03*
G54D14*
X34100Y-22300D03*
X33500Y-22300D03*
X34100Y-23300D03*
X33500Y-23300D03*
X30900Y-22300D03*
X30300Y-22300D03*
G54D13*
X24500Y-23700D03*
X24500Y-24300D03*
G54D15*
X27675Y-27400D03*
X26925Y-27400D03*
G54D13*
X25300Y-23700D03*
X25300Y-24300D03*
G54D14*
X27600Y-26500D03*
X27000Y-26500D03*
G54D13*
X32400Y-27000D03*
X32400Y-27600D03*
G54D15*
X36725Y-28600D03*
X37475Y-28600D03*
G54D14*
X27600Y-22900D03*
X27000Y-22900D03*
X27000Y-24700D03*
X27600Y-24700D03*
X28400Y-29000D03*
X27800Y-29000D03*
X37900Y-30700D03*
X38500Y-30700D03*
X27300Y-34900D03*
X26700Y-34900D03*
X28100Y-34900D03*
X28700Y-34900D03*
G54D15*
X22225Y-34900D03*
X22975Y-34900D03*
G54D14*
X22300Y-35900D03*
X22900Y-35900D03*
G54D13*
X33900Y-36000D03*
X33900Y-36600D03*
X33100Y-36000D03*
X33100Y-36600D03*
X34700Y-36000D03*
X34700Y-36600D03*
G54D14*
X37900Y-31700D03*
X38500Y-31700D03*
G54D16*
X35600Y-36775D03*
X35600Y-36025D03*
X36600Y-36775D03*
X36600Y-36025D03*
G54D17*
X38650Y-37300D03*
X37950Y-37300D03*
X38300Y-36500D03*
G54D13*
X28800Y-26900D03*
X28800Y-27500D03*
X23700Y-23700D03*
X23700Y-24300D03*
X23700Y-24900D03*
X23700Y-25500D03*
X31600Y-27600D03*
X31600Y-27000D03*
G54D14*
X27000Y-25700D03*
X27600Y-25700D03*
X27600Y-22100D03*
X27000Y-22100D03*
X27600Y-23900D03*
X27000Y-23900D03*
X34100Y-24400D03*
X33500Y-24400D03*
G54D13*
X25900Y-29900D03*
X25900Y-30500D03*
X26700Y-29900D03*
X26700Y-30500D03*
G54D14*
X37900Y-34300D03*
X38500Y-34300D03*
X38500Y-32700D03*
X37900Y-32700D03*
X37900Y-33500D03*
X38500Y-33500D03*
X37900Y-35100D03*
X38500Y-35100D03*
X28500Y-32900D03*
X27900Y-32900D03*
X20700Y-29500D03*
X21300Y-29500D03*
X20700Y-30300D03*
X21300Y-30300D03*
X20700Y-31100D03*
X21300Y-31100D03*
X20700Y-31900D03*
X21300Y-31900D03*
X20700Y-32700D03*
X21300Y-32700D03*
X20700Y-33500D03*
X21300Y-33500D03*
G54D13*
X30600Y-36600D03*
X30600Y-36000D03*
X31400Y-36600D03*
X31400Y-36000D03*
X32200Y-36600D03*
X32200Y-36000D03*
G54D14*
X27900Y-33700D03*
X28500Y-33700D03*
G54D18*
X29625Y-25292D03*
X29625Y-25095D03*
X29625Y-24898D03*
X29625Y-25488D03*
G54D19*
X29911Y-25774D03*
X30107Y-25774D03*
X30304Y-25774D03*
X30501Y-25774D03*
X30698Y-25774D03*
X30895Y-25774D03*
X31092Y-25774D03*
X31288Y-25774D03*
G54D18*
X31574Y-24111D03*
X31574Y-25488D03*
X31574Y-25292D03*
X31574Y-25095D03*
X31574Y-24898D03*
X31574Y-24701D03*
X31574Y-24504D03*
X31574Y-24307D03*
G54D19*
X31288Y-23825D03*
X31092Y-23825D03*
X30895Y-23825D03*
X30698Y-23825D03*
X30501Y-23825D03*
X30304Y-23825D03*
X30107Y-23825D03*
X29911Y-23825D03*
G54D18*
X29625Y-24111D03*
X29625Y-24307D03*
X29625Y-24504D03*
X29625Y-24701D03*
G54D20*
X30600Y-24800D03*
G54D21*
X28533Y-29865D03*
X27666Y-29865D03*
X27666Y-30534D03*
X28533Y-30534D03*
G54D22*
X27050Y-36000D03*
X28349Y-36000D03*
G54D14*
X34100Y-25500D03*
X34700Y-25500D03*
X34100Y-26500D03*
X34700Y-26500D03*
G54D23*
X34157Y-30252D03*
X34472Y-30252D03*
X33842Y-30252D03*
X33527Y-30252D03*
X33212Y-30252D03*
X32897Y-30252D03*
X32582Y-30252D03*
X32267Y-30252D03*
X31952Y-30252D03*
X36047Y-30252D03*
X35732Y-30252D03*
X35417Y-30252D03*
X35102Y-30252D03*
X34787Y-30252D03*
X36047Y-30567D03*
X35732Y-30567D03*
X35417Y-30567D03*
X35102Y-30567D03*
X34787Y-30567D03*
X34472Y-30567D03*
X34157Y-30567D03*
X33842Y-30567D03*
X33527Y-30567D03*
X33212Y-30567D03*
X32897Y-30567D03*
X32582Y-30567D03*
X32267Y-30567D03*
X31952Y-30567D03*
X36047Y-30882D03*
X35732Y-30882D03*
X35417Y-30882D03*
X35102Y-30882D03*
X34787Y-30882D03*
X34472Y-30882D03*
X34157Y-30882D03*
X33842Y-30882D03*
X33527Y-30882D03*
X33212Y-30882D03*
X32897Y-30882D03*
X32582Y-30882D03*
X32267Y-30882D03*
X31952Y-30882D03*
X36047Y-31197D03*
X35732Y-31197D03*
X35417Y-31197D03*
X35102Y-31197D03*
X34787Y-31197D03*
X33212Y-31197D03*
X32897Y-31197D03*
X32582Y-31197D03*
X32267Y-31197D03*
X31952Y-31197D03*
X36047Y-31512D03*
X35732Y-31512D03*
X35417Y-31512D03*
X35102Y-31512D03*
X32897Y-31512D03*
X32582Y-31512D03*
X32267Y-31512D03*
X31952Y-31512D03*
X36047Y-31827D03*
X35732Y-31827D03*
X35417Y-31827D03*
X32582Y-31827D03*
X32267Y-31827D03*
X31952Y-31827D03*
X36047Y-32142D03*
X35732Y-32142D03*
X35417Y-32142D03*
X32582Y-32142D03*
X32267Y-32142D03*
X31952Y-32142D03*
X36047Y-32457D03*
X35732Y-32457D03*
X35417Y-32457D03*
X32582Y-32457D03*
X32267Y-32457D03*
X31952Y-32457D03*
X36047Y-32772D03*
X35732Y-32772D03*
X35417Y-32772D03*
X32582Y-32772D03*
X32267Y-32772D03*
X31952Y-32772D03*
X36047Y-33087D03*
X35732Y-33087D03*
X35417Y-33087D03*
X35102Y-33087D03*
X32897Y-33087D03*
X32582Y-33087D03*
X32267Y-33087D03*
X31952Y-33087D03*
X36047Y-33402D03*
X35732Y-33402D03*
X35417Y-33402D03*
X35102Y-33402D03*
X34787Y-33402D03*
X33212Y-33402D03*
X32897Y-33402D03*
X32582Y-33402D03*
X32267Y-33402D03*
X31952Y-33402D03*
X36047Y-33717D03*
X35732Y-33717D03*
X35417Y-33717D03*
X35102Y-33717D03*
X34787Y-33717D03*
X34472Y-33717D03*
X34157Y-33717D03*
X33842Y-33717D03*
X33527Y-33717D03*
X33212Y-33717D03*
X32897Y-33717D03*
X32582Y-33717D03*
X32267Y-33717D03*
X31952Y-33717D03*
X36047Y-34032D03*
X35732Y-34032D03*
X35417Y-34032D03*
X35102Y-34032D03*
X34787Y-34032D03*
X34472Y-34032D03*
X34157Y-34032D03*
X33842Y-34032D03*
X33527Y-34032D03*
X33212Y-34032D03*
X32897Y-34032D03*
X32582Y-34032D03*
X32267Y-34032D03*
X31952Y-34032D03*
X36047Y-34347D03*
X35732Y-34347D03*
X35417Y-34347D03*
X35102Y-34347D03*
X34787Y-34347D03*
X34472Y-34347D03*
X34157Y-34347D03*
X33842Y-34347D03*
X33527Y-34347D03*
X33212Y-34347D03*
X32897Y-34347D03*
X32582Y-34347D03*
X32267Y-34347D03*
X31952Y-34347D03*
G54D24*
X20700Y-24720D03*
X21200Y-24720D03*
X21700Y-24720D03*
X22200Y-24720D03*
X22700Y-24720D03*
G54D25*
X21700Y-22279D03*
M02*
