G04 (created by PCBNEW (2013-mar-13)-testing) date Mon 16 Sep 2013 05:27:24 PM CEST*
%MOIN*%
G04 Gerber Fmt 3.4, Leading zero omitted, Abs format*
%FSLAX34Y34*%
G01*
G70*
G90*
G04 APERTURE LIST*
%ADD10C,0.005906*%
%ADD11C,0.015000*%
%ADD12C,0.012000*%
%ADD13C,0.140000*%
%ADD14R,0.035000X0.055000*%
%ADD15R,0.045000X0.025000*%
%ADD16R,0.055000X0.035000*%
%ADD17R,0.025000X0.045000*%
%ADD18C,0.031496*%
%ADD19R,0.023600X0.055100*%
%ADD20R,0.039370X0.059055*%
%ADD21C,0.059055*%
%ADD22R,0.047244X0.086614*%
%ADD23R,0.057087X0.078740*%
%ADD24R,0.031496X0.059055*%
%ADD25C,0.059100*%
%ADD26R,0.059100X0.059100*%
%ADD27C,0.016000*%
%ADD28C,0.004500*%
%ADD29C,0.004504*%
%ADD30C,0.010000*%
G04 APERTURE END LIST*
G54D10*
G54D11*
X26500Y-23000D02*
X45500Y-23000D01*
X24500Y-25000D02*
X24500Y-44000D01*
X39500Y-44000D02*
X24500Y-44000D01*
X45500Y-23000D02*
X45500Y-42000D01*
X40000Y-42000D02*
G75*
G03X39500Y-42500I0J-500D01*
G74*
G01*
X39500Y-44000D02*
X39500Y-42500D01*
X45500Y-42000D02*
X40000Y-42000D01*
X25500Y-25000D02*
G75*
G03X26500Y-24000I0J1000D01*
G74*
G01*
X24500Y-25000D02*
X25500Y-25000D01*
X26500Y-23000D02*
X26500Y-24000D01*
G54D12*
X48701Y-35671D02*
X48701Y-35957D01*
X49082Y-35985D01*
X49044Y-35957D01*
X49006Y-35900D01*
X49006Y-35757D01*
X49044Y-35700D01*
X49082Y-35671D01*
X49159Y-35642D01*
X49349Y-35642D01*
X49425Y-35671D01*
X49463Y-35700D01*
X49501Y-35757D01*
X49501Y-35900D01*
X49463Y-35957D01*
X49425Y-35985D01*
X48701Y-35442D02*
X48701Y-35071D01*
X49006Y-35271D01*
X49006Y-35185D01*
X49044Y-35128D01*
X49082Y-35100D01*
X49159Y-35071D01*
X49349Y-35071D01*
X49425Y-35100D01*
X49463Y-35128D01*
X49501Y-35185D01*
X49501Y-35357D01*
X49463Y-35414D01*
X49425Y-35442D01*
X49425Y-34814D02*
X49463Y-34785D01*
X49501Y-34814D01*
X49463Y-34842D01*
X49425Y-34814D01*
X49501Y-34814D01*
X48701Y-34585D02*
X48701Y-34214D01*
X49006Y-34414D01*
X49006Y-34328D01*
X49044Y-34271D01*
X49082Y-34242D01*
X49159Y-34214D01*
X49349Y-34214D01*
X49425Y-34242D01*
X49463Y-34271D01*
X49501Y-34328D01*
X49501Y-34500D01*
X49463Y-34557D01*
X49425Y-34585D01*
X48968Y-33700D02*
X49501Y-33700D01*
X48663Y-33842D02*
X49235Y-33985D01*
X49235Y-33614D01*
X48701Y-33271D02*
X48701Y-33214D01*
X48740Y-33157D01*
X48778Y-33128D01*
X48854Y-33100D01*
X49006Y-33071D01*
X49197Y-33071D01*
X49349Y-33100D01*
X49425Y-33128D01*
X49463Y-33157D01*
X49501Y-33214D01*
X49501Y-33271D01*
X49463Y-33328D01*
X49425Y-33357D01*
X49349Y-33385D01*
X49197Y-33414D01*
X49006Y-33414D01*
X48854Y-33385D01*
X48778Y-33357D01*
X48740Y-33328D01*
X48701Y-33271D01*
X49501Y-32357D02*
X48968Y-32357D01*
X49044Y-32357D02*
X49006Y-32328D01*
X48968Y-32271D01*
X48968Y-32185D01*
X49006Y-32128D01*
X49082Y-32099D01*
X49501Y-32099D01*
X49082Y-32099D02*
X49006Y-32071D01*
X48968Y-32014D01*
X48968Y-31928D01*
X49006Y-31871D01*
X49082Y-31842D01*
X49501Y-31842D01*
X49501Y-31557D02*
X48968Y-31557D01*
X49044Y-31557D02*
X49006Y-31528D01*
X48968Y-31471D01*
X48968Y-31385D01*
X49006Y-31328D01*
X49082Y-31299D01*
X49501Y-31299D01*
X49082Y-31299D02*
X49006Y-31271D01*
X48968Y-31214D01*
X48968Y-31128D01*
X49006Y-31071D01*
X49082Y-31042D01*
X49501Y-31042D01*
X48500Y-44000D02*
X48500Y-23000D01*
X45500Y-44000D02*
X49780Y-44000D01*
X45500Y-23000D02*
X49780Y-23000D01*
X48500Y-23000D02*
X48730Y-23443D01*
X48500Y-23000D02*
X48269Y-23443D01*
X48500Y-44000D02*
X48730Y-43556D01*
X48500Y-44000D02*
X48269Y-43556D01*
X32828Y-47201D02*
X32542Y-47201D01*
X32514Y-47582D01*
X32542Y-47544D01*
X32599Y-47506D01*
X32742Y-47506D01*
X32799Y-47544D01*
X32828Y-47582D01*
X32857Y-47659D01*
X32857Y-47849D01*
X32828Y-47925D01*
X32799Y-47963D01*
X32742Y-48001D01*
X32599Y-48001D01*
X32542Y-47963D01*
X32514Y-47925D01*
X33057Y-47201D02*
X33428Y-47201D01*
X33228Y-47506D01*
X33314Y-47506D01*
X33371Y-47544D01*
X33399Y-47582D01*
X33428Y-47659D01*
X33428Y-47849D01*
X33399Y-47925D01*
X33371Y-47963D01*
X33314Y-48001D01*
X33142Y-48001D01*
X33085Y-47963D01*
X33057Y-47925D01*
X33685Y-47925D02*
X33714Y-47963D01*
X33685Y-48001D01*
X33657Y-47963D01*
X33685Y-47925D01*
X33685Y-48001D01*
X33914Y-47201D02*
X34285Y-47201D01*
X34085Y-47506D01*
X34171Y-47506D01*
X34228Y-47544D01*
X34257Y-47582D01*
X34285Y-47659D01*
X34285Y-47849D01*
X34257Y-47925D01*
X34228Y-47963D01*
X34171Y-48001D01*
X34000Y-48001D01*
X33942Y-47963D01*
X33914Y-47925D01*
X34800Y-47468D02*
X34800Y-48001D01*
X34657Y-47163D02*
X34514Y-47735D01*
X34885Y-47735D01*
X35228Y-47201D02*
X35285Y-47201D01*
X35342Y-47240D01*
X35371Y-47278D01*
X35400Y-47354D01*
X35428Y-47506D01*
X35428Y-47697D01*
X35400Y-47849D01*
X35371Y-47925D01*
X35342Y-47963D01*
X35285Y-48001D01*
X35228Y-48001D01*
X35171Y-47963D01*
X35142Y-47925D01*
X35114Y-47849D01*
X35085Y-47697D01*
X35085Y-47506D01*
X35114Y-47354D01*
X35142Y-47278D01*
X35171Y-47240D01*
X35228Y-47201D01*
X36142Y-48001D02*
X36142Y-47468D01*
X36142Y-47544D02*
X36171Y-47506D01*
X36228Y-47468D01*
X36314Y-47468D01*
X36371Y-47506D01*
X36400Y-47582D01*
X36400Y-48001D01*
X36400Y-47582D02*
X36428Y-47506D01*
X36485Y-47468D01*
X36571Y-47468D01*
X36628Y-47506D01*
X36657Y-47582D01*
X36657Y-48001D01*
X36942Y-48001D02*
X36942Y-47468D01*
X36942Y-47544D02*
X36971Y-47506D01*
X37028Y-47468D01*
X37114Y-47468D01*
X37171Y-47506D01*
X37200Y-47582D01*
X37200Y-48001D01*
X37200Y-47582D02*
X37228Y-47506D01*
X37285Y-47468D01*
X37371Y-47468D01*
X37428Y-47506D01*
X37457Y-47582D01*
X37457Y-48001D01*
X45500Y-47000D02*
X24500Y-47000D01*
X45500Y-44000D02*
X45500Y-48280D01*
X24500Y-44000D02*
X24500Y-48280D01*
X24500Y-47000D02*
X24943Y-46769D01*
X24500Y-47000D02*
X24943Y-47230D01*
X45500Y-47000D02*
X45056Y-46769D01*
X45500Y-47000D02*
X45056Y-47230D01*
G54D13*
X44500Y-24000D03*
X25500Y-43000D03*
G54D14*
X37125Y-43000D03*
X37875Y-43000D03*
G54D15*
X42200Y-37500D03*
X42200Y-38100D03*
G54D16*
X42200Y-34975D03*
X42200Y-34225D03*
G54D15*
X41200Y-37500D03*
X41200Y-38100D03*
G54D14*
X37575Y-36400D03*
X36825Y-36400D03*
G54D16*
X35900Y-40725D03*
X35900Y-41475D03*
X41600Y-31675D03*
X41600Y-30925D03*
X39800Y-30925D03*
X39800Y-31675D03*
X29200Y-41825D03*
X29200Y-42575D03*
G54D15*
X31100Y-41900D03*
X31100Y-42500D03*
X33800Y-41900D03*
X33800Y-42500D03*
G54D17*
X28500Y-37900D03*
X27900Y-37900D03*
X28500Y-37100D03*
X27900Y-37100D03*
X28500Y-36300D03*
X27900Y-36300D03*
X28500Y-38700D03*
X27900Y-38700D03*
G54D14*
X27725Y-39600D03*
X28475Y-39600D03*
G54D18*
X41800Y-28100D03*
X36600Y-39400D03*
X39000Y-37500D03*
X38000Y-37500D03*
G54D15*
X42200Y-39700D03*
X42200Y-39100D03*
X41200Y-39100D03*
X41200Y-39700D03*
X39100Y-40800D03*
X39100Y-41400D03*
G54D17*
X37200Y-39100D03*
X37800Y-39100D03*
X37800Y-38200D03*
X37200Y-38200D03*
G54D15*
X32800Y-42500D03*
X32800Y-41900D03*
X30200Y-42500D03*
X30200Y-41900D03*
G54D19*
X38250Y-40050D03*
X38250Y-42150D03*
X37750Y-40050D03*
X37250Y-40050D03*
X36750Y-40050D03*
X37750Y-42150D03*
X37250Y-42150D03*
X36750Y-42150D03*
G54D20*
X36390Y-34666D03*
X35406Y-34666D03*
X34422Y-34666D03*
X33772Y-34666D03*
X33123Y-34666D03*
X32453Y-34666D03*
X31469Y-34666D03*
X30485Y-34666D03*
X29530Y-34666D03*
X28861Y-34666D03*
X27542Y-34666D03*
G54D21*
X37463Y-25100D03*
X27936Y-25100D03*
G54D22*
X38369Y-26399D03*
X27345Y-25926D03*
G54D23*
X35577Y-24918D03*
X30222Y-24918D03*
X30222Y-28186D03*
X35577Y-28186D03*
G54D24*
X31640Y-27162D03*
X32073Y-27162D03*
X32506Y-27162D03*
X32939Y-27162D03*
X33372Y-27162D03*
X33805Y-27162D03*
X34238Y-27162D03*
X34671Y-27162D03*
G54D25*
X26500Y-27000D03*
X26500Y-28000D03*
X26500Y-29000D03*
X26500Y-30000D03*
X26500Y-31000D03*
X26500Y-32000D03*
X26500Y-33000D03*
X26500Y-34000D03*
X26500Y-35000D03*
X26500Y-36000D03*
X26500Y-37000D03*
X26500Y-38000D03*
X26500Y-39000D03*
G54D26*
X26500Y-40000D03*
X25500Y-40000D03*
G54D25*
X25500Y-39000D03*
X25500Y-38000D03*
X25500Y-37000D03*
X25500Y-36000D03*
X25500Y-35000D03*
X25500Y-34000D03*
X25500Y-33000D03*
X25500Y-32000D03*
X25500Y-31000D03*
X25500Y-30000D03*
X25500Y-29000D03*
X25500Y-28000D03*
X25500Y-27000D03*
X43500Y-40000D03*
X43500Y-39000D03*
X43500Y-38000D03*
X43500Y-37000D03*
X43500Y-36000D03*
X43500Y-35000D03*
X43500Y-34000D03*
X43500Y-33000D03*
X43500Y-32000D03*
X43500Y-31000D03*
X43500Y-30000D03*
X43500Y-29000D03*
X43500Y-28000D03*
G54D26*
X43500Y-27000D03*
X44500Y-27000D03*
G54D25*
X44500Y-28000D03*
X44500Y-29000D03*
X44500Y-30000D03*
X44500Y-31000D03*
X44500Y-32000D03*
X44500Y-33000D03*
X44500Y-34000D03*
X44500Y-35000D03*
X44500Y-36000D03*
X44500Y-37000D03*
X44500Y-38000D03*
X44500Y-39000D03*
X44500Y-40000D03*
G54D27*
X28600Y-42265D03*
X33700Y-35163D03*
X34089Y-38000D03*
X32838Y-40226D03*
X32340Y-39045D03*
X33775Y-36110D03*
X33775Y-36740D03*
X32658Y-25000D03*
X38004Y-41400D03*
X32940Y-37215D03*
X31694Y-38711D03*
X30940Y-39574D03*
X26820Y-42650D03*
X27900Y-37498D03*
X30625Y-37685D03*
X30151Y-40371D03*
X30310Y-38315D03*
X27900Y-38300D03*
X30310Y-38000D03*
X30310Y-37685D03*
X33843Y-29365D03*
X30768Y-40820D03*
X31791Y-40405D03*
X30625Y-39890D03*
X39920Y-40890D03*
X27450Y-29775D03*
X27450Y-31675D03*
X27450Y-32850D03*
X39875Y-33050D03*
X28050Y-23975D03*
X27160Y-24580D03*
X25350Y-25730D03*
X26620Y-25730D03*
X25910Y-41710D03*
X24990Y-41710D03*
X27610Y-43420D03*
X26710Y-43420D03*
X38810Y-43470D03*
X38830Y-42730D03*
X40080Y-41450D03*
X44870Y-41170D03*
X43820Y-41160D03*
X44240Y-25230D03*
X44990Y-25230D03*
X41125Y-27075D03*
X41125Y-26225D03*
X41125Y-25300D03*
X41125Y-24575D03*
X42225Y-24475D03*
X43010Y-24350D03*
X42575Y-23850D03*
X42700Y-27225D03*
X42675Y-28075D03*
X34915Y-37240D03*
X36285Y-37260D03*
X34910Y-36430D03*
X34910Y-35745D03*
X35860Y-34475D03*
X35855Y-35205D03*
X33005Y-34080D03*
X40580Y-32685D03*
X40715Y-33490D03*
X31915Y-28725D03*
X31160Y-27970D03*
X33035Y-30040D03*
X33025Y-33540D03*
X33030Y-32560D03*
X34125Y-33150D03*
X33035Y-31230D03*
X32600Y-29390D03*
X30840Y-26145D03*
X30845Y-27115D03*
X34700Y-27950D03*
X34700Y-29100D03*
X33150Y-28900D03*
X32600Y-28650D03*
X31900Y-27950D03*
X33050Y-27950D03*
X34250Y-23756D03*
X30420Y-23750D03*
X32130Y-23760D03*
X39030Y-40212D03*
X39250Y-39361D03*
X30921Y-30894D03*
X28536Y-30202D03*
X30925Y-29075D03*
X31750Y-29900D03*
X32514Y-30492D03*
X32226Y-30852D03*
X35865Y-36400D03*
X36312Y-35734D03*
X41900Y-28975D03*
X41750Y-29975D03*
X40875Y-29975D03*
X38225Y-33300D03*
X39025Y-32550D03*
X38225Y-32450D03*
X37075Y-33750D03*
X37800Y-33975D03*
X36500Y-33150D03*
X36500Y-33725D03*
X35775Y-33725D03*
X35800Y-33150D03*
X28350Y-33550D03*
X28825Y-33075D03*
X27450Y-33900D03*
X41700Y-32550D03*
X42375Y-32325D03*
X42325Y-33175D03*
X41325Y-33200D03*
X41325Y-34075D03*
X41125Y-35800D03*
X42075Y-35675D03*
X42075Y-36375D03*
X41450Y-36375D03*
X29100Y-25025D03*
X29325Y-23975D03*
X27700Y-27200D03*
X28250Y-28450D03*
X32250Y-43275D03*
X31425Y-43275D03*
X30625Y-43275D03*
X29800Y-43275D03*
X28525Y-43275D03*
X33300Y-43275D03*
X34700Y-43050D03*
X38525Y-25150D03*
X38200Y-24200D03*
X36550Y-24425D03*
X36600Y-25875D03*
X37600Y-27050D03*
X35975Y-27025D03*
X36525Y-28350D03*
X38125Y-28350D03*
X38875Y-29550D03*
X37275Y-29550D03*
X33475Y-40700D03*
X36050Y-39150D03*
X35575Y-39850D03*
X34925Y-39850D03*
X35175Y-40425D03*
X34650Y-40425D03*
X34100Y-40725D03*
X42475Y-25200D03*
X42475Y-25700D03*
X42475Y-26225D03*
X42000Y-25700D03*
X42000Y-26225D03*
X42000Y-25200D03*
X41650Y-27300D03*
X36915Y-37255D03*
X34830Y-35145D03*
X34915Y-34515D03*
X33460Y-37055D03*
X33195Y-37925D03*
X33040Y-38745D03*
X39875Y-32450D03*
X34125Y-33750D03*
X34725Y-33750D03*
X34725Y-33175D03*
X30214Y-31410D03*
X30208Y-30341D03*
X29521Y-30110D03*
X31628Y-31363D03*
X32609Y-38791D03*
X32300Y-34085D03*
X32357Y-35410D03*
X32300Y-33360D03*
X32300Y-32750D03*
X36021Y-37849D03*
X35430Y-38062D03*
X31500Y-37425D03*
X32275Y-37425D03*
X32275Y-37875D03*
X39275Y-31600D03*
X29350Y-28700D03*
X35850Y-43050D03*
X40075Y-39450D03*
X35775Y-29550D03*
X34900Y-39150D03*
X33515Y-41490D03*
X30310Y-39890D03*
X35677Y-41934D03*
X36954Y-38200D03*
X35018Y-34066D03*
X31497Y-37867D03*
X41050Y-35295D03*
X41755Y-34300D03*
X29100Y-35775D03*
X39694Y-31976D03*
X37203Y-37804D03*
X36487Y-38385D03*
X30940Y-38945D03*
X37195Y-37576D03*
X36375Y-37993D03*
X30310Y-38945D03*
X34453Y-36755D03*
X38430Y-34480D03*
X37305Y-37000D03*
X34089Y-37370D03*
X34470Y-37510D03*
X37481Y-36881D03*
X36762Y-31338D03*
X34667Y-30300D03*
X41200Y-40110D03*
X42200Y-40110D03*
X40225Y-30980D03*
X30580Y-41900D03*
X32800Y-42780D03*
X37900Y-36400D03*
X30310Y-36425D03*
X28860Y-35307D03*
X30310Y-36110D03*
X29262Y-35912D03*
X29560Y-34100D03*
X29997Y-34098D03*
X30940Y-37055D03*
X30800Y-35620D03*
X30940Y-36425D03*
X41252Y-32089D03*
X42200Y-37195D03*
X42513Y-38786D03*
X41200Y-37248D03*
X41690Y-34900D03*
X32670Y-39185D03*
X33087Y-40267D03*
X30625Y-38945D03*
X28794Y-39007D03*
X33460Y-36740D03*
X33200Y-35510D03*
X30510Y-29670D03*
X33551Y-33849D03*
X33447Y-26717D03*
X33437Y-37682D03*
X34237Y-35622D03*
X34408Y-35208D03*
X33565Y-35360D03*
X33775Y-37055D03*
X32592Y-26700D03*
X32668Y-41202D03*
X29357Y-35163D03*
X29571Y-41197D03*
X34220Y-26710D03*
X35000Y-27520D03*
X34078Y-29484D03*
X33245Y-34080D03*
X31000Y-27520D03*
X34090Y-36110D03*
X33775Y-35530D03*
X31877Y-26733D03*
X35290Y-35090D03*
X31255Y-39889D03*
X38682Y-33163D03*
X27806Y-35800D03*
X34497Y-37827D03*
X40775Y-32175D03*
X29422Y-35693D03*
X33410Y-38580D03*
X32862Y-38581D03*
X30940Y-39260D03*
X30625Y-39260D03*
X31255Y-39575D03*
X31804Y-39025D03*
X30467Y-32840D03*
X28973Y-34051D03*
X31840Y-32180D03*
X30310Y-37370D03*
X28940Y-37384D03*
G54D28*
X32453Y-34666D02*
X32453Y-34993D01*
X32453Y-34993D02*
X32940Y-35480D01*
X32940Y-35625D02*
X32940Y-35480D01*
G54D29*
X33395Y-35163D02*
X33700Y-35163D01*
G54D28*
X33256Y-35163D02*
X33395Y-35163D01*
X32940Y-35480D02*
X33256Y-35163D01*
X33260Y-37385D02*
X33110Y-37385D01*
G54D29*
X33260Y-37385D02*
X33475Y-37385D01*
X33475Y-37385D02*
X34089Y-38000D01*
G54D28*
X33110Y-37385D02*
X32940Y-37215D01*
X32940Y-37215D02*
X32940Y-35625D01*
X32340Y-39045D02*
X32340Y-39727D01*
G54D29*
X32431Y-39819D02*
X32838Y-40226D01*
G54D28*
X32340Y-39727D02*
X32431Y-39819D01*
G54D29*
X32340Y-39045D02*
X32340Y-39045D01*
G54D28*
X33776Y-36739D02*
X33775Y-36110D01*
X33775Y-36740D02*
X33776Y-36739D01*
G54D29*
X31694Y-38820D02*
X30940Y-39574D01*
X31694Y-38711D02*
X31694Y-38820D01*
X32939Y-27162D02*
X32939Y-25281D01*
X32939Y-25281D02*
X32658Y-25000D01*
G54D28*
X36750Y-41718D02*
X37157Y-41718D01*
X37157Y-41718D02*
X37250Y-41811D01*
G54D29*
X36750Y-41718D02*
X36230Y-41199D01*
X36230Y-41199D02*
X35148Y-41199D01*
X35148Y-41199D02*
X34215Y-42131D01*
X34215Y-42131D02*
X33527Y-42131D01*
X33527Y-42131D02*
X33014Y-41619D01*
X37250Y-41980D02*
X37250Y-41811D01*
X37250Y-41980D02*
X37250Y-42150D01*
X37250Y-42537D02*
X37125Y-42662D01*
X37250Y-42150D02*
X37250Y-42537D01*
X37125Y-43000D02*
X37125Y-42662D01*
X36750Y-42150D02*
X36750Y-41980D01*
X36750Y-41980D02*
X36750Y-41811D01*
X37661Y-41400D02*
X38004Y-41400D01*
X37250Y-41811D02*
X37661Y-41400D01*
X39100Y-41400D02*
X38004Y-41400D01*
X36750Y-41811D02*
X36750Y-41718D01*
G54D28*
X29817Y-42249D02*
X29337Y-42249D01*
G54D29*
X29200Y-41825D02*
X29200Y-42102D01*
G54D28*
X29200Y-42102D02*
X29200Y-42112D01*
X29817Y-42249D02*
X30191Y-42249D01*
X29337Y-42249D02*
X29200Y-42112D01*
X29200Y-41825D02*
X28845Y-41825D01*
X28600Y-42070D02*
X28845Y-41825D01*
X28600Y-42070D02*
X28600Y-42265D01*
X30200Y-42500D02*
X30200Y-42258D01*
X30200Y-42258D02*
X30191Y-42249D01*
G54D29*
X30200Y-42500D02*
X30200Y-42406D01*
G54D28*
X30191Y-42249D02*
X30938Y-42249D01*
G54D29*
X31100Y-42087D02*
X31100Y-41900D01*
X30947Y-42240D02*
X31100Y-42087D01*
G54D28*
X30938Y-42249D02*
X30947Y-42240D01*
G54D29*
X31100Y-41900D02*
X31100Y-41619D01*
X33014Y-41619D02*
X31100Y-41619D01*
G54D28*
X26500Y-40000D02*
X26500Y-42330D01*
X26500Y-42330D02*
X26820Y-42650D01*
G54D29*
X25500Y-40000D02*
X26500Y-40000D01*
X25500Y-38000D02*
X26500Y-38000D01*
X25500Y-37000D02*
X26500Y-37000D01*
X25500Y-36000D02*
X26500Y-36000D01*
X25500Y-35000D02*
X26500Y-35000D01*
X25500Y-34000D02*
X26500Y-34000D01*
X44500Y-29000D02*
X43500Y-29000D01*
X44500Y-30000D02*
X43500Y-30000D01*
G54D28*
X30761Y-37548D02*
X30761Y-37548D01*
X30625Y-37685D02*
X30761Y-37548D01*
X27900Y-38700D02*
X27900Y-38776D01*
X28475Y-39351D02*
X28475Y-39600D01*
X27900Y-38776D02*
X28475Y-39351D01*
X30151Y-40371D02*
X29246Y-40371D01*
X29246Y-40371D02*
X28475Y-39600D01*
X31129Y-38357D02*
X31129Y-37915D01*
G54D29*
X30761Y-37548D02*
X31114Y-37902D01*
X31129Y-38357D02*
X31079Y-38407D01*
X31079Y-38407D02*
X30402Y-38407D01*
X30402Y-38407D02*
X30310Y-38315D01*
G54D28*
X31129Y-37915D02*
X31116Y-37902D01*
X31116Y-37902D02*
X31114Y-37902D01*
G54D29*
X27900Y-37100D02*
X27900Y-37498D01*
X27900Y-37498D02*
X27900Y-37900D01*
X28356Y-39600D02*
X28475Y-39600D01*
X27900Y-38700D02*
X27900Y-38300D01*
X27900Y-38300D02*
X27900Y-37900D01*
X27900Y-37100D02*
X27897Y-36806D01*
X30021Y-36806D02*
X30761Y-37548D01*
X27897Y-36806D02*
X30021Y-36806D01*
X27897Y-36806D02*
X27900Y-36300D01*
G54D28*
X30310Y-38000D02*
X30304Y-38000D01*
X30304Y-38000D02*
X30147Y-38158D01*
X30310Y-37685D02*
X30309Y-37999D01*
X30309Y-37999D02*
X30310Y-38000D01*
X28500Y-37900D02*
X28500Y-37100D01*
X30310Y-37683D02*
X30310Y-37685D01*
X30312Y-37681D02*
X30310Y-37683D01*
G54D29*
X28500Y-37900D02*
X28694Y-38158D01*
X28750Y-38158D02*
X30147Y-38158D01*
X28694Y-38158D02*
X28750Y-38158D01*
X28500Y-38700D02*
X28500Y-37900D01*
X25500Y-33000D02*
X26500Y-33000D01*
G54D28*
X27985Y-39273D02*
X27682Y-38970D01*
X33243Y-29362D02*
X33840Y-29362D01*
X33840Y-29362D02*
X33843Y-29365D01*
X28325Y-34610D02*
X27572Y-35362D01*
G54D29*
X33051Y-29553D02*
X28325Y-34280D01*
G54D28*
X28325Y-34280D02*
X28325Y-34610D01*
X27985Y-39273D02*
X27985Y-39760D01*
X30768Y-40820D02*
X29154Y-40820D01*
X29045Y-40820D02*
X29154Y-40820D01*
X27985Y-39760D02*
X29045Y-40820D01*
X33051Y-29553D02*
X33243Y-29362D01*
X27560Y-35375D02*
X27572Y-35362D01*
X27560Y-38848D02*
X27560Y-35375D01*
X27682Y-38970D02*
X27560Y-38848D01*
X31137Y-40405D02*
X31791Y-40405D01*
X30625Y-39890D02*
X31137Y-40405D01*
X43500Y-38000D02*
X43400Y-38000D01*
X42010Y-40890D02*
X39920Y-40890D01*
X42890Y-40010D02*
X42010Y-40890D01*
X42890Y-38510D02*
X42890Y-40010D01*
X43400Y-38000D02*
X42890Y-38510D01*
G54D29*
X44500Y-38000D02*
X43500Y-38000D01*
X44500Y-39000D02*
X43500Y-39000D01*
G54D28*
X28250Y-28450D02*
X28200Y-28450D01*
X27450Y-29200D02*
X27450Y-29775D01*
X28200Y-28450D02*
X27450Y-29200D01*
X26620Y-25730D02*
X26620Y-25120D01*
X28050Y-23975D02*
X29325Y-23975D01*
X26620Y-25120D02*
X27160Y-24580D01*
X26620Y-25730D02*
X25350Y-25730D01*
X24990Y-41710D02*
X25910Y-41710D01*
X28525Y-43275D02*
X27755Y-43275D01*
X27755Y-43275D02*
X27610Y-43420D01*
X26710Y-43420D02*
X26430Y-43700D01*
X26430Y-43700D02*
X26200Y-43700D01*
X26200Y-43700D02*
X25500Y-43000D01*
X40080Y-41450D02*
X43530Y-41450D01*
X37897Y-43590D02*
X38690Y-43590D01*
X38690Y-43590D02*
X38810Y-43470D01*
X38830Y-42730D02*
X38830Y-42560D01*
X38830Y-42560D02*
X39940Y-41450D01*
X39940Y-41450D02*
X40080Y-41450D01*
X37875Y-43568D02*
X37897Y-43590D01*
X43530Y-41450D02*
X43820Y-41160D01*
X37875Y-43000D02*
X37875Y-43568D01*
X44990Y-25230D02*
X44240Y-25230D01*
X42950Y-23850D02*
X42950Y-24290D01*
X41350Y-27300D02*
X41125Y-27075D01*
X41125Y-26225D02*
X41125Y-25300D01*
X41125Y-24575D02*
X41225Y-24475D01*
X41225Y-24475D02*
X42225Y-24475D01*
X41350Y-27300D02*
X41650Y-27300D01*
X42950Y-24290D02*
X43010Y-24350D01*
X44500Y-24000D02*
X44500Y-23990D01*
X42950Y-23850D02*
X42575Y-23850D01*
X43490Y-23310D02*
X42950Y-23850D01*
X43820Y-23310D02*
X43490Y-23310D01*
X44500Y-23990D02*
X43820Y-23310D01*
X37750Y-42150D02*
X37750Y-42875D01*
X37750Y-42875D02*
X37875Y-43000D01*
X42425Y-28075D02*
X42675Y-28075D01*
X41650Y-27300D02*
X42425Y-28075D01*
X36910Y-37260D02*
X36285Y-37260D01*
X36915Y-37255D02*
X36910Y-37260D01*
X35860Y-35200D02*
X35860Y-34475D01*
X35855Y-35205D02*
X35860Y-35200D01*
X33065Y-37867D02*
X33137Y-37867D01*
X33137Y-37867D02*
X33195Y-37925D01*
X31497Y-37867D02*
X33065Y-37867D01*
X39875Y-33050D02*
X40415Y-33050D01*
X39875Y-32450D02*
X39875Y-33050D01*
X40715Y-33350D02*
X40715Y-33490D01*
X40415Y-33050D02*
X40715Y-33350D01*
X31160Y-27970D02*
X30950Y-27970D01*
X32580Y-29390D02*
X31915Y-28725D01*
X34725Y-33175D02*
X34725Y-33750D01*
X32600Y-29390D02*
X32580Y-29390D01*
X30680Y-27280D02*
X30845Y-27115D01*
X30680Y-27700D02*
X30680Y-27280D01*
X30950Y-27970D02*
X30680Y-27700D01*
X35775Y-29550D02*
X35750Y-29550D01*
X35300Y-29100D02*
X34700Y-29100D01*
X35750Y-29550D02*
X35300Y-29100D01*
X31900Y-27950D02*
X32600Y-28650D01*
X29550Y-23750D02*
X30420Y-23750D01*
X29325Y-23975D02*
X29550Y-23750D01*
X32130Y-23760D02*
X32134Y-23756D01*
X32134Y-23756D02*
X34250Y-23756D01*
X40050Y-40221D02*
X39039Y-40221D01*
X39039Y-40221D02*
X39030Y-40212D01*
X30761Y-30894D02*
X30921Y-30894D01*
X30761Y-30894D02*
X30208Y-30341D01*
X29429Y-30202D02*
X28536Y-30202D01*
X29521Y-30110D02*
X29429Y-30202D01*
X32514Y-30564D02*
X32514Y-30492D01*
X32226Y-30852D02*
X32514Y-30564D01*
X40075Y-39450D02*
X40050Y-39475D01*
X40050Y-39475D02*
X40050Y-40221D01*
X40875Y-29975D02*
X40875Y-30875D01*
X42375Y-29450D02*
X41900Y-28975D01*
X41750Y-29975D02*
X40875Y-29975D01*
X42375Y-32325D02*
X42375Y-29450D01*
X39275Y-31475D02*
X39275Y-31600D01*
X39450Y-31300D02*
X39275Y-31475D01*
X40450Y-31300D02*
X39450Y-31300D01*
X40875Y-30875D02*
X40450Y-31300D01*
X35775Y-33725D02*
X36500Y-33725D01*
X27450Y-32850D02*
X27650Y-32850D01*
X27650Y-32850D02*
X28350Y-33550D01*
X27450Y-33900D02*
X27450Y-32850D01*
X40075Y-37750D02*
X40075Y-35325D01*
X42150Y-32550D02*
X41700Y-32550D01*
X42375Y-32325D02*
X42150Y-32550D01*
X41350Y-33175D02*
X42325Y-33175D01*
X41325Y-33200D02*
X41350Y-33175D01*
X40075Y-35325D02*
X41325Y-34075D01*
X40075Y-39450D02*
X40075Y-37750D01*
X42075Y-36375D02*
X42075Y-35675D01*
X40075Y-37750D02*
X41450Y-36375D01*
X27675Y-27875D02*
X28250Y-28450D01*
X27700Y-27200D02*
X27675Y-27225D01*
X27675Y-27225D02*
X27675Y-27875D01*
X31425Y-43275D02*
X30625Y-43275D01*
X38525Y-25125D02*
X38500Y-25125D01*
X38525Y-25150D02*
X38525Y-25125D01*
X36775Y-24200D02*
X38200Y-24200D01*
X36550Y-24425D02*
X36775Y-24200D01*
X38125Y-28800D02*
X38125Y-28350D01*
X38875Y-29550D02*
X38125Y-28800D01*
X35775Y-29550D02*
X37275Y-29550D01*
X34900Y-39150D02*
X36050Y-39150D01*
X35175Y-40425D02*
X34650Y-40425D01*
X34100Y-40725D02*
X34075Y-40700D01*
X34075Y-40700D02*
X33475Y-40700D01*
X33359Y-41396D02*
X33515Y-41490D01*
X32923Y-40960D02*
X33359Y-41396D01*
X31384Y-40960D02*
X32923Y-40960D01*
X30310Y-39890D02*
X31384Y-40960D01*
G54D29*
X32884Y-37867D02*
X31497Y-37867D01*
G54D28*
X34910Y-36430D02*
X34910Y-36400D01*
X33804Y-37336D02*
X33741Y-37336D01*
G54D29*
X35865Y-36400D02*
X34910Y-36400D01*
X34910Y-36400D02*
X34594Y-36400D01*
G54D28*
X34362Y-36400D02*
X34594Y-36400D01*
X34179Y-36583D02*
X34362Y-36400D01*
X34179Y-36961D02*
X34179Y-36583D01*
X33804Y-37336D02*
X34179Y-36961D01*
X33741Y-37336D02*
X33460Y-37055D01*
G54D29*
X35865Y-36400D02*
X36825Y-36400D01*
G54D28*
X38225Y-33300D02*
X38225Y-32450D01*
X37800Y-33725D02*
X38225Y-33300D01*
X37800Y-33975D02*
X37800Y-33725D01*
X36825Y-34281D02*
X37493Y-34281D01*
X37493Y-34281D02*
X37800Y-33975D01*
X35018Y-34066D02*
X35018Y-33931D01*
X35018Y-33931D02*
X35800Y-33150D01*
G54D29*
X36825Y-36400D02*
X36825Y-36062D01*
X36609Y-34066D02*
X35018Y-34066D01*
X36825Y-34281D02*
X36609Y-34066D01*
X36825Y-36062D02*
X36825Y-34281D01*
G54D28*
X37851Y-43592D02*
X36392Y-43592D01*
X36392Y-43592D02*
X35850Y-43050D01*
X37875Y-43568D02*
X37851Y-43592D01*
X37750Y-42150D02*
X38250Y-42150D01*
X35575Y-39850D02*
X34925Y-39850D01*
X33415Y-33150D02*
X33025Y-33540D01*
X34125Y-33750D02*
X34125Y-33150D01*
X34125Y-33150D02*
X33415Y-33150D01*
X32000Y-35052D02*
X32357Y-35410D01*
X32300Y-33360D02*
X31875Y-33360D01*
X30918Y-34666D02*
X30485Y-34666D01*
X31070Y-34515D02*
X30918Y-34666D01*
X31070Y-34165D02*
X31070Y-34515D01*
X31537Y-33697D02*
X31070Y-34165D01*
X31875Y-33360D02*
X31537Y-33697D01*
X32275Y-37875D02*
X32275Y-37425D01*
G54D29*
X27100Y-39600D02*
X26500Y-39000D01*
X25500Y-39000D02*
X26500Y-39000D01*
G54D28*
X33246Y-28296D02*
X33246Y-28146D01*
X33246Y-28146D02*
X33050Y-27950D01*
X30925Y-29075D02*
X32467Y-29075D01*
X33805Y-27736D02*
X33805Y-27162D01*
X32467Y-29075D02*
X33246Y-28296D01*
X33246Y-28296D02*
X33805Y-27736D01*
X29725Y-29075D02*
X30925Y-29075D01*
X29350Y-28700D02*
X29725Y-29075D01*
X36450Y-27500D02*
X35975Y-27025D01*
X36450Y-28275D02*
X36450Y-27500D01*
X36525Y-28350D02*
X36450Y-28275D01*
G54D29*
X33805Y-27162D02*
X33805Y-27605D01*
G54D28*
X36738Y-37885D02*
X36585Y-37732D01*
X36585Y-37732D02*
X36138Y-37732D01*
X36138Y-37732D02*
X36021Y-37849D01*
X36954Y-38200D02*
X36880Y-38200D01*
X36738Y-38058D02*
X36738Y-37925D01*
X36880Y-38200D02*
X36738Y-38058D01*
X36738Y-37925D02*
X36738Y-37885D01*
G54D29*
X37200Y-38200D02*
X37012Y-38200D01*
X37012Y-38200D02*
X36954Y-38200D01*
G54D28*
X36600Y-26050D02*
X36600Y-25875D01*
X37600Y-27050D02*
X36600Y-26050D01*
X27725Y-40931D02*
X27725Y-41799D01*
G54D29*
X27725Y-39600D02*
X27725Y-40931D01*
G54D28*
X28501Y-42575D02*
X29200Y-42575D01*
X27725Y-41799D02*
X28501Y-42575D01*
X29200Y-43275D02*
X29200Y-42575D01*
X29800Y-43275D02*
X29200Y-43275D01*
X29200Y-43275D02*
X28525Y-43275D01*
G54D29*
X27725Y-39600D02*
X27100Y-39600D01*
X29200Y-42575D02*
X29368Y-42575D01*
G54D28*
X32250Y-43275D02*
X32250Y-42860D01*
X32250Y-42860D02*
X32194Y-42804D01*
X33800Y-42500D02*
X33800Y-42946D01*
X33471Y-43275D02*
X33300Y-43275D01*
X33800Y-42946D02*
X33471Y-43275D01*
X33800Y-42500D02*
X35112Y-42500D01*
X33300Y-43275D02*
X32250Y-43275D01*
G54D29*
X33800Y-42500D02*
X33800Y-42406D01*
G54D28*
X33005Y-34080D02*
X33005Y-34120D01*
X33000Y-34085D02*
X33005Y-34080D01*
X32300Y-34085D02*
X32820Y-34085D01*
X32820Y-34085D02*
X33000Y-34085D01*
X33123Y-34238D02*
X33123Y-34666D01*
X33005Y-34120D02*
X33123Y-34238D01*
X32190Y-34085D02*
X32300Y-34085D01*
X32000Y-34275D02*
X32190Y-34085D01*
X32000Y-35052D02*
X32000Y-34275D01*
X32930Y-38820D02*
X32965Y-38820D01*
X32965Y-38820D02*
X33040Y-38745D01*
X32609Y-38791D02*
X32635Y-38791D01*
X32664Y-38820D02*
X32930Y-38820D01*
X32635Y-38791D02*
X32664Y-38820D01*
X32640Y-38822D02*
X32609Y-38791D01*
G54D29*
X32609Y-38791D02*
X32634Y-38765D01*
G54D28*
X32194Y-42502D02*
X31102Y-42502D01*
X31102Y-42502D02*
X31100Y-42500D01*
X32194Y-42804D02*
X32194Y-42502D01*
X32194Y-42502D02*
X32194Y-42053D01*
X32347Y-41900D02*
X32800Y-41900D01*
X32194Y-42053D02*
X32347Y-41900D01*
G54D29*
X32800Y-41900D02*
X32800Y-41975D01*
X31100Y-42500D02*
X31100Y-42427D01*
G54D28*
X35112Y-42500D02*
X35597Y-42015D01*
X35900Y-41712D02*
X35900Y-41807D01*
G54D29*
X35900Y-41475D02*
X35900Y-41712D01*
G54D28*
X35772Y-41934D02*
X35677Y-41934D01*
X35900Y-41807D02*
X35772Y-41934D01*
X36137Y-43337D02*
X35850Y-43050D01*
X35850Y-43050D02*
X34700Y-43050D01*
G54D29*
X35206Y-42406D02*
X35597Y-42015D01*
X35597Y-42015D02*
X35677Y-41934D01*
G54D28*
X42573Y-34756D02*
X42573Y-34253D01*
G54D29*
X42573Y-37820D02*
X42573Y-34756D01*
X42200Y-38193D02*
X42573Y-37820D01*
G54D28*
X42545Y-34225D02*
X42200Y-34225D01*
X42573Y-34253D02*
X42545Y-34225D01*
X41050Y-35170D02*
X41050Y-35005D01*
X41050Y-35295D02*
X41050Y-35170D01*
X41050Y-35005D02*
X41755Y-34300D01*
X42200Y-34225D02*
X41830Y-34225D01*
X41830Y-34225D02*
X41755Y-34300D01*
G54D29*
X41200Y-38337D02*
X42200Y-38337D01*
X41200Y-39100D02*
X41200Y-38337D01*
X41200Y-38337D02*
X41200Y-38100D01*
X42200Y-38100D02*
X42200Y-38193D01*
X42200Y-38193D02*
X42200Y-38337D01*
G54D28*
X40635Y-31793D02*
X40636Y-31793D01*
G54D29*
X40635Y-31793D02*
X39800Y-31793D01*
X39800Y-31675D02*
X39800Y-31793D01*
G54D28*
X41505Y-30925D02*
X41600Y-30925D01*
X40636Y-31793D02*
X41505Y-30925D01*
X39694Y-31780D02*
X39800Y-31675D01*
X39694Y-31976D02*
X39694Y-31780D01*
X30089Y-34700D02*
X30089Y-34785D01*
X30089Y-34785D02*
X29100Y-35775D01*
G54D29*
X32369Y-31976D02*
X39694Y-31976D01*
X30089Y-34257D02*
X32369Y-31976D01*
X30089Y-34704D02*
X30089Y-34700D01*
X30089Y-34700D02*
X30089Y-34257D01*
G54D28*
X33480Y-38407D02*
X36465Y-38407D01*
X32144Y-38407D02*
X31994Y-38557D01*
X31994Y-38557D02*
X31331Y-38557D01*
X31331Y-38557D02*
X30940Y-38945D01*
X33480Y-38407D02*
X32144Y-38407D01*
X36465Y-38407D02*
X36487Y-38385D01*
X38000Y-37500D02*
X37672Y-37500D01*
X37368Y-37804D02*
X37203Y-37804D01*
X37672Y-37500D02*
X37368Y-37804D01*
X38000Y-37500D02*
X37854Y-37500D01*
X36103Y-38265D02*
X36103Y-38267D01*
X36375Y-37993D02*
X36103Y-38265D01*
X31385Y-38308D02*
X31092Y-38601D01*
X31092Y-38601D02*
X30655Y-38601D01*
X30655Y-38601D02*
X30310Y-38945D01*
X31413Y-38280D02*
X31385Y-38308D01*
X36090Y-38280D02*
X31413Y-38280D01*
X36103Y-38267D02*
X36090Y-38280D01*
X39000Y-37496D02*
X38621Y-37117D01*
X38621Y-37117D02*
X37654Y-37117D01*
X37654Y-37117D02*
X37195Y-37576D01*
X39000Y-37496D02*
X39000Y-37500D01*
G54D29*
X37049Y-36755D02*
X34453Y-36755D01*
X37277Y-36527D02*
X37049Y-36755D01*
X37277Y-35633D02*
X37277Y-36527D01*
X38430Y-34480D02*
X37277Y-35633D01*
X37305Y-37000D02*
X37305Y-37000D01*
X34459Y-37000D02*
X37305Y-37000D01*
X34089Y-37370D02*
X34459Y-37000D01*
X37481Y-37036D02*
X37481Y-36881D01*
X37006Y-37510D02*
X37481Y-37036D01*
X34470Y-37510D02*
X37006Y-37510D01*
X44500Y-40000D02*
X43500Y-40000D01*
X44500Y-32000D02*
X43500Y-32000D01*
X44500Y-31000D02*
X43500Y-31000D01*
X25500Y-29000D02*
X26500Y-29000D01*
X25500Y-30000D02*
X26500Y-30000D01*
X44500Y-33000D02*
X43500Y-33000D01*
X44500Y-34000D02*
X43500Y-34000D01*
X44500Y-35000D02*
X43500Y-35000D01*
X35723Y-30300D02*
X36762Y-31338D01*
X34667Y-30300D02*
X35723Y-30300D01*
G54D28*
X41200Y-39700D02*
X41200Y-40110D01*
X42200Y-39700D02*
X42200Y-40110D01*
G54D29*
X40170Y-30925D02*
X40225Y-30980D01*
X39800Y-30925D02*
X40170Y-30925D01*
X30200Y-41900D02*
X30580Y-41900D01*
G54D28*
X32800Y-42780D02*
X32800Y-42500D01*
G54D29*
X37575Y-36400D02*
X37900Y-36400D01*
G54D28*
X30007Y-36121D02*
X30310Y-36425D01*
X29206Y-36121D02*
X30007Y-36121D01*
X28860Y-35775D02*
X29206Y-36121D01*
X28860Y-35307D02*
X28860Y-35775D01*
G54D29*
X30310Y-36110D02*
X30113Y-35913D01*
X30113Y-35913D02*
X29262Y-35912D01*
G54D28*
X29561Y-34098D02*
X29560Y-34100D01*
X29997Y-34098D02*
X29561Y-34098D01*
X29868Y-36300D02*
X29966Y-36300D01*
X30720Y-37054D02*
X30940Y-37055D01*
X29966Y-36300D02*
X30720Y-37054D01*
G54D29*
X28500Y-36300D02*
X29868Y-36300D01*
X29868Y-36300D02*
X29870Y-36300D01*
X30940Y-35760D02*
X30800Y-35620D01*
X30940Y-36425D02*
X30940Y-35760D01*
G54D28*
X41600Y-31675D02*
X41492Y-31675D01*
X41252Y-31914D02*
X41252Y-32089D01*
X41492Y-31675D02*
X41252Y-31914D01*
X41600Y-31675D02*
X41600Y-31741D01*
X42200Y-37195D02*
X42200Y-37500D01*
X42200Y-39100D02*
X42297Y-39100D01*
X42513Y-38883D02*
X42513Y-38786D01*
X42297Y-39100D02*
X42513Y-38883D01*
G54D29*
X37750Y-39437D02*
X37800Y-39387D01*
X37750Y-40050D02*
X37750Y-39437D01*
X37800Y-39100D02*
X37800Y-39387D01*
X37800Y-38200D02*
X37800Y-39100D01*
X41200Y-37500D02*
X41200Y-37309D01*
X41200Y-37309D02*
X41200Y-37248D01*
G54D28*
X42200Y-34975D02*
X41765Y-34975D01*
X41765Y-34975D02*
X41690Y-34900D01*
G54D29*
X33087Y-39612D02*
X32670Y-39185D01*
X33087Y-40267D02*
X33087Y-39612D01*
G54D28*
X30411Y-39157D02*
X29561Y-39157D01*
X30625Y-38945D02*
X30411Y-39157D01*
G54D29*
X29411Y-39007D02*
X28794Y-39007D01*
X29561Y-39157D02*
X29411Y-39007D01*
G54D28*
X26500Y-31000D02*
X27050Y-31000D01*
X33460Y-35770D02*
X33460Y-36740D01*
X33200Y-35510D02*
X33460Y-35770D01*
X28380Y-29670D02*
X30510Y-29670D01*
X27050Y-31000D02*
X28380Y-29670D01*
G54D29*
X25500Y-31000D02*
X26500Y-31000D01*
X44500Y-28000D02*
X43500Y-28000D01*
X44500Y-27000D02*
X43500Y-27000D01*
G54D28*
X33550Y-33849D02*
X33551Y-33849D01*
G54D29*
X31469Y-34309D02*
X31929Y-33849D01*
X31469Y-34309D02*
X31469Y-34666D01*
G54D28*
X31929Y-33849D02*
X33550Y-33849D01*
G54D29*
X33372Y-27162D02*
X33372Y-26792D01*
X33372Y-26792D02*
X33447Y-26717D01*
X31469Y-35024D02*
X31469Y-35024D01*
X31469Y-36028D02*
X31469Y-35024D01*
X33123Y-37682D02*
X31469Y-36028D01*
X33437Y-37682D02*
X33123Y-37682D01*
X31469Y-34666D02*
X31469Y-35024D01*
G54D28*
X34422Y-34777D02*
X34422Y-34666D01*
X33860Y-35340D02*
X34422Y-34777D01*
X33585Y-35340D02*
X33860Y-35340D01*
X33565Y-35360D02*
X33585Y-35340D01*
X33775Y-37055D02*
X33924Y-36907D01*
X33924Y-36907D02*
X33924Y-35935D01*
X33924Y-35935D02*
X34237Y-35622D01*
X34408Y-35208D02*
X34422Y-35193D01*
X34422Y-35193D02*
X34422Y-34666D01*
G54D29*
X32506Y-26786D02*
X32506Y-27162D01*
X32592Y-26700D02*
X32506Y-26786D01*
G54D28*
X29530Y-34666D02*
X29357Y-34839D01*
X32663Y-41197D02*
X32668Y-41202D01*
X29571Y-41197D02*
X32663Y-41197D01*
X29357Y-35163D02*
X29357Y-34839D01*
G54D29*
X34220Y-26710D02*
X34239Y-26729D01*
X34238Y-27162D02*
X34239Y-26729D01*
G54D28*
X29530Y-34666D02*
X29530Y-34535D01*
X29844Y-33520D02*
X30254Y-33520D01*
X29376Y-33988D02*
X29844Y-33520D01*
X29376Y-34381D02*
X29376Y-33988D01*
X29530Y-34535D02*
X29376Y-34381D01*
G54D29*
X34238Y-29535D02*
X30254Y-33520D01*
X34238Y-27162D02*
X34238Y-29535D01*
G54D28*
X34671Y-27162D02*
X34671Y-27304D01*
X34887Y-27520D02*
X35000Y-27520D01*
X34671Y-27304D02*
X34887Y-27520D01*
X34078Y-29484D02*
X34078Y-29485D01*
X28730Y-34535D02*
X28861Y-34666D01*
X28730Y-34058D02*
X28730Y-34535D01*
X30242Y-32546D02*
X28730Y-34058D01*
X31028Y-32546D02*
X30242Y-32546D01*
X34078Y-29485D02*
X31028Y-32546D01*
G54D29*
X34078Y-29484D02*
X34078Y-29526D01*
G54D28*
X28829Y-34635D02*
X28861Y-34666D01*
X34671Y-27162D02*
X34671Y-27192D01*
X31640Y-27162D02*
X31640Y-27309D01*
X31429Y-27520D02*
X31000Y-27520D01*
X31640Y-27309D02*
X31429Y-27520D01*
X35787Y-34242D02*
X36062Y-34242D01*
X33245Y-34080D02*
X33407Y-34242D01*
X33407Y-34242D02*
X35787Y-34242D01*
X36390Y-34570D02*
X36390Y-34666D01*
X36062Y-34242D02*
X36390Y-34570D01*
G54D29*
X36390Y-34666D02*
X36390Y-34845D01*
X34090Y-36110D02*
X35305Y-36110D01*
X35305Y-36110D02*
X36390Y-35024D01*
X36390Y-34845D02*
X36390Y-35024D01*
G54D28*
X35290Y-35090D02*
X35290Y-34783D01*
X35290Y-34783D02*
X35406Y-34666D01*
X34953Y-35421D02*
X34173Y-35421D01*
G54D29*
X35290Y-35090D02*
X34953Y-35421D01*
G54D28*
X34065Y-35530D02*
X33775Y-35530D01*
X34173Y-35421D02*
X34065Y-35530D01*
X31877Y-26733D02*
X32003Y-26733D01*
X32003Y-26733D02*
X32073Y-26803D01*
X32073Y-26803D02*
X32073Y-27162D01*
G54D29*
X44500Y-36000D02*
X43500Y-36000D01*
X44500Y-37000D02*
X43500Y-37000D01*
G54D28*
X33110Y-38930D02*
X33110Y-38934D01*
G54D29*
X31255Y-39889D02*
X32297Y-38847D01*
G54D28*
X32304Y-38840D02*
X32297Y-38847D01*
X32420Y-38840D02*
X32304Y-38840D01*
X32570Y-38990D02*
X32420Y-38840D01*
X33055Y-38990D02*
X32570Y-38990D01*
X33110Y-38934D02*
X33055Y-38990D01*
X38682Y-33163D02*
X38703Y-33163D01*
G54D29*
X39230Y-37693D02*
X38969Y-37954D01*
X38969Y-37954D02*
X38630Y-37954D01*
G54D28*
X39327Y-37597D02*
X39230Y-37693D01*
X39327Y-33787D02*
X39327Y-37597D01*
X38703Y-33163D02*
X39327Y-33787D01*
X38682Y-33163D02*
X38683Y-33163D01*
X39100Y-40800D02*
X38507Y-40800D01*
X38250Y-40543D02*
X38250Y-40050D01*
X38507Y-40800D02*
X38250Y-40543D01*
G54D29*
X33108Y-38931D02*
X33110Y-38930D01*
X33110Y-38930D02*
X33269Y-38770D01*
X33269Y-38770D02*
X37199Y-38770D01*
X37199Y-38770D02*
X37542Y-38427D01*
X37542Y-38427D02*
X37542Y-37893D01*
X37542Y-37893D02*
X37608Y-37828D01*
X37608Y-37828D02*
X38503Y-37828D01*
X38503Y-37828D02*
X38630Y-37954D01*
X38250Y-40219D02*
X38250Y-40388D01*
X38250Y-40219D02*
X38250Y-40050D01*
X38250Y-40050D02*
X38250Y-39711D01*
X38250Y-39711D02*
X38630Y-39331D01*
X38630Y-39331D02*
X38630Y-37954D01*
G54D28*
X34266Y-38159D02*
X34266Y-38160D01*
X31537Y-38159D02*
X34166Y-38159D01*
X30078Y-36700D02*
X31537Y-38159D01*
G54D29*
X28157Y-36582D02*
X28277Y-36700D01*
X28157Y-36037D02*
X28157Y-36582D01*
G54D28*
X28277Y-36700D02*
X30078Y-36700D01*
X34166Y-38159D02*
X34266Y-38159D01*
G54D29*
X27919Y-35800D02*
X28157Y-36037D01*
X27806Y-35800D02*
X27919Y-35800D01*
X34497Y-37929D02*
X34497Y-37827D01*
X34266Y-38160D02*
X34497Y-37929D01*
X25500Y-32000D02*
X26500Y-32000D01*
G54D28*
X40768Y-32181D02*
X32351Y-32181D01*
X40775Y-32175D02*
X40768Y-32181D01*
G54D29*
X32351Y-32181D02*
X30191Y-34340D01*
X30191Y-34340D02*
X30191Y-34924D01*
X30191Y-34924D02*
X29422Y-35693D01*
G54D28*
X30626Y-39259D02*
X30940Y-39260D01*
X30625Y-39260D02*
X30626Y-39259D01*
X37250Y-40050D02*
X37250Y-39750D01*
X37173Y-39673D02*
X36750Y-39673D01*
X37250Y-39750D02*
X37173Y-39673D01*
G54D29*
X36750Y-39711D02*
X36750Y-39673D01*
X36750Y-39550D02*
X36600Y-39400D01*
X36750Y-39673D02*
X36750Y-39550D01*
X36900Y-39100D02*
X37200Y-39100D01*
X36600Y-39400D02*
X36900Y-39100D01*
G54D28*
X36235Y-40725D02*
X36750Y-40210D01*
X36750Y-40210D02*
X36750Y-40050D01*
G54D29*
X36750Y-39880D02*
X36750Y-39711D01*
X36750Y-39965D02*
X36750Y-39880D01*
X36750Y-40050D02*
X36750Y-39965D01*
G54D28*
X33409Y-38581D02*
X33410Y-38580D01*
X32862Y-38581D02*
X33409Y-38581D01*
X33901Y-41551D02*
X33903Y-41551D01*
G54D29*
X35900Y-40992D02*
X35900Y-40725D01*
G54D28*
X35842Y-41050D02*
X35900Y-40992D01*
X34405Y-41050D02*
X35842Y-41050D01*
X33903Y-41551D02*
X34405Y-41050D01*
X31170Y-40072D02*
X32422Y-40072D01*
G54D29*
X31170Y-40072D02*
X31082Y-39984D01*
X31082Y-39984D02*
X31082Y-39747D01*
X31255Y-39575D02*
X31082Y-39747D01*
G54D28*
X32422Y-40072D02*
X33901Y-41551D01*
X32244Y-38585D02*
X32858Y-38585D01*
X32244Y-38585D02*
X32218Y-38611D01*
G54D29*
X31804Y-39025D02*
X32218Y-38611D01*
G54D28*
X32858Y-38585D02*
X32862Y-38581D01*
X32862Y-38581D02*
X32867Y-38576D01*
X32894Y-38548D02*
X32862Y-38581D01*
X35900Y-40725D02*
X36235Y-40725D01*
G54D29*
X33800Y-41900D02*
X33800Y-41712D01*
X33901Y-41611D02*
X33901Y-41551D01*
X33800Y-41712D02*
X33901Y-41611D01*
X31804Y-39025D02*
X31255Y-39575D01*
G54D28*
X30467Y-32840D02*
X30467Y-32840D01*
G54D29*
X30184Y-32840D02*
X28973Y-34051D01*
G54D28*
X30184Y-32840D02*
X30467Y-32840D01*
G54D29*
X32439Y-31580D02*
X31840Y-32180D01*
X38319Y-31580D02*
X32439Y-31580D01*
X38319Y-31580D02*
X41800Y-28100D01*
G54D28*
X30310Y-37370D02*
X30297Y-37383D01*
X30297Y-37383D02*
X28940Y-37384D01*
G54D29*
X25500Y-28000D02*
X26500Y-28000D01*
X25500Y-27000D02*
X26500Y-27000D01*
G54D10*
G36*
X33050Y-34001D02*
X33035Y-34038D01*
X33034Y-34121D01*
X33045Y-34145D01*
X33020Y-34121D01*
X32876Y-34121D01*
X32784Y-34159D01*
X32714Y-34230D01*
X32704Y-34253D01*
X32676Y-34241D01*
X32624Y-34241D01*
X32231Y-34241D01*
X32183Y-34261D01*
X32146Y-34298D01*
X32127Y-34345D01*
X32127Y-34397D01*
X32127Y-34988D01*
X32146Y-35035D01*
X32183Y-35072D01*
X32231Y-35092D01*
X32282Y-35092D01*
X32339Y-35092D01*
X32346Y-35101D01*
X32787Y-35543D01*
X32787Y-35625D01*
X32787Y-37070D01*
X32762Y-37095D01*
X32759Y-37102D01*
X31622Y-35965D01*
X31622Y-35092D01*
X31692Y-35092D01*
X31740Y-35072D01*
X31776Y-35035D01*
X31796Y-34988D01*
X31796Y-34936D01*
X31796Y-34345D01*
X31776Y-34298D01*
X31740Y-34261D01*
X31735Y-34259D01*
X31992Y-34001D01*
X33050Y-34001D01*
X33050Y-34001D01*
G37*
G54D30*
X33050Y-34001D02*
X33035Y-34038D01*
X33034Y-34121D01*
X33045Y-34145D01*
X33020Y-34121D01*
X32876Y-34121D01*
X32784Y-34159D01*
X32714Y-34230D01*
X32704Y-34253D01*
X32676Y-34241D01*
X32624Y-34241D01*
X32231Y-34241D01*
X32183Y-34261D01*
X32146Y-34298D01*
X32127Y-34345D01*
X32127Y-34397D01*
X32127Y-34988D01*
X32146Y-35035D01*
X32183Y-35072D01*
X32231Y-35092D01*
X32282Y-35092D01*
X32339Y-35092D01*
X32346Y-35101D01*
X32787Y-35543D01*
X32787Y-35625D01*
X32787Y-37070D01*
X32762Y-37095D01*
X32759Y-37102D01*
X31622Y-35965D01*
X31622Y-35092D01*
X31692Y-35092D01*
X31740Y-35072D01*
X31776Y-35035D01*
X31796Y-34988D01*
X31796Y-34936D01*
X31796Y-34345D01*
X31776Y-34298D01*
X31740Y-34261D01*
X31735Y-34259D01*
X31992Y-34001D01*
X33050Y-34001D01*
G54D10*
G36*
X33090Y-38733D02*
X33002Y-38822D01*
X33001Y-38823D01*
X32991Y-38837D01*
X32633Y-38837D01*
X32533Y-38737D01*
X32721Y-38737D01*
X32742Y-38758D01*
X32820Y-38790D01*
X32903Y-38791D01*
X32980Y-38759D01*
X33006Y-38733D01*
X33090Y-38733D01*
X33090Y-38733D01*
G37*
G54D30*
X33090Y-38733D02*
X33002Y-38822D01*
X33001Y-38823D01*
X32991Y-38837D01*
X32633Y-38837D01*
X32533Y-38737D01*
X32721Y-38737D01*
X32742Y-38758D01*
X32820Y-38790D01*
X32903Y-38791D01*
X32980Y-38759D01*
X33006Y-38733D01*
X33090Y-38733D01*
G54D10*
G36*
X33171Y-34706D02*
X33163Y-34706D01*
X33163Y-34714D01*
X33083Y-34714D01*
X33083Y-34706D01*
X33075Y-34706D01*
X33075Y-34626D01*
X33083Y-34626D01*
X33083Y-34619D01*
X33163Y-34619D01*
X33163Y-34626D01*
X33171Y-34626D01*
X33171Y-34706D01*
X33171Y-34706D01*
G37*
G54D30*
X33171Y-34706D02*
X33163Y-34706D01*
X33163Y-34714D01*
X33083Y-34714D01*
X33083Y-34706D01*
X33075Y-34706D01*
X33075Y-34626D01*
X33083Y-34626D01*
X33083Y-34619D01*
X33163Y-34619D01*
X33163Y-34626D01*
X33171Y-34626D01*
X33171Y-34706D01*
G54D10*
G36*
X33781Y-29566D02*
X30964Y-32393D01*
X30427Y-32393D01*
X33159Y-29661D01*
X33159Y-29661D01*
X33306Y-29514D01*
X33695Y-29514D01*
X33723Y-29542D01*
X33781Y-29566D01*
X33781Y-29566D01*
G37*
G54D30*
X33781Y-29566D02*
X30964Y-32393D01*
X30427Y-32393D01*
X33159Y-29661D01*
X33159Y-29661D01*
X33306Y-29514D01*
X33695Y-29514D01*
X33723Y-29542D01*
X33781Y-29566D01*
G54D10*
G36*
X35092Y-35018D02*
X35080Y-35048D01*
X35080Y-35082D01*
X34891Y-35269D01*
X34610Y-35269D01*
X34617Y-35249D01*
X34618Y-35166D01*
X34587Y-35092D01*
X34645Y-35092D01*
X34692Y-35072D01*
X34729Y-35035D01*
X34749Y-34988D01*
X34749Y-34936D01*
X34749Y-34394D01*
X35079Y-34394D01*
X35079Y-34397D01*
X35079Y-34988D01*
X35092Y-35018D01*
X35092Y-35018D01*
G37*
G54D30*
X35092Y-35018D02*
X35080Y-35048D01*
X35080Y-35082D01*
X34891Y-35269D01*
X34610Y-35269D01*
X34617Y-35249D01*
X34618Y-35166D01*
X34587Y-35092D01*
X34645Y-35092D01*
X34692Y-35072D01*
X34729Y-35035D01*
X34749Y-34988D01*
X34749Y-34936D01*
X34749Y-34394D01*
X35079Y-34394D01*
X35079Y-34397D01*
X35079Y-34988D01*
X35092Y-35018D01*
G54D10*
G36*
X36125Y-35074D02*
X35242Y-35957D01*
X34234Y-35957D01*
X34209Y-35932D01*
X34162Y-35912D01*
X34242Y-35832D01*
X34278Y-35832D01*
X34355Y-35800D01*
X34414Y-35741D01*
X34446Y-35663D01*
X34447Y-35580D01*
X34444Y-35574D01*
X34952Y-35574D01*
X34952Y-35574D01*
X34952Y-35574D01*
X34953Y-35574D01*
X34979Y-35568D01*
X35011Y-35562D01*
X35011Y-35562D01*
X35012Y-35562D01*
X35034Y-35547D01*
X35060Y-35530D01*
X35294Y-35300D01*
X35331Y-35300D01*
X35408Y-35268D01*
X35467Y-35209D01*
X35499Y-35131D01*
X35499Y-35092D01*
X35629Y-35092D01*
X35677Y-35072D01*
X35713Y-35035D01*
X35733Y-34988D01*
X35733Y-34936D01*
X35733Y-34394D01*
X35787Y-34394D01*
X35999Y-34394D01*
X36064Y-34459D01*
X36064Y-34988D01*
X36083Y-35035D01*
X36120Y-35072D01*
X36125Y-35074D01*
X36125Y-35074D01*
G37*
G54D30*
X36125Y-35074D02*
X35242Y-35957D01*
X34234Y-35957D01*
X34209Y-35932D01*
X34162Y-35912D01*
X34242Y-35832D01*
X34278Y-35832D01*
X34355Y-35800D01*
X34414Y-35741D01*
X34446Y-35663D01*
X34447Y-35580D01*
X34444Y-35574D01*
X34952Y-35574D01*
X34952Y-35574D01*
X34952Y-35574D01*
X34953Y-35574D01*
X34979Y-35568D01*
X35011Y-35562D01*
X35011Y-35562D01*
X35012Y-35562D01*
X35034Y-35547D01*
X35060Y-35530D01*
X35294Y-35300D01*
X35331Y-35300D01*
X35408Y-35268D01*
X35467Y-35209D01*
X35499Y-35131D01*
X35499Y-35092D01*
X35629Y-35092D01*
X35677Y-35072D01*
X35713Y-35035D01*
X35733Y-34988D01*
X35733Y-34936D01*
X35733Y-34394D01*
X35787Y-34394D01*
X35999Y-34394D01*
X36064Y-34459D01*
X36064Y-34988D01*
X36083Y-35035D01*
X36120Y-35072D01*
X36125Y-35074D01*
G54D10*
G36*
X36945Y-38947D02*
X36900Y-38947D01*
X36841Y-38959D01*
X36792Y-38992D01*
X36667Y-39116D01*
X36657Y-39112D01*
X36543Y-39112D01*
X36437Y-39156D01*
X36356Y-39236D01*
X36312Y-39342D01*
X36312Y-39456D01*
X36356Y-39562D01*
X36436Y-39643D01*
X36537Y-39685D01*
X36521Y-39700D01*
X36502Y-39748D01*
X36502Y-39800D01*
X36502Y-40242D01*
X36276Y-40467D01*
X36248Y-40439D01*
X36200Y-40420D01*
X36149Y-40420D01*
X35599Y-40420D01*
X35551Y-40439D01*
X35514Y-40476D01*
X35495Y-40524D01*
X35495Y-40575D01*
X35495Y-40897D01*
X34405Y-40897D01*
X34346Y-40909D01*
X34297Y-40942D01*
X34297Y-40942D01*
X33902Y-41336D01*
X33040Y-40475D01*
X33045Y-40476D01*
X33128Y-40477D01*
X33205Y-40445D01*
X33264Y-40386D01*
X33296Y-40308D01*
X33297Y-40225D01*
X33265Y-40148D01*
X33239Y-40122D01*
X33240Y-39612D01*
X33234Y-39584D01*
X33229Y-39555D01*
X33228Y-39555D01*
X33228Y-39554D01*
X33212Y-39530D01*
X33196Y-39505D01*
X32880Y-39181D01*
X32880Y-39143D01*
X32879Y-39142D01*
X33055Y-39142D01*
X33113Y-39130D01*
X33113Y-39130D01*
X33162Y-39097D01*
X33217Y-39042D01*
X33227Y-39027D01*
X33332Y-38923D01*
X36945Y-38923D01*
X36945Y-38947D01*
X36945Y-38947D01*
G37*
G54D30*
X36945Y-38947D02*
X36900Y-38947D01*
X36841Y-38959D01*
X36792Y-38992D01*
X36667Y-39116D01*
X36657Y-39112D01*
X36543Y-39112D01*
X36437Y-39156D01*
X36356Y-39236D01*
X36312Y-39342D01*
X36312Y-39456D01*
X36356Y-39562D01*
X36436Y-39643D01*
X36537Y-39685D01*
X36521Y-39700D01*
X36502Y-39748D01*
X36502Y-39800D01*
X36502Y-40242D01*
X36276Y-40467D01*
X36248Y-40439D01*
X36200Y-40420D01*
X36149Y-40420D01*
X35599Y-40420D01*
X35551Y-40439D01*
X35514Y-40476D01*
X35495Y-40524D01*
X35495Y-40575D01*
X35495Y-40897D01*
X34405Y-40897D01*
X34346Y-40909D01*
X34297Y-40942D01*
X34297Y-40942D01*
X33902Y-41336D01*
X33040Y-40475D01*
X33045Y-40476D01*
X33128Y-40477D01*
X33205Y-40445D01*
X33264Y-40386D01*
X33296Y-40308D01*
X33297Y-40225D01*
X33265Y-40148D01*
X33239Y-40122D01*
X33240Y-39612D01*
X33234Y-39584D01*
X33229Y-39555D01*
X33228Y-39555D01*
X33228Y-39554D01*
X33212Y-39530D01*
X33196Y-39505D01*
X32880Y-39181D01*
X32880Y-39143D01*
X32879Y-39142D01*
X33055Y-39142D01*
X33113Y-39130D01*
X33113Y-39130D01*
X33162Y-39097D01*
X33217Y-39042D01*
X33227Y-39027D01*
X33332Y-38923D01*
X36945Y-38923D01*
X36945Y-38947D01*
G54D10*
G36*
X37149Y-37152D02*
X36943Y-37358D01*
X34614Y-37357D01*
X34589Y-37332D01*
X34511Y-37300D01*
X34428Y-37299D01*
X34351Y-37331D01*
X34299Y-37383D01*
X34299Y-37375D01*
X34522Y-37152D01*
X37149Y-37152D01*
X37149Y-37152D01*
G37*
G54D30*
X37149Y-37152D02*
X36943Y-37358D01*
X34614Y-37357D01*
X34589Y-37332D01*
X34511Y-37300D01*
X34428Y-37299D01*
X34351Y-37331D01*
X34299Y-37383D01*
X34299Y-37375D01*
X34522Y-37152D01*
X37149Y-37152D01*
G54D10*
G36*
X37247Y-38240D02*
X37240Y-38240D01*
X37240Y-38247D01*
X37160Y-38247D01*
X37160Y-38240D01*
X36887Y-38240D01*
X36825Y-38302D01*
X36825Y-38375D01*
X36825Y-38474D01*
X36863Y-38566D01*
X36914Y-38618D01*
X33619Y-38618D01*
X33620Y-38559D01*
X36364Y-38559D01*
X36367Y-38562D01*
X36445Y-38594D01*
X36528Y-38595D01*
X36605Y-38563D01*
X36664Y-38504D01*
X36696Y-38426D01*
X36697Y-38343D01*
X36665Y-38266D01*
X36606Y-38207D01*
X36528Y-38175D01*
X36484Y-38174D01*
X36493Y-38171D01*
X36552Y-38112D01*
X36584Y-38034D01*
X36585Y-37951D01*
X36553Y-37874D01*
X36494Y-37815D01*
X36416Y-37783D01*
X36333Y-37782D01*
X36256Y-37814D01*
X36197Y-37873D01*
X36165Y-37951D01*
X36165Y-37987D01*
X36024Y-38127D01*
X34514Y-38127D01*
X34605Y-38036D01*
X34638Y-37987D01*
X34638Y-37987D01*
X34639Y-37982D01*
X34675Y-37946D01*
X34707Y-37869D01*
X34707Y-37785D01*
X34675Y-37708D01*
X34629Y-37662D01*
X37003Y-37663D01*
X37016Y-37694D01*
X37019Y-37697D01*
X37004Y-37733D01*
X36933Y-37763D01*
X36863Y-37833D01*
X36825Y-37925D01*
X36825Y-38024D01*
X36825Y-38097D01*
X36887Y-38160D01*
X37160Y-38160D01*
X37160Y-38152D01*
X37240Y-38152D01*
X37240Y-38160D01*
X37247Y-38160D01*
X37247Y-38240D01*
X37247Y-38240D01*
G37*
G54D30*
X37247Y-38240D02*
X37240Y-38240D01*
X37240Y-38247D01*
X37160Y-38247D01*
X37160Y-38240D01*
X36887Y-38240D01*
X36825Y-38302D01*
X36825Y-38375D01*
X36825Y-38474D01*
X36863Y-38566D01*
X36914Y-38618D01*
X33619Y-38618D01*
X33620Y-38559D01*
X36364Y-38559D01*
X36367Y-38562D01*
X36445Y-38594D01*
X36528Y-38595D01*
X36605Y-38563D01*
X36664Y-38504D01*
X36696Y-38426D01*
X36697Y-38343D01*
X36665Y-38266D01*
X36606Y-38207D01*
X36528Y-38175D01*
X36484Y-38174D01*
X36493Y-38171D01*
X36552Y-38112D01*
X36584Y-38034D01*
X36585Y-37951D01*
X36553Y-37874D01*
X36494Y-37815D01*
X36416Y-37783D01*
X36333Y-37782D01*
X36256Y-37814D01*
X36197Y-37873D01*
X36165Y-37951D01*
X36165Y-37987D01*
X36024Y-38127D01*
X34514Y-38127D01*
X34605Y-38036D01*
X34638Y-37987D01*
X34638Y-37987D01*
X34639Y-37982D01*
X34675Y-37946D01*
X34707Y-37869D01*
X34707Y-37785D01*
X34675Y-37708D01*
X34629Y-37662D01*
X37003Y-37663D01*
X37016Y-37694D01*
X37019Y-37697D01*
X37004Y-37733D01*
X36933Y-37763D01*
X36863Y-37833D01*
X36825Y-37925D01*
X36825Y-38024D01*
X36825Y-38097D01*
X36887Y-38160D01*
X37160Y-38160D01*
X37160Y-38152D01*
X37240Y-38152D01*
X37240Y-38160D01*
X37247Y-38160D01*
X37247Y-38240D01*
G54D10*
G36*
X45295Y-41795D02*
X45111Y-41795D01*
X45111Y-24668D01*
X44500Y-24056D01*
X44443Y-24113D01*
X44443Y-24000D01*
X43831Y-23388D01*
X43693Y-23463D01*
X43549Y-23812D01*
X43550Y-24190D01*
X43693Y-24536D01*
X43831Y-24611D01*
X44443Y-24000D01*
X44443Y-24113D01*
X43888Y-24668D01*
X43963Y-24806D01*
X44312Y-24950D01*
X44690Y-24949D01*
X45036Y-24806D01*
X45111Y-24668D01*
X45111Y-41795D01*
X44925Y-41795D01*
X44925Y-39915D01*
X44925Y-38915D01*
X44925Y-37915D01*
X44925Y-36915D01*
X44925Y-35915D01*
X44925Y-34915D01*
X44925Y-33915D01*
X44925Y-32915D01*
X44925Y-31915D01*
X44925Y-30915D01*
X44925Y-29915D01*
X44925Y-28915D01*
X44925Y-27915D01*
X44925Y-27915D01*
X44925Y-27321D01*
X44925Y-27269D01*
X44925Y-26678D01*
X44905Y-26630D01*
X44869Y-26594D01*
X44821Y-26574D01*
X44769Y-26574D01*
X44178Y-26574D01*
X44130Y-26594D01*
X44094Y-26630D01*
X44074Y-26678D01*
X44074Y-26730D01*
X44074Y-26847D01*
X43925Y-26847D01*
X43925Y-26678D01*
X43905Y-26630D01*
X43869Y-26594D01*
X43821Y-26574D01*
X43769Y-26574D01*
X43178Y-26574D01*
X43130Y-26594D01*
X43094Y-26630D01*
X43074Y-26678D01*
X43074Y-26730D01*
X43074Y-27321D01*
X43094Y-27369D01*
X43130Y-27405D01*
X43178Y-27425D01*
X43230Y-27425D01*
X43821Y-27425D01*
X43869Y-27405D01*
X43905Y-27369D01*
X43925Y-27321D01*
X43925Y-27269D01*
X43925Y-27152D01*
X44074Y-27152D01*
X44074Y-27321D01*
X44094Y-27369D01*
X44130Y-27405D01*
X44178Y-27425D01*
X44230Y-27425D01*
X44821Y-27425D01*
X44869Y-27405D01*
X44905Y-27369D01*
X44925Y-27321D01*
X44925Y-27915D01*
X44860Y-27759D01*
X44741Y-27639D01*
X44585Y-27574D01*
X44415Y-27574D01*
X44259Y-27639D01*
X44139Y-27758D01*
X44102Y-27847D01*
X43897Y-27847D01*
X43860Y-27759D01*
X43741Y-27639D01*
X43585Y-27574D01*
X43415Y-27574D01*
X43259Y-27639D01*
X43139Y-27758D01*
X43074Y-27914D01*
X43074Y-28084D01*
X43139Y-28240D01*
X43258Y-28360D01*
X43414Y-28425D01*
X43584Y-28425D01*
X43740Y-28360D01*
X43860Y-28241D01*
X43897Y-28152D01*
X44102Y-28152D01*
X44139Y-28240D01*
X44258Y-28360D01*
X44414Y-28425D01*
X44584Y-28425D01*
X44740Y-28360D01*
X44860Y-28241D01*
X44925Y-28085D01*
X44925Y-27915D01*
X44925Y-28915D01*
X44860Y-28759D01*
X44741Y-28639D01*
X44585Y-28574D01*
X44415Y-28574D01*
X44259Y-28639D01*
X44139Y-28758D01*
X44102Y-28847D01*
X43897Y-28847D01*
X43860Y-28759D01*
X43741Y-28639D01*
X43585Y-28574D01*
X43415Y-28574D01*
X43259Y-28639D01*
X43139Y-28758D01*
X43074Y-28914D01*
X43074Y-29084D01*
X43139Y-29240D01*
X43258Y-29360D01*
X43414Y-29425D01*
X43584Y-29425D01*
X43740Y-29360D01*
X43860Y-29241D01*
X43897Y-29152D01*
X44102Y-29152D01*
X44139Y-29240D01*
X44258Y-29360D01*
X44414Y-29425D01*
X44584Y-29425D01*
X44740Y-29360D01*
X44860Y-29241D01*
X44925Y-29085D01*
X44925Y-28915D01*
X44925Y-29915D01*
X44860Y-29759D01*
X44741Y-29639D01*
X44585Y-29574D01*
X44415Y-29574D01*
X44259Y-29639D01*
X44139Y-29758D01*
X44102Y-29847D01*
X43897Y-29847D01*
X43860Y-29759D01*
X43741Y-29639D01*
X43585Y-29574D01*
X43415Y-29574D01*
X43259Y-29639D01*
X43139Y-29758D01*
X43074Y-29914D01*
X43074Y-30084D01*
X43139Y-30240D01*
X43258Y-30360D01*
X43414Y-30425D01*
X43584Y-30425D01*
X43740Y-30360D01*
X43860Y-30241D01*
X43897Y-30152D01*
X44102Y-30152D01*
X44139Y-30240D01*
X44258Y-30360D01*
X44414Y-30425D01*
X44584Y-30425D01*
X44740Y-30360D01*
X44860Y-30241D01*
X44925Y-30085D01*
X44925Y-29915D01*
X44925Y-30915D01*
X44860Y-30759D01*
X44741Y-30639D01*
X44585Y-30574D01*
X44415Y-30574D01*
X44259Y-30639D01*
X44139Y-30758D01*
X44102Y-30847D01*
X43897Y-30847D01*
X43860Y-30759D01*
X43741Y-30639D01*
X43585Y-30574D01*
X43415Y-30574D01*
X43259Y-30639D01*
X43139Y-30758D01*
X43074Y-30914D01*
X43074Y-31084D01*
X43139Y-31240D01*
X43258Y-31360D01*
X43414Y-31425D01*
X43584Y-31425D01*
X43740Y-31360D01*
X43860Y-31241D01*
X43897Y-31152D01*
X44102Y-31152D01*
X44139Y-31240D01*
X44258Y-31360D01*
X44414Y-31425D01*
X44584Y-31425D01*
X44740Y-31360D01*
X44860Y-31241D01*
X44925Y-31085D01*
X44925Y-30915D01*
X44925Y-31915D01*
X44860Y-31759D01*
X44741Y-31639D01*
X44585Y-31574D01*
X44415Y-31574D01*
X44259Y-31639D01*
X44139Y-31758D01*
X44102Y-31847D01*
X43897Y-31847D01*
X43860Y-31759D01*
X43741Y-31639D01*
X43585Y-31574D01*
X43415Y-31574D01*
X43259Y-31639D01*
X43139Y-31758D01*
X43074Y-31914D01*
X43074Y-32084D01*
X43139Y-32240D01*
X43258Y-32360D01*
X43414Y-32425D01*
X43584Y-32425D01*
X43740Y-32360D01*
X43860Y-32241D01*
X43897Y-32152D01*
X44102Y-32152D01*
X44139Y-32240D01*
X44258Y-32360D01*
X44414Y-32425D01*
X44584Y-32425D01*
X44740Y-32360D01*
X44860Y-32241D01*
X44925Y-32085D01*
X44925Y-31915D01*
X44925Y-32915D01*
X44860Y-32759D01*
X44741Y-32639D01*
X44585Y-32574D01*
X44415Y-32574D01*
X44259Y-32639D01*
X44139Y-32758D01*
X44102Y-32847D01*
X43897Y-32847D01*
X43860Y-32759D01*
X43741Y-32639D01*
X43585Y-32574D01*
X43415Y-32574D01*
X43259Y-32639D01*
X43139Y-32758D01*
X43074Y-32914D01*
X43074Y-33084D01*
X43139Y-33240D01*
X43258Y-33360D01*
X43414Y-33425D01*
X43584Y-33425D01*
X43740Y-33360D01*
X43860Y-33241D01*
X43897Y-33152D01*
X44102Y-33152D01*
X44139Y-33240D01*
X44258Y-33360D01*
X44414Y-33425D01*
X44584Y-33425D01*
X44740Y-33360D01*
X44860Y-33241D01*
X44925Y-33085D01*
X44925Y-32915D01*
X44925Y-33915D01*
X44860Y-33759D01*
X44741Y-33639D01*
X44585Y-33574D01*
X44415Y-33574D01*
X44259Y-33639D01*
X44139Y-33758D01*
X44102Y-33847D01*
X43897Y-33847D01*
X43860Y-33759D01*
X43741Y-33639D01*
X43585Y-33574D01*
X43415Y-33574D01*
X43259Y-33639D01*
X43139Y-33758D01*
X43074Y-33914D01*
X43074Y-34084D01*
X43139Y-34240D01*
X43258Y-34360D01*
X43414Y-34425D01*
X43584Y-34425D01*
X43740Y-34360D01*
X43860Y-34241D01*
X43897Y-34152D01*
X44102Y-34152D01*
X44139Y-34240D01*
X44258Y-34360D01*
X44414Y-34425D01*
X44584Y-34425D01*
X44740Y-34360D01*
X44860Y-34241D01*
X44925Y-34085D01*
X44925Y-33915D01*
X44925Y-34915D01*
X44860Y-34759D01*
X44741Y-34639D01*
X44585Y-34574D01*
X44415Y-34574D01*
X44259Y-34639D01*
X44139Y-34758D01*
X44102Y-34847D01*
X43897Y-34847D01*
X43860Y-34759D01*
X43741Y-34639D01*
X43585Y-34574D01*
X43415Y-34574D01*
X43259Y-34639D01*
X43139Y-34758D01*
X43074Y-34914D01*
X43074Y-35084D01*
X43139Y-35240D01*
X43258Y-35360D01*
X43414Y-35425D01*
X43584Y-35425D01*
X43740Y-35360D01*
X43860Y-35241D01*
X43897Y-35152D01*
X44102Y-35152D01*
X44139Y-35240D01*
X44258Y-35360D01*
X44414Y-35425D01*
X44584Y-35425D01*
X44740Y-35360D01*
X44860Y-35241D01*
X44925Y-35085D01*
X44925Y-34915D01*
X44925Y-35915D01*
X44860Y-35759D01*
X44741Y-35639D01*
X44585Y-35574D01*
X44415Y-35574D01*
X44259Y-35639D01*
X44139Y-35758D01*
X44102Y-35847D01*
X43897Y-35847D01*
X43860Y-35759D01*
X43741Y-35639D01*
X43585Y-35574D01*
X43415Y-35574D01*
X43259Y-35639D01*
X43139Y-35758D01*
X43074Y-35914D01*
X43074Y-36084D01*
X43139Y-36240D01*
X43258Y-36360D01*
X43414Y-36425D01*
X43584Y-36425D01*
X43740Y-36360D01*
X43860Y-36241D01*
X43897Y-36152D01*
X44102Y-36152D01*
X44139Y-36240D01*
X44258Y-36360D01*
X44414Y-36425D01*
X44584Y-36425D01*
X44740Y-36360D01*
X44860Y-36241D01*
X44925Y-36085D01*
X44925Y-35915D01*
X44925Y-36915D01*
X44860Y-36759D01*
X44741Y-36639D01*
X44585Y-36574D01*
X44415Y-36574D01*
X44259Y-36639D01*
X44139Y-36758D01*
X44102Y-36847D01*
X43897Y-36847D01*
X43860Y-36759D01*
X43741Y-36639D01*
X43585Y-36574D01*
X43415Y-36574D01*
X43259Y-36639D01*
X43139Y-36758D01*
X43074Y-36914D01*
X43074Y-37084D01*
X43139Y-37240D01*
X43258Y-37360D01*
X43414Y-37425D01*
X43584Y-37425D01*
X43740Y-37360D01*
X43860Y-37241D01*
X43897Y-37152D01*
X44102Y-37152D01*
X44139Y-37240D01*
X44258Y-37360D01*
X44414Y-37425D01*
X44584Y-37425D01*
X44740Y-37360D01*
X44860Y-37241D01*
X44925Y-37085D01*
X44925Y-36915D01*
X44925Y-37915D01*
X44860Y-37759D01*
X44741Y-37639D01*
X44585Y-37574D01*
X44415Y-37574D01*
X44259Y-37639D01*
X44139Y-37758D01*
X44102Y-37847D01*
X43897Y-37847D01*
X43860Y-37759D01*
X43741Y-37639D01*
X43585Y-37574D01*
X43415Y-37574D01*
X43259Y-37639D01*
X43139Y-37758D01*
X43074Y-37914D01*
X43074Y-38084D01*
X43081Y-38102D01*
X42782Y-38402D01*
X42749Y-38451D01*
X42737Y-38510D01*
X42737Y-39946D01*
X42725Y-39958D01*
X42725Y-37820D01*
X42725Y-34756D01*
X42725Y-34756D01*
X42725Y-34253D01*
X42714Y-34194D01*
X42714Y-34194D01*
X42681Y-34145D01*
X42652Y-34117D01*
X42605Y-34085D01*
X42605Y-34024D01*
X42585Y-33976D01*
X42548Y-33939D01*
X42500Y-33920D01*
X42449Y-33920D01*
X42087Y-33920D01*
X42087Y-28043D01*
X42043Y-27937D01*
X41963Y-27856D01*
X41857Y-27812D01*
X41743Y-27812D01*
X41637Y-27856D01*
X41556Y-27936D01*
X41512Y-28042D01*
X41512Y-28156D01*
X41516Y-28167D01*
X38735Y-30948D01*
X38735Y-26858D01*
X38735Y-26806D01*
X38735Y-25940D01*
X38715Y-25892D01*
X38679Y-25855D01*
X38631Y-25836D01*
X38579Y-25836D01*
X38107Y-25836D01*
X38059Y-25855D01*
X38022Y-25892D01*
X38003Y-25940D01*
X38003Y-25992D01*
X38003Y-26858D01*
X38022Y-26905D01*
X38059Y-26942D01*
X38107Y-26962D01*
X38158Y-26962D01*
X38631Y-26962D01*
X38679Y-26942D01*
X38715Y-26905D01*
X38735Y-26858D01*
X38735Y-30948D01*
X38256Y-31428D01*
X37889Y-31428D01*
X37889Y-25015D01*
X37824Y-24859D01*
X37704Y-24739D01*
X37548Y-24674D01*
X37379Y-24674D01*
X37223Y-24739D01*
X37103Y-24858D01*
X37038Y-25015D01*
X37038Y-25184D01*
X37103Y-25340D01*
X37222Y-25460D01*
X37378Y-25525D01*
X37548Y-25525D01*
X37704Y-25460D01*
X37824Y-25341D01*
X37888Y-25184D01*
X37889Y-25015D01*
X37889Y-31428D01*
X36952Y-31428D01*
X36972Y-31380D01*
X36972Y-31297D01*
X36940Y-31219D01*
X36881Y-31160D01*
X36804Y-31128D01*
X36768Y-31128D01*
X35992Y-30353D01*
X35992Y-28606D01*
X35992Y-28554D01*
X35992Y-27767D01*
X35992Y-25338D01*
X35992Y-25286D01*
X35992Y-24499D01*
X35972Y-24451D01*
X35936Y-24414D01*
X35888Y-24395D01*
X35836Y-24395D01*
X35265Y-24395D01*
X35218Y-24414D01*
X35181Y-24451D01*
X35161Y-24499D01*
X35161Y-24551D01*
X35161Y-25338D01*
X35181Y-25386D01*
X35218Y-25422D01*
X35265Y-25442D01*
X35317Y-25442D01*
X35888Y-25442D01*
X35936Y-25422D01*
X35972Y-25386D01*
X35992Y-25338D01*
X35992Y-27767D01*
X35972Y-27719D01*
X35936Y-27682D01*
X35888Y-27662D01*
X35836Y-27662D01*
X35265Y-27662D01*
X35218Y-27682D01*
X35181Y-27719D01*
X35161Y-27767D01*
X35161Y-27818D01*
X35161Y-28606D01*
X35181Y-28653D01*
X35218Y-28690D01*
X35265Y-28710D01*
X35317Y-28710D01*
X35888Y-28710D01*
X35936Y-28690D01*
X35972Y-28653D01*
X35992Y-28606D01*
X35992Y-30353D01*
X35831Y-30192D01*
X35781Y-30159D01*
X35723Y-30147D01*
X34811Y-30147D01*
X34786Y-30122D01*
X34709Y-30090D01*
X34625Y-30089D01*
X34548Y-30121D01*
X34489Y-30180D01*
X34457Y-30258D01*
X34457Y-30341D01*
X34489Y-30418D01*
X34548Y-30477D01*
X34625Y-30509D01*
X34709Y-30510D01*
X34786Y-30478D01*
X34811Y-30452D01*
X35660Y-30452D01*
X36552Y-31344D01*
X36552Y-31380D01*
X36572Y-31428D01*
X32561Y-31428D01*
X34346Y-29643D01*
X34379Y-29593D01*
X34379Y-29593D01*
X34391Y-29535D01*
X34391Y-27588D01*
X34421Y-27588D01*
X34455Y-27574D01*
X34488Y-27588D01*
X34540Y-27588D01*
X34739Y-27588D01*
X34780Y-27628D01*
X34829Y-27661D01*
X34829Y-27661D01*
X34847Y-27665D01*
X34881Y-27698D01*
X34958Y-27730D01*
X35041Y-27730D01*
X35118Y-27699D01*
X35178Y-27640D01*
X35210Y-27562D01*
X35210Y-27479D01*
X35178Y-27402D01*
X35119Y-27342D01*
X35042Y-27310D01*
X34959Y-27310D01*
X34959Y-26841D01*
X34939Y-26794D01*
X34902Y-26757D01*
X34854Y-26737D01*
X34803Y-26737D01*
X34488Y-26737D01*
X34455Y-26751D01*
X34429Y-26741D01*
X34430Y-26668D01*
X34398Y-26591D01*
X34339Y-26532D01*
X34261Y-26500D01*
X34178Y-26499D01*
X34101Y-26531D01*
X34042Y-26590D01*
X34028Y-26624D01*
X34012Y-26617D01*
X33908Y-26617D01*
X33845Y-26680D01*
X33845Y-27122D01*
X33853Y-27122D01*
X33853Y-27202D01*
X33845Y-27202D01*
X33845Y-27645D01*
X33908Y-27708D01*
X34012Y-27708D01*
X34086Y-27677D01*
X34086Y-29274D01*
X34036Y-29273D01*
X34033Y-29275D01*
X34021Y-29246D01*
X33962Y-29187D01*
X33884Y-29155D01*
X33801Y-29154D01*
X33765Y-29169D01*
X33765Y-27645D01*
X33765Y-27202D01*
X33757Y-27202D01*
X33757Y-27122D01*
X33765Y-27122D01*
X33765Y-26680D01*
X33703Y-26617D01*
X33633Y-26617D01*
X33625Y-26598D01*
X33566Y-26539D01*
X33489Y-26507D01*
X33405Y-26507D01*
X33328Y-26539D01*
X33269Y-26598D01*
X33237Y-26675D01*
X33237Y-26725D01*
X33237Y-26725D01*
X33231Y-26734D01*
X33230Y-26737D01*
X33189Y-26737D01*
X33155Y-26751D01*
X33122Y-26737D01*
X33091Y-26737D01*
X33091Y-25281D01*
X33080Y-25222D01*
X33080Y-25222D01*
X33047Y-25173D01*
X32868Y-24994D01*
X32868Y-24958D01*
X32836Y-24881D01*
X32777Y-24822D01*
X32700Y-24790D01*
X32616Y-24789D01*
X32539Y-24821D01*
X32480Y-24880D01*
X32448Y-24958D01*
X32448Y-25041D01*
X32479Y-25118D01*
X32538Y-25177D01*
X32616Y-25209D01*
X32652Y-25209D01*
X32786Y-25344D01*
X32786Y-26621D01*
X32770Y-26581D01*
X32711Y-26522D01*
X32634Y-26490D01*
X32550Y-26490D01*
X32473Y-26521D01*
X32414Y-26580D01*
X32382Y-26658D01*
X32382Y-26702D01*
X32365Y-26727D01*
X32363Y-26737D01*
X32322Y-26737D01*
X32289Y-26751D01*
X32256Y-26737D01*
X32209Y-26737D01*
X32181Y-26695D01*
X32111Y-26625D01*
X32061Y-26592D01*
X32026Y-26585D01*
X31996Y-26555D01*
X31919Y-26523D01*
X31835Y-26523D01*
X31758Y-26555D01*
X31699Y-26614D01*
X31667Y-26691D01*
X31667Y-26737D01*
X31456Y-26737D01*
X31409Y-26757D01*
X31372Y-26794D01*
X31352Y-26841D01*
X31352Y-26893D01*
X31352Y-27368D01*
X31144Y-27368D01*
X31119Y-27342D01*
X31041Y-27310D01*
X30958Y-27310D01*
X30881Y-27342D01*
X30822Y-27401D01*
X30790Y-27478D01*
X30789Y-27562D01*
X30821Y-27639D01*
X30880Y-27698D01*
X30958Y-27730D01*
X31041Y-27730D01*
X31118Y-27699D01*
X31144Y-27673D01*
X31429Y-27673D01*
X31487Y-27661D01*
X31487Y-27661D01*
X31536Y-27628D01*
X31577Y-27588D01*
X31823Y-27588D01*
X31856Y-27574D01*
X31889Y-27588D01*
X31941Y-27588D01*
X32256Y-27588D01*
X32289Y-27574D01*
X32322Y-27588D01*
X32374Y-27588D01*
X32689Y-27588D01*
X32722Y-27574D01*
X32756Y-27588D01*
X32807Y-27588D01*
X33122Y-27588D01*
X33155Y-27574D01*
X33189Y-27588D01*
X33240Y-27588D01*
X33431Y-27588D01*
X33436Y-27599D01*
X33506Y-27670D01*
X33598Y-27708D01*
X33703Y-27708D01*
X33765Y-27645D01*
X33765Y-29169D01*
X33724Y-29186D01*
X33701Y-29209D01*
X33243Y-29209D01*
X33184Y-29221D01*
X33135Y-29254D01*
X32943Y-29445D01*
X32943Y-29445D01*
X30720Y-31669D01*
X30720Y-29628D01*
X30688Y-29551D01*
X30638Y-29501D01*
X30638Y-28606D01*
X30638Y-28554D01*
X30638Y-27767D01*
X30638Y-25338D01*
X30638Y-25286D01*
X30638Y-24499D01*
X30618Y-24451D01*
X30581Y-24414D01*
X30534Y-24395D01*
X30482Y-24395D01*
X29911Y-24395D01*
X29863Y-24414D01*
X29827Y-24451D01*
X29807Y-24499D01*
X29807Y-24551D01*
X29807Y-25338D01*
X29827Y-25386D01*
X29863Y-25422D01*
X29911Y-25442D01*
X29963Y-25442D01*
X30534Y-25442D01*
X30581Y-25422D01*
X30618Y-25386D01*
X30638Y-25338D01*
X30638Y-27767D01*
X30618Y-27719D01*
X30581Y-27682D01*
X30534Y-27662D01*
X30482Y-27662D01*
X29911Y-27662D01*
X29863Y-27682D01*
X29827Y-27719D01*
X29807Y-27767D01*
X29807Y-27818D01*
X29807Y-28606D01*
X29827Y-28653D01*
X29863Y-28690D01*
X29911Y-28710D01*
X29963Y-28710D01*
X30534Y-28710D01*
X30581Y-28690D01*
X30618Y-28653D01*
X30638Y-28606D01*
X30638Y-29501D01*
X30629Y-29492D01*
X30551Y-29460D01*
X30468Y-29459D01*
X30391Y-29491D01*
X30365Y-29517D01*
X28380Y-29517D01*
X28361Y-29521D01*
X28361Y-25015D01*
X28296Y-24859D01*
X28177Y-24739D01*
X28021Y-24674D01*
X27851Y-24674D01*
X27695Y-24739D01*
X27575Y-24858D01*
X27511Y-25015D01*
X27510Y-25184D01*
X27575Y-25340D01*
X27598Y-25363D01*
X27556Y-25363D01*
X27083Y-25363D01*
X27035Y-25383D01*
X26999Y-25420D01*
X26979Y-25467D01*
X26979Y-25519D01*
X26979Y-26385D01*
X26999Y-26433D01*
X27035Y-26470D01*
X27083Y-26489D01*
X27135Y-26489D01*
X27607Y-26489D01*
X27655Y-26470D01*
X27692Y-26433D01*
X27711Y-26385D01*
X27711Y-26333D01*
X27711Y-25467D01*
X27711Y-25467D01*
X27851Y-25525D01*
X28020Y-25525D01*
X28176Y-25460D01*
X28296Y-25341D01*
X28361Y-25184D01*
X28361Y-25015D01*
X28361Y-29521D01*
X28321Y-29529D01*
X28272Y-29562D01*
X26986Y-30847D01*
X26925Y-30847D01*
X26925Y-29915D01*
X26925Y-28915D01*
X26925Y-27915D01*
X26925Y-26915D01*
X26860Y-26759D01*
X26741Y-26639D01*
X26585Y-26574D01*
X26415Y-26574D01*
X26259Y-26639D01*
X26139Y-26758D01*
X26102Y-26847D01*
X25897Y-26847D01*
X25860Y-26759D01*
X25741Y-26639D01*
X25585Y-26574D01*
X25415Y-26574D01*
X25259Y-26639D01*
X25139Y-26758D01*
X25074Y-26914D01*
X25074Y-27084D01*
X25139Y-27240D01*
X25258Y-27360D01*
X25414Y-27425D01*
X25584Y-27425D01*
X25740Y-27360D01*
X25860Y-27241D01*
X25897Y-27152D01*
X26102Y-27152D01*
X26139Y-27240D01*
X26258Y-27360D01*
X26414Y-27425D01*
X26584Y-27425D01*
X26740Y-27360D01*
X26860Y-27241D01*
X26925Y-27085D01*
X26925Y-26915D01*
X26925Y-27915D01*
X26860Y-27759D01*
X26741Y-27639D01*
X26585Y-27574D01*
X26415Y-27574D01*
X26259Y-27639D01*
X26139Y-27758D01*
X26102Y-27847D01*
X25897Y-27847D01*
X25860Y-27759D01*
X25741Y-27639D01*
X25585Y-27574D01*
X25415Y-27574D01*
X25259Y-27639D01*
X25139Y-27758D01*
X25074Y-27914D01*
X25074Y-28084D01*
X25139Y-28240D01*
X25258Y-28360D01*
X25414Y-28425D01*
X25584Y-28425D01*
X25740Y-28360D01*
X25860Y-28241D01*
X25897Y-28152D01*
X26102Y-28152D01*
X26139Y-28240D01*
X26258Y-28360D01*
X26414Y-28425D01*
X26584Y-28425D01*
X26740Y-28360D01*
X26860Y-28241D01*
X26925Y-28085D01*
X26925Y-27915D01*
X26925Y-28915D01*
X26860Y-28759D01*
X26741Y-28639D01*
X26585Y-28574D01*
X26415Y-28574D01*
X26259Y-28639D01*
X26139Y-28758D01*
X26102Y-28847D01*
X25897Y-28847D01*
X25860Y-28759D01*
X25741Y-28639D01*
X25585Y-28574D01*
X25415Y-28574D01*
X25259Y-28639D01*
X25139Y-28758D01*
X25074Y-28914D01*
X25074Y-29084D01*
X25139Y-29240D01*
X25258Y-29360D01*
X25414Y-29425D01*
X25584Y-29425D01*
X25740Y-29360D01*
X25860Y-29241D01*
X25897Y-29152D01*
X26102Y-29152D01*
X26139Y-29240D01*
X26258Y-29360D01*
X26414Y-29425D01*
X26584Y-29425D01*
X26740Y-29360D01*
X26860Y-29241D01*
X26925Y-29085D01*
X26925Y-28915D01*
X26925Y-29915D01*
X26860Y-29759D01*
X26741Y-29639D01*
X26585Y-29574D01*
X26415Y-29574D01*
X26259Y-29639D01*
X26139Y-29758D01*
X26102Y-29847D01*
X25897Y-29847D01*
X25860Y-29759D01*
X25741Y-29639D01*
X25585Y-29574D01*
X25415Y-29574D01*
X25259Y-29639D01*
X25139Y-29758D01*
X25074Y-29914D01*
X25074Y-30084D01*
X25139Y-30240D01*
X25258Y-30360D01*
X25414Y-30425D01*
X25584Y-30425D01*
X25740Y-30360D01*
X25860Y-30241D01*
X25897Y-30152D01*
X26102Y-30152D01*
X26139Y-30240D01*
X26258Y-30360D01*
X26414Y-30425D01*
X26584Y-30425D01*
X26740Y-30360D01*
X26860Y-30241D01*
X26925Y-30085D01*
X26925Y-29915D01*
X26925Y-30847D01*
X26897Y-30847D01*
X26860Y-30759D01*
X26741Y-30639D01*
X26585Y-30574D01*
X26415Y-30574D01*
X26259Y-30639D01*
X26139Y-30758D01*
X26102Y-30847D01*
X25897Y-30847D01*
X25860Y-30759D01*
X25741Y-30639D01*
X25585Y-30574D01*
X25415Y-30574D01*
X25259Y-30639D01*
X25139Y-30758D01*
X25074Y-30914D01*
X25074Y-31084D01*
X25139Y-31240D01*
X25258Y-31360D01*
X25414Y-31425D01*
X25584Y-31425D01*
X25740Y-31360D01*
X25860Y-31241D01*
X25897Y-31152D01*
X26102Y-31152D01*
X26139Y-31240D01*
X26258Y-31360D01*
X26414Y-31425D01*
X26584Y-31425D01*
X26740Y-31360D01*
X26860Y-31241D01*
X26897Y-31152D01*
X27050Y-31152D01*
X27108Y-31140D01*
X27108Y-31140D01*
X27157Y-31107D01*
X28443Y-29822D01*
X30365Y-29822D01*
X30390Y-29847D01*
X30468Y-29879D01*
X30551Y-29880D01*
X30628Y-29848D01*
X30687Y-29789D01*
X30719Y-29711D01*
X30720Y-29628D01*
X30720Y-31669D01*
X28217Y-34172D01*
X28184Y-34221D01*
X28172Y-34280D01*
X28172Y-34280D01*
X28172Y-34546D01*
X27869Y-34849D01*
X27869Y-34345D01*
X27849Y-34298D01*
X27813Y-34261D01*
X27765Y-34241D01*
X27713Y-34241D01*
X27319Y-34241D01*
X27272Y-34261D01*
X27235Y-34298D01*
X27215Y-34345D01*
X27215Y-34397D01*
X27215Y-34988D01*
X27235Y-35035D01*
X27272Y-35072D01*
X27319Y-35092D01*
X27371Y-35092D01*
X27627Y-35092D01*
X27464Y-35254D01*
X27464Y-35254D01*
X27452Y-35267D01*
X27419Y-35316D01*
X27407Y-35375D01*
X27407Y-38848D01*
X27419Y-38906D01*
X27452Y-38955D01*
X27571Y-39075D01*
X27500Y-39075D01*
X27408Y-39113D01*
X27338Y-39183D01*
X27300Y-39275D01*
X27300Y-39374D01*
X27300Y-39497D01*
X27362Y-39560D01*
X27685Y-39560D01*
X27685Y-39552D01*
X27765Y-39552D01*
X27765Y-39560D01*
X27772Y-39560D01*
X27772Y-39640D01*
X27765Y-39640D01*
X27765Y-40062D01*
X27827Y-40125D01*
X27949Y-40125D01*
X28041Y-40086D01*
X28068Y-40059D01*
X28937Y-40927D01*
X28986Y-40960D01*
X28986Y-40960D01*
X29045Y-40972D01*
X29045Y-40972D01*
X29045Y-40972D01*
X29154Y-40972D01*
X30623Y-40972D01*
X30648Y-40997D01*
X30726Y-41029D01*
X30809Y-41030D01*
X30886Y-40998D01*
X30945Y-40939D01*
X30977Y-40861D01*
X30978Y-40778D01*
X30946Y-40701D01*
X30887Y-40642D01*
X30809Y-40610D01*
X30726Y-40609D01*
X30649Y-40641D01*
X30623Y-40667D01*
X29154Y-40667D01*
X29108Y-40667D01*
X28445Y-40005D01*
X28664Y-40005D01*
X29138Y-40478D01*
X29187Y-40511D01*
X29187Y-40511D01*
X29246Y-40523D01*
X30006Y-40523D01*
X30031Y-40548D01*
X30109Y-40580D01*
X30192Y-40581D01*
X30269Y-40549D01*
X30328Y-40490D01*
X30360Y-40412D01*
X30361Y-40329D01*
X30329Y-40252D01*
X30270Y-40193D01*
X30192Y-40161D01*
X30109Y-40160D01*
X30032Y-40192D01*
X30006Y-40218D01*
X29309Y-40218D01*
X28780Y-39689D01*
X28780Y-39299D01*
X28760Y-39251D01*
X28723Y-39214D01*
X28675Y-39195D01*
X28624Y-39195D01*
X28534Y-39195D01*
X28394Y-39055D01*
X28400Y-39055D01*
X28587Y-39055D01*
X28616Y-39126D01*
X28675Y-39185D01*
X28752Y-39217D01*
X28836Y-39217D01*
X28913Y-39185D01*
X28939Y-39160D01*
X29348Y-39160D01*
X29453Y-39265D01*
X29503Y-39298D01*
X29561Y-39309D01*
X29561Y-39309D01*
X30411Y-39309D01*
X30417Y-39308D01*
X30446Y-39378D01*
X30505Y-39437D01*
X30583Y-39469D01*
X30666Y-39470D01*
X30743Y-39438D01*
X30770Y-39411D01*
X30795Y-39412D01*
X30800Y-39417D01*
X30762Y-39455D01*
X30730Y-39532D01*
X30730Y-39616D01*
X30762Y-39693D01*
X30821Y-39752D01*
X30898Y-39784D01*
X30929Y-39784D01*
X30929Y-39980D01*
X30835Y-39884D01*
X30835Y-39848D01*
X30803Y-39771D01*
X30744Y-39712D01*
X30666Y-39680D01*
X30583Y-39679D01*
X30506Y-39711D01*
X30447Y-39770D01*
X30415Y-39848D01*
X30414Y-39931D01*
X30446Y-40008D01*
X30505Y-40067D01*
X30583Y-40099D01*
X30618Y-40099D01*
X31028Y-40512D01*
X31029Y-40512D01*
X31029Y-40512D01*
X31053Y-40529D01*
X31078Y-40545D01*
X31078Y-40545D01*
X31078Y-40545D01*
X31107Y-40551D01*
X31136Y-40557D01*
X31136Y-40557D01*
X31137Y-40557D01*
X31646Y-40557D01*
X31671Y-40582D01*
X31749Y-40614D01*
X31832Y-40615D01*
X31909Y-40583D01*
X31968Y-40524D01*
X32000Y-40446D01*
X32001Y-40363D01*
X31969Y-40286D01*
X31910Y-40227D01*
X31905Y-40224D01*
X32359Y-40224D01*
X33715Y-41581D01*
X33692Y-41604D01*
X33665Y-41645D01*
X33549Y-41645D01*
X33501Y-41664D01*
X33464Y-41701D01*
X33445Y-41749D01*
X33445Y-41800D01*
X33445Y-41833D01*
X33122Y-41511D01*
X33073Y-41478D01*
X33014Y-41466D01*
X32878Y-41466D01*
X32878Y-41160D01*
X32846Y-41083D01*
X32787Y-41024D01*
X32709Y-40992D01*
X32626Y-40991D01*
X32549Y-41023D01*
X32528Y-41044D01*
X29715Y-41044D01*
X29690Y-41019D01*
X29612Y-40987D01*
X29529Y-40986D01*
X29452Y-41018D01*
X29393Y-41077D01*
X29361Y-41155D01*
X29360Y-41238D01*
X29392Y-41315D01*
X29451Y-41374D01*
X29529Y-41406D01*
X29612Y-41407D01*
X29689Y-41375D01*
X29715Y-41349D01*
X32518Y-41349D01*
X32548Y-41379D01*
X32626Y-41411D01*
X32709Y-41412D01*
X32786Y-41380D01*
X32845Y-41321D01*
X32877Y-41243D01*
X32878Y-41160D01*
X32878Y-41466D01*
X31100Y-41466D01*
X31041Y-41478D01*
X30992Y-41511D01*
X30959Y-41560D01*
X30947Y-41619D01*
X30947Y-41645D01*
X30849Y-41645D01*
X30801Y-41664D01*
X30764Y-41701D01*
X30745Y-41749D01*
X30745Y-41768D01*
X30699Y-41722D01*
X30621Y-41690D01*
X30538Y-41689D01*
X30528Y-41694D01*
X30498Y-41664D01*
X30450Y-41645D01*
X30399Y-41645D01*
X29949Y-41645D01*
X29901Y-41664D01*
X29864Y-41701D01*
X29845Y-41749D01*
X29845Y-41800D01*
X29845Y-42050D01*
X29864Y-42096D01*
X29817Y-42096D01*
X29562Y-42096D01*
X29585Y-42073D01*
X29605Y-42025D01*
X29605Y-41974D01*
X29605Y-41624D01*
X29585Y-41576D01*
X29548Y-41539D01*
X29500Y-41520D01*
X29449Y-41520D01*
X28899Y-41520D01*
X28851Y-41539D01*
X28814Y-41576D01*
X28795Y-41624D01*
X28795Y-41675D01*
X28795Y-41682D01*
X28786Y-41684D01*
X28737Y-41717D01*
X28492Y-41962D01*
X28459Y-42011D01*
X28447Y-42070D01*
X28447Y-42120D01*
X28422Y-42145D01*
X28390Y-42223D01*
X28389Y-42306D01*
X28421Y-42383D01*
X28480Y-42442D01*
X28558Y-42474D01*
X28641Y-42475D01*
X28675Y-42461D01*
X28675Y-42472D01*
X28737Y-42535D01*
X29160Y-42535D01*
X29160Y-42527D01*
X29240Y-42527D01*
X29240Y-42535D01*
X29662Y-42535D01*
X29725Y-42472D01*
X29725Y-42401D01*
X29817Y-42401D01*
X29845Y-42401D01*
X29845Y-42650D01*
X29864Y-42698D01*
X29901Y-42735D01*
X29949Y-42755D01*
X30000Y-42755D01*
X30450Y-42755D01*
X30498Y-42735D01*
X30535Y-42698D01*
X30555Y-42650D01*
X30555Y-42599D01*
X30555Y-42401D01*
X30629Y-42401D01*
X30687Y-42460D01*
X31060Y-42460D01*
X31060Y-42452D01*
X31140Y-42452D01*
X31140Y-42460D01*
X31512Y-42460D01*
X31575Y-42397D01*
X31575Y-42325D01*
X31536Y-42233D01*
X31466Y-42163D01*
X31398Y-42134D01*
X31435Y-42098D01*
X31455Y-42050D01*
X31455Y-41999D01*
X31455Y-41771D01*
X32325Y-41771D01*
X32325Y-41797D01*
X32387Y-41860D01*
X32760Y-41860D01*
X32760Y-41852D01*
X32840Y-41852D01*
X32840Y-41860D01*
X32847Y-41860D01*
X32847Y-41940D01*
X32840Y-41940D01*
X32840Y-41947D01*
X32760Y-41947D01*
X32760Y-41940D01*
X32387Y-41940D01*
X32325Y-42002D01*
X32325Y-42074D01*
X32363Y-42166D01*
X32433Y-42236D01*
X32501Y-42265D01*
X32464Y-42301D01*
X32445Y-42349D01*
X32445Y-42400D01*
X32445Y-42650D01*
X32464Y-42698D01*
X32501Y-42735D01*
X32549Y-42755D01*
X32590Y-42755D01*
X32589Y-42821D01*
X32621Y-42898D01*
X32680Y-42957D01*
X32758Y-42989D01*
X32841Y-42990D01*
X32918Y-42958D01*
X32977Y-42899D01*
X33009Y-42821D01*
X33010Y-42755D01*
X33050Y-42755D01*
X33098Y-42735D01*
X33135Y-42698D01*
X33155Y-42650D01*
X33155Y-42599D01*
X33155Y-42349D01*
X33135Y-42301D01*
X33098Y-42265D01*
X33166Y-42236D01*
X33236Y-42166D01*
X33268Y-42089D01*
X33388Y-42208D01*
X33363Y-42233D01*
X33325Y-42325D01*
X33325Y-42397D01*
X33387Y-42460D01*
X33760Y-42460D01*
X33760Y-42452D01*
X33840Y-42452D01*
X33840Y-42460D01*
X34212Y-42460D01*
X34275Y-42397D01*
X34275Y-42325D01*
X34254Y-42276D01*
X34274Y-42272D01*
X34274Y-42272D01*
X34323Y-42239D01*
X35211Y-41351D01*
X35375Y-41351D01*
X35375Y-41372D01*
X35437Y-41435D01*
X35860Y-41435D01*
X35860Y-41427D01*
X35940Y-41427D01*
X35940Y-41435D01*
X35947Y-41435D01*
X35947Y-41515D01*
X35940Y-41515D01*
X35940Y-41837D01*
X36002Y-41900D01*
X36125Y-41900D01*
X36224Y-41900D01*
X36316Y-41861D01*
X36386Y-41791D01*
X36425Y-41699D01*
X36425Y-41609D01*
X36573Y-41758D01*
X36558Y-41764D01*
X36521Y-41800D01*
X36502Y-41848D01*
X36502Y-41900D01*
X36502Y-42451D01*
X36521Y-42499D01*
X36558Y-42535D01*
X36606Y-42555D01*
X36657Y-42555D01*
X36893Y-42555D01*
X36941Y-42535D01*
X36978Y-42499D01*
X36998Y-42451D01*
X36998Y-42399D01*
X36998Y-41871D01*
X37002Y-41871D01*
X37002Y-41900D01*
X37002Y-42451D01*
X37021Y-42499D01*
X37047Y-42524D01*
X37017Y-42554D01*
X36990Y-42595D01*
X36924Y-42595D01*
X36876Y-42614D01*
X36839Y-42651D01*
X36820Y-42699D01*
X36820Y-42750D01*
X36820Y-43300D01*
X36839Y-43348D01*
X36876Y-43385D01*
X36924Y-43405D01*
X36975Y-43405D01*
X37325Y-43405D01*
X37373Y-43385D01*
X37410Y-43348D01*
X37430Y-43300D01*
X37430Y-43249D01*
X37430Y-42699D01*
X37410Y-42651D01*
X37376Y-42617D01*
X37390Y-42595D01*
X37390Y-42595D01*
X37399Y-42553D01*
X37412Y-42547D01*
X37420Y-42567D01*
X37472Y-42619D01*
X37450Y-42675D01*
X37450Y-42774D01*
X37450Y-42897D01*
X37512Y-42960D01*
X37835Y-42960D01*
X37835Y-42952D01*
X37915Y-42952D01*
X37915Y-42960D01*
X38237Y-42960D01*
X38300Y-42897D01*
X38300Y-42774D01*
X38300Y-42675D01*
X38290Y-42651D01*
X38290Y-42613D01*
X38352Y-42675D01*
X38417Y-42675D01*
X38509Y-42637D01*
X38579Y-42567D01*
X38618Y-42475D01*
X38618Y-42375D01*
X38618Y-42252D01*
X38618Y-42047D01*
X38618Y-41924D01*
X38618Y-41824D01*
X38579Y-41732D01*
X38509Y-41662D01*
X38417Y-41624D01*
X38352Y-41624D01*
X38290Y-41687D01*
X38290Y-42110D01*
X38555Y-42110D01*
X38618Y-42047D01*
X38618Y-42252D01*
X38555Y-42190D01*
X38290Y-42190D01*
X38290Y-42197D01*
X38210Y-42197D01*
X38210Y-42190D01*
X38210Y-42110D01*
X38210Y-41687D01*
X38147Y-41624D01*
X38082Y-41624D01*
X38000Y-41658D01*
X37917Y-41624D01*
X37852Y-41624D01*
X37790Y-41687D01*
X37790Y-42110D01*
X37944Y-42110D01*
X38055Y-42110D01*
X38210Y-42110D01*
X38210Y-42190D01*
X38055Y-42190D01*
X37944Y-42190D01*
X37790Y-42190D01*
X37790Y-42197D01*
X37710Y-42197D01*
X37710Y-42190D01*
X37702Y-42190D01*
X37702Y-42110D01*
X37710Y-42110D01*
X37710Y-41687D01*
X37650Y-41627D01*
X37725Y-41552D01*
X37860Y-41552D01*
X37885Y-41577D01*
X37962Y-41609D01*
X38046Y-41610D01*
X38123Y-41578D01*
X38149Y-41552D01*
X38745Y-41552D01*
X38764Y-41598D01*
X38801Y-41635D01*
X38849Y-41655D01*
X38900Y-41655D01*
X39350Y-41655D01*
X39398Y-41635D01*
X39435Y-41598D01*
X39455Y-41550D01*
X39455Y-41499D01*
X39455Y-41249D01*
X39435Y-41201D01*
X39398Y-41164D01*
X39350Y-41145D01*
X39299Y-41145D01*
X38849Y-41145D01*
X38801Y-41164D01*
X38764Y-41201D01*
X38745Y-41247D01*
X38149Y-41247D01*
X38123Y-41222D01*
X38046Y-41190D01*
X37963Y-41189D01*
X37885Y-41221D01*
X37860Y-41247D01*
X37661Y-41247D01*
X37603Y-41259D01*
X37554Y-41292D01*
X37247Y-41599D01*
X37215Y-41578D01*
X37157Y-41566D01*
X36813Y-41566D01*
X36338Y-41091D01*
X36288Y-41058D01*
X36230Y-41046D01*
X36041Y-41046D01*
X36045Y-41030D01*
X36200Y-41030D01*
X36248Y-41010D01*
X36285Y-40973D01*
X36305Y-40925D01*
X36305Y-40874D01*
X36305Y-40858D01*
X36342Y-40832D01*
X36720Y-40455D01*
X36893Y-40455D01*
X36941Y-40435D01*
X36978Y-40399D01*
X36998Y-40351D01*
X36998Y-40299D01*
X36998Y-39825D01*
X37002Y-39825D01*
X37002Y-40351D01*
X37021Y-40399D01*
X37058Y-40435D01*
X37106Y-40455D01*
X37157Y-40455D01*
X37393Y-40455D01*
X37441Y-40435D01*
X37478Y-40399D01*
X37498Y-40351D01*
X37498Y-40299D01*
X37498Y-39748D01*
X37478Y-39700D01*
X37441Y-39664D01*
X37393Y-39644D01*
X37359Y-39644D01*
X37357Y-39642D01*
X37280Y-39565D01*
X37231Y-39532D01*
X37173Y-39520D01*
X36896Y-39520D01*
X36890Y-39491D01*
X36880Y-39475D01*
X36887Y-39457D01*
X36887Y-39343D01*
X36883Y-39332D01*
X36945Y-39270D01*
X36945Y-39350D01*
X36964Y-39398D01*
X37001Y-39435D01*
X37049Y-39455D01*
X37100Y-39455D01*
X37350Y-39455D01*
X37398Y-39435D01*
X37435Y-39398D01*
X37455Y-39350D01*
X37455Y-39299D01*
X37455Y-38849D01*
X37435Y-38801D01*
X37409Y-38775D01*
X37636Y-38549D01*
X37647Y-38554D01*
X37647Y-38745D01*
X37601Y-38764D01*
X37564Y-38801D01*
X37545Y-38849D01*
X37545Y-38900D01*
X37545Y-39350D01*
X37564Y-39398D01*
X37598Y-39432D01*
X37597Y-39437D01*
X37597Y-39648D01*
X37558Y-39664D01*
X37521Y-39700D01*
X37502Y-39748D01*
X37502Y-39800D01*
X37502Y-40351D01*
X37521Y-40399D01*
X37558Y-40435D01*
X37606Y-40455D01*
X37657Y-40455D01*
X37893Y-40455D01*
X37941Y-40435D01*
X37978Y-40399D01*
X37998Y-40351D01*
X37998Y-40299D01*
X37998Y-39748D01*
X37978Y-39700D01*
X37941Y-39664D01*
X37902Y-39648D01*
X37902Y-39500D01*
X37907Y-39495D01*
X37934Y-39455D01*
X37934Y-39455D01*
X37950Y-39455D01*
X37998Y-39435D01*
X38035Y-39398D01*
X38055Y-39350D01*
X38055Y-39299D01*
X38055Y-38849D01*
X38035Y-38801D01*
X37998Y-38764D01*
X37952Y-38745D01*
X37952Y-38554D01*
X37998Y-38535D01*
X38035Y-38498D01*
X38055Y-38450D01*
X38055Y-38399D01*
X38055Y-37980D01*
X38440Y-37980D01*
X38477Y-38018D01*
X38477Y-39268D01*
X38142Y-39604D01*
X38115Y-39644D01*
X38106Y-39644D01*
X38058Y-39664D01*
X38021Y-39700D01*
X38002Y-39748D01*
X38002Y-39800D01*
X38002Y-40351D01*
X38021Y-40399D01*
X38058Y-40435D01*
X38097Y-40451D01*
X38097Y-40543D01*
X38109Y-40601D01*
X38142Y-40650D01*
X38399Y-40907D01*
X38448Y-40940D01*
X38448Y-40940D01*
X38507Y-40952D01*
X38745Y-40952D01*
X38764Y-40998D01*
X38801Y-41035D01*
X38849Y-41055D01*
X38900Y-41055D01*
X39350Y-41055D01*
X39398Y-41035D01*
X39435Y-40998D01*
X39455Y-40950D01*
X39455Y-40899D01*
X39455Y-40649D01*
X39435Y-40601D01*
X39398Y-40564D01*
X39350Y-40545D01*
X39299Y-40545D01*
X38849Y-40545D01*
X38801Y-40564D01*
X38764Y-40601D01*
X38745Y-40647D01*
X38570Y-40647D01*
X38402Y-40479D01*
X38402Y-40451D01*
X38441Y-40435D01*
X38478Y-40399D01*
X38498Y-40351D01*
X38498Y-40299D01*
X38498Y-39748D01*
X38478Y-39700D01*
X38477Y-39700D01*
X38738Y-39439D01*
X38771Y-39389D01*
X38771Y-39389D01*
X38782Y-39331D01*
X38782Y-38107D01*
X38969Y-38107D01*
X39027Y-38095D01*
X39027Y-38095D01*
X39076Y-38062D01*
X39338Y-37801D01*
X39338Y-37801D01*
X39434Y-37704D01*
X39467Y-37655D01*
X39467Y-37655D01*
X39479Y-37597D01*
X39479Y-33787D01*
X39467Y-33728D01*
X39467Y-33728D01*
X39434Y-33679D01*
X38892Y-33136D01*
X38892Y-33121D01*
X38860Y-33044D01*
X38801Y-32985D01*
X38723Y-32953D01*
X38640Y-32952D01*
X38563Y-32984D01*
X38504Y-33043D01*
X38472Y-33121D01*
X38471Y-33204D01*
X38503Y-33281D01*
X38562Y-33340D01*
X38640Y-33372D01*
X38697Y-33373D01*
X39174Y-33850D01*
X39174Y-37267D01*
X39163Y-37256D01*
X39057Y-37212D01*
X38943Y-37212D01*
X38935Y-37215D01*
X38728Y-37009D01*
X38679Y-36976D01*
X38621Y-36964D01*
X37674Y-36964D01*
X37691Y-36923D01*
X37691Y-36839D01*
X37677Y-36805D01*
X37775Y-36805D01*
X37823Y-36785D01*
X37860Y-36748D01*
X37880Y-36700D01*
X37880Y-36649D01*
X37880Y-36609D01*
X37941Y-36610D01*
X38018Y-36578D01*
X38077Y-36519D01*
X38109Y-36441D01*
X38110Y-36358D01*
X38078Y-36281D01*
X38019Y-36222D01*
X37941Y-36190D01*
X37880Y-36189D01*
X37880Y-36099D01*
X37860Y-36051D01*
X37823Y-36014D01*
X37775Y-35995D01*
X37724Y-35995D01*
X37430Y-35995D01*
X37430Y-35696D01*
X38436Y-34690D01*
X38472Y-34690D01*
X38549Y-34658D01*
X38608Y-34599D01*
X38640Y-34522D01*
X38640Y-34438D01*
X38608Y-34361D01*
X38549Y-34302D01*
X38472Y-34270D01*
X38388Y-34270D01*
X38311Y-34302D01*
X38252Y-34361D01*
X38220Y-34438D01*
X38220Y-34474D01*
X37169Y-35525D01*
X37136Y-35574D01*
X37125Y-35633D01*
X37125Y-35906D01*
X37049Y-35875D01*
X36927Y-35875D01*
X36865Y-35937D01*
X36865Y-36360D01*
X36872Y-36360D01*
X36872Y-36440D01*
X36865Y-36440D01*
X36865Y-36447D01*
X36785Y-36447D01*
X36785Y-36440D01*
X36785Y-36360D01*
X36785Y-35937D01*
X36722Y-35875D01*
X36600Y-35875D01*
X36508Y-35913D01*
X36438Y-35983D01*
X36400Y-36075D01*
X36400Y-36174D01*
X36400Y-36297D01*
X36462Y-36360D01*
X36785Y-36360D01*
X36785Y-36440D01*
X36462Y-36440D01*
X36400Y-36502D01*
X36400Y-36602D01*
X34598Y-36602D01*
X34572Y-36577D01*
X34495Y-36545D01*
X34411Y-36545D01*
X34334Y-36577D01*
X34275Y-36636D01*
X34243Y-36713D01*
X34243Y-36796D01*
X34275Y-36874D01*
X34322Y-36921D01*
X34084Y-37160D01*
X34048Y-37160D01*
X33970Y-37191D01*
X33911Y-37251D01*
X33879Y-37328D01*
X33879Y-37411D01*
X33911Y-37488D01*
X33970Y-37548D01*
X34047Y-37580D01*
X34131Y-37580D01*
X34208Y-37548D01*
X34260Y-37496D01*
X34259Y-37551D01*
X34291Y-37628D01*
X34345Y-37682D01*
X34319Y-37708D01*
X34287Y-37785D01*
X34287Y-37868D01*
X34303Y-37907D01*
X34285Y-37924D01*
X34267Y-37881D01*
X34208Y-37822D01*
X34131Y-37790D01*
X34095Y-37790D01*
X33583Y-37277D01*
X33533Y-37244D01*
X33475Y-37233D01*
X33260Y-37233D01*
X33260Y-37233D01*
X33174Y-37233D01*
X33150Y-37209D01*
X33150Y-37173D01*
X33118Y-37096D01*
X33092Y-37070D01*
X33092Y-35692D01*
X33158Y-35719D01*
X33194Y-35719D01*
X33307Y-35833D01*
X33307Y-36595D01*
X33282Y-36620D01*
X33250Y-36698D01*
X33249Y-36781D01*
X33281Y-36858D01*
X33340Y-36917D01*
X33418Y-36949D01*
X33501Y-36950D01*
X33578Y-36918D01*
X33617Y-36879D01*
X33635Y-36897D01*
X33597Y-36935D01*
X33565Y-37013D01*
X33564Y-37096D01*
X33596Y-37173D01*
X33655Y-37232D01*
X33733Y-37264D01*
X33816Y-37265D01*
X33893Y-37233D01*
X33952Y-37174D01*
X33984Y-37096D01*
X33984Y-37061D01*
X34031Y-37015D01*
X34031Y-37014D01*
X34031Y-37014D01*
X34048Y-36990D01*
X34064Y-36965D01*
X34064Y-36965D01*
X34064Y-36965D01*
X34070Y-36936D01*
X34076Y-36907D01*
X34076Y-36907D01*
X34076Y-36907D01*
X34076Y-36319D01*
X34131Y-36320D01*
X34208Y-36288D01*
X34234Y-36262D01*
X35305Y-36262D01*
X35305Y-36262D01*
X35305Y-36262D01*
X35334Y-36257D01*
X35363Y-36251D01*
X35363Y-36251D01*
X35363Y-36251D01*
X35387Y-36235D01*
X35413Y-36218D01*
X35413Y-36218D01*
X35413Y-36218D01*
X36498Y-35132D01*
X36525Y-35092D01*
X36525Y-35092D01*
X36613Y-35092D01*
X36661Y-35072D01*
X36698Y-35035D01*
X36717Y-34988D01*
X36717Y-34936D01*
X36717Y-34345D01*
X36698Y-34298D01*
X36661Y-34261D01*
X36613Y-34241D01*
X36561Y-34241D01*
X36277Y-34241D01*
X36170Y-34134D01*
X36120Y-34101D01*
X36062Y-34089D01*
X35787Y-34089D01*
X33470Y-34089D01*
X33455Y-34074D01*
X33455Y-34038D01*
X33454Y-34036D01*
X33509Y-34058D01*
X33592Y-34059D01*
X33669Y-34027D01*
X33728Y-33968D01*
X33760Y-33890D01*
X33761Y-33807D01*
X33729Y-33730D01*
X33670Y-33671D01*
X33592Y-33639D01*
X33509Y-33638D01*
X33432Y-33670D01*
X33406Y-33696D01*
X31929Y-33696D01*
X31929Y-33696D01*
X31871Y-33708D01*
X31821Y-33741D01*
X31361Y-34201D01*
X31334Y-34241D01*
X31246Y-34241D01*
X31199Y-34261D01*
X31162Y-34298D01*
X31142Y-34345D01*
X31142Y-34397D01*
X31142Y-34988D01*
X31162Y-35035D01*
X31199Y-35072D01*
X31246Y-35092D01*
X31298Y-35092D01*
X31317Y-35092D01*
X31317Y-36028D01*
X31328Y-36087D01*
X31361Y-36136D01*
X33015Y-37790D01*
X33064Y-37823D01*
X33123Y-37834D01*
X33292Y-37834D01*
X33318Y-37860D01*
X33395Y-37892D01*
X33478Y-37892D01*
X33556Y-37860D01*
X33615Y-37801D01*
X33632Y-37758D01*
X33879Y-38005D01*
X33879Y-38007D01*
X31600Y-38007D01*
X30829Y-37236D01*
X30898Y-37264D01*
X30981Y-37265D01*
X31058Y-37233D01*
X31117Y-37174D01*
X31149Y-37096D01*
X31150Y-37013D01*
X31150Y-36383D01*
X31118Y-36306D01*
X31092Y-36280D01*
X31092Y-35760D01*
X31092Y-35760D01*
X31092Y-35760D01*
X31086Y-35731D01*
X31081Y-35702D01*
X31081Y-35702D01*
X31081Y-35702D01*
X31064Y-35677D01*
X31048Y-35652D01*
X31048Y-35652D01*
X31048Y-35652D01*
X31010Y-35614D01*
X31010Y-35578D01*
X30978Y-35501D01*
X30932Y-35455D01*
X30932Y-35011D01*
X30932Y-34912D01*
X30932Y-34769D01*
X30869Y-34706D01*
X30525Y-34706D01*
X30525Y-35149D01*
X30587Y-35212D01*
X30732Y-35212D01*
X30823Y-35174D01*
X30894Y-35103D01*
X30932Y-35011D01*
X30932Y-35455D01*
X30919Y-35442D01*
X30841Y-35410D01*
X30758Y-35410D01*
X30681Y-35442D01*
X30622Y-35501D01*
X30590Y-35578D01*
X30589Y-35661D01*
X30621Y-35739D01*
X30680Y-35798D01*
X30758Y-35830D01*
X30787Y-35830D01*
X30787Y-36280D01*
X30762Y-36305D01*
X30730Y-36383D01*
X30729Y-36466D01*
X30761Y-36543D01*
X30820Y-36602D01*
X30898Y-36634D01*
X30981Y-36635D01*
X31058Y-36603D01*
X31117Y-36544D01*
X31149Y-36466D01*
X31150Y-36383D01*
X31150Y-37013D01*
X31118Y-36936D01*
X31059Y-36877D01*
X30981Y-36845D01*
X30898Y-36844D01*
X30821Y-36876D01*
X30796Y-36901D01*
X30783Y-36901D01*
X30456Y-36575D01*
X30487Y-36544D01*
X30519Y-36466D01*
X30520Y-36383D01*
X30488Y-36306D01*
X30449Y-36267D01*
X30487Y-36229D01*
X30519Y-36151D01*
X30520Y-36068D01*
X30488Y-35991D01*
X30429Y-35932D01*
X30351Y-35900D01*
X30315Y-35900D01*
X30221Y-35805D01*
X30196Y-35788D01*
X30171Y-35772D01*
X30171Y-35772D01*
X30171Y-35772D01*
X30142Y-35766D01*
X30113Y-35760D01*
X29622Y-35760D01*
X29632Y-35735D01*
X29632Y-35699D01*
X30154Y-35177D01*
X30238Y-35212D01*
X30382Y-35212D01*
X30445Y-35149D01*
X30445Y-34706D01*
X30437Y-34706D01*
X30437Y-34626D01*
X30445Y-34626D01*
X30445Y-34619D01*
X30525Y-34619D01*
X30525Y-34626D01*
X30869Y-34626D01*
X30932Y-34564D01*
X30932Y-34421D01*
X30932Y-34321D01*
X30894Y-34230D01*
X30823Y-34159D01*
X30732Y-34121D01*
X30626Y-34121D01*
X32414Y-32333D01*
X40636Y-32333D01*
X40655Y-32352D01*
X40733Y-32384D01*
X40816Y-32385D01*
X40893Y-32353D01*
X40952Y-32294D01*
X40984Y-32216D01*
X40985Y-32133D01*
X40953Y-32056D01*
X40894Y-31997D01*
X40816Y-31965D01*
X40733Y-31964D01*
X40656Y-31996D01*
X40624Y-32028D01*
X39900Y-32028D01*
X39904Y-32018D01*
X39904Y-31980D01*
X40100Y-31980D01*
X40148Y-31960D01*
X40162Y-31946D01*
X40635Y-31946D01*
X40635Y-31946D01*
X40636Y-31946D01*
X40694Y-31934D01*
X40694Y-31934D01*
X40744Y-31901D01*
X41211Y-31434D01*
X41195Y-31474D01*
X41195Y-31525D01*
X41195Y-31756D01*
X41144Y-31806D01*
X41111Y-31856D01*
X41099Y-31914D01*
X41099Y-31945D01*
X41074Y-31970D01*
X41042Y-32047D01*
X41042Y-32131D01*
X41074Y-32208D01*
X41133Y-32267D01*
X41210Y-32299D01*
X41293Y-32299D01*
X41371Y-32267D01*
X41430Y-32208D01*
X41462Y-32131D01*
X41462Y-32047D01*
X41434Y-31980D01*
X41900Y-31980D01*
X41948Y-31960D01*
X41985Y-31923D01*
X42005Y-31875D01*
X42005Y-31824D01*
X42005Y-31474D01*
X41985Y-31426D01*
X41948Y-31389D01*
X41900Y-31370D01*
X41849Y-31370D01*
X41299Y-31370D01*
X41259Y-31386D01*
X41415Y-31230D01*
X41900Y-31230D01*
X41948Y-31210D01*
X41985Y-31173D01*
X42005Y-31125D01*
X42005Y-31074D01*
X42005Y-30724D01*
X41985Y-30676D01*
X41948Y-30639D01*
X41900Y-30620D01*
X41849Y-30620D01*
X41299Y-30620D01*
X41251Y-30639D01*
X41214Y-30676D01*
X41195Y-30724D01*
X41195Y-30775D01*
X41195Y-31019D01*
X40573Y-31641D01*
X40205Y-31641D01*
X40205Y-31474D01*
X40185Y-31426D01*
X40148Y-31389D01*
X40100Y-31370D01*
X40049Y-31370D01*
X39499Y-31370D01*
X39451Y-31389D01*
X39414Y-31426D01*
X39395Y-31474D01*
X39395Y-31525D01*
X39395Y-31824D01*
X32411Y-31824D01*
X32502Y-31733D01*
X38319Y-31733D01*
X38377Y-31721D01*
X38377Y-31721D01*
X38427Y-31688D01*
X39397Y-30718D01*
X39395Y-30724D01*
X39395Y-30775D01*
X39395Y-31125D01*
X39414Y-31173D01*
X39451Y-31210D01*
X39499Y-31230D01*
X39550Y-31230D01*
X40100Y-31230D01*
X40148Y-31210D01*
X40173Y-31185D01*
X40183Y-31189D01*
X40266Y-31190D01*
X40343Y-31158D01*
X40402Y-31099D01*
X40434Y-31021D01*
X40435Y-30938D01*
X40403Y-30861D01*
X40344Y-30802D01*
X40266Y-30770D01*
X40205Y-30769D01*
X40205Y-30724D01*
X40185Y-30676D01*
X40148Y-30639D01*
X40100Y-30620D01*
X40049Y-30620D01*
X39499Y-30620D01*
X39493Y-30622D01*
X41732Y-28383D01*
X41742Y-28387D01*
X41856Y-28387D01*
X41962Y-28343D01*
X42043Y-28263D01*
X42087Y-28157D01*
X42087Y-28043D01*
X42087Y-33920D01*
X41899Y-33920D01*
X41851Y-33939D01*
X41814Y-33976D01*
X41795Y-34024D01*
X41795Y-34075D01*
X41795Y-34079D01*
X41771Y-34084D01*
X41762Y-34090D01*
X41713Y-34089D01*
X41636Y-34121D01*
X41577Y-34180D01*
X41545Y-34258D01*
X41545Y-34294D01*
X40942Y-34897D01*
X40909Y-34946D01*
X40897Y-35005D01*
X40897Y-35150D01*
X40872Y-35175D01*
X40840Y-35253D01*
X40839Y-35336D01*
X40871Y-35413D01*
X40930Y-35472D01*
X41008Y-35504D01*
X41091Y-35505D01*
X41168Y-35473D01*
X41227Y-35414D01*
X41259Y-35336D01*
X41260Y-35253D01*
X41228Y-35176D01*
X41202Y-35150D01*
X41202Y-35068D01*
X41760Y-34510D01*
X41796Y-34510D01*
X41835Y-34494D01*
X41851Y-34510D01*
X41899Y-34530D01*
X41950Y-34530D01*
X42420Y-34530D01*
X42420Y-34670D01*
X41899Y-34670D01*
X41851Y-34689D01*
X41814Y-34726D01*
X41814Y-34727D01*
X41809Y-34722D01*
X41731Y-34690D01*
X41648Y-34689D01*
X41571Y-34721D01*
X41512Y-34780D01*
X41480Y-34858D01*
X41479Y-34941D01*
X41511Y-35018D01*
X41570Y-35077D01*
X41648Y-35109D01*
X41697Y-35110D01*
X41697Y-35110D01*
X41706Y-35115D01*
X41706Y-35115D01*
X41765Y-35127D01*
X41795Y-35127D01*
X41795Y-35175D01*
X41814Y-35223D01*
X41851Y-35260D01*
X41899Y-35280D01*
X41950Y-35280D01*
X42420Y-35280D01*
X42420Y-37245D01*
X42406Y-37245D01*
X42409Y-37236D01*
X42410Y-37153D01*
X42378Y-37076D01*
X42319Y-37017D01*
X42241Y-36985D01*
X42158Y-36984D01*
X42081Y-37016D01*
X42022Y-37075D01*
X41990Y-37153D01*
X41989Y-37236D01*
X41993Y-37245D01*
X41949Y-37245D01*
X41901Y-37264D01*
X41864Y-37301D01*
X41845Y-37349D01*
X41845Y-37400D01*
X41845Y-37650D01*
X41864Y-37698D01*
X41901Y-37735D01*
X41949Y-37755D01*
X42000Y-37755D01*
X42420Y-37755D01*
X42420Y-37757D01*
X42333Y-37845D01*
X41949Y-37845D01*
X41901Y-37864D01*
X41864Y-37901D01*
X41845Y-37949D01*
X41845Y-38000D01*
X41845Y-38185D01*
X41555Y-38185D01*
X41555Y-37949D01*
X41555Y-37650D01*
X41555Y-37599D01*
X41555Y-37349D01*
X41535Y-37301D01*
X41498Y-37264D01*
X41450Y-37245D01*
X41410Y-37245D01*
X41410Y-37206D01*
X41378Y-37129D01*
X41319Y-37070D01*
X41241Y-37038D01*
X41158Y-37037D01*
X41081Y-37069D01*
X41022Y-37128D01*
X40990Y-37206D01*
X40990Y-37245D01*
X40949Y-37245D01*
X40901Y-37264D01*
X40864Y-37301D01*
X40845Y-37349D01*
X40845Y-37400D01*
X40845Y-37650D01*
X40864Y-37698D01*
X40901Y-37735D01*
X40949Y-37755D01*
X41000Y-37755D01*
X41450Y-37755D01*
X41498Y-37735D01*
X41535Y-37698D01*
X41555Y-37650D01*
X41555Y-37949D01*
X41535Y-37901D01*
X41498Y-37864D01*
X41450Y-37845D01*
X41399Y-37845D01*
X40949Y-37845D01*
X40901Y-37864D01*
X40864Y-37901D01*
X40845Y-37949D01*
X40845Y-38000D01*
X40845Y-38250D01*
X40864Y-38298D01*
X40901Y-38335D01*
X40949Y-38355D01*
X41000Y-38355D01*
X41047Y-38355D01*
X41047Y-38845D01*
X40949Y-38845D01*
X40901Y-38864D01*
X40864Y-38901D01*
X40845Y-38949D01*
X40845Y-39000D01*
X40845Y-39250D01*
X40864Y-39298D01*
X40901Y-39335D01*
X40949Y-39355D01*
X41000Y-39355D01*
X41450Y-39355D01*
X41498Y-39335D01*
X41535Y-39298D01*
X41555Y-39250D01*
X41555Y-39199D01*
X41555Y-38949D01*
X41535Y-38901D01*
X41498Y-38864D01*
X41450Y-38845D01*
X41399Y-38845D01*
X41352Y-38845D01*
X41352Y-38490D01*
X42200Y-38490D01*
X42258Y-38478D01*
X42307Y-38445D01*
X42340Y-38396D01*
X42349Y-38355D01*
X42450Y-38355D01*
X42498Y-38335D01*
X42535Y-38298D01*
X42555Y-38250D01*
X42555Y-38199D01*
X42555Y-38054D01*
X42681Y-37928D01*
X42714Y-37878D01*
X42725Y-37820D01*
X42725Y-37820D01*
X42725Y-39958D01*
X42723Y-39960D01*
X42723Y-38744D01*
X42692Y-38667D01*
X42633Y-38608D01*
X42555Y-38576D01*
X42472Y-38576D01*
X42395Y-38607D01*
X42336Y-38666D01*
X42303Y-38744D01*
X42303Y-38827D01*
X42311Y-38845D01*
X41949Y-38845D01*
X41901Y-38864D01*
X41864Y-38901D01*
X41845Y-38949D01*
X41845Y-39000D01*
X41845Y-39250D01*
X41864Y-39298D01*
X41901Y-39335D01*
X41949Y-39355D01*
X42000Y-39355D01*
X42450Y-39355D01*
X42498Y-39335D01*
X42535Y-39298D01*
X42555Y-39250D01*
X42555Y-39199D01*
X42555Y-39057D01*
X42621Y-38990D01*
X42653Y-38943D01*
X42653Y-38943D01*
X42691Y-38905D01*
X42723Y-38828D01*
X42723Y-38744D01*
X42723Y-39960D01*
X42555Y-40129D01*
X42555Y-39850D01*
X42555Y-39799D01*
X42555Y-39549D01*
X42535Y-39501D01*
X42498Y-39464D01*
X42450Y-39445D01*
X42399Y-39445D01*
X41949Y-39445D01*
X41901Y-39464D01*
X41864Y-39501D01*
X41845Y-39549D01*
X41845Y-39600D01*
X41845Y-39850D01*
X41864Y-39898D01*
X41901Y-39935D01*
X41949Y-39955D01*
X42000Y-39955D01*
X42047Y-39955D01*
X42047Y-39965D01*
X42022Y-39990D01*
X41990Y-40068D01*
X41989Y-40151D01*
X42021Y-40228D01*
X42080Y-40287D01*
X42158Y-40319D01*
X42241Y-40320D01*
X42318Y-40288D01*
X42377Y-40229D01*
X42409Y-40151D01*
X42410Y-40068D01*
X42378Y-39991D01*
X42352Y-39965D01*
X42352Y-39955D01*
X42450Y-39955D01*
X42498Y-39935D01*
X42535Y-39898D01*
X42555Y-39850D01*
X42555Y-40129D01*
X41946Y-40737D01*
X41555Y-40737D01*
X41555Y-39850D01*
X41555Y-39799D01*
X41555Y-39549D01*
X41535Y-39501D01*
X41498Y-39464D01*
X41450Y-39445D01*
X41399Y-39445D01*
X40949Y-39445D01*
X40901Y-39464D01*
X40864Y-39501D01*
X40845Y-39549D01*
X40845Y-39600D01*
X40845Y-39850D01*
X40864Y-39898D01*
X40901Y-39935D01*
X40949Y-39955D01*
X41000Y-39955D01*
X41047Y-39955D01*
X41047Y-39965D01*
X41022Y-39990D01*
X40990Y-40068D01*
X40989Y-40151D01*
X41021Y-40228D01*
X41080Y-40287D01*
X41158Y-40319D01*
X41241Y-40320D01*
X41318Y-40288D01*
X41377Y-40229D01*
X41409Y-40151D01*
X41410Y-40068D01*
X41378Y-39991D01*
X41352Y-39965D01*
X41352Y-39955D01*
X41450Y-39955D01*
X41498Y-39935D01*
X41535Y-39898D01*
X41555Y-39850D01*
X41555Y-40737D01*
X40064Y-40737D01*
X40039Y-40712D01*
X39961Y-40680D01*
X39878Y-40679D01*
X39801Y-40711D01*
X39742Y-40770D01*
X39710Y-40848D01*
X39709Y-40931D01*
X39741Y-41008D01*
X39800Y-41067D01*
X39878Y-41099D01*
X39961Y-41100D01*
X40038Y-41068D01*
X40064Y-41042D01*
X42010Y-41042D01*
X42068Y-41030D01*
X42068Y-41030D01*
X42117Y-40997D01*
X42997Y-40117D01*
X43030Y-40068D01*
X43030Y-40068D01*
X43042Y-40010D01*
X43042Y-38573D01*
X43256Y-38358D01*
X43258Y-38360D01*
X43414Y-38425D01*
X43584Y-38425D01*
X43740Y-38360D01*
X43860Y-38241D01*
X43897Y-38152D01*
X44102Y-38152D01*
X44139Y-38240D01*
X44258Y-38360D01*
X44414Y-38425D01*
X44584Y-38425D01*
X44740Y-38360D01*
X44860Y-38241D01*
X44925Y-38085D01*
X44925Y-37915D01*
X44925Y-38915D01*
X44860Y-38759D01*
X44741Y-38639D01*
X44585Y-38574D01*
X44415Y-38574D01*
X44259Y-38639D01*
X44139Y-38758D01*
X44102Y-38847D01*
X43897Y-38847D01*
X43860Y-38759D01*
X43741Y-38639D01*
X43585Y-38574D01*
X43415Y-38574D01*
X43259Y-38639D01*
X43139Y-38758D01*
X43074Y-38914D01*
X43074Y-39084D01*
X43139Y-39240D01*
X43258Y-39360D01*
X43414Y-39425D01*
X43584Y-39425D01*
X43740Y-39360D01*
X43860Y-39241D01*
X43897Y-39152D01*
X44102Y-39152D01*
X44139Y-39240D01*
X44258Y-39360D01*
X44414Y-39425D01*
X44584Y-39425D01*
X44740Y-39360D01*
X44860Y-39241D01*
X44925Y-39085D01*
X44925Y-38915D01*
X44925Y-39915D01*
X44860Y-39759D01*
X44741Y-39639D01*
X44585Y-39574D01*
X44415Y-39574D01*
X44259Y-39639D01*
X44139Y-39758D01*
X44102Y-39847D01*
X43897Y-39847D01*
X43860Y-39759D01*
X43741Y-39639D01*
X43585Y-39574D01*
X43415Y-39574D01*
X43259Y-39639D01*
X43139Y-39758D01*
X43074Y-39914D01*
X43074Y-40084D01*
X43139Y-40240D01*
X43258Y-40360D01*
X43414Y-40425D01*
X43584Y-40425D01*
X43740Y-40360D01*
X43860Y-40241D01*
X43897Y-40152D01*
X44102Y-40152D01*
X44139Y-40240D01*
X44258Y-40360D01*
X44414Y-40425D01*
X44584Y-40425D01*
X44740Y-40360D01*
X44860Y-40241D01*
X44925Y-40085D01*
X44925Y-39915D01*
X44925Y-41795D01*
X40000Y-41795D01*
X39980Y-41798D01*
X39960Y-41798D01*
X39768Y-41836D01*
X39694Y-41867D01*
X39532Y-41975D01*
X39475Y-42032D01*
X39475Y-42032D01*
X39475Y-42032D01*
X39367Y-42194D01*
X39336Y-42268D01*
X39298Y-42460D01*
X39298Y-42480D01*
X39295Y-42500D01*
X39295Y-43795D01*
X38618Y-43795D01*
X38300Y-43795D01*
X38300Y-43324D01*
X38300Y-43225D01*
X38300Y-43102D01*
X38237Y-43040D01*
X37915Y-43040D01*
X37915Y-43462D01*
X37977Y-43525D01*
X38099Y-43525D01*
X38191Y-43486D01*
X38261Y-43416D01*
X38300Y-43324D01*
X38300Y-43795D01*
X37835Y-43795D01*
X37835Y-43462D01*
X37835Y-43040D01*
X37512Y-43040D01*
X37450Y-43102D01*
X37450Y-43225D01*
X37450Y-43324D01*
X37488Y-43416D01*
X37558Y-43486D01*
X37650Y-43525D01*
X37772Y-43525D01*
X37835Y-43462D01*
X37835Y-43795D01*
X35860Y-43795D01*
X35860Y-41837D01*
X35860Y-41515D01*
X35437Y-41515D01*
X35375Y-41577D01*
X35375Y-41699D01*
X35413Y-41791D01*
X35483Y-41861D01*
X35575Y-41900D01*
X35674Y-41900D01*
X35797Y-41900D01*
X35860Y-41837D01*
X35860Y-43795D01*
X34275Y-43795D01*
X34275Y-42674D01*
X34275Y-42602D01*
X34212Y-42540D01*
X33840Y-42540D01*
X33840Y-42812D01*
X33902Y-42875D01*
X33975Y-42875D01*
X34074Y-42875D01*
X34166Y-42836D01*
X34236Y-42766D01*
X34275Y-42674D01*
X34275Y-43795D01*
X33760Y-43795D01*
X33760Y-42812D01*
X33760Y-42540D01*
X33387Y-42540D01*
X33325Y-42602D01*
X33325Y-42674D01*
X33363Y-42766D01*
X33433Y-42836D01*
X33525Y-42875D01*
X33624Y-42875D01*
X33697Y-42875D01*
X33760Y-42812D01*
X33760Y-43795D01*
X31575Y-43795D01*
X31575Y-42674D01*
X31575Y-42602D01*
X31512Y-42540D01*
X31140Y-42540D01*
X31140Y-42812D01*
X31202Y-42875D01*
X31275Y-42875D01*
X31374Y-42875D01*
X31466Y-42836D01*
X31536Y-42766D01*
X31575Y-42674D01*
X31575Y-43795D01*
X31060Y-43795D01*
X31060Y-42812D01*
X31060Y-42540D01*
X30687Y-42540D01*
X30625Y-42602D01*
X30625Y-42674D01*
X30663Y-42766D01*
X30733Y-42836D01*
X30825Y-42875D01*
X30924Y-42875D01*
X30997Y-42875D01*
X31060Y-42812D01*
X31060Y-43795D01*
X29725Y-43795D01*
X29725Y-42799D01*
X29725Y-42677D01*
X29662Y-42615D01*
X29240Y-42615D01*
X29240Y-42937D01*
X29302Y-43000D01*
X29425Y-43000D01*
X29524Y-43000D01*
X29616Y-42961D01*
X29686Y-42891D01*
X29725Y-42799D01*
X29725Y-43795D01*
X29160Y-43795D01*
X29160Y-42937D01*
X29160Y-42615D01*
X28737Y-42615D01*
X28675Y-42677D01*
X28675Y-42799D01*
X28713Y-42891D01*
X28783Y-42961D01*
X28875Y-43000D01*
X28974Y-43000D01*
X29097Y-43000D01*
X29160Y-42937D01*
X29160Y-43795D01*
X27685Y-43795D01*
X27685Y-40062D01*
X27685Y-39640D01*
X27362Y-39640D01*
X27300Y-39702D01*
X27300Y-39825D01*
X27300Y-39924D01*
X27338Y-40016D01*
X27408Y-40086D01*
X27500Y-40125D01*
X27622Y-40125D01*
X27685Y-40062D01*
X27685Y-43795D01*
X27048Y-43795D01*
X27048Y-39090D01*
X27041Y-38873D01*
X26972Y-38706D01*
X26925Y-38693D01*
X26925Y-37915D01*
X26925Y-36915D01*
X26925Y-35915D01*
X26925Y-34915D01*
X26925Y-33915D01*
X26925Y-32915D01*
X26925Y-31915D01*
X26860Y-31759D01*
X26741Y-31639D01*
X26585Y-31574D01*
X26415Y-31574D01*
X26259Y-31639D01*
X26139Y-31758D01*
X26102Y-31847D01*
X25897Y-31847D01*
X25860Y-31759D01*
X25741Y-31639D01*
X25585Y-31574D01*
X25415Y-31574D01*
X25259Y-31639D01*
X25139Y-31758D01*
X25074Y-31914D01*
X25074Y-32084D01*
X25139Y-32240D01*
X25258Y-32360D01*
X25414Y-32425D01*
X25584Y-32425D01*
X25740Y-32360D01*
X25860Y-32241D01*
X25897Y-32152D01*
X26102Y-32152D01*
X26139Y-32240D01*
X26258Y-32360D01*
X26414Y-32425D01*
X26584Y-32425D01*
X26740Y-32360D01*
X26860Y-32241D01*
X26925Y-32085D01*
X26925Y-31915D01*
X26925Y-32915D01*
X26860Y-32759D01*
X26741Y-32639D01*
X26585Y-32574D01*
X26415Y-32574D01*
X26259Y-32639D01*
X26139Y-32758D01*
X26102Y-32847D01*
X25897Y-32847D01*
X25860Y-32759D01*
X25741Y-32639D01*
X25585Y-32574D01*
X25415Y-32574D01*
X25259Y-32639D01*
X25139Y-32758D01*
X25074Y-32914D01*
X25074Y-33084D01*
X25139Y-33240D01*
X25258Y-33360D01*
X25414Y-33425D01*
X25584Y-33425D01*
X25740Y-33360D01*
X25860Y-33241D01*
X25897Y-33152D01*
X26102Y-33152D01*
X26139Y-33240D01*
X26258Y-33360D01*
X26414Y-33425D01*
X26584Y-33425D01*
X26740Y-33360D01*
X26860Y-33241D01*
X26925Y-33085D01*
X26925Y-32915D01*
X26925Y-33915D01*
X26860Y-33759D01*
X26741Y-33639D01*
X26585Y-33574D01*
X26415Y-33574D01*
X26259Y-33639D01*
X26139Y-33758D01*
X26102Y-33847D01*
X25897Y-33847D01*
X25860Y-33759D01*
X25741Y-33639D01*
X25585Y-33574D01*
X25415Y-33574D01*
X25259Y-33639D01*
X25139Y-33758D01*
X25074Y-33914D01*
X25074Y-34084D01*
X25139Y-34240D01*
X25258Y-34360D01*
X25414Y-34425D01*
X25584Y-34425D01*
X25740Y-34360D01*
X25860Y-34241D01*
X25897Y-34152D01*
X26102Y-34152D01*
X26139Y-34240D01*
X26258Y-34360D01*
X26414Y-34425D01*
X26584Y-34425D01*
X26740Y-34360D01*
X26860Y-34241D01*
X26925Y-34085D01*
X26925Y-33915D01*
X26925Y-34915D01*
X26860Y-34759D01*
X26741Y-34639D01*
X26585Y-34574D01*
X26415Y-34574D01*
X26259Y-34639D01*
X26139Y-34758D01*
X26102Y-34847D01*
X25897Y-34847D01*
X25860Y-34759D01*
X25741Y-34639D01*
X25585Y-34574D01*
X25415Y-34574D01*
X25259Y-34639D01*
X25139Y-34758D01*
X25074Y-34914D01*
X25074Y-35084D01*
X25139Y-35240D01*
X25258Y-35360D01*
X25414Y-35425D01*
X25584Y-35425D01*
X25740Y-35360D01*
X25860Y-35241D01*
X25897Y-35152D01*
X26102Y-35152D01*
X26139Y-35240D01*
X26258Y-35360D01*
X26414Y-35425D01*
X26584Y-35425D01*
X26740Y-35360D01*
X26860Y-35241D01*
X26925Y-35085D01*
X26925Y-34915D01*
X26925Y-35915D01*
X26860Y-35759D01*
X26741Y-35639D01*
X26585Y-35574D01*
X26415Y-35574D01*
X26259Y-35639D01*
X26139Y-35758D01*
X26102Y-35847D01*
X25897Y-35847D01*
X25860Y-35759D01*
X25741Y-35639D01*
X25585Y-35574D01*
X25415Y-35574D01*
X25259Y-35639D01*
X25139Y-35758D01*
X25074Y-35914D01*
X25074Y-36084D01*
X25139Y-36240D01*
X25258Y-36360D01*
X25414Y-36425D01*
X25584Y-36425D01*
X25740Y-36360D01*
X25860Y-36241D01*
X25897Y-36152D01*
X26102Y-36152D01*
X26139Y-36240D01*
X26258Y-36360D01*
X26414Y-36425D01*
X26584Y-36425D01*
X26740Y-36360D01*
X26860Y-36241D01*
X26925Y-36085D01*
X26925Y-35915D01*
X26925Y-36915D01*
X26860Y-36759D01*
X26741Y-36639D01*
X26585Y-36574D01*
X26415Y-36574D01*
X26259Y-36639D01*
X26139Y-36758D01*
X26102Y-36847D01*
X25897Y-36847D01*
X25860Y-36759D01*
X25741Y-36639D01*
X25585Y-36574D01*
X25415Y-36574D01*
X25259Y-36639D01*
X25139Y-36758D01*
X25074Y-36914D01*
X25074Y-37084D01*
X25139Y-37240D01*
X25258Y-37360D01*
X25414Y-37425D01*
X25584Y-37425D01*
X25740Y-37360D01*
X25860Y-37241D01*
X25897Y-37152D01*
X26102Y-37152D01*
X26139Y-37240D01*
X26258Y-37360D01*
X26414Y-37425D01*
X26584Y-37425D01*
X26740Y-37360D01*
X26860Y-37241D01*
X26925Y-37085D01*
X26925Y-36915D01*
X26925Y-37915D01*
X26860Y-37759D01*
X26741Y-37639D01*
X26585Y-37574D01*
X26415Y-37574D01*
X26259Y-37639D01*
X26139Y-37758D01*
X26102Y-37847D01*
X25897Y-37847D01*
X25860Y-37759D01*
X25741Y-37639D01*
X25585Y-37574D01*
X25415Y-37574D01*
X25259Y-37639D01*
X25139Y-37758D01*
X25074Y-37914D01*
X25074Y-38084D01*
X25139Y-38240D01*
X25258Y-38360D01*
X25414Y-38425D01*
X25584Y-38425D01*
X25740Y-38360D01*
X25860Y-38241D01*
X25897Y-38152D01*
X26102Y-38152D01*
X26139Y-38240D01*
X26258Y-38360D01*
X26414Y-38425D01*
X26584Y-38425D01*
X26740Y-38360D01*
X26860Y-38241D01*
X26925Y-38085D01*
X26925Y-37915D01*
X26925Y-38693D01*
X26876Y-38680D01*
X26819Y-38736D01*
X26819Y-38623D01*
X26793Y-38527D01*
X26590Y-38451D01*
X26373Y-38458D01*
X26206Y-38527D01*
X26180Y-38623D01*
X26500Y-38943D01*
X26819Y-38623D01*
X26819Y-38736D01*
X26556Y-39000D01*
X26876Y-39319D01*
X26972Y-39293D01*
X27048Y-39090D01*
X27048Y-43795D01*
X27030Y-43795D01*
X27030Y-42608D01*
X26998Y-42531D01*
X26939Y-42472D01*
X26861Y-42440D01*
X26825Y-42440D01*
X26652Y-42266D01*
X26652Y-40425D01*
X26821Y-40425D01*
X26869Y-40405D01*
X26905Y-40369D01*
X26925Y-40321D01*
X26925Y-40269D01*
X26925Y-39678D01*
X26905Y-39630D01*
X26869Y-39594D01*
X26821Y-39574D01*
X26819Y-39574D01*
X26819Y-39376D01*
X26500Y-39056D01*
X26443Y-39113D01*
X26443Y-39000D01*
X26123Y-38680D01*
X26027Y-38706D01*
X26001Y-38776D01*
X25972Y-38706D01*
X25876Y-38680D01*
X25819Y-38736D01*
X25819Y-38623D01*
X25793Y-38527D01*
X25590Y-38451D01*
X25373Y-38458D01*
X25206Y-38527D01*
X25180Y-38623D01*
X25500Y-38943D01*
X25819Y-38623D01*
X25819Y-38736D01*
X25556Y-39000D01*
X25876Y-39319D01*
X25972Y-39293D01*
X25998Y-39223D01*
X26027Y-39293D01*
X26123Y-39319D01*
X26443Y-39000D01*
X26443Y-39113D01*
X26180Y-39376D01*
X26206Y-39472D01*
X26409Y-39548D01*
X26626Y-39541D01*
X26793Y-39472D01*
X26819Y-39376D01*
X26819Y-39574D01*
X26769Y-39574D01*
X26178Y-39574D01*
X26130Y-39594D01*
X26094Y-39630D01*
X26074Y-39678D01*
X26074Y-39730D01*
X26074Y-39847D01*
X25925Y-39847D01*
X25925Y-39678D01*
X25905Y-39630D01*
X25869Y-39594D01*
X25821Y-39574D01*
X25819Y-39574D01*
X25819Y-39376D01*
X25500Y-39056D01*
X25443Y-39113D01*
X25443Y-39000D01*
X25123Y-38680D01*
X25027Y-38706D01*
X24951Y-38909D01*
X24958Y-39126D01*
X25027Y-39293D01*
X25123Y-39319D01*
X25443Y-39000D01*
X25443Y-39113D01*
X25180Y-39376D01*
X25206Y-39472D01*
X25409Y-39548D01*
X25626Y-39541D01*
X25793Y-39472D01*
X25819Y-39376D01*
X25819Y-39574D01*
X25769Y-39574D01*
X25178Y-39574D01*
X25130Y-39594D01*
X25094Y-39630D01*
X25074Y-39678D01*
X25074Y-39730D01*
X25074Y-40321D01*
X25094Y-40369D01*
X25130Y-40405D01*
X25178Y-40425D01*
X25230Y-40425D01*
X25821Y-40425D01*
X25869Y-40405D01*
X25905Y-40369D01*
X25925Y-40321D01*
X25925Y-40269D01*
X25925Y-40152D01*
X26074Y-40152D01*
X26074Y-40321D01*
X26094Y-40369D01*
X26130Y-40405D01*
X26178Y-40425D01*
X26230Y-40425D01*
X26347Y-40425D01*
X26347Y-42330D01*
X26359Y-42388D01*
X26392Y-42437D01*
X26609Y-42655D01*
X26609Y-42691D01*
X26641Y-42768D01*
X26700Y-42827D01*
X26778Y-42859D01*
X26861Y-42860D01*
X26938Y-42828D01*
X26997Y-42769D01*
X27029Y-42691D01*
X27030Y-42608D01*
X27030Y-43795D01*
X26450Y-43795D01*
X26450Y-43187D01*
X26449Y-42809D01*
X26306Y-42463D01*
X26168Y-42388D01*
X26111Y-42444D01*
X26111Y-42331D01*
X26036Y-42193D01*
X25687Y-42049D01*
X25309Y-42050D01*
X24963Y-42193D01*
X24888Y-42331D01*
X25500Y-42943D01*
X26111Y-42331D01*
X26111Y-42444D01*
X25556Y-43000D01*
X26168Y-43611D01*
X26306Y-43536D01*
X26450Y-43187D01*
X26450Y-43795D01*
X26042Y-43795D01*
X26111Y-43668D01*
X25500Y-43056D01*
X24888Y-43668D01*
X24957Y-43795D01*
X24705Y-43795D01*
X24705Y-43542D01*
X24831Y-43611D01*
X25443Y-43000D01*
X24831Y-42388D01*
X24705Y-42457D01*
X24705Y-25205D01*
X25500Y-25205D01*
X25519Y-25201D01*
X25539Y-25201D01*
X25922Y-25124D01*
X25996Y-25094D01*
X25996Y-25094D01*
X26320Y-24877D01*
X26320Y-24877D01*
X26349Y-24849D01*
X26377Y-24820D01*
X26377Y-24820D01*
X26594Y-24496D01*
X26624Y-24422D01*
X26701Y-24039D01*
X26701Y-24019D01*
X26705Y-24000D01*
X26705Y-23205D01*
X43957Y-23205D01*
X43888Y-23331D01*
X44500Y-23943D01*
X45111Y-23331D01*
X45042Y-23205D01*
X45295Y-23205D01*
X45295Y-23457D01*
X45168Y-23388D01*
X44556Y-24000D01*
X45168Y-24611D01*
X45295Y-24542D01*
X45295Y-41795D01*
X45295Y-41795D01*
G37*
G54D30*
X45295Y-41795D02*
X45111Y-41795D01*
X45111Y-24668D01*
X44500Y-24056D01*
X44443Y-24113D01*
X44443Y-24000D01*
X43831Y-23388D01*
X43693Y-23463D01*
X43549Y-23812D01*
X43550Y-24190D01*
X43693Y-24536D01*
X43831Y-24611D01*
X44443Y-24000D01*
X44443Y-24113D01*
X43888Y-24668D01*
X43963Y-24806D01*
X44312Y-24950D01*
X44690Y-24949D01*
X45036Y-24806D01*
X45111Y-24668D01*
X45111Y-41795D01*
X44925Y-41795D01*
X44925Y-39915D01*
X44925Y-38915D01*
X44925Y-37915D01*
X44925Y-36915D01*
X44925Y-35915D01*
X44925Y-34915D01*
X44925Y-33915D01*
X44925Y-32915D01*
X44925Y-31915D01*
X44925Y-30915D01*
X44925Y-29915D01*
X44925Y-28915D01*
X44925Y-27915D01*
X44925Y-27915D01*
X44925Y-27321D01*
X44925Y-27269D01*
X44925Y-26678D01*
X44905Y-26630D01*
X44869Y-26594D01*
X44821Y-26574D01*
X44769Y-26574D01*
X44178Y-26574D01*
X44130Y-26594D01*
X44094Y-26630D01*
X44074Y-26678D01*
X44074Y-26730D01*
X44074Y-26847D01*
X43925Y-26847D01*
X43925Y-26678D01*
X43905Y-26630D01*
X43869Y-26594D01*
X43821Y-26574D01*
X43769Y-26574D01*
X43178Y-26574D01*
X43130Y-26594D01*
X43094Y-26630D01*
X43074Y-26678D01*
X43074Y-26730D01*
X43074Y-27321D01*
X43094Y-27369D01*
X43130Y-27405D01*
X43178Y-27425D01*
X43230Y-27425D01*
X43821Y-27425D01*
X43869Y-27405D01*
X43905Y-27369D01*
X43925Y-27321D01*
X43925Y-27269D01*
X43925Y-27152D01*
X44074Y-27152D01*
X44074Y-27321D01*
X44094Y-27369D01*
X44130Y-27405D01*
X44178Y-27425D01*
X44230Y-27425D01*
X44821Y-27425D01*
X44869Y-27405D01*
X44905Y-27369D01*
X44925Y-27321D01*
X44925Y-27915D01*
X44860Y-27759D01*
X44741Y-27639D01*
X44585Y-27574D01*
X44415Y-27574D01*
X44259Y-27639D01*
X44139Y-27758D01*
X44102Y-27847D01*
X43897Y-27847D01*
X43860Y-27759D01*
X43741Y-27639D01*
X43585Y-27574D01*
X43415Y-27574D01*
X43259Y-27639D01*
X43139Y-27758D01*
X43074Y-27914D01*
X43074Y-28084D01*
X43139Y-28240D01*
X43258Y-28360D01*
X43414Y-28425D01*
X43584Y-28425D01*
X43740Y-28360D01*
X43860Y-28241D01*
X43897Y-28152D01*
X44102Y-28152D01*
X44139Y-28240D01*
X44258Y-28360D01*
X44414Y-28425D01*
X44584Y-28425D01*
X44740Y-28360D01*
X44860Y-28241D01*
X44925Y-28085D01*
X44925Y-27915D01*
X44925Y-28915D01*
X44860Y-28759D01*
X44741Y-28639D01*
X44585Y-28574D01*
X44415Y-28574D01*
X44259Y-28639D01*
X44139Y-28758D01*
X44102Y-28847D01*
X43897Y-28847D01*
X43860Y-28759D01*
X43741Y-28639D01*
X43585Y-28574D01*
X43415Y-28574D01*
X43259Y-28639D01*
X43139Y-28758D01*
X43074Y-28914D01*
X43074Y-29084D01*
X43139Y-29240D01*
X43258Y-29360D01*
X43414Y-29425D01*
X43584Y-29425D01*
X43740Y-29360D01*
X43860Y-29241D01*
X43897Y-29152D01*
X44102Y-29152D01*
X44139Y-29240D01*
X44258Y-29360D01*
X44414Y-29425D01*
X44584Y-29425D01*
X44740Y-29360D01*
X44860Y-29241D01*
X44925Y-29085D01*
X44925Y-28915D01*
X44925Y-29915D01*
X44860Y-29759D01*
X44741Y-29639D01*
X44585Y-29574D01*
X44415Y-29574D01*
X44259Y-29639D01*
X44139Y-29758D01*
X44102Y-29847D01*
X43897Y-29847D01*
X43860Y-29759D01*
X43741Y-29639D01*
X43585Y-29574D01*
X43415Y-29574D01*
X43259Y-29639D01*
X43139Y-29758D01*
X43074Y-29914D01*
X43074Y-30084D01*
X43139Y-30240D01*
X43258Y-30360D01*
X43414Y-30425D01*
X43584Y-30425D01*
X43740Y-30360D01*
X43860Y-30241D01*
X43897Y-30152D01*
X44102Y-30152D01*
X44139Y-30240D01*
X44258Y-30360D01*
X44414Y-30425D01*
X44584Y-30425D01*
X44740Y-30360D01*
X44860Y-30241D01*
X44925Y-30085D01*
X44925Y-29915D01*
X44925Y-30915D01*
X44860Y-30759D01*
X44741Y-30639D01*
X44585Y-30574D01*
X44415Y-30574D01*
X44259Y-30639D01*
X44139Y-30758D01*
X44102Y-30847D01*
X43897Y-30847D01*
X43860Y-30759D01*
X43741Y-30639D01*
X43585Y-30574D01*
X43415Y-30574D01*
X43259Y-30639D01*
X43139Y-30758D01*
X43074Y-30914D01*
X43074Y-31084D01*
X43139Y-31240D01*
X43258Y-31360D01*
X43414Y-31425D01*
X43584Y-31425D01*
X43740Y-31360D01*
X43860Y-31241D01*
X43897Y-31152D01*
X44102Y-31152D01*
X44139Y-31240D01*
X44258Y-31360D01*
X44414Y-31425D01*
X44584Y-31425D01*
X44740Y-31360D01*
X44860Y-31241D01*
X44925Y-31085D01*
X44925Y-30915D01*
X44925Y-31915D01*
X44860Y-31759D01*
X44741Y-31639D01*
X44585Y-31574D01*
X44415Y-31574D01*
X44259Y-31639D01*
X44139Y-31758D01*
X44102Y-31847D01*
X43897Y-31847D01*
X43860Y-31759D01*
X43741Y-31639D01*
X43585Y-31574D01*
X43415Y-31574D01*
X43259Y-31639D01*
X43139Y-31758D01*
X43074Y-31914D01*
X43074Y-32084D01*
X43139Y-32240D01*
X43258Y-32360D01*
X43414Y-32425D01*
X43584Y-32425D01*
X43740Y-32360D01*
X43860Y-32241D01*
X43897Y-32152D01*
X44102Y-32152D01*
X44139Y-32240D01*
X44258Y-32360D01*
X44414Y-32425D01*
X44584Y-32425D01*
X44740Y-32360D01*
X44860Y-32241D01*
X44925Y-32085D01*
X44925Y-31915D01*
X44925Y-32915D01*
X44860Y-32759D01*
X44741Y-32639D01*
X44585Y-32574D01*
X44415Y-32574D01*
X44259Y-32639D01*
X44139Y-32758D01*
X44102Y-32847D01*
X43897Y-32847D01*
X43860Y-32759D01*
X43741Y-32639D01*
X43585Y-32574D01*
X43415Y-32574D01*
X43259Y-32639D01*
X43139Y-32758D01*
X43074Y-32914D01*
X43074Y-33084D01*
X43139Y-33240D01*
X43258Y-33360D01*
X43414Y-33425D01*
X43584Y-33425D01*
X43740Y-33360D01*
X43860Y-33241D01*
X43897Y-33152D01*
X44102Y-33152D01*
X44139Y-33240D01*
X44258Y-33360D01*
X44414Y-33425D01*
X44584Y-33425D01*
X44740Y-33360D01*
X44860Y-33241D01*
X44925Y-33085D01*
X44925Y-32915D01*
X44925Y-33915D01*
X44860Y-33759D01*
X44741Y-33639D01*
X44585Y-33574D01*
X44415Y-33574D01*
X44259Y-33639D01*
X44139Y-33758D01*
X44102Y-33847D01*
X43897Y-33847D01*
X43860Y-33759D01*
X43741Y-33639D01*
X43585Y-33574D01*
X43415Y-33574D01*
X43259Y-33639D01*
X43139Y-33758D01*
X43074Y-33914D01*
X43074Y-34084D01*
X43139Y-34240D01*
X43258Y-34360D01*
X43414Y-34425D01*
X43584Y-34425D01*
X43740Y-34360D01*
X43860Y-34241D01*
X43897Y-34152D01*
X44102Y-34152D01*
X44139Y-34240D01*
X44258Y-34360D01*
X44414Y-34425D01*
X44584Y-34425D01*
X44740Y-34360D01*
X44860Y-34241D01*
X44925Y-34085D01*
X44925Y-33915D01*
X44925Y-34915D01*
X44860Y-34759D01*
X44741Y-34639D01*
X44585Y-34574D01*
X44415Y-34574D01*
X44259Y-34639D01*
X44139Y-34758D01*
X44102Y-34847D01*
X43897Y-34847D01*
X43860Y-34759D01*
X43741Y-34639D01*
X43585Y-34574D01*
X43415Y-34574D01*
X43259Y-34639D01*
X43139Y-34758D01*
X43074Y-34914D01*
X43074Y-35084D01*
X43139Y-35240D01*
X43258Y-35360D01*
X43414Y-35425D01*
X43584Y-35425D01*
X43740Y-35360D01*
X43860Y-35241D01*
X43897Y-35152D01*
X44102Y-35152D01*
X44139Y-35240D01*
X44258Y-35360D01*
X44414Y-35425D01*
X44584Y-35425D01*
X44740Y-35360D01*
X44860Y-35241D01*
X44925Y-35085D01*
X44925Y-34915D01*
X44925Y-35915D01*
X44860Y-35759D01*
X44741Y-35639D01*
X44585Y-35574D01*
X44415Y-35574D01*
X44259Y-35639D01*
X44139Y-35758D01*
X44102Y-35847D01*
X43897Y-35847D01*
X43860Y-35759D01*
X43741Y-35639D01*
X43585Y-35574D01*
X43415Y-35574D01*
X43259Y-35639D01*
X43139Y-35758D01*
X43074Y-35914D01*
X43074Y-36084D01*
X43139Y-36240D01*
X43258Y-36360D01*
X43414Y-36425D01*
X43584Y-36425D01*
X43740Y-36360D01*
X43860Y-36241D01*
X43897Y-36152D01*
X44102Y-36152D01*
X44139Y-36240D01*
X44258Y-36360D01*
X44414Y-36425D01*
X44584Y-36425D01*
X44740Y-36360D01*
X44860Y-36241D01*
X44925Y-36085D01*
X44925Y-35915D01*
X44925Y-36915D01*
X44860Y-36759D01*
X44741Y-36639D01*
X44585Y-36574D01*
X44415Y-36574D01*
X44259Y-36639D01*
X44139Y-36758D01*
X44102Y-36847D01*
X43897Y-36847D01*
X43860Y-36759D01*
X43741Y-36639D01*
X43585Y-36574D01*
X43415Y-36574D01*
X43259Y-36639D01*
X43139Y-36758D01*
X43074Y-36914D01*
X43074Y-37084D01*
X43139Y-37240D01*
X43258Y-37360D01*
X43414Y-37425D01*
X43584Y-37425D01*
X43740Y-37360D01*
X43860Y-37241D01*
X43897Y-37152D01*
X44102Y-37152D01*
X44139Y-37240D01*
X44258Y-37360D01*
X44414Y-37425D01*
X44584Y-37425D01*
X44740Y-37360D01*
X44860Y-37241D01*
X44925Y-37085D01*
X44925Y-36915D01*
X44925Y-37915D01*
X44860Y-37759D01*
X44741Y-37639D01*
X44585Y-37574D01*
X44415Y-37574D01*
X44259Y-37639D01*
X44139Y-37758D01*
X44102Y-37847D01*
X43897Y-37847D01*
X43860Y-37759D01*
X43741Y-37639D01*
X43585Y-37574D01*
X43415Y-37574D01*
X43259Y-37639D01*
X43139Y-37758D01*
X43074Y-37914D01*
X43074Y-38084D01*
X43081Y-38102D01*
X42782Y-38402D01*
X42749Y-38451D01*
X42737Y-38510D01*
X42737Y-39946D01*
X42725Y-39958D01*
X42725Y-37820D01*
X42725Y-34756D01*
X42725Y-34756D01*
X42725Y-34253D01*
X42714Y-34194D01*
X42714Y-34194D01*
X42681Y-34145D01*
X42652Y-34117D01*
X42605Y-34085D01*
X42605Y-34024D01*
X42585Y-33976D01*
X42548Y-33939D01*
X42500Y-33920D01*
X42449Y-33920D01*
X42087Y-33920D01*
X42087Y-28043D01*
X42043Y-27937D01*
X41963Y-27856D01*
X41857Y-27812D01*
X41743Y-27812D01*
X41637Y-27856D01*
X41556Y-27936D01*
X41512Y-28042D01*
X41512Y-28156D01*
X41516Y-28167D01*
X38735Y-30948D01*
X38735Y-26858D01*
X38735Y-26806D01*
X38735Y-25940D01*
X38715Y-25892D01*
X38679Y-25855D01*
X38631Y-25836D01*
X38579Y-25836D01*
X38107Y-25836D01*
X38059Y-25855D01*
X38022Y-25892D01*
X38003Y-25940D01*
X38003Y-25992D01*
X38003Y-26858D01*
X38022Y-26905D01*
X38059Y-26942D01*
X38107Y-26962D01*
X38158Y-26962D01*
X38631Y-26962D01*
X38679Y-26942D01*
X38715Y-26905D01*
X38735Y-26858D01*
X38735Y-30948D01*
X38256Y-31428D01*
X37889Y-31428D01*
X37889Y-25015D01*
X37824Y-24859D01*
X37704Y-24739D01*
X37548Y-24674D01*
X37379Y-24674D01*
X37223Y-24739D01*
X37103Y-24858D01*
X37038Y-25015D01*
X37038Y-25184D01*
X37103Y-25340D01*
X37222Y-25460D01*
X37378Y-25525D01*
X37548Y-25525D01*
X37704Y-25460D01*
X37824Y-25341D01*
X37888Y-25184D01*
X37889Y-25015D01*
X37889Y-31428D01*
X36952Y-31428D01*
X36972Y-31380D01*
X36972Y-31297D01*
X36940Y-31219D01*
X36881Y-31160D01*
X36804Y-31128D01*
X36768Y-31128D01*
X35992Y-30353D01*
X35992Y-28606D01*
X35992Y-28554D01*
X35992Y-27767D01*
X35992Y-25338D01*
X35992Y-25286D01*
X35992Y-24499D01*
X35972Y-24451D01*
X35936Y-24414D01*
X35888Y-24395D01*
X35836Y-24395D01*
X35265Y-24395D01*
X35218Y-24414D01*
X35181Y-24451D01*
X35161Y-24499D01*
X35161Y-24551D01*
X35161Y-25338D01*
X35181Y-25386D01*
X35218Y-25422D01*
X35265Y-25442D01*
X35317Y-25442D01*
X35888Y-25442D01*
X35936Y-25422D01*
X35972Y-25386D01*
X35992Y-25338D01*
X35992Y-27767D01*
X35972Y-27719D01*
X35936Y-27682D01*
X35888Y-27662D01*
X35836Y-27662D01*
X35265Y-27662D01*
X35218Y-27682D01*
X35181Y-27719D01*
X35161Y-27767D01*
X35161Y-27818D01*
X35161Y-28606D01*
X35181Y-28653D01*
X35218Y-28690D01*
X35265Y-28710D01*
X35317Y-28710D01*
X35888Y-28710D01*
X35936Y-28690D01*
X35972Y-28653D01*
X35992Y-28606D01*
X35992Y-30353D01*
X35831Y-30192D01*
X35781Y-30159D01*
X35723Y-30147D01*
X34811Y-30147D01*
X34786Y-30122D01*
X34709Y-30090D01*
X34625Y-30089D01*
X34548Y-30121D01*
X34489Y-30180D01*
X34457Y-30258D01*
X34457Y-30341D01*
X34489Y-30418D01*
X34548Y-30477D01*
X34625Y-30509D01*
X34709Y-30510D01*
X34786Y-30478D01*
X34811Y-30452D01*
X35660Y-30452D01*
X36552Y-31344D01*
X36552Y-31380D01*
X36572Y-31428D01*
X32561Y-31428D01*
X34346Y-29643D01*
X34379Y-29593D01*
X34379Y-29593D01*
X34391Y-29535D01*
X34391Y-27588D01*
X34421Y-27588D01*
X34455Y-27574D01*
X34488Y-27588D01*
X34540Y-27588D01*
X34739Y-27588D01*
X34780Y-27628D01*
X34829Y-27661D01*
X34829Y-27661D01*
X34847Y-27665D01*
X34881Y-27698D01*
X34958Y-27730D01*
X35041Y-27730D01*
X35118Y-27699D01*
X35178Y-27640D01*
X35210Y-27562D01*
X35210Y-27479D01*
X35178Y-27402D01*
X35119Y-27342D01*
X35042Y-27310D01*
X34959Y-27310D01*
X34959Y-26841D01*
X34939Y-26794D01*
X34902Y-26757D01*
X34854Y-26737D01*
X34803Y-26737D01*
X34488Y-26737D01*
X34455Y-26751D01*
X34429Y-26741D01*
X34430Y-26668D01*
X34398Y-26591D01*
X34339Y-26532D01*
X34261Y-26500D01*
X34178Y-26499D01*
X34101Y-26531D01*
X34042Y-26590D01*
X34028Y-26624D01*
X34012Y-26617D01*
X33908Y-26617D01*
X33845Y-26680D01*
X33845Y-27122D01*
X33853Y-27122D01*
X33853Y-27202D01*
X33845Y-27202D01*
X33845Y-27645D01*
X33908Y-27708D01*
X34012Y-27708D01*
X34086Y-27677D01*
X34086Y-29274D01*
X34036Y-29273D01*
X34033Y-29275D01*
X34021Y-29246D01*
X33962Y-29187D01*
X33884Y-29155D01*
X33801Y-29154D01*
X33765Y-29169D01*
X33765Y-27645D01*
X33765Y-27202D01*
X33757Y-27202D01*
X33757Y-27122D01*
X33765Y-27122D01*
X33765Y-26680D01*
X33703Y-26617D01*
X33633Y-26617D01*
X33625Y-26598D01*
X33566Y-26539D01*
X33489Y-26507D01*
X33405Y-26507D01*
X33328Y-26539D01*
X33269Y-26598D01*
X33237Y-26675D01*
X33237Y-26725D01*
X33237Y-26725D01*
X33231Y-26734D01*
X33230Y-26737D01*
X33189Y-26737D01*
X33155Y-26751D01*
X33122Y-26737D01*
X33091Y-26737D01*
X33091Y-25281D01*
X33080Y-25222D01*
X33080Y-25222D01*
X33047Y-25173D01*
X32868Y-24994D01*
X32868Y-24958D01*
X32836Y-24881D01*
X32777Y-24822D01*
X32700Y-24790D01*
X32616Y-24789D01*
X32539Y-24821D01*
X32480Y-24880D01*
X32448Y-24958D01*
X32448Y-25041D01*
X32479Y-25118D01*
X32538Y-25177D01*
X32616Y-25209D01*
X32652Y-25209D01*
X32786Y-25344D01*
X32786Y-26621D01*
X32770Y-26581D01*
X32711Y-26522D01*
X32634Y-26490D01*
X32550Y-26490D01*
X32473Y-26521D01*
X32414Y-26580D01*
X32382Y-26658D01*
X32382Y-26702D01*
X32365Y-26727D01*
X32363Y-26737D01*
X32322Y-26737D01*
X32289Y-26751D01*
X32256Y-26737D01*
X32209Y-26737D01*
X32181Y-26695D01*
X32111Y-26625D01*
X32061Y-26592D01*
X32026Y-26585D01*
X31996Y-26555D01*
X31919Y-26523D01*
X31835Y-26523D01*
X31758Y-26555D01*
X31699Y-26614D01*
X31667Y-26691D01*
X31667Y-26737D01*
X31456Y-26737D01*
X31409Y-26757D01*
X31372Y-26794D01*
X31352Y-26841D01*
X31352Y-26893D01*
X31352Y-27368D01*
X31144Y-27368D01*
X31119Y-27342D01*
X31041Y-27310D01*
X30958Y-27310D01*
X30881Y-27342D01*
X30822Y-27401D01*
X30790Y-27478D01*
X30789Y-27562D01*
X30821Y-27639D01*
X30880Y-27698D01*
X30958Y-27730D01*
X31041Y-27730D01*
X31118Y-27699D01*
X31144Y-27673D01*
X31429Y-27673D01*
X31487Y-27661D01*
X31487Y-27661D01*
X31536Y-27628D01*
X31577Y-27588D01*
X31823Y-27588D01*
X31856Y-27574D01*
X31889Y-27588D01*
X31941Y-27588D01*
X32256Y-27588D01*
X32289Y-27574D01*
X32322Y-27588D01*
X32374Y-27588D01*
X32689Y-27588D01*
X32722Y-27574D01*
X32756Y-27588D01*
X32807Y-27588D01*
X33122Y-27588D01*
X33155Y-27574D01*
X33189Y-27588D01*
X33240Y-27588D01*
X33431Y-27588D01*
X33436Y-27599D01*
X33506Y-27670D01*
X33598Y-27708D01*
X33703Y-27708D01*
X33765Y-27645D01*
X33765Y-29169D01*
X33724Y-29186D01*
X33701Y-29209D01*
X33243Y-29209D01*
X33184Y-29221D01*
X33135Y-29254D01*
X32943Y-29445D01*
X32943Y-29445D01*
X30720Y-31669D01*
X30720Y-29628D01*
X30688Y-29551D01*
X30638Y-29501D01*
X30638Y-28606D01*
X30638Y-28554D01*
X30638Y-27767D01*
X30638Y-25338D01*
X30638Y-25286D01*
X30638Y-24499D01*
X30618Y-24451D01*
X30581Y-24414D01*
X30534Y-24395D01*
X30482Y-24395D01*
X29911Y-24395D01*
X29863Y-24414D01*
X29827Y-24451D01*
X29807Y-24499D01*
X29807Y-24551D01*
X29807Y-25338D01*
X29827Y-25386D01*
X29863Y-25422D01*
X29911Y-25442D01*
X29963Y-25442D01*
X30534Y-25442D01*
X30581Y-25422D01*
X30618Y-25386D01*
X30638Y-25338D01*
X30638Y-27767D01*
X30618Y-27719D01*
X30581Y-27682D01*
X30534Y-27662D01*
X30482Y-27662D01*
X29911Y-27662D01*
X29863Y-27682D01*
X29827Y-27719D01*
X29807Y-27767D01*
X29807Y-27818D01*
X29807Y-28606D01*
X29827Y-28653D01*
X29863Y-28690D01*
X29911Y-28710D01*
X29963Y-28710D01*
X30534Y-28710D01*
X30581Y-28690D01*
X30618Y-28653D01*
X30638Y-28606D01*
X30638Y-29501D01*
X30629Y-29492D01*
X30551Y-29460D01*
X30468Y-29459D01*
X30391Y-29491D01*
X30365Y-29517D01*
X28380Y-29517D01*
X28361Y-29521D01*
X28361Y-25015D01*
X28296Y-24859D01*
X28177Y-24739D01*
X28021Y-24674D01*
X27851Y-24674D01*
X27695Y-24739D01*
X27575Y-24858D01*
X27511Y-25015D01*
X27510Y-25184D01*
X27575Y-25340D01*
X27598Y-25363D01*
X27556Y-25363D01*
X27083Y-25363D01*
X27035Y-25383D01*
X26999Y-25420D01*
X26979Y-25467D01*
X26979Y-25519D01*
X26979Y-26385D01*
X26999Y-26433D01*
X27035Y-26470D01*
X27083Y-26489D01*
X27135Y-26489D01*
X27607Y-26489D01*
X27655Y-26470D01*
X27692Y-26433D01*
X27711Y-26385D01*
X27711Y-26333D01*
X27711Y-25467D01*
X27711Y-25467D01*
X27851Y-25525D01*
X28020Y-25525D01*
X28176Y-25460D01*
X28296Y-25341D01*
X28361Y-25184D01*
X28361Y-25015D01*
X28361Y-29521D01*
X28321Y-29529D01*
X28272Y-29562D01*
X26986Y-30847D01*
X26925Y-30847D01*
X26925Y-29915D01*
X26925Y-28915D01*
X26925Y-27915D01*
X26925Y-26915D01*
X26860Y-26759D01*
X26741Y-26639D01*
X26585Y-26574D01*
X26415Y-26574D01*
X26259Y-26639D01*
X26139Y-26758D01*
X26102Y-26847D01*
X25897Y-26847D01*
X25860Y-26759D01*
X25741Y-26639D01*
X25585Y-26574D01*
X25415Y-26574D01*
X25259Y-26639D01*
X25139Y-26758D01*
X25074Y-26914D01*
X25074Y-27084D01*
X25139Y-27240D01*
X25258Y-27360D01*
X25414Y-27425D01*
X25584Y-27425D01*
X25740Y-27360D01*
X25860Y-27241D01*
X25897Y-27152D01*
X26102Y-27152D01*
X26139Y-27240D01*
X26258Y-27360D01*
X26414Y-27425D01*
X26584Y-27425D01*
X26740Y-27360D01*
X26860Y-27241D01*
X26925Y-27085D01*
X26925Y-26915D01*
X26925Y-27915D01*
X26860Y-27759D01*
X26741Y-27639D01*
X26585Y-27574D01*
X26415Y-27574D01*
X26259Y-27639D01*
X26139Y-27758D01*
X26102Y-27847D01*
X25897Y-27847D01*
X25860Y-27759D01*
X25741Y-27639D01*
X25585Y-27574D01*
X25415Y-27574D01*
X25259Y-27639D01*
X25139Y-27758D01*
X25074Y-27914D01*
X25074Y-28084D01*
X25139Y-28240D01*
X25258Y-28360D01*
X25414Y-28425D01*
X25584Y-28425D01*
X25740Y-28360D01*
X25860Y-28241D01*
X25897Y-28152D01*
X26102Y-28152D01*
X26139Y-28240D01*
X26258Y-28360D01*
X26414Y-28425D01*
X26584Y-28425D01*
X26740Y-28360D01*
X26860Y-28241D01*
X26925Y-28085D01*
X26925Y-27915D01*
X26925Y-28915D01*
X26860Y-28759D01*
X26741Y-28639D01*
X26585Y-28574D01*
X26415Y-28574D01*
X26259Y-28639D01*
X26139Y-28758D01*
X26102Y-28847D01*
X25897Y-28847D01*
X25860Y-28759D01*
X25741Y-28639D01*
X25585Y-28574D01*
X25415Y-28574D01*
X25259Y-28639D01*
X25139Y-28758D01*
X25074Y-28914D01*
X25074Y-29084D01*
X25139Y-29240D01*
X25258Y-29360D01*
X25414Y-29425D01*
X25584Y-29425D01*
X25740Y-29360D01*
X25860Y-29241D01*
X25897Y-29152D01*
X26102Y-29152D01*
X26139Y-29240D01*
X26258Y-29360D01*
X26414Y-29425D01*
X26584Y-29425D01*
X26740Y-29360D01*
X26860Y-29241D01*
X26925Y-29085D01*
X26925Y-28915D01*
X26925Y-29915D01*
X26860Y-29759D01*
X26741Y-29639D01*
X26585Y-29574D01*
X26415Y-29574D01*
X26259Y-29639D01*
X26139Y-29758D01*
X26102Y-29847D01*
X25897Y-29847D01*
X25860Y-29759D01*
X25741Y-29639D01*
X25585Y-29574D01*
X25415Y-29574D01*
X25259Y-29639D01*
X25139Y-29758D01*
X25074Y-29914D01*
X25074Y-30084D01*
X25139Y-30240D01*
X25258Y-30360D01*
X25414Y-30425D01*
X25584Y-30425D01*
X25740Y-30360D01*
X25860Y-30241D01*
X25897Y-30152D01*
X26102Y-30152D01*
X26139Y-30240D01*
X26258Y-30360D01*
X26414Y-30425D01*
X26584Y-30425D01*
X26740Y-30360D01*
X26860Y-30241D01*
X26925Y-30085D01*
X26925Y-29915D01*
X26925Y-30847D01*
X26897Y-30847D01*
X26860Y-30759D01*
X26741Y-30639D01*
X26585Y-30574D01*
X26415Y-30574D01*
X26259Y-30639D01*
X26139Y-30758D01*
X26102Y-30847D01*
X25897Y-30847D01*
X25860Y-30759D01*
X25741Y-30639D01*
X25585Y-30574D01*
X25415Y-30574D01*
X25259Y-30639D01*
X25139Y-30758D01*
X25074Y-30914D01*
X25074Y-31084D01*
X25139Y-31240D01*
X25258Y-31360D01*
X25414Y-31425D01*
X25584Y-31425D01*
X25740Y-31360D01*
X25860Y-31241D01*
X25897Y-31152D01*
X26102Y-31152D01*
X26139Y-31240D01*
X26258Y-31360D01*
X26414Y-31425D01*
X26584Y-31425D01*
X26740Y-31360D01*
X26860Y-31241D01*
X26897Y-31152D01*
X27050Y-31152D01*
X27108Y-31140D01*
X27108Y-31140D01*
X27157Y-31107D01*
X28443Y-29822D01*
X30365Y-29822D01*
X30390Y-29847D01*
X30468Y-29879D01*
X30551Y-29880D01*
X30628Y-29848D01*
X30687Y-29789D01*
X30719Y-29711D01*
X30720Y-29628D01*
X30720Y-31669D01*
X28217Y-34172D01*
X28184Y-34221D01*
X28172Y-34280D01*
X28172Y-34280D01*
X28172Y-34546D01*
X27869Y-34849D01*
X27869Y-34345D01*
X27849Y-34298D01*
X27813Y-34261D01*
X27765Y-34241D01*
X27713Y-34241D01*
X27319Y-34241D01*
X27272Y-34261D01*
X27235Y-34298D01*
X27215Y-34345D01*
X27215Y-34397D01*
X27215Y-34988D01*
X27235Y-35035D01*
X27272Y-35072D01*
X27319Y-35092D01*
X27371Y-35092D01*
X27627Y-35092D01*
X27464Y-35254D01*
X27464Y-35254D01*
X27452Y-35267D01*
X27419Y-35316D01*
X27407Y-35375D01*
X27407Y-38848D01*
X27419Y-38906D01*
X27452Y-38955D01*
X27571Y-39075D01*
X27500Y-39075D01*
X27408Y-39113D01*
X27338Y-39183D01*
X27300Y-39275D01*
X27300Y-39374D01*
X27300Y-39497D01*
X27362Y-39560D01*
X27685Y-39560D01*
X27685Y-39552D01*
X27765Y-39552D01*
X27765Y-39560D01*
X27772Y-39560D01*
X27772Y-39640D01*
X27765Y-39640D01*
X27765Y-40062D01*
X27827Y-40125D01*
X27949Y-40125D01*
X28041Y-40086D01*
X28068Y-40059D01*
X28937Y-40927D01*
X28986Y-40960D01*
X28986Y-40960D01*
X29045Y-40972D01*
X29045Y-40972D01*
X29045Y-40972D01*
X29154Y-40972D01*
X30623Y-40972D01*
X30648Y-40997D01*
X30726Y-41029D01*
X30809Y-41030D01*
X30886Y-40998D01*
X30945Y-40939D01*
X30977Y-40861D01*
X30978Y-40778D01*
X30946Y-40701D01*
X30887Y-40642D01*
X30809Y-40610D01*
X30726Y-40609D01*
X30649Y-40641D01*
X30623Y-40667D01*
X29154Y-40667D01*
X29108Y-40667D01*
X28445Y-40005D01*
X28664Y-40005D01*
X29138Y-40478D01*
X29187Y-40511D01*
X29187Y-40511D01*
X29246Y-40523D01*
X30006Y-40523D01*
X30031Y-40548D01*
X30109Y-40580D01*
X30192Y-40581D01*
X30269Y-40549D01*
X30328Y-40490D01*
X30360Y-40412D01*
X30361Y-40329D01*
X30329Y-40252D01*
X30270Y-40193D01*
X30192Y-40161D01*
X30109Y-40160D01*
X30032Y-40192D01*
X30006Y-40218D01*
X29309Y-40218D01*
X28780Y-39689D01*
X28780Y-39299D01*
X28760Y-39251D01*
X28723Y-39214D01*
X28675Y-39195D01*
X28624Y-39195D01*
X28534Y-39195D01*
X28394Y-39055D01*
X28400Y-39055D01*
X28587Y-39055D01*
X28616Y-39126D01*
X28675Y-39185D01*
X28752Y-39217D01*
X28836Y-39217D01*
X28913Y-39185D01*
X28939Y-39160D01*
X29348Y-39160D01*
X29453Y-39265D01*
X29503Y-39298D01*
X29561Y-39309D01*
X29561Y-39309D01*
X30411Y-39309D01*
X30417Y-39308D01*
X30446Y-39378D01*
X30505Y-39437D01*
X30583Y-39469D01*
X30666Y-39470D01*
X30743Y-39438D01*
X30770Y-39411D01*
X30795Y-39412D01*
X30800Y-39417D01*
X30762Y-39455D01*
X30730Y-39532D01*
X30730Y-39616D01*
X30762Y-39693D01*
X30821Y-39752D01*
X30898Y-39784D01*
X30929Y-39784D01*
X30929Y-39980D01*
X30835Y-39884D01*
X30835Y-39848D01*
X30803Y-39771D01*
X30744Y-39712D01*
X30666Y-39680D01*
X30583Y-39679D01*
X30506Y-39711D01*
X30447Y-39770D01*
X30415Y-39848D01*
X30414Y-39931D01*
X30446Y-40008D01*
X30505Y-40067D01*
X30583Y-40099D01*
X30618Y-40099D01*
X31028Y-40512D01*
X31029Y-40512D01*
X31029Y-40512D01*
X31053Y-40529D01*
X31078Y-40545D01*
X31078Y-40545D01*
X31078Y-40545D01*
X31107Y-40551D01*
X31136Y-40557D01*
X31136Y-40557D01*
X31137Y-40557D01*
X31646Y-40557D01*
X31671Y-40582D01*
X31749Y-40614D01*
X31832Y-40615D01*
X31909Y-40583D01*
X31968Y-40524D01*
X32000Y-40446D01*
X32001Y-40363D01*
X31969Y-40286D01*
X31910Y-40227D01*
X31905Y-40224D01*
X32359Y-40224D01*
X33715Y-41581D01*
X33692Y-41604D01*
X33665Y-41645D01*
X33549Y-41645D01*
X33501Y-41664D01*
X33464Y-41701D01*
X33445Y-41749D01*
X33445Y-41800D01*
X33445Y-41833D01*
X33122Y-41511D01*
X33073Y-41478D01*
X33014Y-41466D01*
X32878Y-41466D01*
X32878Y-41160D01*
X32846Y-41083D01*
X32787Y-41024D01*
X32709Y-40992D01*
X32626Y-40991D01*
X32549Y-41023D01*
X32528Y-41044D01*
X29715Y-41044D01*
X29690Y-41019D01*
X29612Y-40987D01*
X29529Y-40986D01*
X29452Y-41018D01*
X29393Y-41077D01*
X29361Y-41155D01*
X29360Y-41238D01*
X29392Y-41315D01*
X29451Y-41374D01*
X29529Y-41406D01*
X29612Y-41407D01*
X29689Y-41375D01*
X29715Y-41349D01*
X32518Y-41349D01*
X32548Y-41379D01*
X32626Y-41411D01*
X32709Y-41412D01*
X32786Y-41380D01*
X32845Y-41321D01*
X32877Y-41243D01*
X32878Y-41160D01*
X32878Y-41466D01*
X31100Y-41466D01*
X31041Y-41478D01*
X30992Y-41511D01*
X30959Y-41560D01*
X30947Y-41619D01*
X30947Y-41645D01*
X30849Y-41645D01*
X30801Y-41664D01*
X30764Y-41701D01*
X30745Y-41749D01*
X30745Y-41768D01*
X30699Y-41722D01*
X30621Y-41690D01*
X30538Y-41689D01*
X30528Y-41694D01*
X30498Y-41664D01*
X30450Y-41645D01*
X30399Y-41645D01*
X29949Y-41645D01*
X29901Y-41664D01*
X29864Y-41701D01*
X29845Y-41749D01*
X29845Y-41800D01*
X29845Y-42050D01*
X29864Y-42096D01*
X29817Y-42096D01*
X29562Y-42096D01*
X29585Y-42073D01*
X29605Y-42025D01*
X29605Y-41974D01*
X29605Y-41624D01*
X29585Y-41576D01*
X29548Y-41539D01*
X29500Y-41520D01*
X29449Y-41520D01*
X28899Y-41520D01*
X28851Y-41539D01*
X28814Y-41576D01*
X28795Y-41624D01*
X28795Y-41675D01*
X28795Y-41682D01*
X28786Y-41684D01*
X28737Y-41717D01*
X28492Y-41962D01*
X28459Y-42011D01*
X28447Y-42070D01*
X28447Y-42120D01*
X28422Y-42145D01*
X28390Y-42223D01*
X28389Y-42306D01*
X28421Y-42383D01*
X28480Y-42442D01*
X28558Y-42474D01*
X28641Y-42475D01*
X28675Y-42461D01*
X28675Y-42472D01*
X28737Y-42535D01*
X29160Y-42535D01*
X29160Y-42527D01*
X29240Y-42527D01*
X29240Y-42535D01*
X29662Y-42535D01*
X29725Y-42472D01*
X29725Y-42401D01*
X29817Y-42401D01*
X29845Y-42401D01*
X29845Y-42650D01*
X29864Y-42698D01*
X29901Y-42735D01*
X29949Y-42755D01*
X30000Y-42755D01*
X30450Y-42755D01*
X30498Y-42735D01*
X30535Y-42698D01*
X30555Y-42650D01*
X30555Y-42599D01*
X30555Y-42401D01*
X30629Y-42401D01*
X30687Y-42460D01*
X31060Y-42460D01*
X31060Y-42452D01*
X31140Y-42452D01*
X31140Y-42460D01*
X31512Y-42460D01*
X31575Y-42397D01*
X31575Y-42325D01*
X31536Y-42233D01*
X31466Y-42163D01*
X31398Y-42134D01*
X31435Y-42098D01*
X31455Y-42050D01*
X31455Y-41999D01*
X31455Y-41771D01*
X32325Y-41771D01*
X32325Y-41797D01*
X32387Y-41860D01*
X32760Y-41860D01*
X32760Y-41852D01*
X32840Y-41852D01*
X32840Y-41860D01*
X32847Y-41860D01*
X32847Y-41940D01*
X32840Y-41940D01*
X32840Y-41947D01*
X32760Y-41947D01*
X32760Y-41940D01*
X32387Y-41940D01*
X32325Y-42002D01*
X32325Y-42074D01*
X32363Y-42166D01*
X32433Y-42236D01*
X32501Y-42265D01*
X32464Y-42301D01*
X32445Y-42349D01*
X32445Y-42400D01*
X32445Y-42650D01*
X32464Y-42698D01*
X32501Y-42735D01*
X32549Y-42755D01*
X32590Y-42755D01*
X32589Y-42821D01*
X32621Y-42898D01*
X32680Y-42957D01*
X32758Y-42989D01*
X32841Y-42990D01*
X32918Y-42958D01*
X32977Y-42899D01*
X33009Y-42821D01*
X33010Y-42755D01*
X33050Y-42755D01*
X33098Y-42735D01*
X33135Y-42698D01*
X33155Y-42650D01*
X33155Y-42599D01*
X33155Y-42349D01*
X33135Y-42301D01*
X33098Y-42265D01*
X33166Y-42236D01*
X33236Y-42166D01*
X33268Y-42089D01*
X33388Y-42208D01*
X33363Y-42233D01*
X33325Y-42325D01*
X33325Y-42397D01*
X33387Y-42460D01*
X33760Y-42460D01*
X33760Y-42452D01*
X33840Y-42452D01*
X33840Y-42460D01*
X34212Y-42460D01*
X34275Y-42397D01*
X34275Y-42325D01*
X34254Y-42276D01*
X34274Y-42272D01*
X34274Y-42272D01*
X34323Y-42239D01*
X35211Y-41351D01*
X35375Y-41351D01*
X35375Y-41372D01*
X35437Y-41435D01*
X35860Y-41435D01*
X35860Y-41427D01*
X35940Y-41427D01*
X35940Y-41435D01*
X35947Y-41435D01*
X35947Y-41515D01*
X35940Y-41515D01*
X35940Y-41837D01*
X36002Y-41900D01*
X36125Y-41900D01*
X36224Y-41900D01*
X36316Y-41861D01*
X36386Y-41791D01*
X36425Y-41699D01*
X36425Y-41609D01*
X36573Y-41758D01*
X36558Y-41764D01*
X36521Y-41800D01*
X36502Y-41848D01*
X36502Y-41900D01*
X36502Y-42451D01*
X36521Y-42499D01*
X36558Y-42535D01*
X36606Y-42555D01*
X36657Y-42555D01*
X36893Y-42555D01*
X36941Y-42535D01*
X36978Y-42499D01*
X36998Y-42451D01*
X36998Y-42399D01*
X36998Y-41871D01*
X37002Y-41871D01*
X37002Y-41900D01*
X37002Y-42451D01*
X37021Y-42499D01*
X37047Y-42524D01*
X37017Y-42554D01*
X36990Y-42595D01*
X36924Y-42595D01*
X36876Y-42614D01*
X36839Y-42651D01*
X36820Y-42699D01*
X36820Y-42750D01*
X36820Y-43300D01*
X36839Y-43348D01*
X36876Y-43385D01*
X36924Y-43405D01*
X36975Y-43405D01*
X37325Y-43405D01*
X37373Y-43385D01*
X37410Y-43348D01*
X37430Y-43300D01*
X37430Y-43249D01*
X37430Y-42699D01*
X37410Y-42651D01*
X37376Y-42617D01*
X37390Y-42595D01*
X37390Y-42595D01*
X37399Y-42553D01*
X37412Y-42547D01*
X37420Y-42567D01*
X37472Y-42619D01*
X37450Y-42675D01*
X37450Y-42774D01*
X37450Y-42897D01*
X37512Y-42960D01*
X37835Y-42960D01*
X37835Y-42952D01*
X37915Y-42952D01*
X37915Y-42960D01*
X38237Y-42960D01*
X38300Y-42897D01*
X38300Y-42774D01*
X38300Y-42675D01*
X38290Y-42651D01*
X38290Y-42613D01*
X38352Y-42675D01*
X38417Y-42675D01*
X38509Y-42637D01*
X38579Y-42567D01*
X38618Y-42475D01*
X38618Y-42375D01*
X38618Y-42252D01*
X38618Y-42047D01*
X38618Y-41924D01*
X38618Y-41824D01*
X38579Y-41732D01*
X38509Y-41662D01*
X38417Y-41624D01*
X38352Y-41624D01*
X38290Y-41687D01*
X38290Y-42110D01*
X38555Y-42110D01*
X38618Y-42047D01*
X38618Y-42252D01*
X38555Y-42190D01*
X38290Y-42190D01*
X38290Y-42197D01*
X38210Y-42197D01*
X38210Y-42190D01*
X38210Y-42110D01*
X38210Y-41687D01*
X38147Y-41624D01*
X38082Y-41624D01*
X38000Y-41658D01*
X37917Y-41624D01*
X37852Y-41624D01*
X37790Y-41687D01*
X37790Y-42110D01*
X37944Y-42110D01*
X38055Y-42110D01*
X38210Y-42110D01*
X38210Y-42190D01*
X38055Y-42190D01*
X37944Y-42190D01*
X37790Y-42190D01*
X37790Y-42197D01*
X37710Y-42197D01*
X37710Y-42190D01*
X37702Y-42190D01*
X37702Y-42110D01*
X37710Y-42110D01*
X37710Y-41687D01*
X37650Y-41627D01*
X37725Y-41552D01*
X37860Y-41552D01*
X37885Y-41577D01*
X37962Y-41609D01*
X38046Y-41610D01*
X38123Y-41578D01*
X38149Y-41552D01*
X38745Y-41552D01*
X38764Y-41598D01*
X38801Y-41635D01*
X38849Y-41655D01*
X38900Y-41655D01*
X39350Y-41655D01*
X39398Y-41635D01*
X39435Y-41598D01*
X39455Y-41550D01*
X39455Y-41499D01*
X39455Y-41249D01*
X39435Y-41201D01*
X39398Y-41164D01*
X39350Y-41145D01*
X39299Y-41145D01*
X38849Y-41145D01*
X38801Y-41164D01*
X38764Y-41201D01*
X38745Y-41247D01*
X38149Y-41247D01*
X38123Y-41222D01*
X38046Y-41190D01*
X37963Y-41189D01*
X37885Y-41221D01*
X37860Y-41247D01*
X37661Y-41247D01*
X37603Y-41259D01*
X37554Y-41292D01*
X37247Y-41599D01*
X37215Y-41578D01*
X37157Y-41566D01*
X36813Y-41566D01*
X36338Y-41091D01*
X36288Y-41058D01*
X36230Y-41046D01*
X36041Y-41046D01*
X36045Y-41030D01*
X36200Y-41030D01*
X36248Y-41010D01*
X36285Y-40973D01*
X36305Y-40925D01*
X36305Y-40874D01*
X36305Y-40858D01*
X36342Y-40832D01*
X36720Y-40455D01*
X36893Y-40455D01*
X36941Y-40435D01*
X36978Y-40399D01*
X36998Y-40351D01*
X36998Y-40299D01*
X36998Y-39825D01*
X37002Y-39825D01*
X37002Y-40351D01*
X37021Y-40399D01*
X37058Y-40435D01*
X37106Y-40455D01*
X37157Y-40455D01*
X37393Y-40455D01*
X37441Y-40435D01*
X37478Y-40399D01*
X37498Y-40351D01*
X37498Y-40299D01*
X37498Y-39748D01*
X37478Y-39700D01*
X37441Y-39664D01*
X37393Y-39644D01*
X37359Y-39644D01*
X37357Y-39642D01*
X37280Y-39565D01*
X37231Y-39532D01*
X37173Y-39520D01*
X36896Y-39520D01*
X36890Y-39491D01*
X36880Y-39475D01*
X36887Y-39457D01*
X36887Y-39343D01*
X36883Y-39332D01*
X36945Y-39270D01*
X36945Y-39350D01*
X36964Y-39398D01*
X37001Y-39435D01*
X37049Y-39455D01*
X37100Y-39455D01*
X37350Y-39455D01*
X37398Y-39435D01*
X37435Y-39398D01*
X37455Y-39350D01*
X37455Y-39299D01*
X37455Y-38849D01*
X37435Y-38801D01*
X37409Y-38775D01*
X37636Y-38549D01*
X37647Y-38554D01*
X37647Y-38745D01*
X37601Y-38764D01*
X37564Y-38801D01*
X37545Y-38849D01*
X37545Y-38900D01*
X37545Y-39350D01*
X37564Y-39398D01*
X37598Y-39432D01*
X37597Y-39437D01*
X37597Y-39648D01*
X37558Y-39664D01*
X37521Y-39700D01*
X37502Y-39748D01*
X37502Y-39800D01*
X37502Y-40351D01*
X37521Y-40399D01*
X37558Y-40435D01*
X37606Y-40455D01*
X37657Y-40455D01*
X37893Y-40455D01*
X37941Y-40435D01*
X37978Y-40399D01*
X37998Y-40351D01*
X37998Y-40299D01*
X37998Y-39748D01*
X37978Y-39700D01*
X37941Y-39664D01*
X37902Y-39648D01*
X37902Y-39500D01*
X37907Y-39495D01*
X37934Y-39455D01*
X37934Y-39455D01*
X37950Y-39455D01*
X37998Y-39435D01*
X38035Y-39398D01*
X38055Y-39350D01*
X38055Y-39299D01*
X38055Y-38849D01*
X38035Y-38801D01*
X37998Y-38764D01*
X37952Y-38745D01*
X37952Y-38554D01*
X37998Y-38535D01*
X38035Y-38498D01*
X38055Y-38450D01*
X38055Y-38399D01*
X38055Y-37980D01*
X38440Y-37980D01*
X38477Y-38018D01*
X38477Y-39268D01*
X38142Y-39604D01*
X38115Y-39644D01*
X38106Y-39644D01*
X38058Y-39664D01*
X38021Y-39700D01*
X38002Y-39748D01*
X38002Y-39800D01*
X38002Y-40351D01*
X38021Y-40399D01*
X38058Y-40435D01*
X38097Y-40451D01*
X38097Y-40543D01*
X38109Y-40601D01*
X38142Y-40650D01*
X38399Y-40907D01*
X38448Y-40940D01*
X38448Y-40940D01*
X38507Y-40952D01*
X38745Y-40952D01*
X38764Y-40998D01*
X38801Y-41035D01*
X38849Y-41055D01*
X38900Y-41055D01*
X39350Y-41055D01*
X39398Y-41035D01*
X39435Y-40998D01*
X39455Y-40950D01*
X39455Y-40899D01*
X39455Y-40649D01*
X39435Y-40601D01*
X39398Y-40564D01*
X39350Y-40545D01*
X39299Y-40545D01*
X38849Y-40545D01*
X38801Y-40564D01*
X38764Y-40601D01*
X38745Y-40647D01*
X38570Y-40647D01*
X38402Y-40479D01*
X38402Y-40451D01*
X38441Y-40435D01*
X38478Y-40399D01*
X38498Y-40351D01*
X38498Y-40299D01*
X38498Y-39748D01*
X38478Y-39700D01*
X38477Y-39700D01*
X38738Y-39439D01*
X38771Y-39389D01*
X38771Y-39389D01*
X38782Y-39331D01*
X38782Y-38107D01*
X38969Y-38107D01*
X39027Y-38095D01*
X39027Y-38095D01*
X39076Y-38062D01*
X39338Y-37801D01*
X39338Y-37801D01*
X39434Y-37704D01*
X39467Y-37655D01*
X39467Y-37655D01*
X39479Y-37597D01*
X39479Y-33787D01*
X39467Y-33728D01*
X39467Y-33728D01*
X39434Y-33679D01*
X38892Y-33136D01*
X38892Y-33121D01*
X38860Y-33044D01*
X38801Y-32985D01*
X38723Y-32953D01*
X38640Y-32952D01*
X38563Y-32984D01*
X38504Y-33043D01*
X38472Y-33121D01*
X38471Y-33204D01*
X38503Y-33281D01*
X38562Y-33340D01*
X38640Y-33372D01*
X38697Y-33373D01*
X39174Y-33850D01*
X39174Y-37267D01*
X39163Y-37256D01*
X39057Y-37212D01*
X38943Y-37212D01*
X38935Y-37215D01*
X38728Y-37009D01*
X38679Y-36976D01*
X38621Y-36964D01*
X37674Y-36964D01*
X37691Y-36923D01*
X37691Y-36839D01*
X37677Y-36805D01*
X37775Y-36805D01*
X37823Y-36785D01*
X37860Y-36748D01*
X37880Y-36700D01*
X37880Y-36649D01*
X37880Y-36609D01*
X37941Y-36610D01*
X38018Y-36578D01*
X38077Y-36519D01*
X38109Y-36441D01*
X38110Y-36358D01*
X38078Y-36281D01*
X38019Y-36222D01*
X37941Y-36190D01*
X37880Y-36189D01*
X37880Y-36099D01*
X37860Y-36051D01*
X37823Y-36014D01*
X37775Y-35995D01*
X37724Y-35995D01*
X37430Y-35995D01*
X37430Y-35696D01*
X38436Y-34690D01*
X38472Y-34690D01*
X38549Y-34658D01*
X38608Y-34599D01*
X38640Y-34522D01*
X38640Y-34438D01*
X38608Y-34361D01*
X38549Y-34302D01*
X38472Y-34270D01*
X38388Y-34270D01*
X38311Y-34302D01*
X38252Y-34361D01*
X38220Y-34438D01*
X38220Y-34474D01*
X37169Y-35525D01*
X37136Y-35574D01*
X37125Y-35633D01*
X37125Y-35906D01*
X37049Y-35875D01*
X36927Y-35875D01*
X36865Y-35937D01*
X36865Y-36360D01*
X36872Y-36360D01*
X36872Y-36440D01*
X36865Y-36440D01*
X36865Y-36447D01*
X36785Y-36447D01*
X36785Y-36440D01*
X36785Y-36360D01*
X36785Y-35937D01*
X36722Y-35875D01*
X36600Y-35875D01*
X36508Y-35913D01*
X36438Y-35983D01*
X36400Y-36075D01*
X36400Y-36174D01*
X36400Y-36297D01*
X36462Y-36360D01*
X36785Y-36360D01*
X36785Y-36440D01*
X36462Y-36440D01*
X36400Y-36502D01*
X36400Y-36602D01*
X34598Y-36602D01*
X34572Y-36577D01*
X34495Y-36545D01*
X34411Y-36545D01*
X34334Y-36577D01*
X34275Y-36636D01*
X34243Y-36713D01*
X34243Y-36796D01*
X34275Y-36874D01*
X34322Y-36921D01*
X34084Y-37160D01*
X34048Y-37160D01*
X33970Y-37191D01*
X33911Y-37251D01*
X33879Y-37328D01*
X33879Y-37411D01*
X33911Y-37488D01*
X33970Y-37548D01*
X34047Y-37580D01*
X34131Y-37580D01*
X34208Y-37548D01*
X34260Y-37496D01*
X34259Y-37551D01*
X34291Y-37628D01*
X34345Y-37682D01*
X34319Y-37708D01*
X34287Y-37785D01*
X34287Y-37868D01*
X34303Y-37907D01*
X34285Y-37924D01*
X34267Y-37881D01*
X34208Y-37822D01*
X34131Y-37790D01*
X34095Y-37790D01*
X33583Y-37277D01*
X33533Y-37244D01*
X33475Y-37233D01*
X33260Y-37233D01*
X33260Y-37233D01*
X33174Y-37233D01*
X33150Y-37209D01*
X33150Y-37173D01*
X33118Y-37096D01*
X33092Y-37070D01*
X33092Y-35692D01*
X33158Y-35719D01*
X33194Y-35719D01*
X33307Y-35833D01*
X33307Y-36595D01*
X33282Y-36620D01*
X33250Y-36698D01*
X33249Y-36781D01*
X33281Y-36858D01*
X33340Y-36917D01*
X33418Y-36949D01*
X33501Y-36950D01*
X33578Y-36918D01*
X33617Y-36879D01*
X33635Y-36897D01*
X33597Y-36935D01*
X33565Y-37013D01*
X33564Y-37096D01*
X33596Y-37173D01*
X33655Y-37232D01*
X33733Y-37264D01*
X33816Y-37265D01*
X33893Y-37233D01*
X33952Y-37174D01*
X33984Y-37096D01*
X33984Y-37061D01*
X34031Y-37015D01*
X34031Y-37014D01*
X34031Y-37014D01*
X34048Y-36990D01*
X34064Y-36965D01*
X34064Y-36965D01*
X34064Y-36965D01*
X34070Y-36936D01*
X34076Y-36907D01*
X34076Y-36907D01*
X34076Y-36907D01*
X34076Y-36319D01*
X34131Y-36320D01*
X34208Y-36288D01*
X34234Y-36262D01*
X35305Y-36262D01*
X35305Y-36262D01*
X35305Y-36262D01*
X35334Y-36257D01*
X35363Y-36251D01*
X35363Y-36251D01*
X35363Y-36251D01*
X35387Y-36235D01*
X35413Y-36218D01*
X35413Y-36218D01*
X35413Y-36218D01*
X36498Y-35132D01*
X36525Y-35092D01*
X36525Y-35092D01*
X36613Y-35092D01*
X36661Y-35072D01*
X36698Y-35035D01*
X36717Y-34988D01*
X36717Y-34936D01*
X36717Y-34345D01*
X36698Y-34298D01*
X36661Y-34261D01*
X36613Y-34241D01*
X36561Y-34241D01*
X36277Y-34241D01*
X36170Y-34134D01*
X36120Y-34101D01*
X36062Y-34089D01*
X35787Y-34089D01*
X33470Y-34089D01*
X33455Y-34074D01*
X33455Y-34038D01*
X33454Y-34036D01*
X33509Y-34058D01*
X33592Y-34059D01*
X33669Y-34027D01*
X33728Y-33968D01*
X33760Y-33890D01*
X33761Y-33807D01*
X33729Y-33730D01*
X33670Y-33671D01*
X33592Y-33639D01*
X33509Y-33638D01*
X33432Y-33670D01*
X33406Y-33696D01*
X31929Y-33696D01*
X31929Y-33696D01*
X31871Y-33708D01*
X31821Y-33741D01*
X31361Y-34201D01*
X31334Y-34241D01*
X31246Y-34241D01*
X31199Y-34261D01*
X31162Y-34298D01*
X31142Y-34345D01*
X31142Y-34397D01*
X31142Y-34988D01*
X31162Y-35035D01*
X31199Y-35072D01*
X31246Y-35092D01*
X31298Y-35092D01*
X31317Y-35092D01*
X31317Y-36028D01*
X31328Y-36087D01*
X31361Y-36136D01*
X33015Y-37790D01*
X33064Y-37823D01*
X33123Y-37834D01*
X33292Y-37834D01*
X33318Y-37860D01*
X33395Y-37892D01*
X33478Y-37892D01*
X33556Y-37860D01*
X33615Y-37801D01*
X33632Y-37758D01*
X33879Y-38005D01*
X33879Y-38007D01*
X31600Y-38007D01*
X30829Y-37236D01*
X30898Y-37264D01*
X30981Y-37265D01*
X31058Y-37233D01*
X31117Y-37174D01*
X31149Y-37096D01*
X31150Y-37013D01*
X31150Y-36383D01*
X31118Y-36306D01*
X31092Y-36280D01*
X31092Y-35760D01*
X31092Y-35760D01*
X31092Y-35760D01*
X31086Y-35731D01*
X31081Y-35702D01*
X31081Y-35702D01*
X31081Y-35702D01*
X31064Y-35677D01*
X31048Y-35652D01*
X31048Y-35652D01*
X31048Y-35652D01*
X31010Y-35614D01*
X31010Y-35578D01*
X30978Y-35501D01*
X30932Y-35455D01*
X30932Y-35011D01*
X30932Y-34912D01*
X30932Y-34769D01*
X30869Y-34706D01*
X30525Y-34706D01*
X30525Y-35149D01*
X30587Y-35212D01*
X30732Y-35212D01*
X30823Y-35174D01*
X30894Y-35103D01*
X30932Y-35011D01*
X30932Y-35455D01*
X30919Y-35442D01*
X30841Y-35410D01*
X30758Y-35410D01*
X30681Y-35442D01*
X30622Y-35501D01*
X30590Y-35578D01*
X30589Y-35661D01*
X30621Y-35739D01*
X30680Y-35798D01*
X30758Y-35830D01*
X30787Y-35830D01*
X30787Y-36280D01*
X30762Y-36305D01*
X30730Y-36383D01*
X30729Y-36466D01*
X30761Y-36543D01*
X30820Y-36602D01*
X30898Y-36634D01*
X30981Y-36635D01*
X31058Y-36603D01*
X31117Y-36544D01*
X31149Y-36466D01*
X31150Y-36383D01*
X31150Y-37013D01*
X31118Y-36936D01*
X31059Y-36877D01*
X30981Y-36845D01*
X30898Y-36844D01*
X30821Y-36876D01*
X30796Y-36901D01*
X30783Y-36901D01*
X30456Y-36575D01*
X30487Y-36544D01*
X30519Y-36466D01*
X30520Y-36383D01*
X30488Y-36306D01*
X30449Y-36267D01*
X30487Y-36229D01*
X30519Y-36151D01*
X30520Y-36068D01*
X30488Y-35991D01*
X30429Y-35932D01*
X30351Y-35900D01*
X30315Y-35900D01*
X30221Y-35805D01*
X30196Y-35788D01*
X30171Y-35772D01*
X30171Y-35772D01*
X30171Y-35772D01*
X30142Y-35766D01*
X30113Y-35760D01*
X29622Y-35760D01*
X29632Y-35735D01*
X29632Y-35699D01*
X30154Y-35177D01*
X30238Y-35212D01*
X30382Y-35212D01*
X30445Y-35149D01*
X30445Y-34706D01*
X30437Y-34706D01*
X30437Y-34626D01*
X30445Y-34626D01*
X30445Y-34619D01*
X30525Y-34619D01*
X30525Y-34626D01*
X30869Y-34626D01*
X30932Y-34564D01*
X30932Y-34421D01*
X30932Y-34321D01*
X30894Y-34230D01*
X30823Y-34159D01*
X30732Y-34121D01*
X30626Y-34121D01*
X32414Y-32333D01*
X40636Y-32333D01*
X40655Y-32352D01*
X40733Y-32384D01*
X40816Y-32385D01*
X40893Y-32353D01*
X40952Y-32294D01*
X40984Y-32216D01*
X40985Y-32133D01*
X40953Y-32056D01*
X40894Y-31997D01*
X40816Y-31965D01*
X40733Y-31964D01*
X40656Y-31996D01*
X40624Y-32028D01*
X39900Y-32028D01*
X39904Y-32018D01*
X39904Y-31980D01*
X40100Y-31980D01*
X40148Y-31960D01*
X40162Y-31946D01*
X40635Y-31946D01*
X40635Y-31946D01*
X40636Y-31946D01*
X40694Y-31934D01*
X40694Y-31934D01*
X40744Y-31901D01*
X41211Y-31434D01*
X41195Y-31474D01*
X41195Y-31525D01*
X41195Y-31756D01*
X41144Y-31806D01*
X41111Y-31856D01*
X41099Y-31914D01*
X41099Y-31945D01*
X41074Y-31970D01*
X41042Y-32047D01*
X41042Y-32131D01*
X41074Y-32208D01*
X41133Y-32267D01*
X41210Y-32299D01*
X41293Y-32299D01*
X41371Y-32267D01*
X41430Y-32208D01*
X41462Y-32131D01*
X41462Y-32047D01*
X41434Y-31980D01*
X41900Y-31980D01*
X41948Y-31960D01*
X41985Y-31923D01*
X42005Y-31875D01*
X42005Y-31824D01*
X42005Y-31474D01*
X41985Y-31426D01*
X41948Y-31389D01*
X41900Y-31370D01*
X41849Y-31370D01*
X41299Y-31370D01*
X41259Y-31386D01*
X41415Y-31230D01*
X41900Y-31230D01*
X41948Y-31210D01*
X41985Y-31173D01*
X42005Y-31125D01*
X42005Y-31074D01*
X42005Y-30724D01*
X41985Y-30676D01*
X41948Y-30639D01*
X41900Y-30620D01*
X41849Y-30620D01*
X41299Y-30620D01*
X41251Y-30639D01*
X41214Y-30676D01*
X41195Y-30724D01*
X41195Y-30775D01*
X41195Y-31019D01*
X40573Y-31641D01*
X40205Y-31641D01*
X40205Y-31474D01*
X40185Y-31426D01*
X40148Y-31389D01*
X40100Y-31370D01*
X40049Y-31370D01*
X39499Y-31370D01*
X39451Y-31389D01*
X39414Y-31426D01*
X39395Y-31474D01*
X39395Y-31525D01*
X39395Y-31824D01*
X32411Y-31824D01*
X32502Y-31733D01*
X38319Y-31733D01*
X38377Y-31721D01*
X38377Y-31721D01*
X38427Y-31688D01*
X39397Y-30718D01*
X39395Y-30724D01*
X39395Y-30775D01*
X39395Y-31125D01*
X39414Y-31173D01*
X39451Y-31210D01*
X39499Y-31230D01*
X39550Y-31230D01*
X40100Y-31230D01*
X40148Y-31210D01*
X40173Y-31185D01*
X40183Y-31189D01*
X40266Y-31190D01*
X40343Y-31158D01*
X40402Y-31099D01*
X40434Y-31021D01*
X40435Y-30938D01*
X40403Y-30861D01*
X40344Y-30802D01*
X40266Y-30770D01*
X40205Y-30769D01*
X40205Y-30724D01*
X40185Y-30676D01*
X40148Y-30639D01*
X40100Y-30620D01*
X40049Y-30620D01*
X39499Y-30620D01*
X39493Y-30622D01*
X41732Y-28383D01*
X41742Y-28387D01*
X41856Y-28387D01*
X41962Y-28343D01*
X42043Y-28263D01*
X42087Y-28157D01*
X42087Y-28043D01*
X42087Y-33920D01*
X41899Y-33920D01*
X41851Y-33939D01*
X41814Y-33976D01*
X41795Y-34024D01*
X41795Y-34075D01*
X41795Y-34079D01*
X41771Y-34084D01*
X41762Y-34090D01*
X41713Y-34089D01*
X41636Y-34121D01*
X41577Y-34180D01*
X41545Y-34258D01*
X41545Y-34294D01*
X40942Y-34897D01*
X40909Y-34946D01*
X40897Y-35005D01*
X40897Y-35150D01*
X40872Y-35175D01*
X40840Y-35253D01*
X40839Y-35336D01*
X40871Y-35413D01*
X40930Y-35472D01*
X41008Y-35504D01*
X41091Y-35505D01*
X41168Y-35473D01*
X41227Y-35414D01*
X41259Y-35336D01*
X41260Y-35253D01*
X41228Y-35176D01*
X41202Y-35150D01*
X41202Y-35068D01*
X41760Y-34510D01*
X41796Y-34510D01*
X41835Y-34494D01*
X41851Y-34510D01*
X41899Y-34530D01*
X41950Y-34530D01*
X42420Y-34530D01*
X42420Y-34670D01*
X41899Y-34670D01*
X41851Y-34689D01*
X41814Y-34726D01*
X41814Y-34727D01*
X41809Y-34722D01*
X41731Y-34690D01*
X41648Y-34689D01*
X41571Y-34721D01*
X41512Y-34780D01*
X41480Y-34858D01*
X41479Y-34941D01*
X41511Y-35018D01*
X41570Y-35077D01*
X41648Y-35109D01*
X41697Y-35110D01*
X41697Y-35110D01*
X41706Y-35115D01*
X41706Y-35115D01*
X41765Y-35127D01*
X41795Y-35127D01*
X41795Y-35175D01*
X41814Y-35223D01*
X41851Y-35260D01*
X41899Y-35280D01*
X41950Y-35280D01*
X42420Y-35280D01*
X42420Y-37245D01*
X42406Y-37245D01*
X42409Y-37236D01*
X42410Y-37153D01*
X42378Y-37076D01*
X42319Y-37017D01*
X42241Y-36985D01*
X42158Y-36984D01*
X42081Y-37016D01*
X42022Y-37075D01*
X41990Y-37153D01*
X41989Y-37236D01*
X41993Y-37245D01*
X41949Y-37245D01*
X41901Y-37264D01*
X41864Y-37301D01*
X41845Y-37349D01*
X41845Y-37400D01*
X41845Y-37650D01*
X41864Y-37698D01*
X41901Y-37735D01*
X41949Y-37755D01*
X42000Y-37755D01*
X42420Y-37755D01*
X42420Y-37757D01*
X42333Y-37845D01*
X41949Y-37845D01*
X41901Y-37864D01*
X41864Y-37901D01*
X41845Y-37949D01*
X41845Y-38000D01*
X41845Y-38185D01*
X41555Y-38185D01*
X41555Y-37949D01*
X41555Y-37650D01*
X41555Y-37599D01*
X41555Y-37349D01*
X41535Y-37301D01*
X41498Y-37264D01*
X41450Y-37245D01*
X41410Y-37245D01*
X41410Y-37206D01*
X41378Y-37129D01*
X41319Y-37070D01*
X41241Y-37038D01*
X41158Y-37037D01*
X41081Y-37069D01*
X41022Y-37128D01*
X40990Y-37206D01*
X40990Y-37245D01*
X40949Y-37245D01*
X40901Y-37264D01*
X40864Y-37301D01*
X40845Y-37349D01*
X40845Y-37400D01*
X40845Y-37650D01*
X40864Y-37698D01*
X40901Y-37735D01*
X40949Y-37755D01*
X41000Y-37755D01*
X41450Y-37755D01*
X41498Y-37735D01*
X41535Y-37698D01*
X41555Y-37650D01*
X41555Y-37949D01*
X41535Y-37901D01*
X41498Y-37864D01*
X41450Y-37845D01*
X41399Y-37845D01*
X40949Y-37845D01*
X40901Y-37864D01*
X40864Y-37901D01*
X40845Y-37949D01*
X40845Y-38000D01*
X40845Y-38250D01*
X40864Y-38298D01*
X40901Y-38335D01*
X40949Y-38355D01*
X41000Y-38355D01*
X41047Y-38355D01*
X41047Y-38845D01*
X40949Y-38845D01*
X40901Y-38864D01*
X40864Y-38901D01*
X40845Y-38949D01*
X40845Y-39000D01*
X40845Y-39250D01*
X40864Y-39298D01*
X40901Y-39335D01*
X40949Y-39355D01*
X41000Y-39355D01*
X41450Y-39355D01*
X41498Y-39335D01*
X41535Y-39298D01*
X41555Y-39250D01*
X41555Y-39199D01*
X41555Y-38949D01*
X41535Y-38901D01*
X41498Y-38864D01*
X41450Y-38845D01*
X41399Y-38845D01*
X41352Y-38845D01*
X41352Y-38490D01*
X42200Y-38490D01*
X42258Y-38478D01*
X42307Y-38445D01*
X42340Y-38396D01*
X42349Y-38355D01*
X42450Y-38355D01*
X42498Y-38335D01*
X42535Y-38298D01*
X42555Y-38250D01*
X42555Y-38199D01*
X42555Y-38054D01*
X42681Y-37928D01*
X42714Y-37878D01*
X42725Y-37820D01*
X42725Y-37820D01*
X42725Y-39958D01*
X42723Y-39960D01*
X42723Y-38744D01*
X42692Y-38667D01*
X42633Y-38608D01*
X42555Y-38576D01*
X42472Y-38576D01*
X42395Y-38607D01*
X42336Y-38666D01*
X42303Y-38744D01*
X42303Y-38827D01*
X42311Y-38845D01*
X41949Y-38845D01*
X41901Y-38864D01*
X41864Y-38901D01*
X41845Y-38949D01*
X41845Y-39000D01*
X41845Y-39250D01*
X41864Y-39298D01*
X41901Y-39335D01*
X41949Y-39355D01*
X42000Y-39355D01*
X42450Y-39355D01*
X42498Y-39335D01*
X42535Y-39298D01*
X42555Y-39250D01*
X42555Y-39199D01*
X42555Y-39057D01*
X42621Y-38990D01*
X42653Y-38943D01*
X42653Y-38943D01*
X42691Y-38905D01*
X42723Y-38828D01*
X42723Y-38744D01*
X42723Y-39960D01*
X42555Y-40129D01*
X42555Y-39850D01*
X42555Y-39799D01*
X42555Y-39549D01*
X42535Y-39501D01*
X42498Y-39464D01*
X42450Y-39445D01*
X42399Y-39445D01*
X41949Y-39445D01*
X41901Y-39464D01*
X41864Y-39501D01*
X41845Y-39549D01*
X41845Y-39600D01*
X41845Y-39850D01*
X41864Y-39898D01*
X41901Y-39935D01*
X41949Y-39955D01*
X42000Y-39955D01*
X42047Y-39955D01*
X42047Y-39965D01*
X42022Y-39990D01*
X41990Y-40068D01*
X41989Y-40151D01*
X42021Y-40228D01*
X42080Y-40287D01*
X42158Y-40319D01*
X42241Y-40320D01*
X42318Y-40288D01*
X42377Y-40229D01*
X42409Y-40151D01*
X42410Y-40068D01*
X42378Y-39991D01*
X42352Y-39965D01*
X42352Y-39955D01*
X42450Y-39955D01*
X42498Y-39935D01*
X42535Y-39898D01*
X42555Y-39850D01*
X42555Y-40129D01*
X41946Y-40737D01*
X41555Y-40737D01*
X41555Y-39850D01*
X41555Y-39799D01*
X41555Y-39549D01*
X41535Y-39501D01*
X41498Y-39464D01*
X41450Y-39445D01*
X41399Y-39445D01*
X40949Y-39445D01*
X40901Y-39464D01*
X40864Y-39501D01*
X40845Y-39549D01*
X40845Y-39600D01*
X40845Y-39850D01*
X40864Y-39898D01*
X40901Y-39935D01*
X40949Y-39955D01*
X41000Y-39955D01*
X41047Y-39955D01*
X41047Y-39965D01*
X41022Y-39990D01*
X40990Y-40068D01*
X40989Y-40151D01*
X41021Y-40228D01*
X41080Y-40287D01*
X41158Y-40319D01*
X41241Y-40320D01*
X41318Y-40288D01*
X41377Y-40229D01*
X41409Y-40151D01*
X41410Y-40068D01*
X41378Y-39991D01*
X41352Y-39965D01*
X41352Y-39955D01*
X41450Y-39955D01*
X41498Y-39935D01*
X41535Y-39898D01*
X41555Y-39850D01*
X41555Y-40737D01*
X40064Y-40737D01*
X40039Y-40712D01*
X39961Y-40680D01*
X39878Y-40679D01*
X39801Y-40711D01*
X39742Y-40770D01*
X39710Y-40848D01*
X39709Y-40931D01*
X39741Y-41008D01*
X39800Y-41067D01*
X39878Y-41099D01*
X39961Y-41100D01*
X40038Y-41068D01*
X40064Y-41042D01*
X42010Y-41042D01*
X42068Y-41030D01*
X42068Y-41030D01*
X42117Y-40997D01*
X42997Y-40117D01*
X43030Y-40068D01*
X43030Y-40068D01*
X43042Y-40010D01*
X43042Y-38573D01*
X43256Y-38358D01*
X43258Y-38360D01*
X43414Y-38425D01*
X43584Y-38425D01*
X43740Y-38360D01*
X43860Y-38241D01*
X43897Y-38152D01*
X44102Y-38152D01*
X44139Y-38240D01*
X44258Y-38360D01*
X44414Y-38425D01*
X44584Y-38425D01*
X44740Y-38360D01*
X44860Y-38241D01*
X44925Y-38085D01*
X44925Y-37915D01*
X44925Y-38915D01*
X44860Y-38759D01*
X44741Y-38639D01*
X44585Y-38574D01*
X44415Y-38574D01*
X44259Y-38639D01*
X44139Y-38758D01*
X44102Y-38847D01*
X43897Y-38847D01*
X43860Y-38759D01*
X43741Y-38639D01*
X43585Y-38574D01*
X43415Y-38574D01*
X43259Y-38639D01*
X43139Y-38758D01*
X43074Y-38914D01*
X43074Y-39084D01*
X43139Y-39240D01*
X43258Y-39360D01*
X43414Y-39425D01*
X43584Y-39425D01*
X43740Y-39360D01*
X43860Y-39241D01*
X43897Y-39152D01*
X44102Y-39152D01*
X44139Y-39240D01*
X44258Y-39360D01*
X44414Y-39425D01*
X44584Y-39425D01*
X44740Y-39360D01*
X44860Y-39241D01*
X44925Y-39085D01*
X44925Y-38915D01*
X44925Y-39915D01*
X44860Y-39759D01*
X44741Y-39639D01*
X44585Y-39574D01*
X44415Y-39574D01*
X44259Y-39639D01*
X44139Y-39758D01*
X44102Y-39847D01*
X43897Y-39847D01*
X43860Y-39759D01*
X43741Y-39639D01*
X43585Y-39574D01*
X43415Y-39574D01*
X43259Y-39639D01*
X43139Y-39758D01*
X43074Y-39914D01*
X43074Y-40084D01*
X43139Y-40240D01*
X43258Y-40360D01*
X43414Y-40425D01*
X43584Y-40425D01*
X43740Y-40360D01*
X43860Y-40241D01*
X43897Y-40152D01*
X44102Y-40152D01*
X44139Y-40240D01*
X44258Y-40360D01*
X44414Y-40425D01*
X44584Y-40425D01*
X44740Y-40360D01*
X44860Y-40241D01*
X44925Y-40085D01*
X44925Y-39915D01*
X44925Y-41795D01*
X40000Y-41795D01*
X39980Y-41798D01*
X39960Y-41798D01*
X39768Y-41836D01*
X39694Y-41867D01*
X39532Y-41975D01*
X39475Y-42032D01*
X39475Y-42032D01*
X39475Y-42032D01*
X39367Y-42194D01*
X39336Y-42268D01*
X39298Y-42460D01*
X39298Y-42480D01*
X39295Y-42500D01*
X39295Y-43795D01*
X38618Y-43795D01*
X38300Y-43795D01*
X38300Y-43324D01*
X38300Y-43225D01*
X38300Y-43102D01*
X38237Y-43040D01*
X37915Y-43040D01*
X37915Y-43462D01*
X37977Y-43525D01*
X38099Y-43525D01*
X38191Y-43486D01*
X38261Y-43416D01*
X38300Y-43324D01*
X38300Y-43795D01*
X37835Y-43795D01*
X37835Y-43462D01*
X37835Y-43040D01*
X37512Y-43040D01*
X37450Y-43102D01*
X37450Y-43225D01*
X37450Y-43324D01*
X37488Y-43416D01*
X37558Y-43486D01*
X37650Y-43525D01*
X37772Y-43525D01*
X37835Y-43462D01*
X37835Y-43795D01*
X35860Y-43795D01*
X35860Y-41837D01*
X35860Y-41515D01*
X35437Y-41515D01*
X35375Y-41577D01*
X35375Y-41699D01*
X35413Y-41791D01*
X35483Y-41861D01*
X35575Y-41900D01*
X35674Y-41900D01*
X35797Y-41900D01*
X35860Y-41837D01*
X35860Y-43795D01*
X34275Y-43795D01*
X34275Y-42674D01*
X34275Y-42602D01*
X34212Y-42540D01*
X33840Y-42540D01*
X33840Y-42812D01*
X33902Y-42875D01*
X33975Y-42875D01*
X34074Y-42875D01*
X34166Y-42836D01*
X34236Y-42766D01*
X34275Y-42674D01*
X34275Y-43795D01*
X33760Y-43795D01*
X33760Y-42812D01*
X33760Y-42540D01*
X33387Y-42540D01*
X33325Y-42602D01*
X33325Y-42674D01*
X33363Y-42766D01*
X33433Y-42836D01*
X33525Y-42875D01*
X33624Y-42875D01*
X33697Y-42875D01*
X33760Y-42812D01*
X33760Y-43795D01*
X31575Y-43795D01*
X31575Y-42674D01*
X31575Y-42602D01*
X31512Y-42540D01*
X31140Y-42540D01*
X31140Y-42812D01*
X31202Y-42875D01*
X31275Y-42875D01*
X31374Y-42875D01*
X31466Y-42836D01*
X31536Y-42766D01*
X31575Y-42674D01*
X31575Y-43795D01*
X31060Y-43795D01*
X31060Y-42812D01*
X31060Y-42540D01*
X30687Y-42540D01*
X30625Y-42602D01*
X30625Y-42674D01*
X30663Y-42766D01*
X30733Y-42836D01*
X30825Y-42875D01*
X30924Y-42875D01*
X30997Y-42875D01*
X31060Y-42812D01*
X31060Y-43795D01*
X29725Y-43795D01*
X29725Y-42799D01*
X29725Y-42677D01*
X29662Y-42615D01*
X29240Y-42615D01*
X29240Y-42937D01*
X29302Y-43000D01*
X29425Y-43000D01*
X29524Y-43000D01*
X29616Y-42961D01*
X29686Y-42891D01*
X29725Y-42799D01*
X29725Y-43795D01*
X29160Y-43795D01*
X29160Y-42937D01*
X29160Y-42615D01*
X28737Y-42615D01*
X28675Y-42677D01*
X28675Y-42799D01*
X28713Y-42891D01*
X28783Y-42961D01*
X28875Y-43000D01*
X28974Y-43000D01*
X29097Y-43000D01*
X29160Y-42937D01*
X29160Y-43795D01*
X27685Y-43795D01*
X27685Y-40062D01*
X27685Y-39640D01*
X27362Y-39640D01*
X27300Y-39702D01*
X27300Y-39825D01*
X27300Y-39924D01*
X27338Y-40016D01*
X27408Y-40086D01*
X27500Y-40125D01*
X27622Y-40125D01*
X27685Y-40062D01*
X27685Y-43795D01*
X27048Y-43795D01*
X27048Y-39090D01*
X27041Y-38873D01*
X26972Y-38706D01*
X26925Y-38693D01*
X26925Y-37915D01*
X26925Y-36915D01*
X26925Y-35915D01*
X26925Y-34915D01*
X26925Y-33915D01*
X26925Y-32915D01*
X26925Y-31915D01*
X26860Y-31759D01*
X26741Y-31639D01*
X26585Y-31574D01*
X26415Y-31574D01*
X26259Y-31639D01*
X26139Y-31758D01*
X26102Y-31847D01*
X25897Y-31847D01*
X25860Y-31759D01*
X25741Y-31639D01*
X25585Y-31574D01*
X25415Y-31574D01*
X25259Y-31639D01*
X25139Y-31758D01*
X25074Y-31914D01*
X25074Y-32084D01*
X25139Y-32240D01*
X25258Y-32360D01*
X25414Y-32425D01*
X25584Y-32425D01*
X25740Y-32360D01*
X25860Y-32241D01*
X25897Y-32152D01*
X26102Y-32152D01*
X26139Y-32240D01*
X26258Y-32360D01*
X26414Y-32425D01*
X26584Y-32425D01*
X26740Y-32360D01*
X26860Y-32241D01*
X26925Y-32085D01*
X26925Y-31915D01*
X26925Y-32915D01*
X26860Y-32759D01*
X26741Y-32639D01*
X26585Y-32574D01*
X26415Y-32574D01*
X26259Y-32639D01*
X26139Y-32758D01*
X26102Y-32847D01*
X25897Y-32847D01*
X25860Y-32759D01*
X25741Y-32639D01*
X25585Y-32574D01*
X25415Y-32574D01*
X25259Y-32639D01*
X25139Y-32758D01*
X25074Y-32914D01*
X25074Y-33084D01*
X25139Y-33240D01*
X25258Y-33360D01*
X25414Y-33425D01*
X25584Y-33425D01*
X25740Y-33360D01*
X25860Y-33241D01*
X25897Y-33152D01*
X26102Y-33152D01*
X26139Y-33240D01*
X26258Y-33360D01*
X26414Y-33425D01*
X26584Y-33425D01*
X26740Y-33360D01*
X26860Y-33241D01*
X26925Y-33085D01*
X26925Y-32915D01*
X26925Y-33915D01*
X26860Y-33759D01*
X26741Y-33639D01*
X26585Y-33574D01*
X26415Y-33574D01*
X26259Y-33639D01*
X26139Y-33758D01*
X26102Y-33847D01*
X25897Y-33847D01*
X25860Y-33759D01*
X25741Y-33639D01*
X25585Y-33574D01*
X25415Y-33574D01*
X25259Y-33639D01*
X25139Y-33758D01*
X25074Y-33914D01*
X25074Y-34084D01*
X25139Y-34240D01*
X25258Y-34360D01*
X25414Y-34425D01*
X25584Y-34425D01*
X25740Y-34360D01*
X25860Y-34241D01*
X25897Y-34152D01*
X26102Y-34152D01*
X26139Y-34240D01*
X26258Y-34360D01*
X26414Y-34425D01*
X26584Y-34425D01*
X26740Y-34360D01*
X26860Y-34241D01*
X26925Y-34085D01*
X26925Y-33915D01*
X26925Y-34915D01*
X26860Y-34759D01*
X26741Y-34639D01*
X26585Y-34574D01*
X26415Y-34574D01*
X26259Y-34639D01*
X26139Y-34758D01*
X26102Y-34847D01*
X25897Y-34847D01*
X25860Y-34759D01*
X25741Y-34639D01*
X25585Y-34574D01*
X25415Y-34574D01*
X25259Y-34639D01*
X25139Y-34758D01*
X25074Y-34914D01*
X25074Y-35084D01*
X25139Y-35240D01*
X25258Y-35360D01*
X25414Y-35425D01*
X25584Y-35425D01*
X25740Y-35360D01*
X25860Y-35241D01*
X25897Y-35152D01*
X26102Y-35152D01*
X26139Y-35240D01*
X26258Y-35360D01*
X26414Y-35425D01*
X26584Y-35425D01*
X26740Y-35360D01*
X26860Y-35241D01*
X26925Y-35085D01*
X26925Y-34915D01*
X26925Y-35915D01*
X26860Y-35759D01*
X26741Y-35639D01*
X26585Y-35574D01*
X26415Y-35574D01*
X26259Y-35639D01*
X26139Y-35758D01*
X26102Y-35847D01*
X25897Y-35847D01*
X25860Y-35759D01*
X25741Y-35639D01*
X25585Y-35574D01*
X25415Y-35574D01*
X25259Y-35639D01*
X25139Y-35758D01*
X25074Y-35914D01*
X25074Y-36084D01*
X25139Y-36240D01*
X25258Y-36360D01*
X25414Y-36425D01*
X25584Y-36425D01*
X25740Y-36360D01*
X25860Y-36241D01*
X25897Y-36152D01*
X26102Y-36152D01*
X26139Y-36240D01*
X26258Y-36360D01*
X26414Y-36425D01*
X26584Y-36425D01*
X26740Y-36360D01*
X26860Y-36241D01*
X26925Y-36085D01*
X26925Y-35915D01*
X26925Y-36915D01*
X26860Y-36759D01*
X26741Y-36639D01*
X26585Y-36574D01*
X26415Y-36574D01*
X26259Y-36639D01*
X26139Y-36758D01*
X26102Y-36847D01*
X25897Y-36847D01*
X25860Y-36759D01*
X25741Y-36639D01*
X25585Y-36574D01*
X25415Y-36574D01*
X25259Y-36639D01*
X25139Y-36758D01*
X25074Y-36914D01*
X25074Y-37084D01*
X25139Y-37240D01*
X25258Y-37360D01*
X25414Y-37425D01*
X25584Y-37425D01*
X25740Y-37360D01*
X25860Y-37241D01*
X25897Y-37152D01*
X26102Y-37152D01*
X26139Y-37240D01*
X26258Y-37360D01*
X26414Y-37425D01*
X26584Y-37425D01*
X26740Y-37360D01*
X26860Y-37241D01*
X26925Y-37085D01*
X26925Y-36915D01*
X26925Y-37915D01*
X26860Y-37759D01*
X26741Y-37639D01*
X26585Y-37574D01*
X26415Y-37574D01*
X26259Y-37639D01*
X26139Y-37758D01*
X26102Y-37847D01*
X25897Y-37847D01*
X25860Y-37759D01*
X25741Y-37639D01*
X25585Y-37574D01*
X25415Y-37574D01*
X25259Y-37639D01*
X25139Y-37758D01*
X25074Y-37914D01*
X25074Y-38084D01*
X25139Y-38240D01*
X25258Y-38360D01*
X25414Y-38425D01*
X25584Y-38425D01*
X25740Y-38360D01*
X25860Y-38241D01*
X25897Y-38152D01*
X26102Y-38152D01*
X26139Y-38240D01*
X26258Y-38360D01*
X26414Y-38425D01*
X26584Y-38425D01*
X26740Y-38360D01*
X26860Y-38241D01*
X26925Y-38085D01*
X26925Y-37915D01*
X26925Y-38693D01*
X26876Y-38680D01*
X26819Y-38736D01*
X26819Y-38623D01*
X26793Y-38527D01*
X26590Y-38451D01*
X26373Y-38458D01*
X26206Y-38527D01*
X26180Y-38623D01*
X26500Y-38943D01*
X26819Y-38623D01*
X26819Y-38736D01*
X26556Y-39000D01*
X26876Y-39319D01*
X26972Y-39293D01*
X27048Y-39090D01*
X27048Y-43795D01*
X27030Y-43795D01*
X27030Y-42608D01*
X26998Y-42531D01*
X26939Y-42472D01*
X26861Y-42440D01*
X26825Y-42440D01*
X26652Y-42266D01*
X26652Y-40425D01*
X26821Y-40425D01*
X26869Y-40405D01*
X26905Y-40369D01*
X26925Y-40321D01*
X26925Y-40269D01*
X26925Y-39678D01*
X26905Y-39630D01*
X26869Y-39594D01*
X26821Y-39574D01*
X26819Y-39574D01*
X26819Y-39376D01*
X26500Y-39056D01*
X26443Y-39113D01*
X26443Y-39000D01*
X26123Y-38680D01*
X26027Y-38706D01*
X26001Y-38776D01*
X25972Y-38706D01*
X25876Y-38680D01*
X25819Y-38736D01*
X25819Y-38623D01*
X25793Y-38527D01*
X25590Y-38451D01*
X25373Y-38458D01*
X25206Y-38527D01*
X25180Y-38623D01*
X25500Y-38943D01*
X25819Y-38623D01*
X25819Y-38736D01*
X25556Y-39000D01*
X25876Y-39319D01*
X25972Y-39293D01*
X25998Y-39223D01*
X26027Y-39293D01*
X26123Y-39319D01*
X26443Y-39000D01*
X26443Y-39113D01*
X26180Y-39376D01*
X26206Y-39472D01*
X26409Y-39548D01*
X26626Y-39541D01*
X26793Y-39472D01*
X26819Y-39376D01*
X26819Y-39574D01*
X26769Y-39574D01*
X26178Y-39574D01*
X26130Y-39594D01*
X26094Y-39630D01*
X26074Y-39678D01*
X26074Y-39730D01*
X26074Y-39847D01*
X25925Y-39847D01*
X25925Y-39678D01*
X25905Y-39630D01*
X25869Y-39594D01*
X25821Y-39574D01*
X25819Y-39574D01*
X25819Y-39376D01*
X25500Y-39056D01*
X25443Y-39113D01*
X25443Y-39000D01*
X25123Y-38680D01*
X25027Y-38706D01*
X24951Y-38909D01*
X24958Y-39126D01*
X25027Y-39293D01*
X25123Y-39319D01*
X25443Y-39000D01*
X25443Y-39113D01*
X25180Y-39376D01*
X25206Y-39472D01*
X25409Y-39548D01*
X25626Y-39541D01*
X25793Y-39472D01*
X25819Y-39376D01*
X25819Y-39574D01*
X25769Y-39574D01*
X25178Y-39574D01*
X25130Y-39594D01*
X25094Y-39630D01*
X25074Y-39678D01*
X25074Y-39730D01*
X25074Y-40321D01*
X25094Y-40369D01*
X25130Y-40405D01*
X25178Y-40425D01*
X25230Y-40425D01*
X25821Y-40425D01*
X25869Y-40405D01*
X25905Y-40369D01*
X25925Y-40321D01*
X25925Y-40269D01*
X25925Y-40152D01*
X26074Y-40152D01*
X26074Y-40321D01*
X26094Y-40369D01*
X26130Y-40405D01*
X26178Y-40425D01*
X26230Y-40425D01*
X26347Y-40425D01*
X26347Y-42330D01*
X26359Y-42388D01*
X26392Y-42437D01*
X26609Y-42655D01*
X26609Y-42691D01*
X26641Y-42768D01*
X26700Y-42827D01*
X26778Y-42859D01*
X26861Y-42860D01*
X26938Y-42828D01*
X26997Y-42769D01*
X27029Y-42691D01*
X27030Y-42608D01*
X27030Y-43795D01*
X26450Y-43795D01*
X26450Y-43187D01*
X26449Y-42809D01*
X26306Y-42463D01*
X26168Y-42388D01*
X26111Y-42444D01*
X26111Y-42331D01*
X26036Y-42193D01*
X25687Y-42049D01*
X25309Y-42050D01*
X24963Y-42193D01*
X24888Y-42331D01*
X25500Y-42943D01*
X26111Y-42331D01*
X26111Y-42444D01*
X25556Y-43000D01*
X26168Y-43611D01*
X26306Y-43536D01*
X26450Y-43187D01*
X26450Y-43795D01*
X26042Y-43795D01*
X26111Y-43668D01*
X25500Y-43056D01*
X24888Y-43668D01*
X24957Y-43795D01*
X24705Y-43795D01*
X24705Y-43542D01*
X24831Y-43611D01*
X25443Y-43000D01*
X24831Y-42388D01*
X24705Y-42457D01*
X24705Y-25205D01*
X25500Y-25205D01*
X25519Y-25201D01*
X25539Y-25201D01*
X25922Y-25124D01*
X25996Y-25094D01*
X25996Y-25094D01*
X26320Y-24877D01*
X26320Y-24877D01*
X26349Y-24849D01*
X26377Y-24820D01*
X26377Y-24820D01*
X26594Y-24496D01*
X26624Y-24422D01*
X26701Y-24039D01*
X26701Y-24019D01*
X26705Y-24000D01*
X26705Y-23205D01*
X43957Y-23205D01*
X43888Y-23331D01*
X44500Y-23943D01*
X45111Y-23331D01*
X45042Y-23205D01*
X45295Y-23205D01*
X45295Y-23457D01*
X45168Y-23388D01*
X44556Y-24000D01*
X45168Y-24611D01*
X45295Y-24542D01*
X45295Y-41795D01*
M02*
