G04 (created by PCBNEW (2013-mar-13)-testing) date Thu 12 Sep 2013 11:44:43 AM CEST*
%MOIN*%
G04 Gerber Fmt 3.4, Leading zero omitted, Abs format*
%FSLAX34Y34*%
G01*
G70*
G90*
G04 APERTURE LIST*
%ADD10C,0.005906*%
%ADD11C,0.015000*%
%ADD12C,0.012000*%
%ADD13C,0.140000*%
%ADD14C,0.059100*%
%ADD15R,0.059100X0.059100*%
%ADD16R,0.055000X0.035000*%
%ADD17R,0.025000X0.045000*%
%ADD18R,0.035000X0.055000*%
%ADD19R,0.045000X0.025000*%
%ADD20R,0.060000X0.060000*%
%ADD21C,0.060000*%
%ADD22C,0.031496*%
%ADD23R,0.055100X0.023600*%
%ADD24R,0.059055X0.039370*%
%ADD25C,0.059055*%
%ADD26R,0.086614X0.047244*%
%ADD27R,0.078740X0.057087*%
%ADD28R,0.059055X0.031496*%
%ADD29C,0.016000*%
%ADD30C,0.004500*%
%ADD31C,0.004504*%
%ADD32C,0.010000*%
G04 APERTURE END LIST*
G54D10*
G54D11*
X40000Y-38000D02*
X40000Y-19000D01*
X39500Y-38000D02*
X40000Y-38000D01*
X38000Y-39500D02*
X38000Y-40000D01*
X38000Y-40000D02*
X19000Y-40000D01*
X19000Y-40000D02*
X19000Y-21000D01*
X19000Y-21000D02*
X19500Y-21000D01*
X21000Y-19000D02*
X21000Y-19500D01*
X21000Y-19000D02*
X40000Y-19000D01*
X39000Y-38000D02*
X39500Y-38000D01*
X21000Y-20000D02*
X21000Y-19500D01*
X20000Y-21000D02*
X19500Y-21000D01*
X38000Y-39000D02*
X38000Y-39500D01*
X39000Y-38000D02*
G75*
G03X38000Y-39000I0J-1000D01*
G74*
G01*
X20000Y-21000D02*
G75*
G03X21000Y-20000I0J1000D01*
G74*
G01*
G54D12*
X44077Y-27328D02*
X44077Y-27042D01*
X43696Y-27014D01*
X43734Y-27042D01*
X43772Y-27099D01*
X43772Y-27242D01*
X43734Y-27299D01*
X43696Y-27328D01*
X43619Y-27357D01*
X43429Y-27357D01*
X43353Y-27328D01*
X43315Y-27299D01*
X43277Y-27242D01*
X43277Y-27099D01*
X43315Y-27042D01*
X43353Y-27014D01*
X44077Y-27557D02*
X44077Y-27928D01*
X43772Y-27728D01*
X43772Y-27814D01*
X43734Y-27871D01*
X43696Y-27899D01*
X43619Y-27928D01*
X43429Y-27928D01*
X43353Y-27899D01*
X43315Y-27871D01*
X43277Y-27814D01*
X43277Y-27642D01*
X43315Y-27585D01*
X43353Y-27557D01*
X43315Y-28214D02*
X43277Y-28214D01*
X43200Y-28185D01*
X43162Y-28157D01*
X44077Y-28414D02*
X44077Y-28785D01*
X43772Y-28585D01*
X43772Y-28671D01*
X43734Y-28728D01*
X43696Y-28757D01*
X43619Y-28785D01*
X43429Y-28785D01*
X43353Y-28757D01*
X43315Y-28728D01*
X43277Y-28671D01*
X43277Y-28500D01*
X43315Y-28442D01*
X43353Y-28414D01*
X43810Y-29300D02*
X43277Y-29300D01*
X44115Y-29157D02*
X43543Y-29014D01*
X43543Y-29385D01*
X44077Y-29728D02*
X44077Y-29785D01*
X44039Y-29842D01*
X44000Y-29871D01*
X43924Y-29900D01*
X43772Y-29928D01*
X43581Y-29928D01*
X43429Y-29900D01*
X43353Y-29871D01*
X43315Y-29842D01*
X43277Y-29785D01*
X43277Y-29728D01*
X43315Y-29671D01*
X43353Y-29642D01*
X43429Y-29614D01*
X43581Y-29585D01*
X43772Y-29585D01*
X43924Y-29614D01*
X44000Y-29642D01*
X44039Y-29671D01*
X44077Y-29728D01*
X43277Y-30642D02*
X43810Y-30642D01*
X43734Y-30642D02*
X43772Y-30671D01*
X43810Y-30728D01*
X43810Y-30814D01*
X43772Y-30871D01*
X43696Y-30900D01*
X43277Y-30900D01*
X43696Y-30900D02*
X43772Y-30928D01*
X43810Y-30985D01*
X43810Y-31071D01*
X43772Y-31128D01*
X43696Y-31157D01*
X43277Y-31157D01*
X43277Y-31442D02*
X43810Y-31442D01*
X43734Y-31442D02*
X43772Y-31471D01*
X43810Y-31528D01*
X43810Y-31614D01*
X43772Y-31671D01*
X43696Y-31700D01*
X43277Y-31700D01*
X43696Y-31700D02*
X43772Y-31728D01*
X43810Y-31785D01*
X43810Y-31871D01*
X43772Y-31928D01*
X43696Y-31957D01*
X43277Y-31957D01*
X42999Y-19000D02*
X42999Y-40000D01*
X40000Y-19000D02*
X44279Y-19000D01*
X40000Y-40000D02*
X44279Y-40000D01*
X42999Y-40000D02*
X42769Y-39557D01*
X42999Y-40000D02*
X43229Y-39557D01*
X42999Y-19000D02*
X42769Y-19443D01*
X42999Y-19000D02*
X43229Y-19443D01*
X27328Y-43200D02*
X27042Y-43200D01*
X27014Y-43581D01*
X27042Y-43543D01*
X27099Y-43505D01*
X27242Y-43505D01*
X27299Y-43543D01*
X27328Y-43581D01*
X27357Y-43658D01*
X27357Y-43848D01*
X27328Y-43924D01*
X27299Y-43962D01*
X27242Y-44000D01*
X27099Y-44000D01*
X27042Y-43962D01*
X27014Y-43924D01*
X27557Y-43200D02*
X27928Y-43200D01*
X27728Y-43505D01*
X27814Y-43505D01*
X27871Y-43543D01*
X27899Y-43581D01*
X27928Y-43658D01*
X27928Y-43848D01*
X27899Y-43924D01*
X27871Y-43962D01*
X27814Y-44000D01*
X27642Y-44000D01*
X27585Y-43962D01*
X27557Y-43924D01*
X28214Y-43962D02*
X28214Y-44000D01*
X28185Y-44077D01*
X28157Y-44115D01*
X28414Y-43200D02*
X28785Y-43200D01*
X28585Y-43505D01*
X28671Y-43505D01*
X28728Y-43543D01*
X28757Y-43581D01*
X28785Y-43658D01*
X28785Y-43848D01*
X28757Y-43924D01*
X28728Y-43962D01*
X28671Y-44000D01*
X28500Y-44000D01*
X28442Y-43962D01*
X28414Y-43924D01*
X29300Y-43467D02*
X29300Y-44000D01*
X29157Y-43162D02*
X29014Y-43734D01*
X29385Y-43734D01*
X29728Y-43200D02*
X29785Y-43200D01*
X29842Y-43239D01*
X29871Y-43277D01*
X29900Y-43353D01*
X29928Y-43505D01*
X29928Y-43696D01*
X29900Y-43848D01*
X29871Y-43924D01*
X29842Y-43962D01*
X29785Y-44000D01*
X29728Y-44000D01*
X29671Y-43962D01*
X29642Y-43924D01*
X29614Y-43848D01*
X29585Y-43696D01*
X29585Y-43505D01*
X29614Y-43353D01*
X29642Y-43277D01*
X29671Y-43239D01*
X29728Y-43200D01*
X30642Y-44000D02*
X30642Y-43467D01*
X30642Y-43543D02*
X30671Y-43505D01*
X30728Y-43467D01*
X30814Y-43467D01*
X30871Y-43505D01*
X30900Y-43581D01*
X30900Y-44000D01*
X30900Y-43581D02*
X30928Y-43505D01*
X30985Y-43467D01*
X31071Y-43467D01*
X31128Y-43505D01*
X31157Y-43581D01*
X31157Y-44000D01*
X31442Y-44000D02*
X31442Y-43467D01*
X31442Y-43543D02*
X31471Y-43505D01*
X31528Y-43467D01*
X31614Y-43467D01*
X31671Y-43505D01*
X31700Y-43581D01*
X31700Y-44000D01*
X31700Y-43581D02*
X31728Y-43505D01*
X31785Y-43467D01*
X31871Y-43467D01*
X31928Y-43505D01*
X31957Y-43581D01*
X31957Y-44000D01*
X19000Y-42999D02*
X40000Y-42999D01*
X19000Y-40000D02*
X19000Y-44279D01*
X40000Y-40000D02*
X40000Y-44279D01*
X40000Y-42999D02*
X39557Y-43229D01*
X40000Y-42999D02*
X39557Y-42769D01*
X19000Y-42999D02*
X19443Y-43229D01*
X19000Y-42999D02*
X19443Y-42769D01*
G54D13*
X39000Y-20000D03*
X20000Y-39000D03*
G54D14*
X36000Y-21000D03*
X35000Y-21000D03*
X34000Y-21000D03*
X33000Y-21000D03*
X32000Y-21000D03*
X31000Y-21000D03*
X30000Y-21000D03*
X29000Y-21000D03*
X28000Y-21000D03*
X27000Y-21000D03*
X26000Y-21000D03*
X25000Y-21000D03*
X24000Y-21000D03*
G54D15*
X23000Y-21000D03*
X23000Y-20000D03*
G54D14*
X24000Y-20000D03*
X25000Y-20000D03*
X26000Y-20000D03*
X27000Y-20000D03*
X28000Y-20000D03*
X29000Y-20000D03*
X30000Y-20000D03*
X31000Y-20000D03*
X32000Y-20000D03*
X33000Y-20000D03*
X34000Y-20000D03*
X35000Y-20000D03*
X36000Y-20000D03*
X23000Y-38000D03*
X24000Y-38000D03*
X25000Y-38000D03*
X26000Y-38000D03*
X27000Y-38000D03*
X28000Y-38000D03*
X29000Y-38000D03*
X30000Y-38000D03*
X31000Y-38000D03*
X32000Y-38000D03*
X33000Y-38000D03*
X34000Y-38000D03*
X35000Y-38000D03*
G54D15*
X36000Y-38000D03*
X36000Y-39000D03*
G54D14*
X35000Y-39000D03*
X34000Y-39000D03*
X33000Y-39000D03*
X32000Y-39000D03*
X31000Y-39000D03*
X30000Y-39000D03*
X29000Y-39000D03*
X28000Y-39000D03*
X27000Y-39000D03*
X26000Y-39000D03*
X25000Y-39000D03*
X24000Y-39000D03*
X23000Y-39000D03*
G54D16*
X39000Y-27375D03*
X39000Y-26625D03*
G54D17*
X33500Y-22300D03*
X34100Y-22300D03*
G54D18*
X30975Y-22300D03*
X30225Y-22300D03*
G54D17*
X33500Y-23300D03*
X34100Y-23300D03*
G54D16*
X32400Y-26925D03*
X32400Y-27675D03*
G54D18*
X36725Y-28600D03*
X37475Y-28600D03*
X27675Y-22900D03*
X26925Y-22900D03*
X26925Y-24700D03*
X27675Y-24700D03*
X37825Y-35300D03*
X38575Y-35300D03*
G54D17*
X37900Y-33400D03*
X38500Y-33400D03*
X37900Y-30700D03*
X38500Y-30700D03*
G54D19*
X33900Y-36000D03*
X33900Y-36600D03*
X33100Y-36000D03*
X33100Y-36600D03*
X32300Y-36000D03*
X32300Y-36600D03*
X34700Y-36000D03*
X34700Y-36600D03*
G54D20*
X37000Y-22300D03*
G54D21*
X37000Y-23300D03*
G54D16*
X35600Y-36775D03*
X35600Y-36025D03*
G54D22*
X24100Y-22700D03*
X35400Y-27900D03*
X33500Y-25500D03*
X33500Y-26500D03*
G54D17*
X35700Y-22300D03*
X35100Y-22300D03*
X35100Y-23300D03*
X35700Y-23300D03*
X36800Y-25400D03*
X37400Y-25400D03*
G54D19*
X35100Y-27300D03*
X35100Y-26700D03*
X34200Y-26700D03*
X34200Y-27300D03*
G54D17*
X38500Y-31700D03*
X37900Y-31700D03*
X38500Y-34300D03*
X37900Y-34300D03*
G54D23*
X36050Y-26250D03*
X38150Y-26250D03*
X36050Y-26750D03*
X36050Y-27250D03*
X36050Y-27750D03*
X38150Y-26750D03*
X38150Y-27250D03*
X38150Y-27750D03*
G54D24*
X30666Y-28109D03*
X30666Y-29093D03*
X30666Y-30077D03*
X30666Y-30727D03*
X30666Y-31376D03*
X30666Y-32046D03*
X30666Y-33030D03*
X30666Y-34014D03*
X30666Y-34969D03*
X30666Y-35638D03*
X30666Y-36957D03*
G54D25*
X21100Y-27036D03*
X21100Y-36563D03*
G54D26*
X22399Y-26130D03*
X21926Y-37154D03*
G54D27*
X20918Y-28922D03*
X20918Y-34277D03*
X24186Y-34277D03*
X24186Y-28922D03*
G54D28*
X23162Y-32859D03*
X23162Y-32426D03*
X23162Y-31993D03*
X23162Y-31560D03*
X23162Y-31127D03*
X23162Y-30694D03*
X23162Y-30261D03*
X23162Y-29828D03*
G54D25*
X38787Y-22307D03*
X38787Y-23292D03*
G54D29*
X38265Y-35900D03*
X31163Y-30799D03*
X34000Y-30410D03*
X36226Y-31661D03*
X35045Y-32160D03*
X32110Y-30725D03*
X32740Y-30725D03*
X21000Y-31841D03*
X37400Y-26495D03*
X33215Y-31560D03*
X34711Y-32805D03*
X35574Y-33559D03*
X33498Y-36600D03*
X33685Y-33875D03*
X36371Y-34349D03*
X34315Y-34189D03*
X34300Y-36600D03*
X34000Y-34190D03*
X33685Y-34190D03*
X25365Y-30657D03*
X36820Y-33732D03*
X36405Y-32709D03*
X35890Y-33875D03*
X24075Y-21825D03*
X23225Y-21800D03*
X21875Y-20025D03*
X21875Y-21150D03*
X20675Y-21325D03*
X19850Y-21925D03*
X20475Y-22275D03*
X20575Y-23375D03*
X21300Y-23375D03*
X22225Y-23375D03*
X23075Y-23375D03*
X21200Y-22025D03*
X21700Y-22025D03*
X22225Y-22025D03*
X21700Y-22500D03*
X22225Y-22500D03*
X21200Y-22500D03*
X23300Y-22850D03*
X33240Y-29585D03*
X33260Y-28215D03*
X33255Y-27585D03*
X31145Y-29670D03*
X30515Y-29585D03*
X32430Y-29590D03*
X31745Y-29590D03*
X30475Y-28640D03*
X31205Y-28645D03*
X33055Y-31040D03*
X30080Y-31495D03*
X33925Y-31305D03*
X34745Y-31460D03*
X28450Y-24625D03*
X29050Y-24625D03*
X28685Y-23920D03*
X29490Y-23785D03*
X24725Y-32585D03*
X23970Y-33340D03*
X26040Y-31465D03*
X29540Y-31475D03*
X28560Y-31470D03*
X29150Y-30375D03*
X29750Y-30375D03*
X29750Y-29775D03*
X29175Y-29775D03*
X27230Y-31465D03*
X25390Y-31900D03*
X22145Y-33660D03*
X23115Y-33655D03*
X23950Y-29800D03*
X25100Y-29800D03*
X24900Y-31350D03*
X24650Y-31900D03*
X23950Y-32600D03*
X23950Y-31450D03*
X37037Y-38549D03*
X37030Y-39480D03*
X19756Y-30250D03*
X19760Y-32370D03*
X19750Y-34080D03*
X35361Y-25250D03*
X36212Y-25470D03*
X27410Y-34286D03*
X26341Y-34291D03*
X26894Y-33579D03*
X26202Y-35964D03*
X26110Y-34979D03*
X27363Y-32872D03*
X25075Y-33575D03*
X25900Y-32750D03*
X26492Y-31986D03*
X26852Y-32274D03*
X34791Y-31891D03*
X30085Y-32200D03*
X31410Y-32142D03*
X29360Y-32200D03*
X28750Y-32200D03*
X32400Y-28635D03*
X31734Y-28188D03*
X33849Y-28479D03*
X34062Y-29070D03*
X37125Y-20725D03*
X37350Y-19525D03*
X33425Y-33000D03*
X33425Y-32225D03*
X33875Y-32225D03*
X21925Y-38000D03*
X21675Y-39425D03*
X37225Y-24450D03*
X39150Y-24100D03*
X39125Y-25650D03*
X24975Y-22600D03*
X25975Y-22750D03*
X25975Y-23625D03*
X27600Y-25225D03*
X29300Y-26275D03*
X28550Y-25475D03*
X28450Y-26275D03*
X29750Y-27425D03*
X29975Y-26700D03*
X29150Y-28000D03*
X29725Y-28000D03*
X29725Y-28725D03*
X29150Y-28700D03*
X29075Y-35675D03*
X29550Y-36150D03*
X29900Y-37050D03*
X28850Y-37050D03*
X27675Y-37050D03*
X25775Y-37050D03*
X28550Y-22800D03*
X28325Y-22125D03*
X29175Y-22175D03*
X29200Y-23175D03*
X30075Y-23175D03*
X31800Y-23375D03*
X31675Y-22425D03*
X32375Y-22425D03*
X32375Y-23050D03*
X21025Y-35400D03*
X19975Y-35175D03*
X19975Y-36450D03*
X24450Y-36250D03*
X23200Y-36800D03*
X24700Y-35150D03*
X39050Y-28650D03*
X39300Y-37350D03*
X39275Y-32250D03*
X39275Y-33075D03*
X39275Y-33875D03*
X39275Y-34700D03*
X39275Y-35975D03*
X39275Y-31200D03*
X39050Y-29800D03*
X35450Y-24425D03*
X21150Y-25975D03*
X20200Y-26300D03*
X20425Y-27950D03*
X21875Y-27900D03*
X23050Y-26900D03*
X23025Y-28525D03*
X24350Y-27975D03*
X24350Y-26375D03*
X25550Y-25625D03*
X25550Y-27225D03*
X25550Y-28725D03*
X36700Y-31025D03*
X35150Y-29600D03*
X35150Y-28450D03*
X35850Y-28925D03*
X35850Y-29575D03*
X36425Y-29325D03*
X36425Y-29850D03*
X36725Y-30400D03*
X37490Y-30985D03*
X35890Y-34190D03*
X37934Y-28822D03*
X34200Y-27545D03*
X30066Y-29481D03*
X33867Y-33003D03*
X31295Y-23450D03*
X30300Y-22745D03*
X31775Y-35400D03*
X27976Y-24805D03*
X34945Y-33560D03*
X33804Y-27297D03*
X34385Y-28013D03*
X33576Y-27305D03*
X33993Y-28125D03*
X34945Y-34190D03*
X32755Y-30046D03*
X30480Y-26069D03*
X33000Y-27195D03*
X33370Y-30410D03*
X33510Y-30030D03*
X32881Y-27018D03*
X27338Y-27737D03*
X26300Y-29832D03*
X37900Y-33920D03*
X38780Y-31700D03*
X32425Y-34190D03*
X31307Y-35640D03*
X32110Y-34190D03*
X31912Y-35238D03*
X30100Y-34940D03*
X30098Y-34502D03*
X33055Y-33560D03*
X31620Y-33700D03*
X32425Y-33560D03*
X32400Y-26600D03*
X34786Y-21986D03*
X33248Y-23300D03*
X33195Y-22300D03*
X28089Y-23247D03*
X26980Y-24275D03*
X30900Y-22810D03*
X35185Y-31830D03*
X36267Y-31413D03*
X34945Y-33875D03*
X35007Y-35705D03*
X25650Y-34035D03*
X31584Y-31241D03*
X32740Y-31040D03*
X29849Y-30949D03*
X22717Y-31052D03*
X33682Y-31062D03*
X31360Y-30935D03*
X33055Y-30725D03*
X31622Y-30263D03*
X31208Y-30092D03*
X22700Y-31907D03*
X37202Y-31832D03*
X31163Y-35142D03*
X37197Y-34929D03*
X22710Y-30280D03*
X23520Y-29499D03*
X25484Y-30422D03*
X30080Y-31255D03*
X23520Y-33500D03*
X32110Y-30410D03*
X31530Y-30725D03*
X22733Y-32622D03*
X31090Y-29210D03*
X35889Y-33244D03*
X29163Y-25818D03*
X31800Y-36693D03*
X33827Y-30002D03*
X28175Y-23725D03*
X31693Y-35077D03*
X34580Y-31090D03*
X34581Y-31638D03*
X35260Y-33560D03*
X35260Y-33875D03*
X35575Y-33245D03*
X35025Y-32695D03*
X28840Y-34032D03*
X30051Y-35526D03*
X28180Y-32660D03*
X33370Y-34190D03*
X33384Y-35560D03*
G54D30*
X38249Y-34682D02*
X38249Y-35162D01*
G54D31*
X37825Y-35300D02*
X38102Y-35300D01*
G54D30*
X38102Y-35300D02*
X38112Y-35300D01*
X38249Y-34682D02*
X38249Y-34308D01*
X38249Y-35162D02*
X38112Y-35300D01*
X37825Y-35300D02*
X37825Y-35655D01*
X38070Y-35900D02*
X37825Y-35655D01*
X38070Y-35900D02*
X38265Y-35900D01*
X30666Y-32046D02*
X30993Y-32046D01*
X30993Y-32046D02*
X31480Y-31560D01*
X31625Y-31560D02*
X31480Y-31560D01*
G54D31*
X31163Y-31104D02*
X31163Y-30799D01*
G54D30*
X31163Y-31243D02*
X31163Y-31104D01*
X31480Y-31560D02*
X31163Y-31243D01*
X33385Y-31239D02*
X33385Y-31389D01*
G54D31*
X33385Y-31239D02*
X33385Y-31024D01*
X33385Y-31024D02*
X34000Y-30410D01*
G54D30*
X33385Y-31389D02*
X33215Y-31560D01*
X33215Y-31560D02*
X31625Y-31560D01*
X35045Y-32160D02*
X35727Y-32160D01*
G54D31*
X35819Y-32068D02*
X36226Y-31661D01*
G54D30*
X35727Y-32160D02*
X35819Y-32068D01*
G54D31*
X35045Y-32160D02*
X35045Y-32159D01*
G54D30*
X38500Y-34300D02*
X38258Y-34300D01*
X38258Y-34300D02*
X38249Y-34308D01*
X38249Y-34308D02*
X38249Y-33561D01*
G54D31*
X38087Y-33400D02*
X37900Y-33400D01*
X38240Y-33552D02*
X38087Y-33400D01*
G54D30*
X38249Y-33561D02*
X38240Y-33552D01*
X37718Y-27750D02*
X37718Y-27342D01*
X37718Y-27342D02*
X37811Y-27250D01*
X32739Y-30724D02*
X32110Y-30725D01*
X32740Y-30725D02*
X32739Y-30724D01*
G54D31*
X23162Y-31560D02*
X21281Y-31560D01*
X21281Y-31560D02*
X21000Y-31841D01*
X37900Y-33400D02*
X37619Y-33400D01*
X37718Y-27750D02*
X37199Y-28269D01*
X37199Y-28269D02*
X37199Y-29351D01*
X37199Y-29351D02*
X38131Y-30284D01*
X38131Y-30284D02*
X38131Y-30972D01*
X38131Y-30972D02*
X37619Y-31485D01*
X37619Y-31485D02*
X37619Y-33400D01*
X37980Y-27250D02*
X37811Y-27250D01*
X37980Y-27250D02*
X38150Y-27250D01*
X38537Y-27250D02*
X38662Y-27375D01*
X38150Y-27250D02*
X38537Y-27250D01*
X39000Y-27375D02*
X38662Y-27375D01*
X38500Y-34300D02*
X38406Y-34300D01*
X38150Y-27750D02*
X37980Y-27750D01*
X37980Y-27750D02*
X37811Y-27750D01*
X37400Y-26838D02*
X37400Y-26495D01*
X37811Y-27250D02*
X37400Y-26838D01*
X37400Y-25400D02*
X37400Y-26495D01*
X37811Y-27750D02*
X37718Y-27750D01*
X34820Y-32805D02*
X35574Y-33559D01*
X34711Y-32805D02*
X34820Y-32805D01*
X36000Y-39000D02*
X36000Y-38000D01*
G54D30*
X33548Y-33738D02*
X33548Y-33738D01*
X33685Y-33875D02*
X33548Y-33738D01*
X34700Y-36600D02*
X34776Y-36600D01*
X35351Y-36025D02*
X35600Y-36025D01*
X34776Y-36600D02*
X35351Y-36025D01*
X36371Y-34349D02*
X36371Y-35254D01*
X36371Y-35254D02*
X35600Y-36025D01*
X34357Y-33370D02*
X33915Y-33370D01*
G54D31*
X33548Y-33738D02*
X33902Y-33385D01*
X34357Y-33370D02*
X34407Y-33420D01*
X34407Y-33420D02*
X34407Y-34097D01*
X34407Y-34097D02*
X34315Y-34189D01*
G54D30*
X33915Y-33370D02*
X33902Y-33384D01*
X33902Y-33384D02*
X33902Y-33385D01*
G54D31*
X33100Y-36600D02*
X33498Y-36600D01*
X33498Y-36600D02*
X33900Y-36600D01*
X35600Y-36143D02*
X35600Y-36025D01*
X34700Y-36600D02*
X34300Y-36600D01*
X34300Y-36600D02*
X33900Y-36600D01*
X33100Y-36600D02*
X32806Y-36603D01*
X32806Y-34478D02*
X33548Y-33738D01*
X32806Y-36603D02*
X32806Y-34478D01*
X32806Y-36603D02*
X32300Y-36600D01*
G54D30*
X34000Y-34190D02*
X34000Y-34196D01*
X34000Y-34196D02*
X34158Y-34353D01*
X33685Y-34190D02*
X33999Y-34191D01*
X33999Y-34191D02*
X34000Y-34190D01*
X33900Y-36000D02*
X33100Y-36000D01*
X33683Y-34190D02*
X33685Y-34190D01*
X33681Y-34188D02*
X33683Y-34190D01*
G54D31*
X33900Y-36000D02*
X34158Y-35805D01*
X34158Y-35750D02*
X34158Y-34353D01*
X34158Y-35805D02*
X34158Y-35750D01*
X34700Y-36000D02*
X33900Y-36000D01*
X23000Y-39000D02*
X23000Y-38000D01*
X27000Y-20000D02*
X27000Y-21000D01*
X31000Y-20000D02*
X31000Y-21000D01*
X32000Y-20000D02*
X32000Y-21000D01*
X33000Y-20000D02*
X33000Y-21000D01*
X34000Y-20000D02*
X34000Y-21000D01*
X35000Y-20000D02*
X35000Y-21000D01*
X36000Y-20000D02*
X36000Y-21000D01*
X23000Y-20000D02*
X23000Y-21000D01*
X24000Y-20000D02*
X24000Y-21000D01*
X29000Y-20000D02*
X29000Y-21000D01*
X28000Y-20000D02*
X28000Y-21000D01*
X25000Y-20000D02*
X25000Y-21000D01*
X26000Y-20000D02*
X26000Y-21000D01*
G54D30*
X35273Y-36515D02*
X34970Y-36818D01*
X25362Y-31257D02*
X25362Y-30660D01*
X25362Y-30660D02*
X25365Y-30657D01*
X30610Y-36175D02*
X31362Y-36927D01*
G54D31*
X25553Y-31448D02*
X30280Y-36175D01*
G54D30*
X30280Y-36175D02*
X30610Y-36175D01*
X35273Y-36515D02*
X35760Y-36515D01*
X36820Y-33732D02*
X36820Y-35345D01*
X36820Y-35455D02*
X36820Y-35345D01*
X35760Y-36515D02*
X36820Y-35455D01*
X25553Y-31448D02*
X25362Y-31257D01*
X31375Y-36940D02*
X31362Y-36927D01*
X34848Y-36940D02*
X31375Y-36940D01*
X34970Y-36818D02*
X34848Y-36940D01*
G54D31*
X30000Y-20000D02*
X30000Y-21000D01*
X25000Y-39000D02*
X25000Y-38000D01*
G54D30*
X36405Y-33363D02*
X36405Y-32709D01*
X35890Y-33875D02*
X36405Y-33363D01*
G54D31*
X24000Y-39000D02*
X24000Y-38000D01*
G54D30*
X23300Y-22850D02*
X24075Y-22075D01*
X24075Y-22075D02*
X24075Y-21825D01*
X21875Y-21150D02*
X21875Y-20025D01*
X20450Y-21325D02*
X20675Y-21325D01*
X19850Y-21925D02*
X20450Y-21325D01*
X23300Y-22850D02*
X23300Y-23150D01*
X20475Y-23275D02*
X20475Y-22275D01*
X20575Y-23375D02*
X20475Y-23275D01*
X22225Y-23375D02*
X21300Y-23375D01*
X23300Y-23150D02*
X23075Y-23375D01*
X33260Y-27590D02*
X33260Y-28215D01*
X33255Y-27585D02*
X33260Y-27590D01*
X32430Y-29590D02*
X32400Y-29590D01*
X31200Y-28640D02*
X30475Y-28640D01*
X31205Y-28645D02*
X31200Y-28640D01*
X33336Y-30696D02*
X33336Y-30759D01*
G54D31*
X32400Y-28635D02*
X32400Y-29590D01*
X32400Y-29590D02*
X32400Y-29905D01*
G54D30*
X32400Y-30138D02*
X32400Y-29905D01*
X32583Y-30321D02*
X32400Y-30138D01*
X32961Y-30321D02*
X32583Y-30321D01*
X33336Y-30696D02*
X32961Y-30321D01*
X33336Y-30759D02*
X33055Y-31040D01*
X30080Y-31495D02*
X30120Y-31495D01*
X30085Y-31500D02*
X30080Y-31495D01*
X30085Y-32200D02*
X30085Y-31680D01*
X30085Y-31680D02*
X30085Y-31500D01*
X30238Y-31376D02*
X30666Y-31376D01*
X30120Y-31495D02*
X30238Y-31376D01*
X33867Y-31435D02*
X33867Y-31363D01*
X33867Y-31363D02*
X33925Y-31305D01*
X33867Y-33003D02*
X33867Y-31435D01*
X34820Y-31570D02*
X34820Y-31535D01*
X34820Y-31535D02*
X34745Y-31460D01*
X34791Y-31891D02*
X34791Y-31865D01*
X34820Y-31836D02*
X34820Y-31570D01*
X34791Y-31865D02*
X34820Y-31836D01*
X29050Y-24625D02*
X29050Y-24085D01*
X28450Y-24625D02*
X29050Y-24625D01*
X29350Y-23785D02*
X29490Y-23785D01*
X29050Y-24085D02*
X29350Y-23785D01*
X23970Y-33340D02*
X23970Y-33550D01*
X25390Y-31920D02*
X24725Y-32585D01*
X29150Y-31085D02*
X29540Y-31475D01*
X29750Y-30375D02*
X29150Y-30375D01*
X29175Y-29775D02*
X29750Y-29775D01*
X29150Y-30375D02*
X29150Y-31085D01*
X25390Y-31900D02*
X25390Y-31920D01*
X23280Y-33820D02*
X23115Y-33655D01*
X23700Y-33820D02*
X23280Y-33820D01*
X23970Y-33550D02*
X23700Y-33820D01*
X25550Y-28725D02*
X25550Y-28750D01*
X25100Y-29200D02*
X25100Y-29800D01*
X25550Y-28750D02*
X25100Y-29200D01*
X24296Y-31254D02*
X24146Y-31254D01*
X23950Y-32600D02*
X24650Y-31900D01*
X24146Y-31254D02*
X23950Y-31450D01*
X37037Y-39473D02*
X37037Y-38549D01*
X37030Y-39480D02*
X37037Y-39473D01*
X19975Y-35175D02*
X19750Y-34950D01*
X19756Y-32366D02*
X19756Y-30250D01*
X19760Y-32370D02*
X19756Y-32366D01*
X19750Y-34950D02*
X19750Y-34080D01*
X36221Y-24450D02*
X36221Y-25461D01*
X36221Y-25461D02*
X36212Y-25470D01*
X26894Y-33738D02*
X26894Y-33579D01*
X26894Y-33738D02*
X26341Y-34291D01*
X26202Y-35071D02*
X26202Y-35964D01*
X26110Y-34979D02*
X26202Y-35071D01*
X26564Y-31986D02*
X26492Y-31986D01*
X26852Y-32274D02*
X26564Y-31986D01*
X34822Y-31859D02*
X34791Y-31891D01*
X30085Y-32310D02*
X30085Y-32200D01*
X30275Y-32500D02*
X30085Y-32310D01*
X31052Y-32500D02*
X30275Y-32500D01*
X31052Y-32500D02*
X31410Y-32142D01*
X29360Y-32200D02*
X29360Y-32625D01*
X30666Y-33581D02*
X30666Y-34014D01*
X30515Y-33430D02*
X30666Y-33581D01*
X30165Y-33430D02*
X30515Y-33430D01*
X29697Y-32962D02*
X30165Y-33430D01*
X29360Y-32625D02*
X29697Y-32962D01*
X33885Y-27762D02*
X33732Y-27915D01*
X33732Y-27915D02*
X33732Y-28362D01*
X33732Y-28362D02*
X33849Y-28479D01*
X34200Y-27545D02*
X34200Y-27620D01*
X34058Y-27762D02*
X33925Y-27762D01*
X34200Y-27620D02*
X34058Y-27762D01*
X33925Y-27762D02*
X33885Y-27762D01*
G54D31*
X32400Y-28635D02*
X32400Y-27675D01*
G54D30*
X37125Y-19750D02*
X37125Y-20725D01*
X37350Y-19525D02*
X37125Y-19750D01*
X33875Y-32225D02*
X33425Y-32225D01*
X21925Y-39175D02*
X21925Y-38025D01*
X21675Y-39425D02*
X21925Y-39175D01*
X21925Y-38025D02*
X21925Y-38000D01*
X25075Y-33575D02*
X25075Y-32033D01*
X23736Y-30694D02*
X23162Y-30694D01*
X25075Y-32033D02*
X24296Y-31254D01*
X24296Y-31254D02*
X23736Y-30694D01*
X36931Y-36775D02*
X37799Y-36775D01*
G54D31*
X35600Y-36775D02*
X36931Y-36775D01*
G54D30*
X38575Y-35999D02*
X38575Y-35300D01*
X37799Y-36775D02*
X38575Y-35999D01*
X39275Y-35300D02*
X38575Y-35300D01*
X38502Y-32306D02*
X38502Y-33398D01*
X38502Y-33398D02*
X38500Y-33400D01*
X39275Y-32250D02*
X38860Y-32250D01*
X38860Y-32250D02*
X38804Y-32306D01*
X38804Y-32306D02*
X38502Y-32306D01*
X38502Y-32306D02*
X38053Y-32306D01*
X37900Y-32153D02*
X37900Y-31700D01*
X38053Y-32306D02*
X37900Y-32153D01*
X38500Y-30700D02*
X38946Y-30700D01*
X39275Y-31029D02*
X39275Y-31200D01*
X38946Y-30700D02*
X39275Y-31029D01*
X38500Y-30700D02*
X38500Y-29387D01*
X38500Y-29387D02*
X38015Y-28902D01*
X37712Y-28600D02*
X37807Y-28600D01*
G54D31*
X37475Y-28600D02*
X37712Y-28600D01*
G54D30*
X37934Y-28727D02*
X37934Y-28822D01*
X37807Y-28600D02*
X37934Y-28727D01*
X39000Y-26625D02*
X39568Y-26625D01*
X39592Y-28108D02*
X39050Y-28650D01*
X39592Y-26649D02*
X39592Y-28108D01*
X39568Y-26625D02*
X39592Y-26649D01*
X39125Y-25650D02*
X39125Y-25905D01*
X35450Y-24425D02*
X35475Y-24450D01*
X35475Y-24450D02*
X36221Y-24450D01*
X36221Y-24450D02*
X37225Y-24450D01*
X39150Y-24100D02*
X39125Y-24125D01*
X39125Y-24125D02*
X39125Y-25650D01*
X39000Y-26030D02*
X39000Y-26625D01*
X39125Y-25905D02*
X39000Y-26030D01*
X38150Y-26250D02*
X38150Y-20850D01*
X38150Y-20850D02*
X39000Y-20000D01*
X38150Y-26750D02*
X38150Y-26250D01*
X25975Y-23625D02*
X26875Y-23625D01*
X25450Y-22125D02*
X24975Y-22600D01*
X25975Y-22750D02*
X25975Y-23625D01*
X28325Y-22125D02*
X25450Y-22125D01*
X27475Y-25225D02*
X27600Y-25225D01*
X27300Y-25050D02*
X27475Y-25225D01*
X27300Y-24050D02*
X27300Y-25050D01*
X26875Y-23625D02*
X27300Y-24050D01*
X29300Y-26275D02*
X28450Y-26275D01*
X29725Y-26700D02*
X29300Y-26275D01*
X29975Y-26700D02*
X29725Y-26700D01*
X30281Y-27675D02*
X30281Y-27006D01*
X30281Y-27006D02*
X29975Y-26700D01*
X30066Y-29481D02*
X29931Y-29481D01*
X29725Y-28725D02*
X29725Y-28000D01*
X29931Y-29481D02*
X29150Y-28700D01*
X28850Y-37050D02*
X28850Y-36850D01*
X28850Y-36850D02*
X29550Y-36150D01*
X29900Y-37050D02*
X28850Y-37050D01*
X33750Y-24425D02*
X31325Y-24425D01*
X28550Y-22350D02*
X28550Y-22800D01*
X28325Y-22125D02*
X28550Y-22350D01*
X29175Y-23150D02*
X29175Y-22175D01*
X29200Y-23175D02*
X29175Y-23150D01*
X31325Y-24425D02*
X30075Y-23175D01*
X35450Y-24425D02*
X33750Y-24425D01*
X32375Y-22425D02*
X31675Y-22425D01*
X33750Y-24425D02*
X32375Y-23050D01*
X39337Y-28362D02*
X39050Y-28650D01*
X19975Y-36450D02*
X19975Y-35175D01*
X23875Y-36825D02*
X24450Y-36250D01*
X23225Y-36825D02*
X23875Y-36825D01*
X23200Y-36800D02*
X23225Y-36825D01*
X25075Y-34775D02*
X25075Y-33575D01*
X24700Y-35150D02*
X25075Y-34775D01*
X39275Y-31200D02*
X39275Y-32250D01*
X39275Y-33075D02*
X39275Y-33875D01*
X39275Y-34700D02*
X39275Y-35300D01*
X39275Y-35300D02*
X39275Y-35975D01*
X39050Y-28650D02*
X39050Y-29800D01*
X21125Y-25975D02*
X21125Y-26000D01*
X21150Y-25975D02*
X21125Y-25975D01*
X20200Y-27725D02*
X20200Y-26300D01*
X20425Y-27950D02*
X20200Y-27725D01*
X22050Y-27900D02*
X21875Y-27900D01*
X23050Y-26900D02*
X22050Y-27900D01*
X23500Y-28050D02*
X23025Y-28525D01*
X24275Y-28050D02*
X23500Y-28050D01*
X24350Y-27975D02*
X24275Y-28050D01*
X24800Y-26375D02*
X24350Y-26375D01*
X25550Y-25625D02*
X24800Y-26375D01*
X25550Y-28725D02*
X25550Y-27225D01*
X35150Y-29600D02*
X35150Y-28450D01*
X35850Y-28925D02*
X35850Y-29575D01*
X36425Y-29325D02*
X36425Y-29850D01*
X36725Y-30400D02*
X36700Y-30425D01*
X36700Y-30425D02*
X36700Y-31025D01*
X37396Y-31141D02*
X37490Y-30985D01*
X36960Y-31577D02*
X37396Y-31141D01*
X36960Y-33116D02*
X36960Y-31577D01*
X35890Y-34190D02*
X36960Y-33116D01*
G54D31*
X33867Y-31615D02*
X33867Y-33003D01*
X34791Y-31891D02*
X34765Y-31865D01*
X37900Y-31700D02*
X37975Y-31700D01*
X38500Y-33400D02*
X38427Y-33400D01*
X35600Y-37400D02*
X35000Y-38000D01*
X35600Y-36775D02*
X35600Y-37400D01*
X38500Y-30700D02*
X38406Y-30700D01*
X38406Y-29293D02*
X38015Y-28902D01*
X38575Y-35300D02*
X38575Y-35131D01*
X35000Y-39000D02*
X35000Y-38000D01*
X39000Y-20000D02*
X38424Y-20575D01*
X38015Y-28902D02*
X37934Y-28822D01*
X23162Y-30694D02*
X23605Y-30694D01*
X32400Y-27675D02*
X32062Y-27675D01*
X34200Y-27300D02*
X34200Y-27487D01*
X34200Y-27487D02*
X34200Y-27545D01*
X30066Y-27890D02*
X30066Y-29481D01*
X30281Y-27675D02*
X30066Y-27890D01*
X32062Y-27675D02*
X30281Y-27675D01*
G54D30*
X27793Y-23864D02*
X27793Y-23863D01*
G54D31*
X27793Y-23864D02*
X27793Y-24700D01*
X27675Y-24700D02*
X27793Y-24700D01*
G54D30*
X26925Y-22995D02*
X26925Y-22900D01*
X27793Y-23863D02*
X26925Y-22995D01*
X30756Y-21926D02*
X30253Y-21926D01*
G54D31*
X33820Y-21926D02*
X30756Y-21926D01*
X34193Y-22300D02*
X33820Y-21926D01*
G54D30*
X30225Y-21955D02*
X30225Y-22300D01*
X30253Y-21926D02*
X30225Y-21955D01*
X31170Y-23450D02*
X31005Y-23450D01*
X31295Y-23450D02*
X31170Y-23450D01*
X31005Y-23450D02*
X30300Y-22745D01*
X30225Y-22300D02*
X30225Y-22670D01*
X30225Y-22670D02*
X30300Y-22745D01*
X27976Y-24805D02*
X27780Y-24805D01*
X27780Y-24805D02*
X27675Y-24700D01*
X30700Y-34410D02*
X30785Y-34410D01*
X30785Y-34410D02*
X31775Y-35400D01*
G54D31*
X34337Y-23300D02*
X34337Y-22300D01*
X35100Y-23300D02*
X34337Y-23300D01*
X34337Y-23300D02*
X34100Y-23300D01*
X34100Y-22300D02*
X34193Y-22300D01*
X34193Y-22300D02*
X34337Y-22300D01*
X27976Y-32130D02*
X27976Y-24805D01*
X30257Y-34410D02*
X27976Y-32130D01*
X30704Y-34410D02*
X30700Y-34410D01*
X30700Y-34410D02*
X30257Y-34410D01*
G54D30*
X34407Y-31020D02*
X34407Y-28035D01*
X34407Y-32356D02*
X34557Y-32506D01*
X34557Y-32506D02*
X34557Y-33169D01*
X34557Y-33169D02*
X34945Y-33560D01*
X34407Y-31020D02*
X34407Y-32356D01*
X34407Y-28035D02*
X34385Y-28013D01*
X33500Y-26500D02*
X33500Y-26828D01*
X33804Y-27132D02*
X33804Y-27297D01*
X33500Y-26828D02*
X33804Y-27132D01*
X33500Y-26500D02*
X33500Y-26646D01*
X34265Y-28397D02*
X34267Y-28397D01*
X33496Y-25500D02*
X33117Y-25879D01*
X33117Y-25879D02*
X33117Y-26846D01*
X33117Y-26846D02*
X33576Y-27305D01*
X33993Y-28125D02*
X34265Y-28397D01*
X34308Y-33115D02*
X34601Y-33408D01*
X34601Y-33408D02*
X34601Y-33845D01*
X34601Y-33845D02*
X34945Y-34190D01*
X33496Y-25500D02*
X33500Y-25500D01*
X34280Y-33087D02*
X34308Y-33115D01*
X34280Y-28410D02*
X34280Y-33087D01*
X34267Y-28397D02*
X34280Y-28410D01*
G54D31*
X32755Y-27450D02*
X32755Y-30046D01*
X32527Y-27222D02*
X32755Y-27450D01*
X31633Y-27222D02*
X32527Y-27222D01*
X30480Y-26069D02*
X31633Y-27222D01*
X33000Y-27195D02*
X33000Y-27195D01*
X33000Y-30040D02*
X33000Y-27195D01*
X33370Y-30410D02*
X33000Y-30040D01*
X33036Y-27018D02*
X32881Y-27018D01*
X33510Y-27493D02*
X33036Y-27018D01*
X33510Y-30030D02*
X33510Y-27493D01*
X26300Y-28776D02*
X27338Y-27737D01*
X26300Y-29832D02*
X26300Y-28776D01*
X37000Y-23300D02*
X35700Y-23300D01*
X37000Y-22300D02*
X35700Y-22300D01*
X35437Y-26750D02*
X35387Y-26700D01*
X36050Y-26750D02*
X35437Y-26750D01*
X35100Y-26700D02*
X35387Y-26700D01*
X34200Y-26700D02*
X35100Y-26700D01*
X37900Y-34300D02*
X37900Y-33920D01*
G54D30*
X38780Y-31700D02*
X38500Y-31700D01*
X32121Y-34493D02*
X32425Y-34190D01*
X32121Y-35294D02*
X32121Y-34493D01*
X31775Y-35640D02*
X32121Y-35294D01*
X31307Y-35640D02*
X31775Y-35640D01*
G54D31*
X32110Y-34190D02*
X31913Y-34386D01*
X31913Y-34386D02*
X31912Y-35238D01*
G54D30*
X30098Y-34938D02*
X30100Y-34940D01*
X30098Y-34502D02*
X30098Y-34938D01*
X32300Y-34632D02*
X32300Y-34534D01*
X33054Y-33780D02*
X33055Y-33560D01*
X32300Y-34534D02*
X33054Y-33780D01*
G54D31*
X32300Y-36000D02*
X32300Y-34632D01*
X32300Y-34632D02*
X32300Y-34629D01*
X31760Y-33559D02*
X31620Y-33700D01*
X32425Y-33560D02*
X31760Y-33559D01*
X32400Y-26925D02*
X32400Y-26600D01*
G54D30*
X35100Y-22300D02*
X35100Y-22203D01*
X34883Y-21986D02*
X34786Y-21986D01*
X35100Y-22203D02*
X34883Y-21986D01*
G54D31*
X33500Y-23300D02*
X33309Y-23300D01*
X33309Y-23300D02*
X33248Y-23300D01*
G54D30*
X33195Y-22300D02*
X33500Y-22300D01*
X27675Y-22900D02*
X27675Y-23008D01*
X27914Y-23247D02*
X28089Y-23247D01*
X27675Y-23008D02*
X27914Y-23247D01*
X27675Y-22900D02*
X27741Y-22900D01*
G54D31*
X26925Y-24329D02*
X26980Y-24275D01*
X26925Y-24700D02*
X26925Y-24329D01*
G54D30*
X30975Y-22300D02*
X30975Y-22735D01*
X30975Y-22735D02*
X30900Y-22810D01*
G54D31*
X35612Y-31412D02*
X35185Y-31830D01*
X36267Y-31413D02*
X35612Y-31412D01*
G54D30*
X35157Y-34088D02*
X35157Y-34938D01*
X34945Y-33875D02*
X35157Y-34088D01*
G54D31*
X35007Y-35088D02*
X35007Y-35705D01*
X35157Y-34938D02*
X35007Y-35088D01*
X26000Y-39000D02*
X26000Y-38000D01*
G54D30*
X32485Y-37485D02*
X33000Y-38000D01*
X26985Y-37485D02*
X32485Y-37485D01*
X25650Y-36150D02*
X26985Y-37485D01*
X25650Y-34035D02*
X25650Y-36150D01*
X31779Y-31046D02*
X31584Y-31241D01*
X32732Y-31048D02*
X31779Y-31046D01*
X32740Y-31040D02*
X32732Y-31048D01*
G54D31*
X33000Y-39000D02*
X33000Y-38000D01*
X32000Y-39000D02*
X32000Y-38000D01*
G54D30*
X29849Y-30949D02*
X29849Y-30949D01*
G54D31*
X30309Y-33030D02*
X29849Y-32570D01*
X30309Y-33030D02*
X30666Y-33030D01*
G54D30*
X29849Y-32570D02*
X29849Y-30949D01*
G54D31*
X23162Y-31127D02*
X22792Y-31127D01*
X22792Y-31127D02*
X22717Y-31052D01*
X31024Y-33030D02*
X31024Y-33030D01*
X32028Y-33030D02*
X31024Y-33030D01*
X33682Y-31376D02*
X32028Y-33030D01*
X33682Y-31062D02*
X33682Y-31376D01*
X30666Y-33030D02*
X31024Y-33030D01*
G54D30*
X30777Y-30077D02*
X30666Y-30077D01*
X31340Y-30640D02*
X30777Y-30077D01*
X31340Y-30915D02*
X31340Y-30640D01*
X31360Y-30935D02*
X31340Y-30915D01*
X33055Y-30725D02*
X32907Y-30576D01*
X32907Y-30576D02*
X31935Y-30576D01*
X31935Y-30576D02*
X31622Y-30263D01*
X31208Y-30092D02*
X31193Y-30077D01*
X31193Y-30077D02*
X30666Y-30077D01*
G54D31*
X22786Y-31993D02*
X23162Y-31993D01*
X22700Y-31907D02*
X22786Y-31993D01*
G54D30*
X30666Y-34969D02*
X30839Y-35142D01*
X37197Y-31837D02*
X37202Y-31832D01*
X37197Y-34929D02*
X37197Y-31837D01*
X31163Y-35142D02*
X30839Y-35142D01*
G54D31*
X22710Y-30280D02*
X22729Y-30260D01*
X23162Y-30261D02*
X22729Y-30260D01*
G54D30*
X30666Y-34969D02*
X30535Y-34969D01*
X29520Y-34656D02*
X29520Y-34245D01*
X29988Y-35124D02*
X29520Y-34656D01*
X30381Y-35124D02*
X29988Y-35124D01*
X30535Y-34969D02*
X30381Y-35124D01*
G54D31*
X25535Y-30261D02*
X29520Y-34245D01*
X23162Y-30261D02*
X25535Y-30261D01*
G54D30*
X23162Y-29828D02*
X23304Y-29828D01*
X23520Y-29612D02*
X23520Y-29499D01*
X23304Y-29828D02*
X23520Y-29612D01*
X25484Y-30422D02*
X25485Y-30422D01*
X30535Y-35770D02*
X30666Y-35638D01*
X30058Y-35770D02*
X30535Y-35770D01*
X28546Y-34258D02*
X30058Y-35770D01*
X28546Y-33472D02*
X28546Y-34258D01*
X25485Y-30422D02*
X28546Y-33472D01*
G54D31*
X25484Y-30422D02*
X25526Y-30422D01*
G54D30*
X30635Y-35670D02*
X30666Y-35638D01*
X23162Y-29828D02*
X23192Y-29828D01*
X30242Y-28712D02*
X30242Y-28437D01*
X30080Y-31255D02*
X30242Y-31092D01*
X30242Y-31092D02*
X30242Y-28712D01*
X30570Y-28109D02*
X30666Y-28109D01*
X30242Y-28437D02*
X30570Y-28109D01*
X23162Y-32859D02*
X23309Y-32859D01*
X23520Y-33070D02*
X23520Y-33500D01*
X23309Y-32859D02*
X23520Y-33070D01*
G54D31*
X32110Y-30410D02*
X32110Y-29194D01*
X32110Y-29194D02*
X31024Y-28109D01*
X30845Y-28109D02*
X31024Y-28109D01*
X30666Y-28109D02*
X30845Y-28109D01*
G54D30*
X31090Y-29210D02*
X30783Y-29210D01*
X30783Y-29210D02*
X30666Y-29093D01*
X31421Y-29546D02*
X31421Y-30326D01*
G54D31*
X31090Y-29210D02*
X31421Y-29546D01*
G54D30*
X31530Y-30435D02*
X31530Y-30725D01*
X31421Y-30326D02*
X31530Y-30435D01*
X22733Y-32622D02*
X22733Y-32496D01*
X22733Y-32496D02*
X22803Y-32426D01*
X22803Y-32426D02*
X23162Y-32426D01*
X34930Y-31389D02*
X34934Y-31389D01*
G54D31*
X35889Y-33244D02*
X34847Y-32202D01*
G54D30*
X34840Y-32195D02*
X34847Y-32202D01*
X34840Y-32080D02*
X34840Y-32195D01*
X34990Y-31930D02*
X34840Y-32080D01*
X34990Y-31445D02*
X34990Y-31930D01*
X34934Y-31389D02*
X34990Y-31445D01*
X29163Y-25818D02*
X29163Y-25797D01*
G54D31*
X33693Y-25269D02*
X33954Y-25530D01*
X33954Y-25530D02*
X33954Y-25869D01*
G54D30*
X33597Y-25173D02*
X33693Y-25269D01*
X29787Y-25173D02*
X33597Y-25173D01*
X29163Y-25797D02*
X29787Y-25173D01*
X29163Y-25818D02*
X29163Y-25817D01*
X36800Y-25400D02*
X36800Y-25993D01*
X36543Y-26250D02*
X36050Y-26250D01*
X36800Y-25993D02*
X36543Y-26250D01*
G54D31*
X34931Y-31391D02*
X34930Y-31389D01*
X34930Y-31389D02*
X34770Y-31230D01*
X34770Y-31230D02*
X34770Y-27300D01*
X34770Y-27300D02*
X34427Y-26957D01*
X34427Y-26957D02*
X33893Y-26957D01*
X33893Y-26957D02*
X33828Y-26892D01*
X33828Y-26892D02*
X33828Y-25996D01*
X33828Y-25996D02*
X33954Y-25869D01*
X36219Y-26250D02*
X36388Y-26250D01*
X36219Y-26250D02*
X36050Y-26250D01*
X36050Y-26250D02*
X35711Y-26250D01*
X35711Y-26250D02*
X35331Y-25869D01*
X35331Y-25869D02*
X33954Y-25869D01*
X27000Y-39000D02*
X27000Y-38000D01*
X29000Y-39000D02*
X29000Y-38000D01*
X30000Y-39000D02*
X30000Y-38000D01*
X31000Y-39000D02*
X31000Y-38000D01*
X28000Y-39000D02*
X28000Y-38000D01*
G54D30*
X34159Y-30333D02*
X34159Y-30233D01*
X32700Y-36222D02*
X32700Y-34421D01*
G54D31*
X31800Y-36693D02*
X31800Y-36580D01*
X31800Y-36580D02*
X32037Y-36342D01*
X32037Y-36342D02*
X32582Y-36342D01*
X32582Y-36342D02*
X32700Y-36222D01*
G54D30*
X32700Y-34421D02*
X34159Y-32962D01*
X34159Y-32962D02*
X34159Y-30333D01*
X34159Y-30233D02*
X34160Y-30233D01*
G54D31*
X34000Y-39000D02*
X34000Y-38000D01*
X33929Y-30002D02*
X33827Y-30002D01*
X34160Y-30233D02*
X33929Y-30002D01*
G54D30*
X28181Y-23731D02*
X28181Y-32148D01*
X28175Y-23725D02*
X28181Y-23731D01*
G54D31*
X28181Y-32148D02*
X30340Y-34308D01*
X30340Y-34308D02*
X30924Y-34308D01*
X30924Y-34308D02*
X31693Y-35077D01*
G54D30*
X34581Y-31091D02*
X34580Y-31090D01*
X34581Y-31638D02*
X34581Y-31091D01*
X37551Y-30598D02*
X37551Y-30596D01*
G54D31*
X36992Y-28600D02*
X36725Y-28600D01*
G54D30*
X37050Y-28657D02*
X36992Y-28600D01*
X37050Y-30095D02*
X37050Y-28657D01*
X37551Y-30596D02*
X37050Y-30095D01*
X36072Y-33329D02*
X36072Y-32077D01*
G54D31*
X36072Y-33329D02*
X35984Y-33417D01*
X35984Y-33417D02*
X35747Y-33417D01*
X35575Y-33245D02*
X35747Y-33417D01*
G54D30*
X36072Y-32077D02*
X37551Y-30598D01*
X34585Y-32255D02*
X34585Y-31642D01*
X34585Y-32255D02*
X34611Y-32281D01*
G54D31*
X35025Y-32695D02*
X34611Y-32281D01*
G54D30*
X34585Y-31642D02*
X34581Y-31638D01*
X34581Y-31638D02*
X34576Y-31633D01*
X34548Y-31605D02*
X34581Y-31638D01*
X36725Y-28600D02*
X36725Y-28265D01*
X36725Y-28265D02*
X36210Y-27750D01*
X36210Y-27750D02*
X36050Y-27750D01*
X36050Y-27250D02*
X35750Y-27250D01*
X35673Y-27327D02*
X35673Y-27750D01*
X35750Y-27250D02*
X35673Y-27327D01*
X35259Y-33874D02*
X35260Y-33560D01*
X35260Y-33875D02*
X35259Y-33874D01*
G54D31*
X35880Y-27750D02*
X35711Y-27750D01*
X35965Y-27750D02*
X35880Y-27750D01*
X36050Y-27750D02*
X35965Y-27750D01*
X35711Y-27750D02*
X35673Y-27750D01*
X35550Y-27750D02*
X35400Y-27900D01*
X35673Y-27750D02*
X35550Y-27750D01*
X37900Y-30700D02*
X37712Y-30700D01*
X37611Y-30598D02*
X37551Y-30598D01*
X37712Y-30700D02*
X37611Y-30598D01*
X35100Y-27600D02*
X35100Y-27300D01*
X35400Y-27900D02*
X35100Y-27600D01*
X35025Y-32695D02*
X35575Y-33245D01*
G54D30*
X28840Y-34032D02*
X28840Y-34032D01*
G54D31*
X28840Y-34315D02*
X30051Y-35526D01*
G54D30*
X28840Y-34315D02*
X28840Y-34032D01*
G54D31*
X27580Y-32060D02*
X28180Y-32660D01*
X27580Y-26180D02*
X27580Y-32060D01*
X27580Y-26180D02*
X24100Y-22700D01*
G54D30*
X33370Y-34190D02*
X33383Y-34203D01*
X33383Y-34203D02*
X33384Y-35560D01*
G54D10*
G36*
X28393Y-34072D02*
X25661Y-31340D01*
X25661Y-31340D01*
X25514Y-31193D01*
X25514Y-30804D01*
X25542Y-30776D01*
X25566Y-30718D01*
X28393Y-33535D01*
X28393Y-34072D01*
X28393Y-34072D01*
G37*
G54D32*
X28393Y-34072D02*
X25661Y-31340D01*
X25661Y-31340D01*
X25514Y-31193D01*
X25514Y-30804D01*
X25542Y-30776D01*
X25566Y-30718D01*
X28393Y-33535D01*
X28393Y-34072D01*
G54D10*
G36*
X30714Y-31416D02*
X30706Y-31416D01*
X30706Y-31424D01*
X30626Y-31424D01*
X30626Y-31416D01*
X30619Y-31416D01*
X30619Y-31336D01*
X30626Y-31336D01*
X30626Y-31328D01*
X30706Y-31328D01*
X30706Y-31336D01*
X30714Y-31336D01*
X30714Y-31416D01*
X30714Y-31416D01*
G37*
G54D32*
X30714Y-31416D02*
X30706Y-31416D01*
X30706Y-31424D01*
X30626Y-31424D01*
X30626Y-31416D01*
X30619Y-31416D01*
X30619Y-31336D01*
X30626Y-31336D01*
X30626Y-31328D01*
X30706Y-31328D01*
X30706Y-31336D01*
X30714Y-31336D01*
X30714Y-31416D01*
G54D10*
G36*
X31269Y-29889D02*
X31249Y-29882D01*
X31166Y-29881D01*
X31092Y-29912D01*
X31092Y-29854D01*
X31072Y-29807D01*
X31035Y-29770D01*
X30988Y-29750D01*
X30936Y-29750D01*
X30394Y-29750D01*
X30394Y-29420D01*
X30397Y-29420D01*
X30988Y-29420D01*
X31018Y-29407D01*
X31048Y-29419D01*
X31082Y-29419D01*
X31269Y-29608D01*
X31269Y-29889D01*
X31269Y-29889D01*
G37*
G54D32*
X31269Y-29889D02*
X31249Y-29882D01*
X31166Y-29881D01*
X31092Y-29912D01*
X31092Y-29854D01*
X31072Y-29807D01*
X31035Y-29770D01*
X30988Y-29750D01*
X30936Y-29750D01*
X30394Y-29750D01*
X30394Y-29420D01*
X30397Y-29420D01*
X30988Y-29420D01*
X31018Y-29407D01*
X31048Y-29419D01*
X31082Y-29419D01*
X31269Y-29608D01*
X31269Y-29889D01*
G54D10*
G36*
X31957Y-29257D02*
X31957Y-30265D01*
X31932Y-30290D01*
X31912Y-30337D01*
X31832Y-30257D01*
X31832Y-30221D01*
X31800Y-30144D01*
X31741Y-30085D01*
X31663Y-30053D01*
X31580Y-30052D01*
X31574Y-30055D01*
X31574Y-29547D01*
X31574Y-29547D01*
X31574Y-29547D01*
X31574Y-29546D01*
X31568Y-29520D01*
X31562Y-29488D01*
X31562Y-29488D01*
X31562Y-29487D01*
X31547Y-29465D01*
X31530Y-29439D01*
X31300Y-29205D01*
X31300Y-29168D01*
X31268Y-29091D01*
X31209Y-29032D01*
X31131Y-29000D01*
X31092Y-29000D01*
X31092Y-28870D01*
X31072Y-28822D01*
X31035Y-28786D01*
X30988Y-28766D01*
X30936Y-28766D01*
X30394Y-28766D01*
X30394Y-28712D01*
X30394Y-28500D01*
X30459Y-28435D01*
X30988Y-28435D01*
X31035Y-28416D01*
X31072Y-28379D01*
X31074Y-28374D01*
X31957Y-29257D01*
X31957Y-29257D01*
G37*
G54D32*
X31957Y-29257D02*
X31957Y-30265D01*
X31932Y-30290D01*
X31912Y-30337D01*
X31832Y-30257D01*
X31832Y-30221D01*
X31800Y-30144D01*
X31741Y-30085D01*
X31663Y-30053D01*
X31580Y-30052D01*
X31574Y-30055D01*
X31574Y-29547D01*
X31574Y-29547D01*
X31574Y-29547D01*
X31574Y-29546D01*
X31568Y-29520D01*
X31562Y-29488D01*
X31562Y-29488D01*
X31562Y-29487D01*
X31547Y-29465D01*
X31530Y-29439D01*
X31300Y-29205D01*
X31300Y-29168D01*
X31268Y-29091D01*
X31209Y-29032D01*
X31131Y-29000D01*
X31092Y-29000D01*
X31092Y-28870D01*
X31072Y-28822D01*
X31035Y-28786D01*
X30988Y-28766D01*
X30936Y-28766D01*
X30394Y-28766D01*
X30394Y-28712D01*
X30394Y-28500D01*
X30459Y-28435D01*
X30988Y-28435D01*
X31035Y-28416D01*
X31072Y-28379D01*
X31074Y-28374D01*
X31957Y-29257D01*
G54D10*
G36*
X33102Y-31740D02*
X31965Y-32877D01*
X31092Y-32877D01*
X31092Y-32807D01*
X31072Y-32759D01*
X31035Y-32723D01*
X30988Y-32703D01*
X30936Y-32703D01*
X30345Y-32703D01*
X30298Y-32723D01*
X30261Y-32759D01*
X30259Y-32764D01*
X30001Y-32507D01*
X30001Y-31449D01*
X30038Y-31464D01*
X30121Y-31465D01*
X30145Y-31454D01*
X30121Y-31479D01*
X30121Y-31623D01*
X30159Y-31715D01*
X30230Y-31785D01*
X30253Y-31795D01*
X30241Y-31823D01*
X30241Y-31875D01*
X30241Y-32268D01*
X30261Y-32316D01*
X30298Y-32353D01*
X30345Y-32372D01*
X30397Y-32372D01*
X30988Y-32372D01*
X31035Y-32353D01*
X31072Y-32316D01*
X31092Y-32268D01*
X31092Y-32217D01*
X31092Y-32160D01*
X31101Y-32153D01*
X31543Y-31712D01*
X31625Y-31712D01*
X33070Y-31712D01*
X33095Y-31737D01*
X33102Y-31740D01*
X33102Y-31740D01*
G37*
G54D32*
X33102Y-31740D02*
X31965Y-32877D01*
X31092Y-32877D01*
X31092Y-32807D01*
X31072Y-32759D01*
X31035Y-32723D01*
X30988Y-32703D01*
X30936Y-32703D01*
X30345Y-32703D01*
X30298Y-32723D01*
X30261Y-32759D01*
X30259Y-32764D01*
X30001Y-32507D01*
X30001Y-31449D01*
X30038Y-31464D01*
X30121Y-31465D01*
X30145Y-31454D01*
X30121Y-31479D01*
X30121Y-31623D01*
X30159Y-31715D01*
X30230Y-31785D01*
X30253Y-31795D01*
X30241Y-31823D01*
X30241Y-31875D01*
X30241Y-32268D01*
X30261Y-32316D01*
X30298Y-32353D01*
X30345Y-32372D01*
X30397Y-32372D01*
X30988Y-32372D01*
X31035Y-32353D01*
X31072Y-32316D01*
X31092Y-32268D01*
X31092Y-32217D01*
X31092Y-32160D01*
X31101Y-32153D01*
X31543Y-31712D01*
X31625Y-31712D01*
X33070Y-31712D01*
X33095Y-31737D01*
X33102Y-31740D01*
G54D10*
G36*
X33383Y-30200D02*
X33375Y-30200D01*
X33152Y-29977D01*
X33152Y-27350D01*
X33358Y-27556D01*
X33357Y-29885D01*
X33332Y-29910D01*
X33300Y-29988D01*
X33299Y-30071D01*
X33331Y-30148D01*
X33383Y-30200D01*
X33383Y-30200D01*
G37*
G54D32*
X33383Y-30200D02*
X33375Y-30200D01*
X33152Y-29977D01*
X33152Y-27350D01*
X33358Y-27556D01*
X33357Y-29885D01*
X33332Y-29910D01*
X33300Y-29988D01*
X33299Y-30071D01*
X33331Y-30148D01*
X33383Y-30200D01*
G54D10*
G36*
X34618Y-30880D02*
X34559Y-30879D01*
X34559Y-28135D01*
X34562Y-28132D01*
X34594Y-28054D01*
X34595Y-27971D01*
X34563Y-27894D01*
X34504Y-27835D01*
X34426Y-27803D01*
X34343Y-27802D01*
X34266Y-27834D01*
X34207Y-27893D01*
X34175Y-27971D01*
X34174Y-28015D01*
X34171Y-28006D01*
X34112Y-27947D01*
X34034Y-27915D01*
X33951Y-27914D01*
X33874Y-27946D01*
X33815Y-28005D01*
X33783Y-28083D01*
X33782Y-28166D01*
X33814Y-28243D01*
X33873Y-28302D01*
X33951Y-28334D01*
X33987Y-28334D01*
X34127Y-28475D01*
X34127Y-29985D01*
X34036Y-29894D01*
X33987Y-29861D01*
X33982Y-29860D01*
X33946Y-29824D01*
X33869Y-29792D01*
X33785Y-29792D01*
X33708Y-29824D01*
X33662Y-29870D01*
X33663Y-27496D01*
X33694Y-27483D01*
X33697Y-27480D01*
X33733Y-27495D01*
X33763Y-27566D01*
X33833Y-27636D01*
X33925Y-27675D01*
X34024Y-27675D01*
X34097Y-27675D01*
X34160Y-27612D01*
X34160Y-27340D01*
X34152Y-27340D01*
X34152Y-27260D01*
X34160Y-27260D01*
X34160Y-27252D01*
X34240Y-27252D01*
X34240Y-27260D01*
X34247Y-27260D01*
X34247Y-27340D01*
X34240Y-27340D01*
X34240Y-27612D01*
X34302Y-27675D01*
X34375Y-27675D01*
X34474Y-27675D01*
X34566Y-27636D01*
X34618Y-27585D01*
X34618Y-30880D01*
X34618Y-30880D01*
G37*
G54D32*
X34618Y-30880D02*
X34559Y-30879D01*
X34559Y-28135D01*
X34562Y-28132D01*
X34594Y-28054D01*
X34595Y-27971D01*
X34563Y-27894D01*
X34504Y-27835D01*
X34426Y-27803D01*
X34343Y-27802D01*
X34266Y-27834D01*
X34207Y-27893D01*
X34175Y-27971D01*
X34174Y-28015D01*
X34171Y-28006D01*
X34112Y-27947D01*
X34034Y-27915D01*
X33951Y-27914D01*
X33874Y-27946D01*
X33815Y-28005D01*
X33783Y-28083D01*
X33782Y-28166D01*
X33814Y-28243D01*
X33873Y-28302D01*
X33951Y-28334D01*
X33987Y-28334D01*
X34127Y-28475D01*
X34127Y-29985D01*
X34036Y-29894D01*
X33987Y-29861D01*
X33982Y-29860D01*
X33946Y-29824D01*
X33869Y-29792D01*
X33785Y-29792D01*
X33708Y-29824D01*
X33662Y-29870D01*
X33663Y-27496D01*
X33694Y-27483D01*
X33697Y-27480D01*
X33733Y-27495D01*
X33763Y-27566D01*
X33833Y-27636D01*
X33925Y-27675D01*
X34024Y-27675D01*
X34097Y-27675D01*
X34160Y-27612D01*
X34160Y-27340D01*
X34152Y-27340D01*
X34152Y-27260D01*
X34160Y-27260D01*
X34160Y-27252D01*
X34240Y-27252D01*
X34240Y-27260D01*
X34247Y-27260D01*
X34247Y-27340D01*
X34240Y-27340D01*
X34240Y-27612D01*
X34302Y-27675D01*
X34375Y-27675D01*
X34474Y-27675D01*
X34566Y-27636D01*
X34618Y-27585D01*
X34618Y-30880D01*
G54D10*
G36*
X34837Y-31866D02*
X34737Y-31966D01*
X34737Y-31778D01*
X34758Y-31757D01*
X34790Y-31679D01*
X34791Y-31596D01*
X34759Y-31519D01*
X34733Y-31493D01*
X34733Y-31409D01*
X34822Y-31497D01*
X34823Y-31498D01*
X34837Y-31508D01*
X34837Y-31866D01*
X34837Y-31866D01*
G37*
G54D32*
X34837Y-31866D02*
X34737Y-31966D01*
X34737Y-31778D01*
X34758Y-31757D01*
X34790Y-31679D01*
X34791Y-31596D01*
X34759Y-31519D01*
X34733Y-31493D01*
X34733Y-31409D01*
X34822Y-31497D01*
X34823Y-31498D01*
X34837Y-31508D01*
X34837Y-31866D01*
G54D10*
G36*
X37336Y-30597D02*
X36475Y-31459D01*
X36476Y-31454D01*
X36477Y-31371D01*
X36445Y-31294D01*
X36386Y-31235D01*
X36308Y-31203D01*
X36225Y-31202D01*
X36148Y-31234D01*
X36122Y-31260D01*
X35612Y-31259D01*
X35584Y-31265D01*
X35555Y-31270D01*
X35555Y-31271D01*
X35554Y-31271D01*
X35530Y-31287D01*
X35505Y-31303D01*
X35181Y-31619D01*
X35143Y-31619D01*
X35142Y-31620D01*
X35142Y-31445D01*
X35130Y-31386D01*
X35130Y-31386D01*
X35097Y-31337D01*
X35042Y-31282D01*
X35027Y-31272D01*
X35027Y-31272D01*
X34923Y-31167D01*
X34923Y-27555D01*
X34947Y-27555D01*
X34947Y-27600D01*
X34959Y-27658D01*
X34992Y-27707D01*
X35116Y-27832D01*
X35112Y-27842D01*
X35112Y-27956D01*
X35156Y-28062D01*
X35236Y-28143D01*
X35342Y-28187D01*
X35456Y-28187D01*
X35562Y-28143D01*
X35643Y-28063D01*
X35685Y-27962D01*
X35700Y-27978D01*
X35748Y-27998D01*
X35800Y-27998D01*
X36242Y-27998D01*
X36467Y-28223D01*
X36439Y-28251D01*
X36420Y-28299D01*
X36420Y-28350D01*
X36420Y-28900D01*
X36439Y-28948D01*
X36476Y-28985D01*
X36524Y-29005D01*
X36575Y-29005D01*
X36897Y-29005D01*
X36897Y-30095D01*
X36909Y-30153D01*
X36942Y-30202D01*
X37336Y-30597D01*
X37336Y-30597D01*
G37*
G54D32*
X37336Y-30597D02*
X36475Y-31459D01*
X36476Y-31454D01*
X36477Y-31371D01*
X36445Y-31294D01*
X36386Y-31235D01*
X36308Y-31203D01*
X36225Y-31202D01*
X36148Y-31234D01*
X36122Y-31260D01*
X35612Y-31259D01*
X35584Y-31265D01*
X35555Y-31270D01*
X35555Y-31271D01*
X35554Y-31271D01*
X35530Y-31287D01*
X35505Y-31303D01*
X35181Y-31619D01*
X35143Y-31619D01*
X35142Y-31620D01*
X35142Y-31445D01*
X35130Y-31386D01*
X35130Y-31386D01*
X35097Y-31337D01*
X35042Y-31282D01*
X35027Y-31272D01*
X35027Y-31272D01*
X34923Y-31167D01*
X34923Y-27555D01*
X34947Y-27555D01*
X34947Y-27600D01*
X34959Y-27658D01*
X34992Y-27707D01*
X35116Y-27832D01*
X35112Y-27842D01*
X35112Y-27956D01*
X35156Y-28062D01*
X35236Y-28143D01*
X35342Y-28187D01*
X35456Y-28187D01*
X35562Y-28143D01*
X35643Y-28063D01*
X35685Y-27962D01*
X35700Y-27978D01*
X35748Y-27998D01*
X35800Y-27998D01*
X36242Y-27998D01*
X36467Y-28223D01*
X36439Y-28251D01*
X36420Y-28299D01*
X36420Y-28350D01*
X36420Y-28900D01*
X36439Y-28948D01*
X36476Y-28985D01*
X36524Y-29005D01*
X36575Y-29005D01*
X36897Y-29005D01*
X36897Y-30095D01*
X36909Y-30153D01*
X36942Y-30202D01*
X37336Y-30597D01*
G54D10*
G36*
X39795Y-37795D02*
X39611Y-37795D01*
X39611Y-20668D01*
X39000Y-20056D01*
X38943Y-20113D01*
X38943Y-20000D01*
X38331Y-19388D01*
X38193Y-19463D01*
X38049Y-19812D01*
X38050Y-20190D01*
X38193Y-20536D01*
X38331Y-20611D01*
X38943Y-20000D01*
X38943Y-20113D01*
X38388Y-20668D01*
X38463Y-20806D01*
X38812Y-20950D01*
X39190Y-20949D01*
X39536Y-20806D01*
X39611Y-20668D01*
X39611Y-37795D01*
X39525Y-37795D01*
X39525Y-26849D01*
X39525Y-26727D01*
X39525Y-26522D01*
X39525Y-26400D01*
X39486Y-26308D01*
X39416Y-26238D01*
X39324Y-26200D01*
X39225Y-26200D01*
X39212Y-26200D01*
X39212Y-23207D01*
X39212Y-22223D01*
X39148Y-22067D01*
X39028Y-21947D01*
X38872Y-21882D01*
X38703Y-21882D01*
X38546Y-21947D01*
X38427Y-22066D01*
X38362Y-22222D01*
X38362Y-22392D01*
X38426Y-22548D01*
X38546Y-22668D01*
X38702Y-22733D01*
X38871Y-22733D01*
X39027Y-22668D01*
X39147Y-22549D01*
X39212Y-22392D01*
X39212Y-22223D01*
X39212Y-23207D01*
X39148Y-23051D01*
X39028Y-22931D01*
X38872Y-22866D01*
X38703Y-22866D01*
X38546Y-22931D01*
X38427Y-23050D01*
X38362Y-23207D01*
X38362Y-23376D01*
X38426Y-23532D01*
X38546Y-23652D01*
X38702Y-23717D01*
X38871Y-23717D01*
X39027Y-23652D01*
X39147Y-23533D01*
X39212Y-23377D01*
X39212Y-23207D01*
X39212Y-26200D01*
X39102Y-26200D01*
X39040Y-26262D01*
X39040Y-26585D01*
X39462Y-26585D01*
X39525Y-26522D01*
X39525Y-26727D01*
X39462Y-26665D01*
X39040Y-26665D01*
X39040Y-26987D01*
X39102Y-27050D01*
X39225Y-27050D01*
X39324Y-27050D01*
X39416Y-27011D01*
X39486Y-26941D01*
X39525Y-26849D01*
X39525Y-37795D01*
X39500Y-37795D01*
X39405Y-37795D01*
X39405Y-27575D01*
X39405Y-27524D01*
X39405Y-27174D01*
X39385Y-27126D01*
X39348Y-27089D01*
X39300Y-27070D01*
X39249Y-27070D01*
X38699Y-27070D01*
X38651Y-27089D01*
X38617Y-27123D01*
X38595Y-27109D01*
X38553Y-27100D01*
X38547Y-27087D01*
X38567Y-27079D01*
X38619Y-27027D01*
X38675Y-27050D01*
X38774Y-27050D01*
X38897Y-27050D01*
X38960Y-26987D01*
X38960Y-26665D01*
X38952Y-26665D01*
X38952Y-26585D01*
X38960Y-26585D01*
X38960Y-26262D01*
X38897Y-26200D01*
X38774Y-26200D01*
X38675Y-26200D01*
X38675Y-26200D01*
X38651Y-26209D01*
X38613Y-26209D01*
X38675Y-26147D01*
X38675Y-26082D01*
X38637Y-25990D01*
X38567Y-25920D01*
X38475Y-25882D01*
X38375Y-25882D01*
X38252Y-25882D01*
X38190Y-25944D01*
X38190Y-26210D01*
X38197Y-26210D01*
X38197Y-26290D01*
X38190Y-26290D01*
X38190Y-26444D01*
X38190Y-26555D01*
X38190Y-26710D01*
X38197Y-26710D01*
X38197Y-26790D01*
X38190Y-26790D01*
X38190Y-26797D01*
X38110Y-26797D01*
X38110Y-26790D01*
X38110Y-26710D01*
X38110Y-26555D01*
X38110Y-26444D01*
X38110Y-26290D01*
X38110Y-26210D01*
X38110Y-25944D01*
X38047Y-25882D01*
X37924Y-25882D01*
X37824Y-25882D01*
X37732Y-25920D01*
X37662Y-25990D01*
X37624Y-26082D01*
X37624Y-26147D01*
X37687Y-26210D01*
X38110Y-26210D01*
X38110Y-26290D01*
X37687Y-26290D01*
X37624Y-26352D01*
X37624Y-26417D01*
X37658Y-26500D01*
X37624Y-26582D01*
X37624Y-26647D01*
X37687Y-26710D01*
X38110Y-26710D01*
X38110Y-26790D01*
X37687Y-26790D01*
X37627Y-26849D01*
X37552Y-26774D01*
X37552Y-26639D01*
X37577Y-26614D01*
X37609Y-26537D01*
X37610Y-26453D01*
X37578Y-26376D01*
X37552Y-26350D01*
X37552Y-25754D01*
X37598Y-25735D01*
X37635Y-25698D01*
X37655Y-25650D01*
X37655Y-25599D01*
X37655Y-25149D01*
X37635Y-25101D01*
X37598Y-25064D01*
X37550Y-25045D01*
X37499Y-25045D01*
X37430Y-25045D01*
X37430Y-23214D01*
X37430Y-23214D01*
X37430Y-22625D01*
X37430Y-22574D01*
X37430Y-21974D01*
X37410Y-21926D01*
X37373Y-21889D01*
X37325Y-21870D01*
X37274Y-21870D01*
X36674Y-21870D01*
X36626Y-21889D01*
X36589Y-21926D01*
X36570Y-21974D01*
X36570Y-22025D01*
X36570Y-22147D01*
X36425Y-22147D01*
X36425Y-20915D01*
X36360Y-20759D01*
X36241Y-20639D01*
X36152Y-20602D01*
X36152Y-20397D01*
X36240Y-20360D01*
X36360Y-20241D01*
X36425Y-20085D01*
X36425Y-19915D01*
X36360Y-19759D01*
X36241Y-19639D01*
X36085Y-19574D01*
X35915Y-19574D01*
X35759Y-19639D01*
X35639Y-19758D01*
X35574Y-19914D01*
X35574Y-20084D01*
X35639Y-20240D01*
X35758Y-20360D01*
X35847Y-20397D01*
X35847Y-20602D01*
X35759Y-20639D01*
X35639Y-20758D01*
X35574Y-20914D01*
X35574Y-21084D01*
X35639Y-21240D01*
X35758Y-21360D01*
X35914Y-21425D01*
X36084Y-21425D01*
X36240Y-21360D01*
X36360Y-21241D01*
X36425Y-21085D01*
X36425Y-20915D01*
X36425Y-22147D01*
X35955Y-22147D01*
X35955Y-22049D01*
X35935Y-22001D01*
X35898Y-21964D01*
X35850Y-21945D01*
X35799Y-21945D01*
X35549Y-21945D01*
X35501Y-21964D01*
X35464Y-22001D01*
X35445Y-22049D01*
X35445Y-22100D01*
X35445Y-22550D01*
X35464Y-22598D01*
X35501Y-22635D01*
X35549Y-22655D01*
X35600Y-22655D01*
X35850Y-22655D01*
X35898Y-22635D01*
X35935Y-22598D01*
X35955Y-22550D01*
X35955Y-22499D01*
X35955Y-22452D01*
X36570Y-22452D01*
X36570Y-22625D01*
X36589Y-22673D01*
X36626Y-22710D01*
X36674Y-22730D01*
X36725Y-22730D01*
X37325Y-22730D01*
X37373Y-22710D01*
X37410Y-22673D01*
X37430Y-22625D01*
X37430Y-23214D01*
X37364Y-23056D01*
X37243Y-22935D01*
X37085Y-22870D01*
X36914Y-22869D01*
X36756Y-22935D01*
X36635Y-23056D01*
X36597Y-23147D01*
X35955Y-23147D01*
X35955Y-23049D01*
X35935Y-23001D01*
X35898Y-22964D01*
X35850Y-22945D01*
X35799Y-22945D01*
X35549Y-22945D01*
X35501Y-22964D01*
X35464Y-23001D01*
X35445Y-23049D01*
X35445Y-23100D01*
X35445Y-23550D01*
X35464Y-23598D01*
X35501Y-23635D01*
X35549Y-23655D01*
X35600Y-23655D01*
X35850Y-23655D01*
X35898Y-23635D01*
X35935Y-23598D01*
X35955Y-23550D01*
X35955Y-23499D01*
X35955Y-23452D01*
X36597Y-23452D01*
X36635Y-23543D01*
X36756Y-23664D01*
X36914Y-23729D01*
X37085Y-23730D01*
X37243Y-23664D01*
X37364Y-23543D01*
X37429Y-23385D01*
X37430Y-23214D01*
X37430Y-25045D01*
X37249Y-25045D01*
X37201Y-25064D01*
X37164Y-25101D01*
X37145Y-25149D01*
X37145Y-25200D01*
X37145Y-25650D01*
X37164Y-25698D01*
X37201Y-25735D01*
X37247Y-25754D01*
X37247Y-26350D01*
X37222Y-26376D01*
X37190Y-26453D01*
X37189Y-26536D01*
X37221Y-26614D01*
X37247Y-26639D01*
X37247Y-26838D01*
X37259Y-26896D01*
X37292Y-26945D01*
X37599Y-27252D01*
X37578Y-27284D01*
X37566Y-27342D01*
X37566Y-27686D01*
X37091Y-28161D01*
X37058Y-28211D01*
X37046Y-28269D01*
X37046Y-28458D01*
X37030Y-28454D01*
X37030Y-28299D01*
X37010Y-28251D01*
X36973Y-28214D01*
X36925Y-28195D01*
X36874Y-28195D01*
X36858Y-28195D01*
X36832Y-28157D01*
X36455Y-27779D01*
X36455Y-27606D01*
X36435Y-27558D01*
X36399Y-27521D01*
X36351Y-27502D01*
X36299Y-27502D01*
X35825Y-27502D01*
X35825Y-27498D01*
X36351Y-27498D01*
X36399Y-27478D01*
X36435Y-27441D01*
X36455Y-27393D01*
X36455Y-27342D01*
X36455Y-27106D01*
X36435Y-27058D01*
X36399Y-27021D01*
X36351Y-27002D01*
X36299Y-27002D01*
X35748Y-27002D01*
X35700Y-27021D01*
X35664Y-27058D01*
X35644Y-27106D01*
X35644Y-27140D01*
X35642Y-27142D01*
X35565Y-27219D01*
X35532Y-27268D01*
X35520Y-27327D01*
X35520Y-27603D01*
X35491Y-27609D01*
X35475Y-27619D01*
X35457Y-27612D01*
X35343Y-27612D01*
X35332Y-27616D01*
X35270Y-27555D01*
X35350Y-27555D01*
X35398Y-27535D01*
X35435Y-27498D01*
X35455Y-27450D01*
X35455Y-27399D01*
X35455Y-27149D01*
X35435Y-27101D01*
X35398Y-27064D01*
X35350Y-27045D01*
X35299Y-27045D01*
X34849Y-27045D01*
X34801Y-27064D01*
X34775Y-27090D01*
X34549Y-26863D01*
X34554Y-26852D01*
X34745Y-26852D01*
X34764Y-26898D01*
X34801Y-26935D01*
X34849Y-26955D01*
X34900Y-26955D01*
X35350Y-26955D01*
X35398Y-26935D01*
X35432Y-26901D01*
X35437Y-26902D01*
X35648Y-26902D01*
X35664Y-26941D01*
X35700Y-26978D01*
X35748Y-26998D01*
X35800Y-26998D01*
X36351Y-26998D01*
X36399Y-26978D01*
X36435Y-26941D01*
X36455Y-26893D01*
X36455Y-26842D01*
X36455Y-26606D01*
X36435Y-26558D01*
X36399Y-26521D01*
X36351Y-26502D01*
X36299Y-26502D01*
X35748Y-26502D01*
X35700Y-26521D01*
X35664Y-26558D01*
X35648Y-26597D01*
X35500Y-26597D01*
X35495Y-26592D01*
X35455Y-26565D01*
X35455Y-26565D01*
X35455Y-26549D01*
X35435Y-26501D01*
X35398Y-26464D01*
X35350Y-26445D01*
X35299Y-26445D01*
X34849Y-26445D01*
X34801Y-26464D01*
X34764Y-26501D01*
X34745Y-26547D01*
X34554Y-26547D01*
X34535Y-26501D01*
X34498Y-26464D01*
X34450Y-26445D01*
X34399Y-26445D01*
X33980Y-26445D01*
X33980Y-26059D01*
X34018Y-26022D01*
X35268Y-26022D01*
X35604Y-26357D01*
X35644Y-26384D01*
X35644Y-26393D01*
X35664Y-26441D01*
X35700Y-26478D01*
X35748Y-26498D01*
X35800Y-26498D01*
X36351Y-26498D01*
X36399Y-26478D01*
X36435Y-26441D01*
X36451Y-26402D01*
X36543Y-26402D01*
X36601Y-26390D01*
X36601Y-26390D01*
X36650Y-26357D01*
X36907Y-26100D01*
X36940Y-26051D01*
X36940Y-26051D01*
X36952Y-25993D01*
X36952Y-25754D01*
X36998Y-25735D01*
X37035Y-25698D01*
X37055Y-25650D01*
X37055Y-25599D01*
X37055Y-25149D01*
X37035Y-25101D01*
X36998Y-25064D01*
X36950Y-25045D01*
X36899Y-25045D01*
X36649Y-25045D01*
X36601Y-25064D01*
X36564Y-25101D01*
X36545Y-25149D01*
X36545Y-25200D01*
X36545Y-25650D01*
X36564Y-25698D01*
X36601Y-25735D01*
X36647Y-25754D01*
X36647Y-25929D01*
X36479Y-26097D01*
X36451Y-26097D01*
X36435Y-26058D01*
X36399Y-26021D01*
X36351Y-26002D01*
X36299Y-26002D01*
X35748Y-26002D01*
X35700Y-26021D01*
X35700Y-26022D01*
X35439Y-25761D01*
X35425Y-25752D01*
X35425Y-20915D01*
X35360Y-20759D01*
X35241Y-20639D01*
X35152Y-20602D01*
X35152Y-20397D01*
X35240Y-20360D01*
X35360Y-20241D01*
X35425Y-20085D01*
X35425Y-19915D01*
X35360Y-19759D01*
X35241Y-19639D01*
X35085Y-19574D01*
X34915Y-19574D01*
X34759Y-19639D01*
X34639Y-19758D01*
X34574Y-19914D01*
X34574Y-20084D01*
X34639Y-20240D01*
X34758Y-20360D01*
X34847Y-20397D01*
X34847Y-20602D01*
X34759Y-20639D01*
X34639Y-20758D01*
X34574Y-20914D01*
X34574Y-21084D01*
X34639Y-21240D01*
X34758Y-21360D01*
X34914Y-21425D01*
X35084Y-21425D01*
X35240Y-21360D01*
X35360Y-21241D01*
X35425Y-21085D01*
X35425Y-20915D01*
X35425Y-25752D01*
X35389Y-25728D01*
X35355Y-25721D01*
X35355Y-23550D01*
X35355Y-23499D01*
X35355Y-23049D01*
X35355Y-22550D01*
X35355Y-22499D01*
X35355Y-22049D01*
X35335Y-22001D01*
X35298Y-21964D01*
X35250Y-21945D01*
X35199Y-21945D01*
X35057Y-21945D01*
X34990Y-21878D01*
X34943Y-21846D01*
X34943Y-21846D01*
X34905Y-21808D01*
X34828Y-21776D01*
X34744Y-21776D01*
X34667Y-21807D01*
X34608Y-21866D01*
X34576Y-21944D01*
X34576Y-22027D01*
X34607Y-22104D01*
X34666Y-22163D01*
X34744Y-22196D01*
X34827Y-22196D01*
X34845Y-22188D01*
X34845Y-22550D01*
X34864Y-22598D01*
X34901Y-22635D01*
X34949Y-22655D01*
X35000Y-22655D01*
X35250Y-22655D01*
X35298Y-22635D01*
X35335Y-22598D01*
X35355Y-22550D01*
X35355Y-23049D01*
X35335Y-23001D01*
X35298Y-22964D01*
X35250Y-22945D01*
X35199Y-22945D01*
X34949Y-22945D01*
X34901Y-22964D01*
X34864Y-23001D01*
X34845Y-23049D01*
X34845Y-23100D01*
X34845Y-23147D01*
X34490Y-23147D01*
X34490Y-22300D01*
X34478Y-22241D01*
X34445Y-22192D01*
X34425Y-22178D01*
X34425Y-20915D01*
X34360Y-20759D01*
X34241Y-20639D01*
X34152Y-20602D01*
X34152Y-20397D01*
X34240Y-20360D01*
X34360Y-20241D01*
X34425Y-20085D01*
X34425Y-19915D01*
X34360Y-19759D01*
X34241Y-19639D01*
X34085Y-19574D01*
X33915Y-19574D01*
X33759Y-19639D01*
X33639Y-19758D01*
X33574Y-19914D01*
X33574Y-20084D01*
X33639Y-20240D01*
X33758Y-20360D01*
X33847Y-20397D01*
X33847Y-20602D01*
X33759Y-20639D01*
X33639Y-20758D01*
X33574Y-20914D01*
X33574Y-21084D01*
X33639Y-21240D01*
X33758Y-21360D01*
X33914Y-21425D01*
X34084Y-21425D01*
X34240Y-21360D01*
X34360Y-21241D01*
X34425Y-21085D01*
X34425Y-20915D01*
X34425Y-22178D01*
X34396Y-22159D01*
X34355Y-22150D01*
X34355Y-22049D01*
X34335Y-22001D01*
X34298Y-21964D01*
X34250Y-21945D01*
X34199Y-21945D01*
X34054Y-21945D01*
X33928Y-21818D01*
X33878Y-21785D01*
X33820Y-21774D01*
X33425Y-21774D01*
X33425Y-20915D01*
X33360Y-20759D01*
X33241Y-20639D01*
X33152Y-20602D01*
X33152Y-20397D01*
X33240Y-20360D01*
X33360Y-20241D01*
X33425Y-20085D01*
X33425Y-19915D01*
X33360Y-19759D01*
X33241Y-19639D01*
X33085Y-19574D01*
X32915Y-19574D01*
X32759Y-19639D01*
X32639Y-19758D01*
X32574Y-19914D01*
X32574Y-20084D01*
X32639Y-20240D01*
X32758Y-20360D01*
X32847Y-20397D01*
X32847Y-20602D01*
X32759Y-20639D01*
X32639Y-20758D01*
X32574Y-20914D01*
X32574Y-21084D01*
X32639Y-21240D01*
X32758Y-21360D01*
X32914Y-21425D01*
X33084Y-21425D01*
X33240Y-21360D01*
X33360Y-21241D01*
X33425Y-21085D01*
X33425Y-20915D01*
X33425Y-21774D01*
X32425Y-21774D01*
X32425Y-20915D01*
X32360Y-20759D01*
X32241Y-20639D01*
X32152Y-20602D01*
X32152Y-20397D01*
X32240Y-20360D01*
X32360Y-20241D01*
X32425Y-20085D01*
X32425Y-19915D01*
X32360Y-19759D01*
X32241Y-19639D01*
X32085Y-19574D01*
X31915Y-19574D01*
X31759Y-19639D01*
X31639Y-19758D01*
X31574Y-19914D01*
X31574Y-20084D01*
X31639Y-20240D01*
X31758Y-20360D01*
X31847Y-20397D01*
X31847Y-20602D01*
X31759Y-20639D01*
X31639Y-20758D01*
X31574Y-20914D01*
X31574Y-21084D01*
X31639Y-21240D01*
X31758Y-21360D01*
X31914Y-21425D01*
X32084Y-21425D01*
X32240Y-21360D01*
X32360Y-21241D01*
X32425Y-21085D01*
X32425Y-20915D01*
X32425Y-21774D01*
X31425Y-21774D01*
X31425Y-20915D01*
X31360Y-20759D01*
X31241Y-20639D01*
X31152Y-20602D01*
X31152Y-20397D01*
X31240Y-20360D01*
X31360Y-20241D01*
X31425Y-20085D01*
X31425Y-19915D01*
X31360Y-19759D01*
X31241Y-19639D01*
X31085Y-19574D01*
X30915Y-19574D01*
X30759Y-19639D01*
X30639Y-19758D01*
X30574Y-19914D01*
X30574Y-20084D01*
X30639Y-20240D01*
X30758Y-20360D01*
X30847Y-20397D01*
X30847Y-20602D01*
X30759Y-20639D01*
X30639Y-20758D01*
X30574Y-20914D01*
X30574Y-21084D01*
X30639Y-21240D01*
X30758Y-21360D01*
X30914Y-21425D01*
X31084Y-21425D01*
X31240Y-21360D01*
X31360Y-21241D01*
X31425Y-21085D01*
X31425Y-20915D01*
X31425Y-21774D01*
X30756Y-21774D01*
X30756Y-21774D01*
X30425Y-21774D01*
X30425Y-20915D01*
X30360Y-20759D01*
X30241Y-20639D01*
X30152Y-20602D01*
X30152Y-20397D01*
X30240Y-20360D01*
X30360Y-20241D01*
X30425Y-20085D01*
X30425Y-19915D01*
X30360Y-19759D01*
X30241Y-19639D01*
X30085Y-19574D01*
X29915Y-19574D01*
X29759Y-19639D01*
X29639Y-19758D01*
X29574Y-19914D01*
X29574Y-20084D01*
X29639Y-20240D01*
X29758Y-20360D01*
X29847Y-20397D01*
X29847Y-20602D01*
X29759Y-20639D01*
X29639Y-20758D01*
X29574Y-20914D01*
X29574Y-21084D01*
X29639Y-21240D01*
X29758Y-21360D01*
X29914Y-21425D01*
X30084Y-21425D01*
X30240Y-21360D01*
X30360Y-21241D01*
X30425Y-21085D01*
X30425Y-20915D01*
X30425Y-21774D01*
X30253Y-21774D01*
X30194Y-21785D01*
X30145Y-21818D01*
X30117Y-21847D01*
X30085Y-21895D01*
X30024Y-21895D01*
X29976Y-21914D01*
X29939Y-21951D01*
X29920Y-21999D01*
X29920Y-22050D01*
X29920Y-22600D01*
X29939Y-22648D01*
X29976Y-22685D01*
X30024Y-22705D01*
X30075Y-22705D01*
X30079Y-22705D01*
X30084Y-22728D01*
X30090Y-22737D01*
X30089Y-22786D01*
X30121Y-22863D01*
X30180Y-22922D01*
X30258Y-22954D01*
X30294Y-22954D01*
X30897Y-23557D01*
X30946Y-23590D01*
X30946Y-23590D01*
X31005Y-23602D01*
X31150Y-23602D01*
X31175Y-23627D01*
X31253Y-23659D01*
X31336Y-23660D01*
X31413Y-23628D01*
X31472Y-23569D01*
X31504Y-23491D01*
X31505Y-23408D01*
X31473Y-23331D01*
X31414Y-23272D01*
X31336Y-23240D01*
X31253Y-23239D01*
X31176Y-23271D01*
X31150Y-23297D01*
X31068Y-23297D01*
X30510Y-22739D01*
X30510Y-22703D01*
X30494Y-22664D01*
X30510Y-22648D01*
X30530Y-22600D01*
X30530Y-22549D01*
X30530Y-22079D01*
X30670Y-22079D01*
X30670Y-22600D01*
X30689Y-22648D01*
X30726Y-22685D01*
X30727Y-22685D01*
X30722Y-22690D01*
X30690Y-22768D01*
X30689Y-22851D01*
X30721Y-22928D01*
X30780Y-22987D01*
X30858Y-23019D01*
X30941Y-23020D01*
X31018Y-22988D01*
X31077Y-22929D01*
X31109Y-22851D01*
X31110Y-22802D01*
X31110Y-22802D01*
X31115Y-22793D01*
X31115Y-22793D01*
X31127Y-22735D01*
X31127Y-22705D01*
X31175Y-22705D01*
X31223Y-22685D01*
X31260Y-22648D01*
X31280Y-22600D01*
X31280Y-22549D01*
X31280Y-22079D01*
X33245Y-22079D01*
X33245Y-22093D01*
X33236Y-22090D01*
X33153Y-22089D01*
X33076Y-22121D01*
X33017Y-22180D01*
X32985Y-22258D01*
X32984Y-22341D01*
X33016Y-22418D01*
X33075Y-22477D01*
X33153Y-22509D01*
X33236Y-22510D01*
X33245Y-22506D01*
X33245Y-22550D01*
X33264Y-22598D01*
X33301Y-22635D01*
X33349Y-22655D01*
X33400Y-22655D01*
X33650Y-22655D01*
X33698Y-22635D01*
X33735Y-22598D01*
X33755Y-22550D01*
X33755Y-22499D01*
X33755Y-22079D01*
X33757Y-22079D01*
X33845Y-22166D01*
X33845Y-22550D01*
X33864Y-22598D01*
X33901Y-22635D01*
X33949Y-22655D01*
X34000Y-22655D01*
X34185Y-22655D01*
X34185Y-22945D01*
X33949Y-22945D01*
X33901Y-22964D01*
X33864Y-23001D01*
X33845Y-23049D01*
X33845Y-23100D01*
X33845Y-23550D01*
X33864Y-23598D01*
X33901Y-23635D01*
X33949Y-23655D01*
X34000Y-23655D01*
X34250Y-23655D01*
X34298Y-23635D01*
X34335Y-23598D01*
X34355Y-23550D01*
X34355Y-23499D01*
X34355Y-23452D01*
X34845Y-23452D01*
X34845Y-23550D01*
X34864Y-23598D01*
X34901Y-23635D01*
X34949Y-23655D01*
X35000Y-23655D01*
X35250Y-23655D01*
X35298Y-23635D01*
X35335Y-23598D01*
X35355Y-23550D01*
X35355Y-25721D01*
X35331Y-25717D01*
X34107Y-25717D01*
X34107Y-25530D01*
X34095Y-25472D01*
X34095Y-25472D01*
X34062Y-25423D01*
X33801Y-25161D01*
X33801Y-25161D01*
X33755Y-25115D01*
X33755Y-23550D01*
X33755Y-23499D01*
X33755Y-23049D01*
X33735Y-23001D01*
X33698Y-22964D01*
X33650Y-22945D01*
X33599Y-22945D01*
X33349Y-22945D01*
X33301Y-22964D01*
X33264Y-23001D01*
X33245Y-23049D01*
X33245Y-23089D01*
X33206Y-23089D01*
X33129Y-23121D01*
X33070Y-23180D01*
X33038Y-23258D01*
X33037Y-23341D01*
X33069Y-23418D01*
X33128Y-23477D01*
X33206Y-23509D01*
X33245Y-23509D01*
X33245Y-23550D01*
X33264Y-23598D01*
X33301Y-23635D01*
X33349Y-23655D01*
X33400Y-23655D01*
X33650Y-23655D01*
X33698Y-23635D01*
X33735Y-23598D01*
X33755Y-23550D01*
X33755Y-25115D01*
X33704Y-25065D01*
X33655Y-25032D01*
X33597Y-25020D01*
X29787Y-25020D01*
X29728Y-25032D01*
X29679Y-25065D01*
X29425Y-25318D01*
X29425Y-20915D01*
X29360Y-20759D01*
X29241Y-20639D01*
X29152Y-20602D01*
X29152Y-20397D01*
X29240Y-20360D01*
X29360Y-20241D01*
X29425Y-20085D01*
X29425Y-19915D01*
X29360Y-19759D01*
X29241Y-19639D01*
X29085Y-19574D01*
X28915Y-19574D01*
X28759Y-19639D01*
X28639Y-19758D01*
X28574Y-19914D01*
X28574Y-20084D01*
X28639Y-20240D01*
X28758Y-20360D01*
X28847Y-20397D01*
X28847Y-20602D01*
X28759Y-20639D01*
X28639Y-20758D01*
X28574Y-20914D01*
X28574Y-21084D01*
X28639Y-21240D01*
X28758Y-21360D01*
X28914Y-21425D01*
X29084Y-21425D01*
X29240Y-21360D01*
X29360Y-21241D01*
X29425Y-21085D01*
X29425Y-20915D01*
X29425Y-25318D01*
X29136Y-25607D01*
X29121Y-25607D01*
X29044Y-25639D01*
X28985Y-25698D01*
X28953Y-25776D01*
X28952Y-25859D01*
X28984Y-25936D01*
X29043Y-25995D01*
X29121Y-26027D01*
X29204Y-26028D01*
X29281Y-25996D01*
X29340Y-25937D01*
X29372Y-25859D01*
X29373Y-25802D01*
X29850Y-25325D01*
X33267Y-25325D01*
X33256Y-25336D01*
X33212Y-25442D01*
X33212Y-25556D01*
X33215Y-25564D01*
X33009Y-25771D01*
X32976Y-25820D01*
X32964Y-25879D01*
X32964Y-26825D01*
X32923Y-26808D01*
X32839Y-26808D01*
X32805Y-26822D01*
X32805Y-26724D01*
X32785Y-26676D01*
X32748Y-26639D01*
X32700Y-26620D01*
X32649Y-26620D01*
X32609Y-26620D01*
X32610Y-26558D01*
X32578Y-26481D01*
X32519Y-26422D01*
X32441Y-26390D01*
X32358Y-26389D01*
X32281Y-26421D01*
X32222Y-26480D01*
X32190Y-26558D01*
X32189Y-26620D01*
X32099Y-26620D01*
X32051Y-26639D01*
X32014Y-26676D01*
X31995Y-26724D01*
X31995Y-26775D01*
X31995Y-27069D01*
X31696Y-27069D01*
X30690Y-26063D01*
X30690Y-26027D01*
X30658Y-25950D01*
X30599Y-25891D01*
X30522Y-25859D01*
X30438Y-25859D01*
X30361Y-25891D01*
X30302Y-25950D01*
X30270Y-26027D01*
X30270Y-26111D01*
X30302Y-26188D01*
X30361Y-26247D01*
X30438Y-26279D01*
X30474Y-26279D01*
X31525Y-27330D01*
X31574Y-27363D01*
X31574Y-27363D01*
X31633Y-27374D01*
X31906Y-27374D01*
X31875Y-27450D01*
X31875Y-27572D01*
X31937Y-27635D01*
X32360Y-27635D01*
X32360Y-27627D01*
X32440Y-27627D01*
X32440Y-27635D01*
X32447Y-27635D01*
X32447Y-27715D01*
X32440Y-27715D01*
X32440Y-28037D01*
X32502Y-28100D01*
X32602Y-28100D01*
X32602Y-29901D01*
X32577Y-29927D01*
X32545Y-30004D01*
X32545Y-30088D01*
X32577Y-30165D01*
X32636Y-30224D01*
X32713Y-30256D01*
X32796Y-30256D01*
X32874Y-30224D01*
X32921Y-30177D01*
X33160Y-30415D01*
X33160Y-30451D01*
X33191Y-30529D01*
X33251Y-30588D01*
X33328Y-30620D01*
X33411Y-30620D01*
X33488Y-30588D01*
X33548Y-30529D01*
X33580Y-30452D01*
X33580Y-30368D01*
X33548Y-30291D01*
X33496Y-30239D01*
X33551Y-30240D01*
X33628Y-30208D01*
X33682Y-30154D01*
X33708Y-30180D01*
X33785Y-30212D01*
X33868Y-30212D01*
X33907Y-30196D01*
X33924Y-30214D01*
X33881Y-30232D01*
X33822Y-30291D01*
X33790Y-30368D01*
X33790Y-30404D01*
X33277Y-30916D01*
X33244Y-30966D01*
X33233Y-31024D01*
X33233Y-31239D01*
X33233Y-31239D01*
X33233Y-31325D01*
X33209Y-31349D01*
X33173Y-31349D01*
X33096Y-31381D01*
X33070Y-31407D01*
X31714Y-31407D01*
X31761Y-31360D01*
X31793Y-31282D01*
X31793Y-31246D01*
X31842Y-31198D01*
X32603Y-31200D01*
X32620Y-31217D01*
X32698Y-31249D01*
X32781Y-31250D01*
X32858Y-31218D01*
X32917Y-31159D01*
X32949Y-31081D01*
X32950Y-30998D01*
X32918Y-30921D01*
X32879Y-30882D01*
X32897Y-30864D01*
X32935Y-30902D01*
X33013Y-30934D01*
X33096Y-30935D01*
X33173Y-30903D01*
X33232Y-30844D01*
X33264Y-30766D01*
X33265Y-30683D01*
X33233Y-30606D01*
X33174Y-30547D01*
X33096Y-30515D01*
X33061Y-30515D01*
X33015Y-30468D01*
X33014Y-30468D01*
X33014Y-30468D01*
X32990Y-30451D01*
X32965Y-30435D01*
X32965Y-30435D01*
X32965Y-30435D01*
X32936Y-30429D01*
X32907Y-30423D01*
X32907Y-30423D01*
X32907Y-30423D01*
X32360Y-30423D01*
X32360Y-28037D01*
X32360Y-27715D01*
X31937Y-27715D01*
X31875Y-27777D01*
X31875Y-27899D01*
X31913Y-27991D01*
X31983Y-28061D01*
X32075Y-28100D01*
X32174Y-28100D01*
X32297Y-28100D01*
X32360Y-28037D01*
X32360Y-30423D01*
X32319Y-30423D01*
X32320Y-30368D01*
X32288Y-30291D01*
X32262Y-30265D01*
X32262Y-29194D01*
X32262Y-29194D01*
X32262Y-29194D01*
X32257Y-29165D01*
X32251Y-29136D01*
X32251Y-29136D01*
X32251Y-29136D01*
X32235Y-29112D01*
X32218Y-29086D01*
X32218Y-29086D01*
X32218Y-29086D01*
X31132Y-28001D01*
X31092Y-27974D01*
X31092Y-27974D01*
X31092Y-27886D01*
X31072Y-27838D01*
X31035Y-27801D01*
X30988Y-27782D01*
X30936Y-27782D01*
X30345Y-27782D01*
X30298Y-27801D01*
X30261Y-27838D01*
X30241Y-27886D01*
X30241Y-27938D01*
X30241Y-28222D01*
X30134Y-28329D01*
X30101Y-28379D01*
X30089Y-28437D01*
X30089Y-28712D01*
X30089Y-31029D01*
X30074Y-31044D01*
X30038Y-31044D01*
X30036Y-31045D01*
X30058Y-30990D01*
X30059Y-30907D01*
X30027Y-30830D01*
X29968Y-30771D01*
X29890Y-30739D01*
X29807Y-30738D01*
X29730Y-30770D01*
X29671Y-30829D01*
X29639Y-30907D01*
X29638Y-30990D01*
X29670Y-31067D01*
X29696Y-31093D01*
X29696Y-32570D01*
X29696Y-32570D01*
X29708Y-32628D01*
X29741Y-32678D01*
X30201Y-33138D01*
X30241Y-33165D01*
X30241Y-33253D01*
X30261Y-33300D01*
X30298Y-33337D01*
X30345Y-33357D01*
X30397Y-33357D01*
X30988Y-33357D01*
X31035Y-33337D01*
X31072Y-33300D01*
X31092Y-33253D01*
X31092Y-33201D01*
X31092Y-33182D01*
X32028Y-33182D01*
X32087Y-33171D01*
X32087Y-33171D01*
X32136Y-33138D01*
X33790Y-31484D01*
X33823Y-31435D01*
X33834Y-31376D01*
X33834Y-31376D01*
X33834Y-31207D01*
X33860Y-31181D01*
X33892Y-31104D01*
X33892Y-31021D01*
X33860Y-30943D01*
X33801Y-30884D01*
X33758Y-30867D01*
X34005Y-30620D01*
X34007Y-30620D01*
X34007Y-32899D01*
X33236Y-33670D01*
X33264Y-33601D01*
X33265Y-33518D01*
X33233Y-33441D01*
X33174Y-33382D01*
X33096Y-33350D01*
X33013Y-33349D01*
X32936Y-33381D01*
X32877Y-33440D01*
X32845Y-33518D01*
X32844Y-33601D01*
X32876Y-33678D01*
X32901Y-33703D01*
X32901Y-33716D01*
X32635Y-33983D01*
X32635Y-33518D01*
X32603Y-33441D01*
X32544Y-33382D01*
X32466Y-33350D01*
X32383Y-33349D01*
X32306Y-33381D01*
X32280Y-33407D01*
X31760Y-33407D01*
X31760Y-33407D01*
X31760Y-33407D01*
X31731Y-33413D01*
X31702Y-33418D01*
X31702Y-33418D01*
X31702Y-33418D01*
X31677Y-33435D01*
X31652Y-33451D01*
X31652Y-33451D01*
X31652Y-33451D01*
X31614Y-33489D01*
X31578Y-33489D01*
X31501Y-33521D01*
X31442Y-33580D01*
X31410Y-33658D01*
X31410Y-33741D01*
X31442Y-33818D01*
X31501Y-33877D01*
X31578Y-33909D01*
X31661Y-33910D01*
X31739Y-33878D01*
X31798Y-33819D01*
X31830Y-33741D01*
X31830Y-33712D01*
X32280Y-33712D01*
X32305Y-33737D01*
X32383Y-33769D01*
X32466Y-33770D01*
X32543Y-33738D01*
X32602Y-33679D01*
X32634Y-33601D01*
X32635Y-33518D01*
X32635Y-33983D01*
X32575Y-34043D01*
X32544Y-34012D01*
X32466Y-33980D01*
X32383Y-33979D01*
X32306Y-34011D01*
X32267Y-34050D01*
X32229Y-34012D01*
X32151Y-33980D01*
X32068Y-33979D01*
X31991Y-34011D01*
X31932Y-34070D01*
X31900Y-34148D01*
X31900Y-34184D01*
X31805Y-34278D01*
X31788Y-34303D01*
X31772Y-34328D01*
X31772Y-34328D01*
X31772Y-34328D01*
X31766Y-34357D01*
X31760Y-34386D01*
X31760Y-34877D01*
X31735Y-34867D01*
X31699Y-34867D01*
X31177Y-34345D01*
X31212Y-34261D01*
X31212Y-34117D01*
X31212Y-33912D01*
X31212Y-33767D01*
X31174Y-33676D01*
X31103Y-33605D01*
X31011Y-33567D01*
X30912Y-33567D01*
X30769Y-33567D01*
X30706Y-33630D01*
X30706Y-33974D01*
X31149Y-33974D01*
X31212Y-33912D01*
X31212Y-34117D01*
X31149Y-34054D01*
X30706Y-34054D01*
X30706Y-34062D01*
X30626Y-34062D01*
X30626Y-34054D01*
X30619Y-34054D01*
X30619Y-33974D01*
X30626Y-33974D01*
X30626Y-33630D01*
X30564Y-33567D01*
X30421Y-33567D01*
X30321Y-33567D01*
X30230Y-33605D01*
X30159Y-33676D01*
X30121Y-33767D01*
X30121Y-33873D01*
X28425Y-32177D01*
X28425Y-20915D01*
X28360Y-20759D01*
X28241Y-20639D01*
X28152Y-20602D01*
X28152Y-20397D01*
X28240Y-20360D01*
X28360Y-20241D01*
X28425Y-20085D01*
X28425Y-19915D01*
X28360Y-19759D01*
X28241Y-19639D01*
X28085Y-19574D01*
X27915Y-19574D01*
X27759Y-19639D01*
X27639Y-19758D01*
X27574Y-19914D01*
X27574Y-20084D01*
X27639Y-20240D01*
X27758Y-20360D01*
X27847Y-20397D01*
X27847Y-20602D01*
X27759Y-20639D01*
X27639Y-20758D01*
X27574Y-20914D01*
X27574Y-21084D01*
X27639Y-21240D01*
X27758Y-21360D01*
X27914Y-21425D01*
X28084Y-21425D01*
X28240Y-21360D01*
X28360Y-21241D01*
X28425Y-21085D01*
X28425Y-20915D01*
X28425Y-32177D01*
X28333Y-32085D01*
X28333Y-23863D01*
X28352Y-23844D01*
X28384Y-23766D01*
X28385Y-23683D01*
X28353Y-23606D01*
X28294Y-23547D01*
X28216Y-23515D01*
X28133Y-23514D01*
X28056Y-23546D01*
X27997Y-23605D01*
X27965Y-23683D01*
X27964Y-23766D01*
X27996Y-23843D01*
X28028Y-23875D01*
X28028Y-24599D01*
X28018Y-24595D01*
X27980Y-24595D01*
X27980Y-24399D01*
X27960Y-24351D01*
X27946Y-24337D01*
X27946Y-23864D01*
X27946Y-23864D01*
X27946Y-23863D01*
X27934Y-23805D01*
X27934Y-23805D01*
X27901Y-23755D01*
X27901Y-23755D01*
X27434Y-23288D01*
X27474Y-23305D01*
X27525Y-23305D01*
X27756Y-23305D01*
X27806Y-23355D01*
X27856Y-23388D01*
X27856Y-23388D01*
X27914Y-23400D01*
X27945Y-23400D01*
X27970Y-23425D01*
X28047Y-23457D01*
X28131Y-23457D01*
X28208Y-23425D01*
X28267Y-23366D01*
X28299Y-23289D01*
X28299Y-23206D01*
X28267Y-23128D01*
X28208Y-23069D01*
X28131Y-23037D01*
X28047Y-23037D01*
X27980Y-23065D01*
X27980Y-22599D01*
X27960Y-22551D01*
X27923Y-22514D01*
X27875Y-22495D01*
X27824Y-22495D01*
X27474Y-22495D01*
X27426Y-22514D01*
X27425Y-22515D01*
X27425Y-20915D01*
X27360Y-20759D01*
X27241Y-20639D01*
X27152Y-20602D01*
X27152Y-20397D01*
X27240Y-20360D01*
X27360Y-20241D01*
X27425Y-20085D01*
X27425Y-19915D01*
X27360Y-19759D01*
X27241Y-19639D01*
X27085Y-19574D01*
X26915Y-19574D01*
X26759Y-19639D01*
X26639Y-19758D01*
X26574Y-19914D01*
X26574Y-20084D01*
X26639Y-20240D01*
X26758Y-20360D01*
X26847Y-20397D01*
X26847Y-20602D01*
X26759Y-20639D01*
X26639Y-20758D01*
X26574Y-20914D01*
X26574Y-21084D01*
X26639Y-21240D01*
X26758Y-21360D01*
X26914Y-21425D01*
X27084Y-21425D01*
X27240Y-21360D01*
X27360Y-21241D01*
X27425Y-21085D01*
X27425Y-20915D01*
X27425Y-22515D01*
X27389Y-22551D01*
X27370Y-22599D01*
X27370Y-22650D01*
X27370Y-23200D01*
X27386Y-23240D01*
X27230Y-23084D01*
X27230Y-22599D01*
X27210Y-22551D01*
X27173Y-22514D01*
X27125Y-22495D01*
X27074Y-22495D01*
X26724Y-22495D01*
X26676Y-22514D01*
X26639Y-22551D01*
X26620Y-22599D01*
X26620Y-22650D01*
X26620Y-23200D01*
X26639Y-23248D01*
X26676Y-23285D01*
X26724Y-23305D01*
X26775Y-23305D01*
X27019Y-23305D01*
X27641Y-23926D01*
X27641Y-24295D01*
X27474Y-24295D01*
X27426Y-24314D01*
X27389Y-24351D01*
X27370Y-24399D01*
X27370Y-24450D01*
X27370Y-25000D01*
X27389Y-25048D01*
X27426Y-25085D01*
X27474Y-25105D01*
X27525Y-25105D01*
X27824Y-25105D01*
X27824Y-32088D01*
X27733Y-31997D01*
X27733Y-26180D01*
X27721Y-26122D01*
X27721Y-26122D01*
X27688Y-26072D01*
X26718Y-25102D01*
X26724Y-25105D01*
X26775Y-25105D01*
X27125Y-25105D01*
X27173Y-25085D01*
X27210Y-25048D01*
X27230Y-25000D01*
X27230Y-24949D01*
X27230Y-24399D01*
X27210Y-24351D01*
X27185Y-24326D01*
X27189Y-24316D01*
X27190Y-24233D01*
X27158Y-24156D01*
X27099Y-24097D01*
X27021Y-24065D01*
X26938Y-24064D01*
X26861Y-24096D01*
X26802Y-24155D01*
X26770Y-24233D01*
X26769Y-24295D01*
X26724Y-24295D01*
X26676Y-24314D01*
X26639Y-24351D01*
X26620Y-24399D01*
X26620Y-24450D01*
X26620Y-25000D01*
X26622Y-25006D01*
X26425Y-24809D01*
X26425Y-20915D01*
X26360Y-20759D01*
X26241Y-20639D01*
X26152Y-20602D01*
X26152Y-20397D01*
X26240Y-20360D01*
X26360Y-20241D01*
X26425Y-20085D01*
X26425Y-19915D01*
X26360Y-19759D01*
X26241Y-19639D01*
X26085Y-19574D01*
X25915Y-19574D01*
X25759Y-19639D01*
X25639Y-19758D01*
X25574Y-19914D01*
X25574Y-20084D01*
X25639Y-20240D01*
X25758Y-20360D01*
X25847Y-20397D01*
X25847Y-20602D01*
X25759Y-20639D01*
X25639Y-20758D01*
X25574Y-20914D01*
X25574Y-21084D01*
X25639Y-21240D01*
X25758Y-21360D01*
X25914Y-21425D01*
X26084Y-21425D01*
X26240Y-21360D01*
X26360Y-21241D01*
X26425Y-21085D01*
X26425Y-20915D01*
X26425Y-24809D01*
X25425Y-23809D01*
X25425Y-20915D01*
X25360Y-20759D01*
X25241Y-20639D01*
X25152Y-20602D01*
X25152Y-20397D01*
X25240Y-20360D01*
X25360Y-20241D01*
X25425Y-20085D01*
X25425Y-19915D01*
X25360Y-19759D01*
X25241Y-19639D01*
X25085Y-19574D01*
X24915Y-19574D01*
X24759Y-19639D01*
X24639Y-19758D01*
X24574Y-19914D01*
X24574Y-20084D01*
X24639Y-20240D01*
X24758Y-20360D01*
X24847Y-20397D01*
X24847Y-20602D01*
X24759Y-20639D01*
X24639Y-20758D01*
X24574Y-20914D01*
X24574Y-21084D01*
X24639Y-21240D01*
X24758Y-21360D01*
X24914Y-21425D01*
X25084Y-21425D01*
X25240Y-21360D01*
X25360Y-21241D01*
X25425Y-21085D01*
X25425Y-20915D01*
X25425Y-23809D01*
X24425Y-22809D01*
X24425Y-20915D01*
X24360Y-20759D01*
X24241Y-20639D01*
X24152Y-20602D01*
X24152Y-20397D01*
X24240Y-20360D01*
X24360Y-20241D01*
X24425Y-20085D01*
X24425Y-19915D01*
X24360Y-19759D01*
X24241Y-19639D01*
X24085Y-19574D01*
X23915Y-19574D01*
X23759Y-19639D01*
X23639Y-19758D01*
X23574Y-19914D01*
X23574Y-20084D01*
X23639Y-20240D01*
X23758Y-20360D01*
X23847Y-20397D01*
X23847Y-20602D01*
X23759Y-20639D01*
X23639Y-20758D01*
X23574Y-20914D01*
X23574Y-21084D01*
X23639Y-21240D01*
X23758Y-21360D01*
X23914Y-21425D01*
X24084Y-21425D01*
X24240Y-21360D01*
X24360Y-21241D01*
X24425Y-21085D01*
X24425Y-20915D01*
X24425Y-22809D01*
X24383Y-22767D01*
X24387Y-22757D01*
X24387Y-22643D01*
X24343Y-22537D01*
X24263Y-22456D01*
X24157Y-22412D01*
X24043Y-22412D01*
X23937Y-22456D01*
X23856Y-22536D01*
X23812Y-22642D01*
X23812Y-22756D01*
X23856Y-22862D01*
X23936Y-22943D01*
X24042Y-22987D01*
X24156Y-22987D01*
X24167Y-22983D01*
X27428Y-26243D01*
X27428Y-27547D01*
X27380Y-27527D01*
X27297Y-27527D01*
X27219Y-27559D01*
X27160Y-27618D01*
X27128Y-27695D01*
X27128Y-27731D01*
X26192Y-28668D01*
X26159Y-28718D01*
X26147Y-28776D01*
X26147Y-29688D01*
X26122Y-29713D01*
X26090Y-29790D01*
X26089Y-29874D01*
X26121Y-29951D01*
X26180Y-30010D01*
X26258Y-30042D01*
X26341Y-30042D01*
X26418Y-30010D01*
X26477Y-29951D01*
X26509Y-29874D01*
X26510Y-29790D01*
X26478Y-29713D01*
X26452Y-29688D01*
X26452Y-28839D01*
X27344Y-27947D01*
X27380Y-27947D01*
X27428Y-27927D01*
X27428Y-31938D01*
X25643Y-30153D01*
X25593Y-30120D01*
X25535Y-30108D01*
X24710Y-30108D01*
X24710Y-29234D01*
X24710Y-29182D01*
X24710Y-28611D01*
X24690Y-28563D01*
X24653Y-28527D01*
X24606Y-28507D01*
X24554Y-28507D01*
X23767Y-28507D01*
X23719Y-28527D01*
X23682Y-28563D01*
X23662Y-28611D01*
X23662Y-28663D01*
X23662Y-29234D01*
X23682Y-29281D01*
X23719Y-29318D01*
X23767Y-29338D01*
X23818Y-29338D01*
X24606Y-29338D01*
X24653Y-29318D01*
X24690Y-29281D01*
X24710Y-29234D01*
X24710Y-30108D01*
X23588Y-30108D01*
X23588Y-30078D01*
X23574Y-30044D01*
X23588Y-30011D01*
X23588Y-29959D01*
X23588Y-29760D01*
X23628Y-29719D01*
X23661Y-29670D01*
X23661Y-29670D01*
X23665Y-29652D01*
X23698Y-29618D01*
X23730Y-29541D01*
X23730Y-29458D01*
X23699Y-29381D01*
X23640Y-29321D01*
X23562Y-29289D01*
X23479Y-29289D01*
X23425Y-29312D01*
X23425Y-21321D01*
X23425Y-21269D01*
X23425Y-20678D01*
X23405Y-20630D01*
X23369Y-20594D01*
X23321Y-20574D01*
X23269Y-20574D01*
X23152Y-20574D01*
X23152Y-20425D01*
X23321Y-20425D01*
X23369Y-20405D01*
X23405Y-20369D01*
X23425Y-20321D01*
X23425Y-20269D01*
X23425Y-19678D01*
X23405Y-19630D01*
X23369Y-19594D01*
X23321Y-19574D01*
X23269Y-19574D01*
X22678Y-19574D01*
X22630Y-19594D01*
X22594Y-19630D01*
X22574Y-19678D01*
X22574Y-19730D01*
X22574Y-20321D01*
X22594Y-20369D01*
X22630Y-20405D01*
X22678Y-20425D01*
X22730Y-20425D01*
X22847Y-20425D01*
X22847Y-20574D01*
X22678Y-20574D01*
X22630Y-20594D01*
X22594Y-20630D01*
X22574Y-20678D01*
X22574Y-20730D01*
X22574Y-21321D01*
X22594Y-21369D01*
X22630Y-21405D01*
X22678Y-21425D01*
X22730Y-21425D01*
X23321Y-21425D01*
X23369Y-21405D01*
X23405Y-21369D01*
X23425Y-21321D01*
X23425Y-29312D01*
X23402Y-29321D01*
X23342Y-29380D01*
X23310Y-29457D01*
X23310Y-29540D01*
X22962Y-29540D01*
X22962Y-26392D01*
X22962Y-26341D01*
X22962Y-25868D01*
X22942Y-25820D01*
X22905Y-25784D01*
X22858Y-25764D01*
X22806Y-25764D01*
X21940Y-25764D01*
X21892Y-25784D01*
X21855Y-25820D01*
X21836Y-25868D01*
X21836Y-25920D01*
X21836Y-26392D01*
X21855Y-26440D01*
X21892Y-26477D01*
X21940Y-26496D01*
X21992Y-26496D01*
X22858Y-26496D01*
X22905Y-26477D01*
X22942Y-26440D01*
X22962Y-26392D01*
X22962Y-29540D01*
X22841Y-29540D01*
X22794Y-29560D01*
X22757Y-29597D01*
X22737Y-29645D01*
X22737Y-29696D01*
X22737Y-30011D01*
X22751Y-30044D01*
X22741Y-30070D01*
X22668Y-30069D01*
X22591Y-30101D01*
X22532Y-30160D01*
X22500Y-30238D01*
X22499Y-30321D01*
X22531Y-30398D01*
X22590Y-30457D01*
X22624Y-30471D01*
X22617Y-30487D01*
X22617Y-30591D01*
X22680Y-30654D01*
X23122Y-30654D01*
X23122Y-30646D01*
X23202Y-30646D01*
X23202Y-30654D01*
X23645Y-30654D01*
X23708Y-30591D01*
X23708Y-30487D01*
X23677Y-30413D01*
X25274Y-30413D01*
X25273Y-30463D01*
X25275Y-30466D01*
X25246Y-30478D01*
X25187Y-30537D01*
X25155Y-30615D01*
X25154Y-30698D01*
X25186Y-30775D01*
X25209Y-30798D01*
X25209Y-31257D01*
X25221Y-31315D01*
X25254Y-31364D01*
X25445Y-31556D01*
X25445Y-31556D01*
X30172Y-36282D01*
X30221Y-36315D01*
X30280Y-36327D01*
X30280Y-36327D01*
X30546Y-36327D01*
X30849Y-36630D01*
X30345Y-36630D01*
X30298Y-36650D01*
X30261Y-36686D01*
X30241Y-36734D01*
X30241Y-36786D01*
X30241Y-37180D01*
X30261Y-37227D01*
X30298Y-37264D01*
X30345Y-37284D01*
X30397Y-37284D01*
X30988Y-37284D01*
X31035Y-37264D01*
X31072Y-37227D01*
X31092Y-37180D01*
X31092Y-37128D01*
X31092Y-36872D01*
X31254Y-37035D01*
X31267Y-37047D01*
X31267Y-37047D01*
X31267Y-37047D01*
X31291Y-37064D01*
X31316Y-37080D01*
X31316Y-37080D01*
X31375Y-37092D01*
X31375Y-37092D01*
X31375Y-37092D01*
X34848Y-37092D01*
X34906Y-37080D01*
X34906Y-37080D01*
X34955Y-37047D01*
X35075Y-36928D01*
X35075Y-36999D01*
X35113Y-37091D01*
X35183Y-37161D01*
X35275Y-37200D01*
X35374Y-37200D01*
X35497Y-37200D01*
X35560Y-37137D01*
X35560Y-36815D01*
X35552Y-36815D01*
X35552Y-36735D01*
X35560Y-36735D01*
X35560Y-36727D01*
X35640Y-36727D01*
X35640Y-36735D01*
X36062Y-36735D01*
X36125Y-36672D01*
X36125Y-36550D01*
X36086Y-36458D01*
X36059Y-36431D01*
X36927Y-35562D01*
X36960Y-35513D01*
X36960Y-35513D01*
X36972Y-35455D01*
X36972Y-35455D01*
X36972Y-35454D01*
X36972Y-35345D01*
X36972Y-33876D01*
X36997Y-33851D01*
X37029Y-33773D01*
X37030Y-33690D01*
X36998Y-33613D01*
X36939Y-33554D01*
X36861Y-33522D01*
X36778Y-33521D01*
X36701Y-33553D01*
X36642Y-33612D01*
X36610Y-33690D01*
X36609Y-33773D01*
X36641Y-33850D01*
X36667Y-33876D01*
X36667Y-35345D01*
X36667Y-35391D01*
X36005Y-36054D01*
X36005Y-35835D01*
X36478Y-35361D01*
X36511Y-35312D01*
X36511Y-35312D01*
X36523Y-35254D01*
X36523Y-34493D01*
X36548Y-34468D01*
X36580Y-34390D01*
X36581Y-34307D01*
X36549Y-34230D01*
X36490Y-34171D01*
X36412Y-34139D01*
X36329Y-34138D01*
X36252Y-34170D01*
X36193Y-34229D01*
X36161Y-34307D01*
X36160Y-34390D01*
X36192Y-34467D01*
X36218Y-34493D01*
X36218Y-35190D01*
X35689Y-35720D01*
X35299Y-35720D01*
X35251Y-35739D01*
X35214Y-35776D01*
X35195Y-35824D01*
X35195Y-35875D01*
X35195Y-35965D01*
X35055Y-36105D01*
X35055Y-36099D01*
X35055Y-35912D01*
X35126Y-35883D01*
X35185Y-35824D01*
X35217Y-35747D01*
X35217Y-35663D01*
X35185Y-35586D01*
X35160Y-35560D01*
X35160Y-35151D01*
X35265Y-35046D01*
X35298Y-34996D01*
X35309Y-34938D01*
X35309Y-34938D01*
X35309Y-34088D01*
X35308Y-34082D01*
X35378Y-34053D01*
X35437Y-33994D01*
X35469Y-33916D01*
X35470Y-33833D01*
X35438Y-33756D01*
X35411Y-33729D01*
X35412Y-33704D01*
X35417Y-33699D01*
X35455Y-33737D01*
X35532Y-33769D01*
X35616Y-33769D01*
X35693Y-33737D01*
X35752Y-33678D01*
X35784Y-33601D01*
X35784Y-33570D01*
X35980Y-33570D01*
X35884Y-33664D01*
X35848Y-33664D01*
X35771Y-33696D01*
X35712Y-33755D01*
X35680Y-33833D01*
X35679Y-33916D01*
X35711Y-33993D01*
X35770Y-34052D01*
X35848Y-34084D01*
X35931Y-34085D01*
X36008Y-34053D01*
X36067Y-33994D01*
X36099Y-33916D01*
X36099Y-33881D01*
X36512Y-33471D01*
X36512Y-33470D01*
X36512Y-33470D01*
X36529Y-33446D01*
X36545Y-33421D01*
X36545Y-33421D01*
X36545Y-33421D01*
X36551Y-33392D01*
X36557Y-33363D01*
X36557Y-33363D01*
X36557Y-33363D01*
X36557Y-32853D01*
X36582Y-32828D01*
X36614Y-32750D01*
X36615Y-32667D01*
X36583Y-32590D01*
X36524Y-32531D01*
X36446Y-32499D01*
X36363Y-32498D01*
X36286Y-32530D01*
X36227Y-32589D01*
X36224Y-32594D01*
X36224Y-32140D01*
X37581Y-30784D01*
X37604Y-30807D01*
X37645Y-30834D01*
X37645Y-30950D01*
X37664Y-30998D01*
X37701Y-31035D01*
X37749Y-31055D01*
X37800Y-31055D01*
X37833Y-31055D01*
X37511Y-31377D01*
X37478Y-31426D01*
X37466Y-31485D01*
X37466Y-33400D01*
X37478Y-33458D01*
X37511Y-33507D01*
X37560Y-33540D01*
X37619Y-33552D01*
X37645Y-33552D01*
X37645Y-33650D01*
X37664Y-33698D01*
X37701Y-33735D01*
X37749Y-33755D01*
X37768Y-33755D01*
X37722Y-33800D01*
X37690Y-33878D01*
X37689Y-33961D01*
X37694Y-33971D01*
X37664Y-34001D01*
X37645Y-34049D01*
X37645Y-34100D01*
X37645Y-34550D01*
X37664Y-34598D01*
X37701Y-34635D01*
X37749Y-34655D01*
X37800Y-34655D01*
X38050Y-34655D01*
X38096Y-34635D01*
X38096Y-34682D01*
X38096Y-34937D01*
X38073Y-34914D01*
X38025Y-34895D01*
X37974Y-34895D01*
X37624Y-34895D01*
X37576Y-34914D01*
X37539Y-34951D01*
X37520Y-34999D01*
X37520Y-35050D01*
X37520Y-35600D01*
X37539Y-35648D01*
X37576Y-35685D01*
X37624Y-35705D01*
X37675Y-35705D01*
X37682Y-35705D01*
X37684Y-35713D01*
X37717Y-35762D01*
X37962Y-36007D01*
X38011Y-36040D01*
X38011Y-36040D01*
X38070Y-36052D01*
X38120Y-36052D01*
X38145Y-36077D01*
X38223Y-36109D01*
X38306Y-36110D01*
X38383Y-36078D01*
X38442Y-36019D01*
X38474Y-35941D01*
X38475Y-35858D01*
X38461Y-35825D01*
X38472Y-35825D01*
X38535Y-35762D01*
X38535Y-35340D01*
X38527Y-35340D01*
X38527Y-35260D01*
X38535Y-35260D01*
X38535Y-34837D01*
X38472Y-34775D01*
X38401Y-34775D01*
X38401Y-34682D01*
X38401Y-34655D01*
X38650Y-34655D01*
X38698Y-34635D01*
X38735Y-34598D01*
X38755Y-34550D01*
X38755Y-34499D01*
X38755Y-34049D01*
X38735Y-34001D01*
X38698Y-33964D01*
X38650Y-33945D01*
X38599Y-33945D01*
X38401Y-33945D01*
X38401Y-33870D01*
X38460Y-33812D01*
X38460Y-33440D01*
X38452Y-33440D01*
X38452Y-33360D01*
X38460Y-33360D01*
X38460Y-32987D01*
X38397Y-32925D01*
X38325Y-32925D01*
X38233Y-32963D01*
X38163Y-33033D01*
X38134Y-33101D01*
X38098Y-33064D01*
X38050Y-33045D01*
X37999Y-33045D01*
X37771Y-33045D01*
X37771Y-32175D01*
X37797Y-32175D01*
X37860Y-32112D01*
X37860Y-31740D01*
X37852Y-31740D01*
X37852Y-31660D01*
X37860Y-31660D01*
X37860Y-31652D01*
X37940Y-31652D01*
X37940Y-31660D01*
X37947Y-31660D01*
X37947Y-31740D01*
X37940Y-31740D01*
X37940Y-32112D01*
X38002Y-32175D01*
X38074Y-32175D01*
X38166Y-32136D01*
X38236Y-32066D01*
X38265Y-31998D01*
X38301Y-32035D01*
X38349Y-32055D01*
X38400Y-32055D01*
X38650Y-32055D01*
X38698Y-32035D01*
X38735Y-31998D01*
X38755Y-31950D01*
X38755Y-31909D01*
X38821Y-31910D01*
X38898Y-31878D01*
X38957Y-31819D01*
X38989Y-31741D01*
X38990Y-31658D01*
X38958Y-31581D01*
X38899Y-31522D01*
X38875Y-31512D01*
X38875Y-30974D01*
X38875Y-30875D01*
X38875Y-30802D01*
X38875Y-30597D01*
X38875Y-30524D01*
X38875Y-30425D01*
X38836Y-30333D01*
X38766Y-30263D01*
X38674Y-30225D01*
X38602Y-30225D01*
X38540Y-30287D01*
X38540Y-30660D01*
X38812Y-30660D01*
X38875Y-30597D01*
X38875Y-30802D01*
X38812Y-30740D01*
X38540Y-30740D01*
X38540Y-31112D01*
X38602Y-31175D01*
X38674Y-31175D01*
X38766Y-31136D01*
X38836Y-31066D01*
X38875Y-30974D01*
X38875Y-31512D01*
X38821Y-31490D01*
X38755Y-31489D01*
X38755Y-31449D01*
X38735Y-31401D01*
X38698Y-31364D01*
X38650Y-31345D01*
X38599Y-31345D01*
X38349Y-31345D01*
X38301Y-31364D01*
X38265Y-31401D01*
X38236Y-31333D01*
X38166Y-31263D01*
X38089Y-31231D01*
X38208Y-31111D01*
X38233Y-31136D01*
X38325Y-31175D01*
X38397Y-31175D01*
X38460Y-31112D01*
X38460Y-30740D01*
X38452Y-30740D01*
X38452Y-30660D01*
X38460Y-30660D01*
X38460Y-30287D01*
X38397Y-30225D01*
X38325Y-30225D01*
X38276Y-30245D01*
X38272Y-30225D01*
X38272Y-30225D01*
X38239Y-30176D01*
X37900Y-29836D01*
X37900Y-28924D01*
X37900Y-28825D01*
X37900Y-28702D01*
X37837Y-28640D01*
X37515Y-28640D01*
X37515Y-29062D01*
X37577Y-29125D01*
X37699Y-29125D01*
X37791Y-29086D01*
X37861Y-29016D01*
X37900Y-28924D01*
X37900Y-29836D01*
X37351Y-29288D01*
X37351Y-29125D01*
X37372Y-29125D01*
X37435Y-29062D01*
X37435Y-28640D01*
X37427Y-28640D01*
X37427Y-28560D01*
X37435Y-28560D01*
X37435Y-28552D01*
X37515Y-28552D01*
X37515Y-28560D01*
X37837Y-28560D01*
X37900Y-28497D01*
X37900Y-28374D01*
X37900Y-28275D01*
X37861Y-28183D01*
X37791Y-28113D01*
X37699Y-28075D01*
X37609Y-28075D01*
X37758Y-27926D01*
X37764Y-27941D01*
X37800Y-27978D01*
X37848Y-27998D01*
X37900Y-27998D01*
X38451Y-27998D01*
X38499Y-27978D01*
X38535Y-27941D01*
X38555Y-27893D01*
X38555Y-27842D01*
X38555Y-27606D01*
X38535Y-27558D01*
X38499Y-27521D01*
X38451Y-27502D01*
X38399Y-27502D01*
X37871Y-27502D01*
X37871Y-27498D01*
X37900Y-27498D01*
X38451Y-27498D01*
X38499Y-27478D01*
X38524Y-27452D01*
X38554Y-27482D01*
X38595Y-27509D01*
X38595Y-27575D01*
X38614Y-27623D01*
X38651Y-27660D01*
X38699Y-27680D01*
X38750Y-27680D01*
X39300Y-27680D01*
X39348Y-27660D01*
X39385Y-27623D01*
X39405Y-27575D01*
X39405Y-37795D01*
X39000Y-37795D01*
X39000Y-35624D01*
X39000Y-35525D01*
X39000Y-35402D01*
X39000Y-35197D01*
X39000Y-35074D01*
X39000Y-34975D01*
X38961Y-34883D01*
X38891Y-34813D01*
X38875Y-34806D01*
X38875Y-33674D01*
X38875Y-33575D01*
X38875Y-33502D01*
X38875Y-33297D01*
X38875Y-33224D01*
X38875Y-33125D01*
X38836Y-33033D01*
X38766Y-32963D01*
X38674Y-32925D01*
X38602Y-32925D01*
X38540Y-32987D01*
X38540Y-33360D01*
X38812Y-33360D01*
X38875Y-33297D01*
X38875Y-33502D01*
X38812Y-33440D01*
X38540Y-33440D01*
X38540Y-33812D01*
X38602Y-33875D01*
X38674Y-33875D01*
X38766Y-33836D01*
X38836Y-33766D01*
X38875Y-33674D01*
X38875Y-34806D01*
X38799Y-34775D01*
X38677Y-34775D01*
X38615Y-34837D01*
X38615Y-35260D01*
X38937Y-35260D01*
X39000Y-35197D01*
X39000Y-35402D01*
X38937Y-35340D01*
X38615Y-35340D01*
X38615Y-35762D01*
X38677Y-35825D01*
X38799Y-35825D01*
X38891Y-35786D01*
X38961Y-35716D01*
X39000Y-35624D01*
X39000Y-37795D01*
X38980Y-37798D01*
X38960Y-37798D01*
X38577Y-37875D01*
X38503Y-37905D01*
X38179Y-38122D01*
X38150Y-38150D01*
X38122Y-38179D01*
X37905Y-38503D01*
X37875Y-38577D01*
X37798Y-38960D01*
X37798Y-38980D01*
X37795Y-39000D01*
X37795Y-39500D01*
X37795Y-39795D01*
X37412Y-39795D01*
X37412Y-31790D01*
X37380Y-31713D01*
X37321Y-31654D01*
X37243Y-31622D01*
X37160Y-31621D01*
X37083Y-31653D01*
X37024Y-31712D01*
X36992Y-31790D01*
X36991Y-31873D01*
X37023Y-31950D01*
X37044Y-31971D01*
X37044Y-34784D01*
X37019Y-34809D01*
X36987Y-34887D01*
X36986Y-34970D01*
X37018Y-35047D01*
X37077Y-35106D01*
X37155Y-35138D01*
X37238Y-35139D01*
X37315Y-35107D01*
X37374Y-35048D01*
X37406Y-34970D01*
X37407Y-34887D01*
X37375Y-34810D01*
X37349Y-34784D01*
X37349Y-31981D01*
X37379Y-31951D01*
X37411Y-31873D01*
X37412Y-31790D01*
X37412Y-39795D01*
X36425Y-39795D01*
X36425Y-39321D01*
X36425Y-39269D01*
X36425Y-38678D01*
X36405Y-38630D01*
X36369Y-38594D01*
X36321Y-38574D01*
X36269Y-38574D01*
X36152Y-38574D01*
X36152Y-38425D01*
X36321Y-38425D01*
X36369Y-38405D01*
X36405Y-38369D01*
X36425Y-38321D01*
X36425Y-38269D01*
X36425Y-37678D01*
X36405Y-37630D01*
X36369Y-37594D01*
X36321Y-37574D01*
X36269Y-37574D01*
X36125Y-37574D01*
X36125Y-36999D01*
X36125Y-36877D01*
X36062Y-36815D01*
X35640Y-36815D01*
X35640Y-37137D01*
X35702Y-37200D01*
X35825Y-37200D01*
X35924Y-37200D01*
X36016Y-37161D01*
X36086Y-37091D01*
X36125Y-36999D01*
X36125Y-37574D01*
X35678Y-37574D01*
X35630Y-37594D01*
X35594Y-37630D01*
X35574Y-37678D01*
X35574Y-37730D01*
X35574Y-38321D01*
X35594Y-38369D01*
X35630Y-38405D01*
X35678Y-38425D01*
X35730Y-38425D01*
X35847Y-38425D01*
X35847Y-38574D01*
X35678Y-38574D01*
X35630Y-38594D01*
X35594Y-38630D01*
X35574Y-38678D01*
X35574Y-38730D01*
X35574Y-39321D01*
X35594Y-39369D01*
X35630Y-39405D01*
X35678Y-39425D01*
X35730Y-39425D01*
X36321Y-39425D01*
X36369Y-39405D01*
X36405Y-39369D01*
X36425Y-39321D01*
X36425Y-39795D01*
X35548Y-39795D01*
X35548Y-39090D01*
X35548Y-38090D01*
X35541Y-37873D01*
X35472Y-37706D01*
X35376Y-37680D01*
X35319Y-37736D01*
X35319Y-37623D01*
X35293Y-37527D01*
X35090Y-37451D01*
X34873Y-37458D01*
X34706Y-37527D01*
X34680Y-37623D01*
X35000Y-37943D01*
X35319Y-37623D01*
X35319Y-37736D01*
X35056Y-38000D01*
X35376Y-38319D01*
X35472Y-38293D01*
X35548Y-38090D01*
X35548Y-39090D01*
X35541Y-38873D01*
X35472Y-38706D01*
X35376Y-38680D01*
X35319Y-38736D01*
X35319Y-38623D01*
X35293Y-38527D01*
X35223Y-38501D01*
X35293Y-38472D01*
X35319Y-38376D01*
X35000Y-38056D01*
X34943Y-38113D01*
X34943Y-38000D01*
X34623Y-37680D01*
X34527Y-37706D01*
X34451Y-37909D01*
X34458Y-38126D01*
X34527Y-38293D01*
X34623Y-38319D01*
X34943Y-38000D01*
X34943Y-38113D01*
X34680Y-38376D01*
X34706Y-38472D01*
X34776Y-38498D01*
X34706Y-38527D01*
X34680Y-38623D01*
X35000Y-38943D01*
X35319Y-38623D01*
X35319Y-38736D01*
X35056Y-39000D01*
X35376Y-39319D01*
X35472Y-39293D01*
X35548Y-39090D01*
X35548Y-39795D01*
X35319Y-39795D01*
X35319Y-39376D01*
X35000Y-39056D01*
X34943Y-39113D01*
X34943Y-39000D01*
X34623Y-38680D01*
X34527Y-38706D01*
X34451Y-38909D01*
X34458Y-39126D01*
X34527Y-39293D01*
X34623Y-39319D01*
X34943Y-39000D01*
X34943Y-39113D01*
X34680Y-39376D01*
X34706Y-39472D01*
X34909Y-39548D01*
X35126Y-39541D01*
X35293Y-39472D01*
X35319Y-39376D01*
X35319Y-39795D01*
X34425Y-39795D01*
X34425Y-38915D01*
X34360Y-38759D01*
X34241Y-38639D01*
X34152Y-38602D01*
X34152Y-38397D01*
X34240Y-38360D01*
X34360Y-38241D01*
X34425Y-38085D01*
X34425Y-37915D01*
X34360Y-37759D01*
X34241Y-37639D01*
X34085Y-37574D01*
X33915Y-37574D01*
X33759Y-37639D01*
X33639Y-37758D01*
X33574Y-37914D01*
X33574Y-38084D01*
X33639Y-38240D01*
X33758Y-38360D01*
X33847Y-38397D01*
X33847Y-38602D01*
X33759Y-38639D01*
X33639Y-38758D01*
X33574Y-38914D01*
X33574Y-39084D01*
X33639Y-39240D01*
X33758Y-39360D01*
X33914Y-39425D01*
X34084Y-39425D01*
X34240Y-39360D01*
X34360Y-39241D01*
X34425Y-39085D01*
X34425Y-38915D01*
X34425Y-39795D01*
X33425Y-39795D01*
X33425Y-38915D01*
X33360Y-38759D01*
X33241Y-38639D01*
X33152Y-38602D01*
X33152Y-38397D01*
X33240Y-38360D01*
X33360Y-38241D01*
X33425Y-38085D01*
X33425Y-37915D01*
X33360Y-37759D01*
X33241Y-37639D01*
X33085Y-37574D01*
X32915Y-37574D01*
X32826Y-37611D01*
X32592Y-37377D01*
X32543Y-37344D01*
X32485Y-37332D01*
X27048Y-37332D01*
X25802Y-36086D01*
X25802Y-34179D01*
X25827Y-34154D01*
X25859Y-34076D01*
X25860Y-33993D01*
X25828Y-33916D01*
X25769Y-33857D01*
X25691Y-33825D01*
X25608Y-33824D01*
X25531Y-33856D01*
X25472Y-33915D01*
X25440Y-33993D01*
X25439Y-34076D01*
X25471Y-34153D01*
X25497Y-34179D01*
X25497Y-36150D01*
X25509Y-36208D01*
X25542Y-36257D01*
X26875Y-37591D01*
X26759Y-37639D01*
X26639Y-37758D01*
X26574Y-37914D01*
X26574Y-38084D01*
X26639Y-38240D01*
X26758Y-38360D01*
X26847Y-38397D01*
X26847Y-38602D01*
X26759Y-38639D01*
X26639Y-38758D01*
X26574Y-38914D01*
X26574Y-39084D01*
X26639Y-39240D01*
X26758Y-39360D01*
X26914Y-39425D01*
X27084Y-39425D01*
X27240Y-39360D01*
X27360Y-39241D01*
X27425Y-39085D01*
X27425Y-38915D01*
X27360Y-38759D01*
X27241Y-38639D01*
X27152Y-38602D01*
X27152Y-38397D01*
X27240Y-38360D01*
X27360Y-38241D01*
X27425Y-38085D01*
X27425Y-37915D01*
X27360Y-37759D01*
X27241Y-37639D01*
X27236Y-37637D01*
X27763Y-37637D01*
X27759Y-37639D01*
X27639Y-37758D01*
X27574Y-37914D01*
X27574Y-38084D01*
X27639Y-38240D01*
X27758Y-38360D01*
X27847Y-38397D01*
X27847Y-38602D01*
X27759Y-38639D01*
X27639Y-38758D01*
X27574Y-38914D01*
X27574Y-39084D01*
X27639Y-39240D01*
X27758Y-39360D01*
X27914Y-39425D01*
X28084Y-39425D01*
X28240Y-39360D01*
X28360Y-39241D01*
X28425Y-39085D01*
X28425Y-38915D01*
X28360Y-38759D01*
X28241Y-38639D01*
X28152Y-38602D01*
X28152Y-38397D01*
X28240Y-38360D01*
X28360Y-38241D01*
X28425Y-38085D01*
X28425Y-37915D01*
X28360Y-37759D01*
X28241Y-37639D01*
X28236Y-37637D01*
X28763Y-37637D01*
X28759Y-37639D01*
X28639Y-37758D01*
X28574Y-37914D01*
X28574Y-38084D01*
X28639Y-38240D01*
X28758Y-38360D01*
X28847Y-38397D01*
X28847Y-38602D01*
X28759Y-38639D01*
X28639Y-38758D01*
X28574Y-38914D01*
X28574Y-39084D01*
X28639Y-39240D01*
X28758Y-39360D01*
X28914Y-39425D01*
X29084Y-39425D01*
X29240Y-39360D01*
X29360Y-39241D01*
X29425Y-39085D01*
X29425Y-38915D01*
X29360Y-38759D01*
X29241Y-38639D01*
X29152Y-38602D01*
X29152Y-38397D01*
X29240Y-38360D01*
X29360Y-38241D01*
X29425Y-38085D01*
X29425Y-37915D01*
X29360Y-37759D01*
X29241Y-37639D01*
X29236Y-37637D01*
X29763Y-37637D01*
X29759Y-37639D01*
X29639Y-37758D01*
X29574Y-37914D01*
X29574Y-38084D01*
X29639Y-38240D01*
X29758Y-38360D01*
X29847Y-38397D01*
X29847Y-38602D01*
X29759Y-38639D01*
X29639Y-38758D01*
X29574Y-38914D01*
X29574Y-39084D01*
X29639Y-39240D01*
X29758Y-39360D01*
X29914Y-39425D01*
X30084Y-39425D01*
X30240Y-39360D01*
X30360Y-39241D01*
X30425Y-39085D01*
X30425Y-38915D01*
X30360Y-38759D01*
X30241Y-38639D01*
X30152Y-38602D01*
X30152Y-38397D01*
X30240Y-38360D01*
X30360Y-38241D01*
X30425Y-38085D01*
X30425Y-37915D01*
X30360Y-37759D01*
X30241Y-37639D01*
X30236Y-37637D01*
X30763Y-37637D01*
X30759Y-37639D01*
X30639Y-37758D01*
X30574Y-37914D01*
X30574Y-38084D01*
X30639Y-38240D01*
X30758Y-38360D01*
X30847Y-38397D01*
X30847Y-38602D01*
X30759Y-38639D01*
X30639Y-38758D01*
X30574Y-38914D01*
X30574Y-39084D01*
X30639Y-39240D01*
X30758Y-39360D01*
X30914Y-39425D01*
X31084Y-39425D01*
X31240Y-39360D01*
X31360Y-39241D01*
X31425Y-39085D01*
X31425Y-38915D01*
X31360Y-38759D01*
X31241Y-38639D01*
X31152Y-38602D01*
X31152Y-38397D01*
X31240Y-38360D01*
X31360Y-38241D01*
X31425Y-38085D01*
X31425Y-37915D01*
X31360Y-37759D01*
X31241Y-37639D01*
X31236Y-37637D01*
X31763Y-37637D01*
X31759Y-37639D01*
X31639Y-37758D01*
X31574Y-37914D01*
X31574Y-38084D01*
X31639Y-38240D01*
X31758Y-38360D01*
X31847Y-38397D01*
X31847Y-38602D01*
X31759Y-38639D01*
X31639Y-38758D01*
X31574Y-38914D01*
X31574Y-39084D01*
X31639Y-39240D01*
X31758Y-39360D01*
X31914Y-39425D01*
X32084Y-39425D01*
X32240Y-39360D01*
X32360Y-39241D01*
X32425Y-39085D01*
X32425Y-38915D01*
X32360Y-38759D01*
X32241Y-38639D01*
X32152Y-38602D01*
X32152Y-38397D01*
X32240Y-38360D01*
X32360Y-38241D01*
X32425Y-38085D01*
X32425Y-37915D01*
X32360Y-37759D01*
X32241Y-37639D01*
X32236Y-37637D01*
X32421Y-37637D01*
X32611Y-37826D01*
X32574Y-37914D01*
X32574Y-38084D01*
X32639Y-38240D01*
X32758Y-38360D01*
X32847Y-38397D01*
X32847Y-38602D01*
X32759Y-38639D01*
X32639Y-38758D01*
X32574Y-38914D01*
X32574Y-39084D01*
X32639Y-39240D01*
X32758Y-39360D01*
X32914Y-39425D01*
X33084Y-39425D01*
X33240Y-39360D01*
X33360Y-39241D01*
X33425Y-39085D01*
X33425Y-38915D01*
X33425Y-39795D01*
X26425Y-39795D01*
X26425Y-38915D01*
X26360Y-38759D01*
X26241Y-38639D01*
X26152Y-38602D01*
X26152Y-38397D01*
X26240Y-38360D01*
X26360Y-38241D01*
X26425Y-38085D01*
X26425Y-37915D01*
X26360Y-37759D01*
X26241Y-37639D01*
X26085Y-37574D01*
X25915Y-37574D01*
X25759Y-37639D01*
X25639Y-37758D01*
X25574Y-37914D01*
X25574Y-38084D01*
X25639Y-38240D01*
X25758Y-38360D01*
X25847Y-38397D01*
X25847Y-38602D01*
X25759Y-38639D01*
X25639Y-38758D01*
X25574Y-38914D01*
X25574Y-39084D01*
X25639Y-39240D01*
X25758Y-39360D01*
X25914Y-39425D01*
X26084Y-39425D01*
X26240Y-39360D01*
X26360Y-39241D01*
X26425Y-39085D01*
X26425Y-38915D01*
X26425Y-39795D01*
X25425Y-39795D01*
X25425Y-38915D01*
X25360Y-38759D01*
X25241Y-38639D01*
X25152Y-38602D01*
X25152Y-38397D01*
X25240Y-38360D01*
X25360Y-38241D01*
X25425Y-38085D01*
X25425Y-37915D01*
X25360Y-37759D01*
X25241Y-37639D01*
X25085Y-37574D01*
X24915Y-37574D01*
X24759Y-37639D01*
X24710Y-37687D01*
X24710Y-34588D01*
X24710Y-34536D01*
X24710Y-33965D01*
X24690Y-33918D01*
X24653Y-33881D01*
X24606Y-33861D01*
X24554Y-33861D01*
X23767Y-33861D01*
X23730Y-33876D01*
X23730Y-33458D01*
X23699Y-33381D01*
X23673Y-33355D01*
X23673Y-33070D01*
X23661Y-33012D01*
X23661Y-33012D01*
X23628Y-32963D01*
X23588Y-32922D01*
X23588Y-32676D01*
X23574Y-32643D01*
X23588Y-32610D01*
X23588Y-32558D01*
X23588Y-32243D01*
X23574Y-32210D01*
X23588Y-32177D01*
X23588Y-32125D01*
X23588Y-31810D01*
X23574Y-31777D01*
X23588Y-31743D01*
X23588Y-31692D01*
X23588Y-31377D01*
X23574Y-31344D01*
X23588Y-31310D01*
X23588Y-31259D01*
X23588Y-31068D01*
X23599Y-31063D01*
X23670Y-30993D01*
X23708Y-30901D01*
X23708Y-30796D01*
X23645Y-30734D01*
X23202Y-30734D01*
X23202Y-30742D01*
X23122Y-30742D01*
X23122Y-30734D01*
X22680Y-30734D01*
X22617Y-30796D01*
X22617Y-30866D01*
X22598Y-30874D01*
X22539Y-30933D01*
X22507Y-31010D01*
X22507Y-31094D01*
X22539Y-31171D01*
X22598Y-31230D01*
X22675Y-31262D01*
X22725Y-31262D01*
X22725Y-31262D01*
X22734Y-31268D01*
X22734Y-31268D01*
X22737Y-31269D01*
X22737Y-31310D01*
X22751Y-31344D01*
X22737Y-31377D01*
X22737Y-31408D01*
X21525Y-31408D01*
X21525Y-26951D01*
X21460Y-26795D01*
X21341Y-26675D01*
X21184Y-26611D01*
X21015Y-26610D01*
X20859Y-26675D01*
X20739Y-26795D01*
X20674Y-26951D01*
X20674Y-27120D01*
X20739Y-27276D01*
X20858Y-27396D01*
X21015Y-27461D01*
X21184Y-27461D01*
X21340Y-27396D01*
X21460Y-27277D01*
X21525Y-27121D01*
X21525Y-26951D01*
X21525Y-31408D01*
X21442Y-31408D01*
X21442Y-29234D01*
X21442Y-29182D01*
X21442Y-28611D01*
X21422Y-28563D01*
X21386Y-28527D01*
X21338Y-28507D01*
X21286Y-28507D01*
X20499Y-28507D01*
X20451Y-28527D01*
X20414Y-28563D01*
X20395Y-28611D01*
X20395Y-28663D01*
X20395Y-29234D01*
X20414Y-29281D01*
X20451Y-29318D01*
X20499Y-29338D01*
X20551Y-29338D01*
X21338Y-29338D01*
X21386Y-29318D01*
X21422Y-29281D01*
X21442Y-29234D01*
X21442Y-31408D01*
X21281Y-31408D01*
X21222Y-31419D01*
X21173Y-31452D01*
X20994Y-31631D01*
X20958Y-31631D01*
X20881Y-31663D01*
X20822Y-31722D01*
X20790Y-31799D01*
X20789Y-31883D01*
X20821Y-31960D01*
X20880Y-32019D01*
X20958Y-32051D01*
X21041Y-32051D01*
X21118Y-32020D01*
X21177Y-31961D01*
X21209Y-31883D01*
X21209Y-31847D01*
X21344Y-31713D01*
X22621Y-31713D01*
X22581Y-31729D01*
X22522Y-31788D01*
X22490Y-31865D01*
X22490Y-31949D01*
X22521Y-32026D01*
X22580Y-32085D01*
X22658Y-32117D01*
X22702Y-32117D01*
X22727Y-32134D01*
X22727Y-32134D01*
X22737Y-32136D01*
X22737Y-32177D01*
X22751Y-32210D01*
X22737Y-32243D01*
X22737Y-32290D01*
X22695Y-32318D01*
X22625Y-32388D01*
X22592Y-32438D01*
X22585Y-32473D01*
X22555Y-32503D01*
X22523Y-32580D01*
X22523Y-32664D01*
X22555Y-32741D01*
X22614Y-32800D01*
X22691Y-32832D01*
X22737Y-32832D01*
X22737Y-33043D01*
X22757Y-33090D01*
X22794Y-33127D01*
X22841Y-33147D01*
X22893Y-33147D01*
X23368Y-33147D01*
X23368Y-33355D01*
X23342Y-33380D01*
X23310Y-33458D01*
X23310Y-33541D01*
X23342Y-33618D01*
X23401Y-33677D01*
X23478Y-33709D01*
X23562Y-33710D01*
X23639Y-33678D01*
X23698Y-33619D01*
X23730Y-33541D01*
X23730Y-33458D01*
X23730Y-33876D01*
X23719Y-33881D01*
X23682Y-33918D01*
X23662Y-33965D01*
X23662Y-34017D01*
X23662Y-34588D01*
X23682Y-34636D01*
X23719Y-34672D01*
X23767Y-34692D01*
X23818Y-34692D01*
X24606Y-34692D01*
X24653Y-34672D01*
X24690Y-34636D01*
X24710Y-34588D01*
X24710Y-37687D01*
X24639Y-37758D01*
X24574Y-37914D01*
X24574Y-38084D01*
X24639Y-38240D01*
X24758Y-38360D01*
X24847Y-38397D01*
X24847Y-38602D01*
X24759Y-38639D01*
X24639Y-38758D01*
X24574Y-38914D01*
X24574Y-39084D01*
X24639Y-39240D01*
X24758Y-39360D01*
X24914Y-39425D01*
X25084Y-39425D01*
X25240Y-39360D01*
X25360Y-39241D01*
X25425Y-39085D01*
X25425Y-38915D01*
X25425Y-39795D01*
X24425Y-39795D01*
X24425Y-38915D01*
X24360Y-38759D01*
X24241Y-38639D01*
X24152Y-38602D01*
X24152Y-38397D01*
X24240Y-38360D01*
X24360Y-38241D01*
X24425Y-38085D01*
X24425Y-37915D01*
X24360Y-37759D01*
X24241Y-37639D01*
X24085Y-37574D01*
X23915Y-37574D01*
X23759Y-37639D01*
X23639Y-37758D01*
X23574Y-37914D01*
X23574Y-38084D01*
X23639Y-38240D01*
X23758Y-38360D01*
X23847Y-38397D01*
X23847Y-38602D01*
X23759Y-38639D01*
X23639Y-38758D01*
X23574Y-38914D01*
X23574Y-39084D01*
X23639Y-39240D01*
X23758Y-39360D01*
X23914Y-39425D01*
X24084Y-39425D01*
X24240Y-39360D01*
X24360Y-39241D01*
X24425Y-39085D01*
X24425Y-38915D01*
X24425Y-39795D01*
X23425Y-39795D01*
X23425Y-38915D01*
X23360Y-38759D01*
X23241Y-38639D01*
X23152Y-38602D01*
X23152Y-38397D01*
X23240Y-38360D01*
X23360Y-38241D01*
X23425Y-38085D01*
X23425Y-37915D01*
X23360Y-37759D01*
X23241Y-37639D01*
X23085Y-37574D01*
X22915Y-37574D01*
X22759Y-37639D01*
X22639Y-37758D01*
X22574Y-37914D01*
X22574Y-38084D01*
X22639Y-38240D01*
X22758Y-38360D01*
X22847Y-38397D01*
X22847Y-38602D01*
X22759Y-38639D01*
X22639Y-38758D01*
X22574Y-38914D01*
X22574Y-39084D01*
X22639Y-39240D01*
X22758Y-39360D01*
X22914Y-39425D01*
X23084Y-39425D01*
X23240Y-39360D01*
X23360Y-39241D01*
X23425Y-39085D01*
X23425Y-38915D01*
X23425Y-39795D01*
X22489Y-39795D01*
X22489Y-37416D01*
X22489Y-37364D01*
X22489Y-36892D01*
X22470Y-36844D01*
X22433Y-36807D01*
X22385Y-36788D01*
X22333Y-36788D01*
X21467Y-36788D01*
X21467Y-36788D01*
X21525Y-36648D01*
X21525Y-36479D01*
X21460Y-36323D01*
X21442Y-36305D01*
X21442Y-34588D01*
X21442Y-34536D01*
X21442Y-33965D01*
X21422Y-33918D01*
X21386Y-33881D01*
X21338Y-33861D01*
X21286Y-33861D01*
X20499Y-33861D01*
X20451Y-33881D01*
X20414Y-33918D01*
X20395Y-33965D01*
X20395Y-34017D01*
X20395Y-34588D01*
X20414Y-34636D01*
X20451Y-34672D01*
X20499Y-34692D01*
X20551Y-34692D01*
X21338Y-34692D01*
X21386Y-34672D01*
X21422Y-34636D01*
X21442Y-34588D01*
X21442Y-36305D01*
X21341Y-36203D01*
X21184Y-36138D01*
X21015Y-36138D01*
X20859Y-36203D01*
X20739Y-36322D01*
X20674Y-36478D01*
X20674Y-36648D01*
X20739Y-36804D01*
X20858Y-36924D01*
X21015Y-36988D01*
X21184Y-36989D01*
X21340Y-36924D01*
X21363Y-36901D01*
X21363Y-36943D01*
X21363Y-37416D01*
X21383Y-37464D01*
X21420Y-37500D01*
X21467Y-37520D01*
X21519Y-37520D01*
X22385Y-37520D01*
X22433Y-37500D01*
X22470Y-37464D01*
X22489Y-37416D01*
X22489Y-39795D01*
X20950Y-39795D01*
X20950Y-39187D01*
X20949Y-38809D01*
X20806Y-38463D01*
X20668Y-38388D01*
X20611Y-38444D01*
X20611Y-38331D01*
X20536Y-38193D01*
X20187Y-38049D01*
X19809Y-38050D01*
X19463Y-38193D01*
X19388Y-38331D01*
X20000Y-38943D01*
X20611Y-38331D01*
X20611Y-38444D01*
X20056Y-39000D01*
X20668Y-39611D01*
X20806Y-39536D01*
X20950Y-39187D01*
X20950Y-39795D01*
X20542Y-39795D01*
X20611Y-39668D01*
X20000Y-39056D01*
X19388Y-39668D01*
X19457Y-39795D01*
X19205Y-39795D01*
X19205Y-39542D01*
X19331Y-39611D01*
X19943Y-39000D01*
X19331Y-38388D01*
X19205Y-38457D01*
X19205Y-21205D01*
X19500Y-21205D01*
X20000Y-21205D01*
X20019Y-21201D01*
X20039Y-21201D01*
X20422Y-21124D01*
X20496Y-21094D01*
X20496Y-21094D01*
X20820Y-20877D01*
X20820Y-20877D01*
X20849Y-20849D01*
X20877Y-20820D01*
X20877Y-20820D01*
X21094Y-20496D01*
X21124Y-20422D01*
X21201Y-20039D01*
X21201Y-20019D01*
X21205Y-20000D01*
X21205Y-19500D01*
X21205Y-19205D01*
X38457Y-19205D01*
X38388Y-19331D01*
X39000Y-19943D01*
X39611Y-19331D01*
X39542Y-19205D01*
X39795Y-19205D01*
X39795Y-19457D01*
X39668Y-19388D01*
X39056Y-20000D01*
X39668Y-20611D01*
X39795Y-20542D01*
X39795Y-37795D01*
X39795Y-37795D01*
G37*
G54D32*
X39795Y-37795D02*
X39611Y-37795D01*
X39611Y-20668D01*
X39000Y-20056D01*
X38943Y-20113D01*
X38943Y-20000D01*
X38331Y-19388D01*
X38193Y-19463D01*
X38049Y-19812D01*
X38050Y-20190D01*
X38193Y-20536D01*
X38331Y-20611D01*
X38943Y-20000D01*
X38943Y-20113D01*
X38388Y-20668D01*
X38463Y-20806D01*
X38812Y-20950D01*
X39190Y-20949D01*
X39536Y-20806D01*
X39611Y-20668D01*
X39611Y-37795D01*
X39525Y-37795D01*
X39525Y-26849D01*
X39525Y-26727D01*
X39525Y-26522D01*
X39525Y-26400D01*
X39486Y-26308D01*
X39416Y-26238D01*
X39324Y-26200D01*
X39225Y-26200D01*
X39212Y-26200D01*
X39212Y-23207D01*
X39212Y-22223D01*
X39148Y-22067D01*
X39028Y-21947D01*
X38872Y-21882D01*
X38703Y-21882D01*
X38546Y-21947D01*
X38427Y-22066D01*
X38362Y-22222D01*
X38362Y-22392D01*
X38426Y-22548D01*
X38546Y-22668D01*
X38702Y-22733D01*
X38871Y-22733D01*
X39027Y-22668D01*
X39147Y-22549D01*
X39212Y-22392D01*
X39212Y-22223D01*
X39212Y-23207D01*
X39148Y-23051D01*
X39028Y-22931D01*
X38872Y-22866D01*
X38703Y-22866D01*
X38546Y-22931D01*
X38427Y-23050D01*
X38362Y-23207D01*
X38362Y-23376D01*
X38426Y-23532D01*
X38546Y-23652D01*
X38702Y-23717D01*
X38871Y-23717D01*
X39027Y-23652D01*
X39147Y-23533D01*
X39212Y-23377D01*
X39212Y-23207D01*
X39212Y-26200D01*
X39102Y-26200D01*
X39040Y-26262D01*
X39040Y-26585D01*
X39462Y-26585D01*
X39525Y-26522D01*
X39525Y-26727D01*
X39462Y-26665D01*
X39040Y-26665D01*
X39040Y-26987D01*
X39102Y-27050D01*
X39225Y-27050D01*
X39324Y-27050D01*
X39416Y-27011D01*
X39486Y-26941D01*
X39525Y-26849D01*
X39525Y-37795D01*
X39500Y-37795D01*
X39405Y-37795D01*
X39405Y-27575D01*
X39405Y-27524D01*
X39405Y-27174D01*
X39385Y-27126D01*
X39348Y-27089D01*
X39300Y-27070D01*
X39249Y-27070D01*
X38699Y-27070D01*
X38651Y-27089D01*
X38617Y-27123D01*
X38595Y-27109D01*
X38553Y-27100D01*
X38547Y-27087D01*
X38567Y-27079D01*
X38619Y-27027D01*
X38675Y-27050D01*
X38774Y-27050D01*
X38897Y-27050D01*
X38960Y-26987D01*
X38960Y-26665D01*
X38952Y-26665D01*
X38952Y-26585D01*
X38960Y-26585D01*
X38960Y-26262D01*
X38897Y-26200D01*
X38774Y-26200D01*
X38675Y-26200D01*
X38675Y-26200D01*
X38651Y-26209D01*
X38613Y-26209D01*
X38675Y-26147D01*
X38675Y-26082D01*
X38637Y-25990D01*
X38567Y-25920D01*
X38475Y-25882D01*
X38375Y-25882D01*
X38252Y-25882D01*
X38190Y-25944D01*
X38190Y-26210D01*
X38197Y-26210D01*
X38197Y-26290D01*
X38190Y-26290D01*
X38190Y-26444D01*
X38190Y-26555D01*
X38190Y-26710D01*
X38197Y-26710D01*
X38197Y-26790D01*
X38190Y-26790D01*
X38190Y-26797D01*
X38110Y-26797D01*
X38110Y-26790D01*
X38110Y-26710D01*
X38110Y-26555D01*
X38110Y-26444D01*
X38110Y-26290D01*
X38110Y-26210D01*
X38110Y-25944D01*
X38047Y-25882D01*
X37924Y-25882D01*
X37824Y-25882D01*
X37732Y-25920D01*
X37662Y-25990D01*
X37624Y-26082D01*
X37624Y-26147D01*
X37687Y-26210D01*
X38110Y-26210D01*
X38110Y-26290D01*
X37687Y-26290D01*
X37624Y-26352D01*
X37624Y-26417D01*
X37658Y-26500D01*
X37624Y-26582D01*
X37624Y-26647D01*
X37687Y-26710D01*
X38110Y-26710D01*
X38110Y-26790D01*
X37687Y-26790D01*
X37627Y-26849D01*
X37552Y-26774D01*
X37552Y-26639D01*
X37577Y-26614D01*
X37609Y-26537D01*
X37610Y-26453D01*
X37578Y-26376D01*
X37552Y-26350D01*
X37552Y-25754D01*
X37598Y-25735D01*
X37635Y-25698D01*
X37655Y-25650D01*
X37655Y-25599D01*
X37655Y-25149D01*
X37635Y-25101D01*
X37598Y-25064D01*
X37550Y-25045D01*
X37499Y-25045D01*
X37430Y-25045D01*
X37430Y-23214D01*
X37430Y-23214D01*
X37430Y-22625D01*
X37430Y-22574D01*
X37430Y-21974D01*
X37410Y-21926D01*
X37373Y-21889D01*
X37325Y-21870D01*
X37274Y-21870D01*
X36674Y-21870D01*
X36626Y-21889D01*
X36589Y-21926D01*
X36570Y-21974D01*
X36570Y-22025D01*
X36570Y-22147D01*
X36425Y-22147D01*
X36425Y-20915D01*
X36360Y-20759D01*
X36241Y-20639D01*
X36152Y-20602D01*
X36152Y-20397D01*
X36240Y-20360D01*
X36360Y-20241D01*
X36425Y-20085D01*
X36425Y-19915D01*
X36360Y-19759D01*
X36241Y-19639D01*
X36085Y-19574D01*
X35915Y-19574D01*
X35759Y-19639D01*
X35639Y-19758D01*
X35574Y-19914D01*
X35574Y-20084D01*
X35639Y-20240D01*
X35758Y-20360D01*
X35847Y-20397D01*
X35847Y-20602D01*
X35759Y-20639D01*
X35639Y-20758D01*
X35574Y-20914D01*
X35574Y-21084D01*
X35639Y-21240D01*
X35758Y-21360D01*
X35914Y-21425D01*
X36084Y-21425D01*
X36240Y-21360D01*
X36360Y-21241D01*
X36425Y-21085D01*
X36425Y-20915D01*
X36425Y-22147D01*
X35955Y-22147D01*
X35955Y-22049D01*
X35935Y-22001D01*
X35898Y-21964D01*
X35850Y-21945D01*
X35799Y-21945D01*
X35549Y-21945D01*
X35501Y-21964D01*
X35464Y-22001D01*
X35445Y-22049D01*
X35445Y-22100D01*
X35445Y-22550D01*
X35464Y-22598D01*
X35501Y-22635D01*
X35549Y-22655D01*
X35600Y-22655D01*
X35850Y-22655D01*
X35898Y-22635D01*
X35935Y-22598D01*
X35955Y-22550D01*
X35955Y-22499D01*
X35955Y-22452D01*
X36570Y-22452D01*
X36570Y-22625D01*
X36589Y-22673D01*
X36626Y-22710D01*
X36674Y-22730D01*
X36725Y-22730D01*
X37325Y-22730D01*
X37373Y-22710D01*
X37410Y-22673D01*
X37430Y-22625D01*
X37430Y-23214D01*
X37364Y-23056D01*
X37243Y-22935D01*
X37085Y-22870D01*
X36914Y-22869D01*
X36756Y-22935D01*
X36635Y-23056D01*
X36597Y-23147D01*
X35955Y-23147D01*
X35955Y-23049D01*
X35935Y-23001D01*
X35898Y-22964D01*
X35850Y-22945D01*
X35799Y-22945D01*
X35549Y-22945D01*
X35501Y-22964D01*
X35464Y-23001D01*
X35445Y-23049D01*
X35445Y-23100D01*
X35445Y-23550D01*
X35464Y-23598D01*
X35501Y-23635D01*
X35549Y-23655D01*
X35600Y-23655D01*
X35850Y-23655D01*
X35898Y-23635D01*
X35935Y-23598D01*
X35955Y-23550D01*
X35955Y-23499D01*
X35955Y-23452D01*
X36597Y-23452D01*
X36635Y-23543D01*
X36756Y-23664D01*
X36914Y-23729D01*
X37085Y-23730D01*
X37243Y-23664D01*
X37364Y-23543D01*
X37429Y-23385D01*
X37430Y-23214D01*
X37430Y-25045D01*
X37249Y-25045D01*
X37201Y-25064D01*
X37164Y-25101D01*
X37145Y-25149D01*
X37145Y-25200D01*
X37145Y-25650D01*
X37164Y-25698D01*
X37201Y-25735D01*
X37247Y-25754D01*
X37247Y-26350D01*
X37222Y-26376D01*
X37190Y-26453D01*
X37189Y-26536D01*
X37221Y-26614D01*
X37247Y-26639D01*
X37247Y-26838D01*
X37259Y-26896D01*
X37292Y-26945D01*
X37599Y-27252D01*
X37578Y-27284D01*
X37566Y-27342D01*
X37566Y-27686D01*
X37091Y-28161D01*
X37058Y-28211D01*
X37046Y-28269D01*
X37046Y-28458D01*
X37030Y-28454D01*
X37030Y-28299D01*
X37010Y-28251D01*
X36973Y-28214D01*
X36925Y-28195D01*
X36874Y-28195D01*
X36858Y-28195D01*
X36832Y-28157D01*
X36455Y-27779D01*
X36455Y-27606D01*
X36435Y-27558D01*
X36399Y-27521D01*
X36351Y-27502D01*
X36299Y-27502D01*
X35825Y-27502D01*
X35825Y-27498D01*
X36351Y-27498D01*
X36399Y-27478D01*
X36435Y-27441D01*
X36455Y-27393D01*
X36455Y-27342D01*
X36455Y-27106D01*
X36435Y-27058D01*
X36399Y-27021D01*
X36351Y-27002D01*
X36299Y-27002D01*
X35748Y-27002D01*
X35700Y-27021D01*
X35664Y-27058D01*
X35644Y-27106D01*
X35644Y-27140D01*
X35642Y-27142D01*
X35565Y-27219D01*
X35532Y-27268D01*
X35520Y-27327D01*
X35520Y-27603D01*
X35491Y-27609D01*
X35475Y-27619D01*
X35457Y-27612D01*
X35343Y-27612D01*
X35332Y-27616D01*
X35270Y-27555D01*
X35350Y-27555D01*
X35398Y-27535D01*
X35435Y-27498D01*
X35455Y-27450D01*
X35455Y-27399D01*
X35455Y-27149D01*
X35435Y-27101D01*
X35398Y-27064D01*
X35350Y-27045D01*
X35299Y-27045D01*
X34849Y-27045D01*
X34801Y-27064D01*
X34775Y-27090D01*
X34549Y-26863D01*
X34554Y-26852D01*
X34745Y-26852D01*
X34764Y-26898D01*
X34801Y-26935D01*
X34849Y-26955D01*
X34900Y-26955D01*
X35350Y-26955D01*
X35398Y-26935D01*
X35432Y-26901D01*
X35437Y-26902D01*
X35648Y-26902D01*
X35664Y-26941D01*
X35700Y-26978D01*
X35748Y-26998D01*
X35800Y-26998D01*
X36351Y-26998D01*
X36399Y-26978D01*
X36435Y-26941D01*
X36455Y-26893D01*
X36455Y-26842D01*
X36455Y-26606D01*
X36435Y-26558D01*
X36399Y-26521D01*
X36351Y-26502D01*
X36299Y-26502D01*
X35748Y-26502D01*
X35700Y-26521D01*
X35664Y-26558D01*
X35648Y-26597D01*
X35500Y-26597D01*
X35495Y-26592D01*
X35455Y-26565D01*
X35455Y-26565D01*
X35455Y-26549D01*
X35435Y-26501D01*
X35398Y-26464D01*
X35350Y-26445D01*
X35299Y-26445D01*
X34849Y-26445D01*
X34801Y-26464D01*
X34764Y-26501D01*
X34745Y-26547D01*
X34554Y-26547D01*
X34535Y-26501D01*
X34498Y-26464D01*
X34450Y-26445D01*
X34399Y-26445D01*
X33980Y-26445D01*
X33980Y-26059D01*
X34018Y-26022D01*
X35268Y-26022D01*
X35604Y-26357D01*
X35644Y-26384D01*
X35644Y-26393D01*
X35664Y-26441D01*
X35700Y-26478D01*
X35748Y-26498D01*
X35800Y-26498D01*
X36351Y-26498D01*
X36399Y-26478D01*
X36435Y-26441D01*
X36451Y-26402D01*
X36543Y-26402D01*
X36601Y-26390D01*
X36601Y-26390D01*
X36650Y-26357D01*
X36907Y-26100D01*
X36940Y-26051D01*
X36940Y-26051D01*
X36952Y-25993D01*
X36952Y-25754D01*
X36998Y-25735D01*
X37035Y-25698D01*
X37055Y-25650D01*
X37055Y-25599D01*
X37055Y-25149D01*
X37035Y-25101D01*
X36998Y-25064D01*
X36950Y-25045D01*
X36899Y-25045D01*
X36649Y-25045D01*
X36601Y-25064D01*
X36564Y-25101D01*
X36545Y-25149D01*
X36545Y-25200D01*
X36545Y-25650D01*
X36564Y-25698D01*
X36601Y-25735D01*
X36647Y-25754D01*
X36647Y-25929D01*
X36479Y-26097D01*
X36451Y-26097D01*
X36435Y-26058D01*
X36399Y-26021D01*
X36351Y-26002D01*
X36299Y-26002D01*
X35748Y-26002D01*
X35700Y-26021D01*
X35700Y-26022D01*
X35439Y-25761D01*
X35425Y-25752D01*
X35425Y-20915D01*
X35360Y-20759D01*
X35241Y-20639D01*
X35152Y-20602D01*
X35152Y-20397D01*
X35240Y-20360D01*
X35360Y-20241D01*
X35425Y-20085D01*
X35425Y-19915D01*
X35360Y-19759D01*
X35241Y-19639D01*
X35085Y-19574D01*
X34915Y-19574D01*
X34759Y-19639D01*
X34639Y-19758D01*
X34574Y-19914D01*
X34574Y-20084D01*
X34639Y-20240D01*
X34758Y-20360D01*
X34847Y-20397D01*
X34847Y-20602D01*
X34759Y-20639D01*
X34639Y-20758D01*
X34574Y-20914D01*
X34574Y-21084D01*
X34639Y-21240D01*
X34758Y-21360D01*
X34914Y-21425D01*
X35084Y-21425D01*
X35240Y-21360D01*
X35360Y-21241D01*
X35425Y-21085D01*
X35425Y-20915D01*
X35425Y-25752D01*
X35389Y-25728D01*
X35355Y-25721D01*
X35355Y-23550D01*
X35355Y-23499D01*
X35355Y-23049D01*
X35355Y-22550D01*
X35355Y-22499D01*
X35355Y-22049D01*
X35335Y-22001D01*
X35298Y-21964D01*
X35250Y-21945D01*
X35199Y-21945D01*
X35057Y-21945D01*
X34990Y-21878D01*
X34943Y-21846D01*
X34943Y-21846D01*
X34905Y-21808D01*
X34828Y-21776D01*
X34744Y-21776D01*
X34667Y-21807D01*
X34608Y-21866D01*
X34576Y-21944D01*
X34576Y-22027D01*
X34607Y-22104D01*
X34666Y-22163D01*
X34744Y-22196D01*
X34827Y-22196D01*
X34845Y-22188D01*
X34845Y-22550D01*
X34864Y-22598D01*
X34901Y-22635D01*
X34949Y-22655D01*
X35000Y-22655D01*
X35250Y-22655D01*
X35298Y-22635D01*
X35335Y-22598D01*
X35355Y-22550D01*
X35355Y-23049D01*
X35335Y-23001D01*
X35298Y-22964D01*
X35250Y-22945D01*
X35199Y-22945D01*
X34949Y-22945D01*
X34901Y-22964D01*
X34864Y-23001D01*
X34845Y-23049D01*
X34845Y-23100D01*
X34845Y-23147D01*
X34490Y-23147D01*
X34490Y-22300D01*
X34478Y-22241D01*
X34445Y-22192D01*
X34425Y-22178D01*
X34425Y-20915D01*
X34360Y-20759D01*
X34241Y-20639D01*
X34152Y-20602D01*
X34152Y-20397D01*
X34240Y-20360D01*
X34360Y-20241D01*
X34425Y-20085D01*
X34425Y-19915D01*
X34360Y-19759D01*
X34241Y-19639D01*
X34085Y-19574D01*
X33915Y-19574D01*
X33759Y-19639D01*
X33639Y-19758D01*
X33574Y-19914D01*
X33574Y-20084D01*
X33639Y-20240D01*
X33758Y-20360D01*
X33847Y-20397D01*
X33847Y-20602D01*
X33759Y-20639D01*
X33639Y-20758D01*
X33574Y-20914D01*
X33574Y-21084D01*
X33639Y-21240D01*
X33758Y-21360D01*
X33914Y-21425D01*
X34084Y-21425D01*
X34240Y-21360D01*
X34360Y-21241D01*
X34425Y-21085D01*
X34425Y-20915D01*
X34425Y-22178D01*
X34396Y-22159D01*
X34355Y-22150D01*
X34355Y-22049D01*
X34335Y-22001D01*
X34298Y-21964D01*
X34250Y-21945D01*
X34199Y-21945D01*
X34054Y-21945D01*
X33928Y-21818D01*
X33878Y-21785D01*
X33820Y-21774D01*
X33425Y-21774D01*
X33425Y-20915D01*
X33360Y-20759D01*
X33241Y-20639D01*
X33152Y-20602D01*
X33152Y-20397D01*
X33240Y-20360D01*
X33360Y-20241D01*
X33425Y-20085D01*
X33425Y-19915D01*
X33360Y-19759D01*
X33241Y-19639D01*
X33085Y-19574D01*
X32915Y-19574D01*
X32759Y-19639D01*
X32639Y-19758D01*
X32574Y-19914D01*
X32574Y-20084D01*
X32639Y-20240D01*
X32758Y-20360D01*
X32847Y-20397D01*
X32847Y-20602D01*
X32759Y-20639D01*
X32639Y-20758D01*
X32574Y-20914D01*
X32574Y-21084D01*
X32639Y-21240D01*
X32758Y-21360D01*
X32914Y-21425D01*
X33084Y-21425D01*
X33240Y-21360D01*
X33360Y-21241D01*
X33425Y-21085D01*
X33425Y-20915D01*
X33425Y-21774D01*
X32425Y-21774D01*
X32425Y-20915D01*
X32360Y-20759D01*
X32241Y-20639D01*
X32152Y-20602D01*
X32152Y-20397D01*
X32240Y-20360D01*
X32360Y-20241D01*
X32425Y-20085D01*
X32425Y-19915D01*
X32360Y-19759D01*
X32241Y-19639D01*
X32085Y-19574D01*
X31915Y-19574D01*
X31759Y-19639D01*
X31639Y-19758D01*
X31574Y-19914D01*
X31574Y-20084D01*
X31639Y-20240D01*
X31758Y-20360D01*
X31847Y-20397D01*
X31847Y-20602D01*
X31759Y-20639D01*
X31639Y-20758D01*
X31574Y-20914D01*
X31574Y-21084D01*
X31639Y-21240D01*
X31758Y-21360D01*
X31914Y-21425D01*
X32084Y-21425D01*
X32240Y-21360D01*
X32360Y-21241D01*
X32425Y-21085D01*
X32425Y-20915D01*
X32425Y-21774D01*
X31425Y-21774D01*
X31425Y-20915D01*
X31360Y-20759D01*
X31241Y-20639D01*
X31152Y-20602D01*
X31152Y-20397D01*
X31240Y-20360D01*
X31360Y-20241D01*
X31425Y-20085D01*
X31425Y-19915D01*
X31360Y-19759D01*
X31241Y-19639D01*
X31085Y-19574D01*
X30915Y-19574D01*
X30759Y-19639D01*
X30639Y-19758D01*
X30574Y-19914D01*
X30574Y-20084D01*
X30639Y-20240D01*
X30758Y-20360D01*
X30847Y-20397D01*
X30847Y-20602D01*
X30759Y-20639D01*
X30639Y-20758D01*
X30574Y-20914D01*
X30574Y-21084D01*
X30639Y-21240D01*
X30758Y-21360D01*
X30914Y-21425D01*
X31084Y-21425D01*
X31240Y-21360D01*
X31360Y-21241D01*
X31425Y-21085D01*
X31425Y-20915D01*
X31425Y-21774D01*
X30756Y-21774D01*
X30756Y-21774D01*
X30425Y-21774D01*
X30425Y-20915D01*
X30360Y-20759D01*
X30241Y-20639D01*
X30152Y-20602D01*
X30152Y-20397D01*
X30240Y-20360D01*
X30360Y-20241D01*
X30425Y-20085D01*
X30425Y-19915D01*
X30360Y-19759D01*
X30241Y-19639D01*
X30085Y-19574D01*
X29915Y-19574D01*
X29759Y-19639D01*
X29639Y-19758D01*
X29574Y-19914D01*
X29574Y-20084D01*
X29639Y-20240D01*
X29758Y-20360D01*
X29847Y-20397D01*
X29847Y-20602D01*
X29759Y-20639D01*
X29639Y-20758D01*
X29574Y-20914D01*
X29574Y-21084D01*
X29639Y-21240D01*
X29758Y-21360D01*
X29914Y-21425D01*
X30084Y-21425D01*
X30240Y-21360D01*
X30360Y-21241D01*
X30425Y-21085D01*
X30425Y-20915D01*
X30425Y-21774D01*
X30253Y-21774D01*
X30194Y-21785D01*
X30145Y-21818D01*
X30117Y-21847D01*
X30085Y-21895D01*
X30024Y-21895D01*
X29976Y-21914D01*
X29939Y-21951D01*
X29920Y-21999D01*
X29920Y-22050D01*
X29920Y-22600D01*
X29939Y-22648D01*
X29976Y-22685D01*
X30024Y-22705D01*
X30075Y-22705D01*
X30079Y-22705D01*
X30084Y-22728D01*
X30090Y-22737D01*
X30089Y-22786D01*
X30121Y-22863D01*
X30180Y-22922D01*
X30258Y-22954D01*
X30294Y-22954D01*
X30897Y-23557D01*
X30946Y-23590D01*
X30946Y-23590D01*
X31005Y-23602D01*
X31150Y-23602D01*
X31175Y-23627D01*
X31253Y-23659D01*
X31336Y-23660D01*
X31413Y-23628D01*
X31472Y-23569D01*
X31504Y-23491D01*
X31505Y-23408D01*
X31473Y-23331D01*
X31414Y-23272D01*
X31336Y-23240D01*
X31253Y-23239D01*
X31176Y-23271D01*
X31150Y-23297D01*
X31068Y-23297D01*
X30510Y-22739D01*
X30510Y-22703D01*
X30494Y-22664D01*
X30510Y-22648D01*
X30530Y-22600D01*
X30530Y-22549D01*
X30530Y-22079D01*
X30670Y-22079D01*
X30670Y-22600D01*
X30689Y-22648D01*
X30726Y-22685D01*
X30727Y-22685D01*
X30722Y-22690D01*
X30690Y-22768D01*
X30689Y-22851D01*
X30721Y-22928D01*
X30780Y-22987D01*
X30858Y-23019D01*
X30941Y-23020D01*
X31018Y-22988D01*
X31077Y-22929D01*
X31109Y-22851D01*
X31110Y-22802D01*
X31110Y-22802D01*
X31115Y-22793D01*
X31115Y-22793D01*
X31127Y-22735D01*
X31127Y-22705D01*
X31175Y-22705D01*
X31223Y-22685D01*
X31260Y-22648D01*
X31280Y-22600D01*
X31280Y-22549D01*
X31280Y-22079D01*
X33245Y-22079D01*
X33245Y-22093D01*
X33236Y-22090D01*
X33153Y-22089D01*
X33076Y-22121D01*
X33017Y-22180D01*
X32985Y-22258D01*
X32984Y-22341D01*
X33016Y-22418D01*
X33075Y-22477D01*
X33153Y-22509D01*
X33236Y-22510D01*
X33245Y-22506D01*
X33245Y-22550D01*
X33264Y-22598D01*
X33301Y-22635D01*
X33349Y-22655D01*
X33400Y-22655D01*
X33650Y-22655D01*
X33698Y-22635D01*
X33735Y-22598D01*
X33755Y-22550D01*
X33755Y-22499D01*
X33755Y-22079D01*
X33757Y-22079D01*
X33845Y-22166D01*
X33845Y-22550D01*
X33864Y-22598D01*
X33901Y-22635D01*
X33949Y-22655D01*
X34000Y-22655D01*
X34185Y-22655D01*
X34185Y-22945D01*
X33949Y-22945D01*
X33901Y-22964D01*
X33864Y-23001D01*
X33845Y-23049D01*
X33845Y-23100D01*
X33845Y-23550D01*
X33864Y-23598D01*
X33901Y-23635D01*
X33949Y-23655D01*
X34000Y-23655D01*
X34250Y-23655D01*
X34298Y-23635D01*
X34335Y-23598D01*
X34355Y-23550D01*
X34355Y-23499D01*
X34355Y-23452D01*
X34845Y-23452D01*
X34845Y-23550D01*
X34864Y-23598D01*
X34901Y-23635D01*
X34949Y-23655D01*
X35000Y-23655D01*
X35250Y-23655D01*
X35298Y-23635D01*
X35335Y-23598D01*
X35355Y-23550D01*
X35355Y-25721D01*
X35331Y-25717D01*
X34107Y-25717D01*
X34107Y-25530D01*
X34095Y-25472D01*
X34095Y-25472D01*
X34062Y-25423D01*
X33801Y-25161D01*
X33801Y-25161D01*
X33755Y-25115D01*
X33755Y-23550D01*
X33755Y-23499D01*
X33755Y-23049D01*
X33735Y-23001D01*
X33698Y-22964D01*
X33650Y-22945D01*
X33599Y-22945D01*
X33349Y-22945D01*
X33301Y-22964D01*
X33264Y-23001D01*
X33245Y-23049D01*
X33245Y-23089D01*
X33206Y-23089D01*
X33129Y-23121D01*
X33070Y-23180D01*
X33038Y-23258D01*
X33037Y-23341D01*
X33069Y-23418D01*
X33128Y-23477D01*
X33206Y-23509D01*
X33245Y-23509D01*
X33245Y-23550D01*
X33264Y-23598D01*
X33301Y-23635D01*
X33349Y-23655D01*
X33400Y-23655D01*
X33650Y-23655D01*
X33698Y-23635D01*
X33735Y-23598D01*
X33755Y-23550D01*
X33755Y-25115D01*
X33704Y-25065D01*
X33655Y-25032D01*
X33597Y-25020D01*
X29787Y-25020D01*
X29728Y-25032D01*
X29679Y-25065D01*
X29425Y-25318D01*
X29425Y-20915D01*
X29360Y-20759D01*
X29241Y-20639D01*
X29152Y-20602D01*
X29152Y-20397D01*
X29240Y-20360D01*
X29360Y-20241D01*
X29425Y-20085D01*
X29425Y-19915D01*
X29360Y-19759D01*
X29241Y-19639D01*
X29085Y-19574D01*
X28915Y-19574D01*
X28759Y-19639D01*
X28639Y-19758D01*
X28574Y-19914D01*
X28574Y-20084D01*
X28639Y-20240D01*
X28758Y-20360D01*
X28847Y-20397D01*
X28847Y-20602D01*
X28759Y-20639D01*
X28639Y-20758D01*
X28574Y-20914D01*
X28574Y-21084D01*
X28639Y-21240D01*
X28758Y-21360D01*
X28914Y-21425D01*
X29084Y-21425D01*
X29240Y-21360D01*
X29360Y-21241D01*
X29425Y-21085D01*
X29425Y-20915D01*
X29425Y-25318D01*
X29136Y-25607D01*
X29121Y-25607D01*
X29044Y-25639D01*
X28985Y-25698D01*
X28953Y-25776D01*
X28952Y-25859D01*
X28984Y-25936D01*
X29043Y-25995D01*
X29121Y-26027D01*
X29204Y-26028D01*
X29281Y-25996D01*
X29340Y-25937D01*
X29372Y-25859D01*
X29373Y-25802D01*
X29850Y-25325D01*
X33267Y-25325D01*
X33256Y-25336D01*
X33212Y-25442D01*
X33212Y-25556D01*
X33215Y-25564D01*
X33009Y-25771D01*
X32976Y-25820D01*
X32964Y-25879D01*
X32964Y-26825D01*
X32923Y-26808D01*
X32839Y-26808D01*
X32805Y-26822D01*
X32805Y-26724D01*
X32785Y-26676D01*
X32748Y-26639D01*
X32700Y-26620D01*
X32649Y-26620D01*
X32609Y-26620D01*
X32610Y-26558D01*
X32578Y-26481D01*
X32519Y-26422D01*
X32441Y-26390D01*
X32358Y-26389D01*
X32281Y-26421D01*
X32222Y-26480D01*
X32190Y-26558D01*
X32189Y-26620D01*
X32099Y-26620D01*
X32051Y-26639D01*
X32014Y-26676D01*
X31995Y-26724D01*
X31995Y-26775D01*
X31995Y-27069D01*
X31696Y-27069D01*
X30690Y-26063D01*
X30690Y-26027D01*
X30658Y-25950D01*
X30599Y-25891D01*
X30522Y-25859D01*
X30438Y-25859D01*
X30361Y-25891D01*
X30302Y-25950D01*
X30270Y-26027D01*
X30270Y-26111D01*
X30302Y-26188D01*
X30361Y-26247D01*
X30438Y-26279D01*
X30474Y-26279D01*
X31525Y-27330D01*
X31574Y-27363D01*
X31574Y-27363D01*
X31633Y-27374D01*
X31906Y-27374D01*
X31875Y-27450D01*
X31875Y-27572D01*
X31937Y-27635D01*
X32360Y-27635D01*
X32360Y-27627D01*
X32440Y-27627D01*
X32440Y-27635D01*
X32447Y-27635D01*
X32447Y-27715D01*
X32440Y-27715D01*
X32440Y-28037D01*
X32502Y-28100D01*
X32602Y-28100D01*
X32602Y-29901D01*
X32577Y-29927D01*
X32545Y-30004D01*
X32545Y-30088D01*
X32577Y-30165D01*
X32636Y-30224D01*
X32713Y-30256D01*
X32796Y-30256D01*
X32874Y-30224D01*
X32921Y-30177D01*
X33160Y-30415D01*
X33160Y-30451D01*
X33191Y-30529D01*
X33251Y-30588D01*
X33328Y-30620D01*
X33411Y-30620D01*
X33488Y-30588D01*
X33548Y-30529D01*
X33580Y-30452D01*
X33580Y-30368D01*
X33548Y-30291D01*
X33496Y-30239D01*
X33551Y-30240D01*
X33628Y-30208D01*
X33682Y-30154D01*
X33708Y-30180D01*
X33785Y-30212D01*
X33868Y-30212D01*
X33907Y-30196D01*
X33924Y-30214D01*
X33881Y-30232D01*
X33822Y-30291D01*
X33790Y-30368D01*
X33790Y-30404D01*
X33277Y-30916D01*
X33244Y-30966D01*
X33233Y-31024D01*
X33233Y-31239D01*
X33233Y-31239D01*
X33233Y-31325D01*
X33209Y-31349D01*
X33173Y-31349D01*
X33096Y-31381D01*
X33070Y-31407D01*
X31714Y-31407D01*
X31761Y-31360D01*
X31793Y-31282D01*
X31793Y-31246D01*
X31842Y-31198D01*
X32603Y-31200D01*
X32620Y-31217D01*
X32698Y-31249D01*
X32781Y-31250D01*
X32858Y-31218D01*
X32917Y-31159D01*
X32949Y-31081D01*
X32950Y-30998D01*
X32918Y-30921D01*
X32879Y-30882D01*
X32897Y-30864D01*
X32935Y-30902D01*
X33013Y-30934D01*
X33096Y-30935D01*
X33173Y-30903D01*
X33232Y-30844D01*
X33264Y-30766D01*
X33265Y-30683D01*
X33233Y-30606D01*
X33174Y-30547D01*
X33096Y-30515D01*
X33061Y-30515D01*
X33015Y-30468D01*
X33014Y-30468D01*
X33014Y-30468D01*
X32990Y-30451D01*
X32965Y-30435D01*
X32965Y-30435D01*
X32965Y-30435D01*
X32936Y-30429D01*
X32907Y-30423D01*
X32907Y-30423D01*
X32907Y-30423D01*
X32360Y-30423D01*
X32360Y-28037D01*
X32360Y-27715D01*
X31937Y-27715D01*
X31875Y-27777D01*
X31875Y-27899D01*
X31913Y-27991D01*
X31983Y-28061D01*
X32075Y-28100D01*
X32174Y-28100D01*
X32297Y-28100D01*
X32360Y-28037D01*
X32360Y-30423D01*
X32319Y-30423D01*
X32320Y-30368D01*
X32288Y-30291D01*
X32262Y-30265D01*
X32262Y-29194D01*
X32262Y-29194D01*
X32262Y-29194D01*
X32257Y-29165D01*
X32251Y-29136D01*
X32251Y-29136D01*
X32251Y-29136D01*
X32235Y-29112D01*
X32218Y-29086D01*
X32218Y-29086D01*
X32218Y-29086D01*
X31132Y-28001D01*
X31092Y-27974D01*
X31092Y-27974D01*
X31092Y-27886D01*
X31072Y-27838D01*
X31035Y-27801D01*
X30988Y-27782D01*
X30936Y-27782D01*
X30345Y-27782D01*
X30298Y-27801D01*
X30261Y-27838D01*
X30241Y-27886D01*
X30241Y-27938D01*
X30241Y-28222D01*
X30134Y-28329D01*
X30101Y-28379D01*
X30089Y-28437D01*
X30089Y-28712D01*
X30089Y-31029D01*
X30074Y-31044D01*
X30038Y-31044D01*
X30036Y-31045D01*
X30058Y-30990D01*
X30059Y-30907D01*
X30027Y-30830D01*
X29968Y-30771D01*
X29890Y-30739D01*
X29807Y-30738D01*
X29730Y-30770D01*
X29671Y-30829D01*
X29639Y-30907D01*
X29638Y-30990D01*
X29670Y-31067D01*
X29696Y-31093D01*
X29696Y-32570D01*
X29696Y-32570D01*
X29708Y-32628D01*
X29741Y-32678D01*
X30201Y-33138D01*
X30241Y-33165D01*
X30241Y-33253D01*
X30261Y-33300D01*
X30298Y-33337D01*
X30345Y-33357D01*
X30397Y-33357D01*
X30988Y-33357D01*
X31035Y-33337D01*
X31072Y-33300D01*
X31092Y-33253D01*
X31092Y-33201D01*
X31092Y-33182D01*
X32028Y-33182D01*
X32087Y-33171D01*
X32087Y-33171D01*
X32136Y-33138D01*
X33790Y-31484D01*
X33823Y-31435D01*
X33834Y-31376D01*
X33834Y-31376D01*
X33834Y-31207D01*
X33860Y-31181D01*
X33892Y-31104D01*
X33892Y-31021D01*
X33860Y-30943D01*
X33801Y-30884D01*
X33758Y-30867D01*
X34005Y-30620D01*
X34007Y-30620D01*
X34007Y-32899D01*
X33236Y-33670D01*
X33264Y-33601D01*
X33265Y-33518D01*
X33233Y-33441D01*
X33174Y-33382D01*
X33096Y-33350D01*
X33013Y-33349D01*
X32936Y-33381D01*
X32877Y-33440D01*
X32845Y-33518D01*
X32844Y-33601D01*
X32876Y-33678D01*
X32901Y-33703D01*
X32901Y-33716D01*
X32635Y-33983D01*
X32635Y-33518D01*
X32603Y-33441D01*
X32544Y-33382D01*
X32466Y-33350D01*
X32383Y-33349D01*
X32306Y-33381D01*
X32280Y-33407D01*
X31760Y-33407D01*
X31760Y-33407D01*
X31760Y-33407D01*
X31731Y-33413D01*
X31702Y-33418D01*
X31702Y-33418D01*
X31702Y-33418D01*
X31677Y-33435D01*
X31652Y-33451D01*
X31652Y-33451D01*
X31652Y-33451D01*
X31614Y-33489D01*
X31578Y-33489D01*
X31501Y-33521D01*
X31442Y-33580D01*
X31410Y-33658D01*
X31410Y-33741D01*
X31442Y-33818D01*
X31501Y-33877D01*
X31578Y-33909D01*
X31661Y-33910D01*
X31739Y-33878D01*
X31798Y-33819D01*
X31830Y-33741D01*
X31830Y-33712D01*
X32280Y-33712D01*
X32305Y-33737D01*
X32383Y-33769D01*
X32466Y-33770D01*
X32543Y-33738D01*
X32602Y-33679D01*
X32634Y-33601D01*
X32635Y-33518D01*
X32635Y-33983D01*
X32575Y-34043D01*
X32544Y-34012D01*
X32466Y-33980D01*
X32383Y-33979D01*
X32306Y-34011D01*
X32267Y-34050D01*
X32229Y-34012D01*
X32151Y-33980D01*
X32068Y-33979D01*
X31991Y-34011D01*
X31932Y-34070D01*
X31900Y-34148D01*
X31900Y-34184D01*
X31805Y-34278D01*
X31788Y-34303D01*
X31772Y-34328D01*
X31772Y-34328D01*
X31772Y-34328D01*
X31766Y-34357D01*
X31760Y-34386D01*
X31760Y-34877D01*
X31735Y-34867D01*
X31699Y-34867D01*
X31177Y-34345D01*
X31212Y-34261D01*
X31212Y-34117D01*
X31212Y-33912D01*
X31212Y-33767D01*
X31174Y-33676D01*
X31103Y-33605D01*
X31011Y-33567D01*
X30912Y-33567D01*
X30769Y-33567D01*
X30706Y-33630D01*
X30706Y-33974D01*
X31149Y-33974D01*
X31212Y-33912D01*
X31212Y-34117D01*
X31149Y-34054D01*
X30706Y-34054D01*
X30706Y-34062D01*
X30626Y-34062D01*
X30626Y-34054D01*
X30619Y-34054D01*
X30619Y-33974D01*
X30626Y-33974D01*
X30626Y-33630D01*
X30564Y-33567D01*
X30421Y-33567D01*
X30321Y-33567D01*
X30230Y-33605D01*
X30159Y-33676D01*
X30121Y-33767D01*
X30121Y-33873D01*
X28425Y-32177D01*
X28425Y-20915D01*
X28360Y-20759D01*
X28241Y-20639D01*
X28152Y-20602D01*
X28152Y-20397D01*
X28240Y-20360D01*
X28360Y-20241D01*
X28425Y-20085D01*
X28425Y-19915D01*
X28360Y-19759D01*
X28241Y-19639D01*
X28085Y-19574D01*
X27915Y-19574D01*
X27759Y-19639D01*
X27639Y-19758D01*
X27574Y-19914D01*
X27574Y-20084D01*
X27639Y-20240D01*
X27758Y-20360D01*
X27847Y-20397D01*
X27847Y-20602D01*
X27759Y-20639D01*
X27639Y-20758D01*
X27574Y-20914D01*
X27574Y-21084D01*
X27639Y-21240D01*
X27758Y-21360D01*
X27914Y-21425D01*
X28084Y-21425D01*
X28240Y-21360D01*
X28360Y-21241D01*
X28425Y-21085D01*
X28425Y-20915D01*
X28425Y-32177D01*
X28333Y-32085D01*
X28333Y-23863D01*
X28352Y-23844D01*
X28384Y-23766D01*
X28385Y-23683D01*
X28353Y-23606D01*
X28294Y-23547D01*
X28216Y-23515D01*
X28133Y-23514D01*
X28056Y-23546D01*
X27997Y-23605D01*
X27965Y-23683D01*
X27964Y-23766D01*
X27996Y-23843D01*
X28028Y-23875D01*
X28028Y-24599D01*
X28018Y-24595D01*
X27980Y-24595D01*
X27980Y-24399D01*
X27960Y-24351D01*
X27946Y-24337D01*
X27946Y-23864D01*
X27946Y-23864D01*
X27946Y-23863D01*
X27934Y-23805D01*
X27934Y-23805D01*
X27901Y-23755D01*
X27901Y-23755D01*
X27434Y-23288D01*
X27474Y-23305D01*
X27525Y-23305D01*
X27756Y-23305D01*
X27806Y-23355D01*
X27856Y-23388D01*
X27856Y-23388D01*
X27914Y-23400D01*
X27945Y-23400D01*
X27970Y-23425D01*
X28047Y-23457D01*
X28131Y-23457D01*
X28208Y-23425D01*
X28267Y-23366D01*
X28299Y-23289D01*
X28299Y-23206D01*
X28267Y-23128D01*
X28208Y-23069D01*
X28131Y-23037D01*
X28047Y-23037D01*
X27980Y-23065D01*
X27980Y-22599D01*
X27960Y-22551D01*
X27923Y-22514D01*
X27875Y-22495D01*
X27824Y-22495D01*
X27474Y-22495D01*
X27426Y-22514D01*
X27425Y-22515D01*
X27425Y-20915D01*
X27360Y-20759D01*
X27241Y-20639D01*
X27152Y-20602D01*
X27152Y-20397D01*
X27240Y-20360D01*
X27360Y-20241D01*
X27425Y-20085D01*
X27425Y-19915D01*
X27360Y-19759D01*
X27241Y-19639D01*
X27085Y-19574D01*
X26915Y-19574D01*
X26759Y-19639D01*
X26639Y-19758D01*
X26574Y-19914D01*
X26574Y-20084D01*
X26639Y-20240D01*
X26758Y-20360D01*
X26847Y-20397D01*
X26847Y-20602D01*
X26759Y-20639D01*
X26639Y-20758D01*
X26574Y-20914D01*
X26574Y-21084D01*
X26639Y-21240D01*
X26758Y-21360D01*
X26914Y-21425D01*
X27084Y-21425D01*
X27240Y-21360D01*
X27360Y-21241D01*
X27425Y-21085D01*
X27425Y-20915D01*
X27425Y-22515D01*
X27389Y-22551D01*
X27370Y-22599D01*
X27370Y-22650D01*
X27370Y-23200D01*
X27386Y-23240D01*
X27230Y-23084D01*
X27230Y-22599D01*
X27210Y-22551D01*
X27173Y-22514D01*
X27125Y-22495D01*
X27074Y-22495D01*
X26724Y-22495D01*
X26676Y-22514D01*
X26639Y-22551D01*
X26620Y-22599D01*
X26620Y-22650D01*
X26620Y-23200D01*
X26639Y-23248D01*
X26676Y-23285D01*
X26724Y-23305D01*
X26775Y-23305D01*
X27019Y-23305D01*
X27641Y-23926D01*
X27641Y-24295D01*
X27474Y-24295D01*
X27426Y-24314D01*
X27389Y-24351D01*
X27370Y-24399D01*
X27370Y-24450D01*
X27370Y-25000D01*
X27389Y-25048D01*
X27426Y-25085D01*
X27474Y-25105D01*
X27525Y-25105D01*
X27824Y-25105D01*
X27824Y-32088D01*
X27733Y-31997D01*
X27733Y-26180D01*
X27721Y-26122D01*
X27721Y-26122D01*
X27688Y-26072D01*
X26718Y-25102D01*
X26724Y-25105D01*
X26775Y-25105D01*
X27125Y-25105D01*
X27173Y-25085D01*
X27210Y-25048D01*
X27230Y-25000D01*
X27230Y-24949D01*
X27230Y-24399D01*
X27210Y-24351D01*
X27185Y-24326D01*
X27189Y-24316D01*
X27190Y-24233D01*
X27158Y-24156D01*
X27099Y-24097D01*
X27021Y-24065D01*
X26938Y-24064D01*
X26861Y-24096D01*
X26802Y-24155D01*
X26770Y-24233D01*
X26769Y-24295D01*
X26724Y-24295D01*
X26676Y-24314D01*
X26639Y-24351D01*
X26620Y-24399D01*
X26620Y-24450D01*
X26620Y-25000D01*
X26622Y-25006D01*
X26425Y-24809D01*
X26425Y-20915D01*
X26360Y-20759D01*
X26241Y-20639D01*
X26152Y-20602D01*
X26152Y-20397D01*
X26240Y-20360D01*
X26360Y-20241D01*
X26425Y-20085D01*
X26425Y-19915D01*
X26360Y-19759D01*
X26241Y-19639D01*
X26085Y-19574D01*
X25915Y-19574D01*
X25759Y-19639D01*
X25639Y-19758D01*
X25574Y-19914D01*
X25574Y-20084D01*
X25639Y-20240D01*
X25758Y-20360D01*
X25847Y-20397D01*
X25847Y-20602D01*
X25759Y-20639D01*
X25639Y-20758D01*
X25574Y-20914D01*
X25574Y-21084D01*
X25639Y-21240D01*
X25758Y-21360D01*
X25914Y-21425D01*
X26084Y-21425D01*
X26240Y-21360D01*
X26360Y-21241D01*
X26425Y-21085D01*
X26425Y-20915D01*
X26425Y-24809D01*
X25425Y-23809D01*
X25425Y-20915D01*
X25360Y-20759D01*
X25241Y-20639D01*
X25152Y-20602D01*
X25152Y-20397D01*
X25240Y-20360D01*
X25360Y-20241D01*
X25425Y-20085D01*
X25425Y-19915D01*
X25360Y-19759D01*
X25241Y-19639D01*
X25085Y-19574D01*
X24915Y-19574D01*
X24759Y-19639D01*
X24639Y-19758D01*
X24574Y-19914D01*
X24574Y-20084D01*
X24639Y-20240D01*
X24758Y-20360D01*
X24847Y-20397D01*
X24847Y-20602D01*
X24759Y-20639D01*
X24639Y-20758D01*
X24574Y-20914D01*
X24574Y-21084D01*
X24639Y-21240D01*
X24758Y-21360D01*
X24914Y-21425D01*
X25084Y-21425D01*
X25240Y-21360D01*
X25360Y-21241D01*
X25425Y-21085D01*
X25425Y-20915D01*
X25425Y-23809D01*
X24425Y-22809D01*
X24425Y-20915D01*
X24360Y-20759D01*
X24241Y-20639D01*
X24152Y-20602D01*
X24152Y-20397D01*
X24240Y-20360D01*
X24360Y-20241D01*
X24425Y-20085D01*
X24425Y-19915D01*
X24360Y-19759D01*
X24241Y-19639D01*
X24085Y-19574D01*
X23915Y-19574D01*
X23759Y-19639D01*
X23639Y-19758D01*
X23574Y-19914D01*
X23574Y-20084D01*
X23639Y-20240D01*
X23758Y-20360D01*
X23847Y-20397D01*
X23847Y-20602D01*
X23759Y-20639D01*
X23639Y-20758D01*
X23574Y-20914D01*
X23574Y-21084D01*
X23639Y-21240D01*
X23758Y-21360D01*
X23914Y-21425D01*
X24084Y-21425D01*
X24240Y-21360D01*
X24360Y-21241D01*
X24425Y-21085D01*
X24425Y-20915D01*
X24425Y-22809D01*
X24383Y-22767D01*
X24387Y-22757D01*
X24387Y-22643D01*
X24343Y-22537D01*
X24263Y-22456D01*
X24157Y-22412D01*
X24043Y-22412D01*
X23937Y-22456D01*
X23856Y-22536D01*
X23812Y-22642D01*
X23812Y-22756D01*
X23856Y-22862D01*
X23936Y-22943D01*
X24042Y-22987D01*
X24156Y-22987D01*
X24167Y-22983D01*
X27428Y-26243D01*
X27428Y-27547D01*
X27380Y-27527D01*
X27297Y-27527D01*
X27219Y-27559D01*
X27160Y-27618D01*
X27128Y-27695D01*
X27128Y-27731D01*
X26192Y-28668D01*
X26159Y-28718D01*
X26147Y-28776D01*
X26147Y-29688D01*
X26122Y-29713D01*
X26090Y-29790D01*
X26089Y-29874D01*
X26121Y-29951D01*
X26180Y-30010D01*
X26258Y-30042D01*
X26341Y-30042D01*
X26418Y-30010D01*
X26477Y-29951D01*
X26509Y-29874D01*
X26510Y-29790D01*
X26478Y-29713D01*
X26452Y-29688D01*
X26452Y-28839D01*
X27344Y-27947D01*
X27380Y-27947D01*
X27428Y-27927D01*
X27428Y-31938D01*
X25643Y-30153D01*
X25593Y-30120D01*
X25535Y-30108D01*
X24710Y-30108D01*
X24710Y-29234D01*
X24710Y-29182D01*
X24710Y-28611D01*
X24690Y-28563D01*
X24653Y-28527D01*
X24606Y-28507D01*
X24554Y-28507D01*
X23767Y-28507D01*
X23719Y-28527D01*
X23682Y-28563D01*
X23662Y-28611D01*
X23662Y-28663D01*
X23662Y-29234D01*
X23682Y-29281D01*
X23719Y-29318D01*
X23767Y-29338D01*
X23818Y-29338D01*
X24606Y-29338D01*
X24653Y-29318D01*
X24690Y-29281D01*
X24710Y-29234D01*
X24710Y-30108D01*
X23588Y-30108D01*
X23588Y-30078D01*
X23574Y-30044D01*
X23588Y-30011D01*
X23588Y-29959D01*
X23588Y-29760D01*
X23628Y-29719D01*
X23661Y-29670D01*
X23661Y-29670D01*
X23665Y-29652D01*
X23698Y-29618D01*
X23730Y-29541D01*
X23730Y-29458D01*
X23699Y-29381D01*
X23640Y-29321D01*
X23562Y-29289D01*
X23479Y-29289D01*
X23425Y-29312D01*
X23425Y-21321D01*
X23425Y-21269D01*
X23425Y-20678D01*
X23405Y-20630D01*
X23369Y-20594D01*
X23321Y-20574D01*
X23269Y-20574D01*
X23152Y-20574D01*
X23152Y-20425D01*
X23321Y-20425D01*
X23369Y-20405D01*
X23405Y-20369D01*
X23425Y-20321D01*
X23425Y-20269D01*
X23425Y-19678D01*
X23405Y-19630D01*
X23369Y-19594D01*
X23321Y-19574D01*
X23269Y-19574D01*
X22678Y-19574D01*
X22630Y-19594D01*
X22594Y-19630D01*
X22574Y-19678D01*
X22574Y-19730D01*
X22574Y-20321D01*
X22594Y-20369D01*
X22630Y-20405D01*
X22678Y-20425D01*
X22730Y-20425D01*
X22847Y-20425D01*
X22847Y-20574D01*
X22678Y-20574D01*
X22630Y-20594D01*
X22594Y-20630D01*
X22574Y-20678D01*
X22574Y-20730D01*
X22574Y-21321D01*
X22594Y-21369D01*
X22630Y-21405D01*
X22678Y-21425D01*
X22730Y-21425D01*
X23321Y-21425D01*
X23369Y-21405D01*
X23405Y-21369D01*
X23425Y-21321D01*
X23425Y-29312D01*
X23402Y-29321D01*
X23342Y-29380D01*
X23310Y-29457D01*
X23310Y-29540D01*
X22962Y-29540D01*
X22962Y-26392D01*
X22962Y-26341D01*
X22962Y-25868D01*
X22942Y-25820D01*
X22905Y-25784D01*
X22858Y-25764D01*
X22806Y-25764D01*
X21940Y-25764D01*
X21892Y-25784D01*
X21855Y-25820D01*
X21836Y-25868D01*
X21836Y-25920D01*
X21836Y-26392D01*
X21855Y-26440D01*
X21892Y-26477D01*
X21940Y-26496D01*
X21992Y-26496D01*
X22858Y-26496D01*
X22905Y-26477D01*
X22942Y-26440D01*
X22962Y-26392D01*
X22962Y-29540D01*
X22841Y-29540D01*
X22794Y-29560D01*
X22757Y-29597D01*
X22737Y-29645D01*
X22737Y-29696D01*
X22737Y-30011D01*
X22751Y-30044D01*
X22741Y-30070D01*
X22668Y-30069D01*
X22591Y-30101D01*
X22532Y-30160D01*
X22500Y-30238D01*
X22499Y-30321D01*
X22531Y-30398D01*
X22590Y-30457D01*
X22624Y-30471D01*
X22617Y-30487D01*
X22617Y-30591D01*
X22680Y-30654D01*
X23122Y-30654D01*
X23122Y-30646D01*
X23202Y-30646D01*
X23202Y-30654D01*
X23645Y-30654D01*
X23708Y-30591D01*
X23708Y-30487D01*
X23677Y-30413D01*
X25274Y-30413D01*
X25273Y-30463D01*
X25275Y-30466D01*
X25246Y-30478D01*
X25187Y-30537D01*
X25155Y-30615D01*
X25154Y-30698D01*
X25186Y-30775D01*
X25209Y-30798D01*
X25209Y-31257D01*
X25221Y-31315D01*
X25254Y-31364D01*
X25445Y-31556D01*
X25445Y-31556D01*
X30172Y-36282D01*
X30221Y-36315D01*
X30280Y-36327D01*
X30280Y-36327D01*
X30546Y-36327D01*
X30849Y-36630D01*
X30345Y-36630D01*
X30298Y-36650D01*
X30261Y-36686D01*
X30241Y-36734D01*
X30241Y-36786D01*
X30241Y-37180D01*
X30261Y-37227D01*
X30298Y-37264D01*
X30345Y-37284D01*
X30397Y-37284D01*
X30988Y-37284D01*
X31035Y-37264D01*
X31072Y-37227D01*
X31092Y-37180D01*
X31092Y-37128D01*
X31092Y-36872D01*
X31254Y-37035D01*
X31267Y-37047D01*
X31267Y-37047D01*
X31267Y-37047D01*
X31291Y-37064D01*
X31316Y-37080D01*
X31316Y-37080D01*
X31375Y-37092D01*
X31375Y-37092D01*
X31375Y-37092D01*
X34848Y-37092D01*
X34906Y-37080D01*
X34906Y-37080D01*
X34955Y-37047D01*
X35075Y-36928D01*
X35075Y-36999D01*
X35113Y-37091D01*
X35183Y-37161D01*
X35275Y-37200D01*
X35374Y-37200D01*
X35497Y-37200D01*
X35560Y-37137D01*
X35560Y-36815D01*
X35552Y-36815D01*
X35552Y-36735D01*
X35560Y-36735D01*
X35560Y-36727D01*
X35640Y-36727D01*
X35640Y-36735D01*
X36062Y-36735D01*
X36125Y-36672D01*
X36125Y-36550D01*
X36086Y-36458D01*
X36059Y-36431D01*
X36927Y-35562D01*
X36960Y-35513D01*
X36960Y-35513D01*
X36972Y-35455D01*
X36972Y-35455D01*
X36972Y-35454D01*
X36972Y-35345D01*
X36972Y-33876D01*
X36997Y-33851D01*
X37029Y-33773D01*
X37030Y-33690D01*
X36998Y-33613D01*
X36939Y-33554D01*
X36861Y-33522D01*
X36778Y-33521D01*
X36701Y-33553D01*
X36642Y-33612D01*
X36610Y-33690D01*
X36609Y-33773D01*
X36641Y-33850D01*
X36667Y-33876D01*
X36667Y-35345D01*
X36667Y-35391D01*
X36005Y-36054D01*
X36005Y-35835D01*
X36478Y-35361D01*
X36511Y-35312D01*
X36511Y-35312D01*
X36523Y-35254D01*
X36523Y-34493D01*
X36548Y-34468D01*
X36580Y-34390D01*
X36581Y-34307D01*
X36549Y-34230D01*
X36490Y-34171D01*
X36412Y-34139D01*
X36329Y-34138D01*
X36252Y-34170D01*
X36193Y-34229D01*
X36161Y-34307D01*
X36160Y-34390D01*
X36192Y-34467D01*
X36218Y-34493D01*
X36218Y-35190D01*
X35689Y-35720D01*
X35299Y-35720D01*
X35251Y-35739D01*
X35214Y-35776D01*
X35195Y-35824D01*
X35195Y-35875D01*
X35195Y-35965D01*
X35055Y-36105D01*
X35055Y-36099D01*
X35055Y-35912D01*
X35126Y-35883D01*
X35185Y-35824D01*
X35217Y-35747D01*
X35217Y-35663D01*
X35185Y-35586D01*
X35160Y-35560D01*
X35160Y-35151D01*
X35265Y-35046D01*
X35298Y-34996D01*
X35309Y-34938D01*
X35309Y-34938D01*
X35309Y-34088D01*
X35308Y-34082D01*
X35378Y-34053D01*
X35437Y-33994D01*
X35469Y-33916D01*
X35470Y-33833D01*
X35438Y-33756D01*
X35411Y-33729D01*
X35412Y-33704D01*
X35417Y-33699D01*
X35455Y-33737D01*
X35532Y-33769D01*
X35616Y-33769D01*
X35693Y-33737D01*
X35752Y-33678D01*
X35784Y-33601D01*
X35784Y-33570D01*
X35980Y-33570D01*
X35884Y-33664D01*
X35848Y-33664D01*
X35771Y-33696D01*
X35712Y-33755D01*
X35680Y-33833D01*
X35679Y-33916D01*
X35711Y-33993D01*
X35770Y-34052D01*
X35848Y-34084D01*
X35931Y-34085D01*
X36008Y-34053D01*
X36067Y-33994D01*
X36099Y-33916D01*
X36099Y-33881D01*
X36512Y-33471D01*
X36512Y-33470D01*
X36512Y-33470D01*
X36529Y-33446D01*
X36545Y-33421D01*
X36545Y-33421D01*
X36545Y-33421D01*
X36551Y-33392D01*
X36557Y-33363D01*
X36557Y-33363D01*
X36557Y-33363D01*
X36557Y-32853D01*
X36582Y-32828D01*
X36614Y-32750D01*
X36615Y-32667D01*
X36583Y-32590D01*
X36524Y-32531D01*
X36446Y-32499D01*
X36363Y-32498D01*
X36286Y-32530D01*
X36227Y-32589D01*
X36224Y-32594D01*
X36224Y-32140D01*
X37581Y-30784D01*
X37604Y-30807D01*
X37645Y-30834D01*
X37645Y-30950D01*
X37664Y-30998D01*
X37701Y-31035D01*
X37749Y-31055D01*
X37800Y-31055D01*
X37833Y-31055D01*
X37511Y-31377D01*
X37478Y-31426D01*
X37466Y-31485D01*
X37466Y-33400D01*
X37478Y-33458D01*
X37511Y-33507D01*
X37560Y-33540D01*
X37619Y-33552D01*
X37645Y-33552D01*
X37645Y-33650D01*
X37664Y-33698D01*
X37701Y-33735D01*
X37749Y-33755D01*
X37768Y-33755D01*
X37722Y-33800D01*
X37690Y-33878D01*
X37689Y-33961D01*
X37694Y-33971D01*
X37664Y-34001D01*
X37645Y-34049D01*
X37645Y-34100D01*
X37645Y-34550D01*
X37664Y-34598D01*
X37701Y-34635D01*
X37749Y-34655D01*
X37800Y-34655D01*
X38050Y-34655D01*
X38096Y-34635D01*
X38096Y-34682D01*
X38096Y-34937D01*
X38073Y-34914D01*
X38025Y-34895D01*
X37974Y-34895D01*
X37624Y-34895D01*
X37576Y-34914D01*
X37539Y-34951D01*
X37520Y-34999D01*
X37520Y-35050D01*
X37520Y-35600D01*
X37539Y-35648D01*
X37576Y-35685D01*
X37624Y-35705D01*
X37675Y-35705D01*
X37682Y-35705D01*
X37684Y-35713D01*
X37717Y-35762D01*
X37962Y-36007D01*
X38011Y-36040D01*
X38011Y-36040D01*
X38070Y-36052D01*
X38120Y-36052D01*
X38145Y-36077D01*
X38223Y-36109D01*
X38306Y-36110D01*
X38383Y-36078D01*
X38442Y-36019D01*
X38474Y-35941D01*
X38475Y-35858D01*
X38461Y-35825D01*
X38472Y-35825D01*
X38535Y-35762D01*
X38535Y-35340D01*
X38527Y-35340D01*
X38527Y-35260D01*
X38535Y-35260D01*
X38535Y-34837D01*
X38472Y-34775D01*
X38401Y-34775D01*
X38401Y-34682D01*
X38401Y-34655D01*
X38650Y-34655D01*
X38698Y-34635D01*
X38735Y-34598D01*
X38755Y-34550D01*
X38755Y-34499D01*
X38755Y-34049D01*
X38735Y-34001D01*
X38698Y-33964D01*
X38650Y-33945D01*
X38599Y-33945D01*
X38401Y-33945D01*
X38401Y-33870D01*
X38460Y-33812D01*
X38460Y-33440D01*
X38452Y-33440D01*
X38452Y-33360D01*
X38460Y-33360D01*
X38460Y-32987D01*
X38397Y-32925D01*
X38325Y-32925D01*
X38233Y-32963D01*
X38163Y-33033D01*
X38134Y-33101D01*
X38098Y-33064D01*
X38050Y-33045D01*
X37999Y-33045D01*
X37771Y-33045D01*
X37771Y-32175D01*
X37797Y-32175D01*
X37860Y-32112D01*
X37860Y-31740D01*
X37852Y-31740D01*
X37852Y-31660D01*
X37860Y-31660D01*
X37860Y-31652D01*
X37940Y-31652D01*
X37940Y-31660D01*
X37947Y-31660D01*
X37947Y-31740D01*
X37940Y-31740D01*
X37940Y-32112D01*
X38002Y-32175D01*
X38074Y-32175D01*
X38166Y-32136D01*
X38236Y-32066D01*
X38265Y-31998D01*
X38301Y-32035D01*
X38349Y-32055D01*
X38400Y-32055D01*
X38650Y-32055D01*
X38698Y-32035D01*
X38735Y-31998D01*
X38755Y-31950D01*
X38755Y-31909D01*
X38821Y-31910D01*
X38898Y-31878D01*
X38957Y-31819D01*
X38989Y-31741D01*
X38990Y-31658D01*
X38958Y-31581D01*
X38899Y-31522D01*
X38875Y-31512D01*
X38875Y-30974D01*
X38875Y-30875D01*
X38875Y-30802D01*
X38875Y-30597D01*
X38875Y-30524D01*
X38875Y-30425D01*
X38836Y-30333D01*
X38766Y-30263D01*
X38674Y-30225D01*
X38602Y-30225D01*
X38540Y-30287D01*
X38540Y-30660D01*
X38812Y-30660D01*
X38875Y-30597D01*
X38875Y-30802D01*
X38812Y-30740D01*
X38540Y-30740D01*
X38540Y-31112D01*
X38602Y-31175D01*
X38674Y-31175D01*
X38766Y-31136D01*
X38836Y-31066D01*
X38875Y-30974D01*
X38875Y-31512D01*
X38821Y-31490D01*
X38755Y-31489D01*
X38755Y-31449D01*
X38735Y-31401D01*
X38698Y-31364D01*
X38650Y-31345D01*
X38599Y-31345D01*
X38349Y-31345D01*
X38301Y-31364D01*
X38265Y-31401D01*
X38236Y-31333D01*
X38166Y-31263D01*
X38089Y-31231D01*
X38208Y-31111D01*
X38233Y-31136D01*
X38325Y-31175D01*
X38397Y-31175D01*
X38460Y-31112D01*
X38460Y-30740D01*
X38452Y-30740D01*
X38452Y-30660D01*
X38460Y-30660D01*
X38460Y-30287D01*
X38397Y-30225D01*
X38325Y-30225D01*
X38276Y-30245D01*
X38272Y-30225D01*
X38272Y-30225D01*
X38239Y-30176D01*
X37900Y-29836D01*
X37900Y-28924D01*
X37900Y-28825D01*
X37900Y-28702D01*
X37837Y-28640D01*
X37515Y-28640D01*
X37515Y-29062D01*
X37577Y-29125D01*
X37699Y-29125D01*
X37791Y-29086D01*
X37861Y-29016D01*
X37900Y-28924D01*
X37900Y-29836D01*
X37351Y-29288D01*
X37351Y-29125D01*
X37372Y-29125D01*
X37435Y-29062D01*
X37435Y-28640D01*
X37427Y-28640D01*
X37427Y-28560D01*
X37435Y-28560D01*
X37435Y-28552D01*
X37515Y-28552D01*
X37515Y-28560D01*
X37837Y-28560D01*
X37900Y-28497D01*
X37900Y-28374D01*
X37900Y-28275D01*
X37861Y-28183D01*
X37791Y-28113D01*
X37699Y-28075D01*
X37609Y-28075D01*
X37758Y-27926D01*
X37764Y-27941D01*
X37800Y-27978D01*
X37848Y-27998D01*
X37900Y-27998D01*
X38451Y-27998D01*
X38499Y-27978D01*
X38535Y-27941D01*
X38555Y-27893D01*
X38555Y-27842D01*
X38555Y-27606D01*
X38535Y-27558D01*
X38499Y-27521D01*
X38451Y-27502D01*
X38399Y-27502D01*
X37871Y-27502D01*
X37871Y-27498D01*
X37900Y-27498D01*
X38451Y-27498D01*
X38499Y-27478D01*
X38524Y-27452D01*
X38554Y-27482D01*
X38595Y-27509D01*
X38595Y-27575D01*
X38614Y-27623D01*
X38651Y-27660D01*
X38699Y-27680D01*
X38750Y-27680D01*
X39300Y-27680D01*
X39348Y-27660D01*
X39385Y-27623D01*
X39405Y-27575D01*
X39405Y-37795D01*
X39000Y-37795D01*
X39000Y-35624D01*
X39000Y-35525D01*
X39000Y-35402D01*
X39000Y-35197D01*
X39000Y-35074D01*
X39000Y-34975D01*
X38961Y-34883D01*
X38891Y-34813D01*
X38875Y-34806D01*
X38875Y-33674D01*
X38875Y-33575D01*
X38875Y-33502D01*
X38875Y-33297D01*
X38875Y-33224D01*
X38875Y-33125D01*
X38836Y-33033D01*
X38766Y-32963D01*
X38674Y-32925D01*
X38602Y-32925D01*
X38540Y-32987D01*
X38540Y-33360D01*
X38812Y-33360D01*
X38875Y-33297D01*
X38875Y-33502D01*
X38812Y-33440D01*
X38540Y-33440D01*
X38540Y-33812D01*
X38602Y-33875D01*
X38674Y-33875D01*
X38766Y-33836D01*
X38836Y-33766D01*
X38875Y-33674D01*
X38875Y-34806D01*
X38799Y-34775D01*
X38677Y-34775D01*
X38615Y-34837D01*
X38615Y-35260D01*
X38937Y-35260D01*
X39000Y-35197D01*
X39000Y-35402D01*
X38937Y-35340D01*
X38615Y-35340D01*
X38615Y-35762D01*
X38677Y-35825D01*
X38799Y-35825D01*
X38891Y-35786D01*
X38961Y-35716D01*
X39000Y-35624D01*
X39000Y-37795D01*
X38980Y-37798D01*
X38960Y-37798D01*
X38577Y-37875D01*
X38503Y-37905D01*
X38179Y-38122D01*
X38150Y-38150D01*
X38122Y-38179D01*
X37905Y-38503D01*
X37875Y-38577D01*
X37798Y-38960D01*
X37798Y-38980D01*
X37795Y-39000D01*
X37795Y-39500D01*
X37795Y-39795D01*
X37412Y-39795D01*
X37412Y-31790D01*
X37380Y-31713D01*
X37321Y-31654D01*
X37243Y-31622D01*
X37160Y-31621D01*
X37083Y-31653D01*
X37024Y-31712D01*
X36992Y-31790D01*
X36991Y-31873D01*
X37023Y-31950D01*
X37044Y-31971D01*
X37044Y-34784D01*
X37019Y-34809D01*
X36987Y-34887D01*
X36986Y-34970D01*
X37018Y-35047D01*
X37077Y-35106D01*
X37155Y-35138D01*
X37238Y-35139D01*
X37315Y-35107D01*
X37374Y-35048D01*
X37406Y-34970D01*
X37407Y-34887D01*
X37375Y-34810D01*
X37349Y-34784D01*
X37349Y-31981D01*
X37379Y-31951D01*
X37411Y-31873D01*
X37412Y-31790D01*
X37412Y-39795D01*
X36425Y-39795D01*
X36425Y-39321D01*
X36425Y-39269D01*
X36425Y-38678D01*
X36405Y-38630D01*
X36369Y-38594D01*
X36321Y-38574D01*
X36269Y-38574D01*
X36152Y-38574D01*
X36152Y-38425D01*
X36321Y-38425D01*
X36369Y-38405D01*
X36405Y-38369D01*
X36425Y-38321D01*
X36425Y-38269D01*
X36425Y-37678D01*
X36405Y-37630D01*
X36369Y-37594D01*
X36321Y-37574D01*
X36269Y-37574D01*
X36125Y-37574D01*
X36125Y-36999D01*
X36125Y-36877D01*
X36062Y-36815D01*
X35640Y-36815D01*
X35640Y-37137D01*
X35702Y-37200D01*
X35825Y-37200D01*
X35924Y-37200D01*
X36016Y-37161D01*
X36086Y-37091D01*
X36125Y-36999D01*
X36125Y-37574D01*
X35678Y-37574D01*
X35630Y-37594D01*
X35594Y-37630D01*
X35574Y-37678D01*
X35574Y-37730D01*
X35574Y-38321D01*
X35594Y-38369D01*
X35630Y-38405D01*
X35678Y-38425D01*
X35730Y-38425D01*
X35847Y-38425D01*
X35847Y-38574D01*
X35678Y-38574D01*
X35630Y-38594D01*
X35594Y-38630D01*
X35574Y-38678D01*
X35574Y-38730D01*
X35574Y-39321D01*
X35594Y-39369D01*
X35630Y-39405D01*
X35678Y-39425D01*
X35730Y-39425D01*
X36321Y-39425D01*
X36369Y-39405D01*
X36405Y-39369D01*
X36425Y-39321D01*
X36425Y-39795D01*
X35548Y-39795D01*
X35548Y-39090D01*
X35548Y-38090D01*
X35541Y-37873D01*
X35472Y-37706D01*
X35376Y-37680D01*
X35319Y-37736D01*
X35319Y-37623D01*
X35293Y-37527D01*
X35090Y-37451D01*
X34873Y-37458D01*
X34706Y-37527D01*
X34680Y-37623D01*
X35000Y-37943D01*
X35319Y-37623D01*
X35319Y-37736D01*
X35056Y-38000D01*
X35376Y-38319D01*
X35472Y-38293D01*
X35548Y-38090D01*
X35548Y-39090D01*
X35541Y-38873D01*
X35472Y-38706D01*
X35376Y-38680D01*
X35319Y-38736D01*
X35319Y-38623D01*
X35293Y-38527D01*
X35223Y-38501D01*
X35293Y-38472D01*
X35319Y-38376D01*
X35000Y-38056D01*
X34943Y-38113D01*
X34943Y-38000D01*
X34623Y-37680D01*
X34527Y-37706D01*
X34451Y-37909D01*
X34458Y-38126D01*
X34527Y-38293D01*
X34623Y-38319D01*
X34943Y-38000D01*
X34943Y-38113D01*
X34680Y-38376D01*
X34706Y-38472D01*
X34776Y-38498D01*
X34706Y-38527D01*
X34680Y-38623D01*
X35000Y-38943D01*
X35319Y-38623D01*
X35319Y-38736D01*
X35056Y-39000D01*
X35376Y-39319D01*
X35472Y-39293D01*
X35548Y-39090D01*
X35548Y-39795D01*
X35319Y-39795D01*
X35319Y-39376D01*
X35000Y-39056D01*
X34943Y-39113D01*
X34943Y-39000D01*
X34623Y-38680D01*
X34527Y-38706D01*
X34451Y-38909D01*
X34458Y-39126D01*
X34527Y-39293D01*
X34623Y-39319D01*
X34943Y-39000D01*
X34943Y-39113D01*
X34680Y-39376D01*
X34706Y-39472D01*
X34909Y-39548D01*
X35126Y-39541D01*
X35293Y-39472D01*
X35319Y-39376D01*
X35319Y-39795D01*
X34425Y-39795D01*
X34425Y-38915D01*
X34360Y-38759D01*
X34241Y-38639D01*
X34152Y-38602D01*
X34152Y-38397D01*
X34240Y-38360D01*
X34360Y-38241D01*
X34425Y-38085D01*
X34425Y-37915D01*
X34360Y-37759D01*
X34241Y-37639D01*
X34085Y-37574D01*
X33915Y-37574D01*
X33759Y-37639D01*
X33639Y-37758D01*
X33574Y-37914D01*
X33574Y-38084D01*
X33639Y-38240D01*
X33758Y-38360D01*
X33847Y-38397D01*
X33847Y-38602D01*
X33759Y-38639D01*
X33639Y-38758D01*
X33574Y-38914D01*
X33574Y-39084D01*
X33639Y-39240D01*
X33758Y-39360D01*
X33914Y-39425D01*
X34084Y-39425D01*
X34240Y-39360D01*
X34360Y-39241D01*
X34425Y-39085D01*
X34425Y-38915D01*
X34425Y-39795D01*
X33425Y-39795D01*
X33425Y-38915D01*
X33360Y-38759D01*
X33241Y-38639D01*
X33152Y-38602D01*
X33152Y-38397D01*
X33240Y-38360D01*
X33360Y-38241D01*
X33425Y-38085D01*
X33425Y-37915D01*
X33360Y-37759D01*
X33241Y-37639D01*
X33085Y-37574D01*
X32915Y-37574D01*
X32826Y-37611D01*
X32592Y-37377D01*
X32543Y-37344D01*
X32485Y-37332D01*
X27048Y-37332D01*
X25802Y-36086D01*
X25802Y-34179D01*
X25827Y-34154D01*
X25859Y-34076D01*
X25860Y-33993D01*
X25828Y-33916D01*
X25769Y-33857D01*
X25691Y-33825D01*
X25608Y-33824D01*
X25531Y-33856D01*
X25472Y-33915D01*
X25440Y-33993D01*
X25439Y-34076D01*
X25471Y-34153D01*
X25497Y-34179D01*
X25497Y-36150D01*
X25509Y-36208D01*
X25542Y-36257D01*
X26875Y-37591D01*
X26759Y-37639D01*
X26639Y-37758D01*
X26574Y-37914D01*
X26574Y-38084D01*
X26639Y-38240D01*
X26758Y-38360D01*
X26847Y-38397D01*
X26847Y-38602D01*
X26759Y-38639D01*
X26639Y-38758D01*
X26574Y-38914D01*
X26574Y-39084D01*
X26639Y-39240D01*
X26758Y-39360D01*
X26914Y-39425D01*
X27084Y-39425D01*
X27240Y-39360D01*
X27360Y-39241D01*
X27425Y-39085D01*
X27425Y-38915D01*
X27360Y-38759D01*
X27241Y-38639D01*
X27152Y-38602D01*
X27152Y-38397D01*
X27240Y-38360D01*
X27360Y-38241D01*
X27425Y-38085D01*
X27425Y-37915D01*
X27360Y-37759D01*
X27241Y-37639D01*
X27236Y-37637D01*
X27763Y-37637D01*
X27759Y-37639D01*
X27639Y-37758D01*
X27574Y-37914D01*
X27574Y-38084D01*
X27639Y-38240D01*
X27758Y-38360D01*
X27847Y-38397D01*
X27847Y-38602D01*
X27759Y-38639D01*
X27639Y-38758D01*
X27574Y-38914D01*
X27574Y-39084D01*
X27639Y-39240D01*
X27758Y-39360D01*
X27914Y-39425D01*
X28084Y-39425D01*
X28240Y-39360D01*
X28360Y-39241D01*
X28425Y-39085D01*
X28425Y-38915D01*
X28360Y-38759D01*
X28241Y-38639D01*
X28152Y-38602D01*
X28152Y-38397D01*
X28240Y-38360D01*
X28360Y-38241D01*
X28425Y-38085D01*
X28425Y-37915D01*
X28360Y-37759D01*
X28241Y-37639D01*
X28236Y-37637D01*
X28763Y-37637D01*
X28759Y-37639D01*
X28639Y-37758D01*
X28574Y-37914D01*
X28574Y-38084D01*
X28639Y-38240D01*
X28758Y-38360D01*
X28847Y-38397D01*
X28847Y-38602D01*
X28759Y-38639D01*
X28639Y-38758D01*
X28574Y-38914D01*
X28574Y-39084D01*
X28639Y-39240D01*
X28758Y-39360D01*
X28914Y-39425D01*
X29084Y-39425D01*
X29240Y-39360D01*
X29360Y-39241D01*
X29425Y-39085D01*
X29425Y-38915D01*
X29360Y-38759D01*
X29241Y-38639D01*
X29152Y-38602D01*
X29152Y-38397D01*
X29240Y-38360D01*
X29360Y-38241D01*
X29425Y-38085D01*
X29425Y-37915D01*
X29360Y-37759D01*
X29241Y-37639D01*
X29236Y-37637D01*
X29763Y-37637D01*
X29759Y-37639D01*
X29639Y-37758D01*
X29574Y-37914D01*
X29574Y-38084D01*
X29639Y-38240D01*
X29758Y-38360D01*
X29847Y-38397D01*
X29847Y-38602D01*
X29759Y-38639D01*
X29639Y-38758D01*
X29574Y-38914D01*
X29574Y-39084D01*
X29639Y-39240D01*
X29758Y-39360D01*
X29914Y-39425D01*
X30084Y-39425D01*
X30240Y-39360D01*
X30360Y-39241D01*
X30425Y-39085D01*
X30425Y-38915D01*
X30360Y-38759D01*
X30241Y-38639D01*
X30152Y-38602D01*
X30152Y-38397D01*
X30240Y-38360D01*
X30360Y-38241D01*
X30425Y-38085D01*
X30425Y-37915D01*
X30360Y-37759D01*
X30241Y-37639D01*
X30236Y-37637D01*
X30763Y-37637D01*
X30759Y-37639D01*
X30639Y-37758D01*
X30574Y-37914D01*
X30574Y-38084D01*
X30639Y-38240D01*
X30758Y-38360D01*
X30847Y-38397D01*
X30847Y-38602D01*
X30759Y-38639D01*
X30639Y-38758D01*
X30574Y-38914D01*
X30574Y-39084D01*
X30639Y-39240D01*
X30758Y-39360D01*
X30914Y-39425D01*
X31084Y-39425D01*
X31240Y-39360D01*
X31360Y-39241D01*
X31425Y-39085D01*
X31425Y-38915D01*
X31360Y-38759D01*
X31241Y-38639D01*
X31152Y-38602D01*
X31152Y-38397D01*
X31240Y-38360D01*
X31360Y-38241D01*
X31425Y-38085D01*
X31425Y-37915D01*
X31360Y-37759D01*
X31241Y-37639D01*
X31236Y-37637D01*
X31763Y-37637D01*
X31759Y-37639D01*
X31639Y-37758D01*
X31574Y-37914D01*
X31574Y-38084D01*
X31639Y-38240D01*
X31758Y-38360D01*
X31847Y-38397D01*
X31847Y-38602D01*
X31759Y-38639D01*
X31639Y-38758D01*
X31574Y-38914D01*
X31574Y-39084D01*
X31639Y-39240D01*
X31758Y-39360D01*
X31914Y-39425D01*
X32084Y-39425D01*
X32240Y-39360D01*
X32360Y-39241D01*
X32425Y-39085D01*
X32425Y-38915D01*
X32360Y-38759D01*
X32241Y-38639D01*
X32152Y-38602D01*
X32152Y-38397D01*
X32240Y-38360D01*
X32360Y-38241D01*
X32425Y-38085D01*
X32425Y-37915D01*
X32360Y-37759D01*
X32241Y-37639D01*
X32236Y-37637D01*
X32421Y-37637D01*
X32611Y-37826D01*
X32574Y-37914D01*
X32574Y-38084D01*
X32639Y-38240D01*
X32758Y-38360D01*
X32847Y-38397D01*
X32847Y-38602D01*
X32759Y-38639D01*
X32639Y-38758D01*
X32574Y-38914D01*
X32574Y-39084D01*
X32639Y-39240D01*
X32758Y-39360D01*
X32914Y-39425D01*
X33084Y-39425D01*
X33240Y-39360D01*
X33360Y-39241D01*
X33425Y-39085D01*
X33425Y-38915D01*
X33425Y-39795D01*
X26425Y-39795D01*
X26425Y-38915D01*
X26360Y-38759D01*
X26241Y-38639D01*
X26152Y-38602D01*
X26152Y-38397D01*
X26240Y-38360D01*
X26360Y-38241D01*
X26425Y-38085D01*
X26425Y-37915D01*
X26360Y-37759D01*
X26241Y-37639D01*
X26085Y-37574D01*
X25915Y-37574D01*
X25759Y-37639D01*
X25639Y-37758D01*
X25574Y-37914D01*
X25574Y-38084D01*
X25639Y-38240D01*
X25758Y-38360D01*
X25847Y-38397D01*
X25847Y-38602D01*
X25759Y-38639D01*
X25639Y-38758D01*
X25574Y-38914D01*
X25574Y-39084D01*
X25639Y-39240D01*
X25758Y-39360D01*
X25914Y-39425D01*
X26084Y-39425D01*
X26240Y-39360D01*
X26360Y-39241D01*
X26425Y-39085D01*
X26425Y-38915D01*
X26425Y-39795D01*
X25425Y-39795D01*
X25425Y-38915D01*
X25360Y-38759D01*
X25241Y-38639D01*
X25152Y-38602D01*
X25152Y-38397D01*
X25240Y-38360D01*
X25360Y-38241D01*
X25425Y-38085D01*
X25425Y-37915D01*
X25360Y-37759D01*
X25241Y-37639D01*
X25085Y-37574D01*
X24915Y-37574D01*
X24759Y-37639D01*
X24710Y-37687D01*
X24710Y-34588D01*
X24710Y-34536D01*
X24710Y-33965D01*
X24690Y-33918D01*
X24653Y-33881D01*
X24606Y-33861D01*
X24554Y-33861D01*
X23767Y-33861D01*
X23730Y-33876D01*
X23730Y-33458D01*
X23699Y-33381D01*
X23673Y-33355D01*
X23673Y-33070D01*
X23661Y-33012D01*
X23661Y-33012D01*
X23628Y-32963D01*
X23588Y-32922D01*
X23588Y-32676D01*
X23574Y-32643D01*
X23588Y-32610D01*
X23588Y-32558D01*
X23588Y-32243D01*
X23574Y-32210D01*
X23588Y-32177D01*
X23588Y-32125D01*
X23588Y-31810D01*
X23574Y-31777D01*
X23588Y-31743D01*
X23588Y-31692D01*
X23588Y-31377D01*
X23574Y-31344D01*
X23588Y-31310D01*
X23588Y-31259D01*
X23588Y-31068D01*
X23599Y-31063D01*
X23670Y-30993D01*
X23708Y-30901D01*
X23708Y-30796D01*
X23645Y-30734D01*
X23202Y-30734D01*
X23202Y-30742D01*
X23122Y-30742D01*
X23122Y-30734D01*
X22680Y-30734D01*
X22617Y-30796D01*
X22617Y-30866D01*
X22598Y-30874D01*
X22539Y-30933D01*
X22507Y-31010D01*
X22507Y-31094D01*
X22539Y-31171D01*
X22598Y-31230D01*
X22675Y-31262D01*
X22725Y-31262D01*
X22725Y-31262D01*
X22734Y-31268D01*
X22734Y-31268D01*
X22737Y-31269D01*
X22737Y-31310D01*
X22751Y-31344D01*
X22737Y-31377D01*
X22737Y-31408D01*
X21525Y-31408D01*
X21525Y-26951D01*
X21460Y-26795D01*
X21341Y-26675D01*
X21184Y-26611D01*
X21015Y-26610D01*
X20859Y-26675D01*
X20739Y-26795D01*
X20674Y-26951D01*
X20674Y-27120D01*
X20739Y-27276D01*
X20858Y-27396D01*
X21015Y-27461D01*
X21184Y-27461D01*
X21340Y-27396D01*
X21460Y-27277D01*
X21525Y-27121D01*
X21525Y-26951D01*
X21525Y-31408D01*
X21442Y-31408D01*
X21442Y-29234D01*
X21442Y-29182D01*
X21442Y-28611D01*
X21422Y-28563D01*
X21386Y-28527D01*
X21338Y-28507D01*
X21286Y-28507D01*
X20499Y-28507D01*
X20451Y-28527D01*
X20414Y-28563D01*
X20395Y-28611D01*
X20395Y-28663D01*
X20395Y-29234D01*
X20414Y-29281D01*
X20451Y-29318D01*
X20499Y-29338D01*
X20551Y-29338D01*
X21338Y-29338D01*
X21386Y-29318D01*
X21422Y-29281D01*
X21442Y-29234D01*
X21442Y-31408D01*
X21281Y-31408D01*
X21222Y-31419D01*
X21173Y-31452D01*
X20994Y-31631D01*
X20958Y-31631D01*
X20881Y-31663D01*
X20822Y-31722D01*
X20790Y-31799D01*
X20789Y-31883D01*
X20821Y-31960D01*
X20880Y-32019D01*
X20958Y-32051D01*
X21041Y-32051D01*
X21118Y-32020D01*
X21177Y-31961D01*
X21209Y-31883D01*
X21209Y-31847D01*
X21344Y-31713D01*
X22621Y-31713D01*
X22581Y-31729D01*
X22522Y-31788D01*
X22490Y-31865D01*
X22490Y-31949D01*
X22521Y-32026D01*
X22580Y-32085D01*
X22658Y-32117D01*
X22702Y-32117D01*
X22727Y-32134D01*
X22727Y-32134D01*
X22737Y-32136D01*
X22737Y-32177D01*
X22751Y-32210D01*
X22737Y-32243D01*
X22737Y-32290D01*
X22695Y-32318D01*
X22625Y-32388D01*
X22592Y-32438D01*
X22585Y-32473D01*
X22555Y-32503D01*
X22523Y-32580D01*
X22523Y-32664D01*
X22555Y-32741D01*
X22614Y-32800D01*
X22691Y-32832D01*
X22737Y-32832D01*
X22737Y-33043D01*
X22757Y-33090D01*
X22794Y-33127D01*
X22841Y-33147D01*
X22893Y-33147D01*
X23368Y-33147D01*
X23368Y-33355D01*
X23342Y-33380D01*
X23310Y-33458D01*
X23310Y-33541D01*
X23342Y-33618D01*
X23401Y-33677D01*
X23478Y-33709D01*
X23562Y-33710D01*
X23639Y-33678D01*
X23698Y-33619D01*
X23730Y-33541D01*
X23730Y-33458D01*
X23730Y-33876D01*
X23719Y-33881D01*
X23682Y-33918D01*
X23662Y-33965D01*
X23662Y-34017D01*
X23662Y-34588D01*
X23682Y-34636D01*
X23719Y-34672D01*
X23767Y-34692D01*
X23818Y-34692D01*
X24606Y-34692D01*
X24653Y-34672D01*
X24690Y-34636D01*
X24710Y-34588D01*
X24710Y-37687D01*
X24639Y-37758D01*
X24574Y-37914D01*
X24574Y-38084D01*
X24639Y-38240D01*
X24758Y-38360D01*
X24847Y-38397D01*
X24847Y-38602D01*
X24759Y-38639D01*
X24639Y-38758D01*
X24574Y-38914D01*
X24574Y-39084D01*
X24639Y-39240D01*
X24758Y-39360D01*
X24914Y-39425D01*
X25084Y-39425D01*
X25240Y-39360D01*
X25360Y-39241D01*
X25425Y-39085D01*
X25425Y-38915D01*
X25425Y-39795D01*
X24425Y-39795D01*
X24425Y-38915D01*
X24360Y-38759D01*
X24241Y-38639D01*
X24152Y-38602D01*
X24152Y-38397D01*
X24240Y-38360D01*
X24360Y-38241D01*
X24425Y-38085D01*
X24425Y-37915D01*
X24360Y-37759D01*
X24241Y-37639D01*
X24085Y-37574D01*
X23915Y-37574D01*
X23759Y-37639D01*
X23639Y-37758D01*
X23574Y-37914D01*
X23574Y-38084D01*
X23639Y-38240D01*
X23758Y-38360D01*
X23847Y-38397D01*
X23847Y-38602D01*
X23759Y-38639D01*
X23639Y-38758D01*
X23574Y-38914D01*
X23574Y-39084D01*
X23639Y-39240D01*
X23758Y-39360D01*
X23914Y-39425D01*
X24084Y-39425D01*
X24240Y-39360D01*
X24360Y-39241D01*
X24425Y-39085D01*
X24425Y-38915D01*
X24425Y-39795D01*
X23425Y-39795D01*
X23425Y-38915D01*
X23360Y-38759D01*
X23241Y-38639D01*
X23152Y-38602D01*
X23152Y-38397D01*
X23240Y-38360D01*
X23360Y-38241D01*
X23425Y-38085D01*
X23425Y-37915D01*
X23360Y-37759D01*
X23241Y-37639D01*
X23085Y-37574D01*
X22915Y-37574D01*
X22759Y-37639D01*
X22639Y-37758D01*
X22574Y-37914D01*
X22574Y-38084D01*
X22639Y-38240D01*
X22758Y-38360D01*
X22847Y-38397D01*
X22847Y-38602D01*
X22759Y-38639D01*
X22639Y-38758D01*
X22574Y-38914D01*
X22574Y-39084D01*
X22639Y-39240D01*
X22758Y-39360D01*
X22914Y-39425D01*
X23084Y-39425D01*
X23240Y-39360D01*
X23360Y-39241D01*
X23425Y-39085D01*
X23425Y-38915D01*
X23425Y-39795D01*
X22489Y-39795D01*
X22489Y-37416D01*
X22489Y-37364D01*
X22489Y-36892D01*
X22470Y-36844D01*
X22433Y-36807D01*
X22385Y-36788D01*
X22333Y-36788D01*
X21467Y-36788D01*
X21467Y-36788D01*
X21525Y-36648D01*
X21525Y-36479D01*
X21460Y-36323D01*
X21442Y-36305D01*
X21442Y-34588D01*
X21442Y-34536D01*
X21442Y-33965D01*
X21422Y-33918D01*
X21386Y-33881D01*
X21338Y-33861D01*
X21286Y-33861D01*
X20499Y-33861D01*
X20451Y-33881D01*
X20414Y-33918D01*
X20395Y-33965D01*
X20395Y-34017D01*
X20395Y-34588D01*
X20414Y-34636D01*
X20451Y-34672D01*
X20499Y-34692D01*
X20551Y-34692D01*
X21338Y-34692D01*
X21386Y-34672D01*
X21422Y-34636D01*
X21442Y-34588D01*
X21442Y-36305D01*
X21341Y-36203D01*
X21184Y-36138D01*
X21015Y-36138D01*
X20859Y-36203D01*
X20739Y-36322D01*
X20674Y-36478D01*
X20674Y-36648D01*
X20739Y-36804D01*
X20858Y-36924D01*
X21015Y-36988D01*
X21184Y-36989D01*
X21340Y-36924D01*
X21363Y-36901D01*
X21363Y-36943D01*
X21363Y-37416D01*
X21383Y-37464D01*
X21420Y-37500D01*
X21467Y-37520D01*
X21519Y-37520D01*
X22385Y-37520D01*
X22433Y-37500D01*
X22470Y-37464D01*
X22489Y-37416D01*
X22489Y-39795D01*
X20950Y-39795D01*
X20950Y-39187D01*
X20949Y-38809D01*
X20806Y-38463D01*
X20668Y-38388D01*
X20611Y-38444D01*
X20611Y-38331D01*
X20536Y-38193D01*
X20187Y-38049D01*
X19809Y-38050D01*
X19463Y-38193D01*
X19388Y-38331D01*
X20000Y-38943D01*
X20611Y-38331D01*
X20611Y-38444D01*
X20056Y-39000D01*
X20668Y-39611D01*
X20806Y-39536D01*
X20950Y-39187D01*
X20950Y-39795D01*
X20542Y-39795D01*
X20611Y-39668D01*
X20000Y-39056D01*
X19388Y-39668D01*
X19457Y-39795D01*
X19205Y-39795D01*
X19205Y-39542D01*
X19331Y-39611D01*
X19943Y-39000D01*
X19331Y-38388D01*
X19205Y-38457D01*
X19205Y-21205D01*
X19500Y-21205D01*
X20000Y-21205D01*
X20019Y-21201D01*
X20039Y-21201D01*
X20422Y-21124D01*
X20496Y-21094D01*
X20496Y-21094D01*
X20820Y-20877D01*
X20820Y-20877D01*
X20849Y-20849D01*
X20877Y-20820D01*
X20877Y-20820D01*
X21094Y-20496D01*
X21124Y-20422D01*
X21201Y-20039D01*
X21201Y-20019D01*
X21205Y-20000D01*
X21205Y-19500D01*
X21205Y-19205D01*
X38457Y-19205D01*
X38388Y-19331D01*
X39000Y-19943D01*
X39611Y-19331D01*
X39542Y-19205D01*
X39795Y-19205D01*
X39795Y-19457D01*
X39668Y-19388D01*
X39056Y-20000D01*
X39668Y-20611D01*
X39795Y-20542D01*
X39795Y-37795D01*
M02*
