G04 (created by PCBNEW (2013-mar-13)-testing) date Wed 04 Sep 2013 11:16:51 AM CEST*
%MOIN*%
G04 Gerber Fmt 3.4, Leading zero omitted, Abs format*
%FSLAX34Y34*%
G01*
G70*
G90*
G04 APERTURE LIST*
%ADD10C,0.005906*%
%ADD11C,0.015000*%
%ADD12C,0.012000*%
%ADD13C,0.140000*%
%ADD14C,0.039370*%
%ADD15C,0.059100*%
%ADD16R,0.059100X0.059100*%
%ADD17R,0.045000X0.025000*%
%ADD18R,0.025000X0.045000*%
%ADD19R,0.035000X0.055000*%
%ADD20R,0.060000X0.060000*%
%ADD21C,0.060000*%
%ADD22R,0.055000X0.035000*%
%ADD23C,0.031496*%
%ADD24R,0.036000X0.036000*%
%ADD25R,0.033465X0.009843*%
%ADD26R,0.009843X0.033465*%
%ADD27R,0.135827X0.135827*%
%ADD28R,0.055118X0.047244*%
%ADD29C,0.059055*%
%ADD30R,0.066929X0.086600*%
%ADD31C,0.019685*%
%ADD32R,0.023622X0.086614*%
%ADD33R,0.137795X0.086614*%
%ADD34C,0.016000*%
%ADD35C,0.004500*%
%ADD36C,0.004504*%
%ADD37C,0.010000*%
G04 APERTURE END LIST*
G54D10*
G54D11*
X40000Y-38000D02*
X40000Y-19000D01*
X39500Y-38000D02*
X40000Y-38000D01*
X38000Y-39500D02*
X38000Y-40000D01*
X38000Y-40000D02*
X19000Y-40000D01*
X19000Y-40000D02*
X19000Y-21000D01*
X19000Y-21000D02*
X19500Y-21000D01*
X21000Y-19000D02*
X21000Y-19500D01*
X21000Y-19000D02*
X40000Y-19000D01*
X39000Y-38000D02*
X39500Y-38000D01*
X21000Y-20000D02*
X21000Y-19500D01*
X20000Y-21000D02*
X19500Y-21000D01*
X38000Y-39000D02*
X38000Y-39500D01*
X39000Y-38000D02*
G75*
G03X38000Y-39000I0J-1000D01*
G74*
G01*
X20000Y-21000D02*
G75*
G03X21000Y-20000I0J1000D01*
G74*
G01*
G54D12*
X44077Y-27328D02*
X44077Y-27042D01*
X43696Y-27014D01*
X43734Y-27042D01*
X43772Y-27099D01*
X43772Y-27242D01*
X43734Y-27299D01*
X43696Y-27328D01*
X43619Y-27357D01*
X43429Y-27357D01*
X43353Y-27328D01*
X43315Y-27299D01*
X43277Y-27242D01*
X43277Y-27099D01*
X43315Y-27042D01*
X43353Y-27014D01*
X44077Y-27557D02*
X44077Y-27928D01*
X43772Y-27728D01*
X43772Y-27814D01*
X43734Y-27871D01*
X43696Y-27899D01*
X43619Y-27928D01*
X43429Y-27928D01*
X43353Y-27899D01*
X43315Y-27871D01*
X43277Y-27814D01*
X43277Y-27642D01*
X43315Y-27585D01*
X43353Y-27557D01*
X43315Y-28214D02*
X43277Y-28214D01*
X43200Y-28185D01*
X43162Y-28157D01*
X44077Y-28414D02*
X44077Y-28785D01*
X43772Y-28585D01*
X43772Y-28671D01*
X43734Y-28728D01*
X43696Y-28757D01*
X43619Y-28785D01*
X43429Y-28785D01*
X43353Y-28757D01*
X43315Y-28728D01*
X43277Y-28671D01*
X43277Y-28500D01*
X43315Y-28442D01*
X43353Y-28414D01*
X43810Y-29300D02*
X43277Y-29300D01*
X44115Y-29157D02*
X43543Y-29014D01*
X43543Y-29385D01*
X44077Y-29728D02*
X44077Y-29785D01*
X44039Y-29842D01*
X44000Y-29871D01*
X43924Y-29900D01*
X43772Y-29928D01*
X43581Y-29928D01*
X43429Y-29900D01*
X43353Y-29871D01*
X43315Y-29842D01*
X43277Y-29785D01*
X43277Y-29728D01*
X43315Y-29671D01*
X43353Y-29642D01*
X43429Y-29614D01*
X43581Y-29585D01*
X43772Y-29585D01*
X43924Y-29614D01*
X44000Y-29642D01*
X44039Y-29671D01*
X44077Y-29728D01*
X43277Y-30642D02*
X43810Y-30642D01*
X43734Y-30642D02*
X43772Y-30671D01*
X43810Y-30728D01*
X43810Y-30814D01*
X43772Y-30871D01*
X43696Y-30900D01*
X43277Y-30900D01*
X43696Y-30900D02*
X43772Y-30928D01*
X43810Y-30985D01*
X43810Y-31071D01*
X43772Y-31128D01*
X43696Y-31157D01*
X43277Y-31157D01*
X43277Y-31442D02*
X43810Y-31442D01*
X43734Y-31442D02*
X43772Y-31471D01*
X43810Y-31528D01*
X43810Y-31614D01*
X43772Y-31671D01*
X43696Y-31700D01*
X43277Y-31700D01*
X43696Y-31700D02*
X43772Y-31728D01*
X43810Y-31785D01*
X43810Y-31871D01*
X43772Y-31928D01*
X43696Y-31957D01*
X43277Y-31957D01*
X42999Y-19000D02*
X42999Y-40000D01*
X40000Y-19000D02*
X44279Y-19000D01*
X40000Y-40000D02*
X44279Y-40000D01*
X42999Y-40000D02*
X42769Y-39557D01*
X42999Y-40000D02*
X43229Y-39557D01*
X42999Y-19000D02*
X42769Y-19443D01*
X42999Y-19000D02*
X43229Y-19443D01*
X27328Y-43200D02*
X27042Y-43200D01*
X27014Y-43581D01*
X27042Y-43543D01*
X27099Y-43505D01*
X27242Y-43505D01*
X27299Y-43543D01*
X27328Y-43581D01*
X27357Y-43658D01*
X27357Y-43848D01*
X27328Y-43924D01*
X27299Y-43962D01*
X27242Y-44000D01*
X27099Y-44000D01*
X27042Y-43962D01*
X27014Y-43924D01*
X27557Y-43200D02*
X27928Y-43200D01*
X27728Y-43505D01*
X27814Y-43505D01*
X27871Y-43543D01*
X27899Y-43581D01*
X27928Y-43658D01*
X27928Y-43848D01*
X27899Y-43924D01*
X27871Y-43962D01*
X27814Y-44000D01*
X27642Y-44000D01*
X27585Y-43962D01*
X27557Y-43924D01*
X28214Y-43962D02*
X28214Y-44000D01*
X28185Y-44077D01*
X28157Y-44115D01*
X28414Y-43200D02*
X28785Y-43200D01*
X28585Y-43505D01*
X28671Y-43505D01*
X28728Y-43543D01*
X28757Y-43581D01*
X28785Y-43658D01*
X28785Y-43848D01*
X28757Y-43924D01*
X28728Y-43962D01*
X28671Y-44000D01*
X28500Y-44000D01*
X28442Y-43962D01*
X28414Y-43924D01*
X29300Y-43467D02*
X29300Y-44000D01*
X29157Y-43162D02*
X29014Y-43734D01*
X29385Y-43734D01*
X29728Y-43200D02*
X29785Y-43200D01*
X29842Y-43239D01*
X29871Y-43277D01*
X29900Y-43353D01*
X29928Y-43505D01*
X29928Y-43696D01*
X29900Y-43848D01*
X29871Y-43924D01*
X29842Y-43962D01*
X29785Y-44000D01*
X29728Y-44000D01*
X29671Y-43962D01*
X29642Y-43924D01*
X29614Y-43848D01*
X29585Y-43696D01*
X29585Y-43505D01*
X29614Y-43353D01*
X29642Y-43277D01*
X29671Y-43239D01*
X29728Y-43200D01*
X30642Y-44000D02*
X30642Y-43467D01*
X30642Y-43543D02*
X30671Y-43505D01*
X30728Y-43467D01*
X30814Y-43467D01*
X30871Y-43505D01*
X30900Y-43581D01*
X30900Y-44000D01*
X30900Y-43581D02*
X30928Y-43505D01*
X30985Y-43467D01*
X31071Y-43467D01*
X31128Y-43505D01*
X31157Y-43581D01*
X31157Y-44000D01*
X31442Y-44000D02*
X31442Y-43467D01*
X31442Y-43543D02*
X31471Y-43505D01*
X31528Y-43467D01*
X31614Y-43467D01*
X31671Y-43505D01*
X31700Y-43581D01*
X31700Y-44000D01*
X31700Y-43581D02*
X31728Y-43505D01*
X31785Y-43467D01*
X31871Y-43467D01*
X31928Y-43505D01*
X31957Y-43581D01*
X31957Y-44000D01*
X19000Y-42999D02*
X40000Y-42999D01*
X19000Y-40000D02*
X19000Y-44279D01*
X40000Y-40000D02*
X40000Y-44279D01*
X40000Y-42999D02*
X39557Y-43229D01*
X40000Y-42999D02*
X39557Y-42769D01*
X19000Y-42999D02*
X19443Y-43229D01*
X19000Y-42999D02*
X19443Y-42769D01*
G54D13*
X39000Y-20000D03*
X20000Y-39000D03*
G54D14*
X21000Y-38000D03*
X38000Y-21000D03*
G54D15*
X36000Y-21000D03*
X35000Y-21000D03*
X34000Y-21000D03*
X33000Y-21000D03*
X32000Y-21000D03*
X31000Y-21000D03*
X30000Y-21000D03*
X29000Y-21000D03*
X28000Y-21000D03*
X27000Y-21000D03*
X26000Y-21000D03*
X25000Y-21000D03*
X24000Y-21000D03*
G54D16*
X23000Y-21000D03*
X23000Y-20000D03*
G54D15*
X24000Y-20000D03*
X25000Y-20000D03*
X26000Y-20000D03*
X27000Y-20000D03*
X28000Y-20000D03*
X29000Y-20000D03*
X30000Y-20000D03*
X31000Y-20000D03*
X32000Y-20000D03*
X33000Y-20000D03*
X34000Y-20000D03*
X35000Y-20000D03*
X36000Y-20000D03*
X23000Y-38000D03*
X24000Y-38000D03*
X25000Y-38000D03*
X26000Y-38000D03*
X27000Y-38000D03*
X28000Y-38000D03*
X29000Y-38000D03*
X30000Y-38000D03*
X31000Y-38000D03*
X32000Y-38000D03*
X33000Y-38000D03*
X34000Y-38000D03*
X35000Y-38000D03*
G54D16*
X36000Y-38000D03*
X36000Y-39000D03*
G54D15*
X35000Y-39000D03*
X34000Y-39000D03*
X33000Y-39000D03*
X32000Y-39000D03*
X31000Y-39000D03*
X30000Y-39000D03*
X29000Y-39000D03*
X28000Y-39000D03*
X27000Y-39000D03*
X26000Y-39000D03*
X25000Y-39000D03*
X24000Y-39000D03*
X23000Y-39000D03*
G54D17*
X19800Y-23600D03*
X19800Y-23000D03*
X19800Y-24700D03*
X19800Y-25300D03*
G54D18*
X34100Y-22300D03*
X33500Y-22300D03*
X34100Y-23300D03*
X33500Y-23300D03*
X30900Y-22300D03*
X30300Y-22300D03*
G54D17*
X24500Y-23700D03*
X24500Y-24300D03*
G54D19*
X27675Y-27400D03*
X26925Y-27400D03*
G54D17*
X25300Y-23700D03*
X25300Y-24300D03*
G54D18*
X27600Y-26500D03*
X27000Y-26500D03*
G54D17*
X32400Y-27000D03*
X32400Y-27600D03*
G54D19*
X36725Y-28600D03*
X37475Y-28600D03*
G54D18*
X27600Y-22900D03*
X27000Y-22900D03*
X27000Y-24700D03*
X27600Y-24700D03*
X28400Y-29000D03*
X27800Y-29000D03*
X37900Y-30700D03*
X38500Y-30700D03*
X27300Y-34900D03*
X26700Y-34900D03*
X28100Y-34900D03*
X28700Y-34900D03*
G54D19*
X22225Y-34900D03*
X22975Y-34900D03*
G54D18*
X22300Y-35900D03*
X22900Y-35900D03*
G54D17*
X33900Y-36000D03*
X33900Y-36600D03*
X33100Y-36000D03*
X33100Y-36600D03*
X34700Y-36000D03*
X34700Y-36600D03*
G54D18*
X37900Y-31700D03*
X38500Y-31700D03*
G54D20*
X37000Y-22300D03*
G54D21*
X37000Y-23300D03*
G54D22*
X35600Y-36775D03*
X35600Y-36025D03*
X36600Y-36775D03*
X36600Y-36025D03*
G54D23*
X24100Y-22700D03*
X35400Y-27900D03*
X31700Y-25900D03*
X33500Y-25500D03*
X33500Y-26500D03*
G54D24*
X38650Y-37300D03*
X37950Y-37300D03*
X38300Y-36500D03*
G54D17*
X28800Y-26900D03*
X28800Y-27500D03*
X23700Y-23700D03*
X23700Y-24300D03*
X23700Y-24900D03*
X23700Y-25500D03*
X31600Y-27600D03*
X31600Y-27000D03*
G54D18*
X27000Y-25700D03*
X27600Y-25700D03*
X27600Y-22100D03*
X27000Y-22100D03*
X27600Y-23900D03*
X27000Y-23900D03*
X34100Y-24400D03*
X33500Y-24400D03*
G54D17*
X25900Y-29900D03*
X25900Y-30500D03*
X26700Y-29900D03*
X26700Y-30500D03*
G54D18*
X37900Y-34300D03*
X38500Y-34300D03*
X38500Y-32700D03*
X37900Y-32700D03*
X37900Y-33500D03*
X38500Y-33500D03*
X37900Y-35100D03*
X38500Y-35100D03*
X28500Y-32900D03*
X27900Y-32900D03*
X20700Y-29500D03*
X21300Y-29500D03*
X20700Y-30300D03*
X21300Y-30300D03*
X20700Y-31100D03*
X21300Y-31100D03*
X20700Y-31900D03*
X21300Y-31900D03*
X20700Y-32700D03*
X21300Y-32700D03*
X20700Y-33500D03*
X21300Y-33500D03*
G54D17*
X30600Y-36600D03*
X30600Y-36000D03*
X31400Y-36600D03*
X31400Y-36000D03*
X32200Y-36600D03*
X32200Y-36000D03*
G54D18*
X27900Y-33700D03*
X28500Y-33700D03*
G54D25*
X29625Y-25292D03*
X29625Y-25095D03*
X29625Y-24898D03*
X29625Y-25488D03*
G54D26*
X29911Y-25774D03*
X30107Y-25774D03*
X30304Y-25774D03*
X30501Y-25774D03*
X30698Y-25774D03*
X30895Y-25774D03*
X31092Y-25774D03*
X31288Y-25774D03*
G54D25*
X31574Y-24111D03*
X31574Y-25488D03*
X31574Y-25292D03*
X31574Y-25095D03*
X31574Y-24898D03*
X31574Y-24701D03*
X31574Y-24504D03*
X31574Y-24307D03*
G54D26*
X31288Y-23825D03*
X31092Y-23825D03*
X30895Y-23825D03*
X30698Y-23825D03*
X30501Y-23825D03*
X30304Y-23825D03*
X30107Y-23825D03*
X29911Y-23825D03*
G54D25*
X29625Y-24111D03*
X29625Y-24307D03*
X29625Y-24504D03*
X29625Y-24701D03*
G54D27*
X30600Y-24800D03*
G54D28*
X28533Y-29865D03*
X27666Y-29865D03*
X27666Y-30534D03*
X28533Y-30534D03*
G54D29*
X21100Y-27036D03*
X21100Y-36563D03*
G54D30*
X27050Y-36000D03*
X28349Y-36000D03*
G54D29*
X38787Y-22307D03*
X38787Y-23292D03*
G54D18*
X34100Y-25500D03*
X34700Y-25500D03*
X34100Y-26500D03*
X34700Y-26500D03*
G54D31*
X34157Y-30252D03*
X34472Y-30252D03*
X33842Y-30252D03*
X33527Y-30252D03*
X33212Y-30252D03*
X32897Y-30252D03*
X32582Y-30252D03*
X32267Y-30252D03*
X31952Y-30252D03*
X36047Y-30252D03*
X35732Y-30252D03*
X35417Y-30252D03*
X35102Y-30252D03*
X34787Y-30252D03*
X36047Y-30567D03*
X35732Y-30567D03*
X35417Y-30567D03*
X35102Y-30567D03*
X34787Y-30567D03*
X34472Y-30567D03*
X34157Y-30567D03*
X33842Y-30567D03*
X33527Y-30567D03*
X33212Y-30567D03*
X32897Y-30567D03*
X32582Y-30567D03*
X32267Y-30567D03*
X31952Y-30567D03*
X36047Y-30882D03*
X35732Y-30882D03*
X35417Y-30882D03*
X35102Y-30882D03*
X34787Y-30882D03*
X34472Y-30882D03*
X34157Y-30882D03*
X33842Y-30882D03*
X33527Y-30882D03*
X33212Y-30882D03*
X32897Y-30882D03*
X32582Y-30882D03*
X32267Y-30882D03*
X31952Y-30882D03*
X36047Y-31197D03*
X35732Y-31197D03*
X35417Y-31197D03*
X35102Y-31197D03*
X34787Y-31197D03*
X33212Y-31197D03*
X32897Y-31197D03*
X32582Y-31197D03*
X32267Y-31197D03*
X31952Y-31197D03*
X36047Y-31512D03*
X35732Y-31512D03*
X35417Y-31512D03*
X35102Y-31512D03*
X32897Y-31512D03*
X32582Y-31512D03*
X32267Y-31512D03*
X31952Y-31512D03*
X36047Y-31827D03*
X35732Y-31827D03*
X35417Y-31827D03*
X32582Y-31827D03*
X32267Y-31827D03*
X31952Y-31827D03*
X36047Y-32142D03*
X35732Y-32142D03*
X35417Y-32142D03*
X32582Y-32142D03*
X32267Y-32142D03*
X31952Y-32142D03*
X36047Y-32457D03*
X35732Y-32457D03*
X35417Y-32457D03*
X32582Y-32457D03*
X32267Y-32457D03*
X31952Y-32457D03*
X36047Y-32772D03*
X35732Y-32772D03*
X35417Y-32772D03*
X32582Y-32772D03*
X32267Y-32772D03*
X31952Y-32772D03*
X36047Y-33087D03*
X35732Y-33087D03*
X35417Y-33087D03*
X35102Y-33087D03*
X32897Y-33087D03*
X32582Y-33087D03*
X32267Y-33087D03*
X31952Y-33087D03*
X36047Y-33402D03*
X35732Y-33402D03*
X35417Y-33402D03*
X35102Y-33402D03*
X34787Y-33402D03*
X33212Y-33402D03*
X32897Y-33402D03*
X32582Y-33402D03*
X32267Y-33402D03*
X31952Y-33402D03*
X36047Y-33717D03*
X35732Y-33717D03*
X35417Y-33717D03*
X35102Y-33717D03*
X34787Y-33717D03*
X34472Y-33717D03*
X34157Y-33717D03*
X33842Y-33717D03*
X33527Y-33717D03*
X33212Y-33717D03*
X32897Y-33717D03*
X32582Y-33717D03*
X32267Y-33717D03*
X31952Y-33717D03*
X36047Y-34032D03*
X35732Y-34032D03*
X35417Y-34032D03*
X35102Y-34032D03*
X34787Y-34032D03*
X34472Y-34032D03*
X34157Y-34032D03*
X33842Y-34032D03*
X33527Y-34032D03*
X33212Y-34032D03*
X32897Y-34032D03*
X32582Y-34032D03*
X32267Y-34032D03*
X31952Y-34032D03*
X36047Y-34347D03*
X35732Y-34347D03*
X35417Y-34347D03*
X35102Y-34347D03*
X34787Y-34347D03*
X34472Y-34347D03*
X34157Y-34347D03*
X33842Y-34347D03*
X33527Y-34347D03*
X33212Y-34347D03*
X32897Y-34347D03*
X32582Y-34347D03*
X32267Y-34347D03*
X31952Y-34347D03*
G54D32*
X20700Y-24720D03*
X21200Y-24720D03*
X21700Y-24720D03*
X22200Y-24720D03*
X22700Y-24720D03*
G54D33*
X21700Y-22279D03*
G54D34*
X21100Y-21275D03*
X19825Y-22200D03*
X32110Y-30724D03*
X32741Y-30725D03*
X21000Y-31841D03*
X38249Y-34472D03*
X37400Y-26495D03*
X33119Y-31505D03*
X31163Y-30799D03*
X34000Y-30410D03*
X35005Y-32068D03*
X36226Y-31661D03*
X34711Y-32805D03*
X35574Y-33559D03*
X36371Y-34349D03*
X33368Y-33558D03*
X34300Y-36600D03*
X34315Y-34189D03*
X34001Y-33876D03*
X33686Y-34188D03*
X34000Y-34186D03*
X36820Y-33732D03*
X25553Y-30657D03*
X36405Y-32709D03*
X35892Y-33876D03*
X29300Y-26275D03*
X28550Y-25475D03*
X28450Y-26275D03*
X29750Y-27425D03*
X29975Y-26700D03*
X29150Y-28000D03*
X29725Y-28000D03*
X29725Y-28725D03*
X29150Y-28700D03*
X29150Y-30375D03*
X29750Y-30375D03*
X29750Y-29775D03*
X29175Y-29775D03*
X29075Y-35675D03*
X29550Y-36150D03*
X29900Y-37050D03*
X28850Y-37050D03*
X27675Y-37050D03*
X25775Y-37050D03*
X24075Y-21825D03*
X23300Y-22850D03*
X25975Y-23625D03*
X25975Y-22750D03*
X24975Y-22600D03*
X28550Y-22800D03*
X28325Y-22125D03*
X29175Y-22175D03*
X29200Y-23175D03*
X30075Y-23175D03*
X31800Y-23375D03*
X31675Y-22425D03*
X32375Y-22425D03*
X32375Y-23050D03*
X21675Y-39425D03*
X21925Y-38000D03*
X37125Y-20725D03*
X37350Y-19525D03*
X21025Y-35400D03*
X19975Y-35175D03*
X19975Y-36450D03*
X25900Y-32750D03*
X25075Y-33575D03*
X24700Y-35150D03*
X24450Y-36250D03*
X23200Y-36800D03*
X39050Y-28650D03*
X39300Y-37350D03*
X39050Y-29800D03*
X39275Y-31200D03*
X39275Y-32250D03*
X39275Y-33075D03*
X39275Y-33875D03*
X39275Y-34700D03*
X39275Y-35975D03*
X39125Y-25650D03*
X39150Y-24100D03*
X37225Y-24450D03*
X35450Y-24425D03*
X21150Y-25975D03*
X20200Y-26300D03*
X20425Y-27950D03*
X21875Y-27900D03*
X23050Y-26900D03*
X23025Y-28525D03*
X24350Y-27975D03*
X24350Y-26375D03*
X25550Y-25625D03*
X25550Y-27225D03*
X25550Y-28725D03*
X33425Y-33000D03*
X33425Y-32225D03*
X33875Y-32225D03*
X36700Y-31025D03*
X36725Y-30400D03*
X36425Y-29850D03*
X36425Y-29325D03*
X35850Y-29575D03*
X35850Y-28925D03*
X35150Y-28450D03*
X35150Y-29600D03*
X37396Y-30986D03*
X35888Y-34188D03*
X37934Y-28822D03*
X23670Y-34486D03*
X34200Y-27545D03*
X30066Y-29481D03*
X29697Y-32142D03*
X33867Y-33003D03*
X34788Y-31882D03*
X34763Y-31504D03*
X34070Y-31413D03*
X33367Y-31037D03*
X31775Y-35400D03*
X27976Y-24805D03*
X30548Y-22300D03*
X31235Y-23534D03*
X34947Y-33559D03*
X34385Y-28013D03*
X33804Y-27297D03*
X34944Y-34188D03*
X33993Y-28125D03*
X33576Y-27305D03*
X32755Y-30046D03*
X30480Y-26069D03*
X33000Y-27195D03*
X33370Y-30410D03*
X33510Y-30030D03*
X32881Y-27018D03*
X27338Y-27737D03*
X26300Y-29832D03*
X37900Y-33953D03*
X38541Y-32048D03*
X32423Y-34191D03*
X31307Y-35640D03*
X31913Y-35219D03*
X32110Y-34189D03*
X30095Y-34469D03*
X30102Y-34925D03*
X33054Y-33556D03*
X31620Y-33700D03*
X32425Y-33559D03*
X34786Y-21986D03*
X33253Y-22414D03*
X33251Y-23300D03*
X28089Y-23247D03*
X26979Y-24299D03*
X32400Y-26625D03*
X30975Y-22865D03*
X35197Y-31827D03*
X36259Y-31412D03*
X34944Y-33875D03*
X35007Y-35705D03*
X25650Y-34035D03*
X31584Y-31241D03*
X32742Y-31038D03*
X22717Y-31052D03*
X29849Y-30955D03*
X33682Y-31062D03*
X31208Y-30092D03*
X31622Y-30263D03*
X33057Y-30726D03*
X22700Y-31907D03*
X31326Y-31024D03*
X37202Y-31832D03*
X31163Y-35142D03*
X37197Y-34929D03*
X22747Y-30280D03*
X23520Y-29499D03*
X25484Y-30411D03*
X23520Y-33500D03*
X32110Y-30410D03*
X30216Y-31267D03*
X22733Y-32622D03*
X31085Y-29209D03*
X31421Y-30632D03*
X29471Y-25686D03*
X35889Y-33244D03*
X33827Y-30002D03*
X31800Y-36693D03*
X28121Y-23594D03*
X31693Y-35077D03*
X35259Y-33558D03*
X35260Y-33877D03*
X35574Y-33244D03*
X35025Y-32695D03*
X34611Y-31655D03*
X34552Y-31110D03*
X33384Y-35560D03*
X33371Y-34190D03*
X28139Y-32619D03*
X28840Y-33988D03*
X30051Y-35526D03*
G54D35*
X20750Y-21275D02*
X21100Y-21275D01*
X19825Y-22200D02*
X20750Y-21275D01*
X32897Y-30567D02*
X32897Y-30568D01*
X31953Y-30567D02*
X31952Y-30567D01*
X32110Y-30724D02*
X31953Y-30567D01*
X32897Y-30568D02*
X32741Y-30725D01*
G54D36*
X35102Y-30882D02*
X35417Y-30882D01*
X20700Y-31900D02*
X20887Y-31900D01*
X21200Y-24224D02*
X20700Y-24224D01*
X21200Y-24720D02*
X21200Y-24224D01*
X20700Y-24720D02*
X20700Y-24472D01*
X19839Y-24472D02*
X19800Y-24512D01*
X20700Y-24472D02*
X19839Y-24472D01*
X36600Y-36775D02*
X36600Y-36537D01*
X34700Y-25500D02*
X34700Y-26500D01*
X20700Y-32700D02*
X20700Y-31900D01*
X21000Y-31841D02*
X20945Y-31841D01*
X20945Y-31841D02*
X20887Y-31900D01*
X20700Y-31100D02*
X20793Y-31100D01*
X20793Y-31100D02*
X20887Y-31100D01*
X20700Y-30300D02*
X20700Y-29500D01*
X22225Y-34900D02*
X21987Y-34900D01*
X20700Y-32700D02*
X20700Y-33500D01*
X20875Y-33787D02*
X21987Y-34900D01*
X20700Y-33787D02*
X20875Y-33787D01*
X20700Y-33500D02*
X20700Y-33787D01*
X38500Y-32700D02*
X38312Y-32700D01*
X31600Y-27600D02*
X31600Y-27693D01*
X28800Y-27500D02*
X28800Y-27687D01*
X22225Y-35537D02*
X22225Y-34900D01*
X22300Y-35612D02*
X22225Y-35537D01*
X22300Y-35900D02*
X22300Y-35612D01*
X28806Y-28781D02*
X28587Y-29000D01*
X28806Y-27693D02*
X28806Y-28781D01*
X31600Y-27693D02*
X28806Y-27693D01*
X28806Y-27693D02*
X28800Y-27687D01*
X20700Y-24472D02*
X20700Y-24348D01*
X20700Y-24348D02*
X20700Y-24224D01*
X20361Y-24348D02*
X19800Y-23787D01*
X20700Y-24348D02*
X20361Y-24348D01*
X19800Y-23600D02*
X19800Y-23787D01*
X19800Y-24700D02*
X19800Y-24606D01*
X19800Y-24606D02*
X19800Y-24512D01*
X20700Y-29500D02*
X20512Y-29500D01*
X38312Y-34409D02*
X38249Y-34472D01*
X38312Y-32700D02*
X38312Y-34409D01*
X20945Y-31158D02*
X20887Y-31100D01*
X20945Y-31841D02*
X20945Y-31158D01*
X28533Y-30534D02*
X28533Y-29865D01*
X38249Y-36500D02*
X38249Y-34472D01*
X36637Y-36500D02*
X38249Y-36500D01*
X36600Y-36537D02*
X36637Y-36500D01*
X38249Y-36500D02*
X38300Y-36500D01*
X34892Y-26495D02*
X37400Y-26495D01*
X34887Y-26500D02*
X34892Y-26495D01*
X28533Y-30534D02*
X28533Y-30833D01*
X20793Y-31100D02*
X20793Y-30800D01*
X20793Y-30681D02*
X20700Y-30587D01*
X20793Y-30800D02*
X20793Y-30681D01*
X20700Y-30300D02*
X20700Y-30587D01*
X19492Y-28479D02*
X20512Y-29500D01*
X19492Y-24914D02*
X19492Y-28479D01*
X19800Y-24606D02*
X19492Y-24914D01*
X34700Y-26500D02*
X34887Y-26500D01*
X28493Y-29000D02*
X28587Y-29000D01*
X20700Y-29500D02*
X20887Y-29500D01*
X27244Y-30833D02*
X28533Y-30833D01*
X27211Y-30800D02*
X27244Y-30833D01*
X20793Y-30800D02*
X27211Y-30800D01*
X28493Y-29000D02*
X28400Y-29000D01*
X20887Y-29428D02*
X20887Y-29500D01*
X21104Y-29211D02*
X20887Y-29428D01*
X27535Y-29211D02*
X21104Y-29211D01*
X27612Y-29287D02*
X27535Y-29211D01*
X27976Y-29287D02*
X27612Y-29287D01*
X28212Y-29051D02*
X27976Y-29287D01*
X28212Y-29000D02*
X28212Y-29051D01*
X28400Y-29000D02*
X28212Y-29000D01*
X35102Y-30882D02*
X35102Y-31197D01*
X33842Y-30567D02*
X33842Y-30567D01*
X34000Y-30410D02*
X33842Y-30567D01*
X29672Y-30799D02*
X31163Y-30799D01*
X29638Y-30833D02*
X29672Y-30799D01*
X28533Y-30833D02*
X29638Y-30833D01*
X31163Y-30689D02*
X31163Y-30799D01*
X31362Y-30490D02*
X31163Y-30689D01*
X31875Y-30490D02*
X31362Y-30490D01*
X31952Y-30567D02*
X31875Y-30490D01*
X34474Y-32068D02*
X35005Y-32068D01*
X34474Y-31868D02*
X34474Y-32068D01*
X33482Y-31868D02*
X34474Y-31868D01*
X33119Y-31505D02*
X33482Y-31868D01*
X34906Y-31393D02*
X35102Y-31197D01*
X34906Y-31563D02*
X34906Y-31393D01*
X34600Y-31868D02*
X34906Y-31563D01*
X34474Y-31868D02*
X34600Y-31868D01*
X38312Y-32669D02*
X38312Y-32700D01*
X37304Y-31661D02*
X38312Y-32669D01*
X36226Y-31661D02*
X37304Y-31661D01*
X35574Y-33559D02*
X35417Y-33717D01*
X34474Y-32805D02*
X34711Y-32805D01*
X34474Y-33715D02*
X34474Y-32805D01*
X34472Y-33717D02*
X34474Y-33715D01*
X34474Y-32805D02*
X34474Y-32068D01*
X37732Y-38000D02*
X36000Y-38000D01*
X38432Y-37300D02*
X37732Y-38000D01*
X38650Y-37300D02*
X38432Y-37300D01*
X36371Y-34349D02*
X36301Y-34349D01*
X36047Y-34347D02*
X36301Y-34349D01*
G54D35*
X33527Y-33717D02*
X33527Y-33717D01*
X33527Y-33717D02*
X33368Y-33558D01*
G54D36*
X33100Y-36600D02*
X33900Y-36600D01*
X34700Y-36600D02*
X34300Y-36600D01*
X34300Y-36600D02*
X33900Y-36600D01*
X34472Y-34032D02*
X34472Y-34032D01*
X34315Y-34189D02*
X34472Y-34032D01*
G54D35*
X34157Y-33717D02*
X34157Y-33719D01*
X34157Y-33719D02*
X34001Y-33876D01*
X34157Y-34032D02*
X34153Y-34032D01*
X33530Y-34032D02*
X33527Y-34032D01*
X33686Y-34188D02*
X33530Y-34032D01*
X34153Y-34032D02*
X34000Y-34186D01*
G54D36*
X34157Y-34032D02*
X34157Y-33717D01*
X36060Y-33730D02*
X36047Y-33717D01*
X36820Y-33732D02*
X36060Y-33730D01*
X26700Y-30687D02*
X25583Y-30687D01*
X25583Y-30687D02*
X25553Y-30657D01*
X26700Y-30500D02*
X26700Y-30687D01*
X35949Y-37300D02*
X37950Y-37300D01*
X35530Y-37719D02*
X35949Y-37300D01*
X35530Y-37981D02*
X35530Y-37719D01*
X35011Y-38500D02*
X35530Y-37981D01*
X25500Y-38500D02*
X35011Y-38500D01*
X25000Y-39000D02*
X25500Y-38500D01*
G54D35*
X35732Y-33717D02*
X35733Y-33717D01*
X36414Y-32700D02*
X37900Y-32700D01*
X36405Y-32709D02*
X36414Y-32700D01*
X35733Y-33717D02*
X35892Y-33876D01*
G54D36*
X37900Y-32700D02*
X38087Y-32700D01*
X25355Y-36644D02*
X24000Y-38000D01*
X29772Y-36644D02*
X25355Y-36644D01*
X30059Y-36357D02*
X29772Y-36644D01*
X37101Y-36357D02*
X30059Y-36357D01*
X38087Y-35371D02*
X37101Y-36357D01*
X38087Y-32700D02*
X38087Y-35371D01*
G54D35*
X28550Y-25575D02*
X28550Y-25475D01*
X28450Y-25675D02*
X28550Y-25575D01*
X28450Y-26275D02*
X28450Y-25675D01*
X29750Y-26925D02*
X29750Y-27425D01*
X29975Y-26700D02*
X29750Y-26925D01*
X29725Y-28000D02*
X29150Y-28000D01*
X29175Y-28725D02*
X29725Y-28725D01*
X29150Y-28700D02*
X29175Y-28725D01*
X30066Y-29481D02*
X29468Y-29481D01*
X29750Y-29775D02*
X29750Y-30375D01*
X29468Y-29481D02*
X29175Y-29775D01*
X29550Y-36150D02*
X29075Y-35675D01*
X25775Y-37050D02*
X27675Y-37050D01*
X30150Y-36600D02*
X29900Y-36850D01*
X29900Y-36850D02*
X29900Y-37050D01*
X28850Y-37050D02*
X27675Y-37050D01*
X30150Y-36600D02*
X30600Y-36600D01*
X21700Y-22279D02*
X22954Y-22279D01*
X23300Y-22625D02*
X23300Y-22850D01*
X22954Y-22279D02*
X23300Y-22625D01*
X25125Y-22750D02*
X25975Y-22750D01*
X24975Y-22600D02*
X25125Y-22750D01*
X29125Y-22125D02*
X28325Y-22125D01*
X29175Y-22175D02*
X29125Y-22125D01*
X30075Y-23175D02*
X29200Y-23175D01*
X31800Y-22550D02*
X31800Y-23375D01*
X31675Y-22425D02*
X31800Y-22550D01*
X32375Y-23050D02*
X32375Y-22425D01*
X21250Y-39000D02*
X21675Y-39425D01*
X21250Y-39000D02*
X20000Y-39000D01*
X39000Y-20000D02*
X37825Y-20000D01*
X37825Y-20000D02*
X37350Y-19525D01*
X21700Y-24720D02*
X21700Y-22279D01*
X20275Y-37300D02*
X20275Y-36750D01*
X20200Y-35400D02*
X21025Y-35400D01*
X19975Y-35175D02*
X20200Y-35400D01*
X20275Y-36750D02*
X19975Y-36450D01*
X22900Y-35900D02*
X22900Y-36050D01*
X20000Y-37550D02*
X20000Y-39000D01*
X20250Y-37300D02*
X20000Y-37550D01*
X21650Y-37300D02*
X20275Y-37300D01*
X20275Y-37300D02*
X20250Y-37300D01*
X22900Y-36050D02*
X21650Y-37300D01*
X22900Y-35900D02*
X22900Y-36500D01*
X25075Y-33575D02*
X25900Y-32750D01*
X24700Y-36000D02*
X24700Y-35150D01*
X24450Y-36250D02*
X24700Y-36000D01*
X22900Y-36500D02*
X23200Y-36800D01*
X37475Y-28600D02*
X39000Y-28600D01*
X39000Y-28600D02*
X39050Y-28650D01*
X39050Y-29800D02*
X39275Y-30025D01*
X39275Y-30025D02*
X39275Y-31200D01*
X39275Y-32250D02*
X39275Y-33075D01*
X39275Y-33875D02*
X39275Y-34700D01*
X39275Y-35975D02*
X39300Y-36000D01*
X39300Y-36000D02*
X39300Y-37350D01*
X34100Y-24400D02*
X35425Y-24400D01*
X37575Y-24100D02*
X39150Y-24100D01*
X37225Y-24450D02*
X37575Y-24100D01*
X35425Y-24400D02*
X35450Y-24425D01*
X26925Y-27400D02*
X26250Y-27400D01*
X20525Y-25975D02*
X21150Y-25975D01*
X20200Y-26300D02*
X20525Y-25975D01*
X21825Y-27950D02*
X20425Y-27950D01*
X21875Y-27900D02*
X21825Y-27950D01*
X23050Y-28500D02*
X23050Y-26900D01*
X23025Y-28525D02*
X23050Y-28500D01*
X24350Y-26375D02*
X24350Y-27975D01*
X25550Y-27225D02*
X25550Y-25625D01*
X25550Y-28100D02*
X25550Y-28725D01*
X26250Y-27400D02*
X25550Y-28100D01*
X33867Y-33003D02*
X33867Y-32233D01*
X33425Y-32225D02*
X33425Y-33000D01*
X33867Y-32233D02*
X33875Y-32225D01*
X36047Y-30252D02*
X36047Y-30222D01*
X36725Y-30150D02*
X36725Y-30400D01*
X36425Y-29850D02*
X36725Y-30150D01*
X36100Y-29325D02*
X36425Y-29325D01*
X35850Y-29575D02*
X36100Y-29325D01*
X35625Y-28925D02*
X35850Y-28925D01*
X35150Y-28450D02*
X35625Y-28925D01*
X35425Y-29600D02*
X35150Y-29600D01*
X36047Y-30222D02*
X35425Y-29600D01*
X35732Y-34032D02*
X35888Y-34188D01*
X37396Y-30986D02*
X37396Y-30987D01*
X37396Y-30987D02*
X37396Y-30986D01*
X37396Y-30986D02*
X37396Y-30987D01*
X32267Y-33087D02*
X31952Y-33087D01*
X32582Y-33087D02*
X32267Y-33087D01*
X32897Y-34032D02*
X32582Y-33717D01*
X32582Y-33717D02*
X32582Y-33402D01*
X32582Y-33402D02*
X32582Y-33087D01*
X32897Y-34347D02*
X32897Y-34032D01*
X32267Y-32772D02*
X31952Y-32772D01*
X32267Y-32772D02*
X32267Y-33087D01*
X32267Y-32457D02*
X32267Y-32772D01*
X32582Y-32142D02*
X32582Y-32457D01*
X32267Y-31827D02*
X32582Y-31827D01*
X32582Y-31827D02*
X32582Y-32142D01*
X32582Y-32142D02*
X32267Y-32142D01*
X32267Y-32142D02*
X32267Y-32457D01*
X32267Y-32457D02*
X32582Y-32457D01*
G54D36*
X35102Y-33402D02*
X34982Y-33282D01*
X34863Y-33402D02*
X34982Y-33282D01*
X34787Y-33402D02*
X34863Y-33402D01*
X35102Y-33163D02*
X35102Y-33087D01*
X34982Y-33282D02*
X35102Y-33163D01*
X35102Y-33087D02*
X35417Y-33087D01*
X32267Y-32142D02*
X32267Y-31827D01*
X31952Y-31512D02*
X32267Y-31512D01*
X35417Y-31512D02*
X35102Y-31512D01*
X20171Y-25216D02*
X20087Y-25300D01*
X21700Y-25216D02*
X20171Y-25216D01*
X21700Y-24720D02*
X21700Y-25216D01*
X19800Y-25300D02*
X20087Y-25300D01*
X29871Y-25544D02*
X31092Y-25544D01*
X29855Y-25528D02*
X29871Y-25544D01*
X29855Y-24701D02*
X29855Y-25528D01*
X29625Y-24701D02*
X29855Y-24701D01*
X31092Y-25680D02*
X31092Y-25544D01*
X31400Y-36600D02*
X30600Y-36600D01*
X32200Y-36600D02*
X32200Y-36787D01*
X31952Y-31827D02*
X31952Y-31512D01*
X38500Y-35100D02*
X38500Y-34300D01*
X38500Y-34300D02*
X38500Y-33500D01*
X38500Y-33500D02*
X38687Y-33500D01*
X38687Y-33500D02*
X38687Y-30700D01*
X34100Y-24400D02*
X34287Y-24400D01*
X25300Y-24300D02*
X25300Y-24487D01*
X38593Y-30700D02*
X38517Y-30700D01*
X38500Y-30700D02*
X38517Y-30700D01*
X38593Y-30700D02*
X38687Y-30700D01*
X27162Y-28550D02*
X27162Y-27400D01*
X27612Y-29000D02*
X27162Y-28550D01*
X27154Y-26942D02*
X27154Y-27400D01*
X27000Y-26787D02*
X27154Y-26942D01*
X26925Y-27400D02*
X27154Y-27400D01*
X27154Y-27400D02*
X27162Y-27400D01*
X27000Y-26500D02*
X27000Y-26787D01*
X21983Y-25500D02*
X21700Y-25216D01*
X23700Y-25500D02*
X21983Y-25500D01*
X27000Y-26500D02*
X26812Y-26500D01*
X20475Y-23000D02*
X21700Y-24224D01*
X19800Y-23000D02*
X20475Y-23000D01*
X21700Y-24720D02*
X21700Y-24224D01*
X35000Y-36787D02*
X35000Y-38000D01*
X32200Y-36787D02*
X35000Y-36787D01*
X35249Y-36787D02*
X35262Y-36775D01*
X35000Y-36787D02*
X35249Y-36787D01*
X20000Y-38616D02*
X20000Y-39000D01*
X22900Y-35615D02*
X22900Y-35767D01*
X22900Y-35900D02*
X22900Y-35615D01*
X22900Y-35312D02*
X22975Y-35237D01*
X22900Y-35615D02*
X22900Y-35312D01*
X38500Y-30700D02*
X38312Y-30700D01*
X26812Y-26128D02*
X26812Y-26500D01*
X28523Y-24701D02*
X29625Y-24701D01*
X28222Y-25002D02*
X28523Y-24701D01*
X27831Y-25002D02*
X28222Y-25002D01*
X27400Y-25433D02*
X27831Y-25002D01*
X27400Y-25741D02*
X27400Y-25433D01*
X27013Y-26128D02*
X27400Y-25741D01*
X26812Y-26128D02*
X27013Y-26128D01*
X25235Y-24551D02*
X26812Y-26128D01*
X25300Y-24487D02*
X25235Y-24551D01*
X24287Y-25500D02*
X23700Y-25500D01*
X25235Y-24551D02*
X24287Y-25500D01*
X35431Y-36775D02*
X35262Y-36775D01*
X35431Y-36775D02*
X35600Y-36775D01*
X22975Y-34900D02*
X22975Y-35068D01*
X22975Y-35068D02*
X22975Y-35237D01*
X35417Y-33087D02*
X35417Y-32772D01*
X38312Y-30731D02*
X38312Y-30700D01*
X38056Y-30987D02*
X38312Y-30731D01*
X36782Y-30987D02*
X37396Y-30987D01*
X37396Y-30987D02*
X38056Y-30987D01*
X36047Y-30252D02*
X36782Y-30987D01*
X27666Y-29865D02*
X27666Y-29566D01*
X37475Y-28600D02*
X37593Y-28600D01*
X37593Y-28600D02*
X37712Y-28600D01*
X27800Y-29000D02*
X27612Y-29000D01*
X38312Y-29199D02*
X37934Y-28822D01*
X38312Y-30700D02*
X38312Y-29199D01*
X37712Y-28600D02*
X37934Y-28822D01*
X27900Y-32900D02*
X27806Y-32900D01*
X27806Y-32900D02*
X27712Y-32900D01*
X27712Y-34291D02*
X27712Y-32900D01*
X35417Y-34032D02*
X35732Y-34032D01*
X23557Y-34486D02*
X23670Y-34486D01*
X23557Y-34486D02*
X23557Y-34486D01*
X22975Y-35068D02*
X23557Y-34486D01*
X23865Y-34291D02*
X27712Y-34291D01*
X23670Y-34486D02*
X23865Y-34291D01*
X31092Y-25680D02*
X31092Y-25774D01*
X31092Y-25774D02*
X31092Y-26004D01*
X32400Y-27600D02*
X32687Y-27600D01*
X33167Y-27229D02*
X33167Y-27095D01*
X32796Y-27600D02*
X33167Y-27229D01*
X32687Y-27600D02*
X32796Y-27600D01*
X31477Y-26389D02*
X31092Y-26004D01*
X32461Y-26389D02*
X31477Y-26389D01*
X33167Y-27095D02*
X32461Y-26389D01*
X34133Y-27095D02*
X33167Y-27095D01*
X34133Y-27479D02*
X34200Y-27545D01*
X34133Y-27095D02*
X34133Y-27479D01*
X34133Y-26951D02*
X34133Y-27095D01*
X34292Y-26792D02*
X34133Y-26951D01*
X34287Y-26787D02*
X34292Y-26792D01*
X34287Y-24400D02*
X34287Y-26787D01*
X35786Y-26792D02*
X37593Y-28600D01*
X34292Y-26792D02*
X35786Y-26792D01*
X30066Y-29481D02*
X30066Y-29481D01*
X27752Y-29481D02*
X30066Y-29481D01*
X27666Y-29566D02*
X27752Y-29481D01*
X31181Y-29481D02*
X30066Y-29481D01*
X31952Y-30252D02*
X31181Y-29481D01*
X35399Y-32160D02*
X35301Y-32160D01*
X35417Y-32142D02*
X35399Y-32160D01*
X34855Y-32840D02*
X35102Y-33087D01*
X34855Y-32606D02*
X34855Y-32840D01*
X35301Y-32160D02*
X34855Y-32606D01*
X31736Y-36551D02*
X31687Y-36600D01*
X31863Y-36551D02*
X31736Y-36551D01*
X31912Y-36600D02*
X31863Y-36551D01*
X32200Y-36600D02*
X31912Y-36600D01*
X31400Y-36600D02*
X31687Y-36600D01*
X34787Y-31197D02*
X34705Y-31280D01*
X35032Y-31882D02*
X34788Y-31882D01*
X35032Y-31891D02*
X35032Y-31882D01*
X35301Y-32160D02*
X35032Y-31891D01*
X35032Y-31582D02*
X35102Y-31512D01*
X35032Y-31882D02*
X35032Y-31582D01*
X34519Y-31280D02*
X34705Y-31280D01*
X34157Y-30917D02*
X34519Y-31280D01*
X34157Y-30882D02*
X34157Y-30917D01*
X34705Y-31280D02*
X34705Y-31413D01*
X34705Y-31445D02*
X34763Y-31504D01*
X34705Y-31413D02*
X34705Y-31445D01*
X34705Y-31413D02*
X34070Y-31413D01*
X33810Y-33370D02*
X33867Y-33003D01*
X33842Y-33402D02*
X33810Y-33370D01*
X33842Y-33717D02*
X33842Y-33402D01*
X33266Y-33348D02*
X33212Y-33402D01*
X33788Y-33348D02*
X33266Y-33348D01*
X33810Y-33370D02*
X33788Y-33348D01*
X31952Y-31512D02*
X31952Y-31197D01*
X32582Y-33087D02*
X32897Y-33087D01*
X31952Y-31827D02*
X32267Y-31827D01*
X28390Y-32142D02*
X29697Y-32142D01*
X27806Y-32726D02*
X28390Y-32142D01*
X27806Y-32900D02*
X27806Y-32726D01*
X31952Y-32142D02*
X31952Y-32142D01*
X29697Y-32142D02*
X31952Y-32142D01*
X31897Y-34291D02*
X27712Y-34291D01*
X31952Y-34347D02*
X31897Y-34291D01*
X31952Y-33087D02*
X31952Y-32772D01*
X31952Y-32142D02*
X32267Y-32142D01*
X33212Y-31191D02*
X33212Y-31197D01*
X33367Y-31037D02*
X33212Y-31191D01*
X35600Y-35787D02*
X35206Y-35393D01*
X35206Y-35393D02*
X31775Y-35400D01*
X35600Y-35787D02*
X35600Y-36025D01*
X31286Y-24058D02*
X31288Y-24055D01*
X30600Y-24058D02*
X31286Y-24058D01*
X30600Y-24800D02*
X30600Y-24058D01*
X31288Y-23870D02*
X31288Y-24055D01*
X26812Y-24974D02*
X26812Y-22900D01*
X26825Y-24987D02*
X26812Y-24974D01*
X27196Y-24987D02*
X26825Y-24987D01*
X27412Y-24771D02*
X27196Y-24987D01*
X27412Y-24700D02*
X27412Y-24771D01*
X27000Y-22900D02*
X26906Y-22900D01*
X26906Y-22900D02*
X26812Y-22900D01*
X29601Y-21788D02*
X30112Y-22300D01*
X27418Y-21788D02*
X29601Y-21788D01*
X27358Y-21848D02*
X27418Y-21788D01*
X27358Y-22447D02*
X27358Y-21848D01*
X26906Y-22900D02*
X27358Y-22447D01*
X30300Y-22300D02*
X30112Y-22300D01*
X27506Y-24700D02*
X27412Y-24700D01*
X27506Y-24700D02*
X27600Y-24700D01*
X27871Y-24700D02*
X27976Y-24805D01*
X27600Y-24700D02*
X27871Y-24700D01*
X30300Y-22300D02*
X30393Y-22300D01*
X30393Y-22300D02*
X30548Y-22300D01*
X31288Y-23870D02*
X31288Y-23825D01*
X31288Y-23588D02*
X31235Y-23534D01*
X31288Y-23825D02*
X31288Y-23588D01*
G54D35*
X34947Y-33559D02*
X35102Y-33714D01*
X35102Y-33714D02*
X35102Y-33717D01*
X34371Y-28013D02*
X34385Y-28013D01*
X33845Y-27487D02*
X34371Y-28013D01*
X33845Y-27338D02*
X33845Y-27487D01*
X33804Y-27297D02*
X33845Y-27338D01*
G54D36*
X34100Y-26500D02*
X33912Y-26500D01*
X32488Y-25488D02*
X33500Y-26500D01*
X31574Y-25488D02*
X32488Y-25488D01*
X33500Y-26500D02*
X33912Y-26500D01*
G54D35*
X35102Y-34346D02*
X35102Y-34347D01*
X34944Y-34188D02*
X35102Y-34346D01*
X33682Y-27814D02*
X33993Y-28125D01*
X33682Y-27411D02*
X33682Y-27814D01*
X33576Y-27305D02*
X33682Y-27411D01*
G54D36*
X34100Y-25500D02*
X33912Y-25500D01*
X33292Y-25292D02*
X33500Y-25500D01*
X31574Y-25292D02*
X33292Y-25292D01*
X33500Y-25500D02*
X33912Y-25500D01*
X30107Y-25774D02*
X30107Y-26004D01*
X30107Y-26205D02*
X30107Y-26004D01*
X31268Y-27365D02*
X30107Y-26205D01*
X31836Y-27365D02*
X31268Y-27365D01*
X32112Y-27641D02*
X31836Y-27365D01*
X32112Y-27778D02*
X32112Y-27641D01*
X32361Y-28028D02*
X32112Y-27778D01*
X32562Y-28028D02*
X32361Y-28028D01*
X34787Y-30252D02*
X32562Y-28028D01*
X30501Y-26048D02*
X30480Y-26069D01*
X30501Y-25774D02*
X30501Y-26048D01*
X32897Y-30188D02*
X32755Y-30046D01*
X32897Y-30252D02*
X32897Y-30188D01*
X33212Y-30567D02*
X33212Y-30567D01*
X33370Y-30410D02*
X33212Y-30567D01*
X32915Y-27280D02*
X33000Y-27195D01*
X31319Y-27280D02*
X32915Y-27280D01*
X30304Y-26265D02*
X31319Y-27280D01*
X30304Y-25774D02*
X30304Y-26265D01*
X33510Y-30235D02*
X33510Y-30030D01*
X33527Y-30252D02*
X33510Y-30235D01*
X32704Y-27195D02*
X32881Y-27018D01*
X31354Y-27195D02*
X32704Y-27195D01*
X30698Y-26538D02*
X31354Y-27195D01*
X30698Y-25774D02*
X30698Y-26538D01*
X26255Y-29832D02*
X26187Y-29900D01*
X26300Y-29832D02*
X26255Y-29832D01*
X25900Y-29900D02*
X26187Y-29900D01*
X27902Y-27737D02*
X27338Y-27737D01*
X28440Y-27200D02*
X27902Y-27737D01*
X28980Y-27200D02*
X28440Y-27200D01*
X29911Y-26269D02*
X28980Y-27200D01*
X29911Y-25774D02*
X29911Y-26269D01*
X34100Y-23300D02*
X34287Y-23300D01*
X37007Y-23292D02*
X37000Y-23300D01*
X38787Y-23292D02*
X37007Y-23292D01*
X37000Y-23300D02*
X34287Y-23300D01*
X37370Y-22307D02*
X37362Y-22300D01*
X38787Y-22307D02*
X37370Y-22307D01*
X37181Y-22300D02*
X37362Y-22300D01*
X37181Y-22300D02*
X37000Y-22300D01*
X34100Y-22300D02*
X37000Y-22300D01*
X28700Y-34900D02*
X28512Y-34900D01*
X28349Y-35062D02*
X28512Y-34900D01*
X28349Y-36000D02*
X28349Y-35062D01*
X28700Y-34900D02*
X28887Y-34900D01*
X34037Y-34782D02*
X34472Y-34347D01*
X29004Y-34782D02*
X34037Y-34782D01*
X28887Y-34900D02*
X29004Y-34782D01*
X26733Y-35187D02*
X26700Y-35187D01*
X27050Y-35504D02*
X26733Y-35187D01*
X27050Y-36000D02*
X27050Y-35504D01*
X26700Y-34900D02*
X26700Y-35043D01*
X26700Y-35043D02*
X26700Y-35187D01*
X33892Y-34612D02*
X34157Y-34347D01*
X27131Y-34612D02*
X33892Y-34612D01*
X26700Y-35043D02*
X27131Y-34612D01*
X36125Y-33953D02*
X37900Y-33953D01*
X36047Y-34032D02*
X36125Y-33953D01*
X38500Y-32006D02*
X38500Y-31700D01*
X38541Y-32048D02*
X38500Y-32006D01*
G54D35*
X31400Y-36000D02*
X31378Y-36000D01*
X32581Y-34032D02*
X32582Y-34032D01*
X32423Y-34191D02*
X32581Y-34032D01*
X31307Y-35929D02*
X31307Y-35640D01*
X31378Y-36000D02*
X31307Y-35929D01*
G54D36*
X32267Y-34032D02*
X32267Y-34032D01*
X32110Y-34189D02*
X32267Y-34032D01*
X32200Y-36000D02*
X31912Y-36000D01*
X31656Y-35219D02*
X31913Y-35219D01*
X31543Y-35333D02*
X31656Y-35219D01*
X31543Y-35631D02*
X31543Y-35333D01*
X31912Y-36000D02*
X31543Y-35631D01*
X30600Y-35422D02*
X30102Y-34925D01*
X30600Y-36000D02*
X30600Y-35422D01*
X30135Y-34509D02*
X30095Y-34469D01*
X32420Y-34509D02*
X30135Y-34509D01*
X32582Y-34347D02*
X32420Y-34509D01*
X33054Y-33556D02*
X33212Y-33717D01*
X32267Y-33717D02*
X32267Y-33717D01*
X32425Y-33559D02*
X32267Y-33717D01*
X28500Y-33700D02*
X31620Y-33700D01*
X23571Y-25216D02*
X23700Y-25087D01*
X22700Y-25216D02*
X23571Y-25216D01*
X22700Y-24720D02*
X22700Y-25216D01*
X23700Y-24993D02*
X23700Y-25087D01*
X23700Y-24993D02*
X23700Y-24900D01*
X24500Y-24300D02*
X24500Y-24487D01*
X23700Y-24487D02*
X24500Y-24487D01*
X23700Y-24900D02*
X23700Y-24487D01*
X23700Y-24487D02*
X23700Y-24300D01*
X31595Y-26004D02*
X31700Y-25900D01*
X31288Y-26004D02*
X31595Y-26004D01*
X31288Y-25774D02*
X31288Y-26004D01*
X32813Y-24898D02*
X33312Y-24400D01*
X31574Y-24898D02*
X32813Y-24898D01*
X33500Y-24400D02*
X33312Y-24400D01*
X30742Y-21986D02*
X34786Y-21986D01*
X30712Y-22016D02*
X30742Y-21986D01*
X30712Y-22923D02*
X30712Y-22016D01*
X30895Y-23106D02*
X30712Y-22923D01*
X30895Y-23825D02*
X30895Y-23106D01*
X33500Y-22300D02*
X33312Y-22300D01*
X33253Y-22414D02*
X33282Y-22414D01*
X33312Y-22384D02*
X33282Y-22414D01*
X33312Y-22300D02*
X33312Y-22384D01*
X32981Y-24307D02*
X31574Y-24307D01*
X33709Y-23580D02*
X32981Y-24307D01*
X33709Y-23015D02*
X33709Y-23580D01*
X33282Y-22589D02*
X33709Y-23015D01*
X33282Y-22414D02*
X33282Y-22589D01*
X31574Y-24111D02*
X31804Y-24111D01*
X32615Y-23300D02*
X33251Y-23300D01*
X31804Y-24111D02*
X32615Y-23300D01*
X33251Y-23300D02*
X33500Y-23300D01*
X26848Y-30235D02*
X27666Y-30235D01*
X26700Y-30087D02*
X26848Y-30235D01*
X26700Y-29900D02*
X26700Y-30087D01*
X27666Y-30534D02*
X27666Y-30235D01*
X26475Y-30312D02*
X26700Y-30087D01*
X25900Y-30312D02*
X26475Y-30312D01*
X25900Y-30500D02*
X25900Y-30312D01*
X29625Y-25095D02*
X29395Y-25095D01*
X28800Y-26900D02*
X28800Y-26712D01*
X28800Y-25690D02*
X28800Y-26712D01*
X29395Y-25095D02*
X28800Y-25690D01*
X29911Y-23825D02*
X29911Y-23595D01*
X27600Y-22900D02*
X27787Y-22900D01*
X27600Y-22100D02*
X27600Y-22900D01*
X28437Y-23595D02*
X28089Y-23247D01*
X29911Y-23595D02*
X28437Y-23595D01*
X28089Y-23201D02*
X27787Y-22900D01*
X28089Y-23247D02*
X28089Y-23201D01*
X28195Y-24307D02*
X27787Y-23900D01*
X29625Y-24307D02*
X28195Y-24307D01*
X27600Y-23900D02*
X27693Y-23900D01*
X27693Y-23900D02*
X27787Y-23900D01*
X27181Y-24412D02*
X27000Y-24412D01*
X27693Y-23900D02*
X27181Y-24412D01*
X27000Y-24700D02*
X27000Y-24556D01*
X27000Y-24556D02*
X27000Y-24412D01*
X26979Y-24536D02*
X26979Y-24299D01*
X27000Y-24556D02*
X26979Y-24536D01*
X31600Y-27000D02*
X31600Y-26906D01*
X31600Y-26906D02*
X31600Y-26812D01*
X31600Y-26906D02*
X32357Y-26906D01*
X32357Y-26957D02*
X32357Y-26906D01*
X32400Y-27000D02*
X32357Y-26957D01*
X30895Y-26107D02*
X30895Y-25774D01*
X31600Y-26812D02*
X30895Y-26107D01*
X32357Y-26668D02*
X32400Y-26625D01*
X32357Y-26906D02*
X32357Y-26668D01*
X30900Y-22300D02*
X31087Y-22300D01*
X31087Y-22865D02*
X31087Y-22300D01*
X31092Y-22870D02*
X31087Y-22865D01*
X31092Y-23825D02*
X31092Y-22870D01*
X31087Y-22865D02*
X30975Y-22865D01*
X28589Y-24898D02*
X27787Y-25700D01*
X29625Y-24898D02*
X28589Y-24898D01*
X27600Y-25700D02*
X27693Y-25700D01*
X27693Y-25700D02*
X27787Y-25700D01*
X27600Y-25793D02*
X27693Y-25700D01*
X27600Y-26500D02*
X27600Y-25793D01*
X27675Y-26862D02*
X27675Y-27400D01*
X27600Y-26787D02*
X27675Y-26862D01*
X27600Y-26500D02*
X27600Y-26787D01*
X37900Y-35100D02*
X37712Y-35100D01*
X37363Y-34751D02*
X37712Y-35100D01*
X35191Y-34751D02*
X37363Y-34751D01*
X34787Y-34347D02*
X35191Y-34751D01*
X37900Y-31700D02*
X37900Y-31412D01*
X37900Y-31412D02*
X36259Y-31412D01*
X35417Y-31827D02*
X35197Y-31827D01*
G54D35*
X34787Y-33717D02*
X34787Y-33718D01*
X34787Y-33718D02*
X34944Y-33875D01*
G54D36*
X27300Y-34900D02*
X28100Y-34900D01*
X28100Y-34900D02*
X28100Y-35187D01*
X32929Y-35705D02*
X35007Y-35705D01*
X32674Y-35960D02*
X32929Y-35705D01*
X32674Y-36110D02*
X32674Y-35960D01*
X32511Y-36272D02*
X32674Y-36110D01*
X29981Y-36272D02*
X32511Y-36272D01*
X29733Y-36520D02*
X29981Y-36272D01*
X27956Y-36520D02*
X29733Y-36520D01*
X27927Y-36491D02*
X27956Y-36520D01*
X27927Y-35360D02*
X27927Y-36491D01*
X28100Y-35187D02*
X27927Y-35360D01*
X29130Y-32457D02*
X28687Y-32900D01*
X31952Y-32457D02*
X29130Y-32457D01*
X28500Y-32900D02*
X28687Y-32900D01*
X35901Y-34516D02*
X35732Y-34347D01*
X37495Y-34516D02*
X35901Y-34516D01*
X37712Y-34300D02*
X37495Y-34516D01*
X37900Y-34300D02*
X37712Y-34300D01*
X37900Y-33500D02*
X37712Y-33500D01*
X36144Y-33500D02*
X37712Y-33500D01*
X36047Y-33402D02*
X36144Y-33500D01*
G54D35*
X32897Y-30882D02*
X32897Y-30882D01*
X27780Y-31905D02*
X25650Y-34035D01*
X30920Y-31905D02*
X27780Y-31905D01*
X31584Y-31241D02*
X30920Y-31905D01*
X32897Y-30882D02*
X32742Y-31038D01*
G54D36*
X21300Y-31100D02*
X21487Y-31100D01*
X21534Y-31052D02*
X22717Y-31052D01*
X21487Y-31100D02*
X21534Y-31052D01*
X33842Y-30902D02*
X33682Y-31062D01*
X33842Y-30882D02*
X33842Y-30902D01*
X22815Y-30955D02*
X29849Y-30955D01*
X22717Y-31052D02*
X22815Y-30955D01*
G54D35*
X33212Y-30882D02*
X33212Y-30881D01*
X31451Y-30092D02*
X31208Y-30092D01*
X31622Y-30263D02*
X31451Y-30092D01*
X33212Y-30881D02*
X33057Y-30726D01*
G54D36*
X21300Y-31900D02*
X21487Y-31900D01*
X21495Y-31907D02*
X22700Y-31907D01*
X21487Y-31900D02*
X21495Y-31907D01*
X31252Y-31097D02*
X31326Y-31024D01*
X23510Y-31097D02*
X31252Y-31097D01*
X22700Y-31907D02*
X23510Y-31097D01*
X36047Y-31827D02*
X37202Y-31832D01*
X31371Y-34934D02*
X37197Y-34929D01*
X31163Y-35142D02*
X31371Y-34934D01*
X21300Y-30300D02*
X21487Y-30300D01*
X21507Y-30280D02*
X22747Y-30280D01*
X21487Y-30300D02*
X21507Y-30280D01*
X21300Y-29500D02*
X21487Y-29500D01*
X21487Y-29499D02*
X23520Y-29499D01*
X21487Y-29500D02*
X21487Y-29499D01*
X25438Y-29499D02*
X23520Y-29499D01*
X25549Y-29388D02*
X25438Y-29499D01*
X29019Y-29388D02*
X25549Y-29388D01*
X29351Y-29056D02*
X29019Y-29388D01*
X33275Y-29056D02*
X29351Y-29056D01*
X34472Y-30252D02*
X33275Y-29056D01*
X25438Y-30366D02*
X25484Y-30411D01*
X25438Y-29499D02*
X25438Y-30366D01*
X21300Y-33500D02*
X23520Y-33500D01*
X32267Y-30567D02*
X32267Y-30567D01*
X32110Y-30410D02*
X32267Y-30567D01*
X25753Y-31267D02*
X30216Y-31267D01*
X23520Y-33500D02*
X25753Y-31267D01*
X21565Y-32622D02*
X22733Y-32622D01*
X21487Y-32700D02*
X21565Y-32622D01*
X33241Y-29209D02*
X31085Y-29209D01*
X34157Y-30125D02*
X33241Y-29209D01*
X34157Y-30252D02*
X34157Y-30125D01*
X21300Y-32700D02*
X21372Y-32700D01*
X21372Y-32700D02*
X21487Y-32700D01*
X31482Y-30693D02*
X31421Y-30632D01*
X31482Y-31073D02*
X31482Y-30693D01*
X30848Y-31680D02*
X31482Y-31073D01*
X25885Y-31680D02*
X30848Y-31680D01*
X23805Y-33787D02*
X25885Y-31680D01*
X21132Y-33787D02*
X23805Y-33787D01*
X21112Y-33767D02*
X21132Y-33787D01*
X21112Y-32960D02*
X21112Y-33767D01*
X21372Y-32700D02*
X21112Y-32960D01*
X29395Y-25610D02*
X29471Y-25686D01*
X29395Y-25292D02*
X29395Y-25610D01*
X29625Y-25292D02*
X29395Y-25292D01*
X35732Y-33402D02*
X35732Y-33402D01*
X35889Y-33244D02*
X35732Y-33402D01*
X33508Y-37508D02*
X34000Y-38000D01*
X32614Y-37508D02*
X33508Y-37508D01*
X31800Y-36693D02*
X32614Y-37508D01*
X33708Y-29883D02*
X33827Y-30002D01*
X32636Y-29883D02*
X33708Y-29883D01*
X32267Y-30252D02*
X32636Y-29883D01*
X27421Y-23594D02*
X28121Y-23594D01*
X27187Y-23828D02*
X27421Y-23594D01*
X27187Y-23900D02*
X27187Y-23828D01*
X27000Y-23900D02*
X27187Y-23900D01*
X36600Y-36025D02*
X36600Y-35787D01*
X35889Y-35077D02*
X31693Y-35077D01*
X36600Y-35787D02*
X35889Y-35077D01*
G54D35*
X35102Y-34032D02*
X35104Y-34032D01*
X35414Y-33402D02*
X35417Y-33402D01*
X35259Y-33558D02*
X35414Y-33402D01*
X35104Y-34032D02*
X35260Y-33877D01*
G54D36*
X35417Y-33402D02*
X35417Y-33402D01*
X35417Y-33402D02*
X35574Y-33244D01*
X35732Y-32772D02*
X35417Y-32457D01*
X32582Y-31512D02*
X32267Y-31197D01*
X36962Y-29950D02*
X36962Y-28600D01*
X37712Y-30700D02*
X36962Y-29950D01*
X37900Y-30700D02*
X37712Y-30700D01*
X36843Y-28600D02*
X36962Y-28600D01*
X36843Y-28600D02*
X36725Y-28600D01*
X36100Y-28600D02*
X35400Y-27900D01*
X36725Y-28600D02*
X36100Y-28600D01*
X33527Y-30567D02*
X33527Y-30882D01*
X35732Y-32142D02*
X35417Y-32457D01*
X35264Y-32457D02*
X35025Y-32695D01*
X35417Y-32457D02*
X35264Y-32457D01*
X32897Y-33717D02*
X32897Y-33402D01*
X33072Y-31687D02*
X32897Y-31512D01*
X33072Y-33227D02*
X33072Y-31687D01*
X32897Y-33402D02*
X33072Y-33227D01*
X32582Y-31512D02*
X32897Y-31512D01*
X33292Y-31358D02*
X33527Y-31124D01*
X33051Y-31358D02*
X33292Y-31358D01*
X32897Y-31512D02*
X33051Y-31358D01*
X33527Y-31124D02*
X33527Y-30882D01*
X34787Y-34032D02*
X35102Y-34032D01*
X34472Y-31031D02*
X34472Y-30882D01*
X34552Y-31110D02*
X34472Y-31031D01*
X34059Y-31655D02*
X34611Y-31655D01*
X33527Y-31124D02*
X34059Y-31655D01*
G54D35*
X33212Y-34032D02*
X33213Y-34032D01*
X33213Y-34032D02*
X33371Y-34190D01*
X33384Y-35560D02*
X33384Y-35559D01*
X33384Y-35559D02*
X33384Y-35560D01*
X33384Y-35560D02*
X33384Y-35559D01*
G54D36*
X31952Y-34032D02*
X31952Y-33988D01*
X27900Y-33700D02*
X28087Y-33700D01*
X22537Y-23887D02*
X23700Y-23887D01*
X22200Y-24224D02*
X22537Y-23887D01*
X22200Y-24720D02*
X22200Y-24224D01*
X23700Y-23700D02*
X23700Y-23887D01*
X24700Y-22100D02*
X24100Y-22700D01*
X27000Y-22100D02*
X24700Y-22100D01*
X25475Y-23887D02*
X25300Y-23887D01*
X27000Y-25412D02*
X25475Y-23887D01*
X24500Y-23700D02*
X24500Y-23512D01*
X24100Y-22700D02*
X24100Y-23400D01*
X23987Y-23512D02*
X24100Y-23400D01*
X23700Y-23512D02*
X23987Y-23512D01*
X24387Y-23400D02*
X24500Y-23512D01*
X24100Y-23400D02*
X24387Y-23400D01*
X23700Y-23700D02*
X23700Y-23512D01*
X34700Y-36000D02*
X33900Y-36000D01*
X33900Y-36000D02*
X33100Y-36000D01*
X25300Y-23700D02*
X25300Y-23793D01*
X25300Y-23793D02*
X25300Y-23887D01*
X24881Y-23793D02*
X24787Y-23700D01*
X25300Y-23793D02*
X24881Y-23793D01*
X24500Y-23700D02*
X24787Y-23700D01*
X27000Y-25700D02*
X27000Y-25412D01*
X34700Y-36000D02*
X34987Y-36000D01*
X31952Y-33988D02*
X28840Y-33988D01*
X28087Y-33736D02*
X28087Y-33700D01*
X28340Y-33988D02*
X28087Y-33736D01*
X28840Y-33988D02*
X28340Y-33988D01*
X35170Y-35817D02*
X34987Y-36000D01*
X35170Y-35620D02*
X35170Y-35817D01*
X35109Y-35559D02*
X35170Y-35620D01*
X32910Y-35559D02*
X33384Y-35559D01*
X33384Y-35559D02*
X35109Y-35559D01*
X32489Y-35980D02*
X32910Y-35559D01*
X32489Y-36174D02*
X32489Y-35980D01*
X32476Y-36187D02*
X32489Y-36174D01*
X30296Y-36187D02*
X32476Y-36187D01*
X30051Y-35943D02*
X30296Y-36187D01*
X30051Y-35526D02*
X30051Y-35943D01*
X28087Y-32672D02*
X28139Y-32619D01*
X28087Y-33700D02*
X28087Y-32672D01*
X31952Y-33988D02*
X31952Y-33717D01*
G54D10*
G36*
X27135Y-22455D02*
X27045Y-22545D01*
X26849Y-22545D01*
X26801Y-22564D01*
X26764Y-22601D01*
X26745Y-22649D01*
X26745Y-22700D01*
X26745Y-22765D01*
X26704Y-22792D01*
X26671Y-22841D01*
X26659Y-22900D01*
X26659Y-24856D01*
X25654Y-23851D01*
X25655Y-23850D01*
X25655Y-23799D01*
X25655Y-23549D01*
X25635Y-23501D01*
X25598Y-23464D01*
X25550Y-23445D01*
X25499Y-23445D01*
X25049Y-23445D01*
X25001Y-23464D01*
X24964Y-23501D01*
X24945Y-23549D01*
X24945Y-23600D01*
X24945Y-23641D01*
X24944Y-23641D01*
X24895Y-23592D01*
X24855Y-23565D01*
X24855Y-23565D01*
X24855Y-23549D01*
X24835Y-23501D01*
X24798Y-23464D01*
X24750Y-23445D01*
X24699Y-23445D01*
X24634Y-23445D01*
X24607Y-23404D01*
X24495Y-23292D01*
X24446Y-23259D01*
X24387Y-23247D01*
X24252Y-23247D01*
X24252Y-22948D01*
X24262Y-22943D01*
X24343Y-22863D01*
X24387Y-22757D01*
X24387Y-22643D01*
X24383Y-22632D01*
X24763Y-22252D01*
X26745Y-22252D01*
X26745Y-22350D01*
X26764Y-22398D01*
X26801Y-22435D01*
X26849Y-22455D01*
X26900Y-22455D01*
X27135Y-22455D01*
X27135Y-22455D01*
G37*
G54D37*
X27135Y-22455D02*
X27045Y-22545D01*
X26849Y-22545D01*
X26801Y-22564D01*
X26764Y-22601D01*
X26745Y-22649D01*
X26745Y-22700D01*
X26745Y-22765D01*
X26704Y-22792D01*
X26671Y-22841D01*
X26659Y-22900D01*
X26659Y-24856D01*
X25654Y-23851D01*
X25655Y-23850D01*
X25655Y-23799D01*
X25655Y-23549D01*
X25635Y-23501D01*
X25598Y-23464D01*
X25550Y-23445D01*
X25499Y-23445D01*
X25049Y-23445D01*
X25001Y-23464D01*
X24964Y-23501D01*
X24945Y-23549D01*
X24945Y-23600D01*
X24945Y-23641D01*
X24944Y-23641D01*
X24895Y-23592D01*
X24855Y-23565D01*
X24855Y-23565D01*
X24855Y-23549D01*
X24835Y-23501D01*
X24798Y-23464D01*
X24750Y-23445D01*
X24699Y-23445D01*
X24634Y-23445D01*
X24607Y-23404D01*
X24495Y-23292D01*
X24446Y-23259D01*
X24387Y-23247D01*
X24252Y-23247D01*
X24252Y-22948D01*
X24262Y-22943D01*
X24343Y-22863D01*
X24387Y-22757D01*
X24387Y-22643D01*
X24383Y-22632D01*
X24763Y-22252D01*
X26745Y-22252D01*
X26745Y-22350D01*
X26764Y-22398D01*
X26801Y-22435D01*
X26849Y-22455D01*
X26900Y-22455D01*
X27135Y-22455D01*
G54D10*
G36*
X27724Y-29915D02*
X27716Y-29915D01*
X27716Y-29923D01*
X27616Y-29923D01*
X27616Y-29915D01*
X27203Y-29915D01*
X27141Y-29977D01*
X27141Y-30051D01*
X27141Y-30083D01*
X27041Y-30083D01*
X27055Y-30050D01*
X27055Y-29999D01*
X27055Y-29749D01*
X27035Y-29701D01*
X26998Y-29664D01*
X26950Y-29645D01*
X26899Y-29645D01*
X26449Y-29645D01*
X26421Y-29656D01*
X26419Y-29654D01*
X26341Y-29622D01*
X26258Y-29622D01*
X26181Y-29654D01*
X26178Y-29656D01*
X26150Y-29645D01*
X26099Y-29645D01*
X25649Y-29645D01*
X25601Y-29664D01*
X25590Y-29675D01*
X25590Y-29562D01*
X25612Y-29541D01*
X27157Y-29541D01*
X27141Y-29579D01*
X27141Y-29678D01*
X27141Y-29752D01*
X27203Y-29815D01*
X27616Y-29815D01*
X27616Y-29807D01*
X27716Y-29807D01*
X27716Y-29815D01*
X27724Y-29815D01*
X27724Y-29915D01*
X27724Y-29915D01*
G37*
G54D37*
X27724Y-29915D02*
X27716Y-29915D01*
X27716Y-29923D01*
X27616Y-29923D01*
X27616Y-29915D01*
X27203Y-29915D01*
X27141Y-29977D01*
X27141Y-30051D01*
X27141Y-30083D01*
X27041Y-30083D01*
X27055Y-30050D01*
X27055Y-29999D01*
X27055Y-29749D01*
X27035Y-29701D01*
X26998Y-29664D01*
X26950Y-29645D01*
X26899Y-29645D01*
X26449Y-29645D01*
X26421Y-29656D01*
X26419Y-29654D01*
X26341Y-29622D01*
X26258Y-29622D01*
X26181Y-29654D01*
X26178Y-29656D01*
X26150Y-29645D01*
X26099Y-29645D01*
X25649Y-29645D01*
X25601Y-29664D01*
X25590Y-29675D01*
X25590Y-29562D01*
X25612Y-29541D01*
X27157Y-29541D01*
X27141Y-29579D01*
X27141Y-29678D01*
X27141Y-29752D01*
X27203Y-29815D01*
X27616Y-29815D01*
X27616Y-29807D01*
X27716Y-29807D01*
X27716Y-29815D01*
X27724Y-29815D01*
X27724Y-29915D01*
G54D10*
G36*
X29224Y-25050D02*
X28692Y-25583D01*
X28659Y-25632D01*
X28647Y-25690D01*
X28647Y-26645D01*
X28549Y-26645D01*
X28501Y-26664D01*
X28464Y-26701D01*
X28445Y-26749D01*
X28445Y-26800D01*
X28445Y-27047D01*
X28440Y-27047D01*
X28381Y-27059D01*
X28332Y-27092D01*
X27980Y-27444D01*
X27980Y-27099D01*
X27960Y-27051D01*
X27923Y-27014D01*
X27875Y-26995D01*
X27827Y-26995D01*
X27827Y-26862D01*
X27818Y-26815D01*
X27835Y-26798D01*
X27855Y-26750D01*
X27855Y-26699D01*
X27855Y-26249D01*
X27835Y-26201D01*
X27798Y-26164D01*
X27752Y-26145D01*
X27752Y-26054D01*
X27798Y-26035D01*
X27835Y-25998D01*
X27855Y-25950D01*
X27855Y-25899D01*
X27855Y-25834D01*
X27855Y-25834D01*
X27895Y-25807D01*
X28652Y-25050D01*
X29224Y-25050D01*
X29224Y-25050D01*
G37*
G54D37*
X29224Y-25050D02*
X28692Y-25583D01*
X28659Y-25632D01*
X28647Y-25690D01*
X28647Y-26645D01*
X28549Y-26645D01*
X28501Y-26664D01*
X28464Y-26701D01*
X28445Y-26749D01*
X28445Y-26800D01*
X28445Y-27047D01*
X28440Y-27047D01*
X28381Y-27059D01*
X28332Y-27092D01*
X27980Y-27444D01*
X27980Y-27099D01*
X27960Y-27051D01*
X27923Y-27014D01*
X27875Y-26995D01*
X27827Y-26995D01*
X27827Y-26862D01*
X27818Y-26815D01*
X27835Y-26798D01*
X27855Y-26750D01*
X27855Y-26699D01*
X27855Y-26249D01*
X27835Y-26201D01*
X27798Y-26164D01*
X27752Y-26145D01*
X27752Y-26054D01*
X27798Y-26035D01*
X27835Y-25998D01*
X27855Y-25950D01*
X27855Y-25899D01*
X27855Y-25834D01*
X27855Y-25834D01*
X27895Y-25807D01*
X28652Y-25050D01*
X29224Y-25050D01*
G54D10*
G36*
X29683Y-24719D02*
X29432Y-24719D01*
X29415Y-24726D01*
X29270Y-24726D01*
X29251Y-24745D01*
X28589Y-24745D01*
X28530Y-24757D01*
X28481Y-24790D01*
X27845Y-25426D01*
X27835Y-25401D01*
X27798Y-25364D01*
X27750Y-25345D01*
X27699Y-25345D01*
X27449Y-25345D01*
X27401Y-25364D01*
X27364Y-25401D01*
X27345Y-25449D01*
X27345Y-25500D01*
X27345Y-25950D01*
X27364Y-25998D01*
X27401Y-26035D01*
X27447Y-26054D01*
X27447Y-26145D01*
X27401Y-26164D01*
X27365Y-26201D01*
X27336Y-26133D01*
X27266Y-26063D01*
X27198Y-26034D01*
X27235Y-25998D01*
X27255Y-25950D01*
X27255Y-25899D01*
X27255Y-25449D01*
X27235Y-25401D01*
X27198Y-25364D01*
X27150Y-25345D01*
X27134Y-25345D01*
X27107Y-25304D01*
X26943Y-25140D01*
X27196Y-25140D01*
X27254Y-25128D01*
X27254Y-25128D01*
X27304Y-25095D01*
X27383Y-25016D01*
X27401Y-25035D01*
X27449Y-25055D01*
X27500Y-25055D01*
X27750Y-25055D01*
X27798Y-25035D01*
X27835Y-24998D01*
X27846Y-24972D01*
X27857Y-24983D01*
X27934Y-25015D01*
X28018Y-25015D01*
X28095Y-24983D01*
X28154Y-24924D01*
X28186Y-24847D01*
X28186Y-24764D01*
X28154Y-24686D01*
X28095Y-24627D01*
X28018Y-24595D01*
X27982Y-24595D01*
X27979Y-24592D01*
X27929Y-24559D01*
X27871Y-24547D01*
X27855Y-24547D01*
X27855Y-24449D01*
X27835Y-24401D01*
X27798Y-24364D01*
X27750Y-24345D01*
X27699Y-24345D01*
X27464Y-24345D01*
X27554Y-24255D01*
X27750Y-24255D01*
X27798Y-24235D01*
X27835Y-24198D01*
X27845Y-24173D01*
X28087Y-24415D01*
X28137Y-24448D01*
X28137Y-24448D01*
X28195Y-24460D01*
X29296Y-24460D01*
X29246Y-24510D01*
X29208Y-24602D01*
X29208Y-24614D01*
X29270Y-24676D01*
X29415Y-24676D01*
X29432Y-24683D01*
X29484Y-24683D01*
X29683Y-24683D01*
X29683Y-24719D01*
X29683Y-24719D01*
G37*
G54D37*
X29683Y-24719D02*
X29432Y-24719D01*
X29415Y-24726D01*
X29270Y-24726D01*
X29251Y-24745D01*
X28589Y-24745D01*
X28530Y-24757D01*
X28481Y-24790D01*
X27845Y-25426D01*
X27835Y-25401D01*
X27798Y-25364D01*
X27750Y-25345D01*
X27699Y-25345D01*
X27449Y-25345D01*
X27401Y-25364D01*
X27364Y-25401D01*
X27345Y-25449D01*
X27345Y-25500D01*
X27345Y-25950D01*
X27364Y-25998D01*
X27401Y-26035D01*
X27447Y-26054D01*
X27447Y-26145D01*
X27401Y-26164D01*
X27365Y-26201D01*
X27336Y-26133D01*
X27266Y-26063D01*
X27198Y-26034D01*
X27235Y-25998D01*
X27255Y-25950D01*
X27255Y-25899D01*
X27255Y-25449D01*
X27235Y-25401D01*
X27198Y-25364D01*
X27150Y-25345D01*
X27134Y-25345D01*
X27107Y-25304D01*
X26943Y-25140D01*
X27196Y-25140D01*
X27254Y-25128D01*
X27254Y-25128D01*
X27304Y-25095D01*
X27383Y-25016D01*
X27401Y-25035D01*
X27449Y-25055D01*
X27500Y-25055D01*
X27750Y-25055D01*
X27798Y-25035D01*
X27835Y-24998D01*
X27846Y-24972D01*
X27857Y-24983D01*
X27934Y-25015D01*
X28018Y-25015D01*
X28095Y-24983D01*
X28154Y-24924D01*
X28186Y-24847D01*
X28186Y-24764D01*
X28154Y-24686D01*
X28095Y-24627D01*
X28018Y-24595D01*
X27982Y-24595D01*
X27979Y-24592D01*
X27929Y-24559D01*
X27871Y-24547D01*
X27855Y-24547D01*
X27855Y-24449D01*
X27835Y-24401D01*
X27798Y-24364D01*
X27750Y-24345D01*
X27699Y-24345D01*
X27464Y-24345D01*
X27554Y-24255D01*
X27750Y-24255D01*
X27798Y-24235D01*
X27835Y-24198D01*
X27845Y-24173D01*
X28087Y-24415D01*
X28137Y-24448D01*
X28137Y-24448D01*
X28195Y-24460D01*
X29296Y-24460D01*
X29246Y-24510D01*
X29208Y-24602D01*
X29208Y-24614D01*
X29270Y-24676D01*
X29415Y-24676D01*
X29432Y-24683D01*
X29484Y-24683D01*
X29683Y-24683D01*
X29683Y-24719D01*
G54D10*
G36*
X29758Y-26206D02*
X29155Y-26810D01*
X29155Y-26749D01*
X29135Y-26701D01*
X29098Y-26664D01*
X29050Y-26645D01*
X28999Y-26645D01*
X28952Y-26645D01*
X28952Y-25754D01*
X29243Y-25463D01*
X29243Y-25610D01*
X29254Y-25669D01*
X29261Y-25679D01*
X29261Y-25728D01*
X29293Y-25805D01*
X29352Y-25864D01*
X29429Y-25896D01*
X29513Y-25896D01*
X29590Y-25864D01*
X29649Y-25805D01*
X29681Y-25728D01*
X29681Y-25668D01*
X29731Y-25668D01*
X29731Y-25967D01*
X29751Y-26015D01*
X29758Y-26022D01*
X29758Y-26206D01*
X29758Y-26206D01*
G37*
G54D37*
X29758Y-26206D02*
X29155Y-26810D01*
X29155Y-26749D01*
X29135Y-26701D01*
X29098Y-26664D01*
X29050Y-26645D01*
X28999Y-26645D01*
X28952Y-26645D01*
X28952Y-25754D01*
X29243Y-25463D01*
X29243Y-25610D01*
X29254Y-25669D01*
X29261Y-25679D01*
X29261Y-25728D01*
X29293Y-25805D01*
X29352Y-25864D01*
X29429Y-25896D01*
X29513Y-25896D01*
X29590Y-25864D01*
X29649Y-25805D01*
X29681Y-25728D01*
X29681Y-25668D01*
X29731Y-25668D01*
X29731Y-25967D01*
X29751Y-26015D01*
X29758Y-26022D01*
X29758Y-26206D01*
G54D10*
G36*
X30447Y-35745D02*
X30349Y-35745D01*
X30301Y-35764D01*
X30264Y-35801D01*
X30245Y-35849D01*
X30245Y-35900D01*
X30245Y-35920D01*
X30204Y-35879D01*
X30204Y-35671D01*
X30229Y-35645D01*
X30261Y-35568D01*
X30261Y-35485D01*
X30229Y-35407D01*
X30170Y-35348D01*
X30093Y-35316D01*
X30010Y-35316D01*
X29932Y-35348D01*
X29873Y-35407D01*
X29841Y-35484D01*
X29841Y-35568D01*
X29873Y-35645D01*
X29899Y-35671D01*
X29899Y-35943D01*
X29910Y-36001D01*
X29943Y-36050D01*
X30013Y-36120D01*
X29981Y-36120D01*
X29923Y-36131D01*
X29873Y-36164D01*
X29670Y-36368D01*
X28814Y-36368D01*
X28814Y-35541D01*
X28794Y-35493D01*
X28758Y-35456D01*
X28710Y-35437D01*
X28658Y-35437D01*
X28502Y-35437D01*
X28502Y-35235D01*
X28549Y-35255D01*
X28600Y-35255D01*
X28850Y-35255D01*
X28898Y-35235D01*
X28935Y-35198D01*
X28955Y-35150D01*
X28955Y-35099D01*
X28955Y-35034D01*
X28955Y-35034D01*
X28995Y-35007D01*
X29068Y-34935D01*
X29892Y-34935D01*
X29892Y-34966D01*
X29924Y-35044D01*
X29983Y-35103D01*
X30060Y-35135D01*
X30096Y-35135D01*
X30447Y-35485D01*
X30447Y-35745D01*
X30447Y-35745D01*
G37*
G54D37*
X30447Y-35745D02*
X30349Y-35745D01*
X30301Y-35764D01*
X30264Y-35801D01*
X30245Y-35849D01*
X30245Y-35900D01*
X30245Y-35920D01*
X30204Y-35879D01*
X30204Y-35671D01*
X30229Y-35645D01*
X30261Y-35568D01*
X30261Y-35485D01*
X30229Y-35407D01*
X30170Y-35348D01*
X30093Y-35316D01*
X30010Y-35316D01*
X29932Y-35348D01*
X29873Y-35407D01*
X29841Y-35484D01*
X29841Y-35568D01*
X29873Y-35645D01*
X29899Y-35671D01*
X29899Y-35943D01*
X29910Y-36001D01*
X29943Y-36050D01*
X30013Y-36120D01*
X29981Y-36120D01*
X29923Y-36131D01*
X29873Y-36164D01*
X29670Y-36368D01*
X28814Y-36368D01*
X28814Y-35541D01*
X28794Y-35493D01*
X28758Y-35456D01*
X28710Y-35437D01*
X28658Y-35437D01*
X28502Y-35437D01*
X28502Y-35235D01*
X28549Y-35255D01*
X28600Y-35255D01*
X28850Y-35255D01*
X28898Y-35235D01*
X28935Y-35198D01*
X28955Y-35150D01*
X28955Y-35099D01*
X28955Y-35034D01*
X28955Y-35034D01*
X28995Y-35007D01*
X29068Y-34935D01*
X29892Y-34935D01*
X29892Y-34966D01*
X29924Y-35044D01*
X29983Y-35103D01*
X30060Y-35135D01*
X30096Y-35135D01*
X30447Y-35485D01*
X30447Y-35745D01*
G54D10*
G36*
X30742Y-23528D02*
X30721Y-23528D01*
X30623Y-23528D01*
X30600Y-23537D01*
X30576Y-23528D01*
X30524Y-23528D01*
X30426Y-23528D01*
X30403Y-23537D01*
X30379Y-23528D01*
X30328Y-23528D01*
X30229Y-23528D01*
X30206Y-23537D01*
X30182Y-23528D01*
X30131Y-23528D01*
X30045Y-23528D01*
X30018Y-23487D01*
X29969Y-23454D01*
X29911Y-23443D01*
X28500Y-23443D01*
X28299Y-23242D01*
X28299Y-23206D01*
X28267Y-23128D01*
X28208Y-23069D01*
X28148Y-23044D01*
X27895Y-22792D01*
X27855Y-22765D01*
X27855Y-22765D01*
X27855Y-22649D01*
X27835Y-22601D01*
X27798Y-22564D01*
X27752Y-22545D01*
X27752Y-22454D01*
X27798Y-22435D01*
X27835Y-22398D01*
X27855Y-22350D01*
X27855Y-22299D01*
X27855Y-21941D01*
X29537Y-21941D01*
X30004Y-22407D01*
X30045Y-22434D01*
X30045Y-22550D01*
X30064Y-22598D01*
X30101Y-22635D01*
X30149Y-22655D01*
X30200Y-22655D01*
X30450Y-22655D01*
X30498Y-22635D01*
X30535Y-22598D01*
X30555Y-22550D01*
X30555Y-22510D01*
X30559Y-22510D01*
X30559Y-22923D01*
X30571Y-22982D01*
X30604Y-23031D01*
X30742Y-23169D01*
X30742Y-23528D01*
X30742Y-23528D01*
G37*
G54D37*
X30742Y-23528D02*
X30721Y-23528D01*
X30623Y-23528D01*
X30600Y-23537D01*
X30576Y-23528D01*
X30524Y-23528D01*
X30426Y-23528D01*
X30403Y-23537D01*
X30379Y-23528D01*
X30328Y-23528D01*
X30229Y-23528D01*
X30206Y-23537D01*
X30182Y-23528D01*
X30131Y-23528D01*
X30045Y-23528D01*
X30018Y-23487D01*
X29969Y-23454D01*
X29911Y-23443D01*
X28500Y-23443D01*
X28299Y-23242D01*
X28299Y-23206D01*
X28267Y-23128D01*
X28208Y-23069D01*
X28148Y-23044D01*
X27895Y-22792D01*
X27855Y-22765D01*
X27855Y-22765D01*
X27855Y-22649D01*
X27835Y-22601D01*
X27798Y-22564D01*
X27752Y-22545D01*
X27752Y-22454D01*
X27798Y-22435D01*
X27835Y-22398D01*
X27855Y-22350D01*
X27855Y-22299D01*
X27855Y-21941D01*
X29537Y-21941D01*
X30004Y-22407D01*
X30045Y-22434D01*
X30045Y-22550D01*
X30064Y-22598D01*
X30101Y-22635D01*
X30149Y-22655D01*
X30200Y-22655D01*
X30450Y-22655D01*
X30498Y-22635D01*
X30535Y-22598D01*
X30555Y-22550D01*
X30555Y-22510D01*
X30559Y-22510D01*
X30559Y-22923D01*
X30571Y-22982D01*
X30604Y-23031D01*
X30742Y-23169D01*
X30742Y-23528D01*
G54D10*
G36*
X31109Y-25832D02*
X31074Y-25832D01*
X31074Y-25716D01*
X31109Y-25716D01*
X31109Y-25832D01*
X31109Y-25832D01*
G37*
G54D37*
X31109Y-25832D02*
X31074Y-25832D01*
X31074Y-25716D01*
X31109Y-25716D01*
X31109Y-25832D01*
G54D10*
G36*
X31245Y-27541D02*
X29155Y-27541D01*
X29155Y-27349D01*
X29135Y-27301D01*
X29115Y-27281D01*
X30018Y-26377D01*
X30037Y-26350D01*
X31160Y-27473D01*
X31209Y-27506D01*
X31245Y-27513D01*
X31245Y-27541D01*
X31245Y-27541D01*
G37*
G54D37*
X31245Y-27541D02*
X29155Y-27541D01*
X29155Y-27349D01*
X29135Y-27301D01*
X29115Y-27281D01*
X30018Y-26377D01*
X30037Y-26350D01*
X31160Y-27473D01*
X31209Y-27506D01*
X31245Y-27513D01*
X31245Y-27541D01*
G54D10*
G36*
X31980Y-34356D02*
X31880Y-34356D01*
X31877Y-34353D01*
X31883Y-34347D01*
X31877Y-34341D01*
X31925Y-34292D01*
X31932Y-34308D01*
X31980Y-34356D01*
X31980Y-34356D01*
G37*
G54D37*
X31980Y-34356D02*
X31880Y-34356D01*
X31877Y-34353D01*
X31883Y-34347D01*
X31877Y-34341D01*
X31925Y-34292D01*
X31932Y-34308D01*
X31980Y-34356D01*
G54D10*
G36*
X33222Y-28903D02*
X29351Y-28903D01*
X29293Y-28915D01*
X29243Y-28948D01*
X28956Y-29236D01*
X28655Y-29236D01*
X28655Y-29199D01*
X28655Y-29134D01*
X28655Y-29134D01*
X28695Y-29107D01*
X28914Y-28889D01*
X28947Y-28839D01*
X28947Y-28839D01*
X28958Y-28781D01*
X28958Y-27846D01*
X31328Y-27846D01*
X31349Y-27855D01*
X31400Y-27855D01*
X31850Y-27855D01*
X31898Y-27835D01*
X31934Y-27798D01*
X31963Y-27866D01*
X32033Y-27936D01*
X32070Y-27952D01*
X32253Y-28135D01*
X32303Y-28168D01*
X32303Y-28168D01*
X32361Y-28180D01*
X32499Y-28180D01*
X33222Y-28903D01*
X33222Y-28903D01*
G37*
G54D37*
X33222Y-28903D02*
X29351Y-28903D01*
X29293Y-28915D01*
X29243Y-28948D01*
X28956Y-29236D01*
X28655Y-29236D01*
X28655Y-29199D01*
X28655Y-29134D01*
X28655Y-29134D01*
X28695Y-29107D01*
X28914Y-28889D01*
X28947Y-28839D01*
X28947Y-28839D01*
X28958Y-28781D01*
X28958Y-27846D01*
X31328Y-27846D01*
X31349Y-27855D01*
X31400Y-27855D01*
X31850Y-27855D01*
X31898Y-27835D01*
X31934Y-27798D01*
X31963Y-27866D01*
X32033Y-27936D01*
X32070Y-27952D01*
X32253Y-28135D01*
X32303Y-28168D01*
X32303Y-28168D01*
X32361Y-28180D01*
X32499Y-28180D01*
X33222Y-28903D01*
G54D10*
G36*
X33266Y-31169D02*
X33229Y-31206D01*
X33139Y-31206D01*
X33136Y-31203D01*
X33143Y-31197D01*
X33136Y-31191D01*
X33206Y-31121D01*
X33212Y-31128D01*
X33218Y-31121D01*
X33266Y-31169D01*
X33266Y-31169D01*
G37*
G54D37*
X33266Y-31169D02*
X33229Y-31206D01*
X33139Y-31206D01*
X33136Y-31203D01*
X33143Y-31197D01*
X33136Y-31191D01*
X33206Y-31121D01*
X33212Y-31128D01*
X33218Y-31121D01*
X33266Y-31169D01*
G54D10*
G36*
X33423Y-22945D02*
X33349Y-22945D01*
X33301Y-22964D01*
X33264Y-23001D01*
X33245Y-23049D01*
X33245Y-23089D01*
X33209Y-23089D01*
X33132Y-23121D01*
X33106Y-23147D01*
X32615Y-23147D01*
X32557Y-23159D01*
X32507Y-23192D01*
X31767Y-23931D01*
X31767Y-23931D01*
X31715Y-23931D01*
X31468Y-23931D01*
X31468Y-23632D01*
X31448Y-23584D01*
X31443Y-23580D01*
X31445Y-23576D01*
X31445Y-23493D01*
X31413Y-23416D01*
X31354Y-23357D01*
X31277Y-23324D01*
X31244Y-23324D01*
X31244Y-22870D01*
X31240Y-22847D01*
X31240Y-22300D01*
X31228Y-22241D01*
X31195Y-22192D01*
X31155Y-22165D01*
X31155Y-22138D01*
X33245Y-22138D01*
X33245Y-22165D01*
X33204Y-22192D01*
X33190Y-22213D01*
X33134Y-22236D01*
X33075Y-22295D01*
X33043Y-22372D01*
X33043Y-22455D01*
X33075Y-22533D01*
X33130Y-22588D01*
X33130Y-22589D01*
X33141Y-22647D01*
X33174Y-22696D01*
X33423Y-22945D01*
X33423Y-22945D01*
G37*
G54D37*
X33423Y-22945D02*
X33349Y-22945D01*
X33301Y-22964D01*
X33264Y-23001D01*
X33245Y-23049D01*
X33245Y-23089D01*
X33209Y-23089D01*
X33132Y-23121D01*
X33106Y-23147D01*
X32615Y-23147D01*
X32557Y-23159D01*
X32507Y-23192D01*
X31767Y-23931D01*
X31767Y-23931D01*
X31715Y-23931D01*
X31468Y-23931D01*
X31468Y-23632D01*
X31448Y-23584D01*
X31443Y-23580D01*
X31445Y-23576D01*
X31445Y-23493D01*
X31413Y-23416D01*
X31354Y-23357D01*
X31277Y-23324D01*
X31244Y-23324D01*
X31244Y-22870D01*
X31240Y-22847D01*
X31240Y-22300D01*
X31228Y-22241D01*
X31195Y-22192D01*
X31155Y-22165D01*
X31155Y-22138D01*
X33245Y-22138D01*
X33245Y-22165D01*
X33204Y-22192D01*
X33190Y-22213D01*
X33134Y-22236D01*
X33075Y-22295D01*
X33043Y-22372D01*
X33043Y-22455D01*
X33075Y-22533D01*
X33130Y-22588D01*
X33130Y-22589D01*
X33141Y-22647D01*
X33174Y-22696D01*
X33423Y-22945D01*
G54D10*
G36*
X33547Y-29731D02*
X32636Y-29731D01*
X32578Y-29742D01*
X32529Y-29775D01*
X32280Y-30024D01*
X32222Y-30024D01*
X32138Y-30058D01*
X32122Y-30075D01*
X32122Y-30013D01*
X32119Y-29939D01*
X31987Y-29899D01*
X31849Y-29912D01*
X31785Y-29939D01*
X31783Y-30013D01*
X31952Y-30183D01*
X32122Y-30013D01*
X32122Y-30075D01*
X32074Y-30123D01*
X32039Y-30207D01*
X32039Y-30212D01*
X31991Y-30232D01*
X31932Y-30291D01*
X31925Y-30307D01*
X31877Y-30258D01*
X31883Y-30252D01*
X31818Y-30187D01*
X31800Y-30144D01*
X31741Y-30085D01*
X31663Y-30053D01*
X31627Y-30053D01*
X31558Y-29984D01*
X31509Y-29951D01*
X31451Y-29939D01*
X31352Y-29939D01*
X31327Y-29914D01*
X31249Y-29882D01*
X31166Y-29881D01*
X31089Y-29913D01*
X31030Y-29972D01*
X30998Y-30050D01*
X30997Y-30133D01*
X31029Y-30210D01*
X31088Y-30269D01*
X31166Y-30301D01*
X31249Y-30302D01*
X31326Y-30270D01*
X31352Y-30244D01*
X31387Y-30244D01*
X31411Y-30268D01*
X31411Y-30304D01*
X31425Y-30337D01*
X31362Y-30337D01*
X31304Y-30349D01*
X31254Y-30382D01*
X31055Y-30581D01*
X31022Y-30630D01*
X31019Y-30647D01*
X31019Y-30647D01*
X29672Y-30647D01*
X29614Y-30658D01*
X29581Y-30680D01*
X28938Y-30680D01*
X28938Y-30272D01*
X28918Y-30224D01*
X28894Y-30200D01*
X28918Y-30175D01*
X28938Y-30127D01*
X28938Y-30075D01*
X28938Y-29603D01*
X28918Y-29555D01*
X28904Y-29541D01*
X29019Y-29541D01*
X29077Y-29529D01*
X29077Y-29529D01*
X29127Y-29496D01*
X29414Y-29208D01*
X30875Y-29208D01*
X30875Y-29251D01*
X30907Y-29328D01*
X30966Y-29387D01*
X31043Y-29419D01*
X31126Y-29419D01*
X31204Y-29388D01*
X31229Y-29362D01*
X33178Y-29362D01*
X33547Y-29731D01*
X33547Y-29731D01*
G37*
G54D37*
X33547Y-29731D02*
X32636Y-29731D01*
X32578Y-29742D01*
X32529Y-29775D01*
X32280Y-30024D01*
X32222Y-30024D01*
X32138Y-30058D01*
X32122Y-30075D01*
X32122Y-30013D01*
X32119Y-29939D01*
X31987Y-29899D01*
X31849Y-29912D01*
X31785Y-29939D01*
X31783Y-30013D01*
X31952Y-30183D01*
X32122Y-30013D01*
X32122Y-30075D01*
X32074Y-30123D01*
X32039Y-30207D01*
X32039Y-30212D01*
X31991Y-30232D01*
X31932Y-30291D01*
X31925Y-30307D01*
X31877Y-30258D01*
X31883Y-30252D01*
X31818Y-30187D01*
X31800Y-30144D01*
X31741Y-30085D01*
X31663Y-30053D01*
X31627Y-30053D01*
X31558Y-29984D01*
X31509Y-29951D01*
X31451Y-29939D01*
X31352Y-29939D01*
X31327Y-29914D01*
X31249Y-29882D01*
X31166Y-29881D01*
X31089Y-29913D01*
X31030Y-29972D01*
X30998Y-30050D01*
X30997Y-30133D01*
X31029Y-30210D01*
X31088Y-30269D01*
X31166Y-30301D01*
X31249Y-30302D01*
X31326Y-30270D01*
X31352Y-30244D01*
X31387Y-30244D01*
X31411Y-30268D01*
X31411Y-30304D01*
X31425Y-30337D01*
X31362Y-30337D01*
X31304Y-30349D01*
X31254Y-30382D01*
X31055Y-30581D01*
X31022Y-30630D01*
X31019Y-30647D01*
X31019Y-30647D01*
X29672Y-30647D01*
X29614Y-30658D01*
X29581Y-30680D01*
X28938Y-30680D01*
X28938Y-30272D01*
X28918Y-30224D01*
X28894Y-30200D01*
X28918Y-30175D01*
X28938Y-30127D01*
X28938Y-30075D01*
X28938Y-29603D01*
X28918Y-29555D01*
X28904Y-29541D01*
X29019Y-29541D01*
X29077Y-29529D01*
X29077Y-29529D01*
X29127Y-29496D01*
X29414Y-29208D01*
X30875Y-29208D01*
X30875Y-29251D01*
X30907Y-29328D01*
X30966Y-29387D01*
X31043Y-29419D01*
X31126Y-29419D01*
X31204Y-29388D01*
X31229Y-29362D01*
X33178Y-29362D01*
X33547Y-29731D01*
G54D10*
G36*
X34322Y-33544D02*
X34314Y-33551D01*
X34287Y-33523D01*
X34203Y-33488D01*
X34112Y-33488D01*
X34028Y-33523D01*
X34011Y-33540D01*
X34011Y-33478D01*
X34009Y-33403D01*
X33876Y-33363D01*
X33738Y-33377D01*
X33675Y-33403D01*
X33673Y-33478D01*
X33842Y-33647D01*
X34011Y-33478D01*
X34011Y-33540D01*
X33963Y-33587D01*
X33929Y-33671D01*
X33929Y-33678D01*
X33882Y-33697D01*
X33823Y-33756D01*
X33816Y-33773D01*
X33766Y-33723D01*
X33772Y-33717D01*
X33755Y-33700D01*
X33756Y-33672D01*
X33721Y-33588D01*
X33657Y-33523D01*
X33573Y-33488D01*
X33566Y-33488D01*
X33557Y-33466D01*
X33566Y-33436D01*
X33552Y-33298D01*
X33526Y-33235D01*
X33451Y-33233D01*
X33336Y-33347D01*
X33326Y-33347D01*
X33249Y-33379D01*
X33211Y-33417D01*
X33173Y-33378D01*
X33160Y-33372D01*
X33206Y-33326D01*
X33212Y-33332D01*
X33381Y-33163D01*
X33379Y-33088D01*
X33246Y-33048D01*
X33243Y-33049D01*
X33237Y-32983D01*
X33224Y-32953D01*
X33224Y-31827D01*
X33374Y-31976D01*
X33423Y-32009D01*
X33423Y-32009D01*
X33482Y-32021D01*
X34322Y-32021D01*
X34322Y-32068D01*
X34322Y-32805D01*
X34322Y-33544D01*
X34322Y-33544D01*
G37*
G54D37*
X34322Y-33544D02*
X34314Y-33551D01*
X34287Y-33523D01*
X34203Y-33488D01*
X34112Y-33488D01*
X34028Y-33523D01*
X34011Y-33540D01*
X34011Y-33478D01*
X34009Y-33403D01*
X33876Y-33363D01*
X33738Y-33377D01*
X33675Y-33403D01*
X33673Y-33478D01*
X33842Y-33647D01*
X34011Y-33478D01*
X34011Y-33540D01*
X33963Y-33587D01*
X33929Y-33671D01*
X33929Y-33678D01*
X33882Y-33697D01*
X33823Y-33756D01*
X33816Y-33773D01*
X33766Y-33723D01*
X33772Y-33717D01*
X33755Y-33700D01*
X33756Y-33672D01*
X33721Y-33588D01*
X33657Y-33523D01*
X33573Y-33488D01*
X33566Y-33488D01*
X33557Y-33466D01*
X33566Y-33436D01*
X33552Y-33298D01*
X33526Y-33235D01*
X33451Y-33233D01*
X33336Y-33347D01*
X33326Y-33347D01*
X33249Y-33379D01*
X33211Y-33417D01*
X33173Y-33378D01*
X33160Y-33372D01*
X33206Y-33326D01*
X33212Y-33332D01*
X33381Y-33163D01*
X33379Y-33088D01*
X33246Y-33048D01*
X33243Y-33049D01*
X33237Y-32983D01*
X33224Y-32953D01*
X33224Y-31827D01*
X33374Y-31976D01*
X33423Y-32009D01*
X33423Y-32009D01*
X33482Y-32021D01*
X34322Y-32021D01*
X34322Y-32068D01*
X34322Y-32805D01*
X34322Y-33544D01*
G54D10*
G36*
X34863Y-31203D02*
X34793Y-31273D01*
X34787Y-31267D01*
X34618Y-31436D01*
X34618Y-31445D01*
X34570Y-31445D01*
X34492Y-31477D01*
X34467Y-31503D01*
X34326Y-31503D01*
X34122Y-31503D01*
X33830Y-31211D01*
X33860Y-31181D01*
X33889Y-31110D01*
X33971Y-31076D01*
X34036Y-31012D01*
X34070Y-30928D01*
X34070Y-30899D01*
X34087Y-30882D01*
X34081Y-30876D01*
X34151Y-30806D01*
X34157Y-30813D01*
X34163Y-30806D01*
X34233Y-30876D01*
X34227Y-30882D01*
X34233Y-30888D01*
X34163Y-30958D01*
X34157Y-30952D01*
X33988Y-31121D01*
X33990Y-31196D01*
X34123Y-31236D01*
X34261Y-31222D01*
X34324Y-31196D01*
X34326Y-31122D01*
X34326Y-31122D01*
X34342Y-31138D01*
X34342Y-31152D01*
X34374Y-31229D01*
X34433Y-31288D01*
X34446Y-31294D01*
X34447Y-31301D01*
X34473Y-31364D01*
X34548Y-31366D01*
X34594Y-31320D01*
X34671Y-31289D01*
X34730Y-31230D01*
X34762Y-31152D01*
X34762Y-31140D01*
X34781Y-31121D01*
X34787Y-31128D01*
X34793Y-31121D01*
X34863Y-31191D01*
X34856Y-31197D01*
X34863Y-31203D01*
X34863Y-31203D01*
G37*
G54D37*
X34863Y-31203D02*
X34793Y-31273D01*
X34787Y-31267D01*
X34618Y-31436D01*
X34618Y-31445D01*
X34570Y-31445D01*
X34492Y-31477D01*
X34467Y-31503D01*
X34326Y-31503D01*
X34122Y-31503D01*
X33830Y-31211D01*
X33860Y-31181D01*
X33889Y-31110D01*
X33971Y-31076D01*
X34036Y-31012D01*
X34070Y-30928D01*
X34070Y-30899D01*
X34087Y-30882D01*
X34081Y-30876D01*
X34151Y-30806D01*
X34157Y-30813D01*
X34163Y-30806D01*
X34233Y-30876D01*
X34227Y-30882D01*
X34233Y-30888D01*
X34163Y-30958D01*
X34157Y-30952D01*
X33988Y-31121D01*
X33990Y-31196D01*
X34123Y-31236D01*
X34261Y-31222D01*
X34324Y-31196D01*
X34326Y-31122D01*
X34326Y-31122D01*
X34342Y-31138D01*
X34342Y-31152D01*
X34374Y-31229D01*
X34433Y-31288D01*
X34446Y-31294D01*
X34447Y-31301D01*
X34473Y-31364D01*
X34548Y-31366D01*
X34594Y-31320D01*
X34671Y-31289D01*
X34730Y-31230D01*
X34762Y-31152D01*
X34762Y-31140D01*
X34781Y-31121D01*
X34787Y-31128D01*
X34793Y-31121D01*
X34863Y-31191D01*
X34856Y-31197D01*
X34863Y-31203D01*
G54D10*
G36*
X35493Y-32148D02*
X35423Y-32218D01*
X35417Y-32212D01*
X35411Y-32218D01*
X35341Y-32148D01*
X35347Y-32142D01*
X35341Y-32136D01*
X35411Y-32066D01*
X35417Y-32072D01*
X35423Y-32066D01*
X35493Y-32136D01*
X35486Y-32142D01*
X35493Y-32148D01*
X35493Y-32148D01*
G37*
G54D37*
X35493Y-32148D02*
X35423Y-32218D01*
X35417Y-32212D01*
X35411Y-32218D01*
X35341Y-32148D01*
X35347Y-32142D01*
X35341Y-32136D01*
X35411Y-32066D01*
X35417Y-32072D01*
X35423Y-32066D01*
X35493Y-32136D01*
X35486Y-32142D01*
X35493Y-32148D01*
G54D10*
G36*
X39795Y-37795D02*
X39604Y-37795D01*
X39604Y-20675D01*
X39000Y-20070D01*
X38929Y-20141D01*
X38929Y-20000D01*
X38324Y-19395D01*
X38188Y-19471D01*
X38047Y-19822D01*
X38052Y-20200D01*
X38188Y-20528D01*
X38324Y-20604D01*
X38929Y-20000D01*
X38929Y-20141D01*
X38395Y-20675D01*
X38471Y-20811D01*
X38822Y-20952D01*
X39200Y-20947D01*
X39528Y-20811D01*
X39604Y-20675D01*
X39604Y-37795D01*
X39500Y-37795D01*
X39212Y-37795D01*
X39212Y-23207D01*
X39148Y-23051D01*
X39028Y-22931D01*
X38872Y-22866D01*
X38703Y-22866D01*
X38546Y-22931D01*
X38427Y-23050D01*
X38390Y-23139D01*
X37398Y-23139D01*
X37364Y-23056D01*
X37243Y-22935D01*
X37085Y-22870D01*
X36914Y-22869D01*
X36756Y-22935D01*
X36635Y-23056D01*
X36597Y-23147D01*
X34355Y-23147D01*
X34355Y-23049D01*
X34335Y-23001D01*
X34298Y-22964D01*
X34250Y-22945D01*
X34199Y-22945D01*
X33949Y-22945D01*
X33901Y-22964D01*
X33864Y-23001D01*
X33861Y-23010D01*
X33850Y-22957D01*
X33850Y-22957D01*
X33817Y-22908D01*
X33564Y-22655D01*
X33650Y-22655D01*
X33698Y-22635D01*
X33735Y-22598D01*
X33755Y-22550D01*
X33755Y-22499D01*
X33755Y-22138D01*
X33845Y-22138D01*
X33845Y-22550D01*
X33864Y-22598D01*
X33901Y-22635D01*
X33949Y-22655D01*
X34000Y-22655D01*
X34250Y-22655D01*
X34298Y-22635D01*
X34335Y-22598D01*
X34355Y-22550D01*
X34355Y-22499D01*
X34355Y-22452D01*
X36570Y-22452D01*
X36570Y-22625D01*
X36589Y-22673D01*
X36626Y-22710D01*
X36674Y-22730D01*
X36725Y-22730D01*
X37325Y-22730D01*
X37373Y-22710D01*
X37410Y-22673D01*
X37430Y-22625D01*
X37430Y-22574D01*
X37430Y-22460D01*
X38390Y-22460D01*
X38426Y-22548D01*
X38546Y-22668D01*
X38702Y-22733D01*
X38871Y-22733D01*
X39027Y-22668D01*
X39147Y-22549D01*
X39212Y-22392D01*
X39212Y-22223D01*
X39148Y-22067D01*
X39028Y-21947D01*
X38872Y-21882D01*
X38703Y-21882D01*
X38546Y-21947D01*
X38443Y-22049D01*
X38443Y-20912D01*
X38376Y-20748D01*
X38251Y-20624D01*
X38088Y-20556D01*
X37912Y-20556D01*
X37748Y-20623D01*
X37624Y-20748D01*
X37556Y-20911D01*
X37556Y-21087D01*
X37623Y-21251D01*
X37748Y-21375D01*
X37911Y-21443D01*
X38087Y-21443D01*
X38251Y-21376D01*
X38375Y-21251D01*
X38443Y-21088D01*
X38443Y-20912D01*
X38443Y-22049D01*
X38427Y-22066D01*
X38390Y-22155D01*
X37430Y-22155D01*
X37430Y-21974D01*
X37410Y-21926D01*
X37373Y-21889D01*
X37325Y-21870D01*
X37274Y-21870D01*
X36674Y-21870D01*
X36626Y-21889D01*
X36589Y-21926D01*
X36570Y-21974D01*
X36570Y-22025D01*
X36570Y-22147D01*
X36425Y-22147D01*
X36425Y-20915D01*
X36425Y-19915D01*
X36360Y-19759D01*
X36241Y-19639D01*
X36085Y-19574D01*
X35915Y-19574D01*
X35759Y-19639D01*
X35639Y-19758D01*
X35574Y-19914D01*
X35574Y-20084D01*
X35639Y-20240D01*
X35758Y-20360D01*
X35914Y-20425D01*
X36084Y-20425D01*
X36240Y-20360D01*
X36360Y-20241D01*
X36425Y-20085D01*
X36425Y-19915D01*
X36425Y-20915D01*
X36360Y-20759D01*
X36241Y-20639D01*
X36085Y-20574D01*
X35915Y-20574D01*
X35759Y-20639D01*
X35639Y-20758D01*
X35574Y-20914D01*
X35574Y-21084D01*
X35639Y-21240D01*
X35758Y-21360D01*
X35914Y-21425D01*
X36084Y-21425D01*
X36240Y-21360D01*
X36360Y-21241D01*
X36425Y-21085D01*
X36425Y-20915D01*
X36425Y-22147D01*
X35425Y-22147D01*
X35425Y-20915D01*
X35425Y-19915D01*
X35360Y-19759D01*
X35241Y-19639D01*
X35085Y-19574D01*
X34915Y-19574D01*
X34759Y-19639D01*
X34639Y-19758D01*
X34574Y-19914D01*
X34574Y-20084D01*
X34639Y-20240D01*
X34758Y-20360D01*
X34914Y-20425D01*
X35084Y-20425D01*
X35240Y-20360D01*
X35360Y-20241D01*
X35425Y-20085D01*
X35425Y-19915D01*
X35425Y-20915D01*
X35360Y-20759D01*
X35241Y-20639D01*
X35085Y-20574D01*
X34915Y-20574D01*
X34759Y-20639D01*
X34639Y-20758D01*
X34574Y-20914D01*
X34574Y-21084D01*
X34639Y-21240D01*
X34758Y-21360D01*
X34914Y-21425D01*
X35084Y-21425D01*
X35240Y-21360D01*
X35360Y-21241D01*
X35425Y-21085D01*
X35425Y-20915D01*
X35425Y-22147D01*
X34921Y-22147D01*
X34963Y-22105D01*
X34996Y-22028D01*
X34996Y-21944D01*
X34964Y-21867D01*
X34905Y-21808D01*
X34828Y-21776D01*
X34744Y-21776D01*
X34667Y-21807D01*
X34641Y-21833D01*
X34425Y-21833D01*
X34425Y-20915D01*
X34425Y-19915D01*
X34360Y-19759D01*
X34241Y-19639D01*
X34085Y-19574D01*
X33915Y-19574D01*
X33759Y-19639D01*
X33639Y-19758D01*
X33574Y-19914D01*
X33574Y-20084D01*
X33639Y-20240D01*
X33758Y-20360D01*
X33914Y-20425D01*
X34084Y-20425D01*
X34240Y-20360D01*
X34360Y-20241D01*
X34425Y-20085D01*
X34425Y-19915D01*
X34425Y-20915D01*
X34360Y-20759D01*
X34241Y-20639D01*
X34085Y-20574D01*
X33915Y-20574D01*
X33759Y-20639D01*
X33639Y-20758D01*
X33574Y-20914D01*
X33574Y-21084D01*
X33639Y-21240D01*
X33758Y-21360D01*
X33914Y-21425D01*
X34084Y-21425D01*
X34240Y-21360D01*
X34360Y-21241D01*
X34425Y-21085D01*
X34425Y-20915D01*
X34425Y-21833D01*
X33425Y-21833D01*
X33425Y-20915D01*
X33425Y-19915D01*
X33360Y-19759D01*
X33241Y-19639D01*
X33085Y-19574D01*
X32915Y-19574D01*
X32759Y-19639D01*
X32639Y-19758D01*
X32574Y-19914D01*
X32574Y-20084D01*
X32639Y-20240D01*
X32758Y-20360D01*
X32914Y-20425D01*
X33084Y-20425D01*
X33240Y-20360D01*
X33360Y-20241D01*
X33425Y-20085D01*
X33425Y-19915D01*
X33425Y-20915D01*
X33360Y-20759D01*
X33241Y-20639D01*
X33085Y-20574D01*
X32915Y-20574D01*
X32759Y-20639D01*
X32639Y-20758D01*
X32574Y-20914D01*
X32574Y-21084D01*
X32639Y-21240D01*
X32758Y-21360D01*
X32914Y-21425D01*
X33084Y-21425D01*
X33240Y-21360D01*
X33360Y-21241D01*
X33425Y-21085D01*
X33425Y-20915D01*
X33425Y-21833D01*
X32425Y-21833D01*
X32425Y-20915D01*
X32425Y-19915D01*
X32360Y-19759D01*
X32241Y-19639D01*
X32085Y-19574D01*
X31915Y-19574D01*
X31759Y-19639D01*
X31639Y-19758D01*
X31574Y-19914D01*
X31574Y-20084D01*
X31639Y-20240D01*
X31758Y-20360D01*
X31914Y-20425D01*
X32084Y-20425D01*
X32240Y-20360D01*
X32360Y-20241D01*
X32425Y-20085D01*
X32425Y-19915D01*
X32425Y-20915D01*
X32360Y-20759D01*
X32241Y-20639D01*
X32085Y-20574D01*
X31915Y-20574D01*
X31759Y-20639D01*
X31639Y-20758D01*
X31574Y-20914D01*
X31574Y-21084D01*
X31639Y-21240D01*
X31758Y-21360D01*
X31914Y-21425D01*
X32084Y-21425D01*
X32240Y-21360D01*
X32360Y-21241D01*
X32425Y-21085D01*
X32425Y-20915D01*
X32425Y-21833D01*
X31425Y-21833D01*
X31425Y-20915D01*
X31425Y-19915D01*
X31360Y-19759D01*
X31241Y-19639D01*
X31085Y-19574D01*
X30915Y-19574D01*
X30759Y-19639D01*
X30639Y-19758D01*
X30574Y-19914D01*
X30574Y-20084D01*
X30639Y-20240D01*
X30758Y-20360D01*
X30914Y-20425D01*
X31084Y-20425D01*
X31240Y-20360D01*
X31360Y-20241D01*
X31425Y-20085D01*
X31425Y-19915D01*
X31425Y-20915D01*
X31360Y-20759D01*
X31241Y-20639D01*
X31085Y-20574D01*
X30915Y-20574D01*
X30759Y-20639D01*
X30639Y-20758D01*
X30574Y-20914D01*
X30574Y-21084D01*
X30639Y-21240D01*
X30758Y-21360D01*
X30914Y-21425D01*
X31084Y-21425D01*
X31240Y-21360D01*
X31360Y-21241D01*
X31425Y-21085D01*
X31425Y-20915D01*
X31425Y-21833D01*
X30742Y-21833D01*
X30684Y-21845D01*
X30634Y-21878D01*
X30604Y-21908D01*
X30571Y-21958D01*
X30559Y-22016D01*
X30559Y-22090D01*
X30555Y-22090D01*
X30555Y-22049D01*
X30535Y-22001D01*
X30498Y-21964D01*
X30450Y-21945D01*
X30425Y-21945D01*
X30425Y-20915D01*
X30425Y-19915D01*
X30360Y-19759D01*
X30241Y-19639D01*
X30085Y-19574D01*
X29915Y-19574D01*
X29759Y-19639D01*
X29639Y-19758D01*
X29574Y-19914D01*
X29574Y-20084D01*
X29639Y-20240D01*
X29758Y-20360D01*
X29914Y-20425D01*
X30084Y-20425D01*
X30240Y-20360D01*
X30360Y-20241D01*
X30425Y-20085D01*
X30425Y-19915D01*
X30425Y-20915D01*
X30360Y-20759D01*
X30241Y-20639D01*
X30085Y-20574D01*
X29915Y-20574D01*
X29759Y-20639D01*
X29639Y-20758D01*
X29574Y-20914D01*
X29574Y-21084D01*
X29639Y-21240D01*
X29758Y-21360D01*
X29914Y-21425D01*
X30084Y-21425D01*
X30240Y-21360D01*
X30360Y-21241D01*
X30425Y-21085D01*
X30425Y-20915D01*
X30425Y-21945D01*
X30399Y-21945D01*
X30149Y-21945D01*
X30101Y-21964D01*
X30064Y-22001D01*
X30054Y-22026D01*
X29708Y-21680D01*
X29659Y-21647D01*
X29601Y-21636D01*
X29425Y-21636D01*
X29425Y-20915D01*
X29425Y-19915D01*
X29360Y-19759D01*
X29241Y-19639D01*
X29085Y-19574D01*
X28915Y-19574D01*
X28759Y-19639D01*
X28639Y-19758D01*
X28574Y-19914D01*
X28574Y-20084D01*
X28639Y-20240D01*
X28758Y-20360D01*
X28914Y-20425D01*
X29084Y-20425D01*
X29240Y-20360D01*
X29360Y-20241D01*
X29425Y-20085D01*
X29425Y-19915D01*
X29425Y-20915D01*
X29360Y-20759D01*
X29241Y-20639D01*
X29085Y-20574D01*
X28915Y-20574D01*
X28759Y-20639D01*
X28639Y-20758D01*
X28574Y-20914D01*
X28574Y-21084D01*
X28639Y-21240D01*
X28758Y-21360D01*
X28914Y-21425D01*
X29084Y-21425D01*
X29240Y-21360D01*
X29360Y-21241D01*
X29425Y-21085D01*
X29425Y-20915D01*
X29425Y-21636D01*
X28425Y-21636D01*
X28425Y-20915D01*
X28425Y-19915D01*
X28360Y-19759D01*
X28241Y-19639D01*
X28085Y-19574D01*
X27915Y-19574D01*
X27759Y-19639D01*
X27639Y-19758D01*
X27574Y-19914D01*
X27574Y-20084D01*
X27639Y-20240D01*
X27758Y-20360D01*
X27914Y-20425D01*
X28084Y-20425D01*
X28240Y-20360D01*
X28360Y-20241D01*
X28425Y-20085D01*
X28425Y-19915D01*
X28425Y-20915D01*
X28360Y-20759D01*
X28241Y-20639D01*
X28085Y-20574D01*
X27915Y-20574D01*
X27759Y-20639D01*
X27639Y-20758D01*
X27574Y-20914D01*
X27574Y-21084D01*
X27639Y-21240D01*
X27758Y-21360D01*
X27914Y-21425D01*
X28084Y-21425D01*
X28240Y-21360D01*
X28360Y-21241D01*
X28425Y-21085D01*
X28425Y-20915D01*
X28425Y-21636D01*
X27425Y-21636D01*
X27425Y-20915D01*
X27425Y-19915D01*
X27360Y-19759D01*
X27241Y-19639D01*
X27085Y-19574D01*
X26915Y-19574D01*
X26759Y-19639D01*
X26639Y-19758D01*
X26574Y-19914D01*
X26574Y-20084D01*
X26639Y-20240D01*
X26758Y-20360D01*
X26914Y-20425D01*
X27084Y-20425D01*
X27240Y-20360D01*
X27360Y-20241D01*
X27425Y-20085D01*
X27425Y-19915D01*
X27425Y-20915D01*
X27360Y-20759D01*
X27241Y-20639D01*
X27085Y-20574D01*
X26915Y-20574D01*
X26759Y-20639D01*
X26639Y-20758D01*
X26574Y-20914D01*
X26574Y-21084D01*
X26639Y-21240D01*
X26758Y-21360D01*
X26914Y-21425D01*
X27084Y-21425D01*
X27240Y-21360D01*
X27360Y-21241D01*
X27425Y-21085D01*
X27425Y-20915D01*
X27425Y-21636D01*
X27418Y-21636D01*
X27359Y-21647D01*
X27310Y-21680D01*
X27250Y-21741D01*
X27220Y-21786D01*
X27198Y-21764D01*
X27150Y-21745D01*
X27099Y-21745D01*
X26849Y-21745D01*
X26801Y-21764D01*
X26764Y-21801D01*
X26745Y-21849D01*
X26745Y-21900D01*
X26745Y-21947D01*
X26425Y-21947D01*
X26425Y-20915D01*
X26425Y-19915D01*
X26360Y-19759D01*
X26241Y-19639D01*
X26085Y-19574D01*
X25915Y-19574D01*
X25759Y-19639D01*
X25639Y-19758D01*
X25574Y-19914D01*
X25574Y-20084D01*
X25639Y-20240D01*
X25758Y-20360D01*
X25914Y-20425D01*
X26084Y-20425D01*
X26240Y-20360D01*
X26360Y-20241D01*
X26425Y-20085D01*
X26425Y-19915D01*
X26425Y-20915D01*
X26360Y-20759D01*
X26241Y-20639D01*
X26085Y-20574D01*
X25915Y-20574D01*
X25759Y-20639D01*
X25639Y-20758D01*
X25574Y-20914D01*
X25574Y-21084D01*
X25639Y-21240D01*
X25758Y-21360D01*
X25914Y-21425D01*
X26084Y-21425D01*
X26240Y-21360D01*
X26360Y-21241D01*
X26425Y-21085D01*
X26425Y-20915D01*
X26425Y-21947D01*
X25425Y-21947D01*
X25425Y-20915D01*
X25425Y-19915D01*
X25360Y-19759D01*
X25241Y-19639D01*
X25085Y-19574D01*
X24915Y-19574D01*
X24759Y-19639D01*
X24639Y-19758D01*
X24574Y-19914D01*
X24574Y-20084D01*
X24639Y-20240D01*
X24758Y-20360D01*
X24914Y-20425D01*
X25084Y-20425D01*
X25240Y-20360D01*
X25360Y-20241D01*
X25425Y-20085D01*
X25425Y-19915D01*
X25425Y-20915D01*
X25360Y-20759D01*
X25241Y-20639D01*
X25085Y-20574D01*
X24915Y-20574D01*
X24759Y-20639D01*
X24639Y-20758D01*
X24574Y-20914D01*
X24574Y-21084D01*
X24639Y-21240D01*
X24758Y-21360D01*
X24914Y-21425D01*
X25084Y-21425D01*
X25240Y-21360D01*
X25360Y-21241D01*
X25425Y-21085D01*
X25425Y-20915D01*
X25425Y-21947D01*
X24700Y-21947D01*
X24641Y-21959D01*
X24592Y-21992D01*
X24425Y-22158D01*
X24425Y-20915D01*
X24425Y-19915D01*
X24360Y-19759D01*
X24241Y-19639D01*
X24085Y-19574D01*
X23915Y-19574D01*
X23759Y-19639D01*
X23639Y-19758D01*
X23574Y-19914D01*
X23574Y-20084D01*
X23639Y-20240D01*
X23758Y-20360D01*
X23914Y-20425D01*
X24084Y-20425D01*
X24240Y-20360D01*
X24360Y-20241D01*
X24425Y-20085D01*
X24425Y-19915D01*
X24425Y-20915D01*
X24360Y-20759D01*
X24241Y-20639D01*
X24085Y-20574D01*
X23915Y-20574D01*
X23759Y-20639D01*
X23639Y-20758D01*
X23574Y-20914D01*
X23574Y-21084D01*
X23639Y-21240D01*
X23758Y-21360D01*
X23914Y-21425D01*
X24084Y-21425D01*
X24240Y-21360D01*
X24360Y-21241D01*
X24425Y-21085D01*
X24425Y-20915D01*
X24425Y-22158D01*
X24167Y-22416D01*
X24157Y-22412D01*
X24043Y-22412D01*
X23937Y-22456D01*
X23856Y-22536D01*
X23812Y-22642D01*
X23812Y-22756D01*
X23856Y-22862D01*
X23936Y-22943D01*
X23947Y-22947D01*
X23947Y-23336D01*
X23924Y-23359D01*
X23700Y-23359D01*
X23641Y-23371D01*
X23592Y-23404D01*
X23565Y-23445D01*
X23449Y-23445D01*
X23425Y-23454D01*
X23425Y-21321D01*
X23425Y-21269D01*
X23425Y-20678D01*
X23425Y-20321D01*
X23425Y-20269D01*
X23425Y-19678D01*
X23405Y-19630D01*
X23369Y-19594D01*
X23321Y-19574D01*
X23269Y-19574D01*
X22678Y-19574D01*
X22630Y-19594D01*
X22594Y-19630D01*
X22574Y-19678D01*
X22574Y-19730D01*
X22574Y-20321D01*
X22594Y-20369D01*
X22630Y-20405D01*
X22678Y-20425D01*
X22730Y-20425D01*
X23321Y-20425D01*
X23369Y-20405D01*
X23405Y-20369D01*
X23425Y-20321D01*
X23425Y-20678D01*
X23405Y-20630D01*
X23369Y-20594D01*
X23321Y-20574D01*
X23269Y-20574D01*
X22678Y-20574D01*
X22630Y-20594D01*
X22594Y-20630D01*
X22574Y-20678D01*
X22574Y-20730D01*
X22574Y-21321D01*
X22594Y-21369D01*
X22630Y-21405D01*
X22678Y-21425D01*
X22730Y-21425D01*
X23321Y-21425D01*
X23369Y-21405D01*
X23405Y-21369D01*
X23425Y-21321D01*
X23425Y-23454D01*
X23401Y-23464D01*
X23364Y-23501D01*
X23345Y-23549D01*
X23345Y-23600D01*
X23345Y-23735D01*
X22638Y-23735D01*
X22638Y-22762D01*
X22638Y-22662D01*
X22638Y-22392D01*
X22638Y-22167D01*
X22638Y-21896D01*
X22638Y-21796D01*
X22600Y-21704D01*
X22530Y-21634D01*
X22438Y-21596D01*
X21812Y-21596D01*
X21750Y-21658D01*
X21750Y-22229D01*
X22576Y-22229D01*
X22638Y-22167D01*
X22638Y-22392D01*
X22576Y-22329D01*
X21750Y-22329D01*
X21750Y-22900D01*
X21812Y-22962D01*
X22438Y-22962D01*
X22530Y-22924D01*
X22600Y-22854D01*
X22638Y-22762D01*
X22638Y-23735D01*
X22537Y-23735D01*
X22478Y-23746D01*
X22429Y-23779D01*
X22092Y-24116D01*
X22065Y-24157D01*
X22056Y-24157D01*
X22037Y-24164D01*
X22030Y-24145D01*
X21959Y-24075D01*
X21867Y-24037D01*
X21812Y-24037D01*
X21750Y-24099D01*
X21750Y-24670D01*
X21757Y-24670D01*
X21757Y-24770D01*
X21750Y-24770D01*
X21750Y-25341D01*
X21812Y-25403D01*
X21867Y-25403D01*
X21959Y-25365D01*
X22030Y-25295D01*
X22037Y-25276D01*
X22056Y-25283D01*
X22107Y-25283D01*
X22343Y-25283D01*
X22391Y-25263D01*
X22428Y-25227D01*
X22448Y-25179D01*
X22448Y-25127D01*
X22448Y-24261D01*
X22428Y-24213D01*
X22427Y-24212D01*
X22600Y-24040D01*
X23700Y-24040D01*
X23758Y-24028D01*
X23807Y-23995D01*
X23834Y-23955D01*
X23950Y-23955D01*
X23998Y-23935D01*
X24035Y-23898D01*
X24055Y-23850D01*
X24055Y-23799D01*
X24055Y-23647D01*
X24055Y-23647D01*
X24095Y-23620D01*
X24145Y-23570D01*
X24145Y-23600D01*
X24145Y-23850D01*
X24164Y-23898D01*
X24201Y-23935D01*
X24249Y-23955D01*
X24300Y-23955D01*
X24750Y-23955D01*
X24798Y-23935D01*
X24808Y-23925D01*
X24823Y-23934D01*
X24823Y-23934D01*
X24881Y-23946D01*
X24973Y-23946D01*
X24933Y-23963D01*
X24863Y-24033D01*
X24834Y-24101D01*
X24798Y-24064D01*
X24750Y-24045D01*
X24699Y-24045D01*
X24249Y-24045D01*
X24201Y-24064D01*
X24164Y-24101D01*
X24145Y-24149D01*
X24145Y-24200D01*
X24145Y-24335D01*
X24055Y-24335D01*
X24055Y-24149D01*
X24035Y-24101D01*
X23998Y-24064D01*
X23950Y-24045D01*
X23899Y-24045D01*
X23449Y-24045D01*
X23401Y-24064D01*
X23364Y-24101D01*
X23345Y-24149D01*
X23345Y-24200D01*
X23345Y-24450D01*
X23364Y-24498D01*
X23401Y-24535D01*
X23449Y-24555D01*
X23500Y-24555D01*
X23547Y-24555D01*
X23547Y-24645D01*
X23449Y-24645D01*
X23401Y-24664D01*
X23364Y-24701D01*
X23345Y-24749D01*
X23345Y-24800D01*
X23345Y-25050D01*
X23350Y-25063D01*
X22948Y-25063D01*
X22948Y-24261D01*
X22928Y-24213D01*
X22891Y-24177D01*
X22843Y-24157D01*
X22792Y-24157D01*
X22556Y-24157D01*
X22508Y-24177D01*
X22471Y-24213D01*
X22451Y-24261D01*
X22451Y-24313D01*
X22451Y-25179D01*
X22471Y-25227D01*
X22508Y-25263D01*
X22556Y-25283D01*
X22565Y-25283D01*
X22592Y-25324D01*
X22641Y-25357D01*
X22700Y-25368D01*
X23225Y-25368D01*
X23225Y-25387D01*
X23287Y-25450D01*
X23650Y-25450D01*
X23650Y-25442D01*
X23750Y-25442D01*
X23750Y-25450D01*
X24112Y-25450D01*
X24175Y-25387D01*
X24175Y-25325D01*
X24136Y-25233D01*
X24066Y-25163D01*
X23998Y-25134D01*
X24035Y-25098D01*
X24055Y-25050D01*
X24055Y-24999D01*
X24055Y-24749D01*
X24035Y-24701D01*
X23998Y-24664D01*
X23950Y-24645D01*
X23899Y-24645D01*
X23852Y-24645D01*
X23852Y-24640D01*
X24500Y-24640D01*
X24558Y-24628D01*
X24607Y-24595D01*
X24634Y-24555D01*
X24750Y-24555D01*
X24798Y-24535D01*
X24834Y-24498D01*
X24863Y-24566D01*
X24933Y-24636D01*
X25025Y-24675D01*
X25124Y-24675D01*
X25187Y-24675D01*
X25250Y-24612D01*
X25250Y-24350D01*
X25242Y-24350D01*
X25242Y-24250D01*
X25250Y-24250D01*
X25250Y-24242D01*
X25350Y-24242D01*
X25350Y-24250D01*
X25357Y-24250D01*
X25357Y-24350D01*
X25350Y-24350D01*
X25350Y-24612D01*
X25412Y-24675D01*
X25475Y-24675D01*
X25574Y-24675D01*
X25666Y-24636D01*
X25736Y-24566D01*
X25775Y-24474D01*
X25775Y-24412D01*
X25712Y-24350D01*
X25721Y-24350D01*
X26769Y-25397D01*
X26764Y-25401D01*
X26745Y-25449D01*
X26745Y-25500D01*
X26745Y-25950D01*
X26764Y-25998D01*
X26801Y-26034D01*
X26733Y-26063D01*
X26663Y-26133D01*
X26625Y-26225D01*
X26625Y-26324D01*
X26625Y-26387D01*
X26687Y-26450D01*
X26950Y-26450D01*
X26950Y-26442D01*
X27050Y-26442D01*
X27050Y-26450D01*
X27057Y-26450D01*
X27057Y-26550D01*
X27050Y-26550D01*
X27050Y-26557D01*
X26950Y-26557D01*
X26950Y-26550D01*
X26687Y-26550D01*
X26625Y-26612D01*
X26625Y-26675D01*
X26625Y-26774D01*
X26663Y-26866D01*
X26679Y-26883D01*
X26608Y-26913D01*
X26538Y-26983D01*
X26500Y-27075D01*
X26500Y-27174D01*
X26500Y-27287D01*
X26562Y-27350D01*
X26875Y-27350D01*
X26875Y-27342D01*
X26950Y-27342D01*
X26975Y-27342D01*
X26975Y-27350D01*
X27287Y-27350D01*
X27350Y-27287D01*
X27350Y-27174D01*
X27350Y-27075D01*
X27311Y-26983D01*
X27265Y-26937D01*
X27266Y-26936D01*
X27336Y-26866D01*
X27365Y-26798D01*
X27401Y-26835D01*
X27449Y-26855D01*
X27465Y-26855D01*
X27465Y-26855D01*
X27492Y-26895D01*
X27522Y-26925D01*
X27522Y-26995D01*
X27474Y-26995D01*
X27426Y-27014D01*
X27389Y-27051D01*
X27370Y-27099D01*
X27370Y-27150D01*
X27370Y-27527D01*
X27350Y-27527D01*
X27350Y-27512D01*
X27287Y-27450D01*
X26975Y-27450D01*
X26975Y-27862D01*
X27037Y-27925D01*
X27149Y-27925D01*
X27205Y-27901D01*
X27219Y-27915D01*
X27296Y-27947D01*
X27380Y-27947D01*
X27457Y-27915D01*
X27483Y-27890D01*
X27902Y-27890D01*
X27960Y-27878D01*
X27960Y-27878D01*
X28010Y-27845D01*
X28445Y-27410D01*
X28445Y-27650D01*
X28464Y-27698D01*
X28501Y-27735D01*
X28549Y-27755D01*
X28600Y-27755D01*
X28653Y-27755D01*
X28653Y-28718D01*
X28645Y-28726D01*
X28635Y-28701D01*
X28598Y-28664D01*
X28550Y-28645D01*
X28499Y-28645D01*
X28249Y-28645D01*
X28201Y-28664D01*
X28165Y-28701D01*
X28136Y-28633D01*
X28066Y-28563D01*
X27974Y-28525D01*
X27912Y-28525D01*
X27850Y-28587D01*
X27850Y-28950D01*
X27857Y-28950D01*
X27857Y-29050D01*
X27850Y-29050D01*
X27850Y-29057D01*
X27750Y-29057D01*
X27750Y-29050D01*
X27750Y-28950D01*
X27750Y-28587D01*
X27687Y-28525D01*
X27625Y-28525D01*
X27533Y-28563D01*
X27463Y-28633D01*
X27425Y-28725D01*
X27425Y-28824D01*
X27425Y-28887D01*
X27487Y-28950D01*
X27750Y-28950D01*
X27750Y-29050D01*
X27487Y-29050D01*
X27478Y-29058D01*
X26950Y-29058D01*
X26875Y-29058D01*
X26875Y-27862D01*
X26875Y-27450D01*
X26562Y-27450D01*
X26500Y-27512D01*
X26500Y-27625D01*
X26500Y-27724D01*
X26538Y-27816D01*
X26608Y-27886D01*
X26700Y-27925D01*
X26812Y-27925D01*
X26875Y-27862D01*
X26875Y-29058D01*
X25775Y-29058D01*
X24175Y-29058D01*
X24175Y-25674D01*
X24175Y-25612D01*
X24112Y-25550D01*
X23750Y-25550D01*
X23750Y-25812D01*
X23812Y-25875D01*
X23875Y-25875D01*
X23974Y-25875D01*
X24066Y-25836D01*
X24136Y-25766D01*
X24175Y-25674D01*
X24175Y-29058D01*
X23650Y-29058D01*
X23650Y-25812D01*
X23650Y-25550D01*
X23287Y-25550D01*
X23225Y-25612D01*
X23225Y-25674D01*
X23263Y-25766D01*
X23333Y-25836D01*
X23425Y-25875D01*
X23524Y-25875D01*
X23587Y-25875D01*
X23650Y-25812D01*
X23650Y-29058D01*
X21525Y-29058D01*
X21525Y-26951D01*
X21460Y-26795D01*
X21341Y-26675D01*
X21184Y-26611D01*
X21015Y-26610D01*
X20859Y-26675D01*
X20739Y-26795D01*
X20674Y-26951D01*
X20674Y-27120D01*
X20739Y-27276D01*
X20858Y-27396D01*
X21015Y-27461D01*
X21184Y-27461D01*
X21340Y-27396D01*
X21460Y-27277D01*
X21525Y-27121D01*
X21525Y-26951D01*
X21525Y-29058D01*
X21104Y-29058D01*
X21046Y-29070D01*
X20996Y-29103D01*
X20916Y-29183D01*
X20898Y-29164D01*
X20850Y-29145D01*
X20799Y-29145D01*
X20549Y-29145D01*
X20501Y-29164D01*
X20464Y-29201D01*
X20454Y-29226D01*
X20275Y-29046D01*
X20275Y-25474D01*
X20275Y-25412D01*
X20212Y-25350D01*
X19850Y-25350D01*
X19850Y-25612D01*
X19912Y-25675D01*
X19975Y-25675D01*
X20074Y-25675D01*
X20166Y-25636D01*
X20236Y-25566D01*
X20275Y-25474D01*
X20275Y-29046D01*
X19644Y-28416D01*
X19644Y-25675D01*
X19687Y-25675D01*
X19750Y-25612D01*
X19750Y-25350D01*
X19644Y-25350D01*
X19644Y-25250D01*
X19750Y-25250D01*
X19750Y-25242D01*
X19850Y-25242D01*
X19850Y-25250D01*
X20212Y-25250D01*
X20275Y-25187D01*
X20275Y-25125D01*
X20236Y-25033D01*
X20166Y-24963D01*
X20098Y-24934D01*
X20135Y-24898D01*
X20155Y-24850D01*
X20155Y-24799D01*
X20155Y-24625D01*
X20451Y-24625D01*
X20451Y-25179D01*
X20471Y-25227D01*
X20508Y-25263D01*
X20556Y-25283D01*
X20607Y-25283D01*
X20843Y-25283D01*
X20891Y-25263D01*
X20928Y-25227D01*
X20948Y-25179D01*
X20948Y-25127D01*
X20948Y-24377D01*
X20951Y-24377D01*
X20951Y-25179D01*
X20971Y-25227D01*
X21008Y-25263D01*
X21056Y-25283D01*
X21107Y-25283D01*
X21343Y-25283D01*
X21362Y-25276D01*
X21369Y-25295D01*
X21440Y-25365D01*
X21532Y-25403D01*
X21587Y-25403D01*
X21650Y-25341D01*
X21650Y-24770D01*
X21642Y-24770D01*
X21642Y-24670D01*
X21650Y-24670D01*
X21650Y-24099D01*
X21650Y-22900D01*
X21650Y-22329D01*
X21650Y-22229D01*
X21650Y-21658D01*
X21587Y-21596D01*
X21310Y-21596D01*
X21310Y-21233D01*
X21278Y-21156D01*
X21219Y-21097D01*
X21141Y-21065D01*
X21058Y-21064D01*
X20981Y-21096D01*
X20955Y-21122D01*
X20750Y-21122D01*
X20691Y-21134D01*
X20642Y-21167D01*
X19819Y-21989D01*
X19783Y-21989D01*
X19706Y-22021D01*
X19647Y-22080D01*
X19615Y-22158D01*
X19614Y-22241D01*
X19646Y-22318D01*
X19705Y-22377D01*
X19783Y-22409D01*
X19866Y-22410D01*
X19943Y-22378D01*
X20002Y-22319D01*
X20034Y-22241D01*
X20034Y-22205D01*
X20813Y-21427D01*
X20955Y-21427D01*
X20980Y-21452D01*
X21058Y-21484D01*
X21141Y-21485D01*
X21218Y-21453D01*
X21277Y-21394D01*
X21309Y-21316D01*
X21310Y-21233D01*
X21310Y-21596D01*
X20961Y-21596D01*
X20869Y-21634D01*
X20799Y-21704D01*
X20761Y-21796D01*
X20761Y-21896D01*
X20761Y-22167D01*
X20823Y-22229D01*
X21650Y-22229D01*
X21650Y-22329D01*
X20823Y-22329D01*
X20761Y-22392D01*
X20761Y-22662D01*
X20761Y-22762D01*
X20799Y-22854D01*
X20869Y-22924D01*
X20961Y-22962D01*
X21587Y-22962D01*
X21650Y-22900D01*
X21650Y-24099D01*
X21587Y-24037D01*
X21532Y-24037D01*
X21440Y-24075D01*
X21369Y-24145D01*
X21362Y-24164D01*
X21343Y-24157D01*
X21334Y-24157D01*
X21307Y-24116D01*
X21258Y-24083D01*
X21200Y-24072D01*
X20700Y-24072D01*
X20641Y-24083D01*
X20592Y-24116D01*
X20565Y-24157D01*
X20556Y-24157D01*
X20508Y-24177D01*
X20489Y-24196D01*
X20424Y-24196D01*
X20073Y-23845D01*
X20098Y-23835D01*
X20135Y-23798D01*
X20155Y-23750D01*
X20155Y-23699D01*
X20155Y-23449D01*
X20135Y-23401D01*
X20098Y-23365D01*
X20166Y-23336D01*
X20236Y-23266D01*
X20275Y-23174D01*
X20275Y-23112D01*
X20275Y-22887D01*
X20275Y-22825D01*
X20236Y-22733D01*
X20166Y-22663D01*
X20074Y-22625D01*
X19975Y-22625D01*
X19912Y-22625D01*
X19850Y-22687D01*
X19850Y-22950D01*
X20212Y-22950D01*
X20275Y-22887D01*
X20275Y-23112D01*
X20212Y-23050D01*
X19850Y-23050D01*
X19850Y-23057D01*
X19750Y-23057D01*
X19750Y-23050D01*
X19750Y-22950D01*
X19750Y-22687D01*
X19687Y-22625D01*
X19624Y-22625D01*
X19525Y-22625D01*
X19433Y-22663D01*
X19363Y-22733D01*
X19325Y-22825D01*
X19325Y-22887D01*
X19387Y-22950D01*
X19750Y-22950D01*
X19750Y-23050D01*
X19387Y-23050D01*
X19325Y-23112D01*
X19325Y-23174D01*
X19363Y-23266D01*
X19433Y-23336D01*
X19501Y-23365D01*
X19464Y-23401D01*
X19445Y-23449D01*
X19445Y-23500D01*
X19445Y-23750D01*
X19464Y-23798D01*
X19501Y-23835D01*
X19549Y-23855D01*
X19600Y-23855D01*
X19665Y-23855D01*
X19665Y-23855D01*
X19692Y-23895D01*
X20116Y-24320D01*
X19839Y-24320D01*
X19781Y-24331D01*
X19731Y-24364D01*
X19692Y-24404D01*
X19665Y-24445D01*
X19549Y-24445D01*
X19501Y-24464D01*
X19464Y-24501D01*
X19445Y-24549D01*
X19445Y-24600D01*
X19445Y-24745D01*
X19384Y-24806D01*
X19351Y-24855D01*
X19339Y-24914D01*
X19339Y-25090D01*
X19325Y-25125D01*
X19325Y-25187D01*
X19339Y-25202D01*
X19339Y-25397D01*
X19325Y-25412D01*
X19325Y-25474D01*
X19339Y-25509D01*
X19339Y-28479D01*
X19351Y-28538D01*
X19384Y-28587D01*
X20404Y-29607D01*
X20445Y-29634D01*
X20445Y-29750D01*
X20464Y-29798D01*
X20501Y-29835D01*
X20547Y-29854D01*
X20547Y-29945D01*
X20501Y-29964D01*
X20464Y-30001D01*
X20445Y-30049D01*
X20445Y-30100D01*
X20445Y-30550D01*
X20464Y-30598D01*
X20501Y-30635D01*
X20549Y-30655D01*
X20565Y-30655D01*
X20565Y-30655D01*
X20592Y-30695D01*
X20641Y-30744D01*
X20641Y-30745D01*
X20549Y-30745D01*
X20501Y-30764D01*
X20464Y-30801D01*
X20445Y-30849D01*
X20445Y-30900D01*
X20445Y-31350D01*
X20464Y-31398D01*
X20501Y-31435D01*
X20549Y-31455D01*
X20600Y-31455D01*
X20793Y-31455D01*
X20793Y-31545D01*
X20549Y-31545D01*
X20501Y-31564D01*
X20464Y-31601D01*
X20445Y-31649D01*
X20445Y-31700D01*
X20445Y-32150D01*
X20464Y-32198D01*
X20501Y-32235D01*
X20547Y-32254D01*
X20547Y-32345D01*
X20501Y-32364D01*
X20464Y-32401D01*
X20445Y-32449D01*
X20445Y-32500D01*
X20445Y-32950D01*
X20464Y-32998D01*
X20501Y-33035D01*
X20547Y-33054D01*
X20547Y-33145D01*
X20501Y-33164D01*
X20464Y-33201D01*
X20445Y-33249D01*
X20445Y-33300D01*
X20445Y-33750D01*
X20464Y-33798D01*
X20501Y-33835D01*
X20549Y-33855D01*
X20565Y-33855D01*
X20592Y-33895D01*
X20641Y-33928D01*
X20700Y-33940D01*
X20811Y-33940D01*
X21879Y-35007D01*
X21920Y-35034D01*
X21920Y-35200D01*
X21939Y-35248D01*
X21976Y-35285D01*
X22024Y-35305D01*
X22072Y-35305D01*
X22072Y-35537D01*
X22081Y-35584D01*
X22064Y-35601D01*
X22045Y-35649D01*
X22045Y-35700D01*
X22045Y-36150D01*
X22064Y-36198D01*
X22101Y-36235D01*
X22149Y-36255D01*
X22200Y-36255D01*
X22450Y-36255D01*
X22498Y-36235D01*
X22534Y-36198D01*
X22563Y-36266D01*
X22633Y-36336D01*
X22725Y-36375D01*
X22787Y-36375D01*
X22850Y-36312D01*
X22850Y-35950D01*
X22842Y-35950D01*
X22842Y-35850D01*
X22850Y-35850D01*
X22850Y-35487D01*
X22787Y-35425D01*
X22862Y-35425D01*
X22925Y-35362D01*
X22925Y-34950D01*
X22925Y-34850D01*
X22925Y-34437D01*
X22862Y-34375D01*
X22750Y-34375D01*
X22658Y-34413D01*
X22588Y-34483D01*
X22550Y-34575D01*
X22550Y-34674D01*
X22550Y-34787D01*
X22612Y-34850D01*
X22925Y-34850D01*
X22925Y-34950D01*
X22612Y-34950D01*
X22550Y-35012D01*
X22550Y-35125D01*
X22550Y-35224D01*
X22588Y-35316D01*
X22658Y-35386D01*
X22750Y-35425D01*
X22725Y-35425D01*
X22633Y-35463D01*
X22563Y-35533D01*
X22534Y-35601D01*
X22498Y-35564D01*
X22450Y-35545D01*
X22434Y-35545D01*
X22407Y-35504D01*
X22377Y-35474D01*
X22377Y-35305D01*
X22425Y-35305D01*
X22473Y-35285D01*
X22510Y-35248D01*
X22530Y-35200D01*
X22530Y-35149D01*
X22530Y-34599D01*
X22510Y-34551D01*
X22473Y-34514D01*
X22425Y-34495D01*
X22374Y-34495D01*
X22024Y-34495D01*
X21976Y-34514D01*
X21939Y-34551D01*
X21920Y-34599D01*
X21920Y-34616D01*
X21243Y-33940D01*
X23805Y-33940D01*
X23806Y-33940D01*
X23806Y-33940D01*
X23835Y-33934D01*
X23864Y-33928D01*
X23864Y-33928D01*
X23865Y-33928D01*
X23889Y-33911D01*
X23913Y-33895D01*
X23914Y-33895D01*
X23914Y-33894D01*
X25949Y-31833D01*
X27635Y-31833D01*
X25644Y-33824D01*
X25608Y-33824D01*
X25531Y-33856D01*
X25472Y-33915D01*
X25440Y-33993D01*
X25439Y-34076D01*
X25471Y-34153D01*
X25530Y-34212D01*
X25608Y-34244D01*
X25691Y-34245D01*
X25768Y-34213D01*
X25827Y-34154D01*
X25859Y-34076D01*
X25859Y-34040D01*
X27843Y-32057D01*
X30920Y-32057D01*
X30978Y-32045D01*
X30978Y-32045D01*
X31027Y-32012D01*
X31589Y-31451D01*
X31607Y-31451D01*
X31599Y-31478D01*
X31612Y-31616D01*
X31635Y-31671D01*
X31599Y-31793D01*
X31612Y-31931D01*
X31635Y-31986D01*
X31599Y-32108D01*
X31612Y-32246D01*
X31637Y-32304D01*
X29130Y-32304D01*
X29071Y-32316D01*
X29022Y-32349D01*
X28745Y-32626D01*
X28735Y-32601D01*
X28698Y-32564D01*
X28650Y-32545D01*
X28599Y-32545D01*
X28349Y-32545D01*
X28338Y-32549D01*
X28318Y-32501D01*
X28259Y-32441D01*
X28181Y-32409D01*
X28098Y-32409D01*
X28061Y-32425D01*
X28012Y-32425D01*
X27950Y-32487D01*
X27950Y-32529D01*
X27929Y-32577D01*
X27929Y-32661D01*
X27935Y-32674D01*
X27935Y-32957D01*
X27850Y-32957D01*
X27850Y-32950D01*
X27850Y-32850D01*
X27850Y-32487D01*
X27787Y-32425D01*
X27725Y-32425D01*
X27633Y-32463D01*
X27563Y-32533D01*
X27525Y-32625D01*
X27525Y-32724D01*
X27525Y-32787D01*
X27587Y-32850D01*
X27850Y-32850D01*
X27850Y-32950D01*
X27587Y-32950D01*
X27525Y-33012D01*
X27525Y-33075D01*
X27525Y-33174D01*
X27563Y-33266D01*
X27633Y-33336D01*
X27701Y-33365D01*
X27664Y-33401D01*
X27645Y-33449D01*
X27645Y-33500D01*
X27645Y-33950D01*
X27664Y-33998D01*
X27701Y-34035D01*
X27749Y-34055D01*
X27800Y-34055D01*
X28050Y-34055D01*
X28098Y-34035D01*
X28134Y-33999D01*
X28232Y-34096D01*
X28281Y-34129D01*
X28281Y-34129D01*
X28340Y-34141D01*
X28696Y-34141D01*
X28721Y-34166D01*
X28798Y-34198D01*
X28882Y-34198D01*
X28959Y-34166D01*
X28985Y-34141D01*
X31675Y-34141D01*
X31712Y-34178D01*
X31639Y-34180D01*
X31599Y-34312D01*
X31603Y-34356D01*
X30276Y-34356D01*
X30274Y-34350D01*
X30215Y-34291D01*
X30137Y-34259D01*
X30054Y-34259D01*
X29977Y-34291D01*
X29917Y-34350D01*
X29885Y-34427D01*
X29885Y-34459D01*
X27131Y-34459D01*
X27073Y-34471D01*
X27023Y-34504D01*
X26930Y-34597D01*
X26898Y-34564D01*
X26850Y-34545D01*
X26799Y-34545D01*
X26549Y-34545D01*
X26501Y-34564D01*
X26464Y-34601D01*
X26445Y-34649D01*
X26445Y-34700D01*
X26445Y-35150D01*
X26464Y-35198D01*
X26501Y-35235D01*
X26549Y-35255D01*
X26565Y-35255D01*
X26592Y-35295D01*
X26641Y-35328D01*
X26663Y-35332D01*
X26767Y-35437D01*
X26689Y-35437D01*
X26641Y-35456D01*
X26605Y-35493D01*
X26585Y-35541D01*
X26585Y-35592D01*
X26585Y-36458D01*
X26599Y-36492D01*
X25355Y-36492D01*
X25297Y-36503D01*
X25247Y-36536D01*
X24173Y-37611D01*
X24085Y-37574D01*
X23915Y-37574D01*
X23759Y-37639D01*
X23639Y-37758D01*
X23574Y-37914D01*
X23574Y-38084D01*
X23639Y-38240D01*
X23758Y-38360D01*
X23914Y-38425D01*
X24084Y-38425D01*
X24240Y-38360D01*
X24360Y-38241D01*
X24425Y-38085D01*
X24425Y-37915D01*
X24388Y-37826D01*
X25418Y-36797D01*
X29772Y-36797D01*
X29831Y-36785D01*
X29831Y-36785D01*
X29880Y-36752D01*
X30122Y-36510D01*
X30147Y-36510D01*
X30187Y-36550D01*
X30550Y-36550D01*
X30550Y-36542D01*
X30650Y-36542D01*
X30650Y-36550D01*
X30987Y-36550D01*
X31012Y-36550D01*
X31350Y-36550D01*
X31350Y-36542D01*
X31450Y-36542D01*
X31450Y-36550D01*
X31457Y-36550D01*
X31457Y-36650D01*
X31450Y-36650D01*
X31450Y-36912D01*
X31512Y-36975D01*
X31575Y-36975D01*
X31674Y-36975D01*
X31766Y-36936D01*
X31797Y-36906D01*
X32507Y-37616D01*
X32556Y-37649D01*
X32556Y-37649D01*
X32614Y-37661D01*
X32737Y-37661D01*
X32639Y-37758D01*
X32574Y-37914D01*
X32574Y-38084D01*
X32639Y-38240D01*
X32745Y-38347D01*
X32254Y-38347D01*
X32360Y-38241D01*
X32425Y-38085D01*
X32425Y-37915D01*
X32360Y-37759D01*
X32241Y-37639D01*
X32085Y-37574D01*
X31915Y-37574D01*
X31759Y-37639D01*
X31639Y-37758D01*
X31574Y-37914D01*
X31574Y-38084D01*
X31639Y-38240D01*
X31745Y-38347D01*
X31254Y-38347D01*
X31360Y-38241D01*
X31425Y-38085D01*
X31425Y-37915D01*
X31360Y-37759D01*
X31350Y-37748D01*
X31350Y-36912D01*
X31350Y-36650D01*
X31012Y-36650D01*
X30987Y-36650D01*
X30650Y-36650D01*
X30650Y-36912D01*
X30712Y-36975D01*
X30775Y-36975D01*
X30874Y-36975D01*
X30966Y-36936D01*
X31000Y-36903D01*
X31033Y-36936D01*
X31125Y-36975D01*
X31224Y-36975D01*
X31287Y-36975D01*
X31350Y-36912D01*
X31350Y-37748D01*
X31241Y-37639D01*
X31085Y-37574D01*
X30915Y-37574D01*
X30759Y-37639D01*
X30639Y-37758D01*
X30574Y-37914D01*
X30574Y-38084D01*
X30639Y-38240D01*
X30745Y-38347D01*
X30550Y-38347D01*
X30550Y-36912D01*
X30550Y-36650D01*
X30187Y-36650D01*
X30125Y-36712D01*
X30125Y-36774D01*
X30163Y-36866D01*
X30233Y-36936D01*
X30325Y-36975D01*
X30424Y-36975D01*
X30487Y-36975D01*
X30550Y-36912D01*
X30550Y-38347D01*
X30254Y-38347D01*
X30360Y-38241D01*
X30425Y-38085D01*
X30425Y-37915D01*
X30360Y-37759D01*
X30241Y-37639D01*
X30085Y-37574D01*
X29915Y-37574D01*
X29759Y-37639D01*
X29639Y-37758D01*
X29574Y-37914D01*
X29574Y-38084D01*
X29639Y-38240D01*
X29745Y-38347D01*
X29254Y-38347D01*
X29360Y-38241D01*
X29425Y-38085D01*
X29425Y-37915D01*
X29360Y-37759D01*
X29241Y-37639D01*
X29085Y-37574D01*
X28915Y-37574D01*
X28759Y-37639D01*
X28639Y-37758D01*
X28574Y-37914D01*
X28574Y-38084D01*
X28639Y-38240D01*
X28745Y-38347D01*
X28254Y-38347D01*
X28360Y-38241D01*
X28425Y-38085D01*
X28425Y-37915D01*
X28360Y-37759D01*
X28241Y-37639D01*
X28085Y-37574D01*
X27915Y-37574D01*
X27759Y-37639D01*
X27639Y-37758D01*
X27574Y-37914D01*
X27574Y-38084D01*
X27639Y-38240D01*
X27745Y-38347D01*
X27254Y-38347D01*
X27360Y-38241D01*
X27425Y-38085D01*
X27425Y-37915D01*
X27360Y-37759D01*
X27241Y-37639D01*
X27085Y-37574D01*
X26915Y-37574D01*
X26759Y-37639D01*
X26639Y-37758D01*
X26574Y-37914D01*
X26574Y-38084D01*
X26639Y-38240D01*
X26745Y-38347D01*
X26254Y-38347D01*
X26360Y-38241D01*
X26425Y-38085D01*
X26425Y-37915D01*
X26360Y-37759D01*
X26241Y-37639D01*
X26085Y-37574D01*
X25915Y-37574D01*
X25759Y-37639D01*
X25639Y-37758D01*
X25574Y-37914D01*
X25574Y-38084D01*
X25639Y-38240D01*
X25745Y-38347D01*
X25500Y-38347D01*
X25441Y-38359D01*
X25425Y-38369D01*
X25425Y-37915D01*
X25360Y-37759D01*
X25241Y-37639D01*
X25085Y-37574D01*
X24915Y-37574D01*
X24759Y-37639D01*
X24639Y-37758D01*
X24574Y-37914D01*
X24574Y-38084D01*
X24639Y-38240D01*
X24758Y-38360D01*
X24914Y-38425D01*
X25084Y-38425D01*
X25240Y-38360D01*
X25360Y-38241D01*
X25425Y-38085D01*
X25425Y-37915D01*
X25425Y-38369D01*
X25392Y-38392D01*
X25173Y-38611D01*
X25085Y-38574D01*
X24915Y-38574D01*
X24759Y-38639D01*
X24639Y-38758D01*
X24574Y-38914D01*
X24574Y-39084D01*
X24639Y-39240D01*
X24758Y-39360D01*
X24914Y-39425D01*
X25084Y-39425D01*
X25240Y-39360D01*
X25360Y-39241D01*
X25425Y-39085D01*
X25425Y-38915D01*
X25388Y-38826D01*
X25563Y-38652D01*
X25745Y-38652D01*
X25639Y-38758D01*
X25574Y-38914D01*
X25574Y-39084D01*
X25639Y-39240D01*
X25758Y-39360D01*
X25914Y-39425D01*
X26084Y-39425D01*
X26240Y-39360D01*
X26360Y-39241D01*
X26425Y-39085D01*
X26425Y-38915D01*
X26360Y-38759D01*
X26254Y-38652D01*
X26745Y-38652D01*
X26639Y-38758D01*
X26574Y-38914D01*
X26574Y-39084D01*
X26639Y-39240D01*
X26758Y-39360D01*
X26914Y-39425D01*
X27084Y-39425D01*
X27240Y-39360D01*
X27360Y-39241D01*
X27425Y-39085D01*
X27425Y-38915D01*
X27360Y-38759D01*
X27254Y-38652D01*
X27745Y-38652D01*
X27639Y-38758D01*
X27574Y-38914D01*
X27574Y-39084D01*
X27639Y-39240D01*
X27758Y-39360D01*
X27914Y-39425D01*
X28084Y-39425D01*
X28240Y-39360D01*
X28360Y-39241D01*
X28425Y-39085D01*
X28425Y-38915D01*
X28360Y-38759D01*
X28254Y-38652D01*
X28745Y-38652D01*
X28639Y-38758D01*
X28574Y-38914D01*
X28574Y-39084D01*
X28639Y-39240D01*
X28758Y-39360D01*
X28914Y-39425D01*
X29084Y-39425D01*
X29240Y-39360D01*
X29360Y-39241D01*
X29425Y-39085D01*
X29425Y-38915D01*
X29360Y-38759D01*
X29254Y-38652D01*
X29745Y-38652D01*
X29639Y-38758D01*
X29574Y-38914D01*
X29574Y-39084D01*
X29639Y-39240D01*
X29758Y-39360D01*
X29914Y-39425D01*
X30084Y-39425D01*
X30240Y-39360D01*
X30360Y-39241D01*
X30425Y-39085D01*
X30425Y-38915D01*
X30360Y-38759D01*
X30254Y-38652D01*
X30745Y-38652D01*
X30639Y-38758D01*
X30574Y-38914D01*
X30574Y-39084D01*
X30639Y-39240D01*
X30758Y-39360D01*
X30914Y-39425D01*
X31084Y-39425D01*
X31240Y-39360D01*
X31360Y-39241D01*
X31425Y-39085D01*
X31425Y-38915D01*
X31360Y-38759D01*
X31254Y-38652D01*
X31745Y-38652D01*
X31639Y-38758D01*
X31574Y-38914D01*
X31574Y-39084D01*
X31639Y-39240D01*
X31758Y-39360D01*
X31914Y-39425D01*
X32084Y-39425D01*
X32240Y-39360D01*
X32360Y-39241D01*
X32425Y-39085D01*
X32425Y-38915D01*
X32360Y-38759D01*
X32254Y-38652D01*
X32745Y-38652D01*
X32639Y-38758D01*
X32574Y-38914D01*
X32574Y-39084D01*
X32639Y-39240D01*
X32758Y-39360D01*
X32914Y-39425D01*
X33084Y-39425D01*
X33240Y-39360D01*
X33360Y-39241D01*
X33425Y-39085D01*
X33425Y-38915D01*
X33360Y-38759D01*
X33254Y-38652D01*
X33745Y-38652D01*
X33639Y-38758D01*
X33574Y-38914D01*
X33574Y-39084D01*
X33639Y-39240D01*
X33758Y-39360D01*
X33914Y-39425D01*
X34084Y-39425D01*
X34240Y-39360D01*
X34360Y-39241D01*
X34425Y-39085D01*
X34425Y-38915D01*
X34360Y-38759D01*
X34254Y-38652D01*
X34581Y-38652D01*
X34617Y-38688D01*
X34522Y-38714D01*
X34449Y-38919D01*
X34460Y-39136D01*
X34522Y-39285D01*
X34617Y-39311D01*
X34929Y-39000D01*
X34923Y-38994D01*
X34994Y-38923D01*
X35000Y-38929D01*
X35311Y-38617D01*
X35285Y-38522D01*
X35226Y-38501D01*
X35285Y-38477D01*
X35299Y-38427D01*
X35427Y-38299D01*
X35477Y-38285D01*
X35497Y-38229D01*
X35574Y-38152D01*
X35574Y-38321D01*
X35594Y-38369D01*
X35630Y-38405D01*
X35678Y-38425D01*
X35730Y-38425D01*
X36321Y-38425D01*
X36369Y-38405D01*
X36405Y-38369D01*
X36425Y-38321D01*
X36425Y-38269D01*
X36425Y-38152D01*
X37732Y-38152D01*
X37790Y-38140D01*
X37790Y-38140D01*
X37840Y-38107D01*
X38377Y-37570D01*
X38396Y-37590D01*
X38444Y-37610D01*
X38495Y-37610D01*
X38855Y-37610D01*
X38903Y-37590D01*
X38940Y-37553D01*
X38960Y-37505D01*
X38960Y-37454D01*
X38960Y-37094D01*
X38940Y-37046D01*
X38903Y-37009D01*
X38875Y-36997D01*
X38875Y-35374D01*
X38875Y-35275D01*
X38875Y-35212D01*
X38875Y-34987D01*
X38875Y-34924D01*
X38875Y-34825D01*
X38836Y-34733D01*
X38803Y-34700D01*
X38836Y-34666D01*
X38875Y-34574D01*
X38875Y-34475D01*
X38875Y-34412D01*
X38875Y-34187D01*
X38875Y-34124D01*
X38875Y-34025D01*
X38836Y-33933D01*
X38803Y-33900D01*
X38836Y-33866D01*
X38875Y-33774D01*
X38875Y-33675D01*
X38875Y-33612D01*
X38812Y-33550D01*
X38550Y-33550D01*
X38550Y-33887D01*
X38550Y-33912D01*
X38550Y-34250D01*
X38812Y-34250D01*
X38875Y-34187D01*
X38875Y-34412D01*
X38812Y-34350D01*
X38550Y-34350D01*
X38550Y-34687D01*
X38550Y-34712D01*
X38550Y-35050D01*
X38812Y-35050D01*
X38875Y-34987D01*
X38875Y-35212D01*
X38812Y-35150D01*
X38550Y-35150D01*
X38550Y-35512D01*
X38612Y-35575D01*
X38674Y-35575D01*
X38766Y-35536D01*
X38836Y-35466D01*
X38875Y-35374D01*
X38875Y-36997D01*
X38855Y-36990D01*
X38804Y-36990D01*
X38444Y-36990D01*
X38396Y-37009D01*
X38359Y-37046D01*
X38340Y-37094D01*
X38340Y-37145D01*
X38340Y-37181D01*
X38324Y-37192D01*
X38260Y-37256D01*
X38260Y-37094D01*
X38240Y-37046D01*
X38203Y-37009D01*
X38155Y-36990D01*
X38104Y-36990D01*
X37744Y-36990D01*
X37696Y-37009D01*
X37659Y-37046D01*
X37640Y-37094D01*
X37640Y-37145D01*
X37640Y-37147D01*
X36031Y-37147D01*
X36086Y-37091D01*
X36125Y-36999D01*
X36125Y-36887D01*
X36062Y-36825D01*
X35650Y-36825D01*
X35650Y-37137D01*
X35712Y-37200D01*
X35825Y-37200D01*
X35833Y-37200D01*
X35550Y-37483D01*
X35550Y-37137D01*
X35550Y-36825D01*
X35137Y-36825D01*
X35075Y-36887D01*
X35075Y-36999D01*
X35113Y-37091D01*
X35183Y-37161D01*
X35275Y-37200D01*
X35374Y-37200D01*
X35487Y-37200D01*
X35550Y-37137D01*
X35550Y-37483D01*
X35422Y-37611D01*
X35389Y-37660D01*
X35383Y-37688D01*
X35382Y-37688D01*
X35311Y-37758D01*
X35311Y-37617D01*
X35285Y-37522D01*
X35080Y-37449D01*
X34863Y-37460D01*
X34714Y-37522D01*
X34688Y-37617D01*
X35000Y-37929D01*
X35311Y-37617D01*
X35311Y-37758D01*
X35070Y-38000D01*
X35183Y-38112D01*
X35112Y-38183D01*
X35000Y-38070D01*
X34994Y-38076D01*
X34929Y-38011D01*
X34923Y-38005D01*
X34929Y-38000D01*
X34617Y-37688D01*
X34522Y-37714D01*
X34449Y-37919D01*
X34460Y-38136D01*
X34522Y-38285D01*
X34617Y-38311D01*
X34581Y-38347D01*
X34254Y-38347D01*
X34360Y-38241D01*
X34425Y-38085D01*
X34425Y-37915D01*
X34360Y-37759D01*
X34241Y-37639D01*
X34085Y-37574D01*
X33915Y-37574D01*
X33826Y-37611D01*
X33616Y-37400D01*
X33567Y-37367D01*
X33508Y-37356D01*
X32678Y-37356D01*
X32675Y-37353D01*
X32250Y-36928D01*
X32250Y-36912D01*
X32312Y-36975D01*
X32375Y-36975D01*
X32474Y-36975D01*
X32566Y-36936D01*
X32636Y-36866D01*
X32675Y-36774D01*
X32675Y-36712D01*
X32612Y-36650D01*
X32250Y-36650D01*
X32250Y-36657D01*
X32150Y-36657D01*
X32150Y-36650D01*
X32142Y-36650D01*
X32142Y-36550D01*
X32150Y-36550D01*
X32150Y-36542D01*
X32250Y-36542D01*
X32250Y-36550D01*
X32612Y-36550D01*
X32652Y-36510D01*
X32745Y-36510D01*
X32745Y-36750D01*
X32764Y-36798D01*
X32801Y-36835D01*
X32849Y-36855D01*
X32900Y-36855D01*
X33350Y-36855D01*
X33398Y-36835D01*
X33435Y-36798D01*
X33454Y-36752D01*
X33545Y-36752D01*
X33564Y-36798D01*
X33601Y-36835D01*
X33649Y-36855D01*
X33700Y-36855D01*
X34150Y-36855D01*
X34198Y-36835D01*
X34233Y-36799D01*
X34258Y-36809D01*
X34341Y-36810D01*
X34366Y-36799D01*
X34401Y-36835D01*
X34449Y-36855D01*
X34500Y-36855D01*
X34950Y-36855D01*
X34998Y-36835D01*
X35035Y-36798D01*
X35055Y-36750D01*
X35055Y-36699D01*
X35055Y-36510D01*
X35091Y-36510D01*
X35075Y-36550D01*
X35075Y-36662D01*
X35137Y-36725D01*
X35550Y-36725D01*
X35550Y-36717D01*
X35650Y-36717D01*
X35650Y-36725D01*
X36062Y-36725D01*
X36125Y-36662D01*
X36125Y-36550D01*
X36108Y-36510D01*
X36230Y-36510D01*
X36214Y-36526D01*
X36195Y-36574D01*
X36195Y-36625D01*
X36195Y-36975D01*
X36214Y-37023D01*
X36251Y-37060D01*
X36299Y-37080D01*
X36350Y-37080D01*
X36900Y-37080D01*
X36948Y-37060D01*
X36985Y-37023D01*
X37005Y-36975D01*
X37005Y-36924D01*
X37005Y-36652D01*
X37990Y-36652D01*
X37990Y-36705D01*
X38009Y-36753D01*
X38046Y-36790D01*
X38094Y-36810D01*
X38145Y-36810D01*
X38505Y-36810D01*
X38553Y-36790D01*
X38590Y-36753D01*
X38610Y-36705D01*
X38610Y-36654D01*
X38610Y-36294D01*
X38590Y-36246D01*
X38553Y-36209D01*
X38505Y-36190D01*
X38454Y-36190D01*
X38401Y-36190D01*
X38401Y-35560D01*
X38450Y-35512D01*
X38450Y-35150D01*
X38442Y-35150D01*
X38442Y-35050D01*
X38450Y-35050D01*
X38450Y-34712D01*
X38450Y-34687D01*
X38450Y-34536D01*
X38459Y-34514D01*
X38459Y-34437D01*
X38459Y-34437D01*
X38464Y-34409D01*
X38464Y-33442D01*
X38550Y-33442D01*
X38550Y-33450D01*
X38812Y-33450D01*
X38875Y-33387D01*
X38875Y-33324D01*
X38875Y-33225D01*
X38875Y-30974D01*
X38875Y-30875D01*
X38875Y-30812D01*
X38875Y-30587D01*
X38875Y-30524D01*
X38875Y-30425D01*
X38836Y-30333D01*
X38766Y-30263D01*
X38674Y-30225D01*
X38612Y-30225D01*
X38550Y-30287D01*
X38550Y-30650D01*
X38812Y-30650D01*
X38875Y-30587D01*
X38875Y-30812D01*
X38812Y-30750D01*
X38550Y-30750D01*
X38550Y-31112D01*
X38612Y-31175D01*
X38674Y-31175D01*
X38766Y-31136D01*
X38836Y-31066D01*
X38875Y-30974D01*
X38875Y-33225D01*
X38836Y-33133D01*
X38766Y-33063D01*
X38698Y-33034D01*
X38735Y-32998D01*
X38755Y-32950D01*
X38755Y-32899D01*
X38755Y-32449D01*
X38755Y-31950D01*
X38755Y-31899D01*
X38755Y-31449D01*
X38735Y-31401D01*
X38698Y-31364D01*
X38650Y-31345D01*
X38599Y-31345D01*
X38450Y-31345D01*
X38450Y-31112D01*
X38450Y-30750D01*
X38442Y-30750D01*
X38442Y-30650D01*
X38450Y-30650D01*
X38450Y-30287D01*
X38387Y-30225D01*
X38325Y-30225D01*
X38233Y-30263D01*
X38163Y-30333D01*
X38134Y-30401D01*
X38098Y-30364D01*
X38050Y-30345D01*
X37999Y-30345D01*
X37900Y-30345D01*
X37900Y-28924D01*
X37900Y-28825D01*
X37900Y-28712D01*
X37900Y-28487D01*
X37900Y-28374D01*
X37900Y-28275D01*
X37861Y-28183D01*
X37791Y-28113D01*
X37699Y-28075D01*
X37610Y-28075D01*
X37610Y-26453D01*
X37578Y-26376D01*
X37519Y-26317D01*
X37441Y-26285D01*
X37358Y-26285D01*
X37281Y-26317D01*
X37255Y-26342D01*
X34955Y-26342D01*
X34955Y-26249D01*
X34935Y-26201D01*
X34898Y-26164D01*
X34852Y-26145D01*
X34852Y-25854D01*
X34898Y-25835D01*
X34935Y-25798D01*
X34955Y-25750D01*
X34955Y-25699D01*
X34955Y-25249D01*
X34935Y-25201D01*
X34898Y-25164D01*
X34850Y-25145D01*
X34799Y-25145D01*
X34549Y-25145D01*
X34501Y-25164D01*
X34475Y-25191D01*
X34475Y-24674D01*
X34475Y-24575D01*
X34475Y-24512D01*
X34475Y-24287D01*
X34475Y-24224D01*
X34475Y-24125D01*
X34436Y-24033D01*
X34366Y-23963D01*
X34274Y-23925D01*
X34212Y-23925D01*
X34150Y-23987D01*
X34150Y-24350D01*
X34412Y-24350D01*
X34475Y-24287D01*
X34475Y-24512D01*
X34412Y-24450D01*
X34150Y-24450D01*
X34150Y-24812D01*
X34212Y-24875D01*
X34274Y-24875D01*
X34366Y-24836D01*
X34436Y-24766D01*
X34475Y-24674D01*
X34475Y-25191D01*
X34464Y-25201D01*
X34445Y-25249D01*
X34445Y-25300D01*
X34445Y-25750D01*
X34464Y-25798D01*
X34501Y-25835D01*
X34547Y-25854D01*
X34547Y-26145D01*
X34501Y-26164D01*
X34464Y-26201D01*
X34445Y-26249D01*
X34445Y-26300D01*
X34445Y-26750D01*
X34464Y-26798D01*
X34501Y-26835D01*
X34549Y-26855D01*
X34600Y-26855D01*
X34850Y-26855D01*
X34898Y-26835D01*
X34935Y-26798D01*
X34955Y-26750D01*
X34955Y-26699D01*
X34955Y-26647D01*
X37255Y-26647D01*
X37280Y-26673D01*
X37358Y-26705D01*
X37441Y-26705D01*
X37518Y-26673D01*
X37577Y-26614D01*
X37609Y-26537D01*
X37610Y-26453D01*
X37610Y-28075D01*
X37587Y-28075D01*
X37525Y-28137D01*
X37525Y-28550D01*
X37837Y-28550D01*
X37900Y-28487D01*
X37900Y-28712D01*
X37837Y-28650D01*
X37525Y-28650D01*
X37525Y-29062D01*
X37587Y-29125D01*
X37699Y-29125D01*
X37791Y-29086D01*
X37861Y-29016D01*
X37900Y-28924D01*
X37900Y-30345D01*
X37749Y-30345D01*
X37701Y-30364D01*
X37664Y-30401D01*
X37654Y-30426D01*
X37115Y-29887D01*
X37115Y-29043D01*
X37158Y-29086D01*
X37250Y-29125D01*
X37362Y-29125D01*
X37425Y-29062D01*
X37425Y-28650D01*
X37417Y-28650D01*
X37417Y-28550D01*
X37425Y-28550D01*
X37425Y-28137D01*
X37362Y-28075D01*
X37250Y-28075D01*
X37158Y-28113D01*
X37088Y-28183D01*
X37050Y-28275D01*
X37050Y-28374D01*
X37050Y-28478D01*
X37030Y-28465D01*
X37030Y-28299D01*
X37010Y-28251D01*
X36973Y-28214D01*
X36925Y-28195D01*
X36874Y-28195D01*
X36524Y-28195D01*
X36476Y-28214D01*
X36439Y-28251D01*
X36420Y-28299D01*
X36420Y-28350D01*
X36420Y-28447D01*
X36163Y-28447D01*
X35683Y-27967D01*
X35687Y-27957D01*
X35687Y-27843D01*
X35643Y-27737D01*
X35563Y-27656D01*
X35457Y-27612D01*
X35343Y-27612D01*
X35237Y-27656D01*
X35156Y-27736D01*
X35112Y-27842D01*
X35112Y-27956D01*
X35156Y-28062D01*
X35236Y-28143D01*
X35342Y-28187D01*
X35456Y-28187D01*
X35467Y-28183D01*
X35992Y-28707D01*
X36041Y-28740D01*
X36041Y-28740D01*
X36100Y-28752D01*
X36420Y-28752D01*
X36420Y-28900D01*
X36439Y-28948D01*
X36476Y-28985D01*
X36524Y-29005D01*
X36575Y-29005D01*
X36810Y-29005D01*
X36810Y-29950D01*
X36821Y-30008D01*
X36854Y-30058D01*
X37604Y-30807D01*
X37645Y-30834D01*
X37645Y-30950D01*
X37664Y-30998D01*
X37701Y-31035D01*
X37749Y-31055D01*
X37800Y-31055D01*
X38050Y-31055D01*
X38098Y-31035D01*
X38134Y-30998D01*
X38163Y-31066D01*
X38233Y-31136D01*
X38325Y-31175D01*
X38387Y-31175D01*
X38450Y-31112D01*
X38450Y-31345D01*
X38349Y-31345D01*
X38301Y-31364D01*
X38264Y-31401D01*
X38245Y-31449D01*
X38245Y-31500D01*
X38245Y-31950D01*
X38264Y-31998D01*
X38301Y-32035D01*
X38331Y-32047D01*
X38331Y-32089D01*
X38363Y-32166D01*
X38422Y-32225D01*
X38499Y-32258D01*
X38582Y-32258D01*
X38659Y-32226D01*
X38719Y-32167D01*
X38751Y-32090D01*
X38751Y-32006D01*
X38741Y-31983D01*
X38755Y-31950D01*
X38755Y-32449D01*
X38735Y-32401D01*
X38698Y-32364D01*
X38650Y-32345D01*
X38599Y-32345D01*
X38349Y-32345D01*
X38301Y-32364D01*
X38264Y-32401D01*
X38263Y-32404D01*
X37913Y-32055D01*
X38050Y-32055D01*
X38098Y-32035D01*
X38135Y-31998D01*
X38155Y-31950D01*
X38155Y-31899D01*
X38155Y-31449D01*
X38135Y-31401D01*
X38098Y-31364D01*
X38050Y-31345D01*
X38034Y-31345D01*
X38007Y-31304D01*
X37958Y-31271D01*
X37900Y-31259D01*
X36403Y-31259D01*
X36400Y-31257D01*
X36400Y-30287D01*
X36387Y-30149D01*
X36360Y-30085D01*
X36286Y-30083D01*
X36216Y-30153D01*
X36216Y-30013D01*
X36214Y-29939D01*
X36081Y-29899D01*
X35943Y-29912D01*
X35880Y-29939D01*
X35877Y-30013D01*
X36047Y-30183D01*
X36216Y-30013D01*
X36216Y-30153D01*
X36116Y-30252D01*
X36286Y-30422D01*
X36360Y-30419D01*
X36400Y-30287D01*
X36400Y-31257D01*
X36378Y-31234D01*
X36301Y-31202D01*
X36275Y-31202D01*
X36275Y-31152D01*
X36241Y-31068D01*
X36212Y-31040D01*
X36240Y-31012D01*
X36275Y-30928D01*
X36275Y-30837D01*
X36241Y-30753D01*
X36212Y-30725D01*
X36240Y-30697D01*
X36275Y-30613D01*
X36275Y-30522D01*
X36241Y-30438D01*
X36176Y-30374D01*
X36092Y-30339D01*
X36064Y-30339D01*
X36047Y-30322D01*
X36041Y-30328D01*
X35971Y-30258D01*
X35977Y-30252D01*
X35960Y-30235D01*
X35960Y-30207D01*
X35926Y-30123D01*
X35861Y-30059D01*
X35777Y-30024D01*
X35687Y-30024D01*
X35603Y-30058D01*
X35574Y-30087D01*
X35546Y-30059D01*
X35462Y-30024D01*
X35372Y-30024D01*
X35288Y-30058D01*
X35259Y-30087D01*
X35231Y-30059D01*
X35147Y-30024D01*
X35057Y-30024D01*
X34973Y-30058D01*
X34944Y-30087D01*
X34916Y-30059D01*
X34833Y-30024D01*
X34774Y-30024D01*
X34595Y-29844D01*
X34595Y-27971D01*
X34563Y-27894D01*
X34504Y-27835D01*
X34426Y-27803D01*
X34376Y-27802D01*
X33997Y-27423D01*
X33997Y-27378D01*
X34013Y-27338D01*
X34014Y-27255D01*
X33982Y-27178D01*
X33923Y-27119D01*
X33845Y-27087D01*
X33762Y-27086D01*
X33685Y-27118D01*
X33682Y-27121D01*
X33617Y-27095D01*
X33534Y-27094D01*
X33457Y-27126D01*
X33398Y-27185D01*
X33366Y-27263D01*
X33365Y-27346D01*
X33397Y-27423D01*
X33456Y-27482D01*
X33529Y-27513D01*
X33529Y-27814D01*
X33541Y-27872D01*
X33574Y-27921D01*
X33782Y-28130D01*
X33782Y-28166D01*
X33814Y-28243D01*
X33873Y-28302D01*
X33951Y-28334D01*
X34034Y-28335D01*
X34111Y-28303D01*
X34170Y-28244D01*
X34202Y-28166D01*
X34203Y-28122D01*
X34206Y-28131D01*
X34265Y-28190D01*
X34343Y-28222D01*
X34426Y-28223D01*
X34503Y-28191D01*
X34562Y-28132D01*
X34594Y-28054D01*
X34595Y-27971D01*
X34595Y-29844D01*
X32710Y-27960D01*
X32766Y-27936D01*
X32836Y-27866D01*
X32875Y-27774D01*
X32875Y-27712D01*
X32812Y-27650D01*
X32450Y-27650D01*
X32450Y-27657D01*
X32350Y-27657D01*
X32350Y-27650D01*
X32342Y-27650D01*
X32342Y-27550D01*
X32350Y-27550D01*
X32350Y-27542D01*
X32450Y-27542D01*
X32450Y-27550D01*
X32812Y-27550D01*
X32875Y-27487D01*
X32875Y-27432D01*
X32915Y-27432D01*
X32973Y-27421D01*
X32973Y-27421D01*
X32997Y-27404D01*
X33041Y-27405D01*
X33119Y-27373D01*
X33178Y-27314D01*
X33210Y-27236D01*
X33210Y-27153D01*
X33178Y-27076D01*
X33119Y-27017D01*
X33091Y-27005D01*
X33091Y-26976D01*
X33059Y-26899D01*
X33000Y-26840D01*
X32923Y-26808D01*
X32839Y-26808D01*
X32762Y-26840D01*
X32754Y-26848D01*
X32735Y-26801D01*
X32698Y-26764D01*
X32650Y-26745D01*
X32599Y-26745D01*
X32577Y-26745D01*
X32577Y-26744D01*
X32609Y-26667D01*
X32610Y-26584D01*
X32578Y-26506D01*
X32519Y-26447D01*
X32441Y-26415D01*
X32358Y-26415D01*
X32281Y-26447D01*
X32222Y-26506D01*
X32190Y-26583D01*
X32189Y-26667D01*
X32204Y-26702D01*
X32204Y-26745D01*
X32149Y-26745D01*
X32128Y-26753D01*
X31871Y-26753D01*
X31850Y-26745D01*
X31799Y-26745D01*
X31734Y-26745D01*
X31707Y-26704D01*
X31193Y-26190D01*
X31279Y-26155D01*
X31288Y-26156D01*
X31569Y-26156D01*
X31642Y-26187D01*
X31756Y-26187D01*
X31862Y-26143D01*
X31943Y-26063D01*
X31987Y-25957D01*
X31987Y-25843D01*
X31943Y-25737D01*
X31863Y-25656D01*
X31827Y-25641D01*
X32425Y-25641D01*
X33216Y-26432D01*
X33212Y-26442D01*
X33212Y-26556D01*
X33256Y-26662D01*
X33336Y-26743D01*
X33442Y-26787D01*
X33556Y-26787D01*
X33662Y-26743D01*
X33743Y-26663D01*
X33747Y-26652D01*
X33845Y-26652D01*
X33845Y-26750D01*
X33864Y-26798D01*
X33901Y-26835D01*
X33949Y-26855D01*
X34000Y-26855D01*
X34250Y-26855D01*
X34298Y-26835D01*
X34335Y-26798D01*
X34355Y-26750D01*
X34355Y-26699D01*
X34355Y-26249D01*
X34335Y-26201D01*
X34298Y-26164D01*
X34250Y-26145D01*
X34199Y-26145D01*
X33949Y-26145D01*
X33901Y-26164D01*
X33864Y-26201D01*
X33845Y-26249D01*
X33845Y-26300D01*
X33845Y-26347D01*
X33748Y-26347D01*
X33743Y-26337D01*
X33663Y-26256D01*
X33557Y-26212D01*
X33443Y-26212D01*
X33432Y-26216D01*
X32660Y-25444D01*
X33212Y-25444D01*
X33212Y-25556D01*
X33256Y-25662D01*
X33336Y-25743D01*
X33442Y-25787D01*
X33556Y-25787D01*
X33662Y-25743D01*
X33743Y-25663D01*
X33747Y-25652D01*
X33845Y-25652D01*
X33845Y-25750D01*
X33864Y-25798D01*
X33901Y-25835D01*
X33949Y-25855D01*
X34000Y-25855D01*
X34250Y-25855D01*
X34298Y-25835D01*
X34335Y-25798D01*
X34355Y-25750D01*
X34355Y-25699D01*
X34355Y-25249D01*
X34335Y-25201D01*
X34298Y-25164D01*
X34250Y-25145D01*
X34199Y-25145D01*
X33949Y-25145D01*
X33901Y-25164D01*
X33864Y-25201D01*
X33845Y-25249D01*
X33845Y-25300D01*
X33845Y-25347D01*
X33748Y-25347D01*
X33743Y-25337D01*
X33663Y-25256D01*
X33557Y-25212D01*
X33443Y-25212D01*
X33432Y-25216D01*
X33399Y-25184D01*
X33350Y-25151D01*
X33292Y-25139D01*
X31871Y-25139D01*
X31871Y-25118D01*
X31871Y-25050D01*
X32813Y-25050D01*
X32872Y-25039D01*
X32872Y-25039D01*
X32921Y-25006D01*
X33254Y-24673D01*
X33264Y-24698D01*
X33301Y-24735D01*
X33349Y-24755D01*
X33400Y-24755D01*
X33650Y-24755D01*
X33698Y-24735D01*
X33734Y-24698D01*
X33763Y-24766D01*
X33833Y-24836D01*
X33925Y-24875D01*
X33987Y-24875D01*
X34050Y-24812D01*
X34050Y-24450D01*
X34042Y-24450D01*
X34042Y-24350D01*
X34050Y-24350D01*
X34050Y-23987D01*
X33987Y-23925D01*
X33925Y-23925D01*
X33833Y-23963D01*
X33763Y-24033D01*
X33734Y-24101D01*
X33698Y-24064D01*
X33650Y-24045D01*
X33599Y-24045D01*
X33460Y-24045D01*
X33817Y-23687D01*
X33850Y-23638D01*
X33850Y-23638D01*
X33860Y-23588D01*
X33864Y-23598D01*
X33901Y-23635D01*
X33949Y-23655D01*
X34000Y-23655D01*
X34250Y-23655D01*
X34298Y-23635D01*
X34335Y-23598D01*
X34355Y-23550D01*
X34355Y-23499D01*
X34355Y-23452D01*
X36597Y-23452D01*
X36635Y-23543D01*
X36756Y-23664D01*
X36914Y-23729D01*
X37085Y-23730D01*
X37243Y-23664D01*
X37364Y-23543D01*
X37405Y-23444D01*
X38390Y-23444D01*
X38426Y-23532D01*
X38546Y-23652D01*
X38702Y-23717D01*
X38871Y-23717D01*
X39027Y-23652D01*
X39147Y-23533D01*
X39212Y-23377D01*
X39212Y-23207D01*
X39212Y-37795D01*
X39000Y-37795D01*
X38980Y-37798D01*
X38960Y-37798D01*
X38577Y-37875D01*
X38503Y-37905D01*
X38179Y-38122D01*
X38150Y-38150D01*
X38122Y-38179D01*
X37905Y-38503D01*
X37875Y-38577D01*
X37798Y-38960D01*
X37798Y-38980D01*
X37795Y-39000D01*
X37795Y-39500D01*
X37795Y-39795D01*
X36425Y-39795D01*
X36425Y-39321D01*
X36425Y-39269D01*
X36425Y-38678D01*
X36405Y-38630D01*
X36369Y-38594D01*
X36321Y-38574D01*
X36269Y-38574D01*
X35678Y-38574D01*
X35630Y-38594D01*
X35594Y-38630D01*
X35574Y-38678D01*
X35574Y-38730D01*
X35574Y-39321D01*
X35594Y-39369D01*
X35630Y-39405D01*
X35678Y-39425D01*
X35730Y-39425D01*
X36321Y-39425D01*
X36369Y-39405D01*
X36405Y-39369D01*
X36425Y-39321D01*
X36425Y-39795D01*
X35550Y-39795D01*
X35550Y-39080D01*
X35539Y-38863D01*
X35477Y-38714D01*
X35382Y-38688D01*
X35070Y-39000D01*
X35382Y-39311D01*
X35477Y-39285D01*
X35550Y-39080D01*
X35550Y-39795D01*
X35311Y-39795D01*
X35311Y-39382D01*
X35000Y-39070D01*
X34929Y-39141D01*
X34688Y-39382D01*
X34714Y-39477D01*
X34919Y-39550D01*
X35136Y-39539D01*
X35285Y-39477D01*
X35311Y-39382D01*
X35311Y-39795D01*
X24425Y-39795D01*
X24425Y-38915D01*
X24360Y-38759D01*
X24241Y-38639D01*
X24085Y-38574D01*
X23915Y-38574D01*
X23759Y-38639D01*
X23639Y-38758D01*
X23574Y-38914D01*
X23574Y-39084D01*
X23639Y-39240D01*
X23758Y-39360D01*
X23914Y-39425D01*
X24084Y-39425D01*
X24240Y-39360D01*
X24360Y-39241D01*
X24425Y-39085D01*
X24425Y-38915D01*
X24425Y-39795D01*
X23425Y-39795D01*
X23425Y-38915D01*
X23425Y-37915D01*
X23400Y-37853D01*
X23400Y-35224D01*
X23400Y-35125D01*
X23400Y-35012D01*
X23400Y-34787D01*
X23400Y-34674D01*
X23400Y-34575D01*
X23361Y-34483D01*
X23291Y-34413D01*
X23199Y-34375D01*
X23087Y-34375D01*
X23025Y-34437D01*
X23025Y-34850D01*
X23337Y-34850D01*
X23400Y-34787D01*
X23400Y-35012D01*
X23337Y-34950D01*
X23025Y-34950D01*
X23025Y-35362D01*
X23087Y-35425D01*
X23199Y-35425D01*
X23291Y-35386D01*
X23361Y-35316D01*
X23400Y-35224D01*
X23400Y-37853D01*
X23360Y-37759D01*
X23275Y-37673D01*
X23275Y-36174D01*
X23275Y-36075D01*
X23275Y-36012D01*
X23275Y-35787D01*
X23275Y-35724D01*
X23275Y-35625D01*
X23236Y-35533D01*
X23166Y-35463D01*
X23074Y-35425D01*
X23012Y-35425D01*
X22950Y-35487D01*
X22950Y-35850D01*
X23212Y-35850D01*
X23275Y-35787D01*
X23275Y-36012D01*
X23212Y-35950D01*
X22950Y-35950D01*
X22950Y-36312D01*
X23012Y-36375D01*
X23074Y-36375D01*
X23166Y-36336D01*
X23236Y-36266D01*
X23275Y-36174D01*
X23275Y-37673D01*
X23241Y-37639D01*
X23085Y-37574D01*
X22915Y-37574D01*
X22759Y-37639D01*
X22639Y-37758D01*
X22574Y-37914D01*
X22574Y-38084D01*
X22639Y-38240D01*
X22758Y-38360D01*
X22914Y-38425D01*
X23084Y-38425D01*
X23240Y-38360D01*
X23360Y-38241D01*
X23425Y-38085D01*
X23425Y-37915D01*
X23425Y-38915D01*
X23360Y-38759D01*
X23241Y-38639D01*
X23085Y-38574D01*
X22915Y-38574D01*
X22759Y-38639D01*
X22639Y-38758D01*
X22574Y-38914D01*
X22574Y-39084D01*
X22639Y-39240D01*
X22758Y-39360D01*
X22914Y-39425D01*
X23084Y-39425D01*
X23240Y-39360D01*
X23360Y-39241D01*
X23425Y-39085D01*
X23425Y-38915D01*
X23425Y-39795D01*
X21525Y-39795D01*
X21525Y-36479D01*
X21460Y-36323D01*
X21341Y-36203D01*
X21184Y-36138D01*
X21015Y-36138D01*
X20859Y-36203D01*
X20739Y-36322D01*
X20674Y-36478D01*
X20674Y-36648D01*
X20739Y-36804D01*
X20858Y-36924D01*
X21015Y-36988D01*
X21184Y-36989D01*
X21340Y-36924D01*
X21460Y-36804D01*
X21525Y-36648D01*
X21525Y-36479D01*
X21525Y-39795D01*
X21443Y-39795D01*
X21443Y-37912D01*
X21376Y-37748D01*
X21251Y-37624D01*
X21088Y-37556D01*
X20912Y-37556D01*
X20748Y-37623D01*
X20624Y-37748D01*
X20556Y-37911D01*
X20556Y-38087D01*
X20623Y-38251D01*
X20748Y-38375D01*
X20911Y-38443D01*
X21087Y-38443D01*
X21251Y-38376D01*
X21375Y-38251D01*
X21443Y-38088D01*
X21443Y-37912D01*
X21443Y-39795D01*
X20952Y-39795D01*
X20952Y-39177D01*
X20947Y-38799D01*
X20811Y-38471D01*
X20675Y-38395D01*
X20604Y-38466D01*
X20604Y-38324D01*
X20528Y-38188D01*
X20177Y-38047D01*
X19799Y-38052D01*
X19471Y-38188D01*
X19395Y-38324D01*
X20000Y-38929D01*
X20604Y-38324D01*
X20604Y-38466D01*
X20070Y-39000D01*
X20675Y-39604D01*
X20811Y-39528D01*
X20952Y-39177D01*
X20952Y-39795D01*
X20537Y-39795D01*
X20604Y-39675D01*
X20000Y-39070D01*
X19395Y-39675D01*
X19462Y-39795D01*
X19205Y-39795D01*
X19205Y-39537D01*
X19324Y-39604D01*
X19929Y-39000D01*
X19324Y-38395D01*
X19205Y-38462D01*
X19205Y-21205D01*
X19500Y-21205D01*
X20000Y-21205D01*
X20019Y-21201D01*
X20039Y-21201D01*
X20422Y-21124D01*
X20496Y-21094D01*
X20496Y-21094D01*
X20820Y-20877D01*
X20820Y-20877D01*
X20849Y-20849D01*
X20877Y-20820D01*
X20877Y-20820D01*
X21094Y-20496D01*
X21124Y-20422D01*
X21201Y-20039D01*
X21201Y-20019D01*
X21205Y-20000D01*
X21205Y-19500D01*
X21205Y-19205D01*
X38462Y-19205D01*
X38395Y-19324D01*
X39000Y-19929D01*
X39604Y-19324D01*
X39537Y-19205D01*
X39795Y-19205D01*
X39795Y-19462D01*
X39675Y-19395D01*
X39070Y-20000D01*
X39675Y-20604D01*
X39795Y-20537D01*
X39795Y-37795D01*
X39795Y-37795D01*
G37*
G54D37*
X39795Y-37795D02*
X39604Y-37795D01*
X39604Y-20675D01*
X39000Y-20070D01*
X38929Y-20141D01*
X38929Y-20000D01*
X38324Y-19395D01*
X38188Y-19471D01*
X38047Y-19822D01*
X38052Y-20200D01*
X38188Y-20528D01*
X38324Y-20604D01*
X38929Y-20000D01*
X38929Y-20141D01*
X38395Y-20675D01*
X38471Y-20811D01*
X38822Y-20952D01*
X39200Y-20947D01*
X39528Y-20811D01*
X39604Y-20675D01*
X39604Y-37795D01*
X39500Y-37795D01*
X39212Y-37795D01*
X39212Y-23207D01*
X39148Y-23051D01*
X39028Y-22931D01*
X38872Y-22866D01*
X38703Y-22866D01*
X38546Y-22931D01*
X38427Y-23050D01*
X38390Y-23139D01*
X37398Y-23139D01*
X37364Y-23056D01*
X37243Y-22935D01*
X37085Y-22870D01*
X36914Y-22869D01*
X36756Y-22935D01*
X36635Y-23056D01*
X36597Y-23147D01*
X34355Y-23147D01*
X34355Y-23049D01*
X34335Y-23001D01*
X34298Y-22964D01*
X34250Y-22945D01*
X34199Y-22945D01*
X33949Y-22945D01*
X33901Y-22964D01*
X33864Y-23001D01*
X33861Y-23010D01*
X33850Y-22957D01*
X33850Y-22957D01*
X33817Y-22908D01*
X33564Y-22655D01*
X33650Y-22655D01*
X33698Y-22635D01*
X33735Y-22598D01*
X33755Y-22550D01*
X33755Y-22499D01*
X33755Y-22138D01*
X33845Y-22138D01*
X33845Y-22550D01*
X33864Y-22598D01*
X33901Y-22635D01*
X33949Y-22655D01*
X34000Y-22655D01*
X34250Y-22655D01*
X34298Y-22635D01*
X34335Y-22598D01*
X34355Y-22550D01*
X34355Y-22499D01*
X34355Y-22452D01*
X36570Y-22452D01*
X36570Y-22625D01*
X36589Y-22673D01*
X36626Y-22710D01*
X36674Y-22730D01*
X36725Y-22730D01*
X37325Y-22730D01*
X37373Y-22710D01*
X37410Y-22673D01*
X37430Y-22625D01*
X37430Y-22574D01*
X37430Y-22460D01*
X38390Y-22460D01*
X38426Y-22548D01*
X38546Y-22668D01*
X38702Y-22733D01*
X38871Y-22733D01*
X39027Y-22668D01*
X39147Y-22549D01*
X39212Y-22392D01*
X39212Y-22223D01*
X39148Y-22067D01*
X39028Y-21947D01*
X38872Y-21882D01*
X38703Y-21882D01*
X38546Y-21947D01*
X38443Y-22049D01*
X38443Y-20912D01*
X38376Y-20748D01*
X38251Y-20624D01*
X38088Y-20556D01*
X37912Y-20556D01*
X37748Y-20623D01*
X37624Y-20748D01*
X37556Y-20911D01*
X37556Y-21087D01*
X37623Y-21251D01*
X37748Y-21375D01*
X37911Y-21443D01*
X38087Y-21443D01*
X38251Y-21376D01*
X38375Y-21251D01*
X38443Y-21088D01*
X38443Y-20912D01*
X38443Y-22049D01*
X38427Y-22066D01*
X38390Y-22155D01*
X37430Y-22155D01*
X37430Y-21974D01*
X37410Y-21926D01*
X37373Y-21889D01*
X37325Y-21870D01*
X37274Y-21870D01*
X36674Y-21870D01*
X36626Y-21889D01*
X36589Y-21926D01*
X36570Y-21974D01*
X36570Y-22025D01*
X36570Y-22147D01*
X36425Y-22147D01*
X36425Y-20915D01*
X36425Y-19915D01*
X36360Y-19759D01*
X36241Y-19639D01*
X36085Y-19574D01*
X35915Y-19574D01*
X35759Y-19639D01*
X35639Y-19758D01*
X35574Y-19914D01*
X35574Y-20084D01*
X35639Y-20240D01*
X35758Y-20360D01*
X35914Y-20425D01*
X36084Y-20425D01*
X36240Y-20360D01*
X36360Y-20241D01*
X36425Y-20085D01*
X36425Y-19915D01*
X36425Y-20915D01*
X36360Y-20759D01*
X36241Y-20639D01*
X36085Y-20574D01*
X35915Y-20574D01*
X35759Y-20639D01*
X35639Y-20758D01*
X35574Y-20914D01*
X35574Y-21084D01*
X35639Y-21240D01*
X35758Y-21360D01*
X35914Y-21425D01*
X36084Y-21425D01*
X36240Y-21360D01*
X36360Y-21241D01*
X36425Y-21085D01*
X36425Y-20915D01*
X36425Y-22147D01*
X35425Y-22147D01*
X35425Y-20915D01*
X35425Y-19915D01*
X35360Y-19759D01*
X35241Y-19639D01*
X35085Y-19574D01*
X34915Y-19574D01*
X34759Y-19639D01*
X34639Y-19758D01*
X34574Y-19914D01*
X34574Y-20084D01*
X34639Y-20240D01*
X34758Y-20360D01*
X34914Y-20425D01*
X35084Y-20425D01*
X35240Y-20360D01*
X35360Y-20241D01*
X35425Y-20085D01*
X35425Y-19915D01*
X35425Y-20915D01*
X35360Y-20759D01*
X35241Y-20639D01*
X35085Y-20574D01*
X34915Y-20574D01*
X34759Y-20639D01*
X34639Y-20758D01*
X34574Y-20914D01*
X34574Y-21084D01*
X34639Y-21240D01*
X34758Y-21360D01*
X34914Y-21425D01*
X35084Y-21425D01*
X35240Y-21360D01*
X35360Y-21241D01*
X35425Y-21085D01*
X35425Y-20915D01*
X35425Y-22147D01*
X34921Y-22147D01*
X34963Y-22105D01*
X34996Y-22028D01*
X34996Y-21944D01*
X34964Y-21867D01*
X34905Y-21808D01*
X34828Y-21776D01*
X34744Y-21776D01*
X34667Y-21807D01*
X34641Y-21833D01*
X34425Y-21833D01*
X34425Y-20915D01*
X34425Y-19915D01*
X34360Y-19759D01*
X34241Y-19639D01*
X34085Y-19574D01*
X33915Y-19574D01*
X33759Y-19639D01*
X33639Y-19758D01*
X33574Y-19914D01*
X33574Y-20084D01*
X33639Y-20240D01*
X33758Y-20360D01*
X33914Y-20425D01*
X34084Y-20425D01*
X34240Y-20360D01*
X34360Y-20241D01*
X34425Y-20085D01*
X34425Y-19915D01*
X34425Y-20915D01*
X34360Y-20759D01*
X34241Y-20639D01*
X34085Y-20574D01*
X33915Y-20574D01*
X33759Y-20639D01*
X33639Y-20758D01*
X33574Y-20914D01*
X33574Y-21084D01*
X33639Y-21240D01*
X33758Y-21360D01*
X33914Y-21425D01*
X34084Y-21425D01*
X34240Y-21360D01*
X34360Y-21241D01*
X34425Y-21085D01*
X34425Y-20915D01*
X34425Y-21833D01*
X33425Y-21833D01*
X33425Y-20915D01*
X33425Y-19915D01*
X33360Y-19759D01*
X33241Y-19639D01*
X33085Y-19574D01*
X32915Y-19574D01*
X32759Y-19639D01*
X32639Y-19758D01*
X32574Y-19914D01*
X32574Y-20084D01*
X32639Y-20240D01*
X32758Y-20360D01*
X32914Y-20425D01*
X33084Y-20425D01*
X33240Y-20360D01*
X33360Y-20241D01*
X33425Y-20085D01*
X33425Y-19915D01*
X33425Y-20915D01*
X33360Y-20759D01*
X33241Y-20639D01*
X33085Y-20574D01*
X32915Y-20574D01*
X32759Y-20639D01*
X32639Y-20758D01*
X32574Y-20914D01*
X32574Y-21084D01*
X32639Y-21240D01*
X32758Y-21360D01*
X32914Y-21425D01*
X33084Y-21425D01*
X33240Y-21360D01*
X33360Y-21241D01*
X33425Y-21085D01*
X33425Y-20915D01*
X33425Y-21833D01*
X32425Y-21833D01*
X32425Y-20915D01*
X32425Y-19915D01*
X32360Y-19759D01*
X32241Y-19639D01*
X32085Y-19574D01*
X31915Y-19574D01*
X31759Y-19639D01*
X31639Y-19758D01*
X31574Y-19914D01*
X31574Y-20084D01*
X31639Y-20240D01*
X31758Y-20360D01*
X31914Y-20425D01*
X32084Y-20425D01*
X32240Y-20360D01*
X32360Y-20241D01*
X32425Y-20085D01*
X32425Y-19915D01*
X32425Y-20915D01*
X32360Y-20759D01*
X32241Y-20639D01*
X32085Y-20574D01*
X31915Y-20574D01*
X31759Y-20639D01*
X31639Y-20758D01*
X31574Y-20914D01*
X31574Y-21084D01*
X31639Y-21240D01*
X31758Y-21360D01*
X31914Y-21425D01*
X32084Y-21425D01*
X32240Y-21360D01*
X32360Y-21241D01*
X32425Y-21085D01*
X32425Y-20915D01*
X32425Y-21833D01*
X31425Y-21833D01*
X31425Y-20915D01*
X31425Y-19915D01*
X31360Y-19759D01*
X31241Y-19639D01*
X31085Y-19574D01*
X30915Y-19574D01*
X30759Y-19639D01*
X30639Y-19758D01*
X30574Y-19914D01*
X30574Y-20084D01*
X30639Y-20240D01*
X30758Y-20360D01*
X30914Y-20425D01*
X31084Y-20425D01*
X31240Y-20360D01*
X31360Y-20241D01*
X31425Y-20085D01*
X31425Y-19915D01*
X31425Y-20915D01*
X31360Y-20759D01*
X31241Y-20639D01*
X31085Y-20574D01*
X30915Y-20574D01*
X30759Y-20639D01*
X30639Y-20758D01*
X30574Y-20914D01*
X30574Y-21084D01*
X30639Y-21240D01*
X30758Y-21360D01*
X30914Y-21425D01*
X31084Y-21425D01*
X31240Y-21360D01*
X31360Y-21241D01*
X31425Y-21085D01*
X31425Y-20915D01*
X31425Y-21833D01*
X30742Y-21833D01*
X30684Y-21845D01*
X30634Y-21878D01*
X30604Y-21908D01*
X30571Y-21958D01*
X30559Y-22016D01*
X30559Y-22090D01*
X30555Y-22090D01*
X30555Y-22049D01*
X30535Y-22001D01*
X30498Y-21964D01*
X30450Y-21945D01*
X30425Y-21945D01*
X30425Y-20915D01*
X30425Y-19915D01*
X30360Y-19759D01*
X30241Y-19639D01*
X30085Y-19574D01*
X29915Y-19574D01*
X29759Y-19639D01*
X29639Y-19758D01*
X29574Y-19914D01*
X29574Y-20084D01*
X29639Y-20240D01*
X29758Y-20360D01*
X29914Y-20425D01*
X30084Y-20425D01*
X30240Y-20360D01*
X30360Y-20241D01*
X30425Y-20085D01*
X30425Y-19915D01*
X30425Y-20915D01*
X30360Y-20759D01*
X30241Y-20639D01*
X30085Y-20574D01*
X29915Y-20574D01*
X29759Y-20639D01*
X29639Y-20758D01*
X29574Y-20914D01*
X29574Y-21084D01*
X29639Y-21240D01*
X29758Y-21360D01*
X29914Y-21425D01*
X30084Y-21425D01*
X30240Y-21360D01*
X30360Y-21241D01*
X30425Y-21085D01*
X30425Y-20915D01*
X30425Y-21945D01*
X30399Y-21945D01*
X30149Y-21945D01*
X30101Y-21964D01*
X30064Y-22001D01*
X30054Y-22026D01*
X29708Y-21680D01*
X29659Y-21647D01*
X29601Y-21636D01*
X29425Y-21636D01*
X29425Y-20915D01*
X29425Y-19915D01*
X29360Y-19759D01*
X29241Y-19639D01*
X29085Y-19574D01*
X28915Y-19574D01*
X28759Y-19639D01*
X28639Y-19758D01*
X28574Y-19914D01*
X28574Y-20084D01*
X28639Y-20240D01*
X28758Y-20360D01*
X28914Y-20425D01*
X29084Y-20425D01*
X29240Y-20360D01*
X29360Y-20241D01*
X29425Y-20085D01*
X29425Y-19915D01*
X29425Y-20915D01*
X29360Y-20759D01*
X29241Y-20639D01*
X29085Y-20574D01*
X28915Y-20574D01*
X28759Y-20639D01*
X28639Y-20758D01*
X28574Y-20914D01*
X28574Y-21084D01*
X28639Y-21240D01*
X28758Y-21360D01*
X28914Y-21425D01*
X29084Y-21425D01*
X29240Y-21360D01*
X29360Y-21241D01*
X29425Y-21085D01*
X29425Y-20915D01*
X29425Y-21636D01*
X28425Y-21636D01*
X28425Y-20915D01*
X28425Y-19915D01*
X28360Y-19759D01*
X28241Y-19639D01*
X28085Y-19574D01*
X27915Y-19574D01*
X27759Y-19639D01*
X27639Y-19758D01*
X27574Y-19914D01*
X27574Y-20084D01*
X27639Y-20240D01*
X27758Y-20360D01*
X27914Y-20425D01*
X28084Y-20425D01*
X28240Y-20360D01*
X28360Y-20241D01*
X28425Y-20085D01*
X28425Y-19915D01*
X28425Y-20915D01*
X28360Y-20759D01*
X28241Y-20639D01*
X28085Y-20574D01*
X27915Y-20574D01*
X27759Y-20639D01*
X27639Y-20758D01*
X27574Y-20914D01*
X27574Y-21084D01*
X27639Y-21240D01*
X27758Y-21360D01*
X27914Y-21425D01*
X28084Y-21425D01*
X28240Y-21360D01*
X28360Y-21241D01*
X28425Y-21085D01*
X28425Y-20915D01*
X28425Y-21636D01*
X27425Y-21636D01*
X27425Y-20915D01*
X27425Y-19915D01*
X27360Y-19759D01*
X27241Y-19639D01*
X27085Y-19574D01*
X26915Y-19574D01*
X26759Y-19639D01*
X26639Y-19758D01*
X26574Y-19914D01*
X26574Y-20084D01*
X26639Y-20240D01*
X26758Y-20360D01*
X26914Y-20425D01*
X27084Y-20425D01*
X27240Y-20360D01*
X27360Y-20241D01*
X27425Y-20085D01*
X27425Y-19915D01*
X27425Y-20915D01*
X27360Y-20759D01*
X27241Y-20639D01*
X27085Y-20574D01*
X26915Y-20574D01*
X26759Y-20639D01*
X26639Y-20758D01*
X26574Y-20914D01*
X26574Y-21084D01*
X26639Y-21240D01*
X26758Y-21360D01*
X26914Y-21425D01*
X27084Y-21425D01*
X27240Y-21360D01*
X27360Y-21241D01*
X27425Y-21085D01*
X27425Y-20915D01*
X27425Y-21636D01*
X27418Y-21636D01*
X27359Y-21647D01*
X27310Y-21680D01*
X27250Y-21741D01*
X27220Y-21786D01*
X27198Y-21764D01*
X27150Y-21745D01*
X27099Y-21745D01*
X26849Y-21745D01*
X26801Y-21764D01*
X26764Y-21801D01*
X26745Y-21849D01*
X26745Y-21900D01*
X26745Y-21947D01*
X26425Y-21947D01*
X26425Y-20915D01*
X26425Y-19915D01*
X26360Y-19759D01*
X26241Y-19639D01*
X26085Y-19574D01*
X25915Y-19574D01*
X25759Y-19639D01*
X25639Y-19758D01*
X25574Y-19914D01*
X25574Y-20084D01*
X25639Y-20240D01*
X25758Y-20360D01*
X25914Y-20425D01*
X26084Y-20425D01*
X26240Y-20360D01*
X26360Y-20241D01*
X26425Y-20085D01*
X26425Y-19915D01*
X26425Y-20915D01*
X26360Y-20759D01*
X26241Y-20639D01*
X26085Y-20574D01*
X25915Y-20574D01*
X25759Y-20639D01*
X25639Y-20758D01*
X25574Y-20914D01*
X25574Y-21084D01*
X25639Y-21240D01*
X25758Y-21360D01*
X25914Y-21425D01*
X26084Y-21425D01*
X26240Y-21360D01*
X26360Y-21241D01*
X26425Y-21085D01*
X26425Y-20915D01*
X26425Y-21947D01*
X25425Y-21947D01*
X25425Y-20915D01*
X25425Y-19915D01*
X25360Y-19759D01*
X25241Y-19639D01*
X25085Y-19574D01*
X24915Y-19574D01*
X24759Y-19639D01*
X24639Y-19758D01*
X24574Y-19914D01*
X24574Y-20084D01*
X24639Y-20240D01*
X24758Y-20360D01*
X24914Y-20425D01*
X25084Y-20425D01*
X25240Y-20360D01*
X25360Y-20241D01*
X25425Y-20085D01*
X25425Y-19915D01*
X25425Y-20915D01*
X25360Y-20759D01*
X25241Y-20639D01*
X25085Y-20574D01*
X24915Y-20574D01*
X24759Y-20639D01*
X24639Y-20758D01*
X24574Y-20914D01*
X24574Y-21084D01*
X24639Y-21240D01*
X24758Y-21360D01*
X24914Y-21425D01*
X25084Y-21425D01*
X25240Y-21360D01*
X25360Y-21241D01*
X25425Y-21085D01*
X25425Y-20915D01*
X25425Y-21947D01*
X24700Y-21947D01*
X24641Y-21959D01*
X24592Y-21992D01*
X24425Y-22158D01*
X24425Y-20915D01*
X24425Y-19915D01*
X24360Y-19759D01*
X24241Y-19639D01*
X24085Y-19574D01*
X23915Y-19574D01*
X23759Y-19639D01*
X23639Y-19758D01*
X23574Y-19914D01*
X23574Y-20084D01*
X23639Y-20240D01*
X23758Y-20360D01*
X23914Y-20425D01*
X24084Y-20425D01*
X24240Y-20360D01*
X24360Y-20241D01*
X24425Y-20085D01*
X24425Y-19915D01*
X24425Y-20915D01*
X24360Y-20759D01*
X24241Y-20639D01*
X24085Y-20574D01*
X23915Y-20574D01*
X23759Y-20639D01*
X23639Y-20758D01*
X23574Y-20914D01*
X23574Y-21084D01*
X23639Y-21240D01*
X23758Y-21360D01*
X23914Y-21425D01*
X24084Y-21425D01*
X24240Y-21360D01*
X24360Y-21241D01*
X24425Y-21085D01*
X24425Y-20915D01*
X24425Y-22158D01*
X24167Y-22416D01*
X24157Y-22412D01*
X24043Y-22412D01*
X23937Y-22456D01*
X23856Y-22536D01*
X23812Y-22642D01*
X23812Y-22756D01*
X23856Y-22862D01*
X23936Y-22943D01*
X23947Y-22947D01*
X23947Y-23336D01*
X23924Y-23359D01*
X23700Y-23359D01*
X23641Y-23371D01*
X23592Y-23404D01*
X23565Y-23445D01*
X23449Y-23445D01*
X23425Y-23454D01*
X23425Y-21321D01*
X23425Y-21269D01*
X23425Y-20678D01*
X23425Y-20321D01*
X23425Y-20269D01*
X23425Y-19678D01*
X23405Y-19630D01*
X23369Y-19594D01*
X23321Y-19574D01*
X23269Y-19574D01*
X22678Y-19574D01*
X22630Y-19594D01*
X22594Y-19630D01*
X22574Y-19678D01*
X22574Y-19730D01*
X22574Y-20321D01*
X22594Y-20369D01*
X22630Y-20405D01*
X22678Y-20425D01*
X22730Y-20425D01*
X23321Y-20425D01*
X23369Y-20405D01*
X23405Y-20369D01*
X23425Y-20321D01*
X23425Y-20678D01*
X23405Y-20630D01*
X23369Y-20594D01*
X23321Y-20574D01*
X23269Y-20574D01*
X22678Y-20574D01*
X22630Y-20594D01*
X22594Y-20630D01*
X22574Y-20678D01*
X22574Y-20730D01*
X22574Y-21321D01*
X22594Y-21369D01*
X22630Y-21405D01*
X22678Y-21425D01*
X22730Y-21425D01*
X23321Y-21425D01*
X23369Y-21405D01*
X23405Y-21369D01*
X23425Y-21321D01*
X23425Y-23454D01*
X23401Y-23464D01*
X23364Y-23501D01*
X23345Y-23549D01*
X23345Y-23600D01*
X23345Y-23735D01*
X22638Y-23735D01*
X22638Y-22762D01*
X22638Y-22662D01*
X22638Y-22392D01*
X22638Y-22167D01*
X22638Y-21896D01*
X22638Y-21796D01*
X22600Y-21704D01*
X22530Y-21634D01*
X22438Y-21596D01*
X21812Y-21596D01*
X21750Y-21658D01*
X21750Y-22229D01*
X22576Y-22229D01*
X22638Y-22167D01*
X22638Y-22392D01*
X22576Y-22329D01*
X21750Y-22329D01*
X21750Y-22900D01*
X21812Y-22962D01*
X22438Y-22962D01*
X22530Y-22924D01*
X22600Y-22854D01*
X22638Y-22762D01*
X22638Y-23735D01*
X22537Y-23735D01*
X22478Y-23746D01*
X22429Y-23779D01*
X22092Y-24116D01*
X22065Y-24157D01*
X22056Y-24157D01*
X22037Y-24164D01*
X22030Y-24145D01*
X21959Y-24075D01*
X21867Y-24037D01*
X21812Y-24037D01*
X21750Y-24099D01*
X21750Y-24670D01*
X21757Y-24670D01*
X21757Y-24770D01*
X21750Y-24770D01*
X21750Y-25341D01*
X21812Y-25403D01*
X21867Y-25403D01*
X21959Y-25365D01*
X22030Y-25295D01*
X22037Y-25276D01*
X22056Y-25283D01*
X22107Y-25283D01*
X22343Y-25283D01*
X22391Y-25263D01*
X22428Y-25227D01*
X22448Y-25179D01*
X22448Y-25127D01*
X22448Y-24261D01*
X22428Y-24213D01*
X22427Y-24212D01*
X22600Y-24040D01*
X23700Y-24040D01*
X23758Y-24028D01*
X23807Y-23995D01*
X23834Y-23955D01*
X23950Y-23955D01*
X23998Y-23935D01*
X24035Y-23898D01*
X24055Y-23850D01*
X24055Y-23799D01*
X24055Y-23647D01*
X24055Y-23647D01*
X24095Y-23620D01*
X24145Y-23570D01*
X24145Y-23600D01*
X24145Y-23850D01*
X24164Y-23898D01*
X24201Y-23935D01*
X24249Y-23955D01*
X24300Y-23955D01*
X24750Y-23955D01*
X24798Y-23935D01*
X24808Y-23925D01*
X24823Y-23934D01*
X24823Y-23934D01*
X24881Y-23946D01*
X24973Y-23946D01*
X24933Y-23963D01*
X24863Y-24033D01*
X24834Y-24101D01*
X24798Y-24064D01*
X24750Y-24045D01*
X24699Y-24045D01*
X24249Y-24045D01*
X24201Y-24064D01*
X24164Y-24101D01*
X24145Y-24149D01*
X24145Y-24200D01*
X24145Y-24335D01*
X24055Y-24335D01*
X24055Y-24149D01*
X24035Y-24101D01*
X23998Y-24064D01*
X23950Y-24045D01*
X23899Y-24045D01*
X23449Y-24045D01*
X23401Y-24064D01*
X23364Y-24101D01*
X23345Y-24149D01*
X23345Y-24200D01*
X23345Y-24450D01*
X23364Y-24498D01*
X23401Y-24535D01*
X23449Y-24555D01*
X23500Y-24555D01*
X23547Y-24555D01*
X23547Y-24645D01*
X23449Y-24645D01*
X23401Y-24664D01*
X23364Y-24701D01*
X23345Y-24749D01*
X23345Y-24800D01*
X23345Y-25050D01*
X23350Y-25063D01*
X22948Y-25063D01*
X22948Y-24261D01*
X22928Y-24213D01*
X22891Y-24177D01*
X22843Y-24157D01*
X22792Y-24157D01*
X22556Y-24157D01*
X22508Y-24177D01*
X22471Y-24213D01*
X22451Y-24261D01*
X22451Y-24313D01*
X22451Y-25179D01*
X22471Y-25227D01*
X22508Y-25263D01*
X22556Y-25283D01*
X22565Y-25283D01*
X22592Y-25324D01*
X22641Y-25357D01*
X22700Y-25368D01*
X23225Y-25368D01*
X23225Y-25387D01*
X23287Y-25450D01*
X23650Y-25450D01*
X23650Y-25442D01*
X23750Y-25442D01*
X23750Y-25450D01*
X24112Y-25450D01*
X24175Y-25387D01*
X24175Y-25325D01*
X24136Y-25233D01*
X24066Y-25163D01*
X23998Y-25134D01*
X24035Y-25098D01*
X24055Y-25050D01*
X24055Y-24999D01*
X24055Y-24749D01*
X24035Y-24701D01*
X23998Y-24664D01*
X23950Y-24645D01*
X23899Y-24645D01*
X23852Y-24645D01*
X23852Y-24640D01*
X24500Y-24640D01*
X24558Y-24628D01*
X24607Y-24595D01*
X24634Y-24555D01*
X24750Y-24555D01*
X24798Y-24535D01*
X24834Y-24498D01*
X24863Y-24566D01*
X24933Y-24636D01*
X25025Y-24675D01*
X25124Y-24675D01*
X25187Y-24675D01*
X25250Y-24612D01*
X25250Y-24350D01*
X25242Y-24350D01*
X25242Y-24250D01*
X25250Y-24250D01*
X25250Y-24242D01*
X25350Y-24242D01*
X25350Y-24250D01*
X25357Y-24250D01*
X25357Y-24350D01*
X25350Y-24350D01*
X25350Y-24612D01*
X25412Y-24675D01*
X25475Y-24675D01*
X25574Y-24675D01*
X25666Y-24636D01*
X25736Y-24566D01*
X25775Y-24474D01*
X25775Y-24412D01*
X25712Y-24350D01*
X25721Y-24350D01*
X26769Y-25397D01*
X26764Y-25401D01*
X26745Y-25449D01*
X26745Y-25500D01*
X26745Y-25950D01*
X26764Y-25998D01*
X26801Y-26034D01*
X26733Y-26063D01*
X26663Y-26133D01*
X26625Y-26225D01*
X26625Y-26324D01*
X26625Y-26387D01*
X26687Y-26450D01*
X26950Y-26450D01*
X26950Y-26442D01*
X27050Y-26442D01*
X27050Y-26450D01*
X27057Y-26450D01*
X27057Y-26550D01*
X27050Y-26550D01*
X27050Y-26557D01*
X26950Y-26557D01*
X26950Y-26550D01*
X26687Y-26550D01*
X26625Y-26612D01*
X26625Y-26675D01*
X26625Y-26774D01*
X26663Y-26866D01*
X26679Y-26883D01*
X26608Y-26913D01*
X26538Y-26983D01*
X26500Y-27075D01*
X26500Y-27174D01*
X26500Y-27287D01*
X26562Y-27350D01*
X26875Y-27350D01*
X26875Y-27342D01*
X26950Y-27342D01*
X26975Y-27342D01*
X26975Y-27350D01*
X27287Y-27350D01*
X27350Y-27287D01*
X27350Y-27174D01*
X27350Y-27075D01*
X27311Y-26983D01*
X27265Y-26937D01*
X27266Y-26936D01*
X27336Y-26866D01*
X27365Y-26798D01*
X27401Y-26835D01*
X27449Y-26855D01*
X27465Y-26855D01*
X27465Y-26855D01*
X27492Y-26895D01*
X27522Y-26925D01*
X27522Y-26995D01*
X27474Y-26995D01*
X27426Y-27014D01*
X27389Y-27051D01*
X27370Y-27099D01*
X27370Y-27150D01*
X27370Y-27527D01*
X27350Y-27527D01*
X27350Y-27512D01*
X27287Y-27450D01*
X26975Y-27450D01*
X26975Y-27862D01*
X27037Y-27925D01*
X27149Y-27925D01*
X27205Y-27901D01*
X27219Y-27915D01*
X27296Y-27947D01*
X27380Y-27947D01*
X27457Y-27915D01*
X27483Y-27890D01*
X27902Y-27890D01*
X27960Y-27878D01*
X27960Y-27878D01*
X28010Y-27845D01*
X28445Y-27410D01*
X28445Y-27650D01*
X28464Y-27698D01*
X28501Y-27735D01*
X28549Y-27755D01*
X28600Y-27755D01*
X28653Y-27755D01*
X28653Y-28718D01*
X28645Y-28726D01*
X28635Y-28701D01*
X28598Y-28664D01*
X28550Y-28645D01*
X28499Y-28645D01*
X28249Y-28645D01*
X28201Y-28664D01*
X28165Y-28701D01*
X28136Y-28633D01*
X28066Y-28563D01*
X27974Y-28525D01*
X27912Y-28525D01*
X27850Y-28587D01*
X27850Y-28950D01*
X27857Y-28950D01*
X27857Y-29050D01*
X27850Y-29050D01*
X27850Y-29057D01*
X27750Y-29057D01*
X27750Y-29050D01*
X27750Y-28950D01*
X27750Y-28587D01*
X27687Y-28525D01*
X27625Y-28525D01*
X27533Y-28563D01*
X27463Y-28633D01*
X27425Y-28725D01*
X27425Y-28824D01*
X27425Y-28887D01*
X27487Y-28950D01*
X27750Y-28950D01*
X27750Y-29050D01*
X27487Y-29050D01*
X27478Y-29058D01*
X26950Y-29058D01*
X26875Y-29058D01*
X26875Y-27862D01*
X26875Y-27450D01*
X26562Y-27450D01*
X26500Y-27512D01*
X26500Y-27625D01*
X26500Y-27724D01*
X26538Y-27816D01*
X26608Y-27886D01*
X26700Y-27925D01*
X26812Y-27925D01*
X26875Y-27862D01*
X26875Y-29058D01*
X25775Y-29058D01*
X24175Y-29058D01*
X24175Y-25674D01*
X24175Y-25612D01*
X24112Y-25550D01*
X23750Y-25550D01*
X23750Y-25812D01*
X23812Y-25875D01*
X23875Y-25875D01*
X23974Y-25875D01*
X24066Y-25836D01*
X24136Y-25766D01*
X24175Y-25674D01*
X24175Y-29058D01*
X23650Y-29058D01*
X23650Y-25812D01*
X23650Y-25550D01*
X23287Y-25550D01*
X23225Y-25612D01*
X23225Y-25674D01*
X23263Y-25766D01*
X23333Y-25836D01*
X23425Y-25875D01*
X23524Y-25875D01*
X23587Y-25875D01*
X23650Y-25812D01*
X23650Y-29058D01*
X21525Y-29058D01*
X21525Y-26951D01*
X21460Y-26795D01*
X21341Y-26675D01*
X21184Y-26611D01*
X21015Y-26610D01*
X20859Y-26675D01*
X20739Y-26795D01*
X20674Y-26951D01*
X20674Y-27120D01*
X20739Y-27276D01*
X20858Y-27396D01*
X21015Y-27461D01*
X21184Y-27461D01*
X21340Y-27396D01*
X21460Y-27277D01*
X21525Y-27121D01*
X21525Y-26951D01*
X21525Y-29058D01*
X21104Y-29058D01*
X21046Y-29070D01*
X20996Y-29103D01*
X20916Y-29183D01*
X20898Y-29164D01*
X20850Y-29145D01*
X20799Y-29145D01*
X20549Y-29145D01*
X20501Y-29164D01*
X20464Y-29201D01*
X20454Y-29226D01*
X20275Y-29046D01*
X20275Y-25474D01*
X20275Y-25412D01*
X20212Y-25350D01*
X19850Y-25350D01*
X19850Y-25612D01*
X19912Y-25675D01*
X19975Y-25675D01*
X20074Y-25675D01*
X20166Y-25636D01*
X20236Y-25566D01*
X20275Y-25474D01*
X20275Y-29046D01*
X19644Y-28416D01*
X19644Y-25675D01*
X19687Y-25675D01*
X19750Y-25612D01*
X19750Y-25350D01*
X19644Y-25350D01*
X19644Y-25250D01*
X19750Y-25250D01*
X19750Y-25242D01*
X19850Y-25242D01*
X19850Y-25250D01*
X20212Y-25250D01*
X20275Y-25187D01*
X20275Y-25125D01*
X20236Y-25033D01*
X20166Y-24963D01*
X20098Y-24934D01*
X20135Y-24898D01*
X20155Y-24850D01*
X20155Y-24799D01*
X20155Y-24625D01*
X20451Y-24625D01*
X20451Y-25179D01*
X20471Y-25227D01*
X20508Y-25263D01*
X20556Y-25283D01*
X20607Y-25283D01*
X20843Y-25283D01*
X20891Y-25263D01*
X20928Y-25227D01*
X20948Y-25179D01*
X20948Y-25127D01*
X20948Y-24377D01*
X20951Y-24377D01*
X20951Y-25179D01*
X20971Y-25227D01*
X21008Y-25263D01*
X21056Y-25283D01*
X21107Y-25283D01*
X21343Y-25283D01*
X21362Y-25276D01*
X21369Y-25295D01*
X21440Y-25365D01*
X21532Y-25403D01*
X21587Y-25403D01*
X21650Y-25341D01*
X21650Y-24770D01*
X21642Y-24770D01*
X21642Y-24670D01*
X21650Y-24670D01*
X21650Y-24099D01*
X21650Y-22900D01*
X21650Y-22329D01*
X21650Y-22229D01*
X21650Y-21658D01*
X21587Y-21596D01*
X21310Y-21596D01*
X21310Y-21233D01*
X21278Y-21156D01*
X21219Y-21097D01*
X21141Y-21065D01*
X21058Y-21064D01*
X20981Y-21096D01*
X20955Y-21122D01*
X20750Y-21122D01*
X20691Y-21134D01*
X20642Y-21167D01*
X19819Y-21989D01*
X19783Y-21989D01*
X19706Y-22021D01*
X19647Y-22080D01*
X19615Y-22158D01*
X19614Y-22241D01*
X19646Y-22318D01*
X19705Y-22377D01*
X19783Y-22409D01*
X19866Y-22410D01*
X19943Y-22378D01*
X20002Y-22319D01*
X20034Y-22241D01*
X20034Y-22205D01*
X20813Y-21427D01*
X20955Y-21427D01*
X20980Y-21452D01*
X21058Y-21484D01*
X21141Y-21485D01*
X21218Y-21453D01*
X21277Y-21394D01*
X21309Y-21316D01*
X21310Y-21233D01*
X21310Y-21596D01*
X20961Y-21596D01*
X20869Y-21634D01*
X20799Y-21704D01*
X20761Y-21796D01*
X20761Y-21896D01*
X20761Y-22167D01*
X20823Y-22229D01*
X21650Y-22229D01*
X21650Y-22329D01*
X20823Y-22329D01*
X20761Y-22392D01*
X20761Y-22662D01*
X20761Y-22762D01*
X20799Y-22854D01*
X20869Y-22924D01*
X20961Y-22962D01*
X21587Y-22962D01*
X21650Y-22900D01*
X21650Y-24099D01*
X21587Y-24037D01*
X21532Y-24037D01*
X21440Y-24075D01*
X21369Y-24145D01*
X21362Y-24164D01*
X21343Y-24157D01*
X21334Y-24157D01*
X21307Y-24116D01*
X21258Y-24083D01*
X21200Y-24072D01*
X20700Y-24072D01*
X20641Y-24083D01*
X20592Y-24116D01*
X20565Y-24157D01*
X20556Y-24157D01*
X20508Y-24177D01*
X20489Y-24196D01*
X20424Y-24196D01*
X20073Y-23845D01*
X20098Y-23835D01*
X20135Y-23798D01*
X20155Y-23750D01*
X20155Y-23699D01*
X20155Y-23449D01*
X20135Y-23401D01*
X20098Y-23365D01*
X20166Y-23336D01*
X20236Y-23266D01*
X20275Y-23174D01*
X20275Y-23112D01*
X20275Y-22887D01*
X20275Y-22825D01*
X20236Y-22733D01*
X20166Y-22663D01*
X20074Y-22625D01*
X19975Y-22625D01*
X19912Y-22625D01*
X19850Y-22687D01*
X19850Y-22950D01*
X20212Y-22950D01*
X20275Y-22887D01*
X20275Y-23112D01*
X20212Y-23050D01*
X19850Y-23050D01*
X19850Y-23057D01*
X19750Y-23057D01*
X19750Y-23050D01*
X19750Y-22950D01*
X19750Y-22687D01*
X19687Y-22625D01*
X19624Y-22625D01*
X19525Y-22625D01*
X19433Y-22663D01*
X19363Y-22733D01*
X19325Y-22825D01*
X19325Y-22887D01*
X19387Y-22950D01*
X19750Y-22950D01*
X19750Y-23050D01*
X19387Y-23050D01*
X19325Y-23112D01*
X19325Y-23174D01*
X19363Y-23266D01*
X19433Y-23336D01*
X19501Y-23365D01*
X19464Y-23401D01*
X19445Y-23449D01*
X19445Y-23500D01*
X19445Y-23750D01*
X19464Y-23798D01*
X19501Y-23835D01*
X19549Y-23855D01*
X19600Y-23855D01*
X19665Y-23855D01*
X19665Y-23855D01*
X19692Y-23895D01*
X20116Y-24320D01*
X19839Y-24320D01*
X19781Y-24331D01*
X19731Y-24364D01*
X19692Y-24404D01*
X19665Y-24445D01*
X19549Y-24445D01*
X19501Y-24464D01*
X19464Y-24501D01*
X19445Y-24549D01*
X19445Y-24600D01*
X19445Y-24745D01*
X19384Y-24806D01*
X19351Y-24855D01*
X19339Y-24914D01*
X19339Y-25090D01*
X19325Y-25125D01*
X19325Y-25187D01*
X19339Y-25202D01*
X19339Y-25397D01*
X19325Y-25412D01*
X19325Y-25474D01*
X19339Y-25509D01*
X19339Y-28479D01*
X19351Y-28538D01*
X19384Y-28587D01*
X20404Y-29607D01*
X20445Y-29634D01*
X20445Y-29750D01*
X20464Y-29798D01*
X20501Y-29835D01*
X20547Y-29854D01*
X20547Y-29945D01*
X20501Y-29964D01*
X20464Y-30001D01*
X20445Y-30049D01*
X20445Y-30100D01*
X20445Y-30550D01*
X20464Y-30598D01*
X20501Y-30635D01*
X20549Y-30655D01*
X20565Y-30655D01*
X20565Y-30655D01*
X20592Y-30695D01*
X20641Y-30744D01*
X20641Y-30745D01*
X20549Y-30745D01*
X20501Y-30764D01*
X20464Y-30801D01*
X20445Y-30849D01*
X20445Y-30900D01*
X20445Y-31350D01*
X20464Y-31398D01*
X20501Y-31435D01*
X20549Y-31455D01*
X20600Y-31455D01*
X20793Y-31455D01*
X20793Y-31545D01*
X20549Y-31545D01*
X20501Y-31564D01*
X20464Y-31601D01*
X20445Y-31649D01*
X20445Y-31700D01*
X20445Y-32150D01*
X20464Y-32198D01*
X20501Y-32235D01*
X20547Y-32254D01*
X20547Y-32345D01*
X20501Y-32364D01*
X20464Y-32401D01*
X20445Y-32449D01*
X20445Y-32500D01*
X20445Y-32950D01*
X20464Y-32998D01*
X20501Y-33035D01*
X20547Y-33054D01*
X20547Y-33145D01*
X20501Y-33164D01*
X20464Y-33201D01*
X20445Y-33249D01*
X20445Y-33300D01*
X20445Y-33750D01*
X20464Y-33798D01*
X20501Y-33835D01*
X20549Y-33855D01*
X20565Y-33855D01*
X20592Y-33895D01*
X20641Y-33928D01*
X20700Y-33940D01*
X20811Y-33940D01*
X21879Y-35007D01*
X21920Y-35034D01*
X21920Y-35200D01*
X21939Y-35248D01*
X21976Y-35285D01*
X22024Y-35305D01*
X22072Y-35305D01*
X22072Y-35537D01*
X22081Y-35584D01*
X22064Y-35601D01*
X22045Y-35649D01*
X22045Y-35700D01*
X22045Y-36150D01*
X22064Y-36198D01*
X22101Y-36235D01*
X22149Y-36255D01*
X22200Y-36255D01*
X22450Y-36255D01*
X22498Y-36235D01*
X22534Y-36198D01*
X22563Y-36266D01*
X22633Y-36336D01*
X22725Y-36375D01*
X22787Y-36375D01*
X22850Y-36312D01*
X22850Y-35950D01*
X22842Y-35950D01*
X22842Y-35850D01*
X22850Y-35850D01*
X22850Y-35487D01*
X22787Y-35425D01*
X22862Y-35425D01*
X22925Y-35362D01*
X22925Y-34950D01*
X22925Y-34850D01*
X22925Y-34437D01*
X22862Y-34375D01*
X22750Y-34375D01*
X22658Y-34413D01*
X22588Y-34483D01*
X22550Y-34575D01*
X22550Y-34674D01*
X22550Y-34787D01*
X22612Y-34850D01*
X22925Y-34850D01*
X22925Y-34950D01*
X22612Y-34950D01*
X22550Y-35012D01*
X22550Y-35125D01*
X22550Y-35224D01*
X22588Y-35316D01*
X22658Y-35386D01*
X22750Y-35425D01*
X22725Y-35425D01*
X22633Y-35463D01*
X22563Y-35533D01*
X22534Y-35601D01*
X22498Y-35564D01*
X22450Y-35545D01*
X22434Y-35545D01*
X22407Y-35504D01*
X22377Y-35474D01*
X22377Y-35305D01*
X22425Y-35305D01*
X22473Y-35285D01*
X22510Y-35248D01*
X22530Y-35200D01*
X22530Y-35149D01*
X22530Y-34599D01*
X22510Y-34551D01*
X22473Y-34514D01*
X22425Y-34495D01*
X22374Y-34495D01*
X22024Y-34495D01*
X21976Y-34514D01*
X21939Y-34551D01*
X21920Y-34599D01*
X21920Y-34616D01*
X21243Y-33940D01*
X23805Y-33940D01*
X23806Y-33940D01*
X23806Y-33940D01*
X23835Y-33934D01*
X23864Y-33928D01*
X23864Y-33928D01*
X23865Y-33928D01*
X23889Y-33911D01*
X23913Y-33895D01*
X23914Y-33895D01*
X23914Y-33894D01*
X25949Y-31833D01*
X27635Y-31833D01*
X25644Y-33824D01*
X25608Y-33824D01*
X25531Y-33856D01*
X25472Y-33915D01*
X25440Y-33993D01*
X25439Y-34076D01*
X25471Y-34153D01*
X25530Y-34212D01*
X25608Y-34244D01*
X25691Y-34245D01*
X25768Y-34213D01*
X25827Y-34154D01*
X25859Y-34076D01*
X25859Y-34040D01*
X27843Y-32057D01*
X30920Y-32057D01*
X30978Y-32045D01*
X30978Y-32045D01*
X31027Y-32012D01*
X31589Y-31451D01*
X31607Y-31451D01*
X31599Y-31478D01*
X31612Y-31616D01*
X31635Y-31671D01*
X31599Y-31793D01*
X31612Y-31931D01*
X31635Y-31986D01*
X31599Y-32108D01*
X31612Y-32246D01*
X31637Y-32304D01*
X29130Y-32304D01*
X29071Y-32316D01*
X29022Y-32349D01*
X28745Y-32626D01*
X28735Y-32601D01*
X28698Y-32564D01*
X28650Y-32545D01*
X28599Y-32545D01*
X28349Y-32545D01*
X28338Y-32549D01*
X28318Y-32501D01*
X28259Y-32441D01*
X28181Y-32409D01*
X28098Y-32409D01*
X28061Y-32425D01*
X28012Y-32425D01*
X27950Y-32487D01*
X27950Y-32529D01*
X27929Y-32577D01*
X27929Y-32661D01*
X27935Y-32674D01*
X27935Y-32957D01*
X27850Y-32957D01*
X27850Y-32950D01*
X27850Y-32850D01*
X27850Y-32487D01*
X27787Y-32425D01*
X27725Y-32425D01*
X27633Y-32463D01*
X27563Y-32533D01*
X27525Y-32625D01*
X27525Y-32724D01*
X27525Y-32787D01*
X27587Y-32850D01*
X27850Y-32850D01*
X27850Y-32950D01*
X27587Y-32950D01*
X27525Y-33012D01*
X27525Y-33075D01*
X27525Y-33174D01*
X27563Y-33266D01*
X27633Y-33336D01*
X27701Y-33365D01*
X27664Y-33401D01*
X27645Y-33449D01*
X27645Y-33500D01*
X27645Y-33950D01*
X27664Y-33998D01*
X27701Y-34035D01*
X27749Y-34055D01*
X27800Y-34055D01*
X28050Y-34055D01*
X28098Y-34035D01*
X28134Y-33999D01*
X28232Y-34096D01*
X28281Y-34129D01*
X28281Y-34129D01*
X28340Y-34141D01*
X28696Y-34141D01*
X28721Y-34166D01*
X28798Y-34198D01*
X28882Y-34198D01*
X28959Y-34166D01*
X28985Y-34141D01*
X31675Y-34141D01*
X31712Y-34178D01*
X31639Y-34180D01*
X31599Y-34312D01*
X31603Y-34356D01*
X30276Y-34356D01*
X30274Y-34350D01*
X30215Y-34291D01*
X30137Y-34259D01*
X30054Y-34259D01*
X29977Y-34291D01*
X29917Y-34350D01*
X29885Y-34427D01*
X29885Y-34459D01*
X27131Y-34459D01*
X27073Y-34471D01*
X27023Y-34504D01*
X26930Y-34597D01*
X26898Y-34564D01*
X26850Y-34545D01*
X26799Y-34545D01*
X26549Y-34545D01*
X26501Y-34564D01*
X26464Y-34601D01*
X26445Y-34649D01*
X26445Y-34700D01*
X26445Y-35150D01*
X26464Y-35198D01*
X26501Y-35235D01*
X26549Y-35255D01*
X26565Y-35255D01*
X26592Y-35295D01*
X26641Y-35328D01*
X26663Y-35332D01*
X26767Y-35437D01*
X26689Y-35437D01*
X26641Y-35456D01*
X26605Y-35493D01*
X26585Y-35541D01*
X26585Y-35592D01*
X26585Y-36458D01*
X26599Y-36492D01*
X25355Y-36492D01*
X25297Y-36503D01*
X25247Y-36536D01*
X24173Y-37611D01*
X24085Y-37574D01*
X23915Y-37574D01*
X23759Y-37639D01*
X23639Y-37758D01*
X23574Y-37914D01*
X23574Y-38084D01*
X23639Y-38240D01*
X23758Y-38360D01*
X23914Y-38425D01*
X24084Y-38425D01*
X24240Y-38360D01*
X24360Y-38241D01*
X24425Y-38085D01*
X24425Y-37915D01*
X24388Y-37826D01*
X25418Y-36797D01*
X29772Y-36797D01*
X29831Y-36785D01*
X29831Y-36785D01*
X29880Y-36752D01*
X30122Y-36510D01*
X30147Y-36510D01*
X30187Y-36550D01*
X30550Y-36550D01*
X30550Y-36542D01*
X30650Y-36542D01*
X30650Y-36550D01*
X30987Y-36550D01*
X31012Y-36550D01*
X31350Y-36550D01*
X31350Y-36542D01*
X31450Y-36542D01*
X31450Y-36550D01*
X31457Y-36550D01*
X31457Y-36650D01*
X31450Y-36650D01*
X31450Y-36912D01*
X31512Y-36975D01*
X31575Y-36975D01*
X31674Y-36975D01*
X31766Y-36936D01*
X31797Y-36906D01*
X32507Y-37616D01*
X32556Y-37649D01*
X32556Y-37649D01*
X32614Y-37661D01*
X32737Y-37661D01*
X32639Y-37758D01*
X32574Y-37914D01*
X32574Y-38084D01*
X32639Y-38240D01*
X32745Y-38347D01*
X32254Y-38347D01*
X32360Y-38241D01*
X32425Y-38085D01*
X32425Y-37915D01*
X32360Y-37759D01*
X32241Y-37639D01*
X32085Y-37574D01*
X31915Y-37574D01*
X31759Y-37639D01*
X31639Y-37758D01*
X31574Y-37914D01*
X31574Y-38084D01*
X31639Y-38240D01*
X31745Y-38347D01*
X31254Y-38347D01*
X31360Y-38241D01*
X31425Y-38085D01*
X31425Y-37915D01*
X31360Y-37759D01*
X31350Y-37748D01*
X31350Y-36912D01*
X31350Y-36650D01*
X31012Y-36650D01*
X30987Y-36650D01*
X30650Y-36650D01*
X30650Y-36912D01*
X30712Y-36975D01*
X30775Y-36975D01*
X30874Y-36975D01*
X30966Y-36936D01*
X31000Y-36903D01*
X31033Y-36936D01*
X31125Y-36975D01*
X31224Y-36975D01*
X31287Y-36975D01*
X31350Y-36912D01*
X31350Y-37748D01*
X31241Y-37639D01*
X31085Y-37574D01*
X30915Y-37574D01*
X30759Y-37639D01*
X30639Y-37758D01*
X30574Y-37914D01*
X30574Y-38084D01*
X30639Y-38240D01*
X30745Y-38347D01*
X30550Y-38347D01*
X30550Y-36912D01*
X30550Y-36650D01*
X30187Y-36650D01*
X30125Y-36712D01*
X30125Y-36774D01*
X30163Y-36866D01*
X30233Y-36936D01*
X30325Y-36975D01*
X30424Y-36975D01*
X30487Y-36975D01*
X30550Y-36912D01*
X30550Y-38347D01*
X30254Y-38347D01*
X30360Y-38241D01*
X30425Y-38085D01*
X30425Y-37915D01*
X30360Y-37759D01*
X30241Y-37639D01*
X30085Y-37574D01*
X29915Y-37574D01*
X29759Y-37639D01*
X29639Y-37758D01*
X29574Y-37914D01*
X29574Y-38084D01*
X29639Y-38240D01*
X29745Y-38347D01*
X29254Y-38347D01*
X29360Y-38241D01*
X29425Y-38085D01*
X29425Y-37915D01*
X29360Y-37759D01*
X29241Y-37639D01*
X29085Y-37574D01*
X28915Y-37574D01*
X28759Y-37639D01*
X28639Y-37758D01*
X28574Y-37914D01*
X28574Y-38084D01*
X28639Y-38240D01*
X28745Y-38347D01*
X28254Y-38347D01*
X28360Y-38241D01*
X28425Y-38085D01*
X28425Y-37915D01*
X28360Y-37759D01*
X28241Y-37639D01*
X28085Y-37574D01*
X27915Y-37574D01*
X27759Y-37639D01*
X27639Y-37758D01*
X27574Y-37914D01*
X27574Y-38084D01*
X27639Y-38240D01*
X27745Y-38347D01*
X27254Y-38347D01*
X27360Y-38241D01*
X27425Y-38085D01*
X27425Y-37915D01*
X27360Y-37759D01*
X27241Y-37639D01*
X27085Y-37574D01*
X26915Y-37574D01*
X26759Y-37639D01*
X26639Y-37758D01*
X26574Y-37914D01*
X26574Y-38084D01*
X26639Y-38240D01*
X26745Y-38347D01*
X26254Y-38347D01*
X26360Y-38241D01*
X26425Y-38085D01*
X26425Y-37915D01*
X26360Y-37759D01*
X26241Y-37639D01*
X26085Y-37574D01*
X25915Y-37574D01*
X25759Y-37639D01*
X25639Y-37758D01*
X25574Y-37914D01*
X25574Y-38084D01*
X25639Y-38240D01*
X25745Y-38347D01*
X25500Y-38347D01*
X25441Y-38359D01*
X25425Y-38369D01*
X25425Y-37915D01*
X25360Y-37759D01*
X25241Y-37639D01*
X25085Y-37574D01*
X24915Y-37574D01*
X24759Y-37639D01*
X24639Y-37758D01*
X24574Y-37914D01*
X24574Y-38084D01*
X24639Y-38240D01*
X24758Y-38360D01*
X24914Y-38425D01*
X25084Y-38425D01*
X25240Y-38360D01*
X25360Y-38241D01*
X25425Y-38085D01*
X25425Y-37915D01*
X25425Y-38369D01*
X25392Y-38392D01*
X25173Y-38611D01*
X25085Y-38574D01*
X24915Y-38574D01*
X24759Y-38639D01*
X24639Y-38758D01*
X24574Y-38914D01*
X24574Y-39084D01*
X24639Y-39240D01*
X24758Y-39360D01*
X24914Y-39425D01*
X25084Y-39425D01*
X25240Y-39360D01*
X25360Y-39241D01*
X25425Y-39085D01*
X25425Y-38915D01*
X25388Y-38826D01*
X25563Y-38652D01*
X25745Y-38652D01*
X25639Y-38758D01*
X25574Y-38914D01*
X25574Y-39084D01*
X25639Y-39240D01*
X25758Y-39360D01*
X25914Y-39425D01*
X26084Y-39425D01*
X26240Y-39360D01*
X26360Y-39241D01*
X26425Y-39085D01*
X26425Y-38915D01*
X26360Y-38759D01*
X26254Y-38652D01*
X26745Y-38652D01*
X26639Y-38758D01*
X26574Y-38914D01*
X26574Y-39084D01*
X26639Y-39240D01*
X26758Y-39360D01*
X26914Y-39425D01*
X27084Y-39425D01*
X27240Y-39360D01*
X27360Y-39241D01*
X27425Y-39085D01*
X27425Y-38915D01*
X27360Y-38759D01*
X27254Y-38652D01*
X27745Y-38652D01*
X27639Y-38758D01*
X27574Y-38914D01*
X27574Y-39084D01*
X27639Y-39240D01*
X27758Y-39360D01*
X27914Y-39425D01*
X28084Y-39425D01*
X28240Y-39360D01*
X28360Y-39241D01*
X28425Y-39085D01*
X28425Y-38915D01*
X28360Y-38759D01*
X28254Y-38652D01*
X28745Y-38652D01*
X28639Y-38758D01*
X28574Y-38914D01*
X28574Y-39084D01*
X28639Y-39240D01*
X28758Y-39360D01*
X28914Y-39425D01*
X29084Y-39425D01*
X29240Y-39360D01*
X29360Y-39241D01*
X29425Y-39085D01*
X29425Y-38915D01*
X29360Y-38759D01*
X29254Y-38652D01*
X29745Y-38652D01*
X29639Y-38758D01*
X29574Y-38914D01*
X29574Y-39084D01*
X29639Y-39240D01*
X29758Y-39360D01*
X29914Y-39425D01*
X30084Y-39425D01*
X30240Y-39360D01*
X30360Y-39241D01*
X30425Y-39085D01*
X30425Y-38915D01*
X30360Y-38759D01*
X30254Y-38652D01*
X30745Y-38652D01*
X30639Y-38758D01*
X30574Y-38914D01*
X30574Y-39084D01*
X30639Y-39240D01*
X30758Y-39360D01*
X30914Y-39425D01*
X31084Y-39425D01*
X31240Y-39360D01*
X31360Y-39241D01*
X31425Y-39085D01*
X31425Y-38915D01*
X31360Y-38759D01*
X31254Y-38652D01*
X31745Y-38652D01*
X31639Y-38758D01*
X31574Y-38914D01*
X31574Y-39084D01*
X31639Y-39240D01*
X31758Y-39360D01*
X31914Y-39425D01*
X32084Y-39425D01*
X32240Y-39360D01*
X32360Y-39241D01*
X32425Y-39085D01*
X32425Y-38915D01*
X32360Y-38759D01*
X32254Y-38652D01*
X32745Y-38652D01*
X32639Y-38758D01*
X32574Y-38914D01*
X32574Y-39084D01*
X32639Y-39240D01*
X32758Y-39360D01*
X32914Y-39425D01*
X33084Y-39425D01*
X33240Y-39360D01*
X33360Y-39241D01*
X33425Y-39085D01*
X33425Y-38915D01*
X33360Y-38759D01*
X33254Y-38652D01*
X33745Y-38652D01*
X33639Y-38758D01*
X33574Y-38914D01*
X33574Y-39084D01*
X33639Y-39240D01*
X33758Y-39360D01*
X33914Y-39425D01*
X34084Y-39425D01*
X34240Y-39360D01*
X34360Y-39241D01*
X34425Y-39085D01*
X34425Y-38915D01*
X34360Y-38759D01*
X34254Y-38652D01*
X34581Y-38652D01*
X34617Y-38688D01*
X34522Y-38714D01*
X34449Y-38919D01*
X34460Y-39136D01*
X34522Y-39285D01*
X34617Y-39311D01*
X34929Y-39000D01*
X34923Y-38994D01*
X34994Y-38923D01*
X35000Y-38929D01*
X35311Y-38617D01*
X35285Y-38522D01*
X35226Y-38501D01*
X35285Y-38477D01*
X35299Y-38427D01*
X35427Y-38299D01*
X35477Y-38285D01*
X35497Y-38229D01*
X35574Y-38152D01*
X35574Y-38321D01*
X35594Y-38369D01*
X35630Y-38405D01*
X35678Y-38425D01*
X35730Y-38425D01*
X36321Y-38425D01*
X36369Y-38405D01*
X36405Y-38369D01*
X36425Y-38321D01*
X36425Y-38269D01*
X36425Y-38152D01*
X37732Y-38152D01*
X37790Y-38140D01*
X37790Y-38140D01*
X37840Y-38107D01*
X38377Y-37570D01*
X38396Y-37590D01*
X38444Y-37610D01*
X38495Y-37610D01*
X38855Y-37610D01*
X38903Y-37590D01*
X38940Y-37553D01*
X38960Y-37505D01*
X38960Y-37454D01*
X38960Y-37094D01*
X38940Y-37046D01*
X38903Y-37009D01*
X38875Y-36997D01*
X38875Y-35374D01*
X38875Y-35275D01*
X38875Y-35212D01*
X38875Y-34987D01*
X38875Y-34924D01*
X38875Y-34825D01*
X38836Y-34733D01*
X38803Y-34700D01*
X38836Y-34666D01*
X38875Y-34574D01*
X38875Y-34475D01*
X38875Y-34412D01*
X38875Y-34187D01*
X38875Y-34124D01*
X38875Y-34025D01*
X38836Y-33933D01*
X38803Y-33900D01*
X38836Y-33866D01*
X38875Y-33774D01*
X38875Y-33675D01*
X38875Y-33612D01*
X38812Y-33550D01*
X38550Y-33550D01*
X38550Y-33887D01*
X38550Y-33912D01*
X38550Y-34250D01*
X38812Y-34250D01*
X38875Y-34187D01*
X38875Y-34412D01*
X38812Y-34350D01*
X38550Y-34350D01*
X38550Y-34687D01*
X38550Y-34712D01*
X38550Y-35050D01*
X38812Y-35050D01*
X38875Y-34987D01*
X38875Y-35212D01*
X38812Y-35150D01*
X38550Y-35150D01*
X38550Y-35512D01*
X38612Y-35575D01*
X38674Y-35575D01*
X38766Y-35536D01*
X38836Y-35466D01*
X38875Y-35374D01*
X38875Y-36997D01*
X38855Y-36990D01*
X38804Y-36990D01*
X38444Y-36990D01*
X38396Y-37009D01*
X38359Y-37046D01*
X38340Y-37094D01*
X38340Y-37145D01*
X38340Y-37181D01*
X38324Y-37192D01*
X38260Y-37256D01*
X38260Y-37094D01*
X38240Y-37046D01*
X38203Y-37009D01*
X38155Y-36990D01*
X38104Y-36990D01*
X37744Y-36990D01*
X37696Y-37009D01*
X37659Y-37046D01*
X37640Y-37094D01*
X37640Y-37145D01*
X37640Y-37147D01*
X36031Y-37147D01*
X36086Y-37091D01*
X36125Y-36999D01*
X36125Y-36887D01*
X36062Y-36825D01*
X35650Y-36825D01*
X35650Y-37137D01*
X35712Y-37200D01*
X35825Y-37200D01*
X35833Y-37200D01*
X35550Y-37483D01*
X35550Y-37137D01*
X35550Y-36825D01*
X35137Y-36825D01*
X35075Y-36887D01*
X35075Y-36999D01*
X35113Y-37091D01*
X35183Y-37161D01*
X35275Y-37200D01*
X35374Y-37200D01*
X35487Y-37200D01*
X35550Y-37137D01*
X35550Y-37483D01*
X35422Y-37611D01*
X35389Y-37660D01*
X35383Y-37688D01*
X35382Y-37688D01*
X35311Y-37758D01*
X35311Y-37617D01*
X35285Y-37522D01*
X35080Y-37449D01*
X34863Y-37460D01*
X34714Y-37522D01*
X34688Y-37617D01*
X35000Y-37929D01*
X35311Y-37617D01*
X35311Y-37758D01*
X35070Y-38000D01*
X35183Y-38112D01*
X35112Y-38183D01*
X35000Y-38070D01*
X34994Y-38076D01*
X34929Y-38011D01*
X34923Y-38005D01*
X34929Y-38000D01*
X34617Y-37688D01*
X34522Y-37714D01*
X34449Y-37919D01*
X34460Y-38136D01*
X34522Y-38285D01*
X34617Y-38311D01*
X34581Y-38347D01*
X34254Y-38347D01*
X34360Y-38241D01*
X34425Y-38085D01*
X34425Y-37915D01*
X34360Y-37759D01*
X34241Y-37639D01*
X34085Y-37574D01*
X33915Y-37574D01*
X33826Y-37611D01*
X33616Y-37400D01*
X33567Y-37367D01*
X33508Y-37356D01*
X32678Y-37356D01*
X32675Y-37353D01*
X32250Y-36928D01*
X32250Y-36912D01*
X32312Y-36975D01*
X32375Y-36975D01*
X32474Y-36975D01*
X32566Y-36936D01*
X32636Y-36866D01*
X32675Y-36774D01*
X32675Y-36712D01*
X32612Y-36650D01*
X32250Y-36650D01*
X32250Y-36657D01*
X32150Y-36657D01*
X32150Y-36650D01*
X32142Y-36650D01*
X32142Y-36550D01*
X32150Y-36550D01*
X32150Y-36542D01*
X32250Y-36542D01*
X32250Y-36550D01*
X32612Y-36550D01*
X32652Y-36510D01*
X32745Y-36510D01*
X32745Y-36750D01*
X32764Y-36798D01*
X32801Y-36835D01*
X32849Y-36855D01*
X32900Y-36855D01*
X33350Y-36855D01*
X33398Y-36835D01*
X33435Y-36798D01*
X33454Y-36752D01*
X33545Y-36752D01*
X33564Y-36798D01*
X33601Y-36835D01*
X33649Y-36855D01*
X33700Y-36855D01*
X34150Y-36855D01*
X34198Y-36835D01*
X34233Y-36799D01*
X34258Y-36809D01*
X34341Y-36810D01*
X34366Y-36799D01*
X34401Y-36835D01*
X34449Y-36855D01*
X34500Y-36855D01*
X34950Y-36855D01*
X34998Y-36835D01*
X35035Y-36798D01*
X35055Y-36750D01*
X35055Y-36699D01*
X35055Y-36510D01*
X35091Y-36510D01*
X35075Y-36550D01*
X35075Y-36662D01*
X35137Y-36725D01*
X35550Y-36725D01*
X35550Y-36717D01*
X35650Y-36717D01*
X35650Y-36725D01*
X36062Y-36725D01*
X36125Y-36662D01*
X36125Y-36550D01*
X36108Y-36510D01*
X36230Y-36510D01*
X36214Y-36526D01*
X36195Y-36574D01*
X36195Y-36625D01*
X36195Y-36975D01*
X36214Y-37023D01*
X36251Y-37060D01*
X36299Y-37080D01*
X36350Y-37080D01*
X36900Y-37080D01*
X36948Y-37060D01*
X36985Y-37023D01*
X37005Y-36975D01*
X37005Y-36924D01*
X37005Y-36652D01*
X37990Y-36652D01*
X37990Y-36705D01*
X38009Y-36753D01*
X38046Y-36790D01*
X38094Y-36810D01*
X38145Y-36810D01*
X38505Y-36810D01*
X38553Y-36790D01*
X38590Y-36753D01*
X38610Y-36705D01*
X38610Y-36654D01*
X38610Y-36294D01*
X38590Y-36246D01*
X38553Y-36209D01*
X38505Y-36190D01*
X38454Y-36190D01*
X38401Y-36190D01*
X38401Y-35560D01*
X38450Y-35512D01*
X38450Y-35150D01*
X38442Y-35150D01*
X38442Y-35050D01*
X38450Y-35050D01*
X38450Y-34712D01*
X38450Y-34687D01*
X38450Y-34536D01*
X38459Y-34514D01*
X38459Y-34437D01*
X38459Y-34437D01*
X38464Y-34409D01*
X38464Y-33442D01*
X38550Y-33442D01*
X38550Y-33450D01*
X38812Y-33450D01*
X38875Y-33387D01*
X38875Y-33324D01*
X38875Y-33225D01*
X38875Y-30974D01*
X38875Y-30875D01*
X38875Y-30812D01*
X38875Y-30587D01*
X38875Y-30524D01*
X38875Y-30425D01*
X38836Y-30333D01*
X38766Y-30263D01*
X38674Y-30225D01*
X38612Y-30225D01*
X38550Y-30287D01*
X38550Y-30650D01*
X38812Y-30650D01*
X38875Y-30587D01*
X38875Y-30812D01*
X38812Y-30750D01*
X38550Y-30750D01*
X38550Y-31112D01*
X38612Y-31175D01*
X38674Y-31175D01*
X38766Y-31136D01*
X38836Y-31066D01*
X38875Y-30974D01*
X38875Y-33225D01*
X38836Y-33133D01*
X38766Y-33063D01*
X38698Y-33034D01*
X38735Y-32998D01*
X38755Y-32950D01*
X38755Y-32899D01*
X38755Y-32449D01*
X38755Y-31950D01*
X38755Y-31899D01*
X38755Y-31449D01*
X38735Y-31401D01*
X38698Y-31364D01*
X38650Y-31345D01*
X38599Y-31345D01*
X38450Y-31345D01*
X38450Y-31112D01*
X38450Y-30750D01*
X38442Y-30750D01*
X38442Y-30650D01*
X38450Y-30650D01*
X38450Y-30287D01*
X38387Y-30225D01*
X38325Y-30225D01*
X38233Y-30263D01*
X38163Y-30333D01*
X38134Y-30401D01*
X38098Y-30364D01*
X38050Y-30345D01*
X37999Y-30345D01*
X37900Y-30345D01*
X37900Y-28924D01*
X37900Y-28825D01*
X37900Y-28712D01*
X37900Y-28487D01*
X37900Y-28374D01*
X37900Y-28275D01*
X37861Y-28183D01*
X37791Y-28113D01*
X37699Y-28075D01*
X37610Y-28075D01*
X37610Y-26453D01*
X37578Y-26376D01*
X37519Y-26317D01*
X37441Y-26285D01*
X37358Y-26285D01*
X37281Y-26317D01*
X37255Y-26342D01*
X34955Y-26342D01*
X34955Y-26249D01*
X34935Y-26201D01*
X34898Y-26164D01*
X34852Y-26145D01*
X34852Y-25854D01*
X34898Y-25835D01*
X34935Y-25798D01*
X34955Y-25750D01*
X34955Y-25699D01*
X34955Y-25249D01*
X34935Y-25201D01*
X34898Y-25164D01*
X34850Y-25145D01*
X34799Y-25145D01*
X34549Y-25145D01*
X34501Y-25164D01*
X34475Y-25191D01*
X34475Y-24674D01*
X34475Y-24575D01*
X34475Y-24512D01*
X34475Y-24287D01*
X34475Y-24224D01*
X34475Y-24125D01*
X34436Y-24033D01*
X34366Y-23963D01*
X34274Y-23925D01*
X34212Y-23925D01*
X34150Y-23987D01*
X34150Y-24350D01*
X34412Y-24350D01*
X34475Y-24287D01*
X34475Y-24512D01*
X34412Y-24450D01*
X34150Y-24450D01*
X34150Y-24812D01*
X34212Y-24875D01*
X34274Y-24875D01*
X34366Y-24836D01*
X34436Y-24766D01*
X34475Y-24674D01*
X34475Y-25191D01*
X34464Y-25201D01*
X34445Y-25249D01*
X34445Y-25300D01*
X34445Y-25750D01*
X34464Y-25798D01*
X34501Y-25835D01*
X34547Y-25854D01*
X34547Y-26145D01*
X34501Y-26164D01*
X34464Y-26201D01*
X34445Y-26249D01*
X34445Y-26300D01*
X34445Y-26750D01*
X34464Y-26798D01*
X34501Y-26835D01*
X34549Y-26855D01*
X34600Y-26855D01*
X34850Y-26855D01*
X34898Y-26835D01*
X34935Y-26798D01*
X34955Y-26750D01*
X34955Y-26699D01*
X34955Y-26647D01*
X37255Y-26647D01*
X37280Y-26673D01*
X37358Y-26705D01*
X37441Y-26705D01*
X37518Y-26673D01*
X37577Y-26614D01*
X37609Y-26537D01*
X37610Y-26453D01*
X37610Y-28075D01*
X37587Y-28075D01*
X37525Y-28137D01*
X37525Y-28550D01*
X37837Y-28550D01*
X37900Y-28487D01*
X37900Y-28712D01*
X37837Y-28650D01*
X37525Y-28650D01*
X37525Y-29062D01*
X37587Y-29125D01*
X37699Y-29125D01*
X37791Y-29086D01*
X37861Y-29016D01*
X37900Y-28924D01*
X37900Y-30345D01*
X37749Y-30345D01*
X37701Y-30364D01*
X37664Y-30401D01*
X37654Y-30426D01*
X37115Y-29887D01*
X37115Y-29043D01*
X37158Y-29086D01*
X37250Y-29125D01*
X37362Y-29125D01*
X37425Y-29062D01*
X37425Y-28650D01*
X37417Y-28650D01*
X37417Y-28550D01*
X37425Y-28550D01*
X37425Y-28137D01*
X37362Y-28075D01*
X37250Y-28075D01*
X37158Y-28113D01*
X37088Y-28183D01*
X37050Y-28275D01*
X37050Y-28374D01*
X37050Y-28478D01*
X37030Y-28465D01*
X37030Y-28299D01*
X37010Y-28251D01*
X36973Y-28214D01*
X36925Y-28195D01*
X36874Y-28195D01*
X36524Y-28195D01*
X36476Y-28214D01*
X36439Y-28251D01*
X36420Y-28299D01*
X36420Y-28350D01*
X36420Y-28447D01*
X36163Y-28447D01*
X35683Y-27967D01*
X35687Y-27957D01*
X35687Y-27843D01*
X35643Y-27737D01*
X35563Y-27656D01*
X35457Y-27612D01*
X35343Y-27612D01*
X35237Y-27656D01*
X35156Y-27736D01*
X35112Y-27842D01*
X35112Y-27956D01*
X35156Y-28062D01*
X35236Y-28143D01*
X35342Y-28187D01*
X35456Y-28187D01*
X35467Y-28183D01*
X35992Y-28707D01*
X36041Y-28740D01*
X36041Y-28740D01*
X36100Y-28752D01*
X36420Y-28752D01*
X36420Y-28900D01*
X36439Y-28948D01*
X36476Y-28985D01*
X36524Y-29005D01*
X36575Y-29005D01*
X36810Y-29005D01*
X36810Y-29950D01*
X36821Y-30008D01*
X36854Y-30058D01*
X37604Y-30807D01*
X37645Y-30834D01*
X37645Y-30950D01*
X37664Y-30998D01*
X37701Y-31035D01*
X37749Y-31055D01*
X37800Y-31055D01*
X38050Y-31055D01*
X38098Y-31035D01*
X38134Y-30998D01*
X38163Y-31066D01*
X38233Y-31136D01*
X38325Y-31175D01*
X38387Y-31175D01*
X38450Y-31112D01*
X38450Y-31345D01*
X38349Y-31345D01*
X38301Y-31364D01*
X38264Y-31401D01*
X38245Y-31449D01*
X38245Y-31500D01*
X38245Y-31950D01*
X38264Y-31998D01*
X38301Y-32035D01*
X38331Y-32047D01*
X38331Y-32089D01*
X38363Y-32166D01*
X38422Y-32225D01*
X38499Y-32258D01*
X38582Y-32258D01*
X38659Y-32226D01*
X38719Y-32167D01*
X38751Y-32090D01*
X38751Y-32006D01*
X38741Y-31983D01*
X38755Y-31950D01*
X38755Y-32449D01*
X38735Y-32401D01*
X38698Y-32364D01*
X38650Y-32345D01*
X38599Y-32345D01*
X38349Y-32345D01*
X38301Y-32364D01*
X38264Y-32401D01*
X38263Y-32404D01*
X37913Y-32055D01*
X38050Y-32055D01*
X38098Y-32035D01*
X38135Y-31998D01*
X38155Y-31950D01*
X38155Y-31899D01*
X38155Y-31449D01*
X38135Y-31401D01*
X38098Y-31364D01*
X38050Y-31345D01*
X38034Y-31345D01*
X38007Y-31304D01*
X37958Y-31271D01*
X37900Y-31259D01*
X36403Y-31259D01*
X36400Y-31257D01*
X36400Y-30287D01*
X36387Y-30149D01*
X36360Y-30085D01*
X36286Y-30083D01*
X36216Y-30153D01*
X36216Y-30013D01*
X36214Y-29939D01*
X36081Y-29899D01*
X35943Y-29912D01*
X35880Y-29939D01*
X35877Y-30013D01*
X36047Y-30183D01*
X36216Y-30013D01*
X36216Y-30153D01*
X36116Y-30252D01*
X36286Y-30422D01*
X36360Y-30419D01*
X36400Y-30287D01*
X36400Y-31257D01*
X36378Y-31234D01*
X36301Y-31202D01*
X36275Y-31202D01*
X36275Y-31152D01*
X36241Y-31068D01*
X36212Y-31040D01*
X36240Y-31012D01*
X36275Y-30928D01*
X36275Y-30837D01*
X36241Y-30753D01*
X36212Y-30725D01*
X36240Y-30697D01*
X36275Y-30613D01*
X36275Y-30522D01*
X36241Y-30438D01*
X36176Y-30374D01*
X36092Y-30339D01*
X36064Y-30339D01*
X36047Y-30322D01*
X36041Y-30328D01*
X35971Y-30258D01*
X35977Y-30252D01*
X35960Y-30235D01*
X35960Y-30207D01*
X35926Y-30123D01*
X35861Y-30059D01*
X35777Y-30024D01*
X35687Y-30024D01*
X35603Y-30058D01*
X35574Y-30087D01*
X35546Y-30059D01*
X35462Y-30024D01*
X35372Y-30024D01*
X35288Y-30058D01*
X35259Y-30087D01*
X35231Y-30059D01*
X35147Y-30024D01*
X35057Y-30024D01*
X34973Y-30058D01*
X34944Y-30087D01*
X34916Y-30059D01*
X34833Y-30024D01*
X34774Y-30024D01*
X34595Y-29844D01*
X34595Y-27971D01*
X34563Y-27894D01*
X34504Y-27835D01*
X34426Y-27803D01*
X34376Y-27802D01*
X33997Y-27423D01*
X33997Y-27378D01*
X34013Y-27338D01*
X34014Y-27255D01*
X33982Y-27178D01*
X33923Y-27119D01*
X33845Y-27087D01*
X33762Y-27086D01*
X33685Y-27118D01*
X33682Y-27121D01*
X33617Y-27095D01*
X33534Y-27094D01*
X33457Y-27126D01*
X33398Y-27185D01*
X33366Y-27263D01*
X33365Y-27346D01*
X33397Y-27423D01*
X33456Y-27482D01*
X33529Y-27513D01*
X33529Y-27814D01*
X33541Y-27872D01*
X33574Y-27921D01*
X33782Y-28130D01*
X33782Y-28166D01*
X33814Y-28243D01*
X33873Y-28302D01*
X33951Y-28334D01*
X34034Y-28335D01*
X34111Y-28303D01*
X34170Y-28244D01*
X34202Y-28166D01*
X34203Y-28122D01*
X34206Y-28131D01*
X34265Y-28190D01*
X34343Y-28222D01*
X34426Y-28223D01*
X34503Y-28191D01*
X34562Y-28132D01*
X34594Y-28054D01*
X34595Y-27971D01*
X34595Y-29844D01*
X32710Y-27960D01*
X32766Y-27936D01*
X32836Y-27866D01*
X32875Y-27774D01*
X32875Y-27712D01*
X32812Y-27650D01*
X32450Y-27650D01*
X32450Y-27657D01*
X32350Y-27657D01*
X32350Y-27650D01*
X32342Y-27650D01*
X32342Y-27550D01*
X32350Y-27550D01*
X32350Y-27542D01*
X32450Y-27542D01*
X32450Y-27550D01*
X32812Y-27550D01*
X32875Y-27487D01*
X32875Y-27432D01*
X32915Y-27432D01*
X32973Y-27421D01*
X32973Y-27421D01*
X32997Y-27404D01*
X33041Y-27405D01*
X33119Y-27373D01*
X33178Y-27314D01*
X33210Y-27236D01*
X33210Y-27153D01*
X33178Y-27076D01*
X33119Y-27017D01*
X33091Y-27005D01*
X33091Y-26976D01*
X33059Y-26899D01*
X33000Y-26840D01*
X32923Y-26808D01*
X32839Y-26808D01*
X32762Y-26840D01*
X32754Y-26848D01*
X32735Y-26801D01*
X32698Y-26764D01*
X32650Y-26745D01*
X32599Y-26745D01*
X32577Y-26745D01*
X32577Y-26744D01*
X32609Y-26667D01*
X32610Y-26584D01*
X32578Y-26506D01*
X32519Y-26447D01*
X32441Y-26415D01*
X32358Y-26415D01*
X32281Y-26447D01*
X32222Y-26506D01*
X32190Y-26583D01*
X32189Y-26667D01*
X32204Y-26702D01*
X32204Y-26745D01*
X32149Y-26745D01*
X32128Y-26753D01*
X31871Y-26753D01*
X31850Y-26745D01*
X31799Y-26745D01*
X31734Y-26745D01*
X31707Y-26704D01*
X31193Y-26190D01*
X31279Y-26155D01*
X31288Y-26156D01*
X31569Y-26156D01*
X31642Y-26187D01*
X31756Y-26187D01*
X31862Y-26143D01*
X31943Y-26063D01*
X31987Y-25957D01*
X31987Y-25843D01*
X31943Y-25737D01*
X31863Y-25656D01*
X31827Y-25641D01*
X32425Y-25641D01*
X33216Y-26432D01*
X33212Y-26442D01*
X33212Y-26556D01*
X33256Y-26662D01*
X33336Y-26743D01*
X33442Y-26787D01*
X33556Y-26787D01*
X33662Y-26743D01*
X33743Y-26663D01*
X33747Y-26652D01*
X33845Y-26652D01*
X33845Y-26750D01*
X33864Y-26798D01*
X33901Y-26835D01*
X33949Y-26855D01*
X34000Y-26855D01*
X34250Y-26855D01*
X34298Y-26835D01*
X34335Y-26798D01*
X34355Y-26750D01*
X34355Y-26699D01*
X34355Y-26249D01*
X34335Y-26201D01*
X34298Y-26164D01*
X34250Y-26145D01*
X34199Y-26145D01*
X33949Y-26145D01*
X33901Y-26164D01*
X33864Y-26201D01*
X33845Y-26249D01*
X33845Y-26300D01*
X33845Y-26347D01*
X33748Y-26347D01*
X33743Y-26337D01*
X33663Y-26256D01*
X33557Y-26212D01*
X33443Y-26212D01*
X33432Y-26216D01*
X32660Y-25444D01*
X33212Y-25444D01*
X33212Y-25556D01*
X33256Y-25662D01*
X33336Y-25743D01*
X33442Y-25787D01*
X33556Y-25787D01*
X33662Y-25743D01*
X33743Y-25663D01*
X33747Y-25652D01*
X33845Y-25652D01*
X33845Y-25750D01*
X33864Y-25798D01*
X33901Y-25835D01*
X33949Y-25855D01*
X34000Y-25855D01*
X34250Y-25855D01*
X34298Y-25835D01*
X34335Y-25798D01*
X34355Y-25750D01*
X34355Y-25699D01*
X34355Y-25249D01*
X34335Y-25201D01*
X34298Y-25164D01*
X34250Y-25145D01*
X34199Y-25145D01*
X33949Y-25145D01*
X33901Y-25164D01*
X33864Y-25201D01*
X33845Y-25249D01*
X33845Y-25300D01*
X33845Y-25347D01*
X33748Y-25347D01*
X33743Y-25337D01*
X33663Y-25256D01*
X33557Y-25212D01*
X33443Y-25212D01*
X33432Y-25216D01*
X33399Y-25184D01*
X33350Y-25151D01*
X33292Y-25139D01*
X31871Y-25139D01*
X31871Y-25118D01*
X31871Y-25050D01*
X32813Y-25050D01*
X32872Y-25039D01*
X32872Y-25039D01*
X32921Y-25006D01*
X33254Y-24673D01*
X33264Y-24698D01*
X33301Y-24735D01*
X33349Y-24755D01*
X33400Y-24755D01*
X33650Y-24755D01*
X33698Y-24735D01*
X33734Y-24698D01*
X33763Y-24766D01*
X33833Y-24836D01*
X33925Y-24875D01*
X33987Y-24875D01*
X34050Y-24812D01*
X34050Y-24450D01*
X34042Y-24450D01*
X34042Y-24350D01*
X34050Y-24350D01*
X34050Y-23987D01*
X33987Y-23925D01*
X33925Y-23925D01*
X33833Y-23963D01*
X33763Y-24033D01*
X33734Y-24101D01*
X33698Y-24064D01*
X33650Y-24045D01*
X33599Y-24045D01*
X33460Y-24045D01*
X33817Y-23687D01*
X33850Y-23638D01*
X33850Y-23638D01*
X33860Y-23588D01*
X33864Y-23598D01*
X33901Y-23635D01*
X33949Y-23655D01*
X34000Y-23655D01*
X34250Y-23655D01*
X34298Y-23635D01*
X34335Y-23598D01*
X34355Y-23550D01*
X34355Y-23499D01*
X34355Y-23452D01*
X36597Y-23452D01*
X36635Y-23543D01*
X36756Y-23664D01*
X36914Y-23729D01*
X37085Y-23730D01*
X37243Y-23664D01*
X37364Y-23543D01*
X37405Y-23444D01*
X38390Y-23444D01*
X38426Y-23532D01*
X38546Y-23652D01*
X38702Y-23717D01*
X38871Y-23717D01*
X39027Y-23652D01*
X39147Y-23533D01*
X39212Y-23377D01*
X39212Y-23207D01*
X39212Y-37795D01*
X39000Y-37795D01*
X38980Y-37798D01*
X38960Y-37798D01*
X38577Y-37875D01*
X38503Y-37905D01*
X38179Y-38122D01*
X38150Y-38150D01*
X38122Y-38179D01*
X37905Y-38503D01*
X37875Y-38577D01*
X37798Y-38960D01*
X37798Y-38980D01*
X37795Y-39000D01*
X37795Y-39500D01*
X37795Y-39795D01*
X36425Y-39795D01*
X36425Y-39321D01*
X36425Y-39269D01*
X36425Y-38678D01*
X36405Y-38630D01*
X36369Y-38594D01*
X36321Y-38574D01*
X36269Y-38574D01*
X35678Y-38574D01*
X35630Y-38594D01*
X35594Y-38630D01*
X35574Y-38678D01*
X35574Y-38730D01*
X35574Y-39321D01*
X35594Y-39369D01*
X35630Y-39405D01*
X35678Y-39425D01*
X35730Y-39425D01*
X36321Y-39425D01*
X36369Y-39405D01*
X36405Y-39369D01*
X36425Y-39321D01*
X36425Y-39795D01*
X35550Y-39795D01*
X35550Y-39080D01*
X35539Y-38863D01*
X35477Y-38714D01*
X35382Y-38688D01*
X35070Y-39000D01*
X35382Y-39311D01*
X35477Y-39285D01*
X35550Y-39080D01*
X35550Y-39795D01*
X35311Y-39795D01*
X35311Y-39382D01*
X35000Y-39070D01*
X34929Y-39141D01*
X34688Y-39382D01*
X34714Y-39477D01*
X34919Y-39550D01*
X35136Y-39539D01*
X35285Y-39477D01*
X35311Y-39382D01*
X35311Y-39795D01*
X24425Y-39795D01*
X24425Y-38915D01*
X24360Y-38759D01*
X24241Y-38639D01*
X24085Y-38574D01*
X23915Y-38574D01*
X23759Y-38639D01*
X23639Y-38758D01*
X23574Y-38914D01*
X23574Y-39084D01*
X23639Y-39240D01*
X23758Y-39360D01*
X23914Y-39425D01*
X24084Y-39425D01*
X24240Y-39360D01*
X24360Y-39241D01*
X24425Y-39085D01*
X24425Y-38915D01*
X24425Y-39795D01*
X23425Y-39795D01*
X23425Y-38915D01*
X23425Y-37915D01*
X23400Y-37853D01*
X23400Y-35224D01*
X23400Y-35125D01*
X23400Y-35012D01*
X23400Y-34787D01*
X23400Y-34674D01*
X23400Y-34575D01*
X23361Y-34483D01*
X23291Y-34413D01*
X23199Y-34375D01*
X23087Y-34375D01*
X23025Y-34437D01*
X23025Y-34850D01*
X23337Y-34850D01*
X23400Y-34787D01*
X23400Y-35012D01*
X23337Y-34950D01*
X23025Y-34950D01*
X23025Y-35362D01*
X23087Y-35425D01*
X23199Y-35425D01*
X23291Y-35386D01*
X23361Y-35316D01*
X23400Y-35224D01*
X23400Y-37853D01*
X23360Y-37759D01*
X23275Y-37673D01*
X23275Y-36174D01*
X23275Y-36075D01*
X23275Y-36012D01*
X23275Y-35787D01*
X23275Y-35724D01*
X23275Y-35625D01*
X23236Y-35533D01*
X23166Y-35463D01*
X23074Y-35425D01*
X23012Y-35425D01*
X22950Y-35487D01*
X22950Y-35850D01*
X23212Y-35850D01*
X23275Y-35787D01*
X23275Y-36012D01*
X23212Y-35950D01*
X22950Y-35950D01*
X22950Y-36312D01*
X23012Y-36375D01*
X23074Y-36375D01*
X23166Y-36336D01*
X23236Y-36266D01*
X23275Y-36174D01*
X23275Y-37673D01*
X23241Y-37639D01*
X23085Y-37574D01*
X22915Y-37574D01*
X22759Y-37639D01*
X22639Y-37758D01*
X22574Y-37914D01*
X22574Y-38084D01*
X22639Y-38240D01*
X22758Y-38360D01*
X22914Y-38425D01*
X23084Y-38425D01*
X23240Y-38360D01*
X23360Y-38241D01*
X23425Y-38085D01*
X23425Y-37915D01*
X23425Y-38915D01*
X23360Y-38759D01*
X23241Y-38639D01*
X23085Y-38574D01*
X22915Y-38574D01*
X22759Y-38639D01*
X22639Y-38758D01*
X22574Y-38914D01*
X22574Y-39084D01*
X22639Y-39240D01*
X22758Y-39360D01*
X22914Y-39425D01*
X23084Y-39425D01*
X23240Y-39360D01*
X23360Y-39241D01*
X23425Y-39085D01*
X23425Y-38915D01*
X23425Y-39795D01*
X21525Y-39795D01*
X21525Y-36479D01*
X21460Y-36323D01*
X21341Y-36203D01*
X21184Y-36138D01*
X21015Y-36138D01*
X20859Y-36203D01*
X20739Y-36322D01*
X20674Y-36478D01*
X20674Y-36648D01*
X20739Y-36804D01*
X20858Y-36924D01*
X21015Y-36988D01*
X21184Y-36989D01*
X21340Y-36924D01*
X21460Y-36804D01*
X21525Y-36648D01*
X21525Y-36479D01*
X21525Y-39795D01*
X21443Y-39795D01*
X21443Y-37912D01*
X21376Y-37748D01*
X21251Y-37624D01*
X21088Y-37556D01*
X20912Y-37556D01*
X20748Y-37623D01*
X20624Y-37748D01*
X20556Y-37911D01*
X20556Y-38087D01*
X20623Y-38251D01*
X20748Y-38375D01*
X20911Y-38443D01*
X21087Y-38443D01*
X21251Y-38376D01*
X21375Y-38251D01*
X21443Y-38088D01*
X21443Y-37912D01*
X21443Y-39795D01*
X20952Y-39795D01*
X20952Y-39177D01*
X20947Y-38799D01*
X20811Y-38471D01*
X20675Y-38395D01*
X20604Y-38466D01*
X20604Y-38324D01*
X20528Y-38188D01*
X20177Y-38047D01*
X19799Y-38052D01*
X19471Y-38188D01*
X19395Y-38324D01*
X20000Y-38929D01*
X20604Y-38324D01*
X20604Y-38466D01*
X20070Y-39000D01*
X20675Y-39604D01*
X20811Y-39528D01*
X20952Y-39177D01*
X20952Y-39795D01*
X20537Y-39795D01*
X20604Y-39675D01*
X20000Y-39070D01*
X19395Y-39675D01*
X19462Y-39795D01*
X19205Y-39795D01*
X19205Y-39537D01*
X19324Y-39604D01*
X19929Y-39000D01*
X19324Y-38395D01*
X19205Y-38462D01*
X19205Y-21205D01*
X19500Y-21205D01*
X20000Y-21205D01*
X20019Y-21201D01*
X20039Y-21201D01*
X20422Y-21124D01*
X20496Y-21094D01*
X20496Y-21094D01*
X20820Y-20877D01*
X20820Y-20877D01*
X20849Y-20849D01*
X20877Y-20820D01*
X20877Y-20820D01*
X21094Y-20496D01*
X21124Y-20422D01*
X21201Y-20039D01*
X21201Y-20019D01*
X21205Y-20000D01*
X21205Y-19500D01*
X21205Y-19205D01*
X38462Y-19205D01*
X38395Y-19324D01*
X39000Y-19929D01*
X39604Y-19324D01*
X39537Y-19205D01*
X39795Y-19205D01*
X39795Y-19462D01*
X39675Y-19395D01*
X39070Y-20000D01*
X39675Y-20604D01*
X39795Y-20537D01*
X39795Y-37795D01*
M02*
