M48
;DRILL file {Pcbnew (2013-mar-13)-testing} date Mon 20 May 2013 06:07:50 PM CEST
;FORMAT={-:-/ absolute / inch / decimal}
FMAT,2
INCH,TZ
T1C0.016
T2C0.024
T3C0.031
T4C0.032
T5C0.039
T6C0.040
T7C0.047
T8C0.100
%
G90
G05
M72
T1
X2.095Y-2.18
X2.25Y-2.02
X2.25Y-3.005
X2.25Y-3.2
X2.355Y-2.51
X2.795Y-3.04
X2.855Y-2.765
X3.005Y-3.355
X3.045Y-3.55
X3.565Y-2.485
T2
X2.4614Y-2.7114
X2.4614Y-2.8886
X2.55Y-2.8886
X2.6386Y-2.7114
X2.6386Y-2.8886
X3.2614Y-2.7114
X3.2614Y-2.8886
X3.35Y-2.7114
X3.4386Y-2.7114
X3.4386Y-2.8886
T3
X3.3Y-3.575
X3.35Y-3.625
X3.4Y-3.575
X3.55Y-3.575
X3.6Y-3.625
X3.65Y-3.575
T4
X2.4Y-2.2
X2.7Y-2.2
X2.8Y-1.98
X2.8Y-3.16
X2.8Y-3.26
X2.8Y-3.36
X2.8Y-3.46
X2.9Y-1.98
X3.Y-1.98
X3.1Y-1.98
X3.1Y-3.16
X3.1Y-3.26
X3.1Y-3.36
X3.1Y-3.46
X3.2Y-2.2
X3.34Y-3.31
X3.34Y-3.41
X3.5Y-2.2
X3.6Y-3.09
X3.6Y-3.19
T5
X2.Y-2.3
X2.Y-2.4
X2.Y-2.5
X2.Y-2.6
X2.Y-2.7
X2.Y-2.8
X2.Y-2.9
X2.Y-3.
X2.Y-3.1
X2.Y-3.2
X2.Y-3.3
X2.Y-3.4
X2.Y-3.5
X2.Y-3.6
X2.1Y-2.3
X2.1Y-2.4
X2.1Y-2.5
X2.1Y-2.6
X2.1Y-2.7
X2.1Y-2.8
X2.1Y-2.9
X2.1Y-3.
X2.1Y-3.1
X2.1Y-3.2
X2.1Y-3.3
X2.1Y-3.4
X2.1Y-3.5
X2.1Y-3.6
X2.3Y-3.8
X2.3Y-3.9
X2.4Y-3.8
X2.4Y-3.9
X2.5Y-3.8
X2.5Y-3.9
X2.6Y-3.8
X2.6Y-3.9
X2.7Y-3.8
X2.7Y-3.9
X2.8Y-3.8
X2.8Y-3.9
X2.9Y-3.8
X2.9Y-3.9
X3.Y-3.8
X3.Y-3.9
X3.1Y-3.8
X3.1Y-3.9
X3.2Y-3.8
X3.2Y-3.9
X3.3Y-3.8
X3.3Y-3.9
X3.4Y-3.8
X3.4Y-3.9
X3.5Y-3.8
X3.5Y-3.9
X3.6Y-3.8
X3.6Y-3.9
X3.8Y-2.3
X3.8Y-2.4
X3.8Y-2.5
X3.8Y-2.6
X3.8Y-2.7
X3.8Y-2.8
X3.8Y-2.9
X3.8Y-3.
X3.8Y-3.1
X3.8Y-3.2
X3.8Y-3.3
X3.8Y-3.4
X3.8Y-3.5
X3.8Y-3.6
X3.9Y-2.3
X3.9Y-2.4
X3.9Y-2.5
X3.9Y-2.6
X3.9Y-2.7
X3.9Y-2.8
X3.9Y-2.9
X3.9Y-3.
X3.9Y-3.1
X3.9Y-3.2
X3.9Y-3.3
X3.9Y-3.4
X3.9Y-3.5
X3.9Y-3.6
T6
X2.41Y-3.62
X2.5Y-2.55
X2.5Y-3.05
X2.51Y-3.62
X2.6Y-2.55
X2.6Y-3.05
X2.61Y-3.62
X3.3Y-2.55
X3.3Y-3.05
X3.4Y-2.55
X3.4Y-3.05
T7
X2.3925Y-2.8
X2.7075Y-2.8
X3.1925Y-2.8
X3.5075Y-2.8
T8
X2.Y-3.9
X3.9Y-2.
T0
M30
