G04 (created by PCBNEW (2013-mar-13)-testing) date Tue 11 Feb 2014 12:39:58 PM CET*
%MOIN*%
G04 Gerber Fmt 3.4, Leading zero omitted, Abs format*
%FSLAX34Y34*%
G01*
G70*
G90*
G04 APERTURE LIST*
%ADD10C,0.005906*%
%ADD11C,0.015000*%
%ADD12C,0.012000*%
%ADD13R,0.055000X0.035000*%
%ADD14C,0.039370*%
%ADD15R,0.059100X0.059100*%
%ADD16C,0.059100*%
%ADD17C,0.140000*%
%ADD18C,0.055118*%
%ADD19R,0.060000X0.060000*%
%ADD20C,0.060000*%
%ADD21R,0.036000X0.036000*%
%ADD22R,0.035000X0.055000*%
%ADD23C,0.046000*%
%ADD24C,0.070000*%
%ADD25R,0.056000X0.056000*%
%ADD26C,0.056000*%
%ADD27R,0.050000X0.015000*%
%ADD28R,0.055000X0.055000*%
%ADD29C,0.055000*%
%ADD30R,0.070000X0.070000*%
%ADD31C,0.028000*%
%ADD32C,0.008000*%
%ADD33C,0.006000*%
%ADD34C,0.010000*%
G04 APERTURE END LIST*
G54D10*
G54D11*
X19000Y-40000D02*
X19000Y-21000D01*
X38000Y-40000D02*
X19000Y-40000D01*
X40000Y-19000D02*
X40000Y-38000D01*
X21000Y-19000D02*
X40000Y-19000D01*
X39000Y-38000D02*
X40000Y-38000D01*
X38000Y-39500D02*
X38000Y-40000D01*
X19500Y-21000D02*
X19000Y-21000D01*
X21000Y-19500D02*
X21000Y-19000D01*
X20000Y-21000D02*
X19500Y-21000D01*
X21000Y-20000D02*
X21000Y-19500D01*
X38000Y-39000D02*
X38000Y-39500D01*
X39000Y-38000D02*
G75*
G03X38000Y-39000I0J-1000D01*
G74*
G01*
X20000Y-21000D02*
G75*
G03X21000Y-20000I0J1000D01*
G74*
G01*
G54D12*
X44077Y-27328D02*
X44077Y-27042D01*
X43696Y-27014D01*
X43734Y-27042D01*
X43772Y-27099D01*
X43772Y-27242D01*
X43734Y-27299D01*
X43696Y-27328D01*
X43619Y-27357D01*
X43429Y-27357D01*
X43353Y-27328D01*
X43315Y-27299D01*
X43277Y-27242D01*
X43277Y-27099D01*
X43315Y-27042D01*
X43353Y-27014D01*
X44077Y-27557D02*
X44077Y-27928D01*
X43772Y-27728D01*
X43772Y-27814D01*
X43734Y-27871D01*
X43696Y-27899D01*
X43619Y-27928D01*
X43429Y-27928D01*
X43353Y-27899D01*
X43315Y-27871D01*
X43277Y-27814D01*
X43277Y-27642D01*
X43315Y-27585D01*
X43353Y-27557D01*
X43315Y-28214D02*
X43277Y-28214D01*
X43200Y-28185D01*
X43162Y-28157D01*
X44077Y-28414D02*
X44077Y-28785D01*
X43772Y-28585D01*
X43772Y-28671D01*
X43734Y-28728D01*
X43696Y-28757D01*
X43619Y-28785D01*
X43429Y-28785D01*
X43353Y-28757D01*
X43315Y-28728D01*
X43277Y-28671D01*
X43277Y-28500D01*
X43315Y-28442D01*
X43353Y-28414D01*
X43810Y-29300D02*
X43277Y-29300D01*
X44115Y-29157D02*
X43543Y-29014D01*
X43543Y-29385D01*
X44077Y-29728D02*
X44077Y-29785D01*
X44039Y-29842D01*
X44000Y-29871D01*
X43924Y-29900D01*
X43772Y-29928D01*
X43581Y-29928D01*
X43429Y-29900D01*
X43353Y-29871D01*
X43315Y-29842D01*
X43277Y-29785D01*
X43277Y-29728D01*
X43315Y-29671D01*
X43353Y-29642D01*
X43429Y-29614D01*
X43581Y-29585D01*
X43772Y-29585D01*
X43924Y-29614D01*
X44000Y-29642D01*
X44039Y-29671D01*
X44077Y-29728D01*
X43277Y-30642D02*
X43810Y-30642D01*
X43734Y-30642D02*
X43772Y-30671D01*
X43810Y-30728D01*
X43810Y-30814D01*
X43772Y-30871D01*
X43696Y-30900D01*
X43277Y-30900D01*
X43696Y-30900D02*
X43772Y-30928D01*
X43810Y-30985D01*
X43810Y-31071D01*
X43772Y-31128D01*
X43696Y-31157D01*
X43277Y-31157D01*
X43277Y-31442D02*
X43810Y-31442D01*
X43734Y-31442D02*
X43772Y-31471D01*
X43810Y-31528D01*
X43810Y-31614D01*
X43772Y-31671D01*
X43696Y-31700D01*
X43277Y-31700D01*
X43696Y-31700D02*
X43772Y-31728D01*
X43810Y-31785D01*
X43810Y-31871D01*
X43772Y-31928D01*
X43696Y-31957D01*
X43277Y-31957D01*
X42999Y-19000D02*
X42999Y-40000D01*
X40000Y-19000D02*
X44279Y-19000D01*
X40000Y-40000D02*
X44279Y-40000D01*
X42999Y-40000D02*
X42769Y-39557D01*
X42999Y-40000D02*
X43229Y-39557D01*
X42999Y-19000D02*
X42769Y-19443D01*
X42999Y-19000D02*
X43229Y-19443D01*
X27328Y-43200D02*
X27042Y-43200D01*
X27014Y-43581D01*
X27042Y-43543D01*
X27099Y-43505D01*
X27242Y-43505D01*
X27299Y-43543D01*
X27328Y-43581D01*
X27357Y-43658D01*
X27357Y-43848D01*
X27328Y-43924D01*
X27299Y-43962D01*
X27242Y-44000D01*
X27099Y-44000D01*
X27042Y-43962D01*
X27014Y-43924D01*
X27557Y-43200D02*
X27928Y-43200D01*
X27728Y-43505D01*
X27814Y-43505D01*
X27871Y-43543D01*
X27899Y-43581D01*
X27928Y-43658D01*
X27928Y-43848D01*
X27899Y-43924D01*
X27871Y-43962D01*
X27814Y-44000D01*
X27642Y-44000D01*
X27585Y-43962D01*
X27557Y-43924D01*
X28214Y-43962D02*
X28214Y-44000D01*
X28185Y-44077D01*
X28157Y-44115D01*
X28414Y-43200D02*
X28785Y-43200D01*
X28585Y-43505D01*
X28671Y-43505D01*
X28728Y-43543D01*
X28757Y-43581D01*
X28785Y-43658D01*
X28785Y-43848D01*
X28757Y-43924D01*
X28728Y-43962D01*
X28671Y-44000D01*
X28500Y-44000D01*
X28442Y-43962D01*
X28414Y-43924D01*
X29300Y-43467D02*
X29300Y-44000D01*
X29157Y-43162D02*
X29014Y-43734D01*
X29385Y-43734D01*
X29728Y-43200D02*
X29785Y-43200D01*
X29842Y-43239D01*
X29871Y-43277D01*
X29900Y-43353D01*
X29928Y-43505D01*
X29928Y-43696D01*
X29900Y-43848D01*
X29871Y-43924D01*
X29842Y-43962D01*
X29785Y-44000D01*
X29728Y-44000D01*
X29671Y-43962D01*
X29642Y-43924D01*
X29614Y-43848D01*
X29585Y-43696D01*
X29585Y-43505D01*
X29614Y-43353D01*
X29642Y-43277D01*
X29671Y-43239D01*
X29728Y-43200D01*
X30642Y-44000D02*
X30642Y-43467D01*
X30642Y-43543D02*
X30671Y-43505D01*
X30728Y-43467D01*
X30814Y-43467D01*
X30871Y-43505D01*
X30900Y-43581D01*
X30900Y-44000D01*
X30900Y-43581D02*
X30928Y-43505D01*
X30985Y-43467D01*
X31071Y-43467D01*
X31128Y-43505D01*
X31157Y-43581D01*
X31157Y-44000D01*
X31442Y-44000D02*
X31442Y-43467D01*
X31442Y-43543D02*
X31471Y-43505D01*
X31528Y-43467D01*
X31614Y-43467D01*
X31671Y-43505D01*
X31700Y-43581D01*
X31700Y-44000D01*
X31700Y-43581D02*
X31728Y-43505D01*
X31785Y-43467D01*
X31871Y-43467D01*
X31928Y-43505D01*
X31957Y-43581D01*
X31957Y-44000D01*
X19000Y-42999D02*
X40000Y-42999D01*
X19000Y-40000D02*
X19000Y-44279D01*
X40000Y-40000D02*
X40000Y-44279D01*
X40000Y-42999D02*
X39557Y-43229D01*
X40000Y-42999D02*
X39557Y-42769D01*
X19000Y-42999D02*
X19443Y-43229D01*
X19000Y-42999D02*
X19443Y-42769D01*
G54D13*
X31000Y-36375D03*
X31000Y-37125D03*
X26500Y-33375D03*
X26500Y-32625D03*
G54D14*
X38000Y-21000D03*
X21000Y-38000D03*
G54D15*
X36000Y-39000D03*
G54D16*
X35000Y-39000D03*
X34000Y-39000D03*
X33000Y-39000D03*
X32000Y-39000D03*
X31000Y-39000D03*
X30000Y-39000D03*
X29000Y-39000D03*
X28000Y-39000D03*
X27000Y-39000D03*
X26000Y-39000D03*
X25000Y-39000D03*
X24000Y-39000D03*
X23000Y-39000D03*
G54D15*
X39000Y-23000D03*
G54D16*
X39000Y-24000D03*
X39000Y-25000D03*
X39000Y-26000D03*
X39000Y-27000D03*
X39000Y-28000D03*
X39000Y-29000D03*
X39000Y-30000D03*
X39000Y-31000D03*
X39000Y-32000D03*
X39000Y-33000D03*
X39000Y-34000D03*
X39000Y-35000D03*
X39000Y-36000D03*
G54D15*
X21000Y-36000D03*
G54D16*
X21000Y-35000D03*
X21000Y-34000D03*
X21000Y-33000D03*
X21000Y-32000D03*
X21000Y-31000D03*
X21000Y-30000D03*
X21000Y-29000D03*
X21000Y-28000D03*
X21000Y-27000D03*
X21000Y-26000D03*
X21000Y-25000D03*
X21000Y-24000D03*
X21000Y-23000D03*
G54D15*
X20000Y-36000D03*
G54D16*
X20000Y-35000D03*
X20000Y-34000D03*
X20000Y-33000D03*
X20000Y-32000D03*
X20000Y-31000D03*
X20000Y-30000D03*
X20000Y-29000D03*
X20000Y-28000D03*
X20000Y-27000D03*
X20000Y-26000D03*
X20000Y-25000D03*
X20000Y-24000D03*
X20000Y-23000D03*
G54D15*
X38000Y-23000D03*
G54D16*
X38000Y-24000D03*
X38000Y-25000D03*
X38000Y-26000D03*
X38000Y-27000D03*
X38000Y-28000D03*
X38000Y-29000D03*
X38000Y-30000D03*
X38000Y-31000D03*
X38000Y-32000D03*
X38000Y-33000D03*
X38000Y-34000D03*
X38000Y-35000D03*
X38000Y-36000D03*
G54D15*
X36000Y-38000D03*
G54D16*
X35000Y-38000D03*
X34000Y-38000D03*
X33000Y-38000D03*
X32000Y-38000D03*
X31000Y-38000D03*
X30000Y-38000D03*
X29000Y-38000D03*
X28000Y-38000D03*
X27000Y-38000D03*
X26000Y-38000D03*
X25000Y-38000D03*
X24000Y-38000D03*
X23000Y-38000D03*
G54D17*
X20000Y-39000D03*
X39000Y-20000D03*
G54D18*
X36500Y-35750D03*
X36000Y-36250D03*
X35500Y-35750D03*
X34000Y-35750D03*
X33500Y-36250D03*
X33000Y-35750D03*
G54D19*
X28000Y-31600D03*
G54D20*
X28000Y-32600D03*
X28000Y-33600D03*
X28000Y-34600D03*
X31000Y-34600D03*
X31000Y-33600D03*
X31000Y-32600D03*
X31000Y-31600D03*
G54D21*
X29250Y-29000D03*
X29950Y-29000D03*
X29600Y-29800D03*
G54D13*
X36000Y-33625D03*
X36000Y-34375D03*
G54D22*
X25875Y-23500D03*
X25125Y-23500D03*
G54D13*
X29500Y-31975D03*
X29500Y-32725D03*
X22300Y-36375D03*
X22300Y-35625D03*
G54D22*
X25875Y-31500D03*
X25125Y-31500D03*
G54D13*
X29500Y-36375D03*
X29500Y-37125D03*
X28000Y-36375D03*
X28000Y-37125D03*
G54D22*
X33875Y-23500D03*
X33125Y-23500D03*
X33875Y-31500D03*
X33125Y-31500D03*
G54D19*
X33000Y-30500D03*
G54D20*
X34000Y-30500D03*
G54D19*
X25000Y-25500D03*
G54D20*
X26000Y-25500D03*
G54D19*
X33000Y-25500D03*
G54D20*
X34000Y-25500D03*
G54D19*
X25000Y-30500D03*
G54D20*
X26000Y-30500D03*
G54D23*
X24614Y-28885D03*
X25500Y-28885D03*
X26385Y-28885D03*
X26385Y-27114D03*
X24614Y-27114D03*
G54D24*
X27074Y-28000D03*
X23925Y-28000D03*
G54D23*
X34385Y-27114D03*
X33500Y-27114D03*
X32614Y-27114D03*
X32614Y-28885D03*
X34385Y-28885D03*
G54D24*
X31925Y-28000D03*
X35074Y-28000D03*
G54D25*
X32000Y-22000D03*
G54D26*
X35000Y-22000D03*
G54D25*
X24000Y-22000D03*
G54D26*
X27000Y-22000D03*
G54D27*
X23050Y-33116D03*
X23050Y-33372D03*
X23050Y-33628D03*
X23050Y-33884D03*
X24750Y-33884D03*
X24750Y-33628D03*
X24750Y-33372D03*
X24750Y-33116D03*
G54D19*
X33400Y-34100D03*
G54D20*
X33400Y-33100D03*
G54D19*
X36000Y-31900D03*
G54D20*
X36000Y-30900D03*
G54D28*
X28000Y-19800D03*
G54D29*
X29000Y-19800D03*
X30000Y-19800D03*
X31000Y-19800D03*
G54D24*
X24100Y-36200D03*
X25100Y-36200D03*
G54D30*
X26100Y-36200D03*
G54D31*
X35650Y-24850D03*
X22500Y-20200D03*
X20950Y-21800D03*
X23550Y-25100D03*
X22500Y-30050D03*
X22500Y-32000D03*
X28550Y-27650D03*
X27950Y-30400D03*
X30450Y-35500D03*
X30050Y-33550D03*
G54D32*
X33400Y-34100D02*
X33300Y-34100D01*
X29625Y-32100D02*
X29500Y-31975D01*
X31300Y-32100D02*
X29625Y-32100D01*
X33300Y-34100D02*
X31300Y-32100D01*
X21000Y-36000D02*
X21415Y-36000D01*
X28000Y-31600D02*
X28420Y-31600D01*
X29500Y-31975D02*
X28795Y-31975D01*
X28795Y-31975D02*
X28420Y-31600D01*
X20000Y-36000D02*
X21000Y-36000D01*
X21790Y-36375D02*
X22300Y-36375D01*
X21415Y-36000D02*
X21790Y-36375D01*
X33000Y-34920D02*
X33000Y-35750D01*
X33400Y-34100D02*
X33400Y-34520D01*
X33400Y-34520D02*
X33000Y-34920D01*
G54D33*
X20000Y-34000D02*
X21000Y-34000D01*
X20000Y-33000D02*
X21000Y-33000D01*
X20000Y-32000D02*
X21000Y-32000D01*
X20000Y-31000D02*
X21000Y-31000D01*
X20000Y-30000D02*
X21000Y-30000D01*
X38000Y-25000D02*
X39000Y-25000D01*
X38000Y-26000D02*
X39000Y-26000D01*
X20000Y-29000D02*
X21000Y-29000D01*
X23050Y-33628D02*
X23572Y-33628D01*
X25875Y-31925D02*
X25875Y-31500D01*
X25250Y-32550D02*
X25875Y-31925D01*
X24650Y-32550D02*
X25250Y-32550D01*
X23572Y-33628D02*
X24650Y-32550D01*
X25875Y-30625D02*
X25875Y-31500D01*
X26000Y-30500D02*
X25875Y-30625D01*
X24750Y-33627D02*
X25110Y-33627D01*
X26082Y-34600D02*
X28000Y-34600D01*
X25110Y-33627D02*
X26082Y-34600D01*
X28000Y-36375D02*
X28000Y-36089D01*
X28000Y-34600D02*
X28000Y-36089D01*
X22300Y-35625D02*
X22300Y-35900D01*
X23900Y-36000D02*
X24100Y-36200D01*
X22400Y-36000D02*
X23900Y-36000D01*
X22300Y-35900D02*
X22400Y-36000D01*
X23050Y-33372D02*
X23428Y-33372D01*
X28000Y-24750D02*
X28000Y-19800D01*
X23650Y-29100D02*
X28000Y-24750D01*
X23650Y-33150D02*
X23650Y-29100D01*
X23428Y-33372D02*
X23650Y-33150D01*
X23050Y-33372D02*
X22428Y-33372D01*
X22300Y-33500D02*
X22300Y-35625D01*
X22428Y-33372D02*
X22300Y-33500D01*
X22300Y-35625D02*
X22300Y-35339D01*
X26111Y-33372D02*
X26114Y-33375D01*
X24750Y-33372D02*
X26111Y-33372D01*
X26500Y-33375D02*
X26114Y-33375D01*
X27110Y-33600D02*
X26885Y-33375D01*
X28000Y-33600D02*
X27110Y-33600D01*
X26500Y-33375D02*
X26885Y-33375D01*
X38000Y-34000D02*
X35400Y-34000D01*
X29950Y-29350D02*
X29950Y-29000D01*
X33000Y-32400D02*
X29950Y-29350D01*
X33800Y-32400D02*
X33000Y-32400D01*
X35400Y-34000D02*
X33800Y-32400D01*
X38000Y-34000D02*
X39000Y-34000D01*
X38000Y-35000D02*
X39000Y-35000D01*
G54D32*
X21000Y-35000D02*
X21750Y-34250D01*
X22500Y-20250D02*
X22500Y-20200D01*
X20950Y-21800D02*
X22500Y-20250D01*
X22850Y-25800D02*
X23550Y-25100D01*
X22850Y-29700D02*
X22850Y-25800D01*
X22500Y-30050D02*
X22850Y-29700D01*
X21750Y-32750D02*
X22500Y-32000D01*
X21750Y-34250D02*
X21750Y-32750D01*
X26500Y-32625D02*
X26500Y-31800D01*
X27900Y-30400D02*
X27950Y-30400D01*
X26500Y-31800D02*
X27900Y-30400D01*
X29500Y-32725D02*
X29500Y-33200D01*
X29850Y-33550D02*
X30050Y-33550D01*
X29500Y-33200D02*
X29850Y-33550D01*
X23050Y-33884D02*
X23050Y-34150D01*
X23050Y-34150D02*
X25100Y-36200D01*
G54D33*
X31000Y-31490D02*
X31000Y-31600D01*
X29600Y-30090D02*
X31000Y-31490D01*
X29600Y-29800D02*
X29600Y-30090D01*
X29500Y-36375D02*
X29500Y-36550D01*
X37250Y-36750D02*
X38000Y-36000D01*
X29700Y-36750D02*
X37250Y-36750D01*
X29500Y-36550D02*
X29700Y-36750D01*
X29500Y-34100D02*
X28000Y-32600D01*
X29500Y-36375D02*
X29500Y-34100D01*
X38000Y-36000D02*
X39000Y-36000D01*
X38000Y-28000D02*
X39000Y-28000D01*
X38000Y-27000D02*
X39000Y-27000D01*
X20000Y-25000D02*
X21000Y-25000D01*
X20000Y-26000D02*
X21000Y-26000D01*
X38000Y-29000D02*
X39000Y-29000D01*
X38000Y-30000D02*
X39000Y-30000D01*
X38000Y-31000D02*
X39000Y-31000D01*
X36000Y-31900D02*
X36000Y-33625D01*
X33000Y-25500D02*
X33000Y-23500D01*
X33125Y-23500D02*
X33000Y-23500D01*
X33000Y-23390D02*
X33000Y-23500D01*
X32000Y-22390D02*
X33000Y-23390D01*
X32000Y-22000D02*
X32000Y-22390D01*
X33885Y-23114D02*
X33875Y-23114D01*
X35000Y-22000D02*
X33885Y-23114D01*
X33875Y-23500D02*
X33875Y-23114D01*
X33875Y-25375D02*
X33875Y-23500D01*
X34000Y-25500D02*
X33875Y-25375D01*
X33875Y-31500D02*
X33875Y-30625D01*
X33875Y-30625D02*
X34000Y-30500D01*
X36000Y-30900D02*
X34400Y-30900D01*
X34400Y-30900D02*
X34000Y-30500D01*
X25000Y-25500D02*
X25000Y-23500D01*
X25125Y-23500D02*
X25000Y-23500D01*
X25000Y-23390D02*
X25000Y-23500D01*
X24000Y-22390D02*
X25000Y-23390D01*
X24000Y-22000D02*
X24000Y-22390D01*
X25885Y-23114D02*
X25875Y-23114D01*
X27000Y-22000D02*
X25885Y-23114D01*
X25875Y-23500D02*
X25875Y-23114D01*
X25875Y-25375D02*
X25875Y-23500D01*
X26000Y-25500D02*
X25875Y-25375D01*
X35500Y-35750D02*
X35500Y-34875D01*
X35500Y-34875D02*
X36000Y-34375D01*
X34000Y-35750D02*
X35500Y-35750D01*
X20000Y-28000D02*
X21000Y-28000D01*
X20000Y-27000D02*
X21000Y-27000D01*
X38000Y-24000D02*
X39000Y-24000D01*
X38000Y-23000D02*
X39000Y-23000D01*
X38000Y-32000D02*
X39000Y-32000D01*
X38000Y-33000D02*
X39000Y-33000D01*
X31000Y-36375D02*
X31000Y-36089D01*
X31997Y-36250D02*
X31550Y-35771D01*
X33500Y-36250D02*
X31997Y-36250D01*
X31550Y-33118D02*
X31550Y-35771D01*
X31000Y-32600D02*
X31550Y-33118D01*
X31550Y-35771D02*
X31000Y-36089D01*
X36000Y-36250D02*
X33500Y-36250D01*
X20000Y-24000D02*
X21000Y-24000D01*
X20000Y-23000D02*
X21000Y-23000D01*
G54D10*
G36*
X20076Y-39005D02*
X20005Y-39076D01*
X20000Y-39070D01*
X19994Y-39076D01*
X19923Y-39005D01*
X19929Y-39000D01*
X19923Y-38994D01*
X19994Y-38923D01*
X20000Y-38929D01*
X20005Y-38923D01*
X20076Y-38994D01*
X20070Y-39000D01*
X20076Y-39005D01*
X20076Y-39005D01*
G37*
G54D34*
X20076Y-39005D02*
X20005Y-39076D01*
X20000Y-39070D01*
X19994Y-39076D01*
X19923Y-39005D01*
X19929Y-39000D01*
X19923Y-38994D01*
X19994Y-38923D01*
X20000Y-38929D01*
X20005Y-38923D01*
X20076Y-38994D01*
X20070Y-39000D01*
X20076Y-39005D01*
G54D10*
G36*
X31270Y-35609D02*
X30859Y-35847D01*
X30832Y-35871D01*
X30802Y-35891D01*
X30791Y-35907D01*
X30777Y-35919D01*
X30762Y-35950D01*
X30675Y-35950D01*
X30583Y-35988D01*
X30513Y-36058D01*
X30475Y-36150D01*
X30475Y-36249D01*
X30475Y-36470D01*
X30025Y-36470D01*
X30025Y-36150D01*
X30025Y-32949D01*
X30025Y-32837D01*
X29962Y-32775D01*
X29550Y-32775D01*
X29550Y-33087D01*
X29612Y-33150D01*
X29725Y-33150D01*
X29824Y-33150D01*
X29916Y-33111D01*
X29986Y-33041D01*
X30025Y-32949D01*
X30025Y-36150D01*
X29986Y-36058D01*
X29916Y-35988D01*
X29824Y-35950D01*
X29780Y-35950D01*
X29780Y-34100D01*
X29758Y-33992D01*
X29697Y-33902D01*
X29450Y-33654D01*
X29450Y-33087D01*
X29450Y-32775D01*
X29037Y-32775D01*
X28975Y-32837D01*
X28975Y-32949D01*
X29013Y-33041D01*
X29083Y-33111D01*
X29175Y-33150D01*
X29274Y-33150D01*
X29387Y-33150D01*
X29450Y-33087D01*
X29450Y-33654D01*
X28536Y-32741D01*
X28549Y-32709D01*
X28550Y-32491D01*
X28466Y-32288D01*
X28327Y-32150D01*
X28349Y-32150D01*
X28441Y-32111D01*
X28481Y-32071D01*
X28590Y-32180D01*
X28684Y-32242D01*
X28795Y-32265D01*
X29002Y-32265D01*
X29013Y-32291D01*
X29071Y-32350D01*
X29013Y-32408D01*
X28975Y-32500D01*
X28975Y-32612D01*
X29037Y-32675D01*
X29450Y-32675D01*
X29450Y-32667D01*
X29550Y-32667D01*
X29550Y-32675D01*
X29962Y-32675D01*
X30025Y-32612D01*
X30025Y-32500D01*
X29986Y-32408D01*
X29968Y-32390D01*
X30491Y-32390D01*
X30450Y-32490D01*
X30449Y-32708D01*
X30533Y-32911D01*
X30688Y-33065D01*
X30769Y-33099D01*
X30688Y-33133D01*
X30534Y-33288D01*
X30450Y-33490D01*
X30449Y-33708D01*
X30533Y-33911D01*
X30688Y-34065D01*
X30769Y-34099D01*
X30688Y-34133D01*
X30534Y-34288D01*
X30450Y-34490D01*
X30449Y-34708D01*
X30533Y-34911D01*
X30688Y-35065D01*
X30890Y-35149D01*
X31108Y-35150D01*
X31270Y-35083D01*
X31270Y-35609D01*
X31270Y-35609D01*
G37*
G54D34*
X31270Y-35609D02*
X30859Y-35847D01*
X30832Y-35871D01*
X30802Y-35891D01*
X30791Y-35907D01*
X30777Y-35919D01*
X30762Y-35950D01*
X30675Y-35950D01*
X30583Y-35988D01*
X30513Y-36058D01*
X30475Y-36150D01*
X30475Y-36249D01*
X30475Y-36470D01*
X30025Y-36470D01*
X30025Y-36150D01*
X30025Y-32949D01*
X30025Y-32837D01*
X29962Y-32775D01*
X29550Y-32775D01*
X29550Y-33087D01*
X29612Y-33150D01*
X29725Y-33150D01*
X29824Y-33150D01*
X29916Y-33111D01*
X29986Y-33041D01*
X30025Y-32949D01*
X30025Y-36150D01*
X29986Y-36058D01*
X29916Y-35988D01*
X29824Y-35950D01*
X29780Y-35950D01*
X29780Y-34100D01*
X29758Y-33992D01*
X29697Y-33902D01*
X29450Y-33654D01*
X29450Y-33087D01*
X29450Y-32775D01*
X29037Y-32775D01*
X28975Y-32837D01*
X28975Y-32949D01*
X29013Y-33041D01*
X29083Y-33111D01*
X29175Y-33150D01*
X29274Y-33150D01*
X29387Y-33150D01*
X29450Y-33087D01*
X29450Y-33654D01*
X28536Y-32741D01*
X28549Y-32709D01*
X28550Y-32491D01*
X28466Y-32288D01*
X28327Y-32150D01*
X28349Y-32150D01*
X28441Y-32111D01*
X28481Y-32071D01*
X28590Y-32180D01*
X28684Y-32242D01*
X28795Y-32265D01*
X29002Y-32265D01*
X29013Y-32291D01*
X29071Y-32350D01*
X29013Y-32408D01*
X28975Y-32500D01*
X28975Y-32612D01*
X29037Y-32675D01*
X29450Y-32675D01*
X29450Y-32667D01*
X29550Y-32667D01*
X29550Y-32675D01*
X29962Y-32675D01*
X30025Y-32612D01*
X30025Y-32500D01*
X29986Y-32408D01*
X29968Y-32390D01*
X30491Y-32390D01*
X30450Y-32490D01*
X30449Y-32708D01*
X30533Y-32911D01*
X30688Y-33065D01*
X30769Y-33099D01*
X30688Y-33133D01*
X30534Y-33288D01*
X30450Y-33490D01*
X30449Y-33708D01*
X30533Y-33911D01*
X30688Y-34065D01*
X30769Y-34099D01*
X30688Y-34133D01*
X30534Y-34288D01*
X30450Y-34490D01*
X30449Y-34708D01*
X30533Y-34911D01*
X30688Y-35065D01*
X30890Y-35149D01*
X31108Y-35150D01*
X31270Y-35083D01*
X31270Y-35609D01*
G54D10*
G36*
X35475Y-34504D02*
X35302Y-34677D01*
X35241Y-34767D01*
X35220Y-34875D01*
X35220Y-35297D01*
X35202Y-35304D01*
X35054Y-35451D01*
X35047Y-35470D01*
X34452Y-35470D01*
X34445Y-35452D01*
X34298Y-35304D01*
X34105Y-35224D01*
X33895Y-35224D01*
X33702Y-35304D01*
X33554Y-35451D01*
X33499Y-35583D01*
X33445Y-35452D01*
X33298Y-35304D01*
X33290Y-35301D01*
X33290Y-35040D01*
X33605Y-34725D01*
X33655Y-34650D01*
X33749Y-34650D01*
X33841Y-34611D01*
X33911Y-34541D01*
X33950Y-34449D01*
X33950Y-34350D01*
X33950Y-33750D01*
X33911Y-33658D01*
X33841Y-33588D01*
X33749Y-33550D01*
X33696Y-33550D01*
X33715Y-33485D01*
X33400Y-33170D01*
X33394Y-33176D01*
X33323Y-33105D01*
X33329Y-33100D01*
X33014Y-32784D01*
X32918Y-32812D01*
X32845Y-33018D01*
X32856Y-33236D01*
X32862Y-33252D01*
X31505Y-31894D01*
X31480Y-31878D01*
X31549Y-31709D01*
X31550Y-31491D01*
X31466Y-31288D01*
X31311Y-31134D01*
X31109Y-31050D01*
X30955Y-31049D01*
X30002Y-30096D01*
X30030Y-30029D01*
X30030Y-29930D01*
X30030Y-29825D01*
X32802Y-32597D01*
X32802Y-32597D01*
X32862Y-32638D01*
X32892Y-32658D01*
X32892Y-32658D01*
X33000Y-32680D01*
X33094Y-32680D01*
X33084Y-32714D01*
X33400Y-33029D01*
X33405Y-33023D01*
X33476Y-33094D01*
X33470Y-33100D01*
X33785Y-33415D01*
X33881Y-33387D01*
X33954Y-33181D01*
X33943Y-32963D01*
X33927Y-32923D01*
X35202Y-34197D01*
X35292Y-34258D01*
X35292Y-34258D01*
X35400Y-34280D01*
X35475Y-34280D01*
X35475Y-34504D01*
X35475Y-34504D01*
G37*
G54D34*
X35475Y-34504D02*
X35302Y-34677D01*
X35241Y-34767D01*
X35220Y-34875D01*
X35220Y-35297D01*
X35202Y-35304D01*
X35054Y-35451D01*
X35047Y-35470D01*
X34452Y-35470D01*
X34445Y-35452D01*
X34298Y-35304D01*
X34105Y-35224D01*
X33895Y-35224D01*
X33702Y-35304D01*
X33554Y-35451D01*
X33499Y-35583D01*
X33445Y-35452D01*
X33298Y-35304D01*
X33290Y-35301D01*
X33290Y-35040D01*
X33605Y-34725D01*
X33655Y-34650D01*
X33749Y-34650D01*
X33841Y-34611D01*
X33911Y-34541D01*
X33950Y-34449D01*
X33950Y-34350D01*
X33950Y-33750D01*
X33911Y-33658D01*
X33841Y-33588D01*
X33749Y-33550D01*
X33696Y-33550D01*
X33715Y-33485D01*
X33400Y-33170D01*
X33394Y-33176D01*
X33323Y-33105D01*
X33329Y-33100D01*
X33014Y-32784D01*
X32918Y-32812D01*
X32845Y-33018D01*
X32856Y-33236D01*
X32862Y-33252D01*
X31505Y-31894D01*
X31480Y-31878D01*
X31549Y-31709D01*
X31550Y-31491D01*
X31466Y-31288D01*
X31311Y-31134D01*
X31109Y-31050D01*
X30955Y-31049D01*
X30002Y-30096D01*
X30030Y-30029D01*
X30030Y-29930D01*
X30030Y-29825D01*
X32802Y-32597D01*
X32802Y-32597D01*
X32862Y-32638D01*
X32892Y-32658D01*
X32892Y-32658D01*
X33000Y-32680D01*
X33094Y-32680D01*
X33084Y-32714D01*
X33400Y-33029D01*
X33405Y-33023D01*
X33476Y-33094D01*
X33470Y-33100D01*
X33785Y-33415D01*
X33881Y-33387D01*
X33954Y-33181D01*
X33943Y-32963D01*
X33927Y-32923D01*
X35202Y-34197D01*
X35292Y-34258D01*
X35292Y-34258D01*
X35400Y-34280D01*
X35475Y-34280D01*
X35475Y-34504D01*
G54D10*
G36*
X37781Y-35499D02*
X37691Y-35537D01*
X37537Y-35690D01*
X37454Y-35891D01*
X37454Y-36108D01*
X37466Y-36137D01*
X37134Y-36470D01*
X37030Y-36470D01*
X37030Y-35825D01*
X37019Y-35617D01*
X36961Y-35476D01*
X36868Y-35452D01*
X36797Y-35523D01*
X36797Y-35381D01*
X36773Y-35288D01*
X36575Y-35219D01*
X36367Y-35230D01*
X36226Y-35288D01*
X36202Y-35381D01*
X36500Y-35679D01*
X36797Y-35381D01*
X36797Y-35523D01*
X36570Y-35750D01*
X36868Y-36047D01*
X36961Y-36023D01*
X37030Y-35825D01*
X37030Y-36470D01*
X36477Y-36470D01*
X36525Y-36355D01*
X36525Y-36274D01*
X36632Y-36269D01*
X36773Y-36211D01*
X36797Y-36118D01*
X36500Y-35820D01*
X36494Y-35826D01*
X36423Y-35755D01*
X36429Y-35750D01*
X36131Y-35452D01*
X36038Y-35476D01*
X36000Y-35585D01*
X35945Y-35452D01*
X35798Y-35304D01*
X35780Y-35297D01*
X35780Y-34990D01*
X35970Y-34800D01*
X36324Y-34800D01*
X36416Y-34761D01*
X36486Y-34691D01*
X36525Y-34599D01*
X36525Y-34500D01*
X36525Y-34280D01*
X37525Y-34280D01*
X37537Y-34308D01*
X37690Y-34462D01*
X37781Y-34499D01*
X37691Y-34537D01*
X37537Y-34690D01*
X37454Y-34891D01*
X37454Y-35108D01*
X37537Y-35308D01*
X37690Y-35462D01*
X37781Y-35499D01*
X37781Y-35499D01*
G37*
G54D34*
X37781Y-35499D02*
X37691Y-35537D01*
X37537Y-35690D01*
X37454Y-35891D01*
X37454Y-36108D01*
X37466Y-36137D01*
X37134Y-36470D01*
X37030Y-36470D01*
X37030Y-35825D01*
X37019Y-35617D01*
X36961Y-35476D01*
X36868Y-35452D01*
X36797Y-35523D01*
X36797Y-35381D01*
X36773Y-35288D01*
X36575Y-35219D01*
X36367Y-35230D01*
X36226Y-35288D01*
X36202Y-35381D01*
X36500Y-35679D01*
X36797Y-35381D01*
X36797Y-35523D01*
X36570Y-35750D01*
X36868Y-36047D01*
X36961Y-36023D01*
X37030Y-35825D01*
X37030Y-36470D01*
X36477Y-36470D01*
X36525Y-36355D01*
X36525Y-36274D01*
X36632Y-36269D01*
X36773Y-36211D01*
X36797Y-36118D01*
X36500Y-35820D01*
X36494Y-35826D01*
X36423Y-35755D01*
X36429Y-35750D01*
X36131Y-35452D01*
X36038Y-35476D01*
X36000Y-35585D01*
X35945Y-35452D01*
X35798Y-35304D01*
X35780Y-35297D01*
X35780Y-34990D01*
X35970Y-34800D01*
X36324Y-34800D01*
X36416Y-34761D01*
X36486Y-34691D01*
X36525Y-34599D01*
X36525Y-34500D01*
X36525Y-34280D01*
X37525Y-34280D01*
X37537Y-34308D01*
X37690Y-34462D01*
X37781Y-34499D01*
X37691Y-34537D01*
X37537Y-34690D01*
X37454Y-34891D01*
X37454Y-35108D01*
X37537Y-35308D01*
X37690Y-35462D01*
X37781Y-35499D01*
G54D10*
G36*
X39076Y-20005D02*
X39005Y-20076D01*
X39000Y-20070D01*
X38994Y-20076D01*
X38929Y-20011D01*
X38923Y-20005D01*
X38929Y-20000D01*
X38923Y-19994D01*
X38994Y-19923D01*
X39000Y-19929D01*
X39005Y-19923D01*
X39076Y-19994D01*
X39070Y-20000D01*
X39076Y-20005D01*
X39076Y-20005D01*
G37*
G54D34*
X39076Y-20005D02*
X39005Y-20076D01*
X39000Y-20070D01*
X38994Y-20076D01*
X38929Y-20011D01*
X38923Y-20005D01*
X38929Y-20000D01*
X38923Y-19994D01*
X38994Y-19923D01*
X39000Y-19929D01*
X39005Y-19923D01*
X39076Y-19994D01*
X39070Y-20000D01*
X39076Y-20005D01*
G54D10*
G36*
X39675Y-37675D02*
X39604Y-37675D01*
X39000Y-37675D01*
X38968Y-37681D01*
X38936Y-37681D01*
X38553Y-37757D01*
X38553Y-37757D01*
X38495Y-37781D01*
X38436Y-37805D01*
X38436Y-37805D01*
X38112Y-38022D01*
X38112Y-38022D01*
X38022Y-38112D01*
X37805Y-38436D01*
X37805Y-38436D01*
X37771Y-38519D01*
X37757Y-38553D01*
X37757Y-38553D01*
X37681Y-38936D01*
X37681Y-38968D01*
X37675Y-39000D01*
X37675Y-39500D01*
X37675Y-39675D01*
X36545Y-39675D01*
X36545Y-39345D01*
X36545Y-39245D01*
X36545Y-38654D01*
X36507Y-38562D01*
X36444Y-38499D01*
X36507Y-38437D01*
X36545Y-38345D01*
X36545Y-38245D01*
X36545Y-37654D01*
X36507Y-37562D01*
X36437Y-37492D01*
X36345Y-37454D01*
X36245Y-37454D01*
X35654Y-37454D01*
X35562Y-37492D01*
X35492Y-37562D01*
X35454Y-37654D01*
X35454Y-37708D01*
X35382Y-37688D01*
X35311Y-37758D01*
X35311Y-37617D01*
X35285Y-37522D01*
X35080Y-37449D01*
X34863Y-37460D01*
X34714Y-37522D01*
X34688Y-37617D01*
X35000Y-37929D01*
X35311Y-37617D01*
X35311Y-37758D01*
X35070Y-38000D01*
X35382Y-38311D01*
X35454Y-38291D01*
X35454Y-38345D01*
X35492Y-38437D01*
X35555Y-38500D01*
X35492Y-38562D01*
X35454Y-38654D01*
X35454Y-38708D01*
X35382Y-38688D01*
X35311Y-38758D01*
X35311Y-38617D01*
X35285Y-38522D01*
X35226Y-38501D01*
X35285Y-38477D01*
X35311Y-38382D01*
X35000Y-38070D01*
X34688Y-38382D01*
X34714Y-38477D01*
X34773Y-38498D01*
X34714Y-38522D01*
X34688Y-38617D01*
X35000Y-38929D01*
X35311Y-38617D01*
X35311Y-38758D01*
X35070Y-39000D01*
X35382Y-39311D01*
X35454Y-39291D01*
X35454Y-39345D01*
X35492Y-39437D01*
X35562Y-39507D01*
X35654Y-39545D01*
X35754Y-39545D01*
X36345Y-39545D01*
X36437Y-39507D01*
X36507Y-39437D01*
X36545Y-39345D01*
X36545Y-39675D01*
X35311Y-39675D01*
X35311Y-39382D01*
X35000Y-39070D01*
X34929Y-39141D01*
X34929Y-39000D01*
X34617Y-38688D01*
X34522Y-38714D01*
X34499Y-38779D01*
X34462Y-38691D01*
X34309Y-38537D01*
X34218Y-38500D01*
X34308Y-38462D01*
X34462Y-38309D01*
X34497Y-38224D01*
X34522Y-38285D01*
X34617Y-38311D01*
X34929Y-38000D01*
X34617Y-37688D01*
X34522Y-37714D01*
X34499Y-37779D01*
X34462Y-37691D01*
X34309Y-37537D01*
X34108Y-37454D01*
X33891Y-37454D01*
X33691Y-37537D01*
X33537Y-37690D01*
X33500Y-37781D01*
X33462Y-37691D01*
X33309Y-37537D01*
X33108Y-37454D01*
X32891Y-37454D01*
X32691Y-37537D01*
X32537Y-37690D01*
X32500Y-37781D01*
X32462Y-37691D01*
X32309Y-37537D01*
X32108Y-37454D01*
X31891Y-37454D01*
X31691Y-37537D01*
X31537Y-37690D01*
X31500Y-37781D01*
X31462Y-37691D01*
X31321Y-37550D01*
X31324Y-37550D01*
X31416Y-37511D01*
X31486Y-37441D01*
X31525Y-37349D01*
X31525Y-37237D01*
X31462Y-37175D01*
X31050Y-37175D01*
X31050Y-37182D01*
X30950Y-37182D01*
X30950Y-37175D01*
X30537Y-37175D01*
X30475Y-37237D01*
X30475Y-37349D01*
X30513Y-37441D01*
X30583Y-37511D01*
X30675Y-37550D01*
X30678Y-37550D01*
X30537Y-37690D01*
X30500Y-37781D01*
X30462Y-37691D01*
X30309Y-37537D01*
X30108Y-37454D01*
X29974Y-37454D01*
X29986Y-37441D01*
X30025Y-37349D01*
X30025Y-37237D01*
X29962Y-37175D01*
X29550Y-37175D01*
X29550Y-37487D01*
X29612Y-37550D01*
X29678Y-37550D01*
X29537Y-37690D01*
X29500Y-37781D01*
X29462Y-37691D01*
X29321Y-37550D01*
X29387Y-37550D01*
X29450Y-37487D01*
X29450Y-37175D01*
X29037Y-37175D01*
X28975Y-37237D01*
X28975Y-37349D01*
X29013Y-37441D01*
X29025Y-37454D01*
X28891Y-37454D01*
X28691Y-37537D01*
X28537Y-37690D01*
X28500Y-37781D01*
X28462Y-37691D01*
X28321Y-37550D01*
X28324Y-37550D01*
X28416Y-37511D01*
X28486Y-37441D01*
X28525Y-37349D01*
X28525Y-37237D01*
X28462Y-37175D01*
X28050Y-37175D01*
X28050Y-37182D01*
X27950Y-37182D01*
X27950Y-37175D01*
X27537Y-37175D01*
X27475Y-37237D01*
X27475Y-37349D01*
X27513Y-37441D01*
X27583Y-37511D01*
X27675Y-37550D01*
X27678Y-37550D01*
X27537Y-37690D01*
X27500Y-37781D01*
X27462Y-37691D01*
X27309Y-37537D01*
X27108Y-37454D01*
X26891Y-37454D01*
X26700Y-37533D01*
X26700Y-36599D01*
X26700Y-36500D01*
X26700Y-35800D01*
X26661Y-35708D01*
X26591Y-35638D01*
X26499Y-35600D01*
X26400Y-35600D01*
X25700Y-35600D01*
X25608Y-35638D01*
X25538Y-35708D01*
X25518Y-35754D01*
X25496Y-35732D01*
X25451Y-35777D01*
X25417Y-35677D01*
X25193Y-35595D01*
X24955Y-35605D01*
X24782Y-35677D01*
X24748Y-35777D01*
X25100Y-36129D01*
X25105Y-36123D01*
X25176Y-36194D01*
X25170Y-36200D01*
X25176Y-36205D01*
X25105Y-36276D01*
X25100Y-36270D01*
X24748Y-36622D01*
X24782Y-36722D01*
X25006Y-36804D01*
X25244Y-36794D01*
X25417Y-36722D01*
X25451Y-36622D01*
X25451Y-36622D01*
X25496Y-36667D01*
X25518Y-36645D01*
X25538Y-36691D01*
X25608Y-36761D01*
X25700Y-36800D01*
X25799Y-36800D01*
X26499Y-36800D01*
X26591Y-36761D01*
X26661Y-36691D01*
X26700Y-36599D01*
X26700Y-37533D01*
X26691Y-37537D01*
X26537Y-37690D01*
X26500Y-37781D01*
X26462Y-37691D01*
X26309Y-37537D01*
X26108Y-37454D01*
X25891Y-37454D01*
X25691Y-37537D01*
X25537Y-37690D01*
X25500Y-37781D01*
X25462Y-37691D01*
X25451Y-37680D01*
X25309Y-37537D01*
X25108Y-37454D01*
X24891Y-37454D01*
X24691Y-37537D01*
X24537Y-37690D01*
X24500Y-37781D01*
X24462Y-37691D01*
X24309Y-37537D01*
X24108Y-37454D01*
X23891Y-37454D01*
X23691Y-37537D01*
X23537Y-37690D01*
X23500Y-37781D01*
X23462Y-37691D01*
X23309Y-37537D01*
X23108Y-37454D01*
X22891Y-37454D01*
X22691Y-37537D01*
X22537Y-37690D01*
X22454Y-37891D01*
X22454Y-38108D01*
X22537Y-38308D01*
X22690Y-38462D01*
X22781Y-38499D01*
X22691Y-38537D01*
X22537Y-38690D01*
X22454Y-38891D01*
X22454Y-39108D01*
X22537Y-39308D01*
X22690Y-39462D01*
X22891Y-39545D01*
X23108Y-39545D01*
X23308Y-39462D01*
X23462Y-39309D01*
X23499Y-39218D01*
X23537Y-39308D01*
X23690Y-39462D01*
X23891Y-39545D01*
X24108Y-39545D01*
X24308Y-39462D01*
X24462Y-39309D01*
X24499Y-39218D01*
X24537Y-39308D01*
X24690Y-39462D01*
X24891Y-39545D01*
X25108Y-39545D01*
X25308Y-39462D01*
X25462Y-39309D01*
X25499Y-39218D01*
X25537Y-39308D01*
X25690Y-39462D01*
X25891Y-39545D01*
X26108Y-39545D01*
X26308Y-39462D01*
X26462Y-39309D01*
X26499Y-39218D01*
X26537Y-39308D01*
X26690Y-39462D01*
X26891Y-39545D01*
X27108Y-39545D01*
X27308Y-39462D01*
X27462Y-39309D01*
X27499Y-39218D01*
X27537Y-39308D01*
X27690Y-39462D01*
X27891Y-39545D01*
X28108Y-39545D01*
X28308Y-39462D01*
X28462Y-39309D01*
X28499Y-39218D01*
X28537Y-39308D01*
X28690Y-39462D01*
X28891Y-39545D01*
X29108Y-39545D01*
X29308Y-39462D01*
X29462Y-39309D01*
X29499Y-39218D01*
X29537Y-39308D01*
X29690Y-39462D01*
X29891Y-39545D01*
X30108Y-39545D01*
X30308Y-39462D01*
X30462Y-39309D01*
X30499Y-39218D01*
X30537Y-39308D01*
X30690Y-39462D01*
X30891Y-39545D01*
X31108Y-39545D01*
X31308Y-39462D01*
X31462Y-39309D01*
X31499Y-39218D01*
X31537Y-39308D01*
X31690Y-39462D01*
X31891Y-39545D01*
X32108Y-39545D01*
X32308Y-39462D01*
X32462Y-39309D01*
X32499Y-39218D01*
X32537Y-39308D01*
X32690Y-39462D01*
X32891Y-39545D01*
X33108Y-39545D01*
X33308Y-39462D01*
X33462Y-39309D01*
X33499Y-39218D01*
X33537Y-39308D01*
X33690Y-39462D01*
X33891Y-39545D01*
X34108Y-39545D01*
X34308Y-39462D01*
X34462Y-39309D01*
X34497Y-39224D01*
X34522Y-39285D01*
X34617Y-39311D01*
X34929Y-39000D01*
X34929Y-39141D01*
X34688Y-39382D01*
X34714Y-39477D01*
X34919Y-39550D01*
X35136Y-39539D01*
X35285Y-39477D01*
X35311Y-39382D01*
X35311Y-39675D01*
X21446Y-39675D01*
X20952Y-39675D01*
X20693Y-39675D01*
X20719Y-39648D01*
X20675Y-39604D01*
X20811Y-39528D01*
X20952Y-39177D01*
X20947Y-38799D01*
X20811Y-38471D01*
X20675Y-38395D01*
X20719Y-38351D01*
X20746Y-38378D01*
X20910Y-38446D01*
X21088Y-38446D01*
X21252Y-38379D01*
X21378Y-38253D01*
X21446Y-38089D01*
X21446Y-37911D01*
X21379Y-37747D01*
X21253Y-37621D01*
X21089Y-37553D01*
X20911Y-37553D01*
X20747Y-37620D01*
X20621Y-37746D01*
X20553Y-37910D01*
X20553Y-38088D01*
X20620Y-38252D01*
X20648Y-38280D01*
X20604Y-38324D01*
X20528Y-38188D01*
X20177Y-38047D01*
X19799Y-38052D01*
X19471Y-38188D01*
X19395Y-38324D01*
X19351Y-38280D01*
X19325Y-38306D01*
X19325Y-21325D01*
X19500Y-21325D01*
X20000Y-21325D01*
X20031Y-21318D01*
X20063Y-21318D01*
X20446Y-21242D01*
X20446Y-21242D01*
X20446Y-21242D01*
X20480Y-21228D01*
X20563Y-21194D01*
X20563Y-21194D01*
X20563Y-21194D01*
X20887Y-20977D01*
X20887Y-20977D01*
X20977Y-20887D01*
X20977Y-20887D01*
X20977Y-20887D01*
X21194Y-20563D01*
X21194Y-20563D01*
X21194Y-20563D01*
X21218Y-20504D01*
X21242Y-20446D01*
X21242Y-20446D01*
X21242Y-20446D01*
X21318Y-20063D01*
X21318Y-20031D01*
X21325Y-20000D01*
X21325Y-19500D01*
X21325Y-19325D01*
X27571Y-19325D01*
X27513Y-19383D01*
X27475Y-19475D01*
X27475Y-19574D01*
X27475Y-20124D01*
X27513Y-20216D01*
X27583Y-20286D01*
X27675Y-20325D01*
X27720Y-20325D01*
X27720Y-24634D01*
X27530Y-24823D01*
X27530Y-21895D01*
X27449Y-21700D01*
X27300Y-21550D01*
X27105Y-21470D01*
X26895Y-21469D01*
X26700Y-21550D01*
X26550Y-21699D01*
X26470Y-21894D01*
X26469Y-22104D01*
X26478Y-22125D01*
X25707Y-22896D01*
X25677Y-22916D01*
X25633Y-22981D01*
X25558Y-23013D01*
X25499Y-23071D01*
X25441Y-23013D01*
X25349Y-22975D01*
X25250Y-22975D01*
X24980Y-22975D01*
X24459Y-22453D01*
X24491Y-22421D01*
X24530Y-22329D01*
X24530Y-22230D01*
X24530Y-21670D01*
X24491Y-21578D01*
X24421Y-21508D01*
X24329Y-21470D01*
X24230Y-21470D01*
X23670Y-21470D01*
X23578Y-21508D01*
X23508Y-21578D01*
X23470Y-21670D01*
X23470Y-21769D01*
X23470Y-22329D01*
X23508Y-22421D01*
X23578Y-22491D01*
X23670Y-22530D01*
X23763Y-22530D01*
X23802Y-22588D01*
X24700Y-23486D01*
X24700Y-23824D01*
X24720Y-23873D01*
X24720Y-24950D01*
X24650Y-24950D01*
X24558Y-24988D01*
X24488Y-25058D01*
X24450Y-25150D01*
X24450Y-25249D01*
X24450Y-25849D01*
X24488Y-25941D01*
X24558Y-26011D01*
X24650Y-26050D01*
X24749Y-26050D01*
X25349Y-26050D01*
X25441Y-26011D01*
X25511Y-25941D01*
X25550Y-25849D01*
X25550Y-25827D01*
X25688Y-25965D01*
X25890Y-26049D01*
X26108Y-26050D01*
X26311Y-25966D01*
X26465Y-25811D01*
X26549Y-25609D01*
X26550Y-25391D01*
X26466Y-25188D01*
X26311Y-25034D01*
X26155Y-24968D01*
X26155Y-24002D01*
X26191Y-23986D01*
X26261Y-23916D01*
X26300Y-23824D01*
X26300Y-23725D01*
X26300Y-23175D01*
X26276Y-23119D01*
X26874Y-22521D01*
X26894Y-22529D01*
X27104Y-22530D01*
X27299Y-22449D01*
X27449Y-22300D01*
X27529Y-22105D01*
X27530Y-21895D01*
X27530Y-24823D01*
X25058Y-27295D01*
X25094Y-27210D01*
X25094Y-27019D01*
X25021Y-26842D01*
X24886Y-26707D01*
X24710Y-26634D01*
X24519Y-26634D01*
X24342Y-26707D01*
X24207Y-26841D01*
X24134Y-27018D01*
X24134Y-27209D01*
X24207Y-27385D01*
X24341Y-27520D01*
X24518Y-27594D01*
X24709Y-27594D01*
X24795Y-27558D01*
X24509Y-27844D01*
X24434Y-27660D01*
X24265Y-27491D01*
X24045Y-27400D01*
X23806Y-27399D01*
X23585Y-27491D01*
X23416Y-27659D01*
X23325Y-27880D01*
X23325Y-28118D01*
X23416Y-28339D01*
X23584Y-28508D01*
X23769Y-28584D01*
X23452Y-28902D01*
X23391Y-28992D01*
X23370Y-29100D01*
X23370Y-32799D01*
X23349Y-32791D01*
X23250Y-32791D01*
X22750Y-32791D01*
X22658Y-32829D01*
X22588Y-32899D01*
X22550Y-32991D01*
X22550Y-33090D01*
X22550Y-33092D01*
X22428Y-33092D01*
X22338Y-33109D01*
X22320Y-33113D01*
X22230Y-33174D01*
X22102Y-33302D01*
X22041Y-33392D01*
X22020Y-33500D01*
X22020Y-35200D01*
X21975Y-35200D01*
X21883Y-35238D01*
X21813Y-35308D01*
X21775Y-35400D01*
X21775Y-35499D01*
X21775Y-35849D01*
X21813Y-35941D01*
X21871Y-36000D01*
X21848Y-36022D01*
X21620Y-35794D01*
X21550Y-35747D01*
X21550Y-35080D01*
X21545Y-34988D01*
X21545Y-33891D01*
X21462Y-33691D01*
X21309Y-33537D01*
X21218Y-33500D01*
X21308Y-33462D01*
X21462Y-33309D01*
X21545Y-33108D01*
X21545Y-32891D01*
X21462Y-32691D01*
X21309Y-32537D01*
X21218Y-32500D01*
X21308Y-32462D01*
X21462Y-32309D01*
X21545Y-32108D01*
X21545Y-31891D01*
X21462Y-31691D01*
X21309Y-31537D01*
X21218Y-31500D01*
X21308Y-31462D01*
X21462Y-31309D01*
X21545Y-31108D01*
X21545Y-30891D01*
X21462Y-30691D01*
X21309Y-30537D01*
X21218Y-30500D01*
X21308Y-30462D01*
X21462Y-30309D01*
X21545Y-30108D01*
X21545Y-29891D01*
X21462Y-29691D01*
X21309Y-29537D01*
X21218Y-29500D01*
X21308Y-29462D01*
X21462Y-29309D01*
X21545Y-29108D01*
X21545Y-28891D01*
X21462Y-28691D01*
X21309Y-28537D01*
X21218Y-28500D01*
X21308Y-28462D01*
X21462Y-28309D01*
X21545Y-28108D01*
X21545Y-27891D01*
X21462Y-27691D01*
X21309Y-27537D01*
X21218Y-27500D01*
X21308Y-27462D01*
X21462Y-27309D01*
X21545Y-27108D01*
X21545Y-26891D01*
X21462Y-26691D01*
X21309Y-26537D01*
X21218Y-26500D01*
X21308Y-26462D01*
X21462Y-26309D01*
X21545Y-26108D01*
X21545Y-25891D01*
X21462Y-25691D01*
X21309Y-25537D01*
X21218Y-25500D01*
X21308Y-25462D01*
X21462Y-25309D01*
X21545Y-25108D01*
X21545Y-24891D01*
X21462Y-24691D01*
X21309Y-24537D01*
X21218Y-24500D01*
X21308Y-24462D01*
X21462Y-24309D01*
X21545Y-24108D01*
X21545Y-23891D01*
X21462Y-23691D01*
X21309Y-23537D01*
X21218Y-23500D01*
X21308Y-23462D01*
X21462Y-23309D01*
X21545Y-23108D01*
X21545Y-22891D01*
X21462Y-22691D01*
X21309Y-22537D01*
X21108Y-22454D01*
X20891Y-22454D01*
X20691Y-22537D01*
X20537Y-22690D01*
X20525Y-22720D01*
X20474Y-22720D01*
X20462Y-22691D01*
X20309Y-22537D01*
X20108Y-22454D01*
X19891Y-22454D01*
X19691Y-22537D01*
X19537Y-22690D01*
X19454Y-22891D01*
X19454Y-23108D01*
X19537Y-23308D01*
X19690Y-23462D01*
X19781Y-23499D01*
X19691Y-23537D01*
X19537Y-23690D01*
X19454Y-23891D01*
X19454Y-24108D01*
X19537Y-24308D01*
X19690Y-24462D01*
X19781Y-24499D01*
X19691Y-24537D01*
X19537Y-24690D01*
X19454Y-24891D01*
X19454Y-25108D01*
X19537Y-25308D01*
X19690Y-25462D01*
X19781Y-25499D01*
X19691Y-25537D01*
X19537Y-25690D01*
X19454Y-25891D01*
X19454Y-26108D01*
X19537Y-26308D01*
X19690Y-26462D01*
X19781Y-26499D01*
X19691Y-26537D01*
X19537Y-26690D01*
X19454Y-26891D01*
X19454Y-27108D01*
X19537Y-27308D01*
X19690Y-27462D01*
X19781Y-27499D01*
X19691Y-27537D01*
X19537Y-27690D01*
X19454Y-27891D01*
X19454Y-28108D01*
X19537Y-28308D01*
X19690Y-28462D01*
X19781Y-28499D01*
X19691Y-28537D01*
X19537Y-28690D01*
X19454Y-28891D01*
X19454Y-29108D01*
X19537Y-29308D01*
X19690Y-29462D01*
X19781Y-29499D01*
X19691Y-29537D01*
X19537Y-29690D01*
X19454Y-29891D01*
X19454Y-30108D01*
X19537Y-30308D01*
X19690Y-30462D01*
X19781Y-30499D01*
X19691Y-30537D01*
X19537Y-30690D01*
X19454Y-30891D01*
X19454Y-31108D01*
X19537Y-31308D01*
X19690Y-31462D01*
X19781Y-31499D01*
X19691Y-31537D01*
X19537Y-31690D01*
X19454Y-31891D01*
X19454Y-32108D01*
X19537Y-32308D01*
X19690Y-32462D01*
X19781Y-32499D01*
X19691Y-32537D01*
X19537Y-32690D01*
X19454Y-32891D01*
X19454Y-33108D01*
X19537Y-33308D01*
X19690Y-33462D01*
X19781Y-33499D01*
X19691Y-33537D01*
X19537Y-33690D01*
X19454Y-33891D01*
X19454Y-34108D01*
X19537Y-34308D01*
X19690Y-34462D01*
X19775Y-34497D01*
X19714Y-34522D01*
X19688Y-34617D01*
X20000Y-34929D01*
X20311Y-34617D01*
X20285Y-34522D01*
X20220Y-34499D01*
X20308Y-34462D01*
X20462Y-34309D01*
X20474Y-34280D01*
X20525Y-34280D01*
X20537Y-34308D01*
X20690Y-34462D01*
X20775Y-34497D01*
X20714Y-34522D01*
X20688Y-34617D01*
X21000Y-34929D01*
X21311Y-34617D01*
X21285Y-34522D01*
X21220Y-34499D01*
X21308Y-34462D01*
X21462Y-34309D01*
X21545Y-34108D01*
X21545Y-33891D01*
X21545Y-34988D01*
X21539Y-34863D01*
X21477Y-34714D01*
X21382Y-34688D01*
X21070Y-35000D01*
X21382Y-35311D01*
X21477Y-35285D01*
X21550Y-35080D01*
X21550Y-35747D01*
X21545Y-35744D01*
X21545Y-35654D01*
X21507Y-35562D01*
X21437Y-35492D01*
X21345Y-35454D01*
X21291Y-35454D01*
X21311Y-35382D01*
X21000Y-35070D01*
X20929Y-35141D01*
X20929Y-35000D01*
X20617Y-34688D01*
X20522Y-34714D01*
X20501Y-34773D01*
X20477Y-34714D01*
X20382Y-34688D01*
X20070Y-35000D01*
X20382Y-35311D01*
X20477Y-35285D01*
X20498Y-35226D01*
X20522Y-35285D01*
X20617Y-35311D01*
X20929Y-35000D01*
X20929Y-35141D01*
X20688Y-35382D01*
X20708Y-35454D01*
X20654Y-35454D01*
X20562Y-35492D01*
X20499Y-35555D01*
X20437Y-35492D01*
X20345Y-35454D01*
X20291Y-35454D01*
X20311Y-35382D01*
X20000Y-35070D01*
X19929Y-35141D01*
X19929Y-35000D01*
X19617Y-34688D01*
X19522Y-34714D01*
X19449Y-34919D01*
X19460Y-35136D01*
X19522Y-35285D01*
X19617Y-35311D01*
X19929Y-35000D01*
X19929Y-35141D01*
X19688Y-35382D01*
X19708Y-35454D01*
X19654Y-35454D01*
X19562Y-35492D01*
X19492Y-35562D01*
X19454Y-35654D01*
X19454Y-35754D01*
X19454Y-36345D01*
X19492Y-36437D01*
X19562Y-36507D01*
X19654Y-36545D01*
X19754Y-36545D01*
X20345Y-36545D01*
X20437Y-36507D01*
X20500Y-36444D01*
X20562Y-36507D01*
X20654Y-36545D01*
X20754Y-36545D01*
X21345Y-36545D01*
X21437Y-36507D01*
X21475Y-36469D01*
X21585Y-36580D01*
X21679Y-36642D01*
X21790Y-36665D01*
X21802Y-36665D01*
X21813Y-36691D01*
X21883Y-36761D01*
X21975Y-36800D01*
X22074Y-36800D01*
X22624Y-36800D01*
X22716Y-36761D01*
X22786Y-36691D01*
X22825Y-36599D01*
X22825Y-36500D01*
X22825Y-36280D01*
X23499Y-36280D01*
X23499Y-36318D01*
X23591Y-36539D01*
X23759Y-36708D01*
X23980Y-36799D01*
X24218Y-36800D01*
X24439Y-36708D01*
X24608Y-36540D01*
X24612Y-36529D01*
X24677Y-36551D01*
X25029Y-36200D01*
X24677Y-35848D01*
X24612Y-35870D01*
X24608Y-35860D01*
X24440Y-35691D01*
X24219Y-35600D01*
X23981Y-35599D01*
X23760Y-35691D01*
X23731Y-35720D01*
X22825Y-35720D01*
X22825Y-35400D01*
X22786Y-35308D01*
X22716Y-35238D01*
X22624Y-35200D01*
X22580Y-35200D01*
X22580Y-34081D01*
X22588Y-34100D01*
X22658Y-34170D01*
X22750Y-34209D01*
X22849Y-34209D01*
X22937Y-34209D01*
X23000Y-34146D01*
X23000Y-33953D01*
X23100Y-33953D01*
X23100Y-34146D01*
X23162Y-34209D01*
X23250Y-34209D01*
X23349Y-34209D01*
X23441Y-34170D01*
X23511Y-34100D01*
X23550Y-34008D01*
X23550Y-33984D01*
X23500Y-33934D01*
X23550Y-33934D01*
X23550Y-33908D01*
X23572Y-33908D01*
X23679Y-33886D01*
X23679Y-33886D01*
X23769Y-33825D01*
X24250Y-33345D01*
X24250Y-33346D01*
X24250Y-33496D01*
X24251Y-33499D01*
X24250Y-33503D01*
X24250Y-33602D01*
X24250Y-33752D01*
X24251Y-33755D01*
X24250Y-33759D01*
X24250Y-33858D01*
X24250Y-34008D01*
X24288Y-34100D01*
X24358Y-34170D01*
X24450Y-34209D01*
X24549Y-34209D01*
X25049Y-34209D01*
X25141Y-34170D01*
X25199Y-34113D01*
X25884Y-34797D01*
X25974Y-34858D01*
X25974Y-34858D01*
X26082Y-34880D01*
X27520Y-34880D01*
X27533Y-34911D01*
X27688Y-35065D01*
X27720Y-35079D01*
X27720Y-35950D01*
X27675Y-35950D01*
X27583Y-35988D01*
X27513Y-36058D01*
X27475Y-36150D01*
X27475Y-36249D01*
X27475Y-36599D01*
X27513Y-36691D01*
X27571Y-36750D01*
X27513Y-36808D01*
X27475Y-36900D01*
X27475Y-37012D01*
X27537Y-37075D01*
X27950Y-37075D01*
X27950Y-37067D01*
X28050Y-37067D01*
X28050Y-37075D01*
X28462Y-37075D01*
X28525Y-37012D01*
X28525Y-36900D01*
X28486Y-36808D01*
X28428Y-36749D01*
X28486Y-36691D01*
X28525Y-36599D01*
X28525Y-36500D01*
X28525Y-36150D01*
X28486Y-36058D01*
X28416Y-35988D01*
X28324Y-35950D01*
X28280Y-35950D01*
X28280Y-35079D01*
X28311Y-35066D01*
X28465Y-34911D01*
X28549Y-34709D01*
X28550Y-34491D01*
X28466Y-34288D01*
X28311Y-34134D01*
X28230Y-34100D01*
X28311Y-34066D01*
X28465Y-33911D01*
X28549Y-33709D01*
X28550Y-33546D01*
X29220Y-34215D01*
X29220Y-35950D01*
X29175Y-35950D01*
X29083Y-35988D01*
X29013Y-36058D01*
X28975Y-36150D01*
X28975Y-36249D01*
X28975Y-36599D01*
X29013Y-36691D01*
X29071Y-36750D01*
X29013Y-36808D01*
X28975Y-36900D01*
X28975Y-37012D01*
X29037Y-37075D01*
X29450Y-37075D01*
X29450Y-37067D01*
X29550Y-37067D01*
X29550Y-37075D01*
X29962Y-37075D01*
X30007Y-37030D01*
X30492Y-37030D01*
X30537Y-37075D01*
X30950Y-37075D01*
X30950Y-37067D01*
X31050Y-37067D01*
X31050Y-37075D01*
X31462Y-37075D01*
X31507Y-37030D01*
X37250Y-37030D01*
X37357Y-37008D01*
X37357Y-37008D01*
X37447Y-36947D01*
X37862Y-36533D01*
X37891Y-36545D01*
X38108Y-36545D01*
X38308Y-36462D01*
X38462Y-36309D01*
X38474Y-36280D01*
X38525Y-36280D01*
X38537Y-36308D01*
X38690Y-36462D01*
X38891Y-36545D01*
X39108Y-36545D01*
X39308Y-36462D01*
X39462Y-36309D01*
X39545Y-36108D01*
X39545Y-35891D01*
X39462Y-35691D01*
X39309Y-35537D01*
X39218Y-35500D01*
X39308Y-35462D01*
X39462Y-35309D01*
X39545Y-35108D01*
X39545Y-34891D01*
X39462Y-34691D01*
X39309Y-34537D01*
X39218Y-34500D01*
X39308Y-34462D01*
X39462Y-34309D01*
X39545Y-34108D01*
X39545Y-33891D01*
X39462Y-33691D01*
X39309Y-33537D01*
X39218Y-33500D01*
X39308Y-33462D01*
X39462Y-33309D01*
X39545Y-33108D01*
X39545Y-32891D01*
X39462Y-32691D01*
X39309Y-32537D01*
X39218Y-32500D01*
X39308Y-32462D01*
X39462Y-32309D01*
X39545Y-32108D01*
X39545Y-31891D01*
X39462Y-31691D01*
X39309Y-31537D01*
X39218Y-31500D01*
X39308Y-31462D01*
X39462Y-31309D01*
X39545Y-31108D01*
X39545Y-30891D01*
X39462Y-30691D01*
X39309Y-30537D01*
X39218Y-30500D01*
X39308Y-30462D01*
X39462Y-30309D01*
X39545Y-30108D01*
X39545Y-29891D01*
X39462Y-29691D01*
X39309Y-29537D01*
X39218Y-29500D01*
X39308Y-29462D01*
X39462Y-29309D01*
X39545Y-29108D01*
X39545Y-28891D01*
X39462Y-28691D01*
X39309Y-28537D01*
X39218Y-28500D01*
X39308Y-28462D01*
X39462Y-28309D01*
X39545Y-28108D01*
X39545Y-27891D01*
X39462Y-27691D01*
X39309Y-27537D01*
X39218Y-27500D01*
X39308Y-27462D01*
X39462Y-27309D01*
X39545Y-27108D01*
X39545Y-26891D01*
X39462Y-26691D01*
X39309Y-26537D01*
X39218Y-26500D01*
X39308Y-26462D01*
X39462Y-26309D01*
X39545Y-26108D01*
X39545Y-25891D01*
X39462Y-25691D01*
X39309Y-25537D01*
X39218Y-25500D01*
X39308Y-25462D01*
X39462Y-25309D01*
X39545Y-25108D01*
X39545Y-24891D01*
X39462Y-24691D01*
X39309Y-24537D01*
X39218Y-24500D01*
X39308Y-24462D01*
X39462Y-24309D01*
X39545Y-24108D01*
X39545Y-23891D01*
X39462Y-23691D01*
X39317Y-23545D01*
X39345Y-23545D01*
X39437Y-23507D01*
X39507Y-23437D01*
X39545Y-23345D01*
X39545Y-23245D01*
X39545Y-22654D01*
X39507Y-22562D01*
X39437Y-22492D01*
X39345Y-22454D01*
X39245Y-22454D01*
X38654Y-22454D01*
X38562Y-22492D01*
X38499Y-22555D01*
X38446Y-22502D01*
X38437Y-22492D01*
X38345Y-22454D01*
X38245Y-22454D01*
X37654Y-22454D01*
X37562Y-22492D01*
X37492Y-22562D01*
X37454Y-22654D01*
X37454Y-22754D01*
X37454Y-23345D01*
X37492Y-23437D01*
X37562Y-23507D01*
X37654Y-23545D01*
X37683Y-23545D01*
X37537Y-23690D01*
X37454Y-23891D01*
X37454Y-24108D01*
X37537Y-24308D01*
X37690Y-24462D01*
X37781Y-24499D01*
X37691Y-24537D01*
X37537Y-24690D01*
X37454Y-24891D01*
X37454Y-25108D01*
X37537Y-25308D01*
X37690Y-25462D01*
X37781Y-25499D01*
X37691Y-25537D01*
X37537Y-25690D01*
X37454Y-25891D01*
X37454Y-26108D01*
X37537Y-26308D01*
X37690Y-26462D01*
X37781Y-26499D01*
X37691Y-26537D01*
X37537Y-26690D01*
X37454Y-26891D01*
X37454Y-27108D01*
X37537Y-27308D01*
X37690Y-27462D01*
X37781Y-27499D01*
X37691Y-27537D01*
X37537Y-27690D01*
X37454Y-27891D01*
X37454Y-28108D01*
X37537Y-28308D01*
X37690Y-28462D01*
X37781Y-28499D01*
X37691Y-28537D01*
X37537Y-28690D01*
X37454Y-28891D01*
X37454Y-29108D01*
X37537Y-29308D01*
X37690Y-29462D01*
X37781Y-29499D01*
X37691Y-29537D01*
X37537Y-29690D01*
X37454Y-29891D01*
X37454Y-30108D01*
X37537Y-30308D01*
X37690Y-30462D01*
X37781Y-30499D01*
X37691Y-30537D01*
X37537Y-30690D01*
X37454Y-30891D01*
X37454Y-31108D01*
X37537Y-31308D01*
X37690Y-31462D01*
X37781Y-31499D01*
X37691Y-31537D01*
X37537Y-31690D01*
X37454Y-31891D01*
X37454Y-32108D01*
X37537Y-32308D01*
X37690Y-32462D01*
X37781Y-32499D01*
X37691Y-32537D01*
X37537Y-32690D01*
X37454Y-32891D01*
X37454Y-33108D01*
X37537Y-33308D01*
X37690Y-33462D01*
X37781Y-33499D01*
X37691Y-33537D01*
X37537Y-33690D01*
X37525Y-33720D01*
X36525Y-33720D01*
X36525Y-33400D01*
X36486Y-33308D01*
X36416Y-33238D01*
X36324Y-33200D01*
X36280Y-33200D01*
X36280Y-32450D01*
X36349Y-32450D01*
X36441Y-32411D01*
X36511Y-32341D01*
X36550Y-32249D01*
X36550Y-32150D01*
X36550Y-31550D01*
X36511Y-31458D01*
X36441Y-31388D01*
X36349Y-31350D01*
X36327Y-31350D01*
X36465Y-31211D01*
X36549Y-31009D01*
X36550Y-30791D01*
X36466Y-30588D01*
X36311Y-30434D01*
X36109Y-30350D01*
X35891Y-30349D01*
X35688Y-30433D01*
X35674Y-30447D01*
X35674Y-27881D01*
X35583Y-27660D01*
X35530Y-27606D01*
X35530Y-21895D01*
X35449Y-21700D01*
X35300Y-21550D01*
X35105Y-21470D01*
X34895Y-21469D01*
X34700Y-21550D01*
X34550Y-21699D01*
X34470Y-21894D01*
X34469Y-22104D01*
X34478Y-22125D01*
X33707Y-22896D01*
X33677Y-22916D01*
X33633Y-22981D01*
X33558Y-23013D01*
X33499Y-23071D01*
X33441Y-23013D01*
X33349Y-22975D01*
X33250Y-22975D01*
X32980Y-22975D01*
X32459Y-22453D01*
X32491Y-22421D01*
X32530Y-22329D01*
X32530Y-22230D01*
X32530Y-21670D01*
X32491Y-21578D01*
X32421Y-21508D01*
X32329Y-21470D01*
X32230Y-21470D01*
X31670Y-21470D01*
X31578Y-21508D01*
X31508Y-21578D01*
X31470Y-21670D01*
X31470Y-21769D01*
X31470Y-22329D01*
X31508Y-22421D01*
X31578Y-22491D01*
X31670Y-22530D01*
X31763Y-22530D01*
X31802Y-22588D01*
X32700Y-23486D01*
X32700Y-23824D01*
X32720Y-23873D01*
X32720Y-24950D01*
X32650Y-24950D01*
X32558Y-24988D01*
X32488Y-25058D01*
X32450Y-25150D01*
X32450Y-25249D01*
X32450Y-25849D01*
X32488Y-25941D01*
X32558Y-26011D01*
X32650Y-26050D01*
X32749Y-26050D01*
X33349Y-26050D01*
X33441Y-26011D01*
X33511Y-25941D01*
X33550Y-25849D01*
X33550Y-25827D01*
X33688Y-25965D01*
X33890Y-26049D01*
X34108Y-26050D01*
X34311Y-25966D01*
X34465Y-25811D01*
X34549Y-25609D01*
X34550Y-25391D01*
X34466Y-25188D01*
X34311Y-25034D01*
X34155Y-24968D01*
X34155Y-24002D01*
X34191Y-23986D01*
X34261Y-23916D01*
X34300Y-23824D01*
X34300Y-23725D01*
X34300Y-23175D01*
X34276Y-23119D01*
X34874Y-22521D01*
X34894Y-22529D01*
X35104Y-22530D01*
X35299Y-22449D01*
X35449Y-22300D01*
X35529Y-22105D01*
X35530Y-21895D01*
X35530Y-27606D01*
X35415Y-27491D01*
X35194Y-27400D01*
X34955Y-27399D01*
X34865Y-27437D01*
X34865Y-27019D01*
X34792Y-26842D01*
X34658Y-26707D01*
X34481Y-26634D01*
X34290Y-26634D01*
X34114Y-26707D01*
X33979Y-26841D01*
X33942Y-26929D01*
X33907Y-26842D01*
X33772Y-26707D01*
X33595Y-26634D01*
X33404Y-26634D01*
X33228Y-26707D01*
X33093Y-26841D01*
X33057Y-26929D01*
X33021Y-26842D01*
X32886Y-26707D01*
X32710Y-26634D01*
X32519Y-26634D01*
X32342Y-26707D01*
X32207Y-26841D01*
X32134Y-27018D01*
X32134Y-27209D01*
X32207Y-27385D01*
X32341Y-27520D01*
X32518Y-27594D01*
X32709Y-27594D01*
X32885Y-27521D01*
X33020Y-27386D01*
X33057Y-27299D01*
X33092Y-27385D01*
X33227Y-27520D01*
X33404Y-27594D01*
X33595Y-27594D01*
X33771Y-27521D01*
X33906Y-27386D01*
X33942Y-27299D01*
X33978Y-27385D01*
X34113Y-27520D01*
X34289Y-27594D01*
X34480Y-27594D01*
X34657Y-27521D01*
X34792Y-27386D01*
X34865Y-27210D01*
X34865Y-27019D01*
X34865Y-27437D01*
X34735Y-27491D01*
X34566Y-27659D01*
X34474Y-27880D01*
X34474Y-28118D01*
X34565Y-28339D01*
X34734Y-28508D01*
X34954Y-28599D01*
X35193Y-28600D01*
X35414Y-28508D01*
X35583Y-28340D01*
X35674Y-28119D01*
X35674Y-27881D01*
X35674Y-30447D01*
X35534Y-30588D01*
X35520Y-30620D01*
X34865Y-30620D01*
X34865Y-28790D01*
X34792Y-28614D01*
X34658Y-28479D01*
X34481Y-28405D01*
X34290Y-28405D01*
X34114Y-28478D01*
X33979Y-28613D01*
X33905Y-28789D01*
X33905Y-28980D01*
X33978Y-29157D01*
X34113Y-29292D01*
X34289Y-29365D01*
X34480Y-29365D01*
X34657Y-29292D01*
X34792Y-29158D01*
X34865Y-28981D01*
X34865Y-28790D01*
X34865Y-30620D01*
X34545Y-30620D01*
X34549Y-30609D01*
X34550Y-30391D01*
X34466Y-30188D01*
X34311Y-30034D01*
X34109Y-29950D01*
X33891Y-29949D01*
X33688Y-30033D01*
X33550Y-30172D01*
X33550Y-30150D01*
X33511Y-30058D01*
X33441Y-29988D01*
X33349Y-29950D01*
X33112Y-29950D01*
X33099Y-29963D01*
X33099Y-28950D01*
X33087Y-28760D01*
X33037Y-28640D01*
X32949Y-28621D01*
X32878Y-28692D01*
X32878Y-28550D01*
X32859Y-28462D01*
X32679Y-28400D01*
X32525Y-28410D01*
X32525Y-27881D01*
X32434Y-27660D01*
X32265Y-27491D01*
X32045Y-27400D01*
X31806Y-27399D01*
X31585Y-27491D01*
X31416Y-27659D01*
X31325Y-27880D01*
X31325Y-28118D01*
X31416Y-28339D01*
X31584Y-28508D01*
X31805Y-28599D01*
X32044Y-28600D01*
X32264Y-28508D01*
X32433Y-28340D01*
X32525Y-28119D01*
X32525Y-27881D01*
X32525Y-28410D01*
X32488Y-28412D01*
X32368Y-28462D01*
X32349Y-28550D01*
X32614Y-28815D01*
X32878Y-28550D01*
X32878Y-28692D01*
X32684Y-28885D01*
X32949Y-29150D01*
X33037Y-29131D01*
X33099Y-28950D01*
X33099Y-29963D01*
X33050Y-30012D01*
X33050Y-30450D01*
X33057Y-30450D01*
X33057Y-30550D01*
X33050Y-30550D01*
X33050Y-30557D01*
X32950Y-30557D01*
X32950Y-30550D01*
X32950Y-30450D01*
X32950Y-30012D01*
X32887Y-29950D01*
X32878Y-29950D01*
X32878Y-29220D01*
X32614Y-28956D01*
X32543Y-29027D01*
X32543Y-28885D01*
X32279Y-28621D01*
X32190Y-28640D01*
X32129Y-28820D01*
X32141Y-29011D01*
X32190Y-29131D01*
X32279Y-29150D01*
X32543Y-28885D01*
X32543Y-29027D01*
X32349Y-29220D01*
X32368Y-29309D01*
X32549Y-29370D01*
X32739Y-29358D01*
X32859Y-29309D01*
X32878Y-29220D01*
X32878Y-29950D01*
X32650Y-29950D01*
X32558Y-29988D01*
X32488Y-30058D01*
X32450Y-30150D01*
X32450Y-30249D01*
X32450Y-30387D01*
X32512Y-30450D01*
X32950Y-30450D01*
X32950Y-30550D01*
X32512Y-30550D01*
X32450Y-30612D01*
X32450Y-30750D01*
X32450Y-30849D01*
X32488Y-30941D01*
X32558Y-31011D01*
X32650Y-31050D01*
X32771Y-31050D01*
X32738Y-31083D01*
X32700Y-31175D01*
X32700Y-31274D01*
X32700Y-31387D01*
X32762Y-31450D01*
X33075Y-31450D01*
X33075Y-31442D01*
X33175Y-31442D01*
X33175Y-31450D01*
X33182Y-31450D01*
X33182Y-31550D01*
X33175Y-31550D01*
X33175Y-31962D01*
X33237Y-32025D01*
X33349Y-32025D01*
X33441Y-31986D01*
X33500Y-31928D01*
X33558Y-31986D01*
X33650Y-32025D01*
X33749Y-32025D01*
X34099Y-32025D01*
X34191Y-31986D01*
X34261Y-31916D01*
X34300Y-31824D01*
X34300Y-31725D01*
X34300Y-31175D01*
X34293Y-31158D01*
X34400Y-31180D01*
X35520Y-31180D01*
X35533Y-31211D01*
X35672Y-31350D01*
X35650Y-31350D01*
X35558Y-31388D01*
X35488Y-31458D01*
X35450Y-31550D01*
X35450Y-31649D01*
X35450Y-32249D01*
X35488Y-32341D01*
X35558Y-32411D01*
X35650Y-32450D01*
X35720Y-32450D01*
X35720Y-33200D01*
X35675Y-33200D01*
X35583Y-33238D01*
X35513Y-33308D01*
X35475Y-33400D01*
X35475Y-33499D01*
X35475Y-33679D01*
X33997Y-32202D01*
X33907Y-32141D01*
X33800Y-32120D01*
X33115Y-32120D01*
X33016Y-32020D01*
X33075Y-31962D01*
X33075Y-31550D01*
X32762Y-31550D01*
X32700Y-31612D01*
X32700Y-31704D01*
X30329Y-29333D01*
X30341Y-29321D01*
X30380Y-29229D01*
X30380Y-29130D01*
X30380Y-28770D01*
X30341Y-28678D01*
X30271Y-28608D01*
X30179Y-28570D01*
X30080Y-28570D01*
X29720Y-28570D01*
X29628Y-28608D01*
X29600Y-28636D01*
X29571Y-28608D01*
X29479Y-28570D01*
X29362Y-28570D01*
X29300Y-28632D01*
X29300Y-28950D01*
X29307Y-28950D01*
X29307Y-29050D01*
X29300Y-29050D01*
X29300Y-29367D01*
X29322Y-29389D01*
X29278Y-29408D01*
X29208Y-29478D01*
X29200Y-29497D01*
X29200Y-29367D01*
X29200Y-29050D01*
X29200Y-28950D01*
X29200Y-28632D01*
X29137Y-28570D01*
X29020Y-28570D01*
X28928Y-28608D01*
X28858Y-28678D01*
X28820Y-28770D01*
X28820Y-28869D01*
X28820Y-28887D01*
X28882Y-28950D01*
X29200Y-28950D01*
X29200Y-29050D01*
X28882Y-29050D01*
X28820Y-29112D01*
X28820Y-29130D01*
X28820Y-29229D01*
X28858Y-29321D01*
X28928Y-29391D01*
X29020Y-29430D01*
X29137Y-29430D01*
X29200Y-29367D01*
X29200Y-29497D01*
X29170Y-29570D01*
X29170Y-29669D01*
X29170Y-30029D01*
X29208Y-30121D01*
X29278Y-30191D01*
X29360Y-30225D01*
X29360Y-30225D01*
X29402Y-30288D01*
X30495Y-31381D01*
X30450Y-31490D01*
X30449Y-31708D01*
X30491Y-31810D01*
X30025Y-31810D01*
X30025Y-31750D01*
X29986Y-31658D01*
X29916Y-31588D01*
X29824Y-31550D01*
X29725Y-31550D01*
X29175Y-31550D01*
X29083Y-31588D01*
X29013Y-31658D01*
X29002Y-31685D01*
X28915Y-31685D01*
X28625Y-31394D01*
X28550Y-31344D01*
X28550Y-31250D01*
X28511Y-31158D01*
X28441Y-31088D01*
X28349Y-31050D01*
X28250Y-31050D01*
X27674Y-31050D01*
X27674Y-27881D01*
X27583Y-27660D01*
X27415Y-27491D01*
X27194Y-27400D01*
X26955Y-27399D01*
X26735Y-27491D01*
X26566Y-27659D01*
X26474Y-27880D01*
X26474Y-28118D01*
X26565Y-28339D01*
X26734Y-28508D01*
X26954Y-28599D01*
X27193Y-28600D01*
X27414Y-28508D01*
X27583Y-28340D01*
X27674Y-28119D01*
X27674Y-27881D01*
X27674Y-31050D01*
X27650Y-31050D01*
X27558Y-31088D01*
X27488Y-31158D01*
X27450Y-31250D01*
X27450Y-31349D01*
X27450Y-31949D01*
X27488Y-32041D01*
X27558Y-32111D01*
X27650Y-32150D01*
X27672Y-32150D01*
X27534Y-32288D01*
X27450Y-32490D01*
X27449Y-32708D01*
X27533Y-32911D01*
X27688Y-33065D01*
X27769Y-33099D01*
X27688Y-33133D01*
X27534Y-33288D01*
X27520Y-33320D01*
X27226Y-33320D01*
X27083Y-33177D01*
X27018Y-33133D01*
X26986Y-33058D01*
X26928Y-33000D01*
X26986Y-32941D01*
X27025Y-32849D01*
X27025Y-32737D01*
X27025Y-32512D01*
X27025Y-32400D01*
X26986Y-32308D01*
X26916Y-32238D01*
X26865Y-32217D01*
X26865Y-28790D01*
X26792Y-28614D01*
X26658Y-28479D01*
X26481Y-28405D01*
X26290Y-28405D01*
X26114Y-28478D01*
X25979Y-28613D01*
X25942Y-28700D01*
X25907Y-28614D01*
X25772Y-28479D01*
X25595Y-28405D01*
X25404Y-28405D01*
X25228Y-28478D01*
X25093Y-28613D01*
X25059Y-28694D01*
X25037Y-28640D01*
X24949Y-28621D01*
X24684Y-28885D01*
X24949Y-29150D01*
X25037Y-29131D01*
X25057Y-29072D01*
X25092Y-29157D01*
X25227Y-29292D01*
X25404Y-29365D01*
X25595Y-29365D01*
X25771Y-29292D01*
X25906Y-29158D01*
X25942Y-29070D01*
X25978Y-29157D01*
X26113Y-29292D01*
X26289Y-29365D01*
X26480Y-29365D01*
X26657Y-29292D01*
X26792Y-29158D01*
X26865Y-28981D01*
X26865Y-28790D01*
X26865Y-32217D01*
X26824Y-32200D01*
X26725Y-32200D01*
X26612Y-32200D01*
X26550Y-32262D01*
X26550Y-32575D01*
X26962Y-32575D01*
X27025Y-32512D01*
X27025Y-32737D01*
X26962Y-32675D01*
X26550Y-32675D01*
X26550Y-32682D01*
X26450Y-32682D01*
X26450Y-32675D01*
X26450Y-32575D01*
X26450Y-32262D01*
X26387Y-32200D01*
X26274Y-32200D01*
X26175Y-32200D01*
X26083Y-32238D01*
X26013Y-32308D01*
X25975Y-32400D01*
X25975Y-32512D01*
X26037Y-32575D01*
X26450Y-32575D01*
X26450Y-32675D01*
X26037Y-32675D01*
X25975Y-32737D01*
X25975Y-32849D01*
X26013Y-32941D01*
X26071Y-33000D01*
X26013Y-33058D01*
X25999Y-33092D01*
X25250Y-33092D01*
X25250Y-32991D01*
X25211Y-32899D01*
X25142Y-32830D01*
X25250Y-32830D01*
X25357Y-32808D01*
X25357Y-32808D01*
X25447Y-32747D01*
X26072Y-32122D01*
X26133Y-32032D01*
X26133Y-32032D01*
X26137Y-32014D01*
X26138Y-32009D01*
X26191Y-31986D01*
X26261Y-31916D01*
X26300Y-31824D01*
X26300Y-31725D01*
X26300Y-31175D01*
X26261Y-31083D01*
X26193Y-31015D01*
X26311Y-30966D01*
X26465Y-30811D01*
X26549Y-30609D01*
X26550Y-30391D01*
X26466Y-30188D01*
X26311Y-30034D01*
X26109Y-29950D01*
X25891Y-29949D01*
X25688Y-30033D01*
X25550Y-30172D01*
X25550Y-30150D01*
X25511Y-30058D01*
X25441Y-29988D01*
X25349Y-29950D01*
X25112Y-29950D01*
X25050Y-30012D01*
X25050Y-30450D01*
X25057Y-30450D01*
X25057Y-30550D01*
X25050Y-30550D01*
X25050Y-30557D01*
X24950Y-30557D01*
X24950Y-30550D01*
X24950Y-30450D01*
X24950Y-30012D01*
X24887Y-29950D01*
X24878Y-29950D01*
X24878Y-29220D01*
X24614Y-28956D01*
X24349Y-29220D01*
X24368Y-29309D01*
X24549Y-29370D01*
X24739Y-29358D01*
X24859Y-29309D01*
X24878Y-29220D01*
X24878Y-29950D01*
X24650Y-29950D01*
X24558Y-29988D01*
X24488Y-30058D01*
X24450Y-30150D01*
X24450Y-30249D01*
X24450Y-30387D01*
X24512Y-30450D01*
X24950Y-30450D01*
X24950Y-30550D01*
X24512Y-30550D01*
X24450Y-30612D01*
X24450Y-30750D01*
X24450Y-30849D01*
X24488Y-30941D01*
X24558Y-31011D01*
X24650Y-31050D01*
X24771Y-31050D01*
X24738Y-31083D01*
X24700Y-31175D01*
X24700Y-31274D01*
X24700Y-31387D01*
X24762Y-31450D01*
X25075Y-31450D01*
X25075Y-31442D01*
X25175Y-31442D01*
X25175Y-31450D01*
X25182Y-31450D01*
X25182Y-31550D01*
X25175Y-31550D01*
X25175Y-31962D01*
X25237Y-32025D01*
X25349Y-32025D01*
X25399Y-32004D01*
X25134Y-32270D01*
X25075Y-32270D01*
X25075Y-31962D01*
X25075Y-31550D01*
X24762Y-31550D01*
X24700Y-31612D01*
X24700Y-31725D01*
X24700Y-31824D01*
X24738Y-31916D01*
X24808Y-31986D01*
X24900Y-32025D01*
X25012Y-32025D01*
X25075Y-31962D01*
X25075Y-32270D01*
X24650Y-32270D01*
X24542Y-32291D01*
X24512Y-32311D01*
X24452Y-32352D01*
X23930Y-32874D01*
X23930Y-29215D01*
X24140Y-29005D01*
X24141Y-29011D01*
X24190Y-29131D01*
X24279Y-29150D01*
X24543Y-28885D01*
X24537Y-28880D01*
X24608Y-28809D01*
X24614Y-28815D01*
X24878Y-28550D01*
X24859Y-28462D01*
X24728Y-28417D01*
X25914Y-27231D01*
X25978Y-27385D01*
X26113Y-27520D01*
X26289Y-27594D01*
X26480Y-27594D01*
X26657Y-27521D01*
X26792Y-27386D01*
X26865Y-27210D01*
X26865Y-27019D01*
X26792Y-26842D01*
X26658Y-26707D01*
X26502Y-26643D01*
X28197Y-24947D01*
X28197Y-24947D01*
X28258Y-24857D01*
X28280Y-24750D01*
X28280Y-20325D01*
X28324Y-20325D01*
X28416Y-20286D01*
X28486Y-20216D01*
X28525Y-20124D01*
X28525Y-20025D01*
X28525Y-20025D01*
X28554Y-20097D01*
X28702Y-20244D01*
X28895Y-20324D01*
X29103Y-20325D01*
X29297Y-20245D01*
X29444Y-20097D01*
X29500Y-19964D01*
X29554Y-20097D01*
X29702Y-20244D01*
X29895Y-20324D01*
X30103Y-20325D01*
X30297Y-20245D01*
X30444Y-20097D01*
X30500Y-19964D01*
X30554Y-20097D01*
X30702Y-20244D01*
X30895Y-20324D01*
X31103Y-20325D01*
X31297Y-20245D01*
X31444Y-20097D01*
X31524Y-19904D01*
X31525Y-19696D01*
X31445Y-19503D01*
X31297Y-19355D01*
X31225Y-19325D01*
X38306Y-19325D01*
X38280Y-19351D01*
X38324Y-19395D01*
X38188Y-19471D01*
X38047Y-19822D01*
X38052Y-20200D01*
X38188Y-20528D01*
X38324Y-20604D01*
X38280Y-20648D01*
X38253Y-20621D01*
X38089Y-20553D01*
X37911Y-20553D01*
X37747Y-20620D01*
X37621Y-20746D01*
X37553Y-20910D01*
X37553Y-21088D01*
X37620Y-21252D01*
X37746Y-21378D01*
X37910Y-21446D01*
X38088Y-21446D01*
X38252Y-21379D01*
X38378Y-21253D01*
X38446Y-21089D01*
X38446Y-20911D01*
X38379Y-20747D01*
X38351Y-20719D01*
X38395Y-20675D01*
X38471Y-20811D01*
X38822Y-20952D01*
X39200Y-20947D01*
X39528Y-20811D01*
X39604Y-20675D01*
X39604Y-20675D01*
X39648Y-20719D01*
X39675Y-20693D01*
X39675Y-37675D01*
X39675Y-37675D01*
G37*
G54D34*
X39675Y-37675D02*
X39604Y-37675D01*
X39000Y-37675D01*
X38968Y-37681D01*
X38936Y-37681D01*
X38553Y-37757D01*
X38553Y-37757D01*
X38495Y-37781D01*
X38436Y-37805D01*
X38436Y-37805D01*
X38112Y-38022D01*
X38112Y-38022D01*
X38022Y-38112D01*
X37805Y-38436D01*
X37805Y-38436D01*
X37771Y-38519D01*
X37757Y-38553D01*
X37757Y-38553D01*
X37681Y-38936D01*
X37681Y-38968D01*
X37675Y-39000D01*
X37675Y-39500D01*
X37675Y-39675D01*
X36545Y-39675D01*
X36545Y-39345D01*
X36545Y-39245D01*
X36545Y-38654D01*
X36507Y-38562D01*
X36444Y-38499D01*
X36507Y-38437D01*
X36545Y-38345D01*
X36545Y-38245D01*
X36545Y-37654D01*
X36507Y-37562D01*
X36437Y-37492D01*
X36345Y-37454D01*
X36245Y-37454D01*
X35654Y-37454D01*
X35562Y-37492D01*
X35492Y-37562D01*
X35454Y-37654D01*
X35454Y-37708D01*
X35382Y-37688D01*
X35311Y-37758D01*
X35311Y-37617D01*
X35285Y-37522D01*
X35080Y-37449D01*
X34863Y-37460D01*
X34714Y-37522D01*
X34688Y-37617D01*
X35000Y-37929D01*
X35311Y-37617D01*
X35311Y-37758D01*
X35070Y-38000D01*
X35382Y-38311D01*
X35454Y-38291D01*
X35454Y-38345D01*
X35492Y-38437D01*
X35555Y-38500D01*
X35492Y-38562D01*
X35454Y-38654D01*
X35454Y-38708D01*
X35382Y-38688D01*
X35311Y-38758D01*
X35311Y-38617D01*
X35285Y-38522D01*
X35226Y-38501D01*
X35285Y-38477D01*
X35311Y-38382D01*
X35000Y-38070D01*
X34688Y-38382D01*
X34714Y-38477D01*
X34773Y-38498D01*
X34714Y-38522D01*
X34688Y-38617D01*
X35000Y-38929D01*
X35311Y-38617D01*
X35311Y-38758D01*
X35070Y-39000D01*
X35382Y-39311D01*
X35454Y-39291D01*
X35454Y-39345D01*
X35492Y-39437D01*
X35562Y-39507D01*
X35654Y-39545D01*
X35754Y-39545D01*
X36345Y-39545D01*
X36437Y-39507D01*
X36507Y-39437D01*
X36545Y-39345D01*
X36545Y-39675D01*
X35311Y-39675D01*
X35311Y-39382D01*
X35000Y-39070D01*
X34929Y-39141D01*
X34929Y-39000D01*
X34617Y-38688D01*
X34522Y-38714D01*
X34499Y-38779D01*
X34462Y-38691D01*
X34309Y-38537D01*
X34218Y-38500D01*
X34308Y-38462D01*
X34462Y-38309D01*
X34497Y-38224D01*
X34522Y-38285D01*
X34617Y-38311D01*
X34929Y-38000D01*
X34617Y-37688D01*
X34522Y-37714D01*
X34499Y-37779D01*
X34462Y-37691D01*
X34309Y-37537D01*
X34108Y-37454D01*
X33891Y-37454D01*
X33691Y-37537D01*
X33537Y-37690D01*
X33500Y-37781D01*
X33462Y-37691D01*
X33309Y-37537D01*
X33108Y-37454D01*
X32891Y-37454D01*
X32691Y-37537D01*
X32537Y-37690D01*
X32500Y-37781D01*
X32462Y-37691D01*
X32309Y-37537D01*
X32108Y-37454D01*
X31891Y-37454D01*
X31691Y-37537D01*
X31537Y-37690D01*
X31500Y-37781D01*
X31462Y-37691D01*
X31321Y-37550D01*
X31324Y-37550D01*
X31416Y-37511D01*
X31486Y-37441D01*
X31525Y-37349D01*
X31525Y-37237D01*
X31462Y-37175D01*
X31050Y-37175D01*
X31050Y-37182D01*
X30950Y-37182D01*
X30950Y-37175D01*
X30537Y-37175D01*
X30475Y-37237D01*
X30475Y-37349D01*
X30513Y-37441D01*
X30583Y-37511D01*
X30675Y-37550D01*
X30678Y-37550D01*
X30537Y-37690D01*
X30500Y-37781D01*
X30462Y-37691D01*
X30309Y-37537D01*
X30108Y-37454D01*
X29974Y-37454D01*
X29986Y-37441D01*
X30025Y-37349D01*
X30025Y-37237D01*
X29962Y-37175D01*
X29550Y-37175D01*
X29550Y-37487D01*
X29612Y-37550D01*
X29678Y-37550D01*
X29537Y-37690D01*
X29500Y-37781D01*
X29462Y-37691D01*
X29321Y-37550D01*
X29387Y-37550D01*
X29450Y-37487D01*
X29450Y-37175D01*
X29037Y-37175D01*
X28975Y-37237D01*
X28975Y-37349D01*
X29013Y-37441D01*
X29025Y-37454D01*
X28891Y-37454D01*
X28691Y-37537D01*
X28537Y-37690D01*
X28500Y-37781D01*
X28462Y-37691D01*
X28321Y-37550D01*
X28324Y-37550D01*
X28416Y-37511D01*
X28486Y-37441D01*
X28525Y-37349D01*
X28525Y-37237D01*
X28462Y-37175D01*
X28050Y-37175D01*
X28050Y-37182D01*
X27950Y-37182D01*
X27950Y-37175D01*
X27537Y-37175D01*
X27475Y-37237D01*
X27475Y-37349D01*
X27513Y-37441D01*
X27583Y-37511D01*
X27675Y-37550D01*
X27678Y-37550D01*
X27537Y-37690D01*
X27500Y-37781D01*
X27462Y-37691D01*
X27309Y-37537D01*
X27108Y-37454D01*
X26891Y-37454D01*
X26700Y-37533D01*
X26700Y-36599D01*
X26700Y-36500D01*
X26700Y-35800D01*
X26661Y-35708D01*
X26591Y-35638D01*
X26499Y-35600D01*
X26400Y-35600D01*
X25700Y-35600D01*
X25608Y-35638D01*
X25538Y-35708D01*
X25518Y-35754D01*
X25496Y-35732D01*
X25451Y-35777D01*
X25417Y-35677D01*
X25193Y-35595D01*
X24955Y-35605D01*
X24782Y-35677D01*
X24748Y-35777D01*
X25100Y-36129D01*
X25105Y-36123D01*
X25176Y-36194D01*
X25170Y-36200D01*
X25176Y-36205D01*
X25105Y-36276D01*
X25100Y-36270D01*
X24748Y-36622D01*
X24782Y-36722D01*
X25006Y-36804D01*
X25244Y-36794D01*
X25417Y-36722D01*
X25451Y-36622D01*
X25451Y-36622D01*
X25496Y-36667D01*
X25518Y-36645D01*
X25538Y-36691D01*
X25608Y-36761D01*
X25700Y-36800D01*
X25799Y-36800D01*
X26499Y-36800D01*
X26591Y-36761D01*
X26661Y-36691D01*
X26700Y-36599D01*
X26700Y-37533D01*
X26691Y-37537D01*
X26537Y-37690D01*
X26500Y-37781D01*
X26462Y-37691D01*
X26309Y-37537D01*
X26108Y-37454D01*
X25891Y-37454D01*
X25691Y-37537D01*
X25537Y-37690D01*
X25500Y-37781D01*
X25462Y-37691D01*
X25451Y-37680D01*
X25309Y-37537D01*
X25108Y-37454D01*
X24891Y-37454D01*
X24691Y-37537D01*
X24537Y-37690D01*
X24500Y-37781D01*
X24462Y-37691D01*
X24309Y-37537D01*
X24108Y-37454D01*
X23891Y-37454D01*
X23691Y-37537D01*
X23537Y-37690D01*
X23500Y-37781D01*
X23462Y-37691D01*
X23309Y-37537D01*
X23108Y-37454D01*
X22891Y-37454D01*
X22691Y-37537D01*
X22537Y-37690D01*
X22454Y-37891D01*
X22454Y-38108D01*
X22537Y-38308D01*
X22690Y-38462D01*
X22781Y-38499D01*
X22691Y-38537D01*
X22537Y-38690D01*
X22454Y-38891D01*
X22454Y-39108D01*
X22537Y-39308D01*
X22690Y-39462D01*
X22891Y-39545D01*
X23108Y-39545D01*
X23308Y-39462D01*
X23462Y-39309D01*
X23499Y-39218D01*
X23537Y-39308D01*
X23690Y-39462D01*
X23891Y-39545D01*
X24108Y-39545D01*
X24308Y-39462D01*
X24462Y-39309D01*
X24499Y-39218D01*
X24537Y-39308D01*
X24690Y-39462D01*
X24891Y-39545D01*
X25108Y-39545D01*
X25308Y-39462D01*
X25462Y-39309D01*
X25499Y-39218D01*
X25537Y-39308D01*
X25690Y-39462D01*
X25891Y-39545D01*
X26108Y-39545D01*
X26308Y-39462D01*
X26462Y-39309D01*
X26499Y-39218D01*
X26537Y-39308D01*
X26690Y-39462D01*
X26891Y-39545D01*
X27108Y-39545D01*
X27308Y-39462D01*
X27462Y-39309D01*
X27499Y-39218D01*
X27537Y-39308D01*
X27690Y-39462D01*
X27891Y-39545D01*
X28108Y-39545D01*
X28308Y-39462D01*
X28462Y-39309D01*
X28499Y-39218D01*
X28537Y-39308D01*
X28690Y-39462D01*
X28891Y-39545D01*
X29108Y-39545D01*
X29308Y-39462D01*
X29462Y-39309D01*
X29499Y-39218D01*
X29537Y-39308D01*
X29690Y-39462D01*
X29891Y-39545D01*
X30108Y-39545D01*
X30308Y-39462D01*
X30462Y-39309D01*
X30499Y-39218D01*
X30537Y-39308D01*
X30690Y-39462D01*
X30891Y-39545D01*
X31108Y-39545D01*
X31308Y-39462D01*
X31462Y-39309D01*
X31499Y-39218D01*
X31537Y-39308D01*
X31690Y-39462D01*
X31891Y-39545D01*
X32108Y-39545D01*
X32308Y-39462D01*
X32462Y-39309D01*
X32499Y-39218D01*
X32537Y-39308D01*
X32690Y-39462D01*
X32891Y-39545D01*
X33108Y-39545D01*
X33308Y-39462D01*
X33462Y-39309D01*
X33499Y-39218D01*
X33537Y-39308D01*
X33690Y-39462D01*
X33891Y-39545D01*
X34108Y-39545D01*
X34308Y-39462D01*
X34462Y-39309D01*
X34497Y-39224D01*
X34522Y-39285D01*
X34617Y-39311D01*
X34929Y-39000D01*
X34929Y-39141D01*
X34688Y-39382D01*
X34714Y-39477D01*
X34919Y-39550D01*
X35136Y-39539D01*
X35285Y-39477D01*
X35311Y-39382D01*
X35311Y-39675D01*
X21446Y-39675D01*
X20952Y-39675D01*
X20693Y-39675D01*
X20719Y-39648D01*
X20675Y-39604D01*
X20811Y-39528D01*
X20952Y-39177D01*
X20947Y-38799D01*
X20811Y-38471D01*
X20675Y-38395D01*
X20719Y-38351D01*
X20746Y-38378D01*
X20910Y-38446D01*
X21088Y-38446D01*
X21252Y-38379D01*
X21378Y-38253D01*
X21446Y-38089D01*
X21446Y-37911D01*
X21379Y-37747D01*
X21253Y-37621D01*
X21089Y-37553D01*
X20911Y-37553D01*
X20747Y-37620D01*
X20621Y-37746D01*
X20553Y-37910D01*
X20553Y-38088D01*
X20620Y-38252D01*
X20648Y-38280D01*
X20604Y-38324D01*
X20528Y-38188D01*
X20177Y-38047D01*
X19799Y-38052D01*
X19471Y-38188D01*
X19395Y-38324D01*
X19351Y-38280D01*
X19325Y-38306D01*
X19325Y-21325D01*
X19500Y-21325D01*
X20000Y-21325D01*
X20031Y-21318D01*
X20063Y-21318D01*
X20446Y-21242D01*
X20446Y-21242D01*
X20446Y-21242D01*
X20480Y-21228D01*
X20563Y-21194D01*
X20563Y-21194D01*
X20563Y-21194D01*
X20887Y-20977D01*
X20887Y-20977D01*
X20977Y-20887D01*
X20977Y-20887D01*
X20977Y-20887D01*
X21194Y-20563D01*
X21194Y-20563D01*
X21194Y-20563D01*
X21218Y-20504D01*
X21242Y-20446D01*
X21242Y-20446D01*
X21242Y-20446D01*
X21318Y-20063D01*
X21318Y-20031D01*
X21325Y-20000D01*
X21325Y-19500D01*
X21325Y-19325D01*
X27571Y-19325D01*
X27513Y-19383D01*
X27475Y-19475D01*
X27475Y-19574D01*
X27475Y-20124D01*
X27513Y-20216D01*
X27583Y-20286D01*
X27675Y-20325D01*
X27720Y-20325D01*
X27720Y-24634D01*
X27530Y-24823D01*
X27530Y-21895D01*
X27449Y-21700D01*
X27300Y-21550D01*
X27105Y-21470D01*
X26895Y-21469D01*
X26700Y-21550D01*
X26550Y-21699D01*
X26470Y-21894D01*
X26469Y-22104D01*
X26478Y-22125D01*
X25707Y-22896D01*
X25677Y-22916D01*
X25633Y-22981D01*
X25558Y-23013D01*
X25499Y-23071D01*
X25441Y-23013D01*
X25349Y-22975D01*
X25250Y-22975D01*
X24980Y-22975D01*
X24459Y-22453D01*
X24491Y-22421D01*
X24530Y-22329D01*
X24530Y-22230D01*
X24530Y-21670D01*
X24491Y-21578D01*
X24421Y-21508D01*
X24329Y-21470D01*
X24230Y-21470D01*
X23670Y-21470D01*
X23578Y-21508D01*
X23508Y-21578D01*
X23470Y-21670D01*
X23470Y-21769D01*
X23470Y-22329D01*
X23508Y-22421D01*
X23578Y-22491D01*
X23670Y-22530D01*
X23763Y-22530D01*
X23802Y-22588D01*
X24700Y-23486D01*
X24700Y-23824D01*
X24720Y-23873D01*
X24720Y-24950D01*
X24650Y-24950D01*
X24558Y-24988D01*
X24488Y-25058D01*
X24450Y-25150D01*
X24450Y-25249D01*
X24450Y-25849D01*
X24488Y-25941D01*
X24558Y-26011D01*
X24650Y-26050D01*
X24749Y-26050D01*
X25349Y-26050D01*
X25441Y-26011D01*
X25511Y-25941D01*
X25550Y-25849D01*
X25550Y-25827D01*
X25688Y-25965D01*
X25890Y-26049D01*
X26108Y-26050D01*
X26311Y-25966D01*
X26465Y-25811D01*
X26549Y-25609D01*
X26550Y-25391D01*
X26466Y-25188D01*
X26311Y-25034D01*
X26155Y-24968D01*
X26155Y-24002D01*
X26191Y-23986D01*
X26261Y-23916D01*
X26300Y-23824D01*
X26300Y-23725D01*
X26300Y-23175D01*
X26276Y-23119D01*
X26874Y-22521D01*
X26894Y-22529D01*
X27104Y-22530D01*
X27299Y-22449D01*
X27449Y-22300D01*
X27529Y-22105D01*
X27530Y-21895D01*
X27530Y-24823D01*
X25058Y-27295D01*
X25094Y-27210D01*
X25094Y-27019D01*
X25021Y-26842D01*
X24886Y-26707D01*
X24710Y-26634D01*
X24519Y-26634D01*
X24342Y-26707D01*
X24207Y-26841D01*
X24134Y-27018D01*
X24134Y-27209D01*
X24207Y-27385D01*
X24341Y-27520D01*
X24518Y-27594D01*
X24709Y-27594D01*
X24795Y-27558D01*
X24509Y-27844D01*
X24434Y-27660D01*
X24265Y-27491D01*
X24045Y-27400D01*
X23806Y-27399D01*
X23585Y-27491D01*
X23416Y-27659D01*
X23325Y-27880D01*
X23325Y-28118D01*
X23416Y-28339D01*
X23584Y-28508D01*
X23769Y-28584D01*
X23452Y-28902D01*
X23391Y-28992D01*
X23370Y-29100D01*
X23370Y-32799D01*
X23349Y-32791D01*
X23250Y-32791D01*
X22750Y-32791D01*
X22658Y-32829D01*
X22588Y-32899D01*
X22550Y-32991D01*
X22550Y-33090D01*
X22550Y-33092D01*
X22428Y-33092D01*
X22338Y-33109D01*
X22320Y-33113D01*
X22230Y-33174D01*
X22102Y-33302D01*
X22041Y-33392D01*
X22020Y-33500D01*
X22020Y-35200D01*
X21975Y-35200D01*
X21883Y-35238D01*
X21813Y-35308D01*
X21775Y-35400D01*
X21775Y-35499D01*
X21775Y-35849D01*
X21813Y-35941D01*
X21871Y-36000D01*
X21848Y-36022D01*
X21620Y-35794D01*
X21550Y-35747D01*
X21550Y-35080D01*
X21545Y-34988D01*
X21545Y-33891D01*
X21462Y-33691D01*
X21309Y-33537D01*
X21218Y-33500D01*
X21308Y-33462D01*
X21462Y-33309D01*
X21545Y-33108D01*
X21545Y-32891D01*
X21462Y-32691D01*
X21309Y-32537D01*
X21218Y-32500D01*
X21308Y-32462D01*
X21462Y-32309D01*
X21545Y-32108D01*
X21545Y-31891D01*
X21462Y-31691D01*
X21309Y-31537D01*
X21218Y-31500D01*
X21308Y-31462D01*
X21462Y-31309D01*
X21545Y-31108D01*
X21545Y-30891D01*
X21462Y-30691D01*
X21309Y-30537D01*
X21218Y-30500D01*
X21308Y-30462D01*
X21462Y-30309D01*
X21545Y-30108D01*
X21545Y-29891D01*
X21462Y-29691D01*
X21309Y-29537D01*
X21218Y-29500D01*
X21308Y-29462D01*
X21462Y-29309D01*
X21545Y-29108D01*
X21545Y-28891D01*
X21462Y-28691D01*
X21309Y-28537D01*
X21218Y-28500D01*
X21308Y-28462D01*
X21462Y-28309D01*
X21545Y-28108D01*
X21545Y-27891D01*
X21462Y-27691D01*
X21309Y-27537D01*
X21218Y-27500D01*
X21308Y-27462D01*
X21462Y-27309D01*
X21545Y-27108D01*
X21545Y-26891D01*
X21462Y-26691D01*
X21309Y-26537D01*
X21218Y-26500D01*
X21308Y-26462D01*
X21462Y-26309D01*
X21545Y-26108D01*
X21545Y-25891D01*
X21462Y-25691D01*
X21309Y-25537D01*
X21218Y-25500D01*
X21308Y-25462D01*
X21462Y-25309D01*
X21545Y-25108D01*
X21545Y-24891D01*
X21462Y-24691D01*
X21309Y-24537D01*
X21218Y-24500D01*
X21308Y-24462D01*
X21462Y-24309D01*
X21545Y-24108D01*
X21545Y-23891D01*
X21462Y-23691D01*
X21309Y-23537D01*
X21218Y-23500D01*
X21308Y-23462D01*
X21462Y-23309D01*
X21545Y-23108D01*
X21545Y-22891D01*
X21462Y-22691D01*
X21309Y-22537D01*
X21108Y-22454D01*
X20891Y-22454D01*
X20691Y-22537D01*
X20537Y-22690D01*
X20525Y-22720D01*
X20474Y-22720D01*
X20462Y-22691D01*
X20309Y-22537D01*
X20108Y-22454D01*
X19891Y-22454D01*
X19691Y-22537D01*
X19537Y-22690D01*
X19454Y-22891D01*
X19454Y-23108D01*
X19537Y-23308D01*
X19690Y-23462D01*
X19781Y-23499D01*
X19691Y-23537D01*
X19537Y-23690D01*
X19454Y-23891D01*
X19454Y-24108D01*
X19537Y-24308D01*
X19690Y-24462D01*
X19781Y-24499D01*
X19691Y-24537D01*
X19537Y-24690D01*
X19454Y-24891D01*
X19454Y-25108D01*
X19537Y-25308D01*
X19690Y-25462D01*
X19781Y-25499D01*
X19691Y-25537D01*
X19537Y-25690D01*
X19454Y-25891D01*
X19454Y-26108D01*
X19537Y-26308D01*
X19690Y-26462D01*
X19781Y-26499D01*
X19691Y-26537D01*
X19537Y-26690D01*
X19454Y-26891D01*
X19454Y-27108D01*
X19537Y-27308D01*
X19690Y-27462D01*
X19781Y-27499D01*
X19691Y-27537D01*
X19537Y-27690D01*
X19454Y-27891D01*
X19454Y-28108D01*
X19537Y-28308D01*
X19690Y-28462D01*
X19781Y-28499D01*
X19691Y-28537D01*
X19537Y-28690D01*
X19454Y-28891D01*
X19454Y-29108D01*
X19537Y-29308D01*
X19690Y-29462D01*
X19781Y-29499D01*
X19691Y-29537D01*
X19537Y-29690D01*
X19454Y-29891D01*
X19454Y-30108D01*
X19537Y-30308D01*
X19690Y-30462D01*
X19781Y-30499D01*
X19691Y-30537D01*
X19537Y-30690D01*
X19454Y-30891D01*
X19454Y-31108D01*
X19537Y-31308D01*
X19690Y-31462D01*
X19781Y-31499D01*
X19691Y-31537D01*
X19537Y-31690D01*
X19454Y-31891D01*
X19454Y-32108D01*
X19537Y-32308D01*
X19690Y-32462D01*
X19781Y-32499D01*
X19691Y-32537D01*
X19537Y-32690D01*
X19454Y-32891D01*
X19454Y-33108D01*
X19537Y-33308D01*
X19690Y-33462D01*
X19781Y-33499D01*
X19691Y-33537D01*
X19537Y-33690D01*
X19454Y-33891D01*
X19454Y-34108D01*
X19537Y-34308D01*
X19690Y-34462D01*
X19775Y-34497D01*
X19714Y-34522D01*
X19688Y-34617D01*
X20000Y-34929D01*
X20311Y-34617D01*
X20285Y-34522D01*
X20220Y-34499D01*
X20308Y-34462D01*
X20462Y-34309D01*
X20474Y-34280D01*
X20525Y-34280D01*
X20537Y-34308D01*
X20690Y-34462D01*
X20775Y-34497D01*
X20714Y-34522D01*
X20688Y-34617D01*
X21000Y-34929D01*
X21311Y-34617D01*
X21285Y-34522D01*
X21220Y-34499D01*
X21308Y-34462D01*
X21462Y-34309D01*
X21545Y-34108D01*
X21545Y-33891D01*
X21545Y-34988D01*
X21539Y-34863D01*
X21477Y-34714D01*
X21382Y-34688D01*
X21070Y-35000D01*
X21382Y-35311D01*
X21477Y-35285D01*
X21550Y-35080D01*
X21550Y-35747D01*
X21545Y-35744D01*
X21545Y-35654D01*
X21507Y-35562D01*
X21437Y-35492D01*
X21345Y-35454D01*
X21291Y-35454D01*
X21311Y-35382D01*
X21000Y-35070D01*
X20929Y-35141D01*
X20929Y-35000D01*
X20617Y-34688D01*
X20522Y-34714D01*
X20501Y-34773D01*
X20477Y-34714D01*
X20382Y-34688D01*
X20070Y-35000D01*
X20382Y-35311D01*
X20477Y-35285D01*
X20498Y-35226D01*
X20522Y-35285D01*
X20617Y-35311D01*
X20929Y-35000D01*
X20929Y-35141D01*
X20688Y-35382D01*
X20708Y-35454D01*
X20654Y-35454D01*
X20562Y-35492D01*
X20499Y-35555D01*
X20437Y-35492D01*
X20345Y-35454D01*
X20291Y-35454D01*
X20311Y-35382D01*
X20000Y-35070D01*
X19929Y-35141D01*
X19929Y-35000D01*
X19617Y-34688D01*
X19522Y-34714D01*
X19449Y-34919D01*
X19460Y-35136D01*
X19522Y-35285D01*
X19617Y-35311D01*
X19929Y-35000D01*
X19929Y-35141D01*
X19688Y-35382D01*
X19708Y-35454D01*
X19654Y-35454D01*
X19562Y-35492D01*
X19492Y-35562D01*
X19454Y-35654D01*
X19454Y-35754D01*
X19454Y-36345D01*
X19492Y-36437D01*
X19562Y-36507D01*
X19654Y-36545D01*
X19754Y-36545D01*
X20345Y-36545D01*
X20437Y-36507D01*
X20500Y-36444D01*
X20562Y-36507D01*
X20654Y-36545D01*
X20754Y-36545D01*
X21345Y-36545D01*
X21437Y-36507D01*
X21475Y-36469D01*
X21585Y-36580D01*
X21679Y-36642D01*
X21790Y-36665D01*
X21802Y-36665D01*
X21813Y-36691D01*
X21883Y-36761D01*
X21975Y-36800D01*
X22074Y-36800D01*
X22624Y-36800D01*
X22716Y-36761D01*
X22786Y-36691D01*
X22825Y-36599D01*
X22825Y-36500D01*
X22825Y-36280D01*
X23499Y-36280D01*
X23499Y-36318D01*
X23591Y-36539D01*
X23759Y-36708D01*
X23980Y-36799D01*
X24218Y-36800D01*
X24439Y-36708D01*
X24608Y-36540D01*
X24612Y-36529D01*
X24677Y-36551D01*
X25029Y-36200D01*
X24677Y-35848D01*
X24612Y-35870D01*
X24608Y-35860D01*
X24440Y-35691D01*
X24219Y-35600D01*
X23981Y-35599D01*
X23760Y-35691D01*
X23731Y-35720D01*
X22825Y-35720D01*
X22825Y-35400D01*
X22786Y-35308D01*
X22716Y-35238D01*
X22624Y-35200D01*
X22580Y-35200D01*
X22580Y-34081D01*
X22588Y-34100D01*
X22658Y-34170D01*
X22750Y-34209D01*
X22849Y-34209D01*
X22937Y-34209D01*
X23000Y-34146D01*
X23000Y-33953D01*
X23100Y-33953D01*
X23100Y-34146D01*
X23162Y-34209D01*
X23250Y-34209D01*
X23349Y-34209D01*
X23441Y-34170D01*
X23511Y-34100D01*
X23550Y-34008D01*
X23550Y-33984D01*
X23500Y-33934D01*
X23550Y-33934D01*
X23550Y-33908D01*
X23572Y-33908D01*
X23679Y-33886D01*
X23679Y-33886D01*
X23769Y-33825D01*
X24250Y-33345D01*
X24250Y-33346D01*
X24250Y-33496D01*
X24251Y-33499D01*
X24250Y-33503D01*
X24250Y-33602D01*
X24250Y-33752D01*
X24251Y-33755D01*
X24250Y-33759D01*
X24250Y-33858D01*
X24250Y-34008D01*
X24288Y-34100D01*
X24358Y-34170D01*
X24450Y-34209D01*
X24549Y-34209D01*
X25049Y-34209D01*
X25141Y-34170D01*
X25199Y-34113D01*
X25884Y-34797D01*
X25974Y-34858D01*
X25974Y-34858D01*
X26082Y-34880D01*
X27520Y-34880D01*
X27533Y-34911D01*
X27688Y-35065D01*
X27720Y-35079D01*
X27720Y-35950D01*
X27675Y-35950D01*
X27583Y-35988D01*
X27513Y-36058D01*
X27475Y-36150D01*
X27475Y-36249D01*
X27475Y-36599D01*
X27513Y-36691D01*
X27571Y-36750D01*
X27513Y-36808D01*
X27475Y-36900D01*
X27475Y-37012D01*
X27537Y-37075D01*
X27950Y-37075D01*
X27950Y-37067D01*
X28050Y-37067D01*
X28050Y-37075D01*
X28462Y-37075D01*
X28525Y-37012D01*
X28525Y-36900D01*
X28486Y-36808D01*
X28428Y-36749D01*
X28486Y-36691D01*
X28525Y-36599D01*
X28525Y-36500D01*
X28525Y-36150D01*
X28486Y-36058D01*
X28416Y-35988D01*
X28324Y-35950D01*
X28280Y-35950D01*
X28280Y-35079D01*
X28311Y-35066D01*
X28465Y-34911D01*
X28549Y-34709D01*
X28550Y-34491D01*
X28466Y-34288D01*
X28311Y-34134D01*
X28230Y-34100D01*
X28311Y-34066D01*
X28465Y-33911D01*
X28549Y-33709D01*
X28550Y-33546D01*
X29220Y-34215D01*
X29220Y-35950D01*
X29175Y-35950D01*
X29083Y-35988D01*
X29013Y-36058D01*
X28975Y-36150D01*
X28975Y-36249D01*
X28975Y-36599D01*
X29013Y-36691D01*
X29071Y-36750D01*
X29013Y-36808D01*
X28975Y-36900D01*
X28975Y-37012D01*
X29037Y-37075D01*
X29450Y-37075D01*
X29450Y-37067D01*
X29550Y-37067D01*
X29550Y-37075D01*
X29962Y-37075D01*
X30007Y-37030D01*
X30492Y-37030D01*
X30537Y-37075D01*
X30950Y-37075D01*
X30950Y-37067D01*
X31050Y-37067D01*
X31050Y-37075D01*
X31462Y-37075D01*
X31507Y-37030D01*
X37250Y-37030D01*
X37357Y-37008D01*
X37357Y-37008D01*
X37447Y-36947D01*
X37862Y-36533D01*
X37891Y-36545D01*
X38108Y-36545D01*
X38308Y-36462D01*
X38462Y-36309D01*
X38474Y-36280D01*
X38525Y-36280D01*
X38537Y-36308D01*
X38690Y-36462D01*
X38891Y-36545D01*
X39108Y-36545D01*
X39308Y-36462D01*
X39462Y-36309D01*
X39545Y-36108D01*
X39545Y-35891D01*
X39462Y-35691D01*
X39309Y-35537D01*
X39218Y-35500D01*
X39308Y-35462D01*
X39462Y-35309D01*
X39545Y-35108D01*
X39545Y-34891D01*
X39462Y-34691D01*
X39309Y-34537D01*
X39218Y-34500D01*
X39308Y-34462D01*
X39462Y-34309D01*
X39545Y-34108D01*
X39545Y-33891D01*
X39462Y-33691D01*
X39309Y-33537D01*
X39218Y-33500D01*
X39308Y-33462D01*
X39462Y-33309D01*
X39545Y-33108D01*
X39545Y-32891D01*
X39462Y-32691D01*
X39309Y-32537D01*
X39218Y-32500D01*
X39308Y-32462D01*
X39462Y-32309D01*
X39545Y-32108D01*
X39545Y-31891D01*
X39462Y-31691D01*
X39309Y-31537D01*
X39218Y-31500D01*
X39308Y-31462D01*
X39462Y-31309D01*
X39545Y-31108D01*
X39545Y-30891D01*
X39462Y-30691D01*
X39309Y-30537D01*
X39218Y-30500D01*
X39308Y-30462D01*
X39462Y-30309D01*
X39545Y-30108D01*
X39545Y-29891D01*
X39462Y-29691D01*
X39309Y-29537D01*
X39218Y-29500D01*
X39308Y-29462D01*
X39462Y-29309D01*
X39545Y-29108D01*
X39545Y-28891D01*
X39462Y-28691D01*
X39309Y-28537D01*
X39218Y-28500D01*
X39308Y-28462D01*
X39462Y-28309D01*
X39545Y-28108D01*
X39545Y-27891D01*
X39462Y-27691D01*
X39309Y-27537D01*
X39218Y-27500D01*
X39308Y-27462D01*
X39462Y-27309D01*
X39545Y-27108D01*
X39545Y-26891D01*
X39462Y-26691D01*
X39309Y-26537D01*
X39218Y-26500D01*
X39308Y-26462D01*
X39462Y-26309D01*
X39545Y-26108D01*
X39545Y-25891D01*
X39462Y-25691D01*
X39309Y-25537D01*
X39218Y-25500D01*
X39308Y-25462D01*
X39462Y-25309D01*
X39545Y-25108D01*
X39545Y-24891D01*
X39462Y-24691D01*
X39309Y-24537D01*
X39218Y-24500D01*
X39308Y-24462D01*
X39462Y-24309D01*
X39545Y-24108D01*
X39545Y-23891D01*
X39462Y-23691D01*
X39317Y-23545D01*
X39345Y-23545D01*
X39437Y-23507D01*
X39507Y-23437D01*
X39545Y-23345D01*
X39545Y-23245D01*
X39545Y-22654D01*
X39507Y-22562D01*
X39437Y-22492D01*
X39345Y-22454D01*
X39245Y-22454D01*
X38654Y-22454D01*
X38562Y-22492D01*
X38499Y-22555D01*
X38446Y-22502D01*
X38437Y-22492D01*
X38345Y-22454D01*
X38245Y-22454D01*
X37654Y-22454D01*
X37562Y-22492D01*
X37492Y-22562D01*
X37454Y-22654D01*
X37454Y-22754D01*
X37454Y-23345D01*
X37492Y-23437D01*
X37562Y-23507D01*
X37654Y-23545D01*
X37683Y-23545D01*
X37537Y-23690D01*
X37454Y-23891D01*
X37454Y-24108D01*
X37537Y-24308D01*
X37690Y-24462D01*
X37781Y-24499D01*
X37691Y-24537D01*
X37537Y-24690D01*
X37454Y-24891D01*
X37454Y-25108D01*
X37537Y-25308D01*
X37690Y-25462D01*
X37781Y-25499D01*
X37691Y-25537D01*
X37537Y-25690D01*
X37454Y-25891D01*
X37454Y-26108D01*
X37537Y-26308D01*
X37690Y-26462D01*
X37781Y-26499D01*
X37691Y-26537D01*
X37537Y-26690D01*
X37454Y-26891D01*
X37454Y-27108D01*
X37537Y-27308D01*
X37690Y-27462D01*
X37781Y-27499D01*
X37691Y-27537D01*
X37537Y-27690D01*
X37454Y-27891D01*
X37454Y-28108D01*
X37537Y-28308D01*
X37690Y-28462D01*
X37781Y-28499D01*
X37691Y-28537D01*
X37537Y-28690D01*
X37454Y-28891D01*
X37454Y-29108D01*
X37537Y-29308D01*
X37690Y-29462D01*
X37781Y-29499D01*
X37691Y-29537D01*
X37537Y-29690D01*
X37454Y-29891D01*
X37454Y-30108D01*
X37537Y-30308D01*
X37690Y-30462D01*
X37781Y-30499D01*
X37691Y-30537D01*
X37537Y-30690D01*
X37454Y-30891D01*
X37454Y-31108D01*
X37537Y-31308D01*
X37690Y-31462D01*
X37781Y-31499D01*
X37691Y-31537D01*
X37537Y-31690D01*
X37454Y-31891D01*
X37454Y-32108D01*
X37537Y-32308D01*
X37690Y-32462D01*
X37781Y-32499D01*
X37691Y-32537D01*
X37537Y-32690D01*
X37454Y-32891D01*
X37454Y-33108D01*
X37537Y-33308D01*
X37690Y-33462D01*
X37781Y-33499D01*
X37691Y-33537D01*
X37537Y-33690D01*
X37525Y-33720D01*
X36525Y-33720D01*
X36525Y-33400D01*
X36486Y-33308D01*
X36416Y-33238D01*
X36324Y-33200D01*
X36280Y-33200D01*
X36280Y-32450D01*
X36349Y-32450D01*
X36441Y-32411D01*
X36511Y-32341D01*
X36550Y-32249D01*
X36550Y-32150D01*
X36550Y-31550D01*
X36511Y-31458D01*
X36441Y-31388D01*
X36349Y-31350D01*
X36327Y-31350D01*
X36465Y-31211D01*
X36549Y-31009D01*
X36550Y-30791D01*
X36466Y-30588D01*
X36311Y-30434D01*
X36109Y-30350D01*
X35891Y-30349D01*
X35688Y-30433D01*
X35674Y-30447D01*
X35674Y-27881D01*
X35583Y-27660D01*
X35530Y-27606D01*
X35530Y-21895D01*
X35449Y-21700D01*
X35300Y-21550D01*
X35105Y-21470D01*
X34895Y-21469D01*
X34700Y-21550D01*
X34550Y-21699D01*
X34470Y-21894D01*
X34469Y-22104D01*
X34478Y-22125D01*
X33707Y-22896D01*
X33677Y-22916D01*
X33633Y-22981D01*
X33558Y-23013D01*
X33499Y-23071D01*
X33441Y-23013D01*
X33349Y-22975D01*
X33250Y-22975D01*
X32980Y-22975D01*
X32459Y-22453D01*
X32491Y-22421D01*
X32530Y-22329D01*
X32530Y-22230D01*
X32530Y-21670D01*
X32491Y-21578D01*
X32421Y-21508D01*
X32329Y-21470D01*
X32230Y-21470D01*
X31670Y-21470D01*
X31578Y-21508D01*
X31508Y-21578D01*
X31470Y-21670D01*
X31470Y-21769D01*
X31470Y-22329D01*
X31508Y-22421D01*
X31578Y-22491D01*
X31670Y-22530D01*
X31763Y-22530D01*
X31802Y-22588D01*
X32700Y-23486D01*
X32700Y-23824D01*
X32720Y-23873D01*
X32720Y-24950D01*
X32650Y-24950D01*
X32558Y-24988D01*
X32488Y-25058D01*
X32450Y-25150D01*
X32450Y-25249D01*
X32450Y-25849D01*
X32488Y-25941D01*
X32558Y-26011D01*
X32650Y-26050D01*
X32749Y-26050D01*
X33349Y-26050D01*
X33441Y-26011D01*
X33511Y-25941D01*
X33550Y-25849D01*
X33550Y-25827D01*
X33688Y-25965D01*
X33890Y-26049D01*
X34108Y-26050D01*
X34311Y-25966D01*
X34465Y-25811D01*
X34549Y-25609D01*
X34550Y-25391D01*
X34466Y-25188D01*
X34311Y-25034D01*
X34155Y-24968D01*
X34155Y-24002D01*
X34191Y-23986D01*
X34261Y-23916D01*
X34300Y-23824D01*
X34300Y-23725D01*
X34300Y-23175D01*
X34276Y-23119D01*
X34874Y-22521D01*
X34894Y-22529D01*
X35104Y-22530D01*
X35299Y-22449D01*
X35449Y-22300D01*
X35529Y-22105D01*
X35530Y-21895D01*
X35530Y-27606D01*
X35415Y-27491D01*
X35194Y-27400D01*
X34955Y-27399D01*
X34865Y-27437D01*
X34865Y-27019D01*
X34792Y-26842D01*
X34658Y-26707D01*
X34481Y-26634D01*
X34290Y-26634D01*
X34114Y-26707D01*
X33979Y-26841D01*
X33942Y-26929D01*
X33907Y-26842D01*
X33772Y-26707D01*
X33595Y-26634D01*
X33404Y-26634D01*
X33228Y-26707D01*
X33093Y-26841D01*
X33057Y-26929D01*
X33021Y-26842D01*
X32886Y-26707D01*
X32710Y-26634D01*
X32519Y-26634D01*
X32342Y-26707D01*
X32207Y-26841D01*
X32134Y-27018D01*
X32134Y-27209D01*
X32207Y-27385D01*
X32341Y-27520D01*
X32518Y-27594D01*
X32709Y-27594D01*
X32885Y-27521D01*
X33020Y-27386D01*
X33057Y-27299D01*
X33092Y-27385D01*
X33227Y-27520D01*
X33404Y-27594D01*
X33595Y-27594D01*
X33771Y-27521D01*
X33906Y-27386D01*
X33942Y-27299D01*
X33978Y-27385D01*
X34113Y-27520D01*
X34289Y-27594D01*
X34480Y-27594D01*
X34657Y-27521D01*
X34792Y-27386D01*
X34865Y-27210D01*
X34865Y-27019D01*
X34865Y-27437D01*
X34735Y-27491D01*
X34566Y-27659D01*
X34474Y-27880D01*
X34474Y-28118D01*
X34565Y-28339D01*
X34734Y-28508D01*
X34954Y-28599D01*
X35193Y-28600D01*
X35414Y-28508D01*
X35583Y-28340D01*
X35674Y-28119D01*
X35674Y-27881D01*
X35674Y-30447D01*
X35534Y-30588D01*
X35520Y-30620D01*
X34865Y-30620D01*
X34865Y-28790D01*
X34792Y-28614D01*
X34658Y-28479D01*
X34481Y-28405D01*
X34290Y-28405D01*
X34114Y-28478D01*
X33979Y-28613D01*
X33905Y-28789D01*
X33905Y-28980D01*
X33978Y-29157D01*
X34113Y-29292D01*
X34289Y-29365D01*
X34480Y-29365D01*
X34657Y-29292D01*
X34792Y-29158D01*
X34865Y-28981D01*
X34865Y-28790D01*
X34865Y-30620D01*
X34545Y-30620D01*
X34549Y-30609D01*
X34550Y-30391D01*
X34466Y-30188D01*
X34311Y-30034D01*
X34109Y-29950D01*
X33891Y-29949D01*
X33688Y-30033D01*
X33550Y-30172D01*
X33550Y-30150D01*
X33511Y-30058D01*
X33441Y-29988D01*
X33349Y-29950D01*
X33112Y-29950D01*
X33099Y-29963D01*
X33099Y-28950D01*
X33087Y-28760D01*
X33037Y-28640D01*
X32949Y-28621D01*
X32878Y-28692D01*
X32878Y-28550D01*
X32859Y-28462D01*
X32679Y-28400D01*
X32525Y-28410D01*
X32525Y-27881D01*
X32434Y-27660D01*
X32265Y-27491D01*
X32045Y-27400D01*
X31806Y-27399D01*
X31585Y-27491D01*
X31416Y-27659D01*
X31325Y-27880D01*
X31325Y-28118D01*
X31416Y-28339D01*
X31584Y-28508D01*
X31805Y-28599D01*
X32044Y-28600D01*
X32264Y-28508D01*
X32433Y-28340D01*
X32525Y-28119D01*
X32525Y-27881D01*
X32525Y-28410D01*
X32488Y-28412D01*
X32368Y-28462D01*
X32349Y-28550D01*
X32614Y-28815D01*
X32878Y-28550D01*
X32878Y-28692D01*
X32684Y-28885D01*
X32949Y-29150D01*
X33037Y-29131D01*
X33099Y-28950D01*
X33099Y-29963D01*
X33050Y-30012D01*
X33050Y-30450D01*
X33057Y-30450D01*
X33057Y-30550D01*
X33050Y-30550D01*
X33050Y-30557D01*
X32950Y-30557D01*
X32950Y-30550D01*
X32950Y-30450D01*
X32950Y-30012D01*
X32887Y-29950D01*
X32878Y-29950D01*
X32878Y-29220D01*
X32614Y-28956D01*
X32543Y-29027D01*
X32543Y-28885D01*
X32279Y-28621D01*
X32190Y-28640D01*
X32129Y-28820D01*
X32141Y-29011D01*
X32190Y-29131D01*
X32279Y-29150D01*
X32543Y-28885D01*
X32543Y-29027D01*
X32349Y-29220D01*
X32368Y-29309D01*
X32549Y-29370D01*
X32739Y-29358D01*
X32859Y-29309D01*
X32878Y-29220D01*
X32878Y-29950D01*
X32650Y-29950D01*
X32558Y-29988D01*
X32488Y-30058D01*
X32450Y-30150D01*
X32450Y-30249D01*
X32450Y-30387D01*
X32512Y-30450D01*
X32950Y-30450D01*
X32950Y-30550D01*
X32512Y-30550D01*
X32450Y-30612D01*
X32450Y-30750D01*
X32450Y-30849D01*
X32488Y-30941D01*
X32558Y-31011D01*
X32650Y-31050D01*
X32771Y-31050D01*
X32738Y-31083D01*
X32700Y-31175D01*
X32700Y-31274D01*
X32700Y-31387D01*
X32762Y-31450D01*
X33075Y-31450D01*
X33075Y-31442D01*
X33175Y-31442D01*
X33175Y-31450D01*
X33182Y-31450D01*
X33182Y-31550D01*
X33175Y-31550D01*
X33175Y-31962D01*
X33237Y-32025D01*
X33349Y-32025D01*
X33441Y-31986D01*
X33500Y-31928D01*
X33558Y-31986D01*
X33650Y-32025D01*
X33749Y-32025D01*
X34099Y-32025D01*
X34191Y-31986D01*
X34261Y-31916D01*
X34300Y-31824D01*
X34300Y-31725D01*
X34300Y-31175D01*
X34293Y-31158D01*
X34400Y-31180D01*
X35520Y-31180D01*
X35533Y-31211D01*
X35672Y-31350D01*
X35650Y-31350D01*
X35558Y-31388D01*
X35488Y-31458D01*
X35450Y-31550D01*
X35450Y-31649D01*
X35450Y-32249D01*
X35488Y-32341D01*
X35558Y-32411D01*
X35650Y-32450D01*
X35720Y-32450D01*
X35720Y-33200D01*
X35675Y-33200D01*
X35583Y-33238D01*
X35513Y-33308D01*
X35475Y-33400D01*
X35475Y-33499D01*
X35475Y-33679D01*
X33997Y-32202D01*
X33907Y-32141D01*
X33800Y-32120D01*
X33115Y-32120D01*
X33016Y-32020D01*
X33075Y-31962D01*
X33075Y-31550D01*
X32762Y-31550D01*
X32700Y-31612D01*
X32700Y-31704D01*
X30329Y-29333D01*
X30341Y-29321D01*
X30380Y-29229D01*
X30380Y-29130D01*
X30380Y-28770D01*
X30341Y-28678D01*
X30271Y-28608D01*
X30179Y-28570D01*
X30080Y-28570D01*
X29720Y-28570D01*
X29628Y-28608D01*
X29600Y-28636D01*
X29571Y-28608D01*
X29479Y-28570D01*
X29362Y-28570D01*
X29300Y-28632D01*
X29300Y-28950D01*
X29307Y-28950D01*
X29307Y-29050D01*
X29300Y-29050D01*
X29300Y-29367D01*
X29322Y-29389D01*
X29278Y-29408D01*
X29208Y-29478D01*
X29200Y-29497D01*
X29200Y-29367D01*
X29200Y-29050D01*
X29200Y-28950D01*
X29200Y-28632D01*
X29137Y-28570D01*
X29020Y-28570D01*
X28928Y-28608D01*
X28858Y-28678D01*
X28820Y-28770D01*
X28820Y-28869D01*
X28820Y-28887D01*
X28882Y-28950D01*
X29200Y-28950D01*
X29200Y-29050D01*
X28882Y-29050D01*
X28820Y-29112D01*
X28820Y-29130D01*
X28820Y-29229D01*
X28858Y-29321D01*
X28928Y-29391D01*
X29020Y-29430D01*
X29137Y-29430D01*
X29200Y-29367D01*
X29200Y-29497D01*
X29170Y-29570D01*
X29170Y-29669D01*
X29170Y-30029D01*
X29208Y-30121D01*
X29278Y-30191D01*
X29360Y-30225D01*
X29360Y-30225D01*
X29402Y-30288D01*
X30495Y-31381D01*
X30450Y-31490D01*
X30449Y-31708D01*
X30491Y-31810D01*
X30025Y-31810D01*
X30025Y-31750D01*
X29986Y-31658D01*
X29916Y-31588D01*
X29824Y-31550D01*
X29725Y-31550D01*
X29175Y-31550D01*
X29083Y-31588D01*
X29013Y-31658D01*
X29002Y-31685D01*
X28915Y-31685D01*
X28625Y-31394D01*
X28550Y-31344D01*
X28550Y-31250D01*
X28511Y-31158D01*
X28441Y-31088D01*
X28349Y-31050D01*
X28250Y-31050D01*
X27674Y-31050D01*
X27674Y-27881D01*
X27583Y-27660D01*
X27415Y-27491D01*
X27194Y-27400D01*
X26955Y-27399D01*
X26735Y-27491D01*
X26566Y-27659D01*
X26474Y-27880D01*
X26474Y-28118D01*
X26565Y-28339D01*
X26734Y-28508D01*
X26954Y-28599D01*
X27193Y-28600D01*
X27414Y-28508D01*
X27583Y-28340D01*
X27674Y-28119D01*
X27674Y-27881D01*
X27674Y-31050D01*
X27650Y-31050D01*
X27558Y-31088D01*
X27488Y-31158D01*
X27450Y-31250D01*
X27450Y-31349D01*
X27450Y-31949D01*
X27488Y-32041D01*
X27558Y-32111D01*
X27650Y-32150D01*
X27672Y-32150D01*
X27534Y-32288D01*
X27450Y-32490D01*
X27449Y-32708D01*
X27533Y-32911D01*
X27688Y-33065D01*
X27769Y-33099D01*
X27688Y-33133D01*
X27534Y-33288D01*
X27520Y-33320D01*
X27226Y-33320D01*
X27083Y-33177D01*
X27018Y-33133D01*
X26986Y-33058D01*
X26928Y-33000D01*
X26986Y-32941D01*
X27025Y-32849D01*
X27025Y-32737D01*
X27025Y-32512D01*
X27025Y-32400D01*
X26986Y-32308D01*
X26916Y-32238D01*
X26865Y-32217D01*
X26865Y-28790D01*
X26792Y-28614D01*
X26658Y-28479D01*
X26481Y-28405D01*
X26290Y-28405D01*
X26114Y-28478D01*
X25979Y-28613D01*
X25942Y-28700D01*
X25907Y-28614D01*
X25772Y-28479D01*
X25595Y-28405D01*
X25404Y-28405D01*
X25228Y-28478D01*
X25093Y-28613D01*
X25059Y-28694D01*
X25037Y-28640D01*
X24949Y-28621D01*
X24684Y-28885D01*
X24949Y-29150D01*
X25037Y-29131D01*
X25057Y-29072D01*
X25092Y-29157D01*
X25227Y-29292D01*
X25404Y-29365D01*
X25595Y-29365D01*
X25771Y-29292D01*
X25906Y-29158D01*
X25942Y-29070D01*
X25978Y-29157D01*
X26113Y-29292D01*
X26289Y-29365D01*
X26480Y-29365D01*
X26657Y-29292D01*
X26792Y-29158D01*
X26865Y-28981D01*
X26865Y-28790D01*
X26865Y-32217D01*
X26824Y-32200D01*
X26725Y-32200D01*
X26612Y-32200D01*
X26550Y-32262D01*
X26550Y-32575D01*
X26962Y-32575D01*
X27025Y-32512D01*
X27025Y-32737D01*
X26962Y-32675D01*
X26550Y-32675D01*
X26550Y-32682D01*
X26450Y-32682D01*
X26450Y-32675D01*
X26450Y-32575D01*
X26450Y-32262D01*
X26387Y-32200D01*
X26274Y-32200D01*
X26175Y-32200D01*
X26083Y-32238D01*
X26013Y-32308D01*
X25975Y-32400D01*
X25975Y-32512D01*
X26037Y-32575D01*
X26450Y-32575D01*
X26450Y-32675D01*
X26037Y-32675D01*
X25975Y-32737D01*
X25975Y-32849D01*
X26013Y-32941D01*
X26071Y-33000D01*
X26013Y-33058D01*
X25999Y-33092D01*
X25250Y-33092D01*
X25250Y-32991D01*
X25211Y-32899D01*
X25142Y-32830D01*
X25250Y-32830D01*
X25357Y-32808D01*
X25357Y-32808D01*
X25447Y-32747D01*
X26072Y-32122D01*
X26133Y-32032D01*
X26133Y-32032D01*
X26137Y-32014D01*
X26138Y-32009D01*
X26191Y-31986D01*
X26261Y-31916D01*
X26300Y-31824D01*
X26300Y-31725D01*
X26300Y-31175D01*
X26261Y-31083D01*
X26193Y-31015D01*
X26311Y-30966D01*
X26465Y-30811D01*
X26549Y-30609D01*
X26550Y-30391D01*
X26466Y-30188D01*
X26311Y-30034D01*
X26109Y-29950D01*
X25891Y-29949D01*
X25688Y-30033D01*
X25550Y-30172D01*
X25550Y-30150D01*
X25511Y-30058D01*
X25441Y-29988D01*
X25349Y-29950D01*
X25112Y-29950D01*
X25050Y-30012D01*
X25050Y-30450D01*
X25057Y-30450D01*
X25057Y-30550D01*
X25050Y-30550D01*
X25050Y-30557D01*
X24950Y-30557D01*
X24950Y-30550D01*
X24950Y-30450D01*
X24950Y-30012D01*
X24887Y-29950D01*
X24878Y-29950D01*
X24878Y-29220D01*
X24614Y-28956D01*
X24349Y-29220D01*
X24368Y-29309D01*
X24549Y-29370D01*
X24739Y-29358D01*
X24859Y-29309D01*
X24878Y-29220D01*
X24878Y-29950D01*
X24650Y-29950D01*
X24558Y-29988D01*
X24488Y-30058D01*
X24450Y-30150D01*
X24450Y-30249D01*
X24450Y-30387D01*
X24512Y-30450D01*
X24950Y-30450D01*
X24950Y-30550D01*
X24512Y-30550D01*
X24450Y-30612D01*
X24450Y-30750D01*
X24450Y-30849D01*
X24488Y-30941D01*
X24558Y-31011D01*
X24650Y-31050D01*
X24771Y-31050D01*
X24738Y-31083D01*
X24700Y-31175D01*
X24700Y-31274D01*
X24700Y-31387D01*
X24762Y-31450D01*
X25075Y-31450D01*
X25075Y-31442D01*
X25175Y-31442D01*
X25175Y-31450D01*
X25182Y-31450D01*
X25182Y-31550D01*
X25175Y-31550D01*
X25175Y-31962D01*
X25237Y-32025D01*
X25349Y-32025D01*
X25399Y-32004D01*
X25134Y-32270D01*
X25075Y-32270D01*
X25075Y-31962D01*
X25075Y-31550D01*
X24762Y-31550D01*
X24700Y-31612D01*
X24700Y-31725D01*
X24700Y-31824D01*
X24738Y-31916D01*
X24808Y-31986D01*
X24900Y-32025D01*
X25012Y-32025D01*
X25075Y-31962D01*
X25075Y-32270D01*
X24650Y-32270D01*
X24542Y-32291D01*
X24512Y-32311D01*
X24452Y-32352D01*
X23930Y-32874D01*
X23930Y-29215D01*
X24140Y-29005D01*
X24141Y-29011D01*
X24190Y-29131D01*
X24279Y-29150D01*
X24543Y-28885D01*
X24537Y-28880D01*
X24608Y-28809D01*
X24614Y-28815D01*
X24878Y-28550D01*
X24859Y-28462D01*
X24728Y-28417D01*
X25914Y-27231D01*
X25978Y-27385D01*
X26113Y-27520D01*
X26289Y-27594D01*
X26480Y-27594D01*
X26657Y-27521D01*
X26792Y-27386D01*
X26865Y-27210D01*
X26865Y-27019D01*
X26792Y-26842D01*
X26658Y-26707D01*
X26502Y-26643D01*
X28197Y-24947D01*
X28197Y-24947D01*
X28258Y-24857D01*
X28280Y-24750D01*
X28280Y-20325D01*
X28324Y-20325D01*
X28416Y-20286D01*
X28486Y-20216D01*
X28525Y-20124D01*
X28525Y-20025D01*
X28525Y-20025D01*
X28554Y-20097D01*
X28702Y-20244D01*
X28895Y-20324D01*
X29103Y-20325D01*
X29297Y-20245D01*
X29444Y-20097D01*
X29500Y-19964D01*
X29554Y-20097D01*
X29702Y-20244D01*
X29895Y-20324D01*
X30103Y-20325D01*
X30297Y-20245D01*
X30444Y-20097D01*
X30500Y-19964D01*
X30554Y-20097D01*
X30702Y-20244D01*
X30895Y-20324D01*
X31103Y-20325D01*
X31297Y-20245D01*
X31444Y-20097D01*
X31524Y-19904D01*
X31525Y-19696D01*
X31445Y-19503D01*
X31297Y-19355D01*
X31225Y-19325D01*
X38306Y-19325D01*
X38280Y-19351D01*
X38324Y-19395D01*
X38188Y-19471D01*
X38047Y-19822D01*
X38052Y-20200D01*
X38188Y-20528D01*
X38324Y-20604D01*
X38280Y-20648D01*
X38253Y-20621D01*
X38089Y-20553D01*
X37911Y-20553D01*
X37747Y-20620D01*
X37621Y-20746D01*
X37553Y-20910D01*
X37553Y-21088D01*
X37620Y-21252D01*
X37746Y-21378D01*
X37910Y-21446D01*
X38088Y-21446D01*
X38252Y-21379D01*
X38378Y-21253D01*
X38446Y-21089D01*
X38446Y-20911D01*
X38379Y-20747D01*
X38351Y-20719D01*
X38395Y-20675D01*
X38471Y-20811D01*
X38822Y-20952D01*
X39200Y-20947D01*
X39528Y-20811D01*
X39604Y-20675D01*
X39604Y-20675D01*
X39648Y-20719D01*
X39675Y-20693D01*
X39675Y-37675D01*
M02*
