M48
;DRILL file {Pcbnew (2013-mar-13)-testing} date Thu 27 Jun 2013 11:45:01 AM CEST
;FORMAT={-:-/ absolute / inch / decimal}
FMAT,2
INCH,TZ
T1C0.016
T2C0.039
T3C0.040
T4C0.100
%
G90
G05
M72
T1
X2.1416Y-3.2365
X2.1541Y-2.7381
X2.1801Y-2.7741
X2.2056Y-3.2689
X2.2056Y-3.4
X2.24Y-3.225
X2.2614Y-2.2468
X2.29Y-2.33
X2.2934Y-2.8748
X2.3031Y-3.3447
X2.313Y-3.1616
X2.3699Y-3.3268
X2.4Y-2.2108
X2.4Y-2.3
X2.4179Y-3.3518
X2.4358Y-2.8388
X2.4483Y-3.128
X2.456Y-3.4338
X2.466Y-3.3598
X2.4733Y-3.212
X2.4778Y-2.5656
X2.4778Y-2.8748
X2.516Y-2.8327
X2.5233Y-3.0886
X2.5334Y-3.6213
X2.5544Y-2.6204
X2.5544Y-2.7381
X2.5654Y-3.4338
X2.5671Y-2.4064
X2.5671Y-2.4424
X2.6142Y-2.7741
X2.6171Y-2.6881
X2.6174Y-3.474
X2.6392Y-3.438
X2.6441Y-2.2358
X2.6502Y-3.2278
X2.6642Y-3.3574
X2.6693Y-2.9248
X2.6752Y-3.1083
X2.6766Y-3.402
X2.6766Y-3.6964
X2.6786Y-2.4064
X2.6924Y-2.8361
X2.7002Y-3.2124
X2.703Y-2.6204
X2.723Y-2.384
X2.723Y-2.5158
X2.723Y-2.5546
X2.7304Y-2.6881
X2.7359Y-3.1764
X2.759Y-2.5059
X2.759Y-2.6271
X2.7607Y-2.8721
X2.7697Y-2.6631
X2.7826Y-2.983
X2.7826Y-3.1504
X2.7952Y-2.6906
X2.7956Y-2.8077
X2.801Y-3.3609
X2.801Y-3.5624
X2.8086Y-3.0242
X2.827Y-3.4361
X2.827Y-3.6824
X2.8319Y-2.8998
X2.852Y-3.0492
X2.8568Y-2.9992
X2.8682Y-2.7976
X2.9Y-2.6156
X2.925Y-2.2468
X2.9594Y-2.2894
X2.9594Y-2.4174
X2.9594Y-2.4674
X2.9776Y-2.8257
X2.9776Y-2.9518
X2.9863Y-2.2123
X2.9863Y-2.5906
X2.9869Y-3.2278
X2.9889Y-3.431
X2.9889Y-3.481
X3.0026Y-3.1476
X3.0113Y-2.6406
X3.0218Y-2.5034
X3.0253Y-2.6766
X3.0309Y-2.8878
X3.0309Y-3.431
X3.0573Y-2.1365
X3.0646Y-2.852
X3.0646Y-3.1083
X3.0699Y-3.187
X3.0754Y-3.431
X3.1Y-3.334
X3.1406Y-3.506
X3.1731Y-3.7484
X3.18Y-2.53
X3.1874Y-2.6733
X3.1874Y-2.8667
X3.1874Y-2.9402
X3.2154Y-2.9902
X3.2234Y-2.8417
X3.25Y-2.53
X3.2569Y-2.7617
X3.2654Y-3.0886
X3.2735Y-3.395
X3.2794Y-3.1673
X3.3286Y-3.3653
X3.3286Y-3.431
X3.3416Y-2.8332
X3.363Y-2.5163
X3.373Y-3.3293
X3.373Y-3.3793
X3.373Y-3.4293
X3.373Y-3.6489
X3.3876Y-3.1496
X3.4287Y-2.5332
X3.4451Y-3.594
X3.4453Y-3.0278
X3.4593Y-2.7257
X3.4593Y-2.9278
X3.4896Y-2.5578
X3.4896Y-3.0143
X3.4896Y-3.3793
X3.525Y-3.0398
X3.525Y-3.4293
X3.5592Y-2.7148
X3.56Y-2.44
X3.57Y-2.18
X3.5827Y-2.5608
X3.5844Y-3.6824
X3.6102Y-2.8778
X3.6102Y-3.1496
X3.6102Y-3.5445
X3.6352Y-3.7074
X3.6725Y-3.8704
X3.68Y-2.3
X3.6822Y-3.2793
X3.6909Y-2.7
X3.7Y-2.14
X3.7098Y-3.506
X3.7119Y-3.5507
X3.7159Y-3.086
X3.7182Y-3.3
T2
X2.Y-2.3
X2.Y-2.4
X2.Y-2.5
X2.Y-2.6
X2.Y-2.7
X2.Y-2.8
X2.Y-2.9
X2.Y-3.
X2.Y-3.1
X2.Y-3.2
X2.Y-3.3
X2.Y-3.4
X2.Y-3.5
X2.Y-3.6
X2.1Y-2.3
X2.1Y-2.4
X2.1Y-2.5
X2.1Y-2.6
X2.1Y-2.7
X2.1Y-2.8
X2.1Y-2.9
X2.1Y-3.
X2.1Y-3.1
X2.1Y-3.2
X2.1Y-3.3
X2.1Y-3.4
X2.1Y-3.5
X2.1Y-3.6
X2.3Y-2.
X2.3Y-2.1
X2.3Y-3.8
X2.3Y-3.9
X2.4Y-2.
X2.4Y-2.1
X2.4Y-3.8
X2.4Y-3.9
X2.5Y-2.
X2.5Y-2.1
X2.5Y-3.8
X2.5Y-3.9
X2.6Y-2.
X2.6Y-2.1
X2.6Y-3.8
X2.6Y-3.9
X2.7Y-2.
X2.7Y-2.1
X2.7Y-3.8
X2.7Y-3.9
X2.8Y-2.
X2.8Y-2.1
X2.8Y-3.8
X2.8Y-3.9
X2.9Y-2.
X2.9Y-2.1
X2.9Y-3.8
X2.9Y-3.9
X3.Y-2.
X3.Y-2.1
X3.Y-3.8
X3.Y-3.9
X3.1Y-2.
X3.1Y-2.1
X3.1Y-3.8
X3.1Y-3.9
X3.2Y-2.
X3.2Y-2.1
X3.2Y-3.8
X3.2Y-3.9
X3.3Y-2.
X3.3Y-2.1
X3.3Y-3.8
X3.3Y-3.9
X3.4Y-2.
X3.4Y-2.1
X3.4Y-3.8
X3.4Y-3.9
X3.5Y-2.
X3.5Y-2.1
X3.5Y-3.8
X3.5Y-3.9
X3.6Y-2.
X3.6Y-2.1
X3.6Y-3.8
X3.6Y-3.9
X3.8Y-2.3
X3.8Y-2.4
X3.8Y-2.5
X3.8Y-2.6
X3.8Y-2.7
X3.8Y-2.8
X3.8Y-2.9
X3.8Y-3.
X3.8Y-3.1
X3.8Y-3.2
X3.8Y-3.3
X3.8Y-3.4
X3.8Y-3.5
X3.8Y-3.6
X3.9Y-2.3
X3.9Y-2.4
X3.9Y-2.5
X3.9Y-2.6
X3.9Y-2.7
X3.9Y-2.8
X3.9Y-2.9
X3.9Y-3.
X3.9Y-3.1
X3.9Y-3.2
X3.9Y-3.3
X3.9Y-3.4
X3.9Y-3.5
X3.9Y-3.6
T3
X2.24Y-3.5
X2.24Y-3.6
T4
X2.Y-3.9
X3.9Y-2.
T0
M30
