G04 (created by PCBNEW (2013-mar-13)-testing) date Sun 04 Aug 2013 09:21:59 PM CEST*
%MOIN*%
G04 Gerber Fmt 3.4, Leading zero omitted, Abs format*
%FSLAX34Y34*%
G01*
G70*
G90*
G04 APERTURE LIST*
%ADD10C,0.005906*%
%ADD11C,0.012000*%
%ADD12C,0.015000*%
G04 APERTURE END LIST*
G54D10*
G54D11*
X27356Y-16638D02*
X27070Y-16638D01*
X27041Y-17019D01*
X27070Y-16981D01*
X27127Y-16943D01*
X27270Y-16943D01*
X27327Y-16981D01*
X27356Y-17019D01*
X27384Y-17095D01*
X27384Y-17286D01*
X27356Y-17362D01*
X27327Y-17400D01*
X27270Y-17438D01*
X27127Y-17438D01*
X27070Y-17400D01*
X27041Y-17362D01*
X27756Y-16638D02*
X27813Y-16638D01*
X27870Y-16676D01*
X27898Y-16714D01*
X27927Y-16790D01*
X27956Y-16943D01*
X27956Y-17133D01*
X27927Y-17286D01*
X27898Y-17362D01*
X27870Y-17400D01*
X27813Y-17438D01*
X27756Y-17438D01*
X27698Y-17400D01*
X27670Y-17362D01*
X27641Y-17286D01*
X27613Y-17133D01*
X27613Y-16943D01*
X27641Y-16790D01*
X27670Y-16714D01*
X27698Y-16676D01*
X27756Y-16638D01*
X28213Y-17362D02*
X28241Y-17400D01*
X28213Y-17438D01*
X28184Y-17400D01*
X28213Y-17362D01*
X28213Y-17438D01*
X28613Y-16638D02*
X28670Y-16638D01*
X28727Y-16676D01*
X28756Y-16714D01*
X28784Y-16790D01*
X28813Y-16943D01*
X28813Y-17133D01*
X28784Y-17286D01*
X28756Y-17362D01*
X28727Y-17400D01*
X28670Y-17438D01*
X28613Y-17438D01*
X28556Y-17400D01*
X28527Y-17362D01*
X28498Y-17286D01*
X28470Y-17133D01*
X28470Y-16943D01*
X28498Y-16790D01*
X28527Y-16714D01*
X28556Y-16676D01*
X28613Y-16638D01*
X29184Y-16638D02*
X29241Y-16638D01*
X29298Y-16676D01*
X29327Y-16714D01*
X29356Y-16790D01*
X29384Y-16943D01*
X29384Y-17133D01*
X29356Y-17286D01*
X29327Y-17362D01*
X29298Y-17400D01*
X29241Y-17438D01*
X29184Y-17438D01*
X29127Y-17400D01*
X29098Y-17362D01*
X29070Y-17286D01*
X29041Y-17133D01*
X29041Y-16943D01*
X29070Y-16790D01*
X29098Y-16714D01*
X29127Y-16676D01*
X29184Y-16638D01*
X29756Y-16638D02*
X29813Y-16638D01*
X29870Y-16676D01*
X29898Y-16714D01*
X29927Y-16790D01*
X29956Y-16943D01*
X29956Y-17133D01*
X29927Y-17286D01*
X29898Y-17362D01*
X29870Y-17400D01*
X29813Y-17438D01*
X29756Y-17438D01*
X29698Y-17400D01*
X29670Y-17362D01*
X29641Y-17286D01*
X29613Y-17133D01*
X29613Y-16943D01*
X29641Y-16790D01*
X29670Y-16714D01*
X29698Y-16676D01*
X29756Y-16638D01*
X30670Y-17438D02*
X30670Y-16905D01*
X30670Y-16981D02*
X30698Y-16943D01*
X30756Y-16905D01*
X30841Y-16905D01*
X30898Y-16943D01*
X30927Y-17019D01*
X30927Y-17438D01*
X30927Y-17019D02*
X30956Y-16943D01*
X31013Y-16905D01*
X31098Y-16905D01*
X31156Y-16943D01*
X31184Y-17019D01*
X31184Y-17438D01*
X31470Y-17438D02*
X31470Y-16905D01*
X31470Y-16981D02*
X31498Y-16943D01*
X31556Y-16905D01*
X31641Y-16905D01*
X31698Y-16943D01*
X31727Y-17019D01*
X31727Y-17438D01*
X31727Y-17019D02*
X31756Y-16943D01*
X31813Y-16905D01*
X31898Y-16905D01*
X31956Y-16943D01*
X31984Y-17019D01*
X31984Y-17438D01*
X39370Y-17716D02*
X19685Y-17716D01*
X39370Y-19685D02*
X39370Y-16436D01*
X19685Y-19685D02*
X19685Y-16436D01*
X19685Y-17716D02*
X20128Y-17485D01*
X19685Y-17716D02*
X20128Y-17947D01*
X39370Y-17716D02*
X38926Y-17485D01*
X39370Y-17716D02*
X38926Y-17947D01*
X43991Y-27356D02*
X43991Y-27070D01*
X43610Y-27041D01*
X43648Y-27070D01*
X43686Y-27127D01*
X43686Y-27270D01*
X43648Y-27327D01*
X43610Y-27356D01*
X43534Y-27384D01*
X43343Y-27384D01*
X43267Y-27356D01*
X43229Y-27327D01*
X43191Y-27270D01*
X43191Y-27127D01*
X43229Y-27070D01*
X43267Y-27041D01*
X43991Y-27756D02*
X43991Y-27813D01*
X43953Y-27870D01*
X43915Y-27898D01*
X43839Y-27927D01*
X43686Y-27956D01*
X43496Y-27956D01*
X43343Y-27927D01*
X43267Y-27898D01*
X43229Y-27870D01*
X43191Y-27813D01*
X43191Y-27756D01*
X43229Y-27698D01*
X43267Y-27670D01*
X43343Y-27641D01*
X43496Y-27613D01*
X43686Y-27613D01*
X43839Y-27641D01*
X43915Y-27670D01*
X43953Y-27698D01*
X43991Y-27756D01*
X43267Y-28213D02*
X43229Y-28241D01*
X43191Y-28213D01*
X43229Y-28184D01*
X43267Y-28213D01*
X43191Y-28213D01*
X43991Y-28613D02*
X43991Y-28670D01*
X43953Y-28727D01*
X43915Y-28756D01*
X43839Y-28784D01*
X43686Y-28813D01*
X43496Y-28813D01*
X43343Y-28784D01*
X43267Y-28756D01*
X43229Y-28727D01*
X43191Y-28670D01*
X43191Y-28613D01*
X43229Y-28556D01*
X43267Y-28527D01*
X43343Y-28498D01*
X43496Y-28470D01*
X43686Y-28470D01*
X43839Y-28498D01*
X43915Y-28527D01*
X43953Y-28556D01*
X43991Y-28613D01*
X43991Y-29184D02*
X43991Y-29241D01*
X43953Y-29298D01*
X43915Y-29327D01*
X43839Y-29356D01*
X43686Y-29384D01*
X43496Y-29384D01*
X43343Y-29356D01*
X43267Y-29327D01*
X43229Y-29298D01*
X43191Y-29241D01*
X43191Y-29184D01*
X43229Y-29127D01*
X43267Y-29098D01*
X43343Y-29070D01*
X43496Y-29041D01*
X43686Y-29041D01*
X43839Y-29070D01*
X43915Y-29098D01*
X43953Y-29127D01*
X43991Y-29184D01*
X43991Y-29756D02*
X43991Y-29813D01*
X43953Y-29870D01*
X43915Y-29898D01*
X43839Y-29927D01*
X43686Y-29956D01*
X43496Y-29956D01*
X43343Y-29927D01*
X43267Y-29898D01*
X43229Y-29870D01*
X43191Y-29813D01*
X43191Y-29756D01*
X43229Y-29698D01*
X43267Y-29670D01*
X43343Y-29641D01*
X43496Y-29613D01*
X43686Y-29613D01*
X43839Y-29641D01*
X43915Y-29670D01*
X43953Y-29698D01*
X43991Y-29756D01*
X43191Y-30670D02*
X43724Y-30670D01*
X43648Y-30670D02*
X43686Y-30698D01*
X43724Y-30756D01*
X43724Y-30841D01*
X43686Y-30898D01*
X43610Y-30927D01*
X43191Y-30927D01*
X43610Y-30927D02*
X43686Y-30956D01*
X43724Y-31013D01*
X43724Y-31098D01*
X43686Y-31156D01*
X43610Y-31184D01*
X43191Y-31184D01*
X43191Y-31470D02*
X43724Y-31470D01*
X43648Y-31470D02*
X43686Y-31498D01*
X43724Y-31556D01*
X43724Y-31641D01*
X43686Y-31698D01*
X43610Y-31727D01*
X43191Y-31727D01*
X43610Y-31727D02*
X43686Y-31756D01*
X43724Y-31813D01*
X43724Y-31898D01*
X43686Y-31956D01*
X43610Y-31984D01*
X43191Y-31984D01*
X42913Y-19685D02*
X42913Y-39370D01*
X39370Y-19685D02*
X44193Y-19685D01*
X39370Y-39370D02*
X44193Y-39370D01*
X42913Y-39370D02*
X42682Y-38926D01*
X42913Y-39370D02*
X43144Y-38926D01*
X42913Y-19685D02*
X42682Y-20128D01*
X42913Y-19685D02*
X43144Y-20128D01*
G54D12*
X39000Y-38000D02*
G75*
G03X38000Y-39000I0J-1000D01*
G74*
G01*
X19685Y-39370D02*
X38000Y-39370D01*
X39370Y-19685D02*
X39370Y-38000D01*
X20000Y-21000D02*
G75*
G03X21000Y-20000I0J1000D01*
G74*
G01*
X38000Y-39000D02*
X38000Y-39370D01*
X39000Y-38000D02*
X39370Y-38000D01*
X19685Y-39370D02*
X19685Y-21000D01*
X20000Y-21000D02*
X19685Y-21000D01*
X21000Y-20000D02*
X21000Y-19685D01*
X39370Y-19685D02*
X21000Y-19685D01*
M02*
