G04 (created by PCBNEW (2013-mar-13)-testing) date Tue 30 Jul 2013 04:20:25 PM CEST*
%MOIN*%
G04 Gerber Fmt 3.4, Leading zero omitted, Abs format*
%FSLAX34Y34*%
G01*
G70*
G90*
G04 APERTURE LIST*
%ADD10C,0.005906*%
%ADD11C,0.015000*%
%ADD12C,0.012000*%
%ADD13C,0.020000*%
%ADD14C,0.100000*%
%ADD15R,0.020000X0.026300*%
%ADD16R,0.036000X0.036000*%
%ADD17R,0.011800X0.019700*%
%ADD18O,0.011000X0.039400*%
%ADD19O,0.039400X0.011000*%
%ADD20R,0.137800X0.137800*%
%ADD21R,0.031500X0.019700*%
%ADD22R,0.051200X0.063000*%
%ADD23C,0.039370*%
%ADD24C,0.140000*%
%ADD25C,0.059100*%
%ADD26R,0.059100X0.059100*%
%ADD27R,0.055000X0.035000*%
%ADD28R,0.035000X0.055000*%
%ADD29C,0.028000*%
%ADD30C,0.008000*%
%ADD31C,0.010000*%
G04 APERTURE END LIST*
G54D10*
G54D11*
X21000Y-19000D02*
X40000Y-19000D01*
X21000Y-19500D02*
X21000Y-19000D01*
X19000Y-21000D02*
X19500Y-21000D01*
X19000Y-40000D02*
X19000Y-21000D01*
X40000Y-19000D02*
X40000Y-38000D01*
X38000Y-40000D02*
X19000Y-40000D01*
X38000Y-39000D02*
X38000Y-40000D01*
X40000Y-38000D02*
X39000Y-38000D01*
X39000Y-38000D02*
G75*
G03X38000Y-39000I0J-1000D01*
G74*
G01*
X21000Y-19500D02*
X21000Y-20000D01*
X19500Y-21000D02*
X20000Y-21000D01*
X20000Y-21000D02*
G75*
G03X21000Y-20000I0J1000D01*
G74*
G01*
G54D12*
X27328Y-43700D02*
X27042Y-43700D01*
X27014Y-44081D01*
X27042Y-44043D01*
X27099Y-44005D01*
X27242Y-44005D01*
X27299Y-44043D01*
X27328Y-44081D01*
X27357Y-44158D01*
X27357Y-44348D01*
X27328Y-44424D01*
X27299Y-44462D01*
X27242Y-44500D01*
X27099Y-44500D01*
X27042Y-44462D01*
X27014Y-44424D01*
X27557Y-43700D02*
X27928Y-43700D01*
X27728Y-44005D01*
X27814Y-44005D01*
X27871Y-44043D01*
X27899Y-44081D01*
X27928Y-44158D01*
X27928Y-44348D01*
X27899Y-44424D01*
X27871Y-44462D01*
X27814Y-44500D01*
X27642Y-44500D01*
X27585Y-44462D01*
X27557Y-44424D01*
X28214Y-44462D02*
X28214Y-44500D01*
X28185Y-44577D01*
X28157Y-44615D01*
X28414Y-43700D02*
X28785Y-43700D01*
X28585Y-44005D01*
X28671Y-44005D01*
X28728Y-44043D01*
X28757Y-44081D01*
X28785Y-44158D01*
X28785Y-44348D01*
X28757Y-44424D01*
X28728Y-44462D01*
X28671Y-44500D01*
X28500Y-44500D01*
X28442Y-44462D01*
X28414Y-44424D01*
X29300Y-43967D02*
X29300Y-44500D01*
X29157Y-43662D02*
X29014Y-44234D01*
X29385Y-44234D01*
X29728Y-43700D02*
X29785Y-43700D01*
X29842Y-43739D01*
X29871Y-43777D01*
X29900Y-43853D01*
X29928Y-44005D01*
X29928Y-44196D01*
X29900Y-44348D01*
X29871Y-44424D01*
X29842Y-44462D01*
X29785Y-44500D01*
X29728Y-44500D01*
X29671Y-44462D01*
X29642Y-44424D01*
X29614Y-44348D01*
X29585Y-44196D01*
X29585Y-44005D01*
X29614Y-43853D01*
X29642Y-43777D01*
X29671Y-43739D01*
X29728Y-43700D01*
X30642Y-44500D02*
X30642Y-43967D01*
X30642Y-44043D02*
X30671Y-44005D01*
X30728Y-43967D01*
X30814Y-43967D01*
X30871Y-44005D01*
X30900Y-44081D01*
X30900Y-44500D01*
X30900Y-44081D02*
X30928Y-44005D01*
X30985Y-43967D01*
X31071Y-43967D01*
X31128Y-44005D01*
X31157Y-44081D01*
X31157Y-44500D01*
X31442Y-44500D02*
X31442Y-43967D01*
X31442Y-44043D02*
X31471Y-44005D01*
X31528Y-43967D01*
X31614Y-43967D01*
X31671Y-44005D01*
X31700Y-44081D01*
X31700Y-44500D01*
X31700Y-44081D02*
X31728Y-44005D01*
X31785Y-43967D01*
X31871Y-43967D01*
X31928Y-44005D01*
X31957Y-44081D01*
X31957Y-44500D01*
X19000Y-43499D02*
X40000Y-43499D01*
X19000Y-40000D02*
X19000Y-44779D01*
X40000Y-40000D02*
X40000Y-44779D01*
X40000Y-43499D02*
X39557Y-43729D01*
X40000Y-43499D02*
X39557Y-43269D01*
X19000Y-43499D02*
X19443Y-43729D01*
X19000Y-43499D02*
X19443Y-43269D01*
X44577Y-27328D02*
X44577Y-27042D01*
X44196Y-27014D01*
X44234Y-27042D01*
X44272Y-27099D01*
X44272Y-27242D01*
X44234Y-27299D01*
X44196Y-27328D01*
X44119Y-27357D01*
X43929Y-27357D01*
X43853Y-27328D01*
X43815Y-27299D01*
X43777Y-27242D01*
X43777Y-27099D01*
X43815Y-27042D01*
X43853Y-27014D01*
X44577Y-27557D02*
X44577Y-27928D01*
X44272Y-27728D01*
X44272Y-27814D01*
X44234Y-27871D01*
X44196Y-27899D01*
X44119Y-27928D01*
X43929Y-27928D01*
X43853Y-27899D01*
X43815Y-27871D01*
X43777Y-27814D01*
X43777Y-27642D01*
X43815Y-27585D01*
X43853Y-27557D01*
X43815Y-28214D02*
X43777Y-28214D01*
X43700Y-28185D01*
X43662Y-28157D01*
X44577Y-28414D02*
X44577Y-28785D01*
X44272Y-28585D01*
X44272Y-28671D01*
X44234Y-28728D01*
X44196Y-28757D01*
X44119Y-28785D01*
X43929Y-28785D01*
X43853Y-28757D01*
X43815Y-28728D01*
X43777Y-28671D01*
X43777Y-28500D01*
X43815Y-28442D01*
X43853Y-28414D01*
X44310Y-29300D02*
X43777Y-29300D01*
X44615Y-29157D02*
X44043Y-29014D01*
X44043Y-29385D01*
X44577Y-29728D02*
X44577Y-29785D01*
X44539Y-29842D01*
X44500Y-29871D01*
X44424Y-29900D01*
X44272Y-29928D01*
X44081Y-29928D01*
X43929Y-29900D01*
X43853Y-29871D01*
X43815Y-29842D01*
X43777Y-29785D01*
X43777Y-29728D01*
X43815Y-29671D01*
X43853Y-29642D01*
X43929Y-29614D01*
X44081Y-29585D01*
X44272Y-29585D01*
X44424Y-29614D01*
X44500Y-29642D01*
X44539Y-29671D01*
X44577Y-29728D01*
X43777Y-30642D02*
X44310Y-30642D01*
X44234Y-30642D02*
X44272Y-30671D01*
X44310Y-30728D01*
X44310Y-30814D01*
X44272Y-30871D01*
X44196Y-30900D01*
X43777Y-30900D01*
X44196Y-30900D02*
X44272Y-30928D01*
X44310Y-30985D01*
X44310Y-31071D01*
X44272Y-31128D01*
X44196Y-31157D01*
X43777Y-31157D01*
X43777Y-31442D02*
X44310Y-31442D01*
X44234Y-31442D02*
X44272Y-31471D01*
X44310Y-31528D01*
X44310Y-31614D01*
X44272Y-31671D01*
X44196Y-31700D01*
X43777Y-31700D01*
X44196Y-31700D02*
X44272Y-31728D01*
X44310Y-31785D01*
X44310Y-31871D01*
X44272Y-31928D01*
X44196Y-31957D01*
X43777Y-31957D01*
X43499Y-19000D02*
X43499Y-40000D01*
X40000Y-19000D02*
X44779Y-19000D01*
X40000Y-40000D02*
X44779Y-40000D01*
X43499Y-40000D02*
X43269Y-39557D01*
X43499Y-40000D02*
X43729Y-39557D01*
X43499Y-19000D02*
X43269Y-19443D01*
X43499Y-19000D02*
X43729Y-19443D01*
G54D13*
X28755Y-36475D02*
X28755Y-36150D01*
X29745Y-36475D02*
X29745Y-36150D01*
X28755Y-38850D02*
X28755Y-36475D01*
X29745Y-38850D02*
X29745Y-36475D01*
X20865Y-39480D02*
X20865Y-38850D01*
X20865Y-38850D02*
X28755Y-38850D01*
X29745Y-38850D02*
X37635Y-38850D01*
X37635Y-38850D02*
X37635Y-39480D01*
X37635Y-39480D02*
X20865Y-39480D01*
G54D14*
X20000Y-39000D03*
G54D15*
X29745Y-36150D03*
X28755Y-36150D03*
G54D16*
X34543Y-27641D03*
X35243Y-27641D03*
X34893Y-28441D03*
X28100Y-24850D03*
X28100Y-24150D03*
X28900Y-24500D03*
X23508Y-23706D03*
X23508Y-23006D03*
X24308Y-23356D03*
G54D17*
X25975Y-22549D03*
X26369Y-22549D03*
X26369Y-23179D03*
X26172Y-23179D03*
X25975Y-23179D03*
G54D18*
X28679Y-32325D03*
X29664Y-32325D03*
X29861Y-32325D03*
X29270Y-32325D03*
X29467Y-32325D03*
X29073Y-32325D03*
X28876Y-32325D03*
X28876Y-34215D03*
X29073Y-34215D03*
X29467Y-34215D03*
X29270Y-34215D03*
X29664Y-34215D03*
X29861Y-34215D03*
X28679Y-34215D03*
G54D19*
X30215Y-33270D03*
X30215Y-33467D03*
X30215Y-33861D03*
X30215Y-33664D03*
X30215Y-32876D03*
X30215Y-33073D03*
X30215Y-32679D03*
X28325Y-32679D03*
X28325Y-33073D03*
X28325Y-32876D03*
X28325Y-33664D03*
X28325Y-33861D03*
X28325Y-33467D03*
X28325Y-33270D03*
G54D20*
X29270Y-33270D03*
G54D21*
X31394Y-23262D03*
X31394Y-23754D03*
X31394Y-24738D03*
X31394Y-24246D03*
X30606Y-24246D03*
X30606Y-24738D03*
X30606Y-23754D03*
X30606Y-23262D03*
G54D22*
X25295Y-29133D03*
X25295Y-30629D03*
X24389Y-30629D03*
X24389Y-29133D03*
G54D23*
X21000Y-38000D03*
X38000Y-21000D03*
G54D24*
X39000Y-20000D03*
G54D25*
X36000Y-21000D03*
X35000Y-21000D03*
X34000Y-21000D03*
X33000Y-21000D03*
X32000Y-21000D03*
X31000Y-21000D03*
X30000Y-21000D03*
X29000Y-21000D03*
X28000Y-21000D03*
X27000Y-21000D03*
X26000Y-21000D03*
X25000Y-21000D03*
X24000Y-21000D03*
G54D26*
X23000Y-21000D03*
X23000Y-20000D03*
G54D25*
X24000Y-20000D03*
X25000Y-20000D03*
X26000Y-20000D03*
X27000Y-20000D03*
X28000Y-20000D03*
X29000Y-20000D03*
X30000Y-20000D03*
X31000Y-20000D03*
X32000Y-20000D03*
X33000Y-20000D03*
X34000Y-20000D03*
X35000Y-20000D03*
X36000Y-20000D03*
X21000Y-23000D03*
X21000Y-24000D03*
X21000Y-25000D03*
X21000Y-26000D03*
X21000Y-27000D03*
X21000Y-28000D03*
X21000Y-29000D03*
X21000Y-30000D03*
X21000Y-31000D03*
X21000Y-32000D03*
X21000Y-33000D03*
X21000Y-34000D03*
X21000Y-35000D03*
G54D26*
X21000Y-36000D03*
X20000Y-36000D03*
G54D25*
X20000Y-35000D03*
X20000Y-34000D03*
X20000Y-33000D03*
X20000Y-32000D03*
X20000Y-31000D03*
X20000Y-30000D03*
X20000Y-29000D03*
X20000Y-28000D03*
X20000Y-27000D03*
X20000Y-26000D03*
X20000Y-25000D03*
X20000Y-24000D03*
X20000Y-23000D03*
X38000Y-36000D03*
X38000Y-35000D03*
X38000Y-34000D03*
X38000Y-33000D03*
X38000Y-32000D03*
X38000Y-31000D03*
X38000Y-30000D03*
X38000Y-29000D03*
X38000Y-28000D03*
X38000Y-27000D03*
X38000Y-26000D03*
X38000Y-25000D03*
X38000Y-24000D03*
G54D26*
X38000Y-23000D03*
X39000Y-23000D03*
G54D25*
X39000Y-24000D03*
X39000Y-25000D03*
X39000Y-26000D03*
X39000Y-27000D03*
X39000Y-28000D03*
X39000Y-29000D03*
X39000Y-30000D03*
X39000Y-31000D03*
X39000Y-32000D03*
X39000Y-33000D03*
X39000Y-34000D03*
X39000Y-35000D03*
X39000Y-36000D03*
G54D27*
X34922Y-30513D03*
X34922Y-29763D03*
G54D28*
X28125Y-23000D03*
X28875Y-23000D03*
G54D27*
X23632Y-25474D03*
X23632Y-24724D03*
X22304Y-22991D03*
X22304Y-23741D03*
X33000Y-23625D03*
X33000Y-24375D03*
G54D28*
X30275Y-36100D03*
X31025Y-36100D03*
X28225Y-36100D03*
X27475Y-36100D03*
G54D27*
X31502Y-28306D03*
X31502Y-27556D03*
X32502Y-28306D03*
X32502Y-27556D03*
G54D28*
X24546Y-27578D03*
X25296Y-27578D03*
X25131Y-32027D03*
X24381Y-32027D03*
G54D27*
X35354Y-33721D03*
X35354Y-32971D03*
X33464Y-34626D03*
X33464Y-33876D03*
X24803Y-34233D03*
X24803Y-33483D03*
X36368Y-31347D03*
X36368Y-32097D03*
X36516Y-22066D03*
X36516Y-22816D03*
X35433Y-22066D03*
X35433Y-22816D03*
X34350Y-22066D03*
X34350Y-22816D03*
X36368Y-30227D03*
X36368Y-29477D03*
X36437Y-27656D03*
X36437Y-28406D03*
X36516Y-23641D03*
X36516Y-24391D03*
X35433Y-23641D03*
X35433Y-24391D03*
X34350Y-23641D03*
X34350Y-24391D03*
X22530Y-24724D03*
X22530Y-25474D03*
X33267Y-32067D03*
X33267Y-31317D03*
X28346Y-29115D03*
X28346Y-28365D03*
G54D29*
X30970Y-28640D03*
X31771Y-24737D03*
X31771Y-22033D03*
X21808Y-22990D03*
X22673Y-25869D03*
X22329Y-22070D03*
X27000Y-30306D03*
X29260Y-33270D03*
X26950Y-35000D03*
X33464Y-33481D03*
X35354Y-32067D03*
X35417Y-30217D03*
X31030Y-34780D03*
X27415Y-33009D03*
X27675Y-32149D03*
X28204Y-32007D03*
X28632Y-31747D03*
X28900Y-31375D03*
X29200Y-30575D03*
X23500Y-26800D03*
X28490Y-26640D03*
X28600Y-25500D03*
X32490Y-25610D03*
X32490Y-26550D03*
X33790Y-26640D03*
X33800Y-28830D03*
X35688Y-28847D03*
X29924Y-31907D03*
X26391Y-30045D03*
X29000Y-26622D03*
X30444Y-27395D03*
X30444Y-31907D03*
X31459Y-33221D03*
X25691Y-27135D03*
X31137Y-32285D03*
X30184Y-32285D03*
X26000Y-28365D03*
X39000Y-21260D03*
X32050Y-31750D03*
X34525Y-31775D03*
X34625Y-33950D03*
X36950Y-35825D03*
X34600Y-35825D03*
X32125Y-35825D03*
X26525Y-35850D03*
X24325Y-35825D03*
X22175Y-35825D03*
X27590Y-34920D03*
X27090Y-34520D03*
X22290Y-33320D03*
X22290Y-30120D03*
X22280Y-27160D03*
X32310Y-24560D03*
X30050Y-26070D03*
X29730Y-23400D03*
X24470Y-25860D03*
X25490Y-25820D03*
X27460Y-23700D03*
X27520Y-25780D03*
X34845Y-26008D03*
X34845Y-24786D03*
X21808Y-23740D03*
X37271Y-24390D03*
X21808Y-25604D03*
X37011Y-22065D03*
X36571Y-21670D03*
X36131Y-25456D03*
X33765Y-25456D03*
X33765Y-22065D03*
X28812Y-35270D03*
X30084Y-34532D03*
X26131Y-33270D03*
X27935Y-32403D03*
X32712Y-34272D03*
X30532Y-34136D03*
X25526Y-32027D03*
X25771Y-30629D03*
X25526Y-33938D03*
X26675Y-33575D03*
X26675Y-34650D03*
X24701Y-34649D03*
X23913Y-29133D03*
X21758Y-22330D03*
X37531Y-20584D03*
G54D30*
X20415Y-36000D02*
X20000Y-36000D01*
X20415Y-36000D02*
X20415Y-36000D01*
X21000Y-36000D02*
X20415Y-36000D01*
X21000Y-36000D02*
X21000Y-36000D01*
X31073Y-28306D02*
X31502Y-28306D01*
X30970Y-28410D02*
X31073Y-28306D01*
X30970Y-28640D02*
X30970Y-28410D01*
X31897Y-28306D02*
X31502Y-28306D01*
X31897Y-28306D02*
X31897Y-28306D01*
X32502Y-28306D02*
X31897Y-28306D01*
X32502Y-28306D02*
X32502Y-28306D01*
X31394Y-24737D02*
X31771Y-24737D01*
X30605Y-24737D02*
X30605Y-24737D01*
X31000Y-24737D02*
X30605Y-24737D01*
X31000Y-24737D02*
X31000Y-24737D01*
X31394Y-24737D02*
X31000Y-24737D01*
X31043Y-22033D02*
X31771Y-22033D01*
X30883Y-22193D02*
X31043Y-22033D01*
X30883Y-23262D02*
X30883Y-22193D01*
X30605Y-23262D02*
X30883Y-23262D01*
X22304Y-22695D02*
X23020Y-22695D01*
X22304Y-22990D02*
X22304Y-22695D01*
X28125Y-22960D02*
X28125Y-23000D01*
X25047Y-22695D02*
X23020Y-22695D01*
X25530Y-23179D02*
X25047Y-22695D01*
X25975Y-23179D02*
X25530Y-23179D01*
X36367Y-29181D02*
X36367Y-29477D01*
X32662Y-29181D02*
X36367Y-29181D01*
X32502Y-29021D02*
X32662Y-29181D01*
X32502Y-28306D02*
X32502Y-29021D01*
X22304Y-22990D02*
X21808Y-22990D01*
X25975Y-22960D02*
X28125Y-22960D01*
X25975Y-23179D02*
X25975Y-22960D01*
X28125Y-22559D02*
X28125Y-22960D01*
X28285Y-22399D02*
X28125Y-22559D01*
X30445Y-22399D02*
X28285Y-22399D01*
X30605Y-22559D02*
X30445Y-22399D01*
X30605Y-23262D02*
X30605Y-22559D01*
X21000Y-34000D02*
X20000Y-34000D01*
X25975Y-22800D02*
X25975Y-22549D01*
X26548Y-22800D02*
X25975Y-22800D01*
X26548Y-22230D02*
X26548Y-22800D01*
X26387Y-22070D02*
X26548Y-22230D01*
X22329Y-22070D02*
X26387Y-22070D01*
X23632Y-25869D02*
X23632Y-25474D01*
X22673Y-25869D02*
X23632Y-25869D01*
X22633Y-25474D02*
X22530Y-25474D01*
X22633Y-25829D02*
X22633Y-25474D01*
X22673Y-25869D02*
X22633Y-25829D01*
X21000Y-33000D02*
X20000Y-33000D01*
X21000Y-32000D02*
X20000Y-32000D01*
X21000Y-31000D02*
X20000Y-31000D01*
X21000Y-30000D02*
X20000Y-30000D01*
X39000Y-25000D02*
X38000Y-25000D01*
X39000Y-26000D02*
X38000Y-26000D01*
X29467Y-32007D02*
X29467Y-32325D01*
X29493Y-31981D02*
X29467Y-32007D01*
X29493Y-31324D02*
X29493Y-31981D01*
X29593Y-31224D02*
X29493Y-31324D01*
X29593Y-30466D02*
X29593Y-31224D01*
X29433Y-30306D02*
X29593Y-30466D01*
X27000Y-30306D02*
X29433Y-30306D01*
X26950Y-35025D02*
X27475Y-36100D01*
X29260Y-33270D02*
X29270Y-33270D01*
X26950Y-35000D02*
X26950Y-35025D01*
X33464Y-33481D02*
X33464Y-33876D01*
X31030Y-34780D02*
X31025Y-36100D01*
X35354Y-32067D02*
X35354Y-32970D01*
X33724Y-32067D02*
X33267Y-32067D01*
X33724Y-33221D02*
X33724Y-32067D01*
X33464Y-33481D02*
X33724Y-33221D01*
X25296Y-27622D02*
X25296Y-27578D01*
X25295Y-27622D02*
X25296Y-27622D01*
X25295Y-29133D02*
X25295Y-27622D01*
X35383Y-32097D02*
X36367Y-32097D01*
X35354Y-32067D02*
X35383Y-32097D01*
X34922Y-30217D02*
X34922Y-29762D01*
X35417Y-30217D02*
X34922Y-30217D01*
X24389Y-32027D02*
X24381Y-32027D01*
X35721Y-28440D02*
X34892Y-28440D01*
X35881Y-28280D02*
X35721Y-28440D01*
X35881Y-27816D02*
X35881Y-28280D01*
X36041Y-27655D02*
X35881Y-27816D01*
X36437Y-27655D02*
X36041Y-27655D01*
X24389Y-29889D02*
X24389Y-30629D01*
X24549Y-29728D02*
X24389Y-29889D01*
X25135Y-29728D02*
X24549Y-29728D01*
X25295Y-29568D02*
X25135Y-29728D01*
X25295Y-29133D02*
X25295Y-29568D01*
X35703Y-29931D02*
X35417Y-30217D01*
X36797Y-29931D02*
X35703Y-29931D01*
X36957Y-29771D02*
X36797Y-29931D01*
X36957Y-27655D02*
X36957Y-29771D01*
X36437Y-27655D02*
X36957Y-27655D01*
X24408Y-35010D02*
X26950Y-35000D01*
X24248Y-34849D02*
X24408Y-35010D01*
X24248Y-33643D02*
X24248Y-34849D01*
X24408Y-33483D02*
X24248Y-33643D01*
X24803Y-33483D02*
X24408Y-33483D01*
X24389Y-30629D02*
X24389Y-32027D01*
X24803Y-32027D02*
X24389Y-32027D01*
X24803Y-33483D02*
X24803Y-32027D01*
X27478Y-33072D02*
X28325Y-33072D01*
X27415Y-33009D02*
X27478Y-33072D01*
X27835Y-32875D02*
X28325Y-32875D01*
X27675Y-32715D02*
X27835Y-32875D01*
X27675Y-32149D02*
X27675Y-32715D01*
X28679Y-32007D02*
X28679Y-32325D01*
X28204Y-32007D02*
X28679Y-32007D01*
X28875Y-31887D02*
X28875Y-32325D01*
X28735Y-31747D02*
X28875Y-31887D01*
X28632Y-31747D02*
X28735Y-31747D01*
X28900Y-31375D02*
X29072Y-31650D01*
X29072Y-31650D02*
X29072Y-32325D01*
X29275Y-31450D02*
X29270Y-32325D01*
X29200Y-31300D02*
X29275Y-31450D01*
X29200Y-30575D02*
X29200Y-31300D01*
X35688Y-28847D02*
X33817Y-28847D01*
X28330Y-26800D02*
X23500Y-26800D01*
X28490Y-26640D02*
X28330Y-26800D01*
X32380Y-25500D02*
X28600Y-25500D01*
X32490Y-25610D02*
X32380Y-25500D01*
X33700Y-26550D02*
X32490Y-26550D01*
X33790Y-26640D02*
X33700Y-26550D01*
X33817Y-28847D02*
X33800Y-28830D01*
X29860Y-31970D02*
X29860Y-32325D01*
X29924Y-31907D02*
X29860Y-31970D01*
X36437Y-28847D02*
X36437Y-28405D01*
X35688Y-28847D02*
X36437Y-28847D01*
X29664Y-31653D02*
X29664Y-32325D01*
X29888Y-31428D02*
X29664Y-31653D01*
X29888Y-30206D02*
X29888Y-31428D01*
X29728Y-30045D02*
X29888Y-30206D01*
X26391Y-30045D02*
X29728Y-30045D01*
X34872Y-28011D02*
X35242Y-27640D01*
X31152Y-28011D02*
X34872Y-28011D01*
X30992Y-27851D02*
X31152Y-28011D01*
X30992Y-26782D02*
X30992Y-27851D01*
X30832Y-26622D02*
X30992Y-26782D01*
X29000Y-26622D02*
X30832Y-26622D01*
X30444Y-27395D02*
X30444Y-31907D01*
X31411Y-33270D02*
X30215Y-33270D01*
X31459Y-33221D02*
X31411Y-33270D01*
X30544Y-32679D02*
X30215Y-32679D01*
X30704Y-32518D02*
X30544Y-32679D01*
X30704Y-27135D02*
X30704Y-32518D01*
X25691Y-27135D02*
X30704Y-27135D01*
X30977Y-33072D02*
X30215Y-33072D01*
X31137Y-32912D02*
X30977Y-33072D01*
X31137Y-32285D02*
X31137Y-32912D01*
X30184Y-28525D02*
X30184Y-32285D01*
X30024Y-28365D02*
X30184Y-28525D01*
X28346Y-28365D02*
X30024Y-28365D01*
X28346Y-28365D02*
X26000Y-28365D01*
X21000Y-29000D02*
X20000Y-29000D01*
X39000Y-34000D02*
X38000Y-34000D01*
X39000Y-35000D02*
X38000Y-35000D01*
X34525Y-33850D02*
X34525Y-31775D01*
X34625Y-33950D02*
X34525Y-33850D01*
X21000Y-35000D02*
X21350Y-35000D01*
X32125Y-35825D02*
X34600Y-35825D01*
X24350Y-35850D02*
X26525Y-35850D01*
X24325Y-35825D02*
X24350Y-35850D01*
X21350Y-35000D02*
X22175Y-35825D01*
X21000Y-35000D02*
X20000Y-35000D01*
X27490Y-34920D02*
X27590Y-34920D01*
X27090Y-34520D02*
X27490Y-34920D01*
X22290Y-27170D02*
X22290Y-30120D01*
X22280Y-27160D02*
X22290Y-27170D01*
X33000Y-24375D02*
X32495Y-24375D01*
X32495Y-24375D02*
X32310Y-24560D01*
X30050Y-25848D02*
X30050Y-26070D01*
X28875Y-23000D02*
X29330Y-23000D01*
X29330Y-23000D02*
X29730Y-23400D01*
X24470Y-26168D02*
X24470Y-25860D01*
X25480Y-26168D02*
X25480Y-25830D01*
X25480Y-25830D02*
X25490Y-25820D01*
X27580Y-26168D02*
X27580Y-25840D01*
X27580Y-25840D02*
X27520Y-25780D01*
X32458Y-27556D02*
X32502Y-27556D01*
X32458Y-27556D02*
X32458Y-27556D01*
X32107Y-27556D02*
X32458Y-27556D01*
X32107Y-27556D02*
X31897Y-27556D01*
X34350Y-24390D02*
X34350Y-24786D01*
X31897Y-27556D02*
X31897Y-27556D01*
X31502Y-27556D02*
X31897Y-27556D01*
X31182Y-25848D02*
X31502Y-26168D01*
X28100Y-25848D02*
X30050Y-25848D01*
X30050Y-25848D02*
X31182Y-25848D01*
X31662Y-26008D02*
X34845Y-26008D01*
X31502Y-26168D02*
X31662Y-26008D01*
X22304Y-23740D02*
X21808Y-23740D01*
X34845Y-24786D02*
X34845Y-24786D01*
X34350Y-24786D02*
X34845Y-24786D01*
X33395Y-24375D02*
X33000Y-24375D01*
X33411Y-24390D02*
X33395Y-24375D01*
X34350Y-24390D02*
X33411Y-24390D01*
X36515Y-24390D02*
X37271Y-24390D01*
X35432Y-24786D02*
X35432Y-24390D01*
X28100Y-24850D02*
X28100Y-25848D01*
X22304Y-23705D02*
X23507Y-23705D01*
X22304Y-23740D02*
X22304Y-23705D01*
X34845Y-27338D02*
X34542Y-27640D01*
X34845Y-26008D02*
X34845Y-27338D01*
X22373Y-26168D02*
X21808Y-25604D01*
X27779Y-26168D02*
X27580Y-26168D01*
X27580Y-26168D02*
X25480Y-26168D01*
X25480Y-26168D02*
X24470Y-26168D01*
X24470Y-26168D02*
X22373Y-26168D01*
X28100Y-25848D02*
X27779Y-26168D01*
X28875Y-23480D02*
X28875Y-23000D01*
X27799Y-23480D02*
X28875Y-23480D01*
X27639Y-23640D02*
X27799Y-23480D01*
X27639Y-24389D02*
X27639Y-23640D01*
X28100Y-24850D02*
X27639Y-24389D01*
X31502Y-27556D02*
X31502Y-26168D01*
X34845Y-24786D02*
X35432Y-24786D01*
X36515Y-24786D02*
X35432Y-24786D01*
X36515Y-24390D02*
X36515Y-24786D01*
X39000Y-36000D02*
X38000Y-36000D01*
X39000Y-28000D02*
X38000Y-28000D01*
X39000Y-27000D02*
X38000Y-27000D01*
X21000Y-25000D02*
X20000Y-25000D01*
X21000Y-26000D02*
X20000Y-26000D01*
X38000Y-29000D02*
X39000Y-29000D01*
X37011Y-22065D02*
X36515Y-22065D01*
X38000Y-30000D02*
X39000Y-30000D01*
X35432Y-21670D02*
X35432Y-22065D01*
X36571Y-21670D02*
X35432Y-21670D01*
X38000Y-31000D02*
X39000Y-31000D01*
X36131Y-25456D02*
X33765Y-25456D01*
X33765Y-22065D02*
X34350Y-22065D01*
X28325Y-34073D02*
X28325Y-33860D01*
X28164Y-34233D02*
X28325Y-34073D01*
X30692Y-34532D02*
X30852Y-34372D01*
X30084Y-34532D02*
X30692Y-34532D01*
X26291Y-29115D02*
X28346Y-29115D01*
X26131Y-29275D02*
X26291Y-29115D01*
X26131Y-33270D02*
X26131Y-29275D01*
X26131Y-33270D02*
X28325Y-33270D01*
X28164Y-34233D02*
X24803Y-34233D01*
X30215Y-34110D02*
X30215Y-33860D01*
X30084Y-34241D02*
X30215Y-34110D01*
X30084Y-34532D02*
X30084Y-34241D01*
X28075Y-32679D02*
X28325Y-32679D01*
X27935Y-32539D02*
X28075Y-32679D01*
X27935Y-32403D02*
X27935Y-32539D01*
X29664Y-34532D02*
X29664Y-34215D01*
X30084Y-34532D02*
X29664Y-34532D01*
X28875Y-34532D02*
X28875Y-34215D01*
X32165Y-34372D02*
X30852Y-34372D01*
X32420Y-34626D02*
X32165Y-34372D01*
X33464Y-34626D02*
X32420Y-34626D01*
X35682Y-30512D02*
X34922Y-30512D01*
X35968Y-30227D02*
X35682Y-30512D01*
X36367Y-30227D02*
X35968Y-30227D01*
X30692Y-33467D02*
X30215Y-33467D01*
X30852Y-33627D02*
X30692Y-33467D01*
X30852Y-34372D02*
X30852Y-33627D01*
X35193Y-34626D02*
X33464Y-34626D01*
X35354Y-34466D02*
X35193Y-34626D01*
X35354Y-33720D02*
X35354Y-34466D01*
X36763Y-30227D02*
X36367Y-30227D01*
X36763Y-33560D02*
X36763Y-30227D01*
X36602Y-33720D02*
X36763Y-33560D01*
X35354Y-33720D02*
X36602Y-33720D01*
X28875Y-35207D02*
X28875Y-34532D01*
X28812Y-35270D02*
X28875Y-35207D01*
X28463Y-34532D02*
X28875Y-34532D01*
X28164Y-34233D02*
X28463Y-34532D01*
X30532Y-34136D02*
X30532Y-33664D01*
X30532Y-33664D02*
X30215Y-33664D01*
X32712Y-34272D02*
X32712Y-31477D01*
X32712Y-31477D02*
X32872Y-31317D01*
X32872Y-31317D02*
X33267Y-31317D01*
X30704Y-32875D02*
X30215Y-32875D01*
X30864Y-32715D02*
X30704Y-32875D01*
X30864Y-31075D02*
X30864Y-32715D01*
X31024Y-30915D02*
X30864Y-31075D01*
X36367Y-30915D02*
X31024Y-30915D01*
X36367Y-31347D02*
X36367Y-30915D01*
X35432Y-22815D02*
X35432Y-23640D01*
X36515Y-23640D02*
X36515Y-22815D01*
X25526Y-32027D02*
X25131Y-32027D01*
X25771Y-30629D02*
X25295Y-30629D01*
X27682Y-33664D02*
X28325Y-33664D01*
X27408Y-33938D02*
X27682Y-33664D01*
X25526Y-33938D02*
X27408Y-33938D01*
X34350Y-22815D02*
X34350Y-23640D01*
X26925Y-33475D02*
X28325Y-33467D01*
X26675Y-33575D02*
X26925Y-33475D01*
X26675Y-34650D02*
X24701Y-34649D01*
X24389Y-29133D02*
X23913Y-29133D01*
X24546Y-28432D02*
X24546Y-27578D01*
X24389Y-28589D02*
X24546Y-28432D01*
X24389Y-29133D02*
X24389Y-28589D01*
X22530Y-24724D02*
X22530Y-24724D01*
X22925Y-24724D02*
X22530Y-24724D01*
X22925Y-24724D02*
X22925Y-24724D01*
X23632Y-24724D02*
X22925Y-24724D01*
X26172Y-23397D02*
X26172Y-23179D01*
X26011Y-23557D02*
X26172Y-23397D01*
X25277Y-23557D02*
X26011Y-23557D01*
X25075Y-23355D02*
X25277Y-23557D01*
X24307Y-23355D02*
X25075Y-23355D01*
X24147Y-24724D02*
X23632Y-24724D01*
X24307Y-24563D02*
X24147Y-24724D01*
X24307Y-23355D02*
X24307Y-24563D01*
X30605Y-24500D02*
X30605Y-24245D01*
X28900Y-24500D02*
X30605Y-24500D01*
X29072Y-35832D02*
X29072Y-34215D01*
X28755Y-36150D02*
X29072Y-35832D01*
X28755Y-36100D02*
X28225Y-36100D01*
X28755Y-36150D02*
X28755Y-36100D01*
X30605Y-24027D02*
X30605Y-23754D01*
X33000Y-24027D02*
X30605Y-24027D01*
X33000Y-23625D02*
X33000Y-24027D01*
X29467Y-35872D02*
X29467Y-34215D01*
X29745Y-36150D02*
X29467Y-35872D01*
X29745Y-36100D02*
X30275Y-36100D01*
X29745Y-36150D02*
X29745Y-36100D01*
X21000Y-27000D02*
X20000Y-27000D01*
X26369Y-22330D02*
X26369Y-22549D01*
X21758Y-22330D02*
X26369Y-22330D01*
X38000Y-24000D02*
X39000Y-24000D01*
X33595Y-23262D02*
X31394Y-23262D01*
X33755Y-23422D02*
X33595Y-23262D01*
X33755Y-23839D02*
X33755Y-23422D01*
X33915Y-24000D02*
X33755Y-23839D01*
X38000Y-24000D02*
X33915Y-24000D01*
X39000Y-23000D02*
X39000Y-23000D01*
X38415Y-23000D02*
X39000Y-23000D01*
X38415Y-23000D02*
X38415Y-23000D01*
X38000Y-23000D02*
X38415Y-23000D01*
X31043Y-23754D02*
X31394Y-23754D01*
X31043Y-22680D02*
X31043Y-23754D01*
X31203Y-22520D02*
X31043Y-22680D01*
X37520Y-22520D02*
X31203Y-22520D01*
X38000Y-23000D02*
X37520Y-22520D01*
X38000Y-32000D02*
X39000Y-32000D01*
X23035Y-23005D02*
X23507Y-23005D01*
X22735Y-23306D02*
X23035Y-23005D01*
X21575Y-23306D02*
X22735Y-23306D01*
X21415Y-23145D02*
X21575Y-23306D01*
X21415Y-20744D02*
X21415Y-23145D01*
X21575Y-20584D02*
X21415Y-20744D01*
X37531Y-20584D02*
X21575Y-20584D01*
X38000Y-33000D02*
X39000Y-33000D01*
X28500Y-24550D02*
X28100Y-24150D01*
X28500Y-25036D02*
X28500Y-24550D01*
X28660Y-25196D02*
X28500Y-25036D01*
X37190Y-25196D02*
X28660Y-25196D01*
X37351Y-25356D02*
X37190Y-25196D01*
X37351Y-32351D02*
X37351Y-25356D01*
X38000Y-33000D02*
X37351Y-32351D01*
X21000Y-28000D02*
X20000Y-28000D01*
X21575Y-25178D02*
X26208Y-25178D01*
X21415Y-25339D02*
X21575Y-25178D01*
X21415Y-27584D02*
X21415Y-25339D01*
X21000Y-28000D02*
X21415Y-27584D01*
X26208Y-25178D02*
X26369Y-25018D01*
X26369Y-25018D02*
X26369Y-23179D01*
X21000Y-24000D02*
X20000Y-24000D01*
X21000Y-23000D02*
X20000Y-23000D01*
G54D10*
G36*
X24017Y-24324D02*
X23956Y-24299D01*
X23938Y-24299D01*
X23938Y-23935D01*
X23938Y-23818D01*
X23875Y-23756D01*
X23558Y-23756D01*
X23558Y-24073D01*
X23620Y-24136D01*
X23638Y-24136D01*
X23737Y-24136D01*
X23829Y-24097D01*
X23899Y-24027D01*
X23938Y-23935D01*
X23938Y-24299D01*
X23857Y-24299D01*
X23458Y-24299D01*
X23458Y-24073D01*
X23458Y-23756D01*
X23140Y-23756D01*
X23078Y-23818D01*
X23078Y-23935D01*
X23116Y-24027D01*
X23186Y-24097D01*
X23278Y-24136D01*
X23377Y-24136D01*
X23395Y-24136D01*
X23458Y-24073D01*
X23458Y-24299D01*
X23307Y-24299D01*
X23215Y-24337D01*
X23145Y-24407D01*
X23134Y-24434D01*
X23027Y-24434D01*
X23016Y-24407D01*
X22946Y-24337D01*
X22854Y-24299D01*
X22829Y-24299D01*
X22829Y-23965D01*
X22829Y-23853D01*
X22766Y-23791D01*
X22354Y-23791D01*
X22354Y-24103D01*
X22416Y-24166D01*
X22529Y-24166D01*
X22628Y-24166D01*
X22720Y-24127D01*
X22790Y-24057D01*
X22829Y-23965D01*
X22829Y-24299D01*
X22755Y-24299D01*
X22254Y-24299D01*
X22254Y-24103D01*
X22254Y-23791D01*
X21841Y-23791D01*
X21779Y-23853D01*
X21779Y-23965D01*
X21817Y-24057D01*
X21887Y-24127D01*
X21979Y-24166D01*
X22078Y-24166D01*
X22191Y-24166D01*
X22254Y-24103D01*
X22254Y-24299D01*
X22205Y-24299D01*
X22113Y-24337D01*
X22043Y-24407D01*
X22005Y-24499D01*
X22005Y-24598D01*
X22005Y-24888D01*
X21575Y-24888D01*
X21545Y-24894D01*
X21545Y-24891D01*
X21462Y-24691D01*
X21309Y-24537D01*
X21218Y-24500D01*
X21308Y-24462D01*
X21462Y-24309D01*
X21545Y-24108D01*
X21545Y-23891D01*
X21462Y-23691D01*
X21309Y-23537D01*
X21218Y-23500D01*
X21308Y-23462D01*
X21315Y-23455D01*
X21370Y-23511D01*
X21464Y-23573D01*
X21464Y-23573D01*
X21575Y-23596D01*
X21779Y-23596D01*
X21779Y-23628D01*
X21841Y-23691D01*
X22254Y-23691D01*
X22254Y-23683D01*
X22354Y-23683D01*
X22354Y-23691D01*
X22766Y-23691D01*
X22829Y-23628D01*
X22829Y-23577D01*
X22846Y-23573D01*
X22940Y-23511D01*
X23119Y-23331D01*
X23144Y-23356D01*
X23116Y-23384D01*
X23078Y-23476D01*
X23078Y-23593D01*
X23140Y-23656D01*
X23458Y-23656D01*
X23458Y-23648D01*
X23558Y-23648D01*
X23558Y-23656D01*
X23875Y-23656D01*
X23897Y-23633D01*
X23916Y-23677D01*
X23986Y-23747D01*
X24017Y-23761D01*
X24017Y-24324D01*
X24017Y-24324D01*
G37*
G54D31*
X24017Y-24324D02*
X23956Y-24299D01*
X23938Y-24299D01*
X23938Y-23935D01*
X23938Y-23818D01*
X23875Y-23756D01*
X23558Y-23756D01*
X23558Y-24073D01*
X23620Y-24136D01*
X23638Y-24136D01*
X23737Y-24136D01*
X23829Y-24097D01*
X23899Y-24027D01*
X23938Y-23935D01*
X23938Y-24299D01*
X23857Y-24299D01*
X23458Y-24299D01*
X23458Y-24073D01*
X23458Y-23756D01*
X23140Y-23756D01*
X23078Y-23818D01*
X23078Y-23935D01*
X23116Y-24027D01*
X23186Y-24097D01*
X23278Y-24136D01*
X23377Y-24136D01*
X23395Y-24136D01*
X23458Y-24073D01*
X23458Y-24299D01*
X23307Y-24299D01*
X23215Y-24337D01*
X23145Y-24407D01*
X23134Y-24434D01*
X23027Y-24434D01*
X23016Y-24407D01*
X22946Y-24337D01*
X22854Y-24299D01*
X22829Y-24299D01*
X22829Y-23965D01*
X22829Y-23853D01*
X22766Y-23791D01*
X22354Y-23791D01*
X22354Y-24103D01*
X22416Y-24166D01*
X22529Y-24166D01*
X22628Y-24166D01*
X22720Y-24127D01*
X22790Y-24057D01*
X22829Y-23965D01*
X22829Y-24299D01*
X22755Y-24299D01*
X22254Y-24299D01*
X22254Y-24103D01*
X22254Y-23791D01*
X21841Y-23791D01*
X21779Y-23853D01*
X21779Y-23965D01*
X21817Y-24057D01*
X21887Y-24127D01*
X21979Y-24166D01*
X22078Y-24166D01*
X22191Y-24166D01*
X22254Y-24103D01*
X22254Y-24299D01*
X22205Y-24299D01*
X22113Y-24337D01*
X22043Y-24407D01*
X22005Y-24499D01*
X22005Y-24598D01*
X22005Y-24888D01*
X21575Y-24888D01*
X21545Y-24894D01*
X21545Y-24891D01*
X21462Y-24691D01*
X21309Y-24537D01*
X21218Y-24500D01*
X21308Y-24462D01*
X21462Y-24309D01*
X21545Y-24108D01*
X21545Y-23891D01*
X21462Y-23691D01*
X21309Y-23537D01*
X21218Y-23500D01*
X21308Y-23462D01*
X21315Y-23455D01*
X21370Y-23511D01*
X21464Y-23573D01*
X21464Y-23573D01*
X21575Y-23596D01*
X21779Y-23596D01*
X21779Y-23628D01*
X21841Y-23691D01*
X22254Y-23691D01*
X22254Y-23683D01*
X22354Y-23683D01*
X22354Y-23691D01*
X22766Y-23691D01*
X22829Y-23628D01*
X22829Y-23577D01*
X22846Y-23573D01*
X22940Y-23511D01*
X23119Y-23331D01*
X23144Y-23356D01*
X23116Y-23384D01*
X23078Y-23476D01*
X23078Y-23593D01*
X23140Y-23656D01*
X23458Y-23656D01*
X23458Y-23648D01*
X23558Y-23648D01*
X23558Y-23656D01*
X23875Y-23656D01*
X23897Y-23633D01*
X23916Y-23677D01*
X23986Y-23747D01*
X24017Y-23761D01*
X24017Y-24324D01*
G54D10*
G36*
X28782Y-35711D02*
X28726Y-35768D01*
X28647Y-35768D01*
X28611Y-35683D01*
X28541Y-35613D01*
X28449Y-35575D01*
X28350Y-35575D01*
X28000Y-35575D01*
X27908Y-35613D01*
X27849Y-35671D01*
X27791Y-35613D01*
X27699Y-35575D01*
X27600Y-35575D01*
X27541Y-35575D01*
X27320Y-35123D01*
X27339Y-35077D01*
X27340Y-34922D01*
X27280Y-34779D01*
X27171Y-34669D01*
X27065Y-34625D01*
X27065Y-34572D01*
X27044Y-34523D01*
X28044Y-34523D01*
X28258Y-34737D01*
X28352Y-34799D01*
X28352Y-34799D01*
X28463Y-34822D01*
X28585Y-34822D01*
X28585Y-34945D01*
X28482Y-35048D01*
X28423Y-35192D01*
X28422Y-35347D01*
X28482Y-35490D01*
X28591Y-35600D01*
X28735Y-35659D01*
X28782Y-35660D01*
X28782Y-35711D01*
X28782Y-35711D01*
G37*
G54D31*
X28782Y-35711D02*
X28726Y-35768D01*
X28647Y-35768D01*
X28611Y-35683D01*
X28541Y-35613D01*
X28449Y-35575D01*
X28350Y-35575D01*
X28000Y-35575D01*
X27908Y-35613D01*
X27849Y-35671D01*
X27791Y-35613D01*
X27699Y-35575D01*
X27600Y-35575D01*
X27541Y-35575D01*
X27320Y-35123D01*
X27339Y-35077D01*
X27340Y-34922D01*
X27280Y-34779D01*
X27171Y-34669D01*
X27065Y-34625D01*
X27065Y-34572D01*
X27044Y-34523D01*
X28044Y-34523D01*
X28258Y-34737D01*
X28352Y-34799D01*
X28352Y-34799D01*
X28463Y-34822D01*
X28585Y-34822D01*
X28585Y-34945D01*
X28482Y-35048D01*
X28423Y-35192D01*
X28422Y-35347D01*
X28482Y-35490D01*
X28591Y-35600D01*
X28735Y-35659D01*
X28782Y-35660D01*
X28782Y-35711D01*
G54D10*
G36*
X32574Y-31205D02*
X32507Y-31272D01*
X32444Y-31366D01*
X32422Y-31477D01*
X32422Y-34010D01*
X32382Y-34050D01*
X32341Y-34148D01*
X32276Y-34104D01*
X32165Y-34082D01*
X31142Y-34082D01*
X31142Y-33627D01*
X31128Y-33560D01*
X31257Y-33560D01*
X31381Y-33611D01*
X31536Y-33611D01*
X31680Y-33552D01*
X31790Y-33443D01*
X31849Y-33299D01*
X31849Y-33144D01*
X31790Y-33001D01*
X31680Y-32891D01*
X31537Y-32831D01*
X31427Y-32831D01*
X31427Y-32547D01*
X31467Y-32507D01*
X31527Y-32363D01*
X31527Y-32208D01*
X31468Y-32065D01*
X31358Y-31955D01*
X31215Y-31896D01*
X31154Y-31895D01*
X31154Y-31205D01*
X32574Y-31205D01*
X32574Y-31205D01*
G37*
G54D31*
X32574Y-31205D02*
X32507Y-31272D01*
X32444Y-31366D01*
X32422Y-31477D01*
X32422Y-34010D01*
X32382Y-34050D01*
X32341Y-34148D01*
X32276Y-34104D01*
X32165Y-34082D01*
X31142Y-34082D01*
X31142Y-33627D01*
X31128Y-33560D01*
X31257Y-33560D01*
X31381Y-33611D01*
X31536Y-33611D01*
X31680Y-33552D01*
X31790Y-33443D01*
X31849Y-33299D01*
X31849Y-33144D01*
X31790Y-33001D01*
X31680Y-32891D01*
X31537Y-32831D01*
X31427Y-32831D01*
X31427Y-32547D01*
X31467Y-32507D01*
X31527Y-32363D01*
X31527Y-32208D01*
X31468Y-32065D01*
X31358Y-31955D01*
X31215Y-31896D01*
X31154Y-31895D01*
X31154Y-31205D01*
X32574Y-31205D01*
G54D10*
G36*
X35939Y-31722D02*
X35881Y-31780D01*
X35870Y-31807D01*
X35644Y-31807D01*
X35575Y-31737D01*
X35431Y-31677D01*
X35276Y-31677D01*
X35133Y-31737D01*
X35023Y-31846D01*
X34964Y-31989D01*
X34963Y-32145D01*
X35023Y-32288D01*
X35064Y-32329D01*
X35064Y-32546D01*
X35029Y-32546D01*
X34937Y-32584D01*
X34867Y-32654D01*
X34829Y-32746D01*
X34829Y-32845D01*
X34829Y-33195D01*
X34867Y-33287D01*
X34925Y-33346D01*
X34867Y-33404D01*
X34829Y-33496D01*
X34829Y-33595D01*
X34829Y-33945D01*
X34867Y-34037D01*
X34937Y-34107D01*
X35029Y-34146D01*
X35064Y-34146D01*
X35064Y-34336D01*
X33962Y-34336D01*
X33951Y-34310D01*
X33893Y-34251D01*
X33951Y-34193D01*
X33989Y-34101D01*
X33989Y-34002D01*
X33989Y-33652D01*
X33951Y-33560D01*
X33881Y-33490D01*
X33870Y-33485D01*
X33929Y-33426D01*
X33992Y-33332D01*
X34014Y-33221D01*
X34014Y-32067D01*
X33992Y-31956D01*
X33929Y-31862D01*
X33835Y-31799D01*
X33769Y-31786D01*
X33754Y-31751D01*
X33696Y-31692D01*
X33754Y-31634D01*
X33792Y-31542D01*
X33792Y-31443D01*
X33792Y-31205D01*
X35843Y-31205D01*
X35843Y-31221D01*
X35843Y-31571D01*
X35881Y-31663D01*
X35939Y-31722D01*
X35939Y-31722D01*
G37*
G54D31*
X35939Y-31722D02*
X35881Y-31780D01*
X35870Y-31807D01*
X35644Y-31807D01*
X35575Y-31737D01*
X35431Y-31677D01*
X35276Y-31677D01*
X35133Y-31737D01*
X35023Y-31846D01*
X34964Y-31989D01*
X34963Y-32145D01*
X35023Y-32288D01*
X35064Y-32329D01*
X35064Y-32546D01*
X35029Y-32546D01*
X34937Y-32584D01*
X34867Y-32654D01*
X34829Y-32746D01*
X34829Y-32845D01*
X34829Y-33195D01*
X34867Y-33287D01*
X34925Y-33346D01*
X34867Y-33404D01*
X34829Y-33496D01*
X34829Y-33595D01*
X34829Y-33945D01*
X34867Y-34037D01*
X34937Y-34107D01*
X35029Y-34146D01*
X35064Y-34146D01*
X35064Y-34336D01*
X33962Y-34336D01*
X33951Y-34310D01*
X33893Y-34251D01*
X33951Y-34193D01*
X33989Y-34101D01*
X33989Y-34002D01*
X33989Y-33652D01*
X33951Y-33560D01*
X33881Y-33490D01*
X33870Y-33485D01*
X33929Y-33426D01*
X33992Y-33332D01*
X34014Y-33221D01*
X34014Y-32067D01*
X33992Y-31956D01*
X33929Y-31862D01*
X33835Y-31799D01*
X33769Y-31786D01*
X33754Y-31751D01*
X33696Y-31692D01*
X33754Y-31634D01*
X33792Y-31542D01*
X33792Y-31443D01*
X33792Y-31205D01*
X35843Y-31205D01*
X35843Y-31221D01*
X35843Y-31571D01*
X35881Y-31663D01*
X35939Y-31722D01*
G54D10*
G36*
X37781Y-24499D02*
X37691Y-24537D01*
X37537Y-24690D01*
X37454Y-24891D01*
X37454Y-25049D01*
X37396Y-24991D01*
X37301Y-24928D01*
X37190Y-24906D01*
X37041Y-24906D01*
X37041Y-24615D01*
X37041Y-24503D01*
X36978Y-24441D01*
X36566Y-24441D01*
X36566Y-24753D01*
X36628Y-24816D01*
X36741Y-24816D01*
X36840Y-24816D01*
X36932Y-24777D01*
X37002Y-24707D01*
X37041Y-24615D01*
X37041Y-24906D01*
X36466Y-24906D01*
X36466Y-24753D01*
X36466Y-24441D01*
X36053Y-24441D01*
X35991Y-24503D01*
X35991Y-24615D01*
X36029Y-24707D01*
X36099Y-24777D01*
X36191Y-24816D01*
X36290Y-24816D01*
X36403Y-24816D01*
X36466Y-24753D01*
X36466Y-24906D01*
X35958Y-24906D01*
X35958Y-24615D01*
X35958Y-24503D01*
X35895Y-24441D01*
X35483Y-24441D01*
X35483Y-24753D01*
X35545Y-24816D01*
X35658Y-24816D01*
X35757Y-24816D01*
X35849Y-24777D01*
X35919Y-24707D01*
X35958Y-24615D01*
X35958Y-24906D01*
X35383Y-24906D01*
X35383Y-24753D01*
X35383Y-24441D01*
X34970Y-24441D01*
X34908Y-24503D01*
X34908Y-24615D01*
X34946Y-24707D01*
X35016Y-24777D01*
X35108Y-24816D01*
X35207Y-24816D01*
X35320Y-24816D01*
X35383Y-24753D01*
X35383Y-24906D01*
X34875Y-24906D01*
X34875Y-24615D01*
X34875Y-24503D01*
X34812Y-24441D01*
X34400Y-24441D01*
X34400Y-24753D01*
X34462Y-24816D01*
X34575Y-24816D01*
X34674Y-24816D01*
X34766Y-24777D01*
X34836Y-24707D01*
X34875Y-24615D01*
X34875Y-24906D01*
X34300Y-24906D01*
X34300Y-24753D01*
X34300Y-24441D01*
X33887Y-24441D01*
X33825Y-24503D01*
X33825Y-24615D01*
X33863Y-24707D01*
X33933Y-24777D01*
X34025Y-24816D01*
X34124Y-24816D01*
X34237Y-24816D01*
X34300Y-24753D01*
X34300Y-24906D01*
X33525Y-24906D01*
X33525Y-24599D01*
X33525Y-24487D01*
X33462Y-24425D01*
X33050Y-24425D01*
X33050Y-24737D01*
X33112Y-24800D01*
X33225Y-24800D01*
X33324Y-24800D01*
X33416Y-24761D01*
X33486Y-24691D01*
X33525Y-24599D01*
X33525Y-24906D01*
X32950Y-24906D01*
X32950Y-24737D01*
X32950Y-24425D01*
X32537Y-24425D01*
X32475Y-24487D01*
X32475Y-24599D01*
X32513Y-24691D01*
X32583Y-24761D01*
X32675Y-24800D01*
X32774Y-24800D01*
X32887Y-24800D01*
X32950Y-24737D01*
X32950Y-24906D01*
X32123Y-24906D01*
X32161Y-24815D01*
X32161Y-24660D01*
X32102Y-24517D01*
X31992Y-24407D01*
X31849Y-24348D01*
X31801Y-24348D01*
X31801Y-24317D01*
X32529Y-24317D01*
X32537Y-24325D01*
X32950Y-24325D01*
X32950Y-24317D01*
X33000Y-24317D01*
X33001Y-24317D01*
X33050Y-24317D01*
X33050Y-24325D01*
X33462Y-24325D01*
X33525Y-24262D01*
X33525Y-24150D01*
X33486Y-24058D01*
X33428Y-23999D01*
X33485Y-23943D01*
X33487Y-23950D01*
X33549Y-24045D01*
X33710Y-24205D01*
X33804Y-24267D01*
X33804Y-24267D01*
X33825Y-24272D01*
X33825Y-24278D01*
X33887Y-24341D01*
X34300Y-24341D01*
X34300Y-24333D01*
X34400Y-24333D01*
X34400Y-24341D01*
X34812Y-24341D01*
X34863Y-24290D01*
X34919Y-24290D01*
X34970Y-24341D01*
X35383Y-24341D01*
X35383Y-24333D01*
X35483Y-24333D01*
X35483Y-24341D01*
X35895Y-24341D01*
X35946Y-24290D01*
X36002Y-24290D01*
X36053Y-24341D01*
X36466Y-24341D01*
X36466Y-24333D01*
X36566Y-24333D01*
X36566Y-24341D01*
X36978Y-24341D01*
X37029Y-24290D01*
X37529Y-24290D01*
X37537Y-24308D01*
X37690Y-24462D01*
X37781Y-24499D01*
X37781Y-24499D01*
G37*
G54D31*
X37781Y-24499D02*
X37691Y-24537D01*
X37537Y-24690D01*
X37454Y-24891D01*
X37454Y-25049D01*
X37396Y-24991D01*
X37301Y-24928D01*
X37190Y-24906D01*
X37041Y-24906D01*
X37041Y-24615D01*
X37041Y-24503D01*
X36978Y-24441D01*
X36566Y-24441D01*
X36566Y-24753D01*
X36628Y-24816D01*
X36741Y-24816D01*
X36840Y-24816D01*
X36932Y-24777D01*
X37002Y-24707D01*
X37041Y-24615D01*
X37041Y-24906D01*
X36466Y-24906D01*
X36466Y-24753D01*
X36466Y-24441D01*
X36053Y-24441D01*
X35991Y-24503D01*
X35991Y-24615D01*
X36029Y-24707D01*
X36099Y-24777D01*
X36191Y-24816D01*
X36290Y-24816D01*
X36403Y-24816D01*
X36466Y-24753D01*
X36466Y-24906D01*
X35958Y-24906D01*
X35958Y-24615D01*
X35958Y-24503D01*
X35895Y-24441D01*
X35483Y-24441D01*
X35483Y-24753D01*
X35545Y-24816D01*
X35658Y-24816D01*
X35757Y-24816D01*
X35849Y-24777D01*
X35919Y-24707D01*
X35958Y-24615D01*
X35958Y-24906D01*
X35383Y-24906D01*
X35383Y-24753D01*
X35383Y-24441D01*
X34970Y-24441D01*
X34908Y-24503D01*
X34908Y-24615D01*
X34946Y-24707D01*
X35016Y-24777D01*
X35108Y-24816D01*
X35207Y-24816D01*
X35320Y-24816D01*
X35383Y-24753D01*
X35383Y-24906D01*
X34875Y-24906D01*
X34875Y-24615D01*
X34875Y-24503D01*
X34812Y-24441D01*
X34400Y-24441D01*
X34400Y-24753D01*
X34462Y-24816D01*
X34575Y-24816D01*
X34674Y-24816D01*
X34766Y-24777D01*
X34836Y-24707D01*
X34875Y-24615D01*
X34875Y-24906D01*
X34300Y-24906D01*
X34300Y-24753D01*
X34300Y-24441D01*
X33887Y-24441D01*
X33825Y-24503D01*
X33825Y-24615D01*
X33863Y-24707D01*
X33933Y-24777D01*
X34025Y-24816D01*
X34124Y-24816D01*
X34237Y-24816D01*
X34300Y-24753D01*
X34300Y-24906D01*
X33525Y-24906D01*
X33525Y-24599D01*
X33525Y-24487D01*
X33462Y-24425D01*
X33050Y-24425D01*
X33050Y-24737D01*
X33112Y-24800D01*
X33225Y-24800D01*
X33324Y-24800D01*
X33416Y-24761D01*
X33486Y-24691D01*
X33525Y-24599D01*
X33525Y-24906D01*
X32950Y-24906D01*
X32950Y-24737D01*
X32950Y-24425D01*
X32537Y-24425D01*
X32475Y-24487D01*
X32475Y-24599D01*
X32513Y-24691D01*
X32583Y-24761D01*
X32675Y-24800D01*
X32774Y-24800D01*
X32887Y-24800D01*
X32950Y-24737D01*
X32950Y-24906D01*
X32123Y-24906D01*
X32161Y-24815D01*
X32161Y-24660D01*
X32102Y-24517D01*
X31992Y-24407D01*
X31849Y-24348D01*
X31801Y-24348D01*
X31801Y-24317D01*
X32529Y-24317D01*
X32537Y-24325D01*
X32950Y-24325D01*
X32950Y-24317D01*
X33000Y-24317D01*
X33001Y-24317D01*
X33050Y-24317D01*
X33050Y-24325D01*
X33462Y-24325D01*
X33525Y-24262D01*
X33525Y-24150D01*
X33486Y-24058D01*
X33428Y-23999D01*
X33485Y-23943D01*
X33487Y-23950D01*
X33549Y-24045D01*
X33710Y-24205D01*
X33804Y-24267D01*
X33804Y-24267D01*
X33825Y-24272D01*
X33825Y-24278D01*
X33887Y-24341D01*
X34300Y-24341D01*
X34300Y-24333D01*
X34400Y-24333D01*
X34400Y-24341D01*
X34812Y-24341D01*
X34863Y-24290D01*
X34919Y-24290D01*
X34970Y-24341D01*
X35383Y-24341D01*
X35383Y-24333D01*
X35483Y-24333D01*
X35483Y-24341D01*
X35895Y-24341D01*
X35946Y-24290D01*
X36002Y-24290D01*
X36053Y-24341D01*
X36466Y-24341D01*
X36466Y-24333D01*
X36566Y-24333D01*
X36566Y-24341D01*
X36978Y-24341D01*
X37029Y-24290D01*
X37529Y-24290D01*
X37537Y-24308D01*
X37690Y-24462D01*
X37781Y-24499D01*
G54D10*
G36*
X37781Y-35499D02*
X37691Y-35537D01*
X37537Y-35690D01*
X37454Y-35891D01*
X37454Y-36108D01*
X37537Y-36308D01*
X37578Y-36350D01*
X31450Y-36350D01*
X31450Y-36325D01*
X31450Y-35775D01*
X31411Y-35683D01*
X31341Y-35613D01*
X31316Y-35602D01*
X31319Y-35042D01*
X31360Y-35001D01*
X31419Y-34857D01*
X31420Y-34702D01*
X31403Y-34662D01*
X32044Y-34662D01*
X32214Y-34832D01*
X32309Y-34894D01*
X32309Y-34894D01*
X32420Y-34916D01*
X32966Y-34916D01*
X32977Y-34943D01*
X33047Y-35013D01*
X33139Y-35051D01*
X33239Y-35051D01*
X33789Y-35051D01*
X33881Y-35013D01*
X33951Y-34943D01*
X33962Y-34916D01*
X35193Y-34916D01*
X35304Y-34894D01*
X35399Y-34832D01*
X35559Y-34671D01*
X35621Y-34577D01*
X35621Y-34577D01*
X35644Y-34466D01*
X35644Y-34146D01*
X35678Y-34146D01*
X35770Y-34107D01*
X35840Y-34037D01*
X35851Y-34010D01*
X36602Y-34010D01*
X36713Y-33988D01*
X36808Y-33926D01*
X36968Y-33766D01*
X37030Y-33671D01*
X37030Y-33671D01*
X37053Y-33560D01*
X37053Y-30227D01*
X37030Y-30116D01*
X37028Y-30111D01*
X37061Y-30078D01*
X37061Y-32351D01*
X37083Y-32462D01*
X37145Y-32556D01*
X37462Y-32872D01*
X37454Y-32891D01*
X37454Y-33108D01*
X37537Y-33308D01*
X37690Y-33462D01*
X37781Y-33499D01*
X37691Y-33537D01*
X37537Y-33690D01*
X37454Y-33891D01*
X37454Y-34108D01*
X37537Y-34308D01*
X37690Y-34462D01*
X37781Y-34499D01*
X37691Y-34537D01*
X37537Y-34690D01*
X37454Y-34891D01*
X37454Y-35108D01*
X37537Y-35308D01*
X37690Y-35462D01*
X37781Y-35499D01*
X37781Y-35499D01*
G37*
G54D31*
X37781Y-35499D02*
X37691Y-35537D01*
X37537Y-35690D01*
X37454Y-35891D01*
X37454Y-36108D01*
X37537Y-36308D01*
X37578Y-36350D01*
X31450Y-36350D01*
X31450Y-36325D01*
X31450Y-35775D01*
X31411Y-35683D01*
X31341Y-35613D01*
X31316Y-35602D01*
X31319Y-35042D01*
X31360Y-35001D01*
X31419Y-34857D01*
X31420Y-34702D01*
X31403Y-34662D01*
X32044Y-34662D01*
X32214Y-34832D01*
X32309Y-34894D01*
X32309Y-34894D01*
X32420Y-34916D01*
X32966Y-34916D01*
X32977Y-34943D01*
X33047Y-35013D01*
X33139Y-35051D01*
X33239Y-35051D01*
X33789Y-35051D01*
X33881Y-35013D01*
X33951Y-34943D01*
X33962Y-34916D01*
X35193Y-34916D01*
X35304Y-34894D01*
X35399Y-34832D01*
X35559Y-34671D01*
X35621Y-34577D01*
X35621Y-34577D01*
X35644Y-34466D01*
X35644Y-34146D01*
X35678Y-34146D01*
X35770Y-34107D01*
X35840Y-34037D01*
X35851Y-34010D01*
X36602Y-34010D01*
X36713Y-33988D01*
X36808Y-33926D01*
X36968Y-33766D01*
X37030Y-33671D01*
X37030Y-33671D01*
X37053Y-33560D01*
X37053Y-30227D01*
X37030Y-30116D01*
X37028Y-30111D01*
X37061Y-30078D01*
X37061Y-32351D01*
X37083Y-32462D01*
X37145Y-32556D01*
X37462Y-32872D01*
X37454Y-32891D01*
X37454Y-33108D01*
X37537Y-33308D01*
X37690Y-33462D01*
X37781Y-33499D01*
X37691Y-33537D01*
X37537Y-33690D01*
X37454Y-33891D01*
X37454Y-34108D01*
X37537Y-34308D01*
X37690Y-34462D01*
X37781Y-34499D01*
X37691Y-34537D01*
X37537Y-34690D01*
X37454Y-34891D01*
X37454Y-35108D01*
X37537Y-35308D01*
X37690Y-35462D01*
X37781Y-35499D01*
G54D10*
G36*
X38324Y-20604D02*
X38280Y-20648D01*
X38253Y-20621D01*
X38089Y-20553D01*
X37921Y-20553D01*
X37921Y-20507D01*
X37861Y-20363D01*
X37752Y-20254D01*
X37609Y-20194D01*
X37453Y-20194D01*
X37310Y-20253D01*
X37269Y-20294D01*
X36468Y-20294D01*
X36545Y-20108D01*
X36545Y-19891D01*
X36462Y-19691D01*
X36309Y-19537D01*
X36108Y-19454D01*
X35891Y-19454D01*
X35691Y-19537D01*
X35537Y-19690D01*
X35500Y-19781D01*
X35462Y-19691D01*
X35309Y-19537D01*
X35108Y-19454D01*
X34891Y-19454D01*
X34691Y-19537D01*
X34537Y-19690D01*
X34500Y-19781D01*
X34462Y-19691D01*
X34309Y-19537D01*
X34108Y-19454D01*
X33891Y-19454D01*
X33691Y-19537D01*
X33537Y-19690D01*
X33500Y-19781D01*
X33462Y-19691D01*
X33309Y-19537D01*
X33108Y-19454D01*
X32891Y-19454D01*
X32691Y-19537D01*
X32537Y-19690D01*
X32500Y-19781D01*
X32462Y-19691D01*
X32309Y-19537D01*
X32108Y-19454D01*
X31891Y-19454D01*
X31691Y-19537D01*
X31537Y-19690D01*
X31500Y-19781D01*
X31462Y-19691D01*
X31309Y-19537D01*
X31108Y-19454D01*
X30891Y-19454D01*
X30691Y-19537D01*
X30537Y-19690D01*
X30500Y-19781D01*
X30462Y-19691D01*
X30309Y-19537D01*
X30108Y-19454D01*
X29891Y-19454D01*
X29691Y-19537D01*
X29537Y-19690D01*
X29500Y-19781D01*
X29462Y-19691D01*
X29309Y-19537D01*
X29108Y-19454D01*
X28891Y-19454D01*
X28691Y-19537D01*
X28537Y-19690D01*
X28500Y-19781D01*
X28462Y-19691D01*
X28309Y-19537D01*
X28108Y-19454D01*
X27891Y-19454D01*
X27691Y-19537D01*
X27537Y-19690D01*
X27500Y-19781D01*
X27462Y-19691D01*
X27309Y-19537D01*
X27108Y-19454D01*
X26891Y-19454D01*
X26691Y-19537D01*
X26537Y-19690D01*
X26500Y-19781D01*
X26462Y-19691D01*
X26309Y-19537D01*
X26108Y-19454D01*
X25891Y-19454D01*
X25691Y-19537D01*
X25537Y-19690D01*
X25500Y-19781D01*
X25462Y-19691D01*
X25309Y-19537D01*
X25108Y-19454D01*
X24891Y-19454D01*
X24691Y-19537D01*
X24537Y-19690D01*
X24500Y-19781D01*
X24462Y-19691D01*
X24309Y-19537D01*
X24108Y-19454D01*
X23891Y-19454D01*
X23691Y-19537D01*
X23545Y-19682D01*
X23545Y-19654D01*
X23507Y-19562D01*
X23437Y-19492D01*
X23345Y-19454D01*
X23245Y-19454D01*
X22654Y-19454D01*
X22562Y-19492D01*
X22492Y-19562D01*
X22454Y-19654D01*
X22454Y-19754D01*
X22454Y-20294D01*
X21575Y-20294D01*
X21464Y-20316D01*
X21370Y-20379D01*
X21210Y-20539D01*
X21147Y-20633D01*
X21125Y-20744D01*
X21125Y-22461D01*
X21108Y-22454D01*
X20891Y-22454D01*
X20691Y-22537D01*
X20537Y-22690D01*
X20529Y-22710D01*
X20470Y-22710D01*
X20462Y-22691D01*
X20309Y-22537D01*
X20108Y-22454D01*
X19891Y-22454D01*
X19691Y-22537D01*
X19537Y-22690D01*
X19454Y-22891D01*
X19454Y-23108D01*
X19537Y-23308D01*
X19690Y-23462D01*
X19781Y-23499D01*
X19691Y-23537D01*
X19537Y-23690D01*
X19454Y-23891D01*
X19454Y-24108D01*
X19537Y-24308D01*
X19690Y-24462D01*
X19781Y-24499D01*
X19691Y-24537D01*
X19537Y-24690D01*
X19454Y-24891D01*
X19454Y-25108D01*
X19537Y-25308D01*
X19690Y-25462D01*
X19781Y-25499D01*
X19691Y-25537D01*
X19537Y-25690D01*
X19454Y-25891D01*
X19454Y-26108D01*
X19537Y-26308D01*
X19690Y-26462D01*
X19781Y-26499D01*
X19691Y-26537D01*
X19537Y-26690D01*
X19454Y-26891D01*
X19454Y-27108D01*
X19537Y-27308D01*
X19690Y-27462D01*
X19781Y-27499D01*
X19691Y-27537D01*
X19537Y-27690D01*
X19454Y-27891D01*
X19454Y-28108D01*
X19537Y-28308D01*
X19690Y-28462D01*
X19781Y-28499D01*
X19691Y-28537D01*
X19537Y-28690D01*
X19454Y-28891D01*
X19454Y-29108D01*
X19537Y-29308D01*
X19690Y-29462D01*
X19781Y-29499D01*
X19691Y-29537D01*
X19537Y-29690D01*
X19454Y-29891D01*
X19454Y-30108D01*
X19537Y-30308D01*
X19690Y-30462D01*
X19781Y-30499D01*
X19691Y-30537D01*
X19537Y-30690D01*
X19454Y-30891D01*
X19454Y-31108D01*
X19537Y-31308D01*
X19690Y-31462D01*
X19781Y-31499D01*
X19691Y-31537D01*
X19537Y-31690D01*
X19454Y-31891D01*
X19454Y-32108D01*
X19537Y-32308D01*
X19690Y-32462D01*
X19781Y-32499D01*
X19691Y-32537D01*
X19537Y-32690D01*
X19454Y-32891D01*
X19454Y-33108D01*
X19537Y-33308D01*
X19690Y-33462D01*
X19781Y-33499D01*
X19691Y-33537D01*
X19537Y-33690D01*
X19454Y-33891D01*
X19454Y-34108D01*
X19537Y-34308D01*
X19690Y-34462D01*
X19775Y-34497D01*
X19714Y-34522D01*
X19688Y-34617D01*
X20000Y-34929D01*
X20311Y-34617D01*
X20285Y-34522D01*
X20220Y-34499D01*
X20308Y-34462D01*
X20462Y-34309D01*
X20470Y-34290D01*
X20529Y-34290D01*
X20537Y-34308D01*
X20690Y-34462D01*
X20775Y-34497D01*
X20714Y-34522D01*
X20688Y-34617D01*
X21000Y-34929D01*
X21311Y-34617D01*
X21285Y-34522D01*
X21220Y-34499D01*
X21308Y-34462D01*
X21462Y-34309D01*
X21545Y-34108D01*
X21545Y-33891D01*
X21462Y-33691D01*
X21309Y-33537D01*
X21218Y-33500D01*
X21308Y-33462D01*
X21462Y-33309D01*
X21545Y-33108D01*
X21545Y-32891D01*
X21462Y-32691D01*
X21309Y-32537D01*
X21218Y-32500D01*
X21308Y-32462D01*
X21462Y-32309D01*
X21545Y-32108D01*
X21545Y-31891D01*
X21462Y-31691D01*
X21309Y-31537D01*
X21218Y-31500D01*
X21308Y-31462D01*
X21462Y-31309D01*
X21545Y-31108D01*
X21545Y-30891D01*
X21462Y-30691D01*
X21309Y-30537D01*
X21218Y-30500D01*
X21308Y-30462D01*
X21462Y-30309D01*
X21545Y-30108D01*
X21545Y-29891D01*
X21462Y-29691D01*
X21309Y-29537D01*
X21218Y-29500D01*
X21308Y-29462D01*
X21462Y-29309D01*
X21545Y-29108D01*
X21545Y-28891D01*
X21462Y-28691D01*
X21309Y-28537D01*
X21218Y-28500D01*
X21308Y-28462D01*
X21462Y-28309D01*
X21545Y-28108D01*
X21545Y-27891D01*
X21537Y-27872D01*
X21620Y-27789D01*
X21683Y-27695D01*
X21705Y-27584D01*
X21705Y-25468D01*
X22005Y-25468D01*
X22005Y-25698D01*
X22043Y-25790D01*
X22113Y-25860D01*
X22205Y-25899D01*
X22283Y-25899D01*
X22283Y-25946D01*
X22342Y-26089D01*
X22452Y-26199D01*
X22595Y-26258D01*
X22750Y-26259D01*
X22893Y-26199D01*
X22934Y-26159D01*
X23632Y-26159D01*
X23742Y-26136D01*
X23837Y-26074D01*
X23899Y-25980D01*
X23916Y-25899D01*
X23956Y-25899D01*
X24048Y-25860D01*
X24118Y-25790D01*
X24157Y-25698D01*
X24157Y-25599D01*
X24157Y-25468D01*
X26208Y-25468D01*
X26319Y-25446D01*
X26414Y-25384D01*
X26574Y-25223D01*
X26636Y-25129D01*
X26636Y-25129D01*
X26659Y-25018D01*
X26659Y-23373D01*
X26678Y-23327D01*
X26678Y-23250D01*
X27700Y-23250D01*
X27700Y-23324D01*
X27738Y-23416D01*
X27808Y-23486D01*
X27900Y-23525D01*
X27999Y-23525D01*
X28349Y-23525D01*
X28441Y-23486D01*
X28500Y-23428D01*
X28558Y-23486D01*
X28650Y-23525D01*
X28762Y-23525D01*
X28825Y-23462D01*
X28825Y-23050D01*
X28817Y-23050D01*
X28817Y-22950D01*
X28825Y-22950D01*
X28825Y-22942D01*
X28925Y-22942D01*
X28925Y-22950D01*
X29237Y-22950D01*
X29300Y-22887D01*
X29300Y-22774D01*
X29300Y-22689D01*
X30315Y-22689D01*
X30315Y-22947D01*
X30306Y-22951D01*
X30236Y-23021D01*
X30198Y-23113D01*
X30198Y-23213D01*
X30198Y-23410D01*
X30236Y-23502D01*
X30242Y-23507D01*
X30236Y-23513D01*
X30198Y-23605D01*
X30198Y-23705D01*
X30198Y-23902D01*
X30236Y-23994D01*
X30242Y-23999D01*
X30236Y-24005D01*
X30198Y-24097D01*
X30198Y-24197D01*
X30198Y-24210D01*
X29305Y-24210D01*
X29300Y-24197D01*
X29300Y-23324D01*
X29300Y-23225D01*
X29300Y-23112D01*
X29237Y-23050D01*
X28925Y-23050D01*
X28925Y-23462D01*
X28987Y-23525D01*
X29099Y-23525D01*
X29191Y-23486D01*
X29261Y-23416D01*
X29300Y-23324D01*
X29300Y-24197D01*
X29291Y-24178D01*
X29221Y-24108D01*
X29129Y-24070D01*
X29030Y-24070D01*
X28670Y-24070D01*
X28578Y-24108D01*
X28530Y-24156D01*
X28530Y-23920D01*
X28491Y-23828D01*
X28421Y-23758D01*
X28329Y-23720D01*
X28230Y-23720D01*
X27870Y-23720D01*
X27778Y-23758D01*
X27708Y-23828D01*
X27670Y-23920D01*
X27670Y-24019D01*
X27670Y-24379D01*
X27708Y-24471D01*
X27736Y-24500D01*
X27708Y-24528D01*
X27670Y-24620D01*
X27670Y-24737D01*
X27732Y-24800D01*
X28050Y-24800D01*
X28050Y-24792D01*
X28150Y-24792D01*
X28150Y-24800D01*
X28157Y-24800D01*
X28157Y-24900D01*
X28150Y-24900D01*
X28150Y-25217D01*
X28212Y-25280D01*
X28230Y-25280D01*
X28269Y-25280D01*
X28210Y-25422D01*
X28209Y-25577D01*
X28269Y-25720D01*
X28378Y-25830D01*
X28522Y-25889D01*
X28677Y-25890D01*
X28820Y-25830D01*
X28861Y-25790D01*
X32142Y-25790D01*
X32159Y-25830D01*
X32268Y-25940D01*
X32412Y-25999D01*
X32567Y-26000D01*
X32710Y-25940D01*
X32820Y-25831D01*
X32879Y-25687D01*
X32880Y-25532D01*
X32860Y-25486D01*
X33375Y-25486D01*
X33375Y-25533D01*
X33434Y-25677D01*
X33544Y-25786D01*
X33687Y-25846D01*
X33842Y-25846D01*
X33985Y-25787D01*
X34026Y-25746D01*
X35869Y-25746D01*
X35909Y-25786D01*
X36053Y-25846D01*
X36208Y-25846D01*
X36351Y-25787D01*
X36461Y-25677D01*
X36520Y-25534D01*
X36521Y-25486D01*
X37061Y-25486D01*
X37061Y-27386D01*
X36957Y-27365D01*
X36934Y-27365D01*
X36923Y-27339D01*
X36853Y-27269D01*
X36761Y-27231D01*
X36662Y-27231D01*
X36112Y-27231D01*
X36020Y-27269D01*
X35950Y-27339D01*
X35929Y-27389D01*
X35929Y-27389D01*
X35836Y-27450D01*
X35676Y-27610D01*
X35673Y-27616D01*
X35673Y-27411D01*
X35634Y-27319D01*
X35564Y-27249D01*
X35472Y-27211D01*
X35373Y-27211D01*
X35013Y-27211D01*
X34921Y-27249D01*
X34893Y-27277D01*
X34864Y-27249D01*
X34772Y-27211D01*
X34655Y-27211D01*
X34593Y-27273D01*
X34593Y-27591D01*
X34600Y-27591D01*
X34600Y-27691D01*
X34593Y-27691D01*
X34593Y-27698D01*
X34493Y-27698D01*
X34493Y-27691D01*
X34493Y-27591D01*
X34493Y-27273D01*
X34430Y-27211D01*
X34313Y-27211D01*
X34221Y-27249D01*
X34180Y-27290D01*
X34180Y-26562D01*
X34120Y-26419D01*
X34011Y-26309D01*
X33867Y-26250D01*
X33712Y-26249D01*
X33688Y-26260D01*
X32751Y-26260D01*
X32711Y-26219D01*
X32567Y-26160D01*
X32412Y-26159D01*
X32269Y-26219D01*
X32159Y-26328D01*
X32100Y-26472D01*
X32099Y-26627D01*
X32159Y-26770D01*
X32268Y-26880D01*
X32412Y-26939D01*
X32567Y-26940D01*
X32710Y-26880D01*
X32751Y-26840D01*
X33450Y-26840D01*
X33459Y-26860D01*
X33568Y-26970D01*
X33712Y-27029D01*
X33867Y-27030D01*
X34010Y-26970D01*
X34120Y-26861D01*
X34179Y-26717D01*
X34180Y-26562D01*
X34180Y-27290D01*
X34151Y-27319D01*
X34113Y-27411D01*
X34113Y-27510D01*
X34113Y-27528D01*
X34175Y-27591D01*
X34493Y-27591D01*
X34493Y-27691D01*
X34175Y-27691D01*
X34145Y-27721D01*
X33027Y-27721D01*
X33027Y-27668D01*
X33027Y-27443D01*
X33027Y-27331D01*
X32989Y-27239D01*
X32918Y-27169D01*
X32827Y-27131D01*
X32727Y-27131D01*
X32614Y-27131D01*
X32552Y-27193D01*
X32552Y-27506D01*
X32964Y-27506D01*
X33027Y-27443D01*
X33027Y-27668D01*
X32964Y-27606D01*
X32552Y-27606D01*
X32552Y-27613D01*
X32452Y-27613D01*
X32452Y-27606D01*
X32452Y-27506D01*
X32452Y-27193D01*
X32389Y-27131D01*
X32277Y-27131D01*
X32177Y-27131D01*
X32085Y-27169D01*
X32015Y-27239D01*
X32002Y-27271D01*
X31989Y-27239D01*
X31918Y-27169D01*
X31827Y-27131D01*
X31727Y-27131D01*
X31614Y-27131D01*
X31552Y-27193D01*
X31552Y-27506D01*
X31964Y-27506D01*
X32002Y-27468D01*
X32039Y-27506D01*
X32452Y-27506D01*
X32452Y-27606D01*
X32039Y-27606D01*
X32002Y-27643D01*
X31964Y-27606D01*
X31552Y-27606D01*
X31552Y-27613D01*
X31452Y-27613D01*
X31452Y-27606D01*
X31444Y-27606D01*
X31444Y-27506D01*
X31452Y-27506D01*
X31452Y-27193D01*
X31389Y-27131D01*
X31282Y-27131D01*
X31282Y-26782D01*
X31260Y-26671D01*
X31260Y-26671D01*
X31197Y-26577D01*
X31037Y-26417D01*
X30943Y-26354D01*
X30832Y-26332D01*
X29261Y-26332D01*
X29221Y-26292D01*
X29077Y-26232D01*
X28922Y-26232D01*
X28779Y-26292D01*
X28736Y-26334D01*
X28711Y-26309D01*
X28567Y-26250D01*
X28412Y-26249D01*
X28269Y-26309D01*
X28159Y-26418D01*
X28121Y-26510D01*
X28050Y-26510D01*
X28050Y-25217D01*
X28050Y-24900D01*
X27732Y-24900D01*
X27670Y-24962D01*
X27670Y-25079D01*
X27708Y-25171D01*
X27778Y-25241D01*
X27870Y-25280D01*
X27969Y-25280D01*
X27987Y-25280D01*
X28050Y-25217D01*
X28050Y-26510D01*
X23761Y-26510D01*
X23721Y-26469D01*
X23577Y-26410D01*
X23422Y-26409D01*
X23279Y-26469D01*
X23169Y-26578D01*
X23110Y-26722D01*
X23109Y-26877D01*
X23169Y-27020D01*
X23278Y-27130D01*
X23422Y-27189D01*
X23577Y-27190D01*
X23720Y-27130D01*
X23761Y-27090D01*
X24233Y-27090D01*
X24229Y-27091D01*
X24159Y-27162D01*
X24121Y-27254D01*
X24121Y-27353D01*
X24121Y-27903D01*
X24159Y-27995D01*
X24229Y-28065D01*
X24256Y-28076D01*
X24256Y-28312D01*
X24184Y-28384D01*
X24121Y-28478D01*
X24103Y-28568D01*
X24083Y-28568D01*
X23991Y-28606D01*
X23921Y-28677D01*
X23893Y-28743D01*
X23836Y-28743D01*
X23692Y-28803D01*
X23583Y-28912D01*
X23523Y-29055D01*
X23523Y-29211D01*
X23582Y-29354D01*
X23692Y-29464D01*
X23835Y-29523D01*
X23893Y-29523D01*
X23921Y-29590D01*
X23991Y-29660D01*
X24083Y-29698D01*
X24174Y-29698D01*
X24121Y-29778D01*
X24099Y-29889D01*
X24099Y-30064D01*
X24083Y-30064D01*
X23991Y-30102D01*
X23921Y-30173D01*
X23883Y-30265D01*
X23883Y-30364D01*
X23883Y-30994D01*
X23921Y-31086D01*
X23991Y-31156D01*
X24083Y-31194D01*
X24099Y-31194D01*
X24099Y-31526D01*
X24064Y-31541D01*
X23994Y-31611D01*
X23956Y-31703D01*
X23956Y-31802D01*
X23956Y-32352D01*
X23994Y-32444D01*
X24064Y-32514D01*
X24156Y-32552D01*
X24256Y-32552D01*
X24513Y-32552D01*
X24513Y-33058D01*
X24478Y-33058D01*
X24386Y-33096D01*
X24316Y-33166D01*
X24295Y-33216D01*
X24295Y-33216D01*
X24203Y-33278D01*
X24043Y-33438D01*
X23980Y-33532D01*
X23958Y-33643D01*
X23958Y-34849D01*
X23980Y-34960D01*
X24043Y-35055D01*
X24203Y-35215D01*
X24203Y-35215D01*
X24203Y-35215D01*
X24250Y-35246D01*
X24297Y-35277D01*
X24297Y-35278D01*
X24298Y-35278D01*
X24353Y-35289D01*
X24408Y-35300D01*
X24408Y-35299D01*
X24409Y-35299D01*
X26689Y-35291D01*
X26728Y-35330D01*
X26788Y-35355D01*
X27050Y-35890D01*
X27050Y-36350D01*
X21550Y-36350D01*
X21550Y-35080D01*
X21539Y-34863D01*
X21477Y-34714D01*
X21382Y-34688D01*
X21070Y-35000D01*
X21382Y-35311D01*
X21477Y-35285D01*
X21550Y-35080D01*
X21550Y-36350D01*
X21543Y-36350D01*
X21545Y-36345D01*
X21545Y-36245D01*
X21545Y-35654D01*
X21507Y-35562D01*
X21437Y-35492D01*
X21345Y-35454D01*
X21291Y-35454D01*
X21311Y-35382D01*
X21000Y-35070D01*
X20929Y-35141D01*
X20929Y-35000D01*
X20617Y-34688D01*
X20522Y-34714D01*
X20501Y-34773D01*
X20477Y-34714D01*
X20382Y-34688D01*
X20070Y-35000D01*
X20382Y-35311D01*
X20477Y-35285D01*
X20498Y-35226D01*
X20522Y-35285D01*
X20617Y-35311D01*
X20929Y-35000D01*
X20929Y-35141D01*
X20688Y-35382D01*
X20708Y-35454D01*
X20654Y-35454D01*
X20562Y-35492D01*
X20499Y-35555D01*
X20437Y-35492D01*
X20345Y-35454D01*
X20291Y-35454D01*
X20311Y-35382D01*
X20000Y-35070D01*
X19929Y-35141D01*
X19929Y-35000D01*
X19617Y-34688D01*
X19522Y-34714D01*
X19449Y-34919D01*
X19460Y-35136D01*
X19522Y-35285D01*
X19617Y-35311D01*
X19929Y-35000D01*
X19929Y-35141D01*
X19688Y-35382D01*
X19708Y-35454D01*
X19654Y-35454D01*
X19562Y-35492D01*
X19492Y-35562D01*
X19454Y-35654D01*
X19454Y-35754D01*
X19454Y-36345D01*
X19456Y-36350D01*
X19325Y-36350D01*
X19325Y-21325D01*
X19500Y-21325D01*
X20000Y-21325D01*
X20031Y-21318D01*
X20063Y-21318D01*
X20446Y-21242D01*
X20446Y-21242D01*
X20446Y-21242D01*
X20480Y-21228D01*
X20563Y-21194D01*
X20563Y-21194D01*
X20563Y-21194D01*
X20887Y-20977D01*
X20887Y-20977D01*
X20977Y-20887D01*
X20977Y-20887D01*
X20977Y-20887D01*
X21194Y-20563D01*
X21194Y-20563D01*
X21194Y-20563D01*
X21218Y-20504D01*
X21242Y-20446D01*
X21242Y-20446D01*
X21242Y-20446D01*
X21318Y-20063D01*
X21318Y-20031D01*
X21325Y-20000D01*
X21325Y-19500D01*
X21325Y-19325D01*
X38306Y-19325D01*
X38280Y-19351D01*
X38324Y-19395D01*
X38188Y-19471D01*
X38047Y-19822D01*
X38052Y-20200D01*
X38188Y-20528D01*
X38324Y-20604D01*
X38324Y-20604D01*
G37*
G54D31*
X38324Y-20604D02*
X38280Y-20648D01*
X38253Y-20621D01*
X38089Y-20553D01*
X37921Y-20553D01*
X37921Y-20507D01*
X37861Y-20363D01*
X37752Y-20254D01*
X37609Y-20194D01*
X37453Y-20194D01*
X37310Y-20253D01*
X37269Y-20294D01*
X36468Y-20294D01*
X36545Y-20108D01*
X36545Y-19891D01*
X36462Y-19691D01*
X36309Y-19537D01*
X36108Y-19454D01*
X35891Y-19454D01*
X35691Y-19537D01*
X35537Y-19690D01*
X35500Y-19781D01*
X35462Y-19691D01*
X35309Y-19537D01*
X35108Y-19454D01*
X34891Y-19454D01*
X34691Y-19537D01*
X34537Y-19690D01*
X34500Y-19781D01*
X34462Y-19691D01*
X34309Y-19537D01*
X34108Y-19454D01*
X33891Y-19454D01*
X33691Y-19537D01*
X33537Y-19690D01*
X33500Y-19781D01*
X33462Y-19691D01*
X33309Y-19537D01*
X33108Y-19454D01*
X32891Y-19454D01*
X32691Y-19537D01*
X32537Y-19690D01*
X32500Y-19781D01*
X32462Y-19691D01*
X32309Y-19537D01*
X32108Y-19454D01*
X31891Y-19454D01*
X31691Y-19537D01*
X31537Y-19690D01*
X31500Y-19781D01*
X31462Y-19691D01*
X31309Y-19537D01*
X31108Y-19454D01*
X30891Y-19454D01*
X30691Y-19537D01*
X30537Y-19690D01*
X30500Y-19781D01*
X30462Y-19691D01*
X30309Y-19537D01*
X30108Y-19454D01*
X29891Y-19454D01*
X29691Y-19537D01*
X29537Y-19690D01*
X29500Y-19781D01*
X29462Y-19691D01*
X29309Y-19537D01*
X29108Y-19454D01*
X28891Y-19454D01*
X28691Y-19537D01*
X28537Y-19690D01*
X28500Y-19781D01*
X28462Y-19691D01*
X28309Y-19537D01*
X28108Y-19454D01*
X27891Y-19454D01*
X27691Y-19537D01*
X27537Y-19690D01*
X27500Y-19781D01*
X27462Y-19691D01*
X27309Y-19537D01*
X27108Y-19454D01*
X26891Y-19454D01*
X26691Y-19537D01*
X26537Y-19690D01*
X26500Y-19781D01*
X26462Y-19691D01*
X26309Y-19537D01*
X26108Y-19454D01*
X25891Y-19454D01*
X25691Y-19537D01*
X25537Y-19690D01*
X25500Y-19781D01*
X25462Y-19691D01*
X25309Y-19537D01*
X25108Y-19454D01*
X24891Y-19454D01*
X24691Y-19537D01*
X24537Y-19690D01*
X24500Y-19781D01*
X24462Y-19691D01*
X24309Y-19537D01*
X24108Y-19454D01*
X23891Y-19454D01*
X23691Y-19537D01*
X23545Y-19682D01*
X23545Y-19654D01*
X23507Y-19562D01*
X23437Y-19492D01*
X23345Y-19454D01*
X23245Y-19454D01*
X22654Y-19454D01*
X22562Y-19492D01*
X22492Y-19562D01*
X22454Y-19654D01*
X22454Y-19754D01*
X22454Y-20294D01*
X21575Y-20294D01*
X21464Y-20316D01*
X21370Y-20379D01*
X21210Y-20539D01*
X21147Y-20633D01*
X21125Y-20744D01*
X21125Y-22461D01*
X21108Y-22454D01*
X20891Y-22454D01*
X20691Y-22537D01*
X20537Y-22690D01*
X20529Y-22710D01*
X20470Y-22710D01*
X20462Y-22691D01*
X20309Y-22537D01*
X20108Y-22454D01*
X19891Y-22454D01*
X19691Y-22537D01*
X19537Y-22690D01*
X19454Y-22891D01*
X19454Y-23108D01*
X19537Y-23308D01*
X19690Y-23462D01*
X19781Y-23499D01*
X19691Y-23537D01*
X19537Y-23690D01*
X19454Y-23891D01*
X19454Y-24108D01*
X19537Y-24308D01*
X19690Y-24462D01*
X19781Y-24499D01*
X19691Y-24537D01*
X19537Y-24690D01*
X19454Y-24891D01*
X19454Y-25108D01*
X19537Y-25308D01*
X19690Y-25462D01*
X19781Y-25499D01*
X19691Y-25537D01*
X19537Y-25690D01*
X19454Y-25891D01*
X19454Y-26108D01*
X19537Y-26308D01*
X19690Y-26462D01*
X19781Y-26499D01*
X19691Y-26537D01*
X19537Y-26690D01*
X19454Y-26891D01*
X19454Y-27108D01*
X19537Y-27308D01*
X19690Y-27462D01*
X19781Y-27499D01*
X19691Y-27537D01*
X19537Y-27690D01*
X19454Y-27891D01*
X19454Y-28108D01*
X19537Y-28308D01*
X19690Y-28462D01*
X19781Y-28499D01*
X19691Y-28537D01*
X19537Y-28690D01*
X19454Y-28891D01*
X19454Y-29108D01*
X19537Y-29308D01*
X19690Y-29462D01*
X19781Y-29499D01*
X19691Y-29537D01*
X19537Y-29690D01*
X19454Y-29891D01*
X19454Y-30108D01*
X19537Y-30308D01*
X19690Y-30462D01*
X19781Y-30499D01*
X19691Y-30537D01*
X19537Y-30690D01*
X19454Y-30891D01*
X19454Y-31108D01*
X19537Y-31308D01*
X19690Y-31462D01*
X19781Y-31499D01*
X19691Y-31537D01*
X19537Y-31690D01*
X19454Y-31891D01*
X19454Y-32108D01*
X19537Y-32308D01*
X19690Y-32462D01*
X19781Y-32499D01*
X19691Y-32537D01*
X19537Y-32690D01*
X19454Y-32891D01*
X19454Y-33108D01*
X19537Y-33308D01*
X19690Y-33462D01*
X19781Y-33499D01*
X19691Y-33537D01*
X19537Y-33690D01*
X19454Y-33891D01*
X19454Y-34108D01*
X19537Y-34308D01*
X19690Y-34462D01*
X19775Y-34497D01*
X19714Y-34522D01*
X19688Y-34617D01*
X20000Y-34929D01*
X20311Y-34617D01*
X20285Y-34522D01*
X20220Y-34499D01*
X20308Y-34462D01*
X20462Y-34309D01*
X20470Y-34290D01*
X20529Y-34290D01*
X20537Y-34308D01*
X20690Y-34462D01*
X20775Y-34497D01*
X20714Y-34522D01*
X20688Y-34617D01*
X21000Y-34929D01*
X21311Y-34617D01*
X21285Y-34522D01*
X21220Y-34499D01*
X21308Y-34462D01*
X21462Y-34309D01*
X21545Y-34108D01*
X21545Y-33891D01*
X21462Y-33691D01*
X21309Y-33537D01*
X21218Y-33500D01*
X21308Y-33462D01*
X21462Y-33309D01*
X21545Y-33108D01*
X21545Y-32891D01*
X21462Y-32691D01*
X21309Y-32537D01*
X21218Y-32500D01*
X21308Y-32462D01*
X21462Y-32309D01*
X21545Y-32108D01*
X21545Y-31891D01*
X21462Y-31691D01*
X21309Y-31537D01*
X21218Y-31500D01*
X21308Y-31462D01*
X21462Y-31309D01*
X21545Y-31108D01*
X21545Y-30891D01*
X21462Y-30691D01*
X21309Y-30537D01*
X21218Y-30500D01*
X21308Y-30462D01*
X21462Y-30309D01*
X21545Y-30108D01*
X21545Y-29891D01*
X21462Y-29691D01*
X21309Y-29537D01*
X21218Y-29500D01*
X21308Y-29462D01*
X21462Y-29309D01*
X21545Y-29108D01*
X21545Y-28891D01*
X21462Y-28691D01*
X21309Y-28537D01*
X21218Y-28500D01*
X21308Y-28462D01*
X21462Y-28309D01*
X21545Y-28108D01*
X21545Y-27891D01*
X21537Y-27872D01*
X21620Y-27789D01*
X21683Y-27695D01*
X21705Y-27584D01*
X21705Y-25468D01*
X22005Y-25468D01*
X22005Y-25698D01*
X22043Y-25790D01*
X22113Y-25860D01*
X22205Y-25899D01*
X22283Y-25899D01*
X22283Y-25946D01*
X22342Y-26089D01*
X22452Y-26199D01*
X22595Y-26258D01*
X22750Y-26259D01*
X22893Y-26199D01*
X22934Y-26159D01*
X23632Y-26159D01*
X23742Y-26136D01*
X23837Y-26074D01*
X23899Y-25980D01*
X23916Y-25899D01*
X23956Y-25899D01*
X24048Y-25860D01*
X24118Y-25790D01*
X24157Y-25698D01*
X24157Y-25599D01*
X24157Y-25468D01*
X26208Y-25468D01*
X26319Y-25446D01*
X26414Y-25384D01*
X26574Y-25223D01*
X26636Y-25129D01*
X26636Y-25129D01*
X26659Y-25018D01*
X26659Y-23373D01*
X26678Y-23327D01*
X26678Y-23250D01*
X27700Y-23250D01*
X27700Y-23324D01*
X27738Y-23416D01*
X27808Y-23486D01*
X27900Y-23525D01*
X27999Y-23525D01*
X28349Y-23525D01*
X28441Y-23486D01*
X28500Y-23428D01*
X28558Y-23486D01*
X28650Y-23525D01*
X28762Y-23525D01*
X28825Y-23462D01*
X28825Y-23050D01*
X28817Y-23050D01*
X28817Y-22950D01*
X28825Y-22950D01*
X28825Y-22942D01*
X28925Y-22942D01*
X28925Y-22950D01*
X29237Y-22950D01*
X29300Y-22887D01*
X29300Y-22774D01*
X29300Y-22689D01*
X30315Y-22689D01*
X30315Y-22947D01*
X30306Y-22951D01*
X30236Y-23021D01*
X30198Y-23113D01*
X30198Y-23213D01*
X30198Y-23410D01*
X30236Y-23502D01*
X30242Y-23507D01*
X30236Y-23513D01*
X30198Y-23605D01*
X30198Y-23705D01*
X30198Y-23902D01*
X30236Y-23994D01*
X30242Y-23999D01*
X30236Y-24005D01*
X30198Y-24097D01*
X30198Y-24197D01*
X30198Y-24210D01*
X29305Y-24210D01*
X29300Y-24197D01*
X29300Y-23324D01*
X29300Y-23225D01*
X29300Y-23112D01*
X29237Y-23050D01*
X28925Y-23050D01*
X28925Y-23462D01*
X28987Y-23525D01*
X29099Y-23525D01*
X29191Y-23486D01*
X29261Y-23416D01*
X29300Y-23324D01*
X29300Y-24197D01*
X29291Y-24178D01*
X29221Y-24108D01*
X29129Y-24070D01*
X29030Y-24070D01*
X28670Y-24070D01*
X28578Y-24108D01*
X28530Y-24156D01*
X28530Y-23920D01*
X28491Y-23828D01*
X28421Y-23758D01*
X28329Y-23720D01*
X28230Y-23720D01*
X27870Y-23720D01*
X27778Y-23758D01*
X27708Y-23828D01*
X27670Y-23920D01*
X27670Y-24019D01*
X27670Y-24379D01*
X27708Y-24471D01*
X27736Y-24500D01*
X27708Y-24528D01*
X27670Y-24620D01*
X27670Y-24737D01*
X27732Y-24800D01*
X28050Y-24800D01*
X28050Y-24792D01*
X28150Y-24792D01*
X28150Y-24800D01*
X28157Y-24800D01*
X28157Y-24900D01*
X28150Y-24900D01*
X28150Y-25217D01*
X28212Y-25280D01*
X28230Y-25280D01*
X28269Y-25280D01*
X28210Y-25422D01*
X28209Y-25577D01*
X28269Y-25720D01*
X28378Y-25830D01*
X28522Y-25889D01*
X28677Y-25890D01*
X28820Y-25830D01*
X28861Y-25790D01*
X32142Y-25790D01*
X32159Y-25830D01*
X32268Y-25940D01*
X32412Y-25999D01*
X32567Y-26000D01*
X32710Y-25940D01*
X32820Y-25831D01*
X32879Y-25687D01*
X32880Y-25532D01*
X32860Y-25486D01*
X33375Y-25486D01*
X33375Y-25533D01*
X33434Y-25677D01*
X33544Y-25786D01*
X33687Y-25846D01*
X33842Y-25846D01*
X33985Y-25787D01*
X34026Y-25746D01*
X35869Y-25746D01*
X35909Y-25786D01*
X36053Y-25846D01*
X36208Y-25846D01*
X36351Y-25787D01*
X36461Y-25677D01*
X36520Y-25534D01*
X36521Y-25486D01*
X37061Y-25486D01*
X37061Y-27386D01*
X36957Y-27365D01*
X36934Y-27365D01*
X36923Y-27339D01*
X36853Y-27269D01*
X36761Y-27231D01*
X36662Y-27231D01*
X36112Y-27231D01*
X36020Y-27269D01*
X35950Y-27339D01*
X35929Y-27389D01*
X35929Y-27389D01*
X35836Y-27450D01*
X35676Y-27610D01*
X35673Y-27616D01*
X35673Y-27411D01*
X35634Y-27319D01*
X35564Y-27249D01*
X35472Y-27211D01*
X35373Y-27211D01*
X35013Y-27211D01*
X34921Y-27249D01*
X34893Y-27277D01*
X34864Y-27249D01*
X34772Y-27211D01*
X34655Y-27211D01*
X34593Y-27273D01*
X34593Y-27591D01*
X34600Y-27591D01*
X34600Y-27691D01*
X34593Y-27691D01*
X34593Y-27698D01*
X34493Y-27698D01*
X34493Y-27691D01*
X34493Y-27591D01*
X34493Y-27273D01*
X34430Y-27211D01*
X34313Y-27211D01*
X34221Y-27249D01*
X34180Y-27290D01*
X34180Y-26562D01*
X34120Y-26419D01*
X34011Y-26309D01*
X33867Y-26250D01*
X33712Y-26249D01*
X33688Y-26260D01*
X32751Y-26260D01*
X32711Y-26219D01*
X32567Y-26160D01*
X32412Y-26159D01*
X32269Y-26219D01*
X32159Y-26328D01*
X32100Y-26472D01*
X32099Y-26627D01*
X32159Y-26770D01*
X32268Y-26880D01*
X32412Y-26939D01*
X32567Y-26940D01*
X32710Y-26880D01*
X32751Y-26840D01*
X33450Y-26840D01*
X33459Y-26860D01*
X33568Y-26970D01*
X33712Y-27029D01*
X33867Y-27030D01*
X34010Y-26970D01*
X34120Y-26861D01*
X34179Y-26717D01*
X34180Y-26562D01*
X34180Y-27290D01*
X34151Y-27319D01*
X34113Y-27411D01*
X34113Y-27510D01*
X34113Y-27528D01*
X34175Y-27591D01*
X34493Y-27591D01*
X34493Y-27691D01*
X34175Y-27691D01*
X34145Y-27721D01*
X33027Y-27721D01*
X33027Y-27668D01*
X33027Y-27443D01*
X33027Y-27331D01*
X32989Y-27239D01*
X32918Y-27169D01*
X32827Y-27131D01*
X32727Y-27131D01*
X32614Y-27131D01*
X32552Y-27193D01*
X32552Y-27506D01*
X32964Y-27506D01*
X33027Y-27443D01*
X33027Y-27668D01*
X32964Y-27606D01*
X32552Y-27606D01*
X32552Y-27613D01*
X32452Y-27613D01*
X32452Y-27606D01*
X32452Y-27506D01*
X32452Y-27193D01*
X32389Y-27131D01*
X32277Y-27131D01*
X32177Y-27131D01*
X32085Y-27169D01*
X32015Y-27239D01*
X32002Y-27271D01*
X31989Y-27239D01*
X31918Y-27169D01*
X31827Y-27131D01*
X31727Y-27131D01*
X31614Y-27131D01*
X31552Y-27193D01*
X31552Y-27506D01*
X31964Y-27506D01*
X32002Y-27468D01*
X32039Y-27506D01*
X32452Y-27506D01*
X32452Y-27606D01*
X32039Y-27606D01*
X32002Y-27643D01*
X31964Y-27606D01*
X31552Y-27606D01*
X31552Y-27613D01*
X31452Y-27613D01*
X31452Y-27606D01*
X31444Y-27606D01*
X31444Y-27506D01*
X31452Y-27506D01*
X31452Y-27193D01*
X31389Y-27131D01*
X31282Y-27131D01*
X31282Y-26782D01*
X31260Y-26671D01*
X31260Y-26671D01*
X31197Y-26577D01*
X31037Y-26417D01*
X30943Y-26354D01*
X30832Y-26332D01*
X29261Y-26332D01*
X29221Y-26292D01*
X29077Y-26232D01*
X28922Y-26232D01*
X28779Y-26292D01*
X28736Y-26334D01*
X28711Y-26309D01*
X28567Y-26250D01*
X28412Y-26249D01*
X28269Y-26309D01*
X28159Y-26418D01*
X28121Y-26510D01*
X28050Y-26510D01*
X28050Y-25217D01*
X28050Y-24900D01*
X27732Y-24900D01*
X27670Y-24962D01*
X27670Y-25079D01*
X27708Y-25171D01*
X27778Y-25241D01*
X27870Y-25280D01*
X27969Y-25280D01*
X27987Y-25280D01*
X28050Y-25217D01*
X28050Y-26510D01*
X23761Y-26510D01*
X23721Y-26469D01*
X23577Y-26410D01*
X23422Y-26409D01*
X23279Y-26469D01*
X23169Y-26578D01*
X23110Y-26722D01*
X23109Y-26877D01*
X23169Y-27020D01*
X23278Y-27130D01*
X23422Y-27189D01*
X23577Y-27190D01*
X23720Y-27130D01*
X23761Y-27090D01*
X24233Y-27090D01*
X24229Y-27091D01*
X24159Y-27162D01*
X24121Y-27254D01*
X24121Y-27353D01*
X24121Y-27903D01*
X24159Y-27995D01*
X24229Y-28065D01*
X24256Y-28076D01*
X24256Y-28312D01*
X24184Y-28384D01*
X24121Y-28478D01*
X24103Y-28568D01*
X24083Y-28568D01*
X23991Y-28606D01*
X23921Y-28677D01*
X23893Y-28743D01*
X23836Y-28743D01*
X23692Y-28803D01*
X23583Y-28912D01*
X23523Y-29055D01*
X23523Y-29211D01*
X23582Y-29354D01*
X23692Y-29464D01*
X23835Y-29523D01*
X23893Y-29523D01*
X23921Y-29590D01*
X23991Y-29660D01*
X24083Y-29698D01*
X24174Y-29698D01*
X24121Y-29778D01*
X24099Y-29889D01*
X24099Y-30064D01*
X24083Y-30064D01*
X23991Y-30102D01*
X23921Y-30173D01*
X23883Y-30265D01*
X23883Y-30364D01*
X23883Y-30994D01*
X23921Y-31086D01*
X23991Y-31156D01*
X24083Y-31194D01*
X24099Y-31194D01*
X24099Y-31526D01*
X24064Y-31541D01*
X23994Y-31611D01*
X23956Y-31703D01*
X23956Y-31802D01*
X23956Y-32352D01*
X23994Y-32444D01*
X24064Y-32514D01*
X24156Y-32552D01*
X24256Y-32552D01*
X24513Y-32552D01*
X24513Y-33058D01*
X24478Y-33058D01*
X24386Y-33096D01*
X24316Y-33166D01*
X24295Y-33216D01*
X24295Y-33216D01*
X24203Y-33278D01*
X24043Y-33438D01*
X23980Y-33532D01*
X23958Y-33643D01*
X23958Y-34849D01*
X23980Y-34960D01*
X24043Y-35055D01*
X24203Y-35215D01*
X24203Y-35215D01*
X24203Y-35215D01*
X24250Y-35246D01*
X24297Y-35277D01*
X24297Y-35278D01*
X24298Y-35278D01*
X24353Y-35289D01*
X24408Y-35300D01*
X24408Y-35299D01*
X24409Y-35299D01*
X26689Y-35291D01*
X26728Y-35330D01*
X26788Y-35355D01*
X27050Y-35890D01*
X27050Y-36350D01*
X21550Y-36350D01*
X21550Y-35080D01*
X21539Y-34863D01*
X21477Y-34714D01*
X21382Y-34688D01*
X21070Y-35000D01*
X21382Y-35311D01*
X21477Y-35285D01*
X21550Y-35080D01*
X21550Y-36350D01*
X21543Y-36350D01*
X21545Y-36345D01*
X21545Y-36245D01*
X21545Y-35654D01*
X21507Y-35562D01*
X21437Y-35492D01*
X21345Y-35454D01*
X21291Y-35454D01*
X21311Y-35382D01*
X21000Y-35070D01*
X20929Y-35141D01*
X20929Y-35000D01*
X20617Y-34688D01*
X20522Y-34714D01*
X20501Y-34773D01*
X20477Y-34714D01*
X20382Y-34688D01*
X20070Y-35000D01*
X20382Y-35311D01*
X20477Y-35285D01*
X20498Y-35226D01*
X20522Y-35285D01*
X20617Y-35311D01*
X20929Y-35000D01*
X20929Y-35141D01*
X20688Y-35382D01*
X20708Y-35454D01*
X20654Y-35454D01*
X20562Y-35492D01*
X20499Y-35555D01*
X20437Y-35492D01*
X20345Y-35454D01*
X20291Y-35454D01*
X20311Y-35382D01*
X20000Y-35070D01*
X19929Y-35141D01*
X19929Y-35000D01*
X19617Y-34688D01*
X19522Y-34714D01*
X19449Y-34919D01*
X19460Y-35136D01*
X19522Y-35285D01*
X19617Y-35311D01*
X19929Y-35000D01*
X19929Y-35141D01*
X19688Y-35382D01*
X19708Y-35454D01*
X19654Y-35454D01*
X19562Y-35492D01*
X19492Y-35562D01*
X19454Y-35654D01*
X19454Y-35754D01*
X19454Y-36345D01*
X19456Y-36350D01*
X19325Y-36350D01*
X19325Y-21325D01*
X19500Y-21325D01*
X20000Y-21325D01*
X20031Y-21318D01*
X20063Y-21318D01*
X20446Y-21242D01*
X20446Y-21242D01*
X20446Y-21242D01*
X20480Y-21228D01*
X20563Y-21194D01*
X20563Y-21194D01*
X20563Y-21194D01*
X20887Y-20977D01*
X20887Y-20977D01*
X20977Y-20887D01*
X20977Y-20887D01*
X20977Y-20887D01*
X21194Y-20563D01*
X21194Y-20563D01*
X21194Y-20563D01*
X21218Y-20504D01*
X21242Y-20446D01*
X21242Y-20446D01*
X21242Y-20446D01*
X21318Y-20063D01*
X21318Y-20031D01*
X21325Y-20000D01*
X21325Y-19500D01*
X21325Y-19325D01*
X38306Y-19325D01*
X38280Y-19351D01*
X38324Y-19395D01*
X38188Y-19471D01*
X38047Y-19822D01*
X38052Y-20200D01*
X38188Y-20528D01*
X38324Y-20604D01*
G54D10*
G36*
X39076Y-20005D02*
X39005Y-20076D01*
X39000Y-20070D01*
X38994Y-20076D01*
X38929Y-20011D01*
X38923Y-20005D01*
X38929Y-20000D01*
X38923Y-19994D01*
X38994Y-19923D01*
X39000Y-19929D01*
X39005Y-19923D01*
X39076Y-19994D01*
X39070Y-20000D01*
X39076Y-20005D01*
X39076Y-20005D01*
G37*
G54D31*
X39076Y-20005D02*
X39005Y-20076D01*
X39000Y-20070D01*
X38994Y-20076D01*
X38929Y-20011D01*
X38923Y-20005D01*
X38929Y-20000D01*
X38923Y-19994D01*
X38994Y-19923D01*
X39000Y-19929D01*
X39005Y-19923D01*
X39076Y-19994D01*
X39070Y-20000D01*
X39076Y-20005D01*
G54D10*
G36*
X39675Y-36350D02*
X39604Y-36350D01*
X39421Y-36350D01*
X39462Y-36309D01*
X39545Y-36108D01*
X39545Y-35891D01*
X39462Y-35691D01*
X39309Y-35537D01*
X39218Y-35500D01*
X39308Y-35462D01*
X39462Y-35309D01*
X39545Y-35108D01*
X39545Y-34891D01*
X39462Y-34691D01*
X39309Y-34537D01*
X39218Y-34500D01*
X39308Y-34462D01*
X39462Y-34309D01*
X39545Y-34108D01*
X39545Y-33891D01*
X39462Y-33691D01*
X39309Y-33537D01*
X39218Y-33500D01*
X39308Y-33462D01*
X39462Y-33309D01*
X39545Y-33108D01*
X39545Y-32891D01*
X39462Y-32691D01*
X39309Y-32537D01*
X39218Y-32500D01*
X39308Y-32462D01*
X39462Y-32309D01*
X39545Y-32108D01*
X39545Y-31891D01*
X39462Y-31691D01*
X39309Y-31537D01*
X39218Y-31500D01*
X39308Y-31462D01*
X39462Y-31309D01*
X39545Y-31108D01*
X39545Y-30891D01*
X39462Y-30691D01*
X39309Y-30537D01*
X39218Y-30500D01*
X39308Y-30462D01*
X39462Y-30309D01*
X39545Y-30108D01*
X39545Y-29891D01*
X39462Y-29691D01*
X39309Y-29537D01*
X39218Y-29500D01*
X39308Y-29462D01*
X39462Y-29309D01*
X39545Y-29108D01*
X39545Y-28891D01*
X39462Y-28691D01*
X39309Y-28537D01*
X39218Y-28500D01*
X39308Y-28462D01*
X39462Y-28309D01*
X39545Y-28108D01*
X39545Y-27891D01*
X39462Y-27691D01*
X39309Y-27537D01*
X39218Y-27500D01*
X39308Y-27462D01*
X39462Y-27309D01*
X39545Y-27108D01*
X39545Y-26891D01*
X39462Y-26691D01*
X39309Y-26537D01*
X39218Y-26500D01*
X39308Y-26462D01*
X39462Y-26309D01*
X39545Y-26108D01*
X39545Y-25891D01*
X39462Y-25691D01*
X39309Y-25537D01*
X39218Y-25500D01*
X39308Y-25462D01*
X39462Y-25309D01*
X39545Y-25108D01*
X39545Y-24891D01*
X39462Y-24691D01*
X39309Y-24537D01*
X39218Y-24500D01*
X39308Y-24462D01*
X39462Y-24309D01*
X39545Y-24108D01*
X39545Y-23891D01*
X39462Y-23691D01*
X39317Y-23545D01*
X39345Y-23545D01*
X39437Y-23507D01*
X39507Y-23437D01*
X39545Y-23345D01*
X39545Y-23245D01*
X39545Y-22654D01*
X39507Y-22562D01*
X39437Y-22492D01*
X39345Y-22454D01*
X39245Y-22454D01*
X38654Y-22454D01*
X38562Y-22492D01*
X38499Y-22555D01*
X38437Y-22492D01*
X38345Y-22454D01*
X38245Y-22454D01*
X37864Y-22454D01*
X37726Y-22315D01*
X37631Y-22253D01*
X37520Y-22230D01*
X37364Y-22230D01*
X37400Y-22143D01*
X37401Y-21988D01*
X37341Y-21845D01*
X37232Y-21735D01*
X37088Y-21676D01*
X36961Y-21675D01*
X36961Y-21593D01*
X36901Y-21450D01*
X36792Y-21340D01*
X36648Y-21281D01*
X36493Y-21280D01*
X36469Y-21290D01*
X36545Y-21108D01*
X36545Y-20891D01*
X36538Y-20874D01*
X37269Y-20874D01*
X37309Y-20914D01*
X37453Y-20974D01*
X37553Y-20974D01*
X37553Y-21088D01*
X37620Y-21252D01*
X37746Y-21378D01*
X37910Y-21446D01*
X38088Y-21446D01*
X38252Y-21379D01*
X38378Y-21253D01*
X38446Y-21089D01*
X38446Y-20911D01*
X38379Y-20747D01*
X38351Y-20719D01*
X38395Y-20675D01*
X38471Y-20811D01*
X38822Y-20952D01*
X39200Y-20947D01*
X39528Y-20811D01*
X39604Y-20675D01*
X39604Y-20675D01*
X39648Y-20719D01*
X39675Y-20693D01*
X39675Y-36350D01*
X39675Y-36350D01*
G37*
G54D31*
X39675Y-36350D02*
X39604Y-36350D01*
X39421Y-36350D01*
X39462Y-36309D01*
X39545Y-36108D01*
X39545Y-35891D01*
X39462Y-35691D01*
X39309Y-35537D01*
X39218Y-35500D01*
X39308Y-35462D01*
X39462Y-35309D01*
X39545Y-35108D01*
X39545Y-34891D01*
X39462Y-34691D01*
X39309Y-34537D01*
X39218Y-34500D01*
X39308Y-34462D01*
X39462Y-34309D01*
X39545Y-34108D01*
X39545Y-33891D01*
X39462Y-33691D01*
X39309Y-33537D01*
X39218Y-33500D01*
X39308Y-33462D01*
X39462Y-33309D01*
X39545Y-33108D01*
X39545Y-32891D01*
X39462Y-32691D01*
X39309Y-32537D01*
X39218Y-32500D01*
X39308Y-32462D01*
X39462Y-32309D01*
X39545Y-32108D01*
X39545Y-31891D01*
X39462Y-31691D01*
X39309Y-31537D01*
X39218Y-31500D01*
X39308Y-31462D01*
X39462Y-31309D01*
X39545Y-31108D01*
X39545Y-30891D01*
X39462Y-30691D01*
X39309Y-30537D01*
X39218Y-30500D01*
X39308Y-30462D01*
X39462Y-30309D01*
X39545Y-30108D01*
X39545Y-29891D01*
X39462Y-29691D01*
X39309Y-29537D01*
X39218Y-29500D01*
X39308Y-29462D01*
X39462Y-29309D01*
X39545Y-29108D01*
X39545Y-28891D01*
X39462Y-28691D01*
X39309Y-28537D01*
X39218Y-28500D01*
X39308Y-28462D01*
X39462Y-28309D01*
X39545Y-28108D01*
X39545Y-27891D01*
X39462Y-27691D01*
X39309Y-27537D01*
X39218Y-27500D01*
X39308Y-27462D01*
X39462Y-27309D01*
X39545Y-27108D01*
X39545Y-26891D01*
X39462Y-26691D01*
X39309Y-26537D01*
X39218Y-26500D01*
X39308Y-26462D01*
X39462Y-26309D01*
X39545Y-26108D01*
X39545Y-25891D01*
X39462Y-25691D01*
X39309Y-25537D01*
X39218Y-25500D01*
X39308Y-25462D01*
X39462Y-25309D01*
X39545Y-25108D01*
X39545Y-24891D01*
X39462Y-24691D01*
X39309Y-24537D01*
X39218Y-24500D01*
X39308Y-24462D01*
X39462Y-24309D01*
X39545Y-24108D01*
X39545Y-23891D01*
X39462Y-23691D01*
X39317Y-23545D01*
X39345Y-23545D01*
X39437Y-23507D01*
X39507Y-23437D01*
X39545Y-23345D01*
X39545Y-23245D01*
X39545Y-22654D01*
X39507Y-22562D01*
X39437Y-22492D01*
X39345Y-22454D01*
X39245Y-22454D01*
X38654Y-22454D01*
X38562Y-22492D01*
X38499Y-22555D01*
X38437Y-22492D01*
X38345Y-22454D01*
X38245Y-22454D01*
X37864Y-22454D01*
X37726Y-22315D01*
X37631Y-22253D01*
X37520Y-22230D01*
X37364Y-22230D01*
X37400Y-22143D01*
X37401Y-21988D01*
X37341Y-21845D01*
X37232Y-21735D01*
X37088Y-21676D01*
X36961Y-21675D01*
X36961Y-21593D01*
X36901Y-21450D01*
X36792Y-21340D01*
X36648Y-21281D01*
X36493Y-21280D01*
X36469Y-21290D01*
X36545Y-21108D01*
X36545Y-20891D01*
X36538Y-20874D01*
X37269Y-20874D01*
X37309Y-20914D01*
X37453Y-20974D01*
X37553Y-20974D01*
X37553Y-21088D01*
X37620Y-21252D01*
X37746Y-21378D01*
X37910Y-21446D01*
X38088Y-21446D01*
X38252Y-21379D01*
X38378Y-21253D01*
X38446Y-21089D01*
X38446Y-20911D01*
X38379Y-20747D01*
X38351Y-20719D01*
X38395Y-20675D01*
X38471Y-20811D01*
X38822Y-20952D01*
X39200Y-20947D01*
X39528Y-20811D01*
X39604Y-20675D01*
X39604Y-20675D01*
X39648Y-20719D01*
X39675Y-20693D01*
X39675Y-36350D01*
M02*
