G04 (created by PCBNEW (2013-mar-13)-testing) date Sun 04 Aug 2013 09:21:59 PM CEST*
%MOIN*%
G04 Gerber Fmt 3.4, Leading zero omitted, Abs format*
%FSLAX34Y34*%
G01*
G70*
G90*
G04 APERTURE LIST*
%ADD10C,0.005906*%
%ADD11C,0.116000*%
%ADD12C,0.156000*%
%ADD13R,0.075100X0.075100*%
%ADD14C,0.075100*%
G04 APERTURE END LIST*
G54D10*
G54D11*
X21000Y-38000D03*
G54D12*
X38000Y-21000D03*
G54D13*
X23000Y-21000D03*
G54D14*
X24000Y-21000D03*
X25000Y-21000D03*
X26000Y-21000D03*
X27000Y-21000D03*
X28000Y-21000D03*
X29000Y-21000D03*
X30000Y-21000D03*
X31000Y-21000D03*
X32000Y-21000D03*
X33000Y-21000D03*
X34000Y-21000D03*
X35000Y-21000D03*
X36000Y-21000D03*
G54D13*
X21000Y-36000D03*
G54D14*
X21000Y-35000D03*
X21000Y-34000D03*
X21000Y-33000D03*
X21000Y-32000D03*
X21000Y-31000D03*
X21000Y-30000D03*
X21000Y-29000D03*
X21000Y-28000D03*
X21000Y-27000D03*
X21000Y-26000D03*
X21000Y-25000D03*
X21000Y-24000D03*
X21000Y-23000D03*
G54D13*
X38000Y-23000D03*
G54D14*
X38000Y-24000D03*
X38000Y-25000D03*
X38000Y-26000D03*
X38000Y-27000D03*
X38000Y-28000D03*
X38000Y-29000D03*
X38000Y-30000D03*
X38000Y-31000D03*
X38000Y-32000D03*
X38000Y-33000D03*
X38000Y-34000D03*
X38000Y-35000D03*
X38000Y-36000D03*
M02*
