G04 (created by PCBNEW (2013-mar-13)-testing) date Tue 30 Jul 2013 04:20:25 PM CEST*
%MOIN*%
G04 Gerber Fmt 3.4, Leading zero omitted, Abs format*
%FSLAX34Y34*%
G01*
G70*
G90*
G04 APERTURE LIST*
%ADD10C,0.005906*%
%ADD11C,0.015000*%
%ADD12C,0.012000*%
%ADD13C,0.005000*%
%ADD14C,0.006000*%
%ADD15C,0.059055*%
%ADD16C,0.011972*%
%ADD17C,0.009000*%
%ADD18C,0.003000*%
%ADD19C,0.007000*%
%ADD20C,0.008000*%
%ADD21C,0.116000*%
%ADD22C,0.156000*%
%ADD23C,0.075100*%
%ADD24R,0.075100X0.075100*%
G04 APERTURE END LIST*
G54D10*
G54D11*
X21000Y-19000D02*
X40000Y-19000D01*
X21000Y-19500D02*
X21000Y-19000D01*
X19000Y-21000D02*
X19500Y-21000D01*
X19000Y-40000D02*
X19000Y-21000D01*
X40000Y-19000D02*
X40000Y-38000D01*
X38000Y-40000D02*
X19000Y-40000D01*
X38000Y-39000D02*
X38000Y-40000D01*
X40000Y-38000D02*
X39000Y-38000D01*
X39000Y-38000D02*
G75*
G03X38000Y-39000I0J-1000D01*
G74*
G01*
X21000Y-19500D02*
X21000Y-20000D01*
X19500Y-21000D02*
X20000Y-21000D01*
X20000Y-21000D02*
G75*
G03X21000Y-20000I0J1000D01*
G74*
G01*
G54D12*
X27328Y-43700D02*
X27042Y-43700D01*
X27014Y-44081D01*
X27042Y-44043D01*
X27099Y-44005D01*
X27242Y-44005D01*
X27299Y-44043D01*
X27328Y-44081D01*
X27357Y-44158D01*
X27357Y-44348D01*
X27328Y-44424D01*
X27299Y-44462D01*
X27242Y-44500D01*
X27099Y-44500D01*
X27042Y-44462D01*
X27014Y-44424D01*
X27557Y-43700D02*
X27928Y-43700D01*
X27728Y-44005D01*
X27814Y-44005D01*
X27871Y-44043D01*
X27899Y-44081D01*
X27928Y-44158D01*
X27928Y-44348D01*
X27899Y-44424D01*
X27871Y-44462D01*
X27814Y-44500D01*
X27642Y-44500D01*
X27585Y-44462D01*
X27557Y-44424D01*
X28214Y-44462D02*
X28214Y-44500D01*
X28185Y-44577D01*
X28157Y-44615D01*
X28414Y-43700D02*
X28785Y-43700D01*
X28585Y-44005D01*
X28671Y-44005D01*
X28728Y-44043D01*
X28757Y-44081D01*
X28785Y-44158D01*
X28785Y-44348D01*
X28757Y-44424D01*
X28728Y-44462D01*
X28671Y-44500D01*
X28500Y-44500D01*
X28442Y-44462D01*
X28414Y-44424D01*
X29300Y-43967D02*
X29300Y-44500D01*
X29157Y-43662D02*
X29014Y-44234D01*
X29385Y-44234D01*
X29728Y-43700D02*
X29785Y-43700D01*
X29842Y-43739D01*
X29871Y-43777D01*
X29900Y-43853D01*
X29928Y-44005D01*
X29928Y-44196D01*
X29900Y-44348D01*
X29871Y-44424D01*
X29842Y-44462D01*
X29785Y-44500D01*
X29728Y-44500D01*
X29671Y-44462D01*
X29642Y-44424D01*
X29614Y-44348D01*
X29585Y-44196D01*
X29585Y-44005D01*
X29614Y-43853D01*
X29642Y-43777D01*
X29671Y-43739D01*
X29728Y-43700D01*
X30642Y-44500D02*
X30642Y-43967D01*
X30642Y-44043D02*
X30671Y-44005D01*
X30728Y-43967D01*
X30814Y-43967D01*
X30871Y-44005D01*
X30900Y-44081D01*
X30900Y-44500D01*
X30900Y-44081D02*
X30928Y-44005D01*
X30985Y-43967D01*
X31071Y-43967D01*
X31128Y-44005D01*
X31157Y-44081D01*
X31157Y-44500D01*
X31442Y-44500D02*
X31442Y-43967D01*
X31442Y-44043D02*
X31471Y-44005D01*
X31528Y-43967D01*
X31614Y-43967D01*
X31671Y-44005D01*
X31700Y-44081D01*
X31700Y-44500D01*
X31700Y-44081D02*
X31728Y-44005D01*
X31785Y-43967D01*
X31871Y-43967D01*
X31928Y-44005D01*
X31957Y-44081D01*
X31957Y-44500D01*
X19000Y-43499D02*
X40000Y-43499D01*
X19000Y-40000D02*
X19000Y-44779D01*
X40000Y-40000D02*
X40000Y-44779D01*
X40000Y-43499D02*
X39557Y-43729D01*
X40000Y-43499D02*
X39557Y-43269D01*
X19000Y-43499D02*
X19443Y-43729D01*
X19000Y-43499D02*
X19443Y-43269D01*
X44577Y-27328D02*
X44577Y-27042D01*
X44196Y-27014D01*
X44234Y-27042D01*
X44272Y-27099D01*
X44272Y-27242D01*
X44234Y-27299D01*
X44196Y-27328D01*
X44119Y-27357D01*
X43929Y-27357D01*
X43853Y-27328D01*
X43815Y-27299D01*
X43777Y-27242D01*
X43777Y-27099D01*
X43815Y-27042D01*
X43853Y-27014D01*
X44577Y-27557D02*
X44577Y-27928D01*
X44272Y-27728D01*
X44272Y-27814D01*
X44234Y-27871D01*
X44196Y-27899D01*
X44119Y-27928D01*
X43929Y-27928D01*
X43853Y-27899D01*
X43815Y-27871D01*
X43777Y-27814D01*
X43777Y-27642D01*
X43815Y-27585D01*
X43853Y-27557D01*
X43815Y-28214D02*
X43777Y-28214D01*
X43700Y-28185D01*
X43662Y-28157D01*
X44577Y-28414D02*
X44577Y-28785D01*
X44272Y-28585D01*
X44272Y-28671D01*
X44234Y-28728D01*
X44196Y-28757D01*
X44119Y-28785D01*
X43929Y-28785D01*
X43853Y-28757D01*
X43815Y-28728D01*
X43777Y-28671D01*
X43777Y-28500D01*
X43815Y-28442D01*
X43853Y-28414D01*
X44310Y-29300D02*
X43777Y-29300D01*
X44615Y-29157D02*
X44043Y-29014D01*
X44043Y-29385D01*
X44577Y-29728D02*
X44577Y-29785D01*
X44539Y-29842D01*
X44500Y-29871D01*
X44424Y-29900D01*
X44272Y-29928D01*
X44081Y-29928D01*
X43929Y-29900D01*
X43853Y-29871D01*
X43815Y-29842D01*
X43777Y-29785D01*
X43777Y-29728D01*
X43815Y-29671D01*
X43853Y-29642D01*
X43929Y-29614D01*
X44081Y-29585D01*
X44272Y-29585D01*
X44424Y-29614D01*
X44500Y-29642D01*
X44539Y-29671D01*
X44577Y-29728D01*
X43777Y-30642D02*
X44310Y-30642D01*
X44234Y-30642D02*
X44272Y-30671D01*
X44310Y-30728D01*
X44310Y-30814D01*
X44272Y-30871D01*
X44196Y-30900D01*
X43777Y-30900D01*
X44196Y-30900D02*
X44272Y-30928D01*
X44310Y-30985D01*
X44310Y-31071D01*
X44272Y-31128D01*
X44196Y-31157D01*
X43777Y-31157D01*
X43777Y-31442D02*
X44310Y-31442D01*
X44234Y-31442D02*
X44272Y-31471D01*
X44310Y-31528D01*
X44310Y-31614D01*
X44272Y-31671D01*
X44196Y-31700D01*
X43777Y-31700D01*
X44196Y-31700D02*
X44272Y-31728D01*
X44310Y-31785D01*
X44310Y-31871D01*
X44272Y-31928D01*
X44196Y-31957D01*
X43777Y-31957D01*
X43499Y-19000D02*
X43499Y-40000D01*
X40000Y-19000D02*
X44779Y-19000D01*
X40000Y-40000D02*
X44779Y-40000D01*
X43499Y-40000D02*
X43269Y-39557D01*
X43499Y-40000D02*
X43729Y-39557D01*
X43499Y-19000D02*
X43269Y-19443D01*
X43499Y-19000D02*
X43729Y-19443D01*
G54D13*
X37242Y-22909D02*
X37200Y-22922D01*
X37128Y-22922D01*
X37100Y-22909D01*
X37085Y-22896D01*
X37071Y-22870D01*
X37071Y-22845D01*
X37085Y-22819D01*
X37100Y-22806D01*
X37128Y-22793D01*
X37185Y-22780D01*
X37214Y-22767D01*
X37228Y-22755D01*
X37242Y-22729D01*
X37242Y-22703D01*
X37228Y-22677D01*
X37214Y-22665D01*
X37185Y-22652D01*
X37114Y-22652D01*
X37071Y-22665D01*
X36942Y-22922D02*
X36942Y-22652D01*
X36871Y-22652D01*
X36828Y-22665D01*
X36800Y-22690D01*
X36785Y-22716D01*
X36771Y-22767D01*
X36771Y-22806D01*
X36785Y-22857D01*
X36800Y-22883D01*
X36828Y-22909D01*
X36871Y-22922D01*
X36942Y-22922D01*
X36657Y-22845D02*
X36514Y-22845D01*
X36685Y-22922D02*
X36585Y-22652D01*
X36485Y-22922D01*
X37228Y-23350D02*
X37228Y-23080D01*
X37114Y-23080D01*
X37085Y-23093D01*
X37071Y-23105D01*
X37057Y-23131D01*
X37057Y-23170D01*
X37071Y-23195D01*
X37085Y-23208D01*
X37114Y-23221D01*
X37228Y-23221D01*
X36957Y-23080D02*
X36771Y-23080D01*
X36871Y-23183D01*
X36828Y-23183D01*
X36800Y-23195D01*
X36785Y-23208D01*
X36771Y-23234D01*
X36771Y-23298D01*
X36785Y-23324D01*
X36800Y-23337D01*
X36828Y-23350D01*
X36914Y-23350D01*
X36942Y-23337D01*
X36957Y-23324D01*
X36642Y-23324D02*
X36628Y-23337D01*
X36642Y-23350D01*
X36657Y-23337D01*
X36642Y-23324D01*
X36642Y-23350D01*
X36342Y-23350D02*
X36514Y-23350D01*
X36428Y-23350D02*
X36428Y-23080D01*
X36457Y-23118D01*
X36485Y-23144D01*
X36514Y-23157D01*
X35896Y-21918D02*
X35909Y-21905D01*
X35922Y-21867D01*
X35922Y-21841D01*
X35909Y-21802D01*
X35883Y-21777D01*
X35857Y-21764D01*
X35806Y-21751D01*
X35767Y-21751D01*
X35716Y-21764D01*
X35690Y-21777D01*
X35665Y-21802D01*
X35652Y-21841D01*
X35652Y-21867D01*
X35665Y-21905D01*
X35677Y-21918D01*
X35896Y-22188D02*
X35909Y-22175D01*
X35922Y-22137D01*
X35922Y-22111D01*
X35909Y-22072D01*
X35883Y-22047D01*
X35857Y-22034D01*
X35806Y-22021D01*
X35767Y-22021D01*
X35716Y-22034D01*
X35690Y-22047D01*
X35665Y-22072D01*
X35652Y-22111D01*
X35652Y-22137D01*
X35665Y-22175D01*
X35677Y-22188D01*
X35947Y-22240D02*
X35947Y-22445D01*
X35665Y-22651D02*
X35652Y-22625D01*
X35652Y-22587D01*
X35665Y-22548D01*
X35690Y-22522D01*
X35716Y-22510D01*
X35767Y-22497D01*
X35806Y-22497D01*
X35857Y-22510D01*
X35883Y-22522D01*
X35909Y-22548D01*
X35922Y-22587D01*
X35922Y-22612D01*
X35909Y-22651D01*
X35896Y-22664D01*
X35806Y-22664D01*
X35806Y-22612D01*
X35922Y-22780D02*
X35652Y-22780D01*
X35652Y-22882D01*
X35665Y-22908D01*
X35677Y-22921D01*
X35703Y-22934D01*
X35742Y-22934D01*
X35767Y-22921D01*
X35780Y-22908D01*
X35793Y-22882D01*
X35793Y-22780D01*
X35922Y-23050D02*
X35652Y-23050D01*
X35652Y-23229D02*
X35652Y-23281D01*
X35665Y-23307D01*
X35690Y-23332D01*
X35742Y-23345D01*
X35832Y-23345D01*
X35883Y-23332D01*
X35909Y-23307D01*
X35922Y-23281D01*
X35922Y-23229D01*
X35909Y-23204D01*
X35883Y-23178D01*
X35832Y-23165D01*
X35742Y-23165D01*
X35690Y-23178D01*
X35665Y-23204D01*
X35652Y-23229D01*
X35652Y-23589D02*
X35652Y-23461D01*
X35780Y-23448D01*
X35767Y-23461D01*
X35755Y-23487D01*
X35755Y-23551D01*
X35767Y-23577D01*
X35780Y-23589D01*
X35806Y-23602D01*
X35870Y-23602D01*
X35896Y-23589D01*
X35909Y-23577D01*
X35922Y-23551D01*
X35922Y-23487D01*
X35909Y-23461D01*
X35896Y-23448D01*
X36350Y-21764D02*
X36080Y-21764D01*
X36080Y-21867D01*
X36093Y-21892D01*
X36105Y-21905D01*
X36131Y-21918D01*
X36170Y-21918D01*
X36195Y-21905D01*
X36208Y-21892D01*
X36221Y-21867D01*
X36221Y-21764D01*
X36350Y-22175D02*
X36350Y-22021D01*
X36350Y-22098D02*
X36080Y-22098D01*
X36118Y-22072D01*
X36144Y-22047D01*
X36157Y-22021D01*
X36324Y-22291D02*
X36337Y-22304D01*
X36350Y-22291D01*
X36337Y-22278D01*
X36324Y-22291D01*
X36350Y-22291D01*
X36080Y-22394D02*
X36080Y-22574D01*
X36350Y-22458D01*
X37242Y-23909D02*
X37200Y-23922D01*
X37128Y-23922D01*
X37100Y-23909D01*
X37085Y-23896D01*
X37071Y-23870D01*
X37071Y-23845D01*
X37085Y-23819D01*
X37100Y-23806D01*
X37128Y-23793D01*
X37185Y-23780D01*
X37214Y-23767D01*
X37228Y-23755D01*
X37242Y-23729D01*
X37242Y-23703D01*
X37228Y-23677D01*
X37214Y-23665D01*
X37185Y-23652D01*
X37114Y-23652D01*
X37071Y-23665D01*
X36771Y-23896D02*
X36785Y-23909D01*
X36828Y-23922D01*
X36857Y-23922D01*
X36900Y-23909D01*
X36928Y-23883D01*
X36942Y-23857D01*
X36957Y-23806D01*
X36957Y-23767D01*
X36942Y-23716D01*
X36928Y-23690D01*
X36900Y-23665D01*
X36857Y-23652D01*
X36828Y-23652D01*
X36785Y-23665D01*
X36771Y-23677D01*
X36500Y-23922D02*
X36642Y-23922D01*
X36642Y-23652D01*
X37228Y-24350D02*
X37228Y-24080D01*
X37114Y-24080D01*
X37085Y-24093D01*
X37071Y-24105D01*
X37057Y-24131D01*
X37057Y-24170D01*
X37071Y-24195D01*
X37085Y-24208D01*
X37114Y-24221D01*
X37228Y-24221D01*
X36957Y-24080D02*
X36771Y-24080D01*
X36871Y-24183D01*
X36828Y-24183D01*
X36800Y-24195D01*
X36785Y-24208D01*
X36771Y-24234D01*
X36771Y-24298D01*
X36785Y-24324D01*
X36800Y-24337D01*
X36828Y-24350D01*
X36914Y-24350D01*
X36942Y-24337D01*
X36957Y-24324D01*
X36642Y-24324D02*
X36628Y-24337D01*
X36642Y-24350D01*
X36657Y-24337D01*
X36642Y-24324D01*
X36642Y-24350D01*
X36514Y-24105D02*
X36500Y-24093D01*
X36471Y-24080D01*
X36400Y-24080D01*
X36371Y-24093D01*
X36357Y-24105D01*
X36342Y-24131D01*
X36342Y-24157D01*
X36357Y-24195D01*
X36528Y-24350D01*
X36342Y-24350D01*
X37242Y-24845D02*
X37100Y-24845D01*
X37271Y-24922D02*
X37171Y-24652D01*
X37071Y-24922D01*
X36971Y-24922D02*
X36971Y-24652D01*
X36900Y-24652D01*
X36857Y-24665D01*
X36828Y-24690D01*
X36814Y-24716D01*
X36800Y-24767D01*
X36800Y-24806D01*
X36814Y-24857D01*
X36828Y-24883D01*
X36857Y-24909D01*
X36900Y-24922D01*
X36971Y-24922D01*
X36500Y-24896D02*
X36514Y-24909D01*
X36557Y-24922D01*
X36585Y-24922D01*
X36628Y-24909D01*
X36657Y-24883D01*
X36671Y-24857D01*
X36685Y-24806D01*
X36685Y-24767D01*
X36671Y-24716D01*
X36657Y-24690D01*
X36628Y-24665D01*
X36585Y-24652D01*
X36557Y-24652D01*
X36514Y-24665D01*
X36500Y-24677D01*
X36228Y-24652D02*
X36371Y-24652D01*
X36385Y-24780D01*
X36371Y-24767D01*
X36342Y-24755D01*
X36271Y-24755D01*
X36242Y-24767D01*
X36228Y-24780D01*
X36214Y-24806D01*
X36214Y-24870D01*
X36228Y-24896D01*
X36242Y-24909D01*
X36271Y-24922D01*
X36342Y-24922D01*
X36371Y-24909D01*
X36385Y-24896D01*
X37228Y-25350D02*
X37228Y-25080D01*
X37114Y-25080D01*
X37085Y-25093D01*
X37071Y-25105D01*
X37057Y-25131D01*
X37057Y-25170D01*
X37071Y-25195D01*
X37085Y-25208D01*
X37114Y-25221D01*
X37228Y-25221D01*
X36800Y-25080D02*
X36857Y-25080D01*
X36885Y-25093D01*
X36900Y-25105D01*
X36928Y-25144D01*
X36942Y-25195D01*
X36942Y-25298D01*
X36928Y-25324D01*
X36914Y-25337D01*
X36885Y-25350D01*
X36828Y-25350D01*
X36800Y-25337D01*
X36785Y-25324D01*
X36771Y-25298D01*
X36771Y-25234D01*
X36785Y-25208D01*
X36800Y-25195D01*
X36828Y-25183D01*
X36885Y-25183D01*
X36914Y-25195D01*
X36928Y-25208D01*
X36942Y-25234D01*
X36642Y-25324D02*
X36628Y-25337D01*
X36642Y-25350D01*
X36657Y-25337D01*
X36642Y-25324D01*
X36642Y-25350D01*
X36357Y-25080D02*
X36500Y-25080D01*
X36514Y-25208D01*
X36500Y-25195D01*
X36471Y-25183D01*
X36400Y-25183D01*
X36371Y-25195D01*
X36357Y-25208D01*
X36342Y-25234D01*
X36342Y-25298D01*
X36357Y-25324D01*
X36371Y-25337D01*
X36400Y-25350D01*
X36471Y-25350D01*
X36500Y-25337D01*
X36514Y-25324D01*
X37228Y-26922D02*
X37228Y-26652D01*
X37085Y-26922D02*
X37085Y-26652D01*
X36914Y-26922D01*
X36914Y-26652D01*
X36814Y-26652D02*
X36642Y-26652D01*
X36728Y-26922D02*
X36728Y-26652D01*
X36557Y-26677D02*
X36542Y-26665D01*
X36514Y-26652D01*
X36442Y-26652D01*
X36414Y-26665D01*
X36400Y-26677D01*
X36385Y-26703D01*
X36385Y-26729D01*
X36400Y-26767D01*
X36571Y-26922D01*
X36385Y-26922D01*
X37228Y-27350D02*
X37228Y-27080D01*
X37114Y-27080D01*
X37085Y-27093D01*
X37071Y-27105D01*
X37057Y-27131D01*
X37057Y-27170D01*
X37071Y-27195D01*
X37085Y-27208D01*
X37114Y-27221D01*
X37228Y-27221D01*
X36942Y-27105D02*
X36928Y-27093D01*
X36900Y-27080D01*
X36828Y-27080D01*
X36800Y-27093D01*
X36785Y-27105D01*
X36771Y-27131D01*
X36771Y-27157D01*
X36785Y-27195D01*
X36957Y-27350D01*
X36771Y-27350D01*
X36642Y-27324D02*
X36628Y-27337D01*
X36642Y-27350D01*
X36657Y-27337D01*
X36642Y-27324D01*
X36642Y-27350D01*
X36357Y-27080D02*
X36500Y-27080D01*
X36514Y-27208D01*
X36500Y-27195D01*
X36471Y-27183D01*
X36400Y-27183D01*
X36371Y-27195D01*
X36357Y-27208D01*
X36342Y-27234D01*
X36342Y-27298D01*
X36357Y-27324D01*
X36371Y-27337D01*
X36400Y-27350D01*
X36471Y-27350D01*
X36500Y-27337D01*
X36514Y-27324D01*
X37228Y-27922D02*
X37228Y-27652D01*
X37085Y-27922D02*
X37085Y-27652D01*
X36914Y-27922D01*
X36914Y-27652D01*
X36814Y-27652D02*
X36642Y-27652D01*
X36728Y-27922D02*
X36728Y-27652D01*
X36385Y-27922D02*
X36557Y-27922D01*
X36471Y-27922D02*
X36471Y-27652D01*
X36500Y-27690D01*
X36528Y-27716D01*
X36557Y-27729D01*
X37228Y-28350D02*
X37228Y-28080D01*
X37114Y-28080D01*
X37085Y-28093D01*
X37071Y-28105D01*
X37057Y-28131D01*
X37057Y-28170D01*
X37071Y-28195D01*
X37085Y-28208D01*
X37114Y-28221D01*
X37228Y-28221D01*
X36942Y-28105D02*
X36928Y-28093D01*
X36900Y-28080D01*
X36828Y-28080D01*
X36800Y-28093D01*
X36785Y-28105D01*
X36771Y-28131D01*
X36771Y-28157D01*
X36785Y-28195D01*
X36957Y-28350D01*
X36771Y-28350D01*
X36642Y-28324D02*
X36628Y-28337D01*
X36642Y-28350D01*
X36657Y-28337D01*
X36642Y-28324D01*
X36642Y-28350D01*
X36528Y-28080D02*
X36342Y-28080D01*
X36442Y-28183D01*
X36400Y-28183D01*
X36371Y-28195D01*
X36357Y-28208D01*
X36342Y-28234D01*
X36342Y-28298D01*
X36357Y-28324D01*
X36371Y-28337D01*
X36400Y-28350D01*
X36485Y-28350D01*
X36514Y-28337D01*
X36528Y-28324D01*
X37085Y-28922D02*
X37228Y-28922D01*
X37228Y-28652D01*
X36985Y-28780D02*
X36885Y-28780D01*
X36842Y-28922D02*
X36985Y-28922D01*
X36985Y-28652D01*
X36842Y-28652D01*
X36714Y-28922D02*
X36714Y-28652D01*
X36642Y-28652D01*
X36600Y-28665D01*
X36571Y-28690D01*
X36557Y-28716D01*
X36542Y-28767D01*
X36542Y-28806D01*
X36557Y-28857D01*
X36571Y-28883D01*
X36600Y-28909D01*
X36642Y-28922D01*
X36714Y-28922D01*
X36357Y-28652D02*
X36328Y-28652D01*
X36300Y-28665D01*
X36285Y-28677D01*
X36271Y-28703D01*
X36257Y-28755D01*
X36257Y-28819D01*
X36271Y-28870D01*
X36285Y-28896D01*
X36300Y-28909D01*
X36328Y-28922D01*
X36357Y-28922D01*
X36385Y-28909D01*
X36400Y-28896D01*
X36414Y-28870D01*
X36428Y-28819D01*
X36428Y-28755D01*
X36414Y-28703D01*
X36400Y-28677D01*
X36385Y-28665D01*
X36357Y-28652D01*
X37228Y-29350D02*
X37228Y-29080D01*
X37114Y-29080D01*
X37085Y-29093D01*
X37071Y-29105D01*
X37057Y-29131D01*
X37057Y-29170D01*
X37071Y-29195D01*
X37085Y-29208D01*
X37114Y-29221D01*
X37228Y-29221D01*
X36885Y-29195D02*
X36914Y-29183D01*
X36928Y-29170D01*
X36942Y-29144D01*
X36942Y-29131D01*
X36928Y-29105D01*
X36914Y-29093D01*
X36885Y-29080D01*
X36828Y-29080D01*
X36800Y-29093D01*
X36785Y-29105D01*
X36771Y-29131D01*
X36771Y-29144D01*
X36785Y-29170D01*
X36800Y-29183D01*
X36828Y-29195D01*
X36885Y-29195D01*
X36914Y-29208D01*
X36928Y-29221D01*
X36942Y-29247D01*
X36942Y-29298D01*
X36928Y-29324D01*
X36914Y-29337D01*
X36885Y-29350D01*
X36828Y-29350D01*
X36800Y-29337D01*
X36785Y-29324D01*
X36771Y-29298D01*
X36771Y-29247D01*
X36785Y-29221D01*
X36800Y-29208D01*
X36828Y-29195D01*
X36642Y-29324D02*
X36628Y-29337D01*
X36642Y-29350D01*
X36657Y-29337D01*
X36642Y-29324D01*
X36642Y-29350D01*
X36442Y-29080D02*
X36414Y-29080D01*
X36385Y-29093D01*
X36371Y-29105D01*
X36357Y-29131D01*
X36342Y-29183D01*
X36342Y-29247D01*
X36357Y-29298D01*
X36371Y-29324D01*
X36385Y-29337D01*
X36414Y-29350D01*
X36442Y-29350D01*
X36471Y-29337D01*
X36485Y-29324D01*
X36500Y-29298D01*
X36514Y-29247D01*
X36514Y-29183D01*
X36500Y-29131D01*
X36485Y-29105D01*
X36471Y-29093D01*
X36442Y-29080D01*
X37085Y-29922D02*
X37228Y-29922D01*
X37228Y-29652D01*
X36985Y-29780D02*
X36885Y-29780D01*
X36842Y-29922D02*
X36985Y-29922D01*
X36985Y-29652D01*
X36842Y-29652D01*
X36714Y-29922D02*
X36714Y-29652D01*
X36642Y-29652D01*
X36600Y-29665D01*
X36571Y-29690D01*
X36557Y-29716D01*
X36542Y-29767D01*
X36542Y-29806D01*
X36557Y-29857D01*
X36571Y-29883D01*
X36600Y-29909D01*
X36642Y-29922D01*
X36714Y-29922D01*
X36257Y-29922D02*
X36428Y-29922D01*
X36342Y-29922D02*
X36342Y-29652D01*
X36371Y-29690D01*
X36400Y-29716D01*
X36428Y-29729D01*
X37228Y-30350D02*
X37228Y-30080D01*
X37114Y-30080D01*
X37085Y-30093D01*
X37071Y-30105D01*
X37057Y-30131D01*
X37057Y-30170D01*
X37071Y-30195D01*
X37085Y-30208D01*
X37114Y-30221D01*
X37228Y-30221D01*
X36885Y-30195D02*
X36914Y-30183D01*
X36928Y-30170D01*
X36942Y-30144D01*
X36942Y-30131D01*
X36928Y-30105D01*
X36914Y-30093D01*
X36885Y-30080D01*
X36828Y-30080D01*
X36800Y-30093D01*
X36785Y-30105D01*
X36771Y-30131D01*
X36771Y-30144D01*
X36785Y-30170D01*
X36800Y-30183D01*
X36828Y-30195D01*
X36885Y-30195D01*
X36914Y-30208D01*
X36928Y-30221D01*
X36942Y-30247D01*
X36942Y-30298D01*
X36928Y-30324D01*
X36914Y-30337D01*
X36885Y-30350D01*
X36828Y-30350D01*
X36800Y-30337D01*
X36785Y-30324D01*
X36771Y-30298D01*
X36771Y-30247D01*
X36785Y-30221D01*
X36800Y-30208D01*
X36828Y-30195D01*
X36642Y-30324D02*
X36628Y-30337D01*
X36642Y-30350D01*
X36657Y-30337D01*
X36642Y-30324D01*
X36642Y-30350D01*
X36342Y-30350D02*
X36514Y-30350D01*
X36428Y-30350D02*
X36428Y-30080D01*
X36457Y-30118D01*
X36485Y-30144D01*
X36514Y-30157D01*
X37085Y-30922D02*
X37228Y-30922D01*
X37228Y-30652D01*
X36985Y-30780D02*
X36885Y-30780D01*
X36842Y-30922D02*
X36985Y-30922D01*
X36985Y-30652D01*
X36842Y-30652D01*
X36714Y-30922D02*
X36714Y-30652D01*
X36642Y-30652D01*
X36600Y-30665D01*
X36571Y-30690D01*
X36557Y-30716D01*
X36542Y-30767D01*
X36542Y-30806D01*
X36557Y-30857D01*
X36571Y-30883D01*
X36600Y-30909D01*
X36642Y-30922D01*
X36714Y-30922D01*
X36428Y-30677D02*
X36414Y-30665D01*
X36385Y-30652D01*
X36314Y-30652D01*
X36285Y-30665D01*
X36271Y-30677D01*
X36257Y-30703D01*
X36257Y-30729D01*
X36271Y-30767D01*
X36442Y-30922D01*
X36257Y-30922D01*
X37228Y-31350D02*
X37228Y-31080D01*
X37114Y-31080D01*
X37085Y-31093D01*
X37071Y-31105D01*
X37057Y-31131D01*
X37057Y-31170D01*
X37071Y-31195D01*
X37085Y-31208D01*
X37114Y-31221D01*
X37228Y-31221D01*
X36885Y-31195D02*
X36914Y-31183D01*
X36928Y-31170D01*
X36942Y-31144D01*
X36942Y-31131D01*
X36928Y-31105D01*
X36914Y-31093D01*
X36885Y-31080D01*
X36828Y-31080D01*
X36800Y-31093D01*
X36785Y-31105D01*
X36771Y-31131D01*
X36771Y-31144D01*
X36785Y-31170D01*
X36800Y-31183D01*
X36828Y-31195D01*
X36885Y-31195D01*
X36914Y-31208D01*
X36928Y-31221D01*
X36942Y-31247D01*
X36942Y-31298D01*
X36928Y-31324D01*
X36914Y-31337D01*
X36885Y-31350D01*
X36828Y-31350D01*
X36800Y-31337D01*
X36785Y-31324D01*
X36771Y-31298D01*
X36771Y-31247D01*
X36785Y-31221D01*
X36800Y-31208D01*
X36828Y-31195D01*
X36642Y-31324D02*
X36628Y-31337D01*
X36642Y-31350D01*
X36657Y-31337D01*
X36642Y-31324D01*
X36642Y-31350D01*
X36514Y-31105D02*
X36500Y-31093D01*
X36471Y-31080D01*
X36400Y-31080D01*
X36371Y-31093D01*
X36357Y-31105D01*
X36342Y-31131D01*
X36342Y-31157D01*
X36357Y-31195D01*
X36528Y-31350D01*
X36342Y-31350D01*
X37242Y-31909D02*
X37200Y-31922D01*
X37128Y-31922D01*
X37100Y-31909D01*
X37085Y-31896D01*
X37071Y-31870D01*
X37071Y-31845D01*
X37085Y-31819D01*
X37100Y-31806D01*
X37128Y-31793D01*
X37185Y-31780D01*
X37214Y-31767D01*
X37228Y-31755D01*
X37242Y-31729D01*
X37242Y-31703D01*
X37228Y-31677D01*
X37214Y-31665D01*
X37185Y-31652D01*
X37114Y-31652D01*
X37071Y-31665D01*
X36942Y-31922D02*
X36942Y-31652D01*
X36771Y-31922D01*
X36771Y-31652D01*
X36571Y-31652D02*
X36542Y-31652D01*
X36514Y-31665D01*
X36500Y-31677D01*
X36485Y-31703D01*
X36471Y-31755D01*
X36471Y-31819D01*
X36485Y-31870D01*
X36500Y-31896D01*
X36514Y-31909D01*
X36542Y-31922D01*
X36571Y-31922D01*
X36600Y-31909D01*
X36614Y-31896D01*
X36628Y-31870D01*
X36642Y-31819D01*
X36642Y-31755D01*
X36628Y-31703D01*
X36614Y-31677D01*
X36600Y-31665D01*
X36571Y-31652D01*
X36414Y-31947D02*
X36185Y-31947D01*
X36114Y-31780D02*
X36014Y-31780D01*
X35971Y-31922D02*
X36114Y-31922D01*
X36114Y-31652D01*
X35971Y-31652D01*
X35842Y-31922D02*
X35842Y-31652D01*
X35671Y-31922D01*
X35671Y-31652D01*
X37228Y-32350D02*
X37228Y-32080D01*
X37114Y-32080D01*
X37085Y-32093D01*
X37071Y-32105D01*
X37057Y-32131D01*
X37057Y-32170D01*
X37071Y-32195D01*
X37085Y-32208D01*
X37114Y-32221D01*
X37228Y-32221D01*
X36885Y-32195D02*
X36914Y-32183D01*
X36928Y-32170D01*
X36942Y-32144D01*
X36942Y-32131D01*
X36928Y-32105D01*
X36914Y-32093D01*
X36885Y-32080D01*
X36828Y-32080D01*
X36800Y-32093D01*
X36785Y-32105D01*
X36771Y-32131D01*
X36771Y-32144D01*
X36785Y-32170D01*
X36800Y-32183D01*
X36828Y-32195D01*
X36885Y-32195D01*
X36914Y-32208D01*
X36928Y-32221D01*
X36942Y-32247D01*
X36942Y-32298D01*
X36928Y-32324D01*
X36914Y-32337D01*
X36885Y-32350D01*
X36828Y-32350D01*
X36800Y-32337D01*
X36785Y-32324D01*
X36771Y-32298D01*
X36771Y-32247D01*
X36785Y-32221D01*
X36800Y-32208D01*
X36828Y-32195D01*
X36642Y-32324D02*
X36628Y-32337D01*
X36642Y-32350D01*
X36657Y-32337D01*
X36642Y-32324D01*
X36642Y-32350D01*
X36528Y-32080D02*
X36342Y-32080D01*
X36442Y-32183D01*
X36400Y-32183D01*
X36371Y-32195D01*
X36357Y-32208D01*
X36342Y-32234D01*
X36342Y-32298D01*
X36357Y-32324D01*
X36371Y-32337D01*
X36400Y-32350D01*
X36485Y-32350D01*
X36514Y-32337D01*
X36528Y-32324D01*
X37242Y-32909D02*
X37200Y-32922D01*
X37128Y-32922D01*
X37100Y-32909D01*
X37085Y-32896D01*
X37071Y-32870D01*
X37071Y-32845D01*
X37085Y-32819D01*
X37100Y-32806D01*
X37128Y-32793D01*
X37185Y-32780D01*
X37214Y-32767D01*
X37228Y-32755D01*
X37242Y-32729D01*
X37242Y-32703D01*
X37228Y-32677D01*
X37214Y-32665D01*
X37185Y-32652D01*
X37114Y-32652D01*
X37071Y-32665D01*
X36942Y-32922D02*
X36942Y-32652D01*
X36771Y-32922D01*
X36771Y-32652D01*
X36471Y-32922D02*
X36642Y-32922D01*
X36557Y-32922D02*
X36557Y-32652D01*
X36585Y-32690D01*
X36614Y-32716D01*
X36642Y-32729D01*
X36414Y-32947D02*
X36185Y-32947D01*
X36114Y-32780D02*
X36014Y-32780D01*
X35971Y-32922D02*
X36114Y-32922D01*
X36114Y-32652D01*
X35971Y-32652D01*
X35842Y-32922D02*
X35842Y-32652D01*
X35671Y-32922D01*
X35671Y-32652D01*
X37228Y-33350D02*
X37228Y-33080D01*
X37114Y-33080D01*
X37085Y-33093D01*
X37071Y-33105D01*
X37057Y-33131D01*
X37057Y-33170D01*
X37071Y-33195D01*
X37085Y-33208D01*
X37114Y-33221D01*
X37228Y-33221D01*
X36885Y-33195D02*
X36914Y-33183D01*
X36928Y-33170D01*
X36942Y-33144D01*
X36942Y-33131D01*
X36928Y-33105D01*
X36914Y-33093D01*
X36885Y-33080D01*
X36828Y-33080D01*
X36800Y-33093D01*
X36785Y-33105D01*
X36771Y-33131D01*
X36771Y-33144D01*
X36785Y-33170D01*
X36800Y-33183D01*
X36828Y-33195D01*
X36885Y-33195D01*
X36914Y-33208D01*
X36928Y-33221D01*
X36942Y-33247D01*
X36942Y-33298D01*
X36928Y-33324D01*
X36914Y-33337D01*
X36885Y-33350D01*
X36828Y-33350D01*
X36800Y-33337D01*
X36785Y-33324D01*
X36771Y-33298D01*
X36771Y-33247D01*
X36785Y-33221D01*
X36800Y-33208D01*
X36828Y-33195D01*
X36642Y-33324D02*
X36628Y-33337D01*
X36642Y-33350D01*
X36657Y-33337D01*
X36642Y-33324D01*
X36642Y-33350D01*
X36371Y-33170D02*
X36371Y-33350D01*
X36442Y-33067D02*
X36514Y-33260D01*
X36328Y-33260D01*
X37228Y-33922D02*
X37228Y-33652D01*
X37157Y-33652D01*
X37114Y-33665D01*
X37085Y-33690D01*
X37071Y-33716D01*
X37057Y-33767D01*
X37057Y-33806D01*
X37071Y-33857D01*
X37085Y-33883D01*
X37114Y-33909D01*
X37157Y-33922D01*
X37228Y-33922D01*
X36928Y-33922D02*
X36928Y-33652D01*
X36728Y-33652D02*
X36671Y-33652D01*
X36642Y-33665D01*
X36614Y-33690D01*
X36600Y-33742D01*
X36600Y-33832D01*
X36614Y-33883D01*
X36642Y-33909D01*
X36671Y-33922D01*
X36728Y-33922D01*
X36757Y-33909D01*
X36785Y-33883D01*
X36800Y-33832D01*
X36800Y-33742D01*
X36785Y-33690D01*
X36757Y-33665D01*
X36728Y-33652D01*
X36485Y-33677D02*
X36471Y-33665D01*
X36442Y-33652D01*
X36371Y-33652D01*
X36342Y-33665D01*
X36328Y-33677D01*
X36314Y-33703D01*
X36314Y-33729D01*
X36328Y-33767D01*
X36500Y-33922D01*
X36314Y-33922D01*
X37228Y-34350D02*
X37228Y-34080D01*
X37114Y-34080D01*
X37085Y-34093D01*
X37071Y-34105D01*
X37057Y-34131D01*
X37057Y-34170D01*
X37071Y-34195D01*
X37085Y-34208D01*
X37114Y-34221D01*
X37228Y-34221D01*
X36885Y-34195D02*
X36914Y-34183D01*
X36928Y-34170D01*
X36942Y-34144D01*
X36942Y-34131D01*
X36928Y-34105D01*
X36914Y-34093D01*
X36885Y-34080D01*
X36828Y-34080D01*
X36800Y-34093D01*
X36785Y-34105D01*
X36771Y-34131D01*
X36771Y-34144D01*
X36785Y-34170D01*
X36800Y-34183D01*
X36828Y-34195D01*
X36885Y-34195D01*
X36914Y-34208D01*
X36928Y-34221D01*
X36942Y-34247D01*
X36942Y-34298D01*
X36928Y-34324D01*
X36914Y-34337D01*
X36885Y-34350D01*
X36828Y-34350D01*
X36800Y-34337D01*
X36785Y-34324D01*
X36771Y-34298D01*
X36771Y-34247D01*
X36785Y-34221D01*
X36800Y-34208D01*
X36828Y-34195D01*
X36642Y-34324D02*
X36628Y-34337D01*
X36642Y-34350D01*
X36657Y-34337D01*
X36642Y-34324D01*
X36642Y-34350D01*
X36357Y-34080D02*
X36500Y-34080D01*
X36514Y-34208D01*
X36500Y-34195D01*
X36471Y-34183D01*
X36400Y-34183D01*
X36371Y-34195D01*
X36357Y-34208D01*
X36342Y-34234D01*
X36342Y-34298D01*
X36357Y-34324D01*
X36371Y-34337D01*
X36400Y-34350D01*
X36471Y-34350D01*
X36500Y-34337D01*
X36514Y-34324D01*
X37228Y-34922D02*
X37228Y-34652D01*
X37157Y-34652D01*
X37114Y-34665D01*
X37085Y-34690D01*
X37071Y-34716D01*
X37057Y-34767D01*
X37057Y-34806D01*
X37071Y-34857D01*
X37085Y-34883D01*
X37114Y-34909D01*
X37157Y-34922D01*
X37228Y-34922D01*
X36928Y-34922D02*
X36928Y-34652D01*
X36728Y-34652D02*
X36671Y-34652D01*
X36642Y-34665D01*
X36614Y-34690D01*
X36600Y-34742D01*
X36600Y-34832D01*
X36614Y-34883D01*
X36642Y-34909D01*
X36671Y-34922D01*
X36728Y-34922D01*
X36757Y-34909D01*
X36785Y-34883D01*
X36800Y-34832D01*
X36800Y-34742D01*
X36785Y-34690D01*
X36757Y-34665D01*
X36728Y-34652D01*
X36500Y-34652D02*
X36314Y-34652D01*
X36414Y-34755D01*
X36371Y-34755D01*
X36342Y-34767D01*
X36328Y-34780D01*
X36314Y-34806D01*
X36314Y-34870D01*
X36328Y-34896D01*
X36342Y-34909D01*
X36371Y-34922D01*
X36457Y-34922D01*
X36485Y-34909D01*
X36500Y-34896D01*
X37228Y-35350D02*
X37228Y-35080D01*
X37114Y-35080D01*
X37085Y-35093D01*
X37071Y-35105D01*
X37057Y-35131D01*
X37057Y-35170D01*
X37071Y-35195D01*
X37085Y-35208D01*
X37114Y-35221D01*
X37228Y-35221D01*
X36885Y-35195D02*
X36914Y-35183D01*
X36928Y-35170D01*
X36942Y-35144D01*
X36942Y-35131D01*
X36928Y-35105D01*
X36914Y-35093D01*
X36885Y-35080D01*
X36828Y-35080D01*
X36800Y-35093D01*
X36785Y-35105D01*
X36771Y-35131D01*
X36771Y-35144D01*
X36785Y-35170D01*
X36800Y-35183D01*
X36828Y-35195D01*
X36885Y-35195D01*
X36914Y-35208D01*
X36928Y-35221D01*
X36942Y-35247D01*
X36942Y-35298D01*
X36928Y-35324D01*
X36914Y-35337D01*
X36885Y-35350D01*
X36828Y-35350D01*
X36800Y-35337D01*
X36785Y-35324D01*
X36771Y-35298D01*
X36771Y-35247D01*
X36785Y-35221D01*
X36800Y-35208D01*
X36828Y-35195D01*
X36642Y-35324D02*
X36628Y-35337D01*
X36642Y-35350D01*
X36657Y-35337D01*
X36642Y-35324D01*
X36642Y-35350D01*
X36371Y-35080D02*
X36428Y-35080D01*
X36457Y-35093D01*
X36471Y-35105D01*
X36500Y-35144D01*
X36514Y-35195D01*
X36514Y-35298D01*
X36500Y-35324D01*
X36485Y-35337D01*
X36457Y-35350D01*
X36400Y-35350D01*
X36371Y-35337D01*
X36357Y-35324D01*
X36342Y-35298D01*
X36342Y-35234D01*
X36357Y-35208D01*
X36371Y-35195D01*
X36400Y-35183D01*
X36457Y-35183D01*
X36485Y-35195D01*
X36500Y-35208D01*
X36514Y-35234D01*
X37228Y-35922D02*
X37228Y-35652D01*
X37085Y-35922D02*
X37085Y-35652D01*
X36914Y-35922D01*
X36914Y-35652D01*
X36814Y-35652D02*
X36642Y-35652D01*
X36728Y-35922D02*
X36728Y-35652D01*
X36485Y-35652D02*
X36457Y-35652D01*
X36428Y-35665D01*
X36414Y-35677D01*
X36400Y-35703D01*
X36385Y-35755D01*
X36385Y-35819D01*
X36400Y-35870D01*
X36414Y-35896D01*
X36428Y-35909D01*
X36457Y-35922D01*
X36485Y-35922D01*
X36514Y-35909D01*
X36528Y-35896D01*
X36542Y-35870D01*
X36557Y-35819D01*
X36557Y-35755D01*
X36542Y-35703D01*
X36528Y-35677D01*
X36514Y-35665D01*
X36485Y-35652D01*
X37228Y-36350D02*
X37228Y-36080D01*
X37114Y-36080D01*
X37085Y-36093D01*
X37071Y-36105D01*
X37057Y-36131D01*
X37057Y-36170D01*
X37071Y-36195D01*
X37085Y-36208D01*
X37114Y-36221D01*
X37228Y-36221D01*
X36942Y-36105D02*
X36928Y-36093D01*
X36900Y-36080D01*
X36828Y-36080D01*
X36800Y-36093D01*
X36785Y-36105D01*
X36771Y-36131D01*
X36771Y-36157D01*
X36785Y-36195D01*
X36957Y-36350D01*
X36771Y-36350D01*
X36642Y-36324D02*
X36628Y-36337D01*
X36642Y-36350D01*
X36657Y-36337D01*
X36642Y-36324D01*
X36642Y-36350D01*
X36442Y-36080D02*
X36414Y-36080D01*
X36385Y-36093D01*
X36371Y-36105D01*
X36357Y-36131D01*
X36342Y-36183D01*
X36342Y-36247D01*
X36357Y-36298D01*
X36371Y-36324D01*
X36385Y-36337D01*
X36414Y-36350D01*
X36442Y-36350D01*
X36471Y-36337D01*
X36485Y-36324D01*
X36500Y-36298D01*
X36514Y-36247D01*
X36514Y-36183D01*
X36500Y-36131D01*
X36485Y-36105D01*
X36471Y-36093D01*
X36442Y-36080D01*
X37242Y-25845D02*
X37100Y-25845D01*
X37271Y-25922D02*
X37171Y-25652D01*
X37071Y-25922D01*
X36971Y-25922D02*
X36971Y-25652D01*
X36900Y-25652D01*
X36857Y-25665D01*
X36828Y-25690D01*
X36814Y-25716D01*
X36800Y-25767D01*
X36800Y-25806D01*
X36814Y-25857D01*
X36828Y-25883D01*
X36857Y-25909D01*
X36900Y-25922D01*
X36971Y-25922D01*
X36500Y-25896D02*
X36514Y-25909D01*
X36557Y-25922D01*
X36585Y-25922D01*
X36628Y-25909D01*
X36657Y-25883D01*
X36671Y-25857D01*
X36685Y-25806D01*
X36685Y-25767D01*
X36671Y-25716D01*
X36657Y-25690D01*
X36628Y-25665D01*
X36585Y-25652D01*
X36557Y-25652D01*
X36514Y-25665D01*
X36500Y-25677D01*
X36242Y-25652D02*
X36300Y-25652D01*
X36328Y-25665D01*
X36342Y-25677D01*
X36371Y-25716D01*
X36385Y-25767D01*
X36385Y-25870D01*
X36371Y-25896D01*
X36357Y-25909D01*
X36328Y-25922D01*
X36271Y-25922D01*
X36242Y-25909D01*
X36228Y-25896D01*
X36214Y-25870D01*
X36214Y-25806D01*
X36228Y-25780D01*
X36242Y-25767D01*
X36271Y-25755D01*
X36328Y-25755D01*
X36357Y-25767D01*
X36371Y-25780D01*
X36385Y-25806D01*
X37228Y-26350D02*
X37228Y-26080D01*
X37114Y-26080D01*
X37085Y-26093D01*
X37071Y-26105D01*
X37057Y-26131D01*
X37057Y-26170D01*
X37071Y-26195D01*
X37085Y-26208D01*
X37114Y-26221D01*
X37228Y-26221D01*
X36800Y-26080D02*
X36857Y-26080D01*
X36885Y-26093D01*
X36900Y-26105D01*
X36928Y-26144D01*
X36942Y-26195D01*
X36942Y-26298D01*
X36928Y-26324D01*
X36914Y-26337D01*
X36885Y-26350D01*
X36828Y-26350D01*
X36800Y-26337D01*
X36785Y-26324D01*
X36771Y-26298D01*
X36771Y-26234D01*
X36785Y-26208D01*
X36800Y-26195D01*
X36828Y-26183D01*
X36885Y-26183D01*
X36914Y-26195D01*
X36928Y-26208D01*
X36942Y-26234D01*
X36642Y-26324D02*
X36628Y-26337D01*
X36642Y-26350D01*
X36657Y-26337D01*
X36642Y-26324D01*
X36642Y-26350D01*
X36371Y-26080D02*
X36428Y-26080D01*
X36457Y-26093D01*
X36471Y-26105D01*
X36500Y-26144D01*
X36514Y-26195D01*
X36514Y-26298D01*
X36500Y-26324D01*
X36485Y-26337D01*
X36457Y-26350D01*
X36400Y-26350D01*
X36371Y-26337D01*
X36357Y-26324D01*
X36342Y-26298D01*
X36342Y-26234D01*
X36357Y-26208D01*
X36371Y-26195D01*
X36400Y-26183D01*
X36457Y-26183D01*
X36485Y-26195D01*
X36500Y-26208D01*
X36514Y-26234D01*
G54D14*
X37350Y-22700D02*
X37350Y-24300D01*
G54D13*
X34896Y-21918D02*
X34909Y-21905D01*
X34922Y-21867D01*
X34922Y-21841D01*
X34909Y-21802D01*
X34883Y-21777D01*
X34857Y-21764D01*
X34806Y-21751D01*
X34767Y-21751D01*
X34716Y-21764D01*
X34690Y-21777D01*
X34665Y-21802D01*
X34652Y-21841D01*
X34652Y-21867D01*
X34665Y-21905D01*
X34677Y-21918D01*
X34896Y-22188D02*
X34909Y-22175D01*
X34922Y-22137D01*
X34922Y-22111D01*
X34909Y-22072D01*
X34883Y-22047D01*
X34857Y-22034D01*
X34806Y-22021D01*
X34767Y-22021D01*
X34716Y-22034D01*
X34690Y-22047D01*
X34665Y-22072D01*
X34652Y-22111D01*
X34652Y-22137D01*
X34665Y-22175D01*
X34677Y-22188D01*
X34947Y-22240D02*
X34947Y-22445D01*
X34665Y-22651D02*
X34652Y-22625D01*
X34652Y-22587D01*
X34665Y-22548D01*
X34690Y-22522D01*
X34716Y-22510D01*
X34767Y-22497D01*
X34806Y-22497D01*
X34857Y-22510D01*
X34883Y-22522D01*
X34909Y-22548D01*
X34922Y-22587D01*
X34922Y-22612D01*
X34909Y-22651D01*
X34896Y-22664D01*
X34806Y-22664D01*
X34806Y-22612D01*
X34922Y-22780D02*
X34652Y-22780D01*
X34652Y-22882D01*
X34665Y-22908D01*
X34677Y-22921D01*
X34703Y-22934D01*
X34742Y-22934D01*
X34767Y-22921D01*
X34780Y-22908D01*
X34793Y-22882D01*
X34793Y-22780D01*
X34922Y-23050D02*
X34652Y-23050D01*
X34652Y-23229D02*
X34652Y-23281D01*
X34665Y-23307D01*
X34690Y-23332D01*
X34742Y-23345D01*
X34832Y-23345D01*
X34883Y-23332D01*
X34909Y-23307D01*
X34922Y-23281D01*
X34922Y-23229D01*
X34909Y-23204D01*
X34883Y-23178D01*
X34832Y-23165D01*
X34742Y-23165D01*
X34690Y-23178D01*
X34665Y-23204D01*
X34652Y-23229D01*
X34742Y-23577D02*
X34922Y-23577D01*
X34639Y-23512D02*
X34832Y-23448D01*
X34832Y-23615D01*
X35350Y-21764D02*
X35080Y-21764D01*
X35080Y-21867D01*
X35093Y-21892D01*
X35105Y-21905D01*
X35131Y-21918D01*
X35170Y-21918D01*
X35195Y-21905D01*
X35208Y-21892D01*
X35221Y-21867D01*
X35221Y-21764D01*
X35350Y-22175D02*
X35350Y-22021D01*
X35350Y-22098D02*
X35080Y-22098D01*
X35118Y-22072D01*
X35144Y-22047D01*
X35157Y-22021D01*
X35324Y-22291D02*
X35337Y-22304D01*
X35350Y-22291D01*
X35337Y-22278D01*
X35324Y-22291D01*
X35350Y-22291D01*
X35105Y-22407D02*
X35093Y-22420D01*
X35080Y-22445D01*
X35080Y-22510D01*
X35093Y-22535D01*
X35105Y-22548D01*
X35131Y-22561D01*
X35157Y-22561D01*
X35195Y-22548D01*
X35350Y-22394D01*
X35350Y-22561D01*
G54D14*
X37350Y-24700D02*
X37350Y-26300D01*
X37350Y-26700D02*
X37350Y-28300D01*
X37350Y-28700D02*
X37350Y-31300D01*
X37350Y-31700D02*
X37350Y-33300D01*
X37350Y-33700D02*
X37350Y-35300D01*
X37350Y-35700D02*
X37350Y-36300D01*
G54D13*
X25896Y-21942D02*
X25909Y-21928D01*
X25922Y-21885D01*
X25922Y-21857D01*
X25909Y-21814D01*
X25883Y-21785D01*
X25857Y-21771D01*
X25806Y-21757D01*
X25767Y-21757D01*
X25716Y-21771D01*
X25690Y-21785D01*
X25665Y-21814D01*
X25652Y-21857D01*
X25652Y-21885D01*
X25665Y-21928D01*
X25677Y-21942D01*
X25896Y-22242D02*
X25909Y-22228D01*
X25922Y-22185D01*
X25922Y-22157D01*
X25909Y-22114D01*
X25883Y-22085D01*
X25857Y-22071D01*
X25806Y-22057D01*
X25767Y-22057D01*
X25716Y-22071D01*
X25690Y-22085D01*
X25665Y-22114D01*
X25652Y-22157D01*
X25652Y-22185D01*
X25665Y-22228D01*
X25677Y-22242D01*
X25947Y-22300D02*
X25947Y-22528D01*
X25652Y-22557D02*
X25922Y-22657D01*
X25652Y-22757D01*
X25922Y-23028D02*
X25793Y-22928D01*
X25922Y-22857D02*
X25652Y-22857D01*
X25652Y-22971D01*
X25665Y-23000D01*
X25677Y-23014D01*
X25703Y-23028D01*
X25742Y-23028D01*
X25767Y-23014D01*
X25780Y-23000D01*
X25793Y-22971D01*
X25793Y-22857D01*
X25780Y-23157D02*
X25780Y-23257D01*
X25922Y-23300D02*
X25922Y-23157D01*
X25652Y-23157D01*
X25652Y-23300D01*
X25665Y-23585D02*
X25652Y-23557D01*
X25652Y-23514D01*
X25665Y-23471D01*
X25690Y-23442D01*
X25716Y-23428D01*
X25767Y-23414D01*
X25806Y-23414D01*
X25857Y-23428D01*
X25883Y-23442D01*
X25909Y-23471D01*
X25922Y-23514D01*
X25922Y-23542D01*
X25909Y-23585D01*
X25896Y-23600D01*
X25806Y-23600D01*
X25806Y-23542D01*
X25947Y-23657D02*
X25947Y-23885D01*
X25780Y-23957D02*
X25780Y-24057D01*
X25922Y-24100D02*
X25922Y-23957D01*
X25652Y-23957D01*
X25652Y-24100D01*
X25922Y-24228D02*
X25652Y-24228D01*
X25922Y-24400D01*
X25652Y-24400D01*
X26350Y-21771D02*
X26080Y-21771D01*
X26080Y-21885D01*
X26093Y-21914D01*
X26105Y-21928D01*
X26131Y-21942D01*
X26170Y-21942D01*
X26195Y-21928D01*
X26208Y-21914D01*
X26221Y-21885D01*
X26221Y-21771D01*
X26350Y-22228D02*
X26350Y-22057D01*
X26350Y-22142D02*
X26080Y-22142D01*
X26118Y-22114D01*
X26144Y-22085D01*
X26157Y-22057D01*
X26324Y-22357D02*
X26337Y-22371D01*
X26350Y-22357D01*
X26337Y-22342D01*
X26324Y-22357D01*
X26350Y-22357D01*
X26080Y-22557D02*
X26080Y-22585D01*
X26093Y-22614D01*
X26105Y-22628D01*
X26131Y-22642D01*
X26183Y-22657D01*
X26247Y-22657D01*
X26298Y-22642D01*
X26324Y-22628D01*
X26337Y-22614D01*
X26350Y-22585D01*
X26350Y-22557D01*
X26337Y-22528D01*
X26324Y-22514D01*
X26298Y-22500D01*
X26247Y-22485D01*
X26183Y-22485D01*
X26131Y-22500D01*
X26105Y-22514D01*
X26093Y-22528D01*
X26080Y-22557D01*
X33896Y-21942D02*
X33909Y-21928D01*
X33922Y-21885D01*
X33922Y-21857D01*
X33909Y-21814D01*
X33883Y-21785D01*
X33857Y-21771D01*
X33806Y-21757D01*
X33767Y-21757D01*
X33716Y-21771D01*
X33690Y-21785D01*
X33665Y-21814D01*
X33652Y-21857D01*
X33652Y-21885D01*
X33665Y-21928D01*
X33677Y-21942D01*
X33896Y-22242D02*
X33909Y-22228D01*
X33922Y-22185D01*
X33922Y-22157D01*
X33909Y-22114D01*
X33883Y-22085D01*
X33857Y-22071D01*
X33806Y-22057D01*
X33767Y-22057D01*
X33716Y-22071D01*
X33690Y-22085D01*
X33665Y-22114D01*
X33652Y-22157D01*
X33652Y-22185D01*
X33665Y-22228D01*
X33677Y-22242D01*
X33947Y-22300D02*
X33947Y-22528D01*
X33665Y-22757D02*
X33652Y-22728D01*
X33652Y-22685D01*
X33665Y-22642D01*
X33690Y-22614D01*
X33716Y-22600D01*
X33767Y-22585D01*
X33806Y-22585D01*
X33857Y-22600D01*
X33883Y-22614D01*
X33909Y-22642D01*
X33922Y-22685D01*
X33922Y-22714D01*
X33909Y-22757D01*
X33896Y-22771D01*
X33806Y-22771D01*
X33806Y-22714D01*
X33922Y-22900D02*
X33652Y-22900D01*
X33652Y-23014D01*
X33665Y-23042D01*
X33677Y-23057D01*
X33703Y-23071D01*
X33742Y-23071D01*
X33767Y-23057D01*
X33780Y-23042D01*
X33793Y-23014D01*
X33793Y-22900D01*
X33922Y-23200D02*
X33652Y-23200D01*
X33652Y-23399D02*
X33652Y-23457D01*
X33665Y-23485D01*
X33690Y-23514D01*
X33742Y-23528D01*
X33832Y-23528D01*
X33883Y-23514D01*
X33909Y-23485D01*
X33922Y-23457D01*
X33922Y-23399D01*
X33909Y-23371D01*
X33883Y-23342D01*
X33832Y-23328D01*
X33742Y-23328D01*
X33690Y-23342D01*
X33665Y-23371D01*
X33652Y-23399D01*
X33652Y-23628D02*
X33652Y-23814D01*
X33755Y-23714D01*
X33755Y-23757D01*
X33767Y-23785D01*
X33780Y-23800D01*
X33806Y-23814D01*
X33870Y-23814D01*
X33896Y-23800D01*
X33909Y-23785D01*
X33922Y-23757D01*
X33922Y-23671D01*
X33909Y-23642D01*
X33896Y-23628D01*
X34350Y-21771D02*
X34080Y-21771D01*
X34080Y-21885D01*
X34093Y-21914D01*
X34105Y-21928D01*
X34131Y-21942D01*
X34170Y-21942D01*
X34195Y-21928D01*
X34208Y-21914D01*
X34221Y-21885D01*
X34221Y-21771D01*
X34350Y-22228D02*
X34350Y-22057D01*
X34350Y-22142D02*
X34080Y-22142D01*
X34118Y-22114D01*
X34144Y-22085D01*
X34157Y-22057D01*
X34324Y-22357D02*
X34337Y-22371D01*
X34350Y-22357D01*
X34337Y-22342D01*
X34324Y-22357D01*
X34350Y-22357D01*
X34350Y-22657D02*
X34350Y-22485D01*
X34350Y-22571D02*
X34080Y-22571D01*
X34118Y-22542D01*
X34144Y-22514D01*
X34157Y-22485D01*
X32896Y-21942D02*
X32909Y-21928D01*
X32922Y-21885D01*
X32922Y-21857D01*
X32909Y-21814D01*
X32883Y-21785D01*
X32857Y-21771D01*
X32806Y-21757D01*
X32767Y-21757D01*
X32716Y-21771D01*
X32690Y-21785D01*
X32665Y-21814D01*
X32652Y-21857D01*
X32652Y-21885D01*
X32665Y-21928D01*
X32677Y-21942D01*
X32896Y-22242D02*
X32909Y-22228D01*
X32922Y-22185D01*
X32922Y-22157D01*
X32909Y-22114D01*
X32883Y-22085D01*
X32857Y-22071D01*
X32806Y-22057D01*
X32767Y-22057D01*
X32716Y-22071D01*
X32690Y-22085D01*
X32665Y-22114D01*
X32652Y-22157D01*
X32652Y-22185D01*
X32665Y-22228D01*
X32677Y-22242D01*
X32947Y-22300D02*
X32947Y-22528D01*
X32665Y-22757D02*
X32652Y-22728D01*
X32652Y-22685D01*
X32665Y-22642D01*
X32690Y-22614D01*
X32716Y-22600D01*
X32767Y-22585D01*
X32806Y-22585D01*
X32857Y-22600D01*
X32883Y-22614D01*
X32909Y-22642D01*
X32922Y-22685D01*
X32922Y-22714D01*
X32909Y-22757D01*
X32896Y-22771D01*
X32806Y-22771D01*
X32806Y-22714D01*
X32922Y-22900D02*
X32652Y-22900D01*
X32652Y-23014D01*
X32665Y-23042D01*
X32677Y-23057D01*
X32703Y-23071D01*
X32742Y-23071D01*
X32767Y-23057D01*
X32780Y-23042D01*
X32793Y-23014D01*
X32793Y-22900D01*
X32922Y-23200D02*
X32652Y-23200D01*
X32652Y-23399D02*
X32652Y-23457D01*
X32665Y-23485D01*
X32690Y-23514D01*
X32742Y-23528D01*
X32832Y-23528D01*
X32883Y-23514D01*
X32909Y-23485D01*
X32922Y-23457D01*
X32922Y-23399D01*
X32909Y-23371D01*
X32883Y-23342D01*
X32832Y-23328D01*
X32742Y-23328D01*
X32690Y-23342D01*
X32665Y-23371D01*
X32652Y-23399D01*
X32677Y-23642D02*
X32665Y-23657D01*
X32652Y-23685D01*
X32652Y-23757D01*
X32665Y-23785D01*
X32677Y-23800D01*
X32703Y-23814D01*
X32729Y-23814D01*
X32767Y-23800D01*
X32922Y-23628D01*
X32922Y-23814D01*
X33350Y-21771D02*
X33080Y-21771D01*
X33080Y-21885D01*
X33093Y-21914D01*
X33105Y-21928D01*
X33131Y-21942D01*
X33170Y-21942D01*
X33195Y-21928D01*
X33208Y-21914D01*
X33221Y-21885D01*
X33221Y-21771D01*
X33350Y-22228D02*
X33350Y-22057D01*
X33350Y-22142D02*
X33080Y-22142D01*
X33118Y-22114D01*
X33144Y-22085D01*
X33157Y-22057D01*
X33324Y-22357D02*
X33337Y-22371D01*
X33350Y-22357D01*
X33337Y-22342D01*
X33324Y-22357D01*
X33350Y-22357D01*
X33080Y-22628D02*
X33080Y-22571D01*
X33093Y-22542D01*
X33105Y-22528D01*
X33144Y-22500D01*
X33195Y-22485D01*
X33298Y-22485D01*
X33324Y-22500D01*
X33337Y-22514D01*
X33350Y-22542D01*
X33350Y-22600D01*
X33337Y-22628D01*
X33324Y-22642D01*
X33298Y-22657D01*
X33234Y-22657D01*
X33208Y-22642D01*
X33195Y-22628D01*
X33183Y-22600D01*
X33183Y-22542D01*
X33195Y-22514D01*
X33208Y-22500D01*
X33234Y-22485D01*
X31896Y-21942D02*
X31909Y-21928D01*
X31922Y-21885D01*
X31922Y-21857D01*
X31909Y-21814D01*
X31883Y-21785D01*
X31857Y-21771D01*
X31806Y-21757D01*
X31767Y-21757D01*
X31716Y-21771D01*
X31690Y-21785D01*
X31665Y-21814D01*
X31652Y-21857D01*
X31652Y-21885D01*
X31665Y-21928D01*
X31677Y-21942D01*
X31896Y-22242D02*
X31909Y-22228D01*
X31922Y-22185D01*
X31922Y-22157D01*
X31909Y-22114D01*
X31883Y-22085D01*
X31857Y-22071D01*
X31806Y-22057D01*
X31767Y-22057D01*
X31716Y-22071D01*
X31690Y-22085D01*
X31665Y-22114D01*
X31652Y-22157D01*
X31652Y-22185D01*
X31665Y-22228D01*
X31677Y-22242D01*
X31947Y-22300D02*
X31947Y-22528D01*
X31665Y-22757D02*
X31652Y-22728D01*
X31652Y-22685D01*
X31665Y-22642D01*
X31690Y-22614D01*
X31716Y-22600D01*
X31767Y-22585D01*
X31806Y-22585D01*
X31857Y-22600D01*
X31883Y-22614D01*
X31909Y-22642D01*
X31922Y-22685D01*
X31922Y-22714D01*
X31909Y-22757D01*
X31896Y-22771D01*
X31806Y-22771D01*
X31806Y-22714D01*
X31922Y-22900D02*
X31652Y-22900D01*
X31652Y-23014D01*
X31665Y-23042D01*
X31677Y-23057D01*
X31703Y-23071D01*
X31742Y-23071D01*
X31767Y-23057D01*
X31780Y-23042D01*
X31793Y-23014D01*
X31793Y-22900D01*
X31922Y-23200D02*
X31652Y-23200D01*
X31652Y-23399D02*
X31652Y-23457D01*
X31665Y-23485D01*
X31690Y-23514D01*
X31742Y-23528D01*
X31832Y-23528D01*
X31883Y-23514D01*
X31909Y-23485D01*
X31922Y-23457D01*
X31922Y-23399D01*
X31909Y-23371D01*
X31883Y-23342D01*
X31832Y-23328D01*
X31742Y-23328D01*
X31690Y-23342D01*
X31665Y-23371D01*
X31652Y-23399D01*
X31922Y-23814D02*
X31922Y-23642D01*
X31922Y-23728D02*
X31652Y-23728D01*
X31690Y-23700D01*
X31716Y-23671D01*
X31729Y-23642D01*
X32350Y-21771D02*
X32080Y-21771D01*
X32080Y-21885D01*
X32093Y-21914D01*
X32105Y-21928D01*
X32131Y-21942D01*
X32170Y-21942D01*
X32195Y-21928D01*
X32208Y-21914D01*
X32221Y-21885D01*
X32221Y-21771D01*
X32350Y-22228D02*
X32350Y-22057D01*
X32350Y-22142D02*
X32080Y-22142D01*
X32118Y-22114D01*
X32144Y-22085D01*
X32157Y-22057D01*
X32324Y-22357D02*
X32337Y-22371D01*
X32350Y-22357D01*
X32337Y-22342D01*
X32324Y-22357D01*
X32350Y-22357D01*
X32080Y-22642D02*
X32080Y-22500D01*
X32208Y-22485D01*
X32195Y-22500D01*
X32183Y-22528D01*
X32183Y-22600D01*
X32195Y-22628D01*
X32208Y-22642D01*
X32234Y-22657D01*
X32298Y-22657D01*
X32324Y-22642D01*
X32337Y-22628D01*
X32350Y-22600D01*
X32350Y-22528D01*
X32337Y-22500D01*
X32324Y-22485D01*
X30896Y-21942D02*
X30909Y-21928D01*
X30922Y-21885D01*
X30922Y-21857D01*
X30909Y-21814D01*
X30883Y-21785D01*
X30857Y-21771D01*
X30806Y-21757D01*
X30767Y-21757D01*
X30716Y-21771D01*
X30690Y-21785D01*
X30665Y-21814D01*
X30652Y-21857D01*
X30652Y-21885D01*
X30665Y-21928D01*
X30677Y-21942D01*
X30896Y-22242D02*
X30909Y-22228D01*
X30922Y-22185D01*
X30922Y-22157D01*
X30909Y-22114D01*
X30883Y-22085D01*
X30857Y-22071D01*
X30806Y-22057D01*
X30767Y-22057D01*
X30716Y-22071D01*
X30690Y-22085D01*
X30665Y-22114D01*
X30652Y-22157D01*
X30652Y-22185D01*
X30665Y-22228D01*
X30677Y-22242D01*
X30947Y-22300D02*
X30947Y-22528D01*
X30665Y-22757D02*
X30652Y-22728D01*
X30652Y-22685D01*
X30665Y-22642D01*
X30690Y-22614D01*
X30716Y-22600D01*
X30767Y-22585D01*
X30806Y-22585D01*
X30857Y-22600D01*
X30883Y-22614D01*
X30909Y-22642D01*
X30922Y-22685D01*
X30922Y-22714D01*
X30909Y-22757D01*
X30896Y-22771D01*
X30806Y-22771D01*
X30806Y-22714D01*
X30922Y-22900D02*
X30652Y-22900D01*
X30652Y-23014D01*
X30665Y-23042D01*
X30677Y-23057D01*
X30703Y-23071D01*
X30742Y-23071D01*
X30767Y-23057D01*
X30780Y-23042D01*
X30793Y-23014D01*
X30793Y-22900D01*
X30922Y-23200D02*
X30652Y-23200D01*
X30652Y-23399D02*
X30652Y-23457D01*
X30665Y-23485D01*
X30690Y-23514D01*
X30742Y-23528D01*
X30832Y-23528D01*
X30883Y-23514D01*
X30909Y-23485D01*
X30922Y-23457D01*
X30922Y-23399D01*
X30909Y-23371D01*
X30883Y-23342D01*
X30832Y-23328D01*
X30742Y-23328D01*
X30690Y-23342D01*
X30665Y-23371D01*
X30652Y-23399D01*
X30652Y-23714D02*
X30652Y-23742D01*
X30665Y-23771D01*
X30677Y-23785D01*
X30703Y-23800D01*
X30755Y-23814D01*
X30819Y-23814D01*
X30870Y-23800D01*
X30896Y-23785D01*
X30909Y-23771D01*
X30922Y-23742D01*
X30922Y-23714D01*
X30909Y-23685D01*
X30896Y-23671D01*
X30870Y-23657D01*
X30819Y-23642D01*
X30755Y-23642D01*
X30703Y-23657D01*
X30677Y-23671D01*
X30665Y-23685D01*
X30652Y-23714D01*
X31350Y-21771D02*
X31080Y-21771D01*
X31080Y-21885D01*
X31093Y-21914D01*
X31105Y-21928D01*
X31131Y-21942D01*
X31170Y-21942D01*
X31195Y-21928D01*
X31208Y-21914D01*
X31221Y-21885D01*
X31221Y-21771D01*
X31350Y-22228D02*
X31350Y-22057D01*
X31350Y-22142D02*
X31080Y-22142D01*
X31118Y-22114D01*
X31144Y-22085D01*
X31157Y-22057D01*
X31324Y-22357D02*
X31337Y-22371D01*
X31350Y-22357D01*
X31337Y-22342D01*
X31324Y-22357D01*
X31350Y-22357D01*
X31080Y-22471D02*
X31080Y-22657D01*
X31183Y-22557D01*
X31183Y-22600D01*
X31195Y-22628D01*
X31208Y-22642D01*
X31234Y-22657D01*
X31298Y-22657D01*
X31324Y-22642D01*
X31337Y-22628D01*
X31350Y-22600D01*
X31350Y-22514D01*
X31337Y-22485D01*
X31324Y-22471D01*
X29896Y-21942D02*
X29909Y-21928D01*
X29922Y-21885D01*
X29922Y-21857D01*
X29909Y-21814D01*
X29883Y-21785D01*
X29857Y-21771D01*
X29806Y-21757D01*
X29767Y-21757D01*
X29716Y-21771D01*
X29690Y-21785D01*
X29665Y-21814D01*
X29652Y-21857D01*
X29652Y-21885D01*
X29665Y-21928D01*
X29677Y-21942D01*
X29909Y-22057D02*
X29922Y-22100D01*
X29922Y-22171D01*
X29909Y-22200D01*
X29896Y-22214D01*
X29870Y-22228D01*
X29845Y-22228D01*
X29819Y-22214D01*
X29806Y-22200D01*
X29793Y-22171D01*
X29780Y-22114D01*
X29767Y-22085D01*
X29755Y-22071D01*
X29729Y-22057D01*
X29703Y-22057D01*
X29677Y-22071D01*
X29665Y-22085D01*
X29652Y-22114D01*
X29652Y-22185D01*
X29665Y-22228D01*
X29677Y-22342D02*
X29665Y-22357D01*
X29652Y-22385D01*
X29652Y-22457D01*
X29665Y-22485D01*
X29677Y-22500D01*
X29703Y-22514D01*
X29729Y-22514D01*
X29767Y-22500D01*
X29922Y-22328D01*
X29922Y-22514D01*
X30350Y-21771D02*
X30080Y-21771D01*
X30080Y-21885D01*
X30093Y-21914D01*
X30105Y-21928D01*
X30131Y-21942D01*
X30170Y-21942D01*
X30195Y-21928D01*
X30208Y-21914D01*
X30221Y-21885D01*
X30221Y-21771D01*
X30170Y-22200D02*
X30350Y-22200D01*
X30067Y-22128D02*
X30260Y-22057D01*
X30260Y-22242D01*
X30324Y-22357D02*
X30337Y-22371D01*
X30350Y-22357D01*
X30337Y-22342D01*
X30324Y-22357D01*
X30350Y-22357D01*
X30080Y-22471D02*
X30080Y-22657D01*
X30183Y-22557D01*
X30183Y-22600D01*
X30195Y-22628D01*
X30208Y-22642D01*
X30234Y-22657D01*
X30298Y-22657D01*
X30324Y-22642D01*
X30337Y-22628D01*
X30350Y-22600D01*
X30350Y-22514D01*
X30337Y-22485D01*
X30324Y-22471D01*
X28896Y-21942D02*
X28909Y-21928D01*
X28922Y-21885D01*
X28922Y-21857D01*
X28909Y-21814D01*
X28883Y-21785D01*
X28857Y-21771D01*
X28806Y-21757D01*
X28767Y-21757D01*
X28716Y-21771D01*
X28690Y-21785D01*
X28665Y-21814D01*
X28652Y-21857D01*
X28652Y-21885D01*
X28665Y-21928D01*
X28677Y-21942D01*
X28896Y-22242D02*
X28909Y-22228D01*
X28922Y-22185D01*
X28922Y-22157D01*
X28909Y-22114D01*
X28883Y-22085D01*
X28857Y-22071D01*
X28806Y-22057D01*
X28767Y-22057D01*
X28716Y-22071D01*
X28690Y-22085D01*
X28665Y-22114D01*
X28652Y-22157D01*
X28652Y-22185D01*
X28665Y-22228D01*
X28677Y-22242D01*
X28947Y-22300D02*
X28947Y-22528D01*
X28922Y-22600D02*
X28652Y-22600D01*
X28652Y-22714D01*
X28665Y-22742D01*
X28677Y-22757D01*
X28703Y-22771D01*
X28742Y-22771D01*
X28767Y-22757D01*
X28780Y-22742D01*
X28793Y-22714D01*
X28793Y-22600D01*
X28922Y-22900D02*
X28652Y-22900D01*
X28845Y-23000D01*
X28652Y-23100D01*
X28922Y-23100D01*
X29350Y-21771D02*
X29080Y-21771D01*
X29080Y-21885D01*
X29093Y-21914D01*
X29105Y-21928D01*
X29131Y-21942D01*
X29170Y-21942D01*
X29195Y-21928D01*
X29208Y-21914D01*
X29221Y-21885D01*
X29221Y-21771D01*
X29170Y-22200D02*
X29350Y-22200D01*
X29067Y-22128D02*
X29260Y-22057D01*
X29260Y-22242D01*
X29324Y-22357D02*
X29337Y-22371D01*
X29350Y-22357D01*
X29337Y-22342D01*
X29324Y-22357D01*
X29350Y-22357D01*
X29105Y-22485D02*
X29093Y-22500D01*
X29080Y-22528D01*
X29080Y-22600D01*
X29093Y-22628D01*
X29105Y-22642D01*
X29131Y-22657D01*
X29157Y-22657D01*
X29195Y-22642D01*
X29350Y-22471D01*
X29350Y-22657D01*
X27896Y-21942D02*
X27909Y-21928D01*
X27922Y-21885D01*
X27922Y-21857D01*
X27909Y-21814D01*
X27883Y-21785D01*
X27857Y-21771D01*
X27806Y-21757D01*
X27767Y-21757D01*
X27716Y-21771D01*
X27690Y-21785D01*
X27665Y-21814D01*
X27652Y-21857D01*
X27652Y-21885D01*
X27665Y-21928D01*
X27677Y-21942D01*
X27896Y-22242D02*
X27909Y-22228D01*
X27922Y-22185D01*
X27922Y-22157D01*
X27909Y-22114D01*
X27883Y-22085D01*
X27857Y-22071D01*
X27806Y-22057D01*
X27767Y-22057D01*
X27716Y-22071D01*
X27690Y-22085D01*
X27665Y-22114D01*
X27652Y-22157D01*
X27652Y-22185D01*
X27665Y-22228D01*
X27677Y-22242D01*
X27947Y-22300D02*
X27947Y-22528D01*
X27922Y-22771D02*
X27793Y-22671D01*
X27922Y-22600D02*
X27652Y-22600D01*
X27652Y-22714D01*
X27665Y-22742D01*
X27677Y-22757D01*
X27703Y-22771D01*
X27742Y-22771D01*
X27767Y-22757D01*
X27780Y-22742D01*
X27793Y-22714D01*
X27793Y-22600D01*
X27909Y-22885D02*
X27922Y-22928D01*
X27922Y-23000D01*
X27909Y-23028D01*
X27896Y-23042D01*
X27870Y-23057D01*
X27845Y-23057D01*
X27819Y-23042D01*
X27806Y-23028D01*
X27793Y-23000D01*
X27780Y-22942D01*
X27767Y-22914D01*
X27755Y-22900D01*
X27729Y-22885D01*
X27703Y-22885D01*
X27677Y-22900D01*
X27665Y-22914D01*
X27652Y-22942D01*
X27652Y-23014D01*
X27665Y-23057D01*
X27652Y-23142D02*
X27652Y-23314D01*
X27922Y-23228D02*
X27652Y-23228D01*
X28350Y-21771D02*
X28080Y-21771D01*
X28080Y-21885D01*
X28093Y-21914D01*
X28105Y-21928D01*
X28131Y-21942D01*
X28170Y-21942D01*
X28195Y-21928D01*
X28208Y-21914D01*
X28221Y-21885D01*
X28221Y-21771D01*
X28170Y-22200D02*
X28350Y-22200D01*
X28067Y-22128D02*
X28260Y-22057D01*
X28260Y-22242D01*
X28324Y-22357D02*
X28337Y-22371D01*
X28350Y-22357D01*
X28337Y-22342D01*
X28324Y-22357D01*
X28350Y-22357D01*
X28080Y-22557D02*
X28080Y-22585D01*
X28093Y-22614D01*
X28105Y-22628D01*
X28131Y-22642D01*
X28183Y-22657D01*
X28247Y-22657D01*
X28298Y-22642D01*
X28324Y-22628D01*
X28337Y-22614D01*
X28350Y-22585D01*
X28350Y-22557D01*
X28337Y-22528D01*
X28324Y-22514D01*
X28298Y-22500D01*
X28247Y-22485D01*
X28183Y-22485D01*
X28131Y-22500D01*
X28105Y-22514D01*
X28093Y-22528D01*
X28080Y-22557D01*
X26896Y-21942D02*
X26909Y-21928D01*
X26922Y-21885D01*
X26922Y-21857D01*
X26909Y-21814D01*
X26883Y-21785D01*
X26857Y-21771D01*
X26806Y-21757D01*
X26767Y-21757D01*
X26716Y-21771D01*
X26690Y-21785D01*
X26665Y-21814D01*
X26652Y-21857D01*
X26652Y-21885D01*
X26665Y-21928D01*
X26677Y-21942D01*
X26896Y-22242D02*
X26909Y-22228D01*
X26922Y-22185D01*
X26922Y-22157D01*
X26909Y-22114D01*
X26883Y-22085D01*
X26857Y-22071D01*
X26806Y-22057D01*
X26767Y-22057D01*
X26716Y-22071D01*
X26690Y-22085D01*
X26665Y-22114D01*
X26652Y-22157D01*
X26652Y-22185D01*
X26665Y-22228D01*
X26677Y-22242D01*
X26947Y-22300D02*
X26947Y-22528D01*
X26896Y-22771D02*
X26909Y-22757D01*
X26922Y-22714D01*
X26922Y-22685D01*
X26909Y-22642D01*
X26883Y-22614D01*
X26857Y-22600D01*
X26806Y-22585D01*
X26767Y-22585D01*
X26716Y-22600D01*
X26690Y-22614D01*
X26665Y-22642D01*
X26652Y-22685D01*
X26652Y-22714D01*
X26665Y-22757D01*
X26677Y-22771D01*
X26909Y-22885D02*
X26922Y-22928D01*
X26922Y-23000D01*
X26909Y-23028D01*
X26896Y-23042D01*
X26870Y-23057D01*
X26845Y-23057D01*
X26819Y-23042D01*
X26806Y-23028D01*
X26793Y-23000D01*
X26780Y-22942D01*
X26767Y-22914D01*
X26755Y-22900D01*
X26729Y-22885D01*
X26703Y-22885D01*
X26677Y-22900D01*
X26665Y-22914D01*
X26652Y-22942D01*
X26652Y-23014D01*
X26665Y-23057D01*
X27350Y-21771D02*
X27080Y-21771D01*
X27080Y-21885D01*
X27093Y-21914D01*
X27105Y-21928D01*
X27131Y-21942D01*
X27170Y-21942D01*
X27195Y-21928D01*
X27208Y-21914D01*
X27221Y-21885D01*
X27221Y-21771D01*
X27170Y-22200D02*
X27350Y-22200D01*
X27067Y-22128D02*
X27260Y-22057D01*
X27260Y-22242D01*
X27324Y-22357D02*
X27337Y-22371D01*
X27350Y-22357D01*
X27337Y-22342D01*
X27324Y-22357D01*
X27350Y-22357D01*
X27350Y-22657D02*
X27350Y-22485D01*
X27350Y-22571D02*
X27080Y-22571D01*
X27118Y-22542D01*
X27144Y-22514D01*
X27157Y-22485D01*
X24896Y-21942D02*
X24909Y-21928D01*
X24922Y-21885D01*
X24922Y-21857D01*
X24909Y-21814D01*
X24883Y-21785D01*
X24857Y-21771D01*
X24806Y-21757D01*
X24767Y-21757D01*
X24716Y-21771D01*
X24690Y-21785D01*
X24665Y-21814D01*
X24652Y-21857D01*
X24652Y-21885D01*
X24665Y-21928D01*
X24677Y-21942D01*
X24896Y-22242D02*
X24909Y-22228D01*
X24922Y-22185D01*
X24922Y-22157D01*
X24909Y-22114D01*
X24883Y-22085D01*
X24857Y-22071D01*
X24806Y-22057D01*
X24767Y-22057D01*
X24716Y-22071D01*
X24690Y-22085D01*
X24665Y-22114D01*
X24652Y-22157D01*
X24652Y-22185D01*
X24665Y-22228D01*
X24677Y-22242D01*
X24947Y-22300D02*
X24947Y-22528D01*
X24909Y-22585D02*
X24922Y-22628D01*
X24922Y-22700D01*
X24909Y-22728D01*
X24896Y-22742D01*
X24870Y-22757D01*
X24845Y-22757D01*
X24819Y-22742D01*
X24806Y-22728D01*
X24793Y-22700D01*
X24780Y-22642D01*
X24767Y-22614D01*
X24755Y-22600D01*
X24729Y-22585D01*
X24703Y-22585D01*
X24677Y-22600D01*
X24665Y-22614D01*
X24652Y-22642D01*
X24652Y-22714D01*
X24665Y-22757D01*
X24896Y-23057D02*
X24909Y-23042D01*
X24922Y-22999D01*
X24922Y-22971D01*
X24909Y-22928D01*
X24883Y-22899D01*
X24857Y-22885D01*
X24806Y-22871D01*
X24767Y-22871D01*
X24716Y-22885D01*
X24690Y-22899D01*
X24665Y-22928D01*
X24652Y-22971D01*
X24652Y-22999D01*
X24665Y-23042D01*
X24677Y-23057D01*
X24922Y-23185D02*
X24652Y-23185D01*
X24922Y-23357D02*
X24767Y-23228D01*
X24652Y-23357D02*
X24806Y-23185D01*
X25350Y-21771D02*
X25080Y-21771D01*
X25080Y-21885D01*
X25093Y-21914D01*
X25105Y-21928D01*
X25131Y-21942D01*
X25170Y-21942D01*
X25195Y-21928D01*
X25208Y-21914D01*
X25221Y-21885D01*
X25221Y-21771D01*
X25080Y-22214D02*
X25080Y-22071D01*
X25208Y-22057D01*
X25195Y-22071D01*
X25183Y-22100D01*
X25183Y-22171D01*
X25195Y-22200D01*
X25208Y-22214D01*
X25234Y-22228D01*
X25298Y-22228D01*
X25324Y-22214D01*
X25337Y-22200D01*
X25350Y-22171D01*
X25350Y-22100D01*
X25337Y-22071D01*
X25324Y-22057D01*
X25324Y-22357D02*
X25337Y-22371D01*
X25350Y-22357D01*
X25337Y-22342D01*
X25324Y-22357D01*
X25350Y-22357D01*
X25080Y-22642D02*
X25080Y-22500D01*
X25208Y-22485D01*
X25195Y-22500D01*
X25183Y-22528D01*
X25183Y-22600D01*
X25195Y-22628D01*
X25208Y-22642D01*
X25234Y-22657D01*
X25298Y-22657D01*
X25324Y-22642D01*
X25337Y-22628D01*
X25350Y-22600D01*
X25350Y-22528D01*
X25337Y-22500D01*
X25324Y-22485D01*
X23896Y-21942D02*
X23909Y-21928D01*
X23922Y-21885D01*
X23922Y-21857D01*
X23909Y-21814D01*
X23883Y-21785D01*
X23857Y-21771D01*
X23806Y-21757D01*
X23767Y-21757D01*
X23716Y-21771D01*
X23690Y-21785D01*
X23665Y-21814D01*
X23652Y-21857D01*
X23652Y-21885D01*
X23665Y-21928D01*
X23677Y-21942D01*
X23896Y-22242D02*
X23909Y-22228D01*
X23922Y-22185D01*
X23922Y-22157D01*
X23909Y-22114D01*
X23883Y-22085D01*
X23857Y-22071D01*
X23806Y-22057D01*
X23767Y-22057D01*
X23716Y-22071D01*
X23690Y-22085D01*
X23665Y-22114D01*
X23652Y-22157D01*
X23652Y-22185D01*
X23665Y-22228D01*
X23677Y-22242D01*
X23947Y-22300D02*
X23947Y-22528D01*
X23922Y-22600D02*
X23652Y-22600D01*
X23845Y-22700D01*
X23652Y-22800D01*
X23922Y-22800D01*
X23652Y-22999D02*
X23652Y-23057D01*
X23665Y-23085D01*
X23690Y-23114D01*
X23742Y-23128D01*
X23832Y-23128D01*
X23883Y-23114D01*
X23909Y-23085D01*
X23922Y-23057D01*
X23922Y-22999D01*
X23909Y-22971D01*
X23883Y-22942D01*
X23832Y-22928D01*
X23742Y-22928D01*
X23690Y-22942D01*
X23665Y-22971D01*
X23652Y-22999D01*
X23909Y-23242D02*
X23922Y-23285D01*
X23922Y-23357D01*
X23909Y-23385D01*
X23896Y-23400D01*
X23870Y-23414D01*
X23845Y-23414D01*
X23819Y-23400D01*
X23806Y-23385D01*
X23793Y-23357D01*
X23780Y-23300D01*
X23767Y-23271D01*
X23755Y-23257D01*
X23729Y-23242D01*
X23703Y-23242D01*
X23677Y-23257D01*
X23665Y-23271D01*
X23652Y-23300D01*
X23652Y-23371D01*
X23665Y-23414D01*
X23922Y-23542D02*
X23652Y-23542D01*
X24350Y-21771D02*
X24080Y-21771D01*
X24080Y-21885D01*
X24093Y-21914D01*
X24105Y-21928D01*
X24131Y-21942D01*
X24170Y-21942D01*
X24195Y-21928D01*
X24208Y-21914D01*
X24221Y-21885D01*
X24221Y-21771D01*
X24080Y-22042D02*
X24080Y-22228D01*
X24183Y-22128D01*
X24183Y-22171D01*
X24195Y-22200D01*
X24208Y-22214D01*
X24234Y-22228D01*
X24298Y-22228D01*
X24324Y-22214D01*
X24337Y-22200D01*
X24350Y-22171D01*
X24350Y-22085D01*
X24337Y-22057D01*
X24324Y-22042D01*
X24324Y-22357D02*
X24337Y-22371D01*
X24350Y-22357D01*
X24337Y-22342D01*
X24324Y-22357D01*
X24350Y-22357D01*
X24080Y-22471D02*
X24080Y-22671D01*
X24350Y-22542D01*
X22972Y-21771D02*
X22702Y-21771D01*
X22702Y-21885D01*
X22715Y-21914D01*
X22727Y-21928D01*
X22753Y-21942D01*
X22792Y-21942D01*
X22817Y-21928D01*
X22830Y-21914D01*
X22843Y-21885D01*
X22843Y-21771D01*
X22702Y-22214D02*
X22702Y-22071D01*
X22830Y-22057D01*
X22817Y-22071D01*
X22805Y-22100D01*
X22805Y-22171D01*
X22817Y-22200D01*
X22830Y-22214D01*
X22856Y-22228D01*
X22920Y-22228D01*
X22946Y-22214D01*
X22959Y-22200D01*
X22972Y-22171D01*
X22972Y-22100D01*
X22959Y-22071D01*
X22946Y-22057D01*
X22946Y-22357D02*
X22959Y-22371D01*
X22972Y-22357D01*
X22959Y-22342D01*
X22946Y-22357D01*
X22972Y-22357D01*
X22792Y-22628D02*
X22972Y-22628D01*
X22689Y-22557D02*
X22882Y-22485D01*
X22882Y-22671D01*
X23374Y-21942D02*
X23387Y-21928D01*
X23400Y-21885D01*
X23400Y-21857D01*
X23387Y-21814D01*
X23361Y-21785D01*
X23335Y-21771D01*
X23284Y-21757D01*
X23245Y-21757D01*
X23194Y-21771D01*
X23168Y-21785D01*
X23143Y-21814D01*
X23130Y-21857D01*
X23130Y-21885D01*
X23143Y-21928D01*
X23155Y-21942D01*
X23374Y-22242D02*
X23387Y-22228D01*
X23400Y-22185D01*
X23400Y-22157D01*
X23387Y-22114D01*
X23361Y-22085D01*
X23335Y-22071D01*
X23284Y-22057D01*
X23245Y-22057D01*
X23194Y-22071D01*
X23168Y-22085D01*
X23143Y-22114D01*
X23130Y-22157D01*
X23130Y-22185D01*
X23143Y-22228D01*
X23155Y-22242D01*
X23425Y-22300D02*
X23425Y-22528D01*
X23400Y-22600D02*
X23130Y-22600D01*
X23323Y-22700D01*
X23130Y-22800D01*
X23400Y-22800D01*
X23400Y-22942D02*
X23130Y-22942D01*
X23387Y-23071D02*
X23400Y-23114D01*
X23400Y-23185D01*
X23387Y-23214D01*
X23374Y-23228D01*
X23348Y-23242D01*
X23323Y-23242D01*
X23297Y-23228D01*
X23284Y-23214D01*
X23271Y-23185D01*
X23258Y-23128D01*
X23245Y-23099D01*
X23233Y-23085D01*
X23207Y-23071D01*
X23181Y-23071D01*
X23155Y-23085D01*
X23143Y-23099D01*
X23130Y-23128D01*
X23130Y-23199D01*
X23143Y-23242D01*
X23130Y-23428D02*
X23130Y-23485D01*
X23143Y-23514D01*
X23168Y-23542D01*
X23220Y-23557D01*
X23310Y-23557D01*
X23361Y-23542D01*
X23387Y-23514D01*
X23400Y-23485D01*
X23400Y-23428D01*
X23387Y-23399D01*
X23361Y-23371D01*
X23310Y-23357D01*
X23220Y-23357D01*
X23168Y-23371D01*
X23143Y-23399D01*
X23130Y-23428D01*
G54D14*
X36300Y-21650D02*
X30700Y-21650D01*
X22750Y-21650D02*
X24300Y-21650D01*
X24700Y-21650D02*
X30300Y-21650D01*
G54D13*
X22599Y-25922D02*
X22599Y-25652D01*
X22457Y-25922D02*
X22457Y-25652D01*
X22285Y-25922D01*
X22285Y-25652D01*
X22185Y-25652D02*
X22014Y-25652D01*
X22099Y-25922D02*
X22099Y-25652D01*
X21785Y-25742D02*
X21785Y-25922D01*
X21857Y-25639D02*
X21928Y-25832D01*
X21742Y-25832D01*
X22642Y-26350D02*
X22642Y-26080D01*
X22528Y-26080D01*
X22499Y-26093D01*
X22485Y-26105D01*
X22471Y-26131D01*
X22471Y-26170D01*
X22485Y-26195D01*
X22499Y-26208D01*
X22528Y-26221D01*
X22642Y-26221D01*
X22357Y-26105D02*
X22342Y-26093D01*
X22314Y-26080D01*
X22242Y-26080D01*
X22214Y-26093D01*
X22199Y-26105D01*
X22185Y-26131D01*
X22185Y-26157D01*
X22199Y-26195D01*
X22371Y-26350D01*
X22185Y-26350D01*
X22057Y-26324D02*
X22042Y-26337D01*
X22057Y-26350D01*
X22071Y-26337D01*
X22057Y-26324D01*
X22057Y-26350D01*
X21942Y-26080D02*
X21742Y-26080D01*
X21871Y-26350D01*
X21922Y-36385D02*
X21922Y-36200D01*
X21820Y-36300D01*
X21820Y-36257D01*
X21807Y-36228D01*
X21794Y-36214D01*
X21768Y-36200D01*
X21704Y-36200D01*
X21678Y-36214D01*
X21665Y-36228D01*
X21652Y-36257D01*
X21652Y-36342D01*
X21665Y-36371D01*
X21678Y-36385D01*
X21922Y-36114D02*
X21652Y-36014D01*
X21922Y-35914D01*
X21922Y-35842D02*
X21922Y-35657D01*
X21820Y-35757D01*
X21820Y-35714D01*
X21807Y-35685D01*
X21794Y-35671D01*
X21768Y-35657D01*
X21704Y-35657D01*
X21678Y-35671D01*
X21665Y-35685D01*
X21652Y-35714D01*
X21652Y-35800D01*
X21665Y-35828D01*
X21678Y-35842D01*
X21910Y-35235D02*
X21922Y-35264D01*
X21922Y-35307D01*
X21910Y-35350D01*
X21884Y-35378D01*
X21858Y-35392D01*
X21807Y-35407D01*
X21768Y-35407D01*
X21717Y-35392D01*
X21691Y-35378D01*
X21665Y-35350D01*
X21652Y-35307D01*
X21652Y-35278D01*
X21665Y-35235D01*
X21678Y-35221D01*
X21768Y-35221D01*
X21768Y-35278D01*
X21652Y-35092D02*
X21922Y-35092D01*
X21652Y-34921D01*
X21922Y-34921D01*
X21652Y-34778D02*
X21922Y-34778D01*
X21922Y-34707D01*
X21910Y-34664D01*
X21884Y-34635D01*
X21858Y-34621D01*
X21807Y-34607D01*
X21768Y-34607D01*
X21717Y-34621D01*
X21691Y-34635D01*
X21665Y-34664D01*
X21652Y-34707D01*
X21652Y-34778D01*
X22785Y-33845D02*
X22642Y-33845D01*
X22814Y-33922D02*
X22714Y-33652D01*
X22614Y-33922D01*
X22514Y-33922D02*
X22514Y-33652D01*
X22442Y-33652D01*
X22400Y-33665D01*
X22371Y-33690D01*
X22357Y-33716D01*
X22342Y-33767D01*
X22342Y-33806D01*
X22357Y-33857D01*
X22371Y-33883D01*
X22400Y-33909D01*
X22442Y-33922D01*
X22514Y-33922D01*
X22042Y-33896D02*
X22057Y-33909D01*
X22100Y-33922D01*
X22128Y-33922D01*
X22171Y-33909D01*
X22200Y-33883D01*
X22214Y-33857D01*
X22228Y-33806D01*
X22228Y-33767D01*
X22214Y-33716D01*
X22200Y-33690D01*
X22171Y-33665D01*
X22128Y-33652D01*
X22100Y-33652D01*
X22057Y-33665D01*
X22042Y-33677D01*
X21857Y-33652D02*
X21828Y-33652D01*
X21800Y-33665D01*
X21785Y-33677D01*
X21771Y-33703D01*
X21757Y-33755D01*
X21757Y-33819D01*
X21771Y-33870D01*
X21785Y-33896D01*
X21800Y-33909D01*
X21828Y-33922D01*
X21857Y-33922D01*
X21885Y-33909D01*
X21900Y-33896D01*
X21914Y-33870D01*
X21928Y-33819D01*
X21928Y-33755D01*
X21914Y-33703D01*
X21900Y-33677D01*
X21885Y-33665D01*
X21857Y-33652D01*
X22642Y-34350D02*
X22642Y-34080D01*
X22528Y-34080D01*
X22499Y-34093D01*
X22485Y-34105D01*
X22471Y-34131D01*
X22471Y-34170D01*
X22485Y-34195D01*
X22499Y-34208D01*
X22528Y-34221D01*
X22642Y-34221D01*
X22214Y-34080D02*
X22271Y-34080D01*
X22299Y-34093D01*
X22314Y-34105D01*
X22342Y-34144D01*
X22357Y-34195D01*
X22357Y-34298D01*
X22342Y-34324D01*
X22328Y-34337D01*
X22299Y-34350D01*
X22242Y-34350D01*
X22214Y-34337D01*
X22199Y-34324D01*
X22185Y-34298D01*
X22185Y-34234D01*
X22199Y-34208D01*
X22214Y-34195D01*
X22242Y-34183D01*
X22299Y-34183D01*
X22328Y-34195D01*
X22342Y-34208D01*
X22357Y-34234D01*
X22057Y-34324D02*
X22042Y-34337D01*
X22057Y-34350D01*
X22071Y-34337D01*
X22057Y-34324D01*
X22057Y-34350D01*
X21857Y-34080D02*
X21828Y-34080D01*
X21800Y-34093D01*
X21785Y-34105D01*
X21771Y-34131D01*
X21757Y-34183D01*
X21757Y-34247D01*
X21771Y-34298D01*
X21785Y-34324D01*
X21800Y-34337D01*
X21828Y-34350D01*
X21857Y-34350D01*
X21885Y-34337D01*
X21900Y-34324D01*
X21914Y-34298D01*
X21928Y-34247D01*
X21928Y-34183D01*
X21914Y-34131D01*
X21900Y-34105D01*
X21885Y-34093D01*
X21857Y-34080D01*
X22785Y-32845D02*
X22642Y-32845D01*
X22814Y-32922D02*
X22714Y-32652D01*
X22614Y-32922D01*
X22514Y-32922D02*
X22514Y-32652D01*
X22442Y-32652D01*
X22400Y-32665D01*
X22371Y-32690D01*
X22357Y-32716D01*
X22342Y-32767D01*
X22342Y-32806D01*
X22357Y-32857D01*
X22371Y-32883D01*
X22400Y-32909D01*
X22442Y-32922D01*
X22514Y-32922D01*
X22042Y-32896D02*
X22057Y-32909D01*
X22100Y-32922D01*
X22128Y-32922D01*
X22171Y-32909D01*
X22200Y-32883D01*
X22214Y-32857D01*
X22228Y-32806D01*
X22228Y-32767D01*
X22214Y-32716D01*
X22200Y-32690D01*
X22171Y-32665D01*
X22128Y-32652D01*
X22100Y-32652D01*
X22057Y-32665D01*
X22042Y-32677D01*
X21757Y-32922D02*
X21928Y-32922D01*
X21842Y-32922D02*
X21842Y-32652D01*
X21871Y-32690D01*
X21900Y-32716D01*
X21928Y-32729D01*
X22642Y-33350D02*
X22642Y-33080D01*
X22528Y-33080D01*
X22499Y-33093D01*
X22485Y-33105D01*
X22471Y-33131D01*
X22471Y-33170D01*
X22485Y-33195D01*
X22499Y-33208D01*
X22528Y-33221D01*
X22642Y-33221D01*
X22214Y-33080D02*
X22271Y-33080D01*
X22299Y-33093D01*
X22314Y-33105D01*
X22342Y-33144D01*
X22357Y-33195D01*
X22357Y-33298D01*
X22342Y-33324D01*
X22328Y-33337D01*
X22299Y-33350D01*
X22242Y-33350D01*
X22214Y-33337D01*
X22199Y-33324D01*
X22185Y-33298D01*
X22185Y-33234D01*
X22199Y-33208D01*
X22214Y-33195D01*
X22242Y-33183D01*
X22299Y-33183D01*
X22328Y-33195D01*
X22342Y-33208D01*
X22357Y-33234D01*
X22057Y-33324D02*
X22042Y-33337D01*
X22057Y-33350D01*
X22071Y-33337D01*
X22057Y-33324D01*
X22057Y-33350D01*
X21757Y-33350D02*
X21928Y-33350D01*
X21842Y-33350D02*
X21842Y-33080D01*
X21871Y-33118D01*
X21900Y-33144D01*
X21928Y-33157D01*
X22785Y-31845D02*
X22642Y-31845D01*
X22814Y-31922D02*
X22714Y-31652D01*
X22614Y-31922D01*
X22514Y-31922D02*
X22514Y-31652D01*
X22442Y-31652D01*
X22400Y-31665D01*
X22371Y-31690D01*
X22357Y-31716D01*
X22342Y-31767D01*
X22342Y-31806D01*
X22357Y-31857D01*
X22371Y-31883D01*
X22400Y-31909D01*
X22442Y-31922D01*
X22514Y-31922D01*
X22042Y-31896D02*
X22057Y-31909D01*
X22100Y-31922D01*
X22128Y-31922D01*
X22171Y-31909D01*
X22200Y-31883D01*
X22214Y-31857D01*
X22228Y-31806D01*
X22228Y-31767D01*
X22214Y-31716D01*
X22200Y-31690D01*
X22171Y-31665D01*
X22128Y-31652D01*
X22100Y-31652D01*
X22057Y-31665D01*
X22042Y-31677D01*
X21928Y-31677D02*
X21914Y-31665D01*
X21885Y-31652D01*
X21814Y-31652D01*
X21785Y-31665D01*
X21771Y-31677D01*
X21757Y-31703D01*
X21757Y-31729D01*
X21771Y-31767D01*
X21942Y-31922D01*
X21757Y-31922D01*
X22642Y-32350D02*
X22642Y-32080D01*
X22528Y-32080D01*
X22499Y-32093D01*
X22485Y-32105D01*
X22471Y-32131D01*
X22471Y-32170D01*
X22485Y-32195D01*
X22499Y-32208D01*
X22528Y-32221D01*
X22642Y-32221D01*
X22214Y-32080D02*
X22271Y-32080D01*
X22299Y-32093D01*
X22314Y-32105D01*
X22342Y-32144D01*
X22357Y-32195D01*
X22357Y-32298D01*
X22342Y-32324D01*
X22328Y-32337D01*
X22299Y-32350D01*
X22242Y-32350D01*
X22214Y-32337D01*
X22199Y-32324D01*
X22185Y-32298D01*
X22185Y-32234D01*
X22199Y-32208D01*
X22214Y-32195D01*
X22242Y-32183D01*
X22299Y-32183D01*
X22328Y-32195D01*
X22342Y-32208D01*
X22357Y-32234D01*
X22057Y-32324D02*
X22042Y-32337D01*
X22057Y-32350D01*
X22071Y-32337D01*
X22057Y-32324D01*
X22057Y-32350D01*
X21928Y-32105D02*
X21914Y-32093D01*
X21885Y-32080D01*
X21814Y-32080D01*
X21785Y-32093D01*
X21771Y-32105D01*
X21757Y-32131D01*
X21757Y-32157D01*
X21771Y-32195D01*
X21942Y-32350D01*
X21757Y-32350D01*
X22785Y-30845D02*
X22642Y-30845D01*
X22814Y-30922D02*
X22714Y-30652D01*
X22614Y-30922D01*
X22514Y-30922D02*
X22514Y-30652D01*
X22442Y-30652D01*
X22400Y-30665D01*
X22371Y-30690D01*
X22357Y-30716D01*
X22342Y-30767D01*
X22342Y-30806D01*
X22357Y-30857D01*
X22371Y-30883D01*
X22400Y-30909D01*
X22442Y-30922D01*
X22514Y-30922D01*
X22042Y-30896D02*
X22057Y-30909D01*
X22100Y-30922D01*
X22128Y-30922D01*
X22171Y-30909D01*
X22200Y-30883D01*
X22214Y-30857D01*
X22228Y-30806D01*
X22228Y-30767D01*
X22214Y-30716D01*
X22200Y-30690D01*
X22171Y-30665D01*
X22128Y-30652D01*
X22100Y-30652D01*
X22057Y-30665D01*
X22042Y-30677D01*
X21942Y-30652D02*
X21757Y-30652D01*
X21857Y-30755D01*
X21814Y-30755D01*
X21785Y-30767D01*
X21771Y-30780D01*
X21757Y-30806D01*
X21757Y-30870D01*
X21771Y-30896D01*
X21785Y-30909D01*
X21814Y-30922D01*
X21900Y-30922D01*
X21928Y-30909D01*
X21942Y-30896D01*
X22642Y-31350D02*
X22642Y-31080D01*
X22528Y-31080D01*
X22499Y-31093D01*
X22485Y-31105D01*
X22471Y-31131D01*
X22471Y-31170D01*
X22485Y-31195D01*
X22499Y-31208D01*
X22528Y-31221D01*
X22642Y-31221D01*
X22214Y-31080D02*
X22271Y-31080D01*
X22299Y-31093D01*
X22314Y-31105D01*
X22342Y-31144D01*
X22357Y-31195D01*
X22357Y-31298D01*
X22342Y-31324D01*
X22328Y-31337D01*
X22299Y-31350D01*
X22242Y-31350D01*
X22214Y-31337D01*
X22199Y-31324D01*
X22185Y-31298D01*
X22185Y-31234D01*
X22199Y-31208D01*
X22214Y-31195D01*
X22242Y-31183D01*
X22299Y-31183D01*
X22328Y-31195D01*
X22342Y-31208D01*
X22357Y-31234D01*
X22057Y-31324D02*
X22042Y-31337D01*
X22057Y-31350D01*
X22071Y-31337D01*
X22057Y-31324D01*
X22057Y-31350D01*
X21942Y-31080D02*
X21757Y-31080D01*
X21857Y-31183D01*
X21814Y-31183D01*
X21785Y-31195D01*
X21771Y-31208D01*
X21757Y-31234D01*
X21757Y-31298D01*
X21771Y-31324D01*
X21785Y-31337D01*
X21814Y-31350D01*
X21900Y-31350D01*
X21928Y-31337D01*
X21942Y-31324D01*
X22785Y-29845D02*
X22642Y-29845D01*
X22814Y-29922D02*
X22714Y-29652D01*
X22614Y-29922D01*
X22514Y-29922D02*
X22514Y-29652D01*
X22442Y-29652D01*
X22400Y-29665D01*
X22371Y-29690D01*
X22357Y-29716D01*
X22342Y-29767D01*
X22342Y-29806D01*
X22357Y-29857D01*
X22371Y-29883D01*
X22400Y-29909D01*
X22442Y-29922D01*
X22514Y-29922D01*
X22042Y-29896D02*
X22057Y-29909D01*
X22100Y-29922D01*
X22128Y-29922D01*
X22171Y-29909D01*
X22200Y-29883D01*
X22214Y-29857D01*
X22228Y-29806D01*
X22228Y-29767D01*
X22214Y-29716D01*
X22200Y-29690D01*
X22171Y-29665D01*
X22128Y-29652D01*
X22100Y-29652D01*
X22057Y-29665D01*
X22042Y-29677D01*
X21785Y-29742D02*
X21785Y-29922D01*
X21857Y-29639D02*
X21928Y-29832D01*
X21742Y-29832D01*
X22642Y-30350D02*
X22642Y-30080D01*
X22528Y-30080D01*
X22499Y-30093D01*
X22485Y-30105D01*
X22471Y-30131D01*
X22471Y-30170D01*
X22485Y-30195D01*
X22499Y-30208D01*
X22528Y-30221D01*
X22642Y-30221D01*
X22214Y-30080D02*
X22271Y-30080D01*
X22299Y-30093D01*
X22314Y-30105D01*
X22342Y-30144D01*
X22357Y-30195D01*
X22357Y-30298D01*
X22342Y-30324D01*
X22328Y-30337D01*
X22299Y-30350D01*
X22242Y-30350D01*
X22214Y-30337D01*
X22199Y-30324D01*
X22185Y-30298D01*
X22185Y-30234D01*
X22199Y-30208D01*
X22214Y-30195D01*
X22242Y-30183D01*
X22299Y-30183D01*
X22328Y-30195D01*
X22342Y-30208D01*
X22357Y-30234D01*
X22057Y-30324D02*
X22042Y-30337D01*
X22057Y-30350D01*
X22071Y-30337D01*
X22057Y-30324D01*
X22057Y-30350D01*
X21785Y-30170D02*
X21785Y-30350D01*
X21857Y-30067D02*
X21928Y-30260D01*
X21742Y-30260D01*
X23157Y-29121D02*
X23171Y-29134D01*
X23214Y-29147D01*
X23242Y-29147D01*
X23285Y-29134D01*
X23314Y-29108D01*
X23328Y-29082D01*
X23342Y-29031D01*
X23342Y-28992D01*
X23328Y-28941D01*
X23314Y-28915D01*
X23285Y-28890D01*
X23242Y-28877D01*
X23214Y-28877D01*
X23171Y-28890D01*
X23157Y-28902D01*
X22885Y-29147D02*
X23028Y-29147D01*
X23028Y-28877D01*
X22785Y-29147D02*
X22785Y-28877D01*
X22614Y-29147D02*
X22742Y-28992D01*
X22614Y-28877D02*
X22785Y-29031D01*
X22428Y-28877D02*
X22371Y-28877D01*
X22342Y-28890D01*
X22314Y-28915D01*
X22300Y-28967D01*
X22300Y-29057D01*
X22314Y-29108D01*
X22342Y-29134D01*
X22371Y-29147D01*
X22428Y-29147D01*
X22457Y-29134D01*
X22485Y-29108D01*
X22500Y-29057D01*
X22500Y-28967D01*
X22485Y-28915D01*
X22457Y-28890D01*
X22428Y-28877D01*
X22171Y-28877D02*
X22171Y-29095D01*
X22157Y-29121D01*
X22142Y-29134D01*
X22114Y-29147D01*
X22057Y-29147D01*
X22028Y-29134D01*
X22014Y-29121D01*
X22000Y-29095D01*
X22000Y-28877D01*
X21900Y-28877D02*
X21728Y-28877D01*
X21814Y-29147D02*
X21814Y-28877D01*
X24457Y-27652D02*
X24285Y-27652D01*
X24371Y-27922D02*
X24371Y-27652D01*
X24214Y-27652D02*
X24014Y-27922D01*
X24014Y-27652D02*
X24214Y-27922D01*
X23899Y-27922D02*
X23899Y-27652D01*
X23828Y-27652D01*
X23785Y-27665D01*
X23757Y-27690D01*
X23742Y-27716D01*
X23728Y-27767D01*
X23728Y-27806D01*
X23742Y-27857D01*
X23757Y-27883D01*
X23785Y-27909D01*
X23828Y-27922D01*
X23899Y-27922D01*
X23614Y-27677D02*
X23599Y-27665D01*
X23571Y-27652D01*
X23499Y-27652D01*
X23471Y-27665D01*
X23457Y-27677D01*
X23442Y-27703D01*
X23442Y-27729D01*
X23457Y-27767D01*
X23628Y-27922D01*
X23442Y-27922D01*
X23100Y-27639D02*
X23357Y-27986D01*
X22999Y-27922D02*
X22999Y-27652D01*
X22899Y-27845D01*
X22799Y-27652D01*
X22799Y-27922D01*
X22600Y-27652D02*
X22542Y-27652D01*
X22514Y-27665D01*
X22485Y-27690D01*
X22471Y-27742D01*
X22471Y-27832D01*
X22485Y-27883D01*
X22514Y-27909D01*
X22542Y-27922D01*
X22600Y-27922D01*
X22628Y-27909D01*
X22657Y-27883D01*
X22671Y-27832D01*
X22671Y-27742D01*
X22657Y-27690D01*
X22628Y-27665D01*
X22600Y-27652D01*
X22357Y-27909D02*
X22314Y-27922D01*
X22242Y-27922D01*
X22214Y-27909D01*
X22199Y-27896D01*
X22185Y-27870D01*
X22185Y-27845D01*
X22199Y-27819D01*
X22214Y-27806D01*
X22242Y-27793D01*
X22299Y-27780D01*
X22328Y-27767D01*
X22342Y-27755D01*
X22357Y-27729D01*
X22357Y-27703D01*
X22342Y-27677D01*
X22328Y-27665D01*
X22299Y-27652D01*
X22228Y-27652D01*
X22185Y-27665D01*
X22057Y-27922D02*
X22057Y-27652D01*
X21942Y-27652D02*
X21757Y-27652D01*
X21857Y-27755D01*
X21814Y-27755D01*
X21785Y-27767D01*
X21771Y-27780D01*
X21757Y-27806D01*
X21757Y-27870D01*
X21771Y-27896D01*
X21785Y-27909D01*
X21814Y-27922D01*
X21900Y-27922D01*
X21928Y-27909D01*
X21942Y-27896D01*
X22642Y-28350D02*
X22642Y-28080D01*
X22528Y-28080D01*
X22499Y-28093D01*
X22485Y-28105D01*
X22471Y-28131D01*
X22471Y-28170D01*
X22485Y-28195D01*
X22499Y-28208D01*
X22528Y-28221D01*
X22642Y-28221D01*
X22199Y-28080D02*
X22342Y-28080D01*
X22357Y-28208D01*
X22342Y-28195D01*
X22314Y-28183D01*
X22242Y-28183D01*
X22214Y-28195D01*
X22199Y-28208D01*
X22185Y-28234D01*
X22185Y-28298D01*
X22199Y-28324D01*
X22214Y-28337D01*
X22242Y-28350D01*
X22314Y-28350D01*
X22342Y-28337D01*
X22357Y-28324D01*
X22057Y-28324D02*
X22042Y-28337D01*
X22057Y-28350D01*
X22071Y-28337D01*
X22057Y-28324D01*
X22057Y-28350D01*
X21785Y-28080D02*
X21842Y-28080D01*
X21871Y-28093D01*
X21885Y-28105D01*
X21914Y-28144D01*
X21928Y-28195D01*
X21928Y-28298D01*
X21914Y-28324D01*
X21900Y-28337D01*
X21871Y-28350D01*
X21814Y-28350D01*
X21785Y-28337D01*
X21771Y-28324D01*
X21757Y-28298D01*
X21757Y-28234D01*
X21771Y-28208D01*
X21785Y-28195D01*
X21814Y-28183D01*
X21871Y-28183D01*
X21900Y-28195D01*
X21914Y-28208D01*
X21928Y-28234D01*
X24314Y-26922D02*
X24414Y-26793D01*
X24485Y-26922D02*
X24485Y-26652D01*
X24371Y-26652D01*
X24342Y-26665D01*
X24328Y-26677D01*
X24314Y-26703D01*
X24314Y-26742D01*
X24328Y-26767D01*
X24342Y-26780D01*
X24371Y-26793D01*
X24485Y-26793D01*
X24214Y-26652D02*
X24014Y-26922D01*
X24014Y-26652D02*
X24214Y-26922D01*
X23899Y-26922D02*
X23899Y-26652D01*
X23828Y-26652D01*
X23785Y-26665D01*
X23757Y-26690D01*
X23742Y-26716D01*
X23728Y-26767D01*
X23728Y-26806D01*
X23742Y-26857D01*
X23757Y-26883D01*
X23785Y-26909D01*
X23828Y-26922D01*
X23899Y-26922D01*
X23614Y-26677D02*
X23599Y-26665D01*
X23571Y-26652D01*
X23499Y-26652D01*
X23471Y-26665D01*
X23457Y-26677D01*
X23442Y-26703D01*
X23442Y-26729D01*
X23457Y-26767D01*
X23628Y-26922D01*
X23442Y-26922D01*
X23100Y-26639D02*
X23357Y-26986D01*
X22999Y-26922D02*
X22999Y-26652D01*
X22899Y-26845D01*
X22799Y-26652D01*
X22799Y-26922D01*
X22657Y-26922D02*
X22657Y-26652D01*
X22528Y-26909D02*
X22485Y-26922D01*
X22414Y-26922D01*
X22385Y-26909D01*
X22371Y-26896D01*
X22357Y-26870D01*
X22357Y-26845D01*
X22371Y-26819D01*
X22385Y-26806D01*
X22414Y-26793D01*
X22471Y-26780D01*
X22500Y-26767D01*
X22514Y-26755D01*
X22528Y-26729D01*
X22528Y-26703D01*
X22514Y-26677D01*
X22500Y-26665D01*
X22471Y-26652D01*
X22400Y-26652D01*
X22357Y-26665D01*
X22171Y-26652D02*
X22114Y-26652D01*
X22085Y-26665D01*
X22057Y-26690D01*
X22042Y-26742D01*
X22042Y-26832D01*
X22057Y-26883D01*
X22085Y-26909D01*
X22114Y-26922D01*
X22171Y-26922D01*
X22200Y-26909D01*
X22228Y-26883D01*
X22242Y-26832D01*
X22242Y-26742D01*
X22228Y-26690D01*
X22200Y-26665D01*
X22171Y-26652D01*
X21942Y-26652D02*
X21757Y-26652D01*
X21857Y-26755D01*
X21814Y-26755D01*
X21785Y-26767D01*
X21771Y-26780D01*
X21757Y-26806D01*
X21757Y-26870D01*
X21771Y-26896D01*
X21785Y-26909D01*
X21814Y-26922D01*
X21900Y-26922D01*
X21928Y-26909D01*
X21942Y-26896D01*
X22642Y-27350D02*
X22642Y-27080D01*
X22528Y-27080D01*
X22499Y-27093D01*
X22485Y-27105D01*
X22471Y-27131D01*
X22471Y-27170D01*
X22485Y-27195D01*
X22499Y-27208D01*
X22528Y-27221D01*
X22642Y-27221D01*
X22199Y-27080D02*
X22342Y-27080D01*
X22357Y-27208D01*
X22342Y-27195D01*
X22314Y-27183D01*
X22242Y-27183D01*
X22214Y-27195D01*
X22199Y-27208D01*
X22185Y-27234D01*
X22185Y-27298D01*
X22199Y-27324D01*
X22214Y-27337D01*
X22242Y-27350D01*
X22314Y-27350D01*
X22342Y-27337D01*
X22357Y-27324D01*
X22057Y-27324D02*
X22042Y-27337D01*
X22057Y-27350D01*
X22071Y-27337D01*
X22057Y-27324D01*
X22057Y-27350D01*
X21942Y-27080D02*
X21742Y-27080D01*
X21871Y-27350D01*
X22599Y-24922D02*
X22599Y-24652D01*
X22457Y-24922D02*
X22457Y-24652D01*
X22285Y-24922D01*
X22285Y-24652D01*
X22185Y-24652D02*
X22014Y-24652D01*
X22099Y-24922D02*
X22099Y-24652D01*
X21942Y-24652D02*
X21757Y-24652D01*
X21857Y-24755D01*
X21814Y-24755D01*
X21785Y-24767D01*
X21771Y-24780D01*
X21757Y-24806D01*
X21757Y-24870D01*
X21771Y-24896D01*
X21785Y-24909D01*
X21814Y-24922D01*
X21900Y-24922D01*
X21928Y-24909D01*
X21942Y-24896D01*
X22642Y-25350D02*
X22642Y-25080D01*
X22528Y-25080D01*
X22499Y-25093D01*
X22485Y-25105D01*
X22471Y-25131D01*
X22471Y-25170D01*
X22485Y-25195D01*
X22499Y-25208D01*
X22528Y-25221D01*
X22642Y-25221D01*
X22357Y-25105D02*
X22342Y-25093D01*
X22314Y-25080D01*
X22242Y-25080D01*
X22214Y-25093D01*
X22199Y-25105D01*
X22185Y-25131D01*
X22185Y-25157D01*
X22199Y-25195D01*
X22371Y-25350D01*
X22185Y-25350D01*
X22057Y-25324D02*
X22042Y-25337D01*
X22057Y-25350D01*
X22071Y-25337D01*
X22057Y-25324D01*
X22057Y-25350D01*
X21785Y-25080D02*
X21842Y-25080D01*
X21871Y-25093D01*
X21885Y-25105D01*
X21914Y-25144D01*
X21928Y-25195D01*
X21928Y-25298D01*
X21914Y-25324D01*
X21900Y-25337D01*
X21871Y-25350D01*
X21814Y-25350D01*
X21785Y-25337D01*
X21771Y-25324D01*
X21757Y-25298D01*
X21757Y-25234D01*
X21771Y-25208D01*
X21785Y-25195D01*
X21814Y-25183D01*
X21871Y-25183D01*
X21900Y-25195D01*
X21914Y-25208D01*
X21928Y-25234D01*
X23128Y-23652D02*
X23028Y-23922D01*
X22928Y-23652D01*
X22657Y-23922D02*
X22757Y-23793D01*
X22828Y-23922D02*
X22828Y-23652D01*
X22714Y-23652D01*
X22685Y-23665D01*
X22671Y-23677D01*
X22657Y-23703D01*
X22657Y-23742D01*
X22671Y-23767D01*
X22685Y-23780D01*
X22714Y-23793D01*
X22828Y-23793D01*
X22528Y-23780D02*
X22428Y-23780D01*
X22385Y-23922D02*
X22528Y-23922D01*
X22528Y-23652D01*
X22385Y-23652D01*
X22157Y-23780D02*
X22257Y-23780D01*
X22257Y-23922D02*
X22257Y-23652D01*
X22114Y-23652D01*
X22000Y-23819D02*
X21771Y-23819D01*
X21885Y-23922D02*
X21885Y-23716D01*
X22642Y-24350D02*
X22642Y-24080D01*
X22528Y-24080D01*
X22499Y-24093D01*
X22485Y-24105D01*
X22471Y-24131D01*
X22471Y-24170D01*
X22485Y-24195D01*
X22499Y-24208D01*
X22528Y-24221D01*
X22642Y-24221D01*
X22199Y-24080D02*
X22342Y-24080D01*
X22357Y-24208D01*
X22342Y-24195D01*
X22314Y-24183D01*
X22242Y-24183D01*
X22214Y-24195D01*
X22199Y-24208D01*
X22185Y-24234D01*
X22185Y-24298D01*
X22199Y-24324D01*
X22214Y-24337D01*
X22242Y-24350D01*
X22314Y-24350D01*
X22342Y-24337D01*
X22357Y-24324D01*
X22057Y-24324D02*
X22042Y-24337D01*
X22057Y-24350D01*
X22071Y-24337D01*
X22057Y-24324D01*
X22057Y-24350D01*
X21857Y-24080D02*
X21828Y-24080D01*
X21800Y-24093D01*
X21785Y-24105D01*
X21771Y-24131D01*
X21757Y-24183D01*
X21757Y-24247D01*
X21771Y-24298D01*
X21785Y-24324D01*
X21800Y-24337D01*
X21828Y-24350D01*
X21857Y-24350D01*
X21885Y-24337D01*
X21900Y-24324D01*
X21914Y-24298D01*
X21928Y-24247D01*
X21928Y-24183D01*
X21914Y-24131D01*
X21900Y-24105D01*
X21885Y-24093D01*
X21857Y-24080D01*
X22642Y-22972D02*
X22642Y-22702D01*
X22528Y-22702D01*
X22499Y-22715D01*
X22485Y-22727D01*
X22471Y-22753D01*
X22471Y-22792D01*
X22485Y-22817D01*
X22499Y-22830D01*
X22528Y-22843D01*
X22642Y-22843D01*
X22199Y-22702D02*
X22342Y-22702D01*
X22357Y-22830D01*
X22342Y-22817D01*
X22314Y-22805D01*
X22242Y-22805D01*
X22214Y-22817D01*
X22199Y-22830D01*
X22185Y-22856D01*
X22185Y-22920D01*
X22199Y-22946D01*
X22214Y-22959D01*
X22242Y-22972D01*
X22314Y-22972D01*
X22342Y-22959D01*
X22357Y-22946D01*
X22057Y-22946D02*
X22042Y-22959D01*
X22057Y-22972D01*
X22071Y-22959D01*
X22057Y-22946D01*
X22057Y-22972D01*
X21757Y-22972D02*
X21928Y-22972D01*
X21842Y-22972D02*
X21842Y-22702D01*
X21871Y-22740D01*
X21900Y-22766D01*
X21928Y-22779D01*
X22985Y-23130D02*
X22885Y-23400D01*
X22785Y-23130D01*
X22514Y-23400D02*
X22614Y-23271D01*
X22685Y-23400D02*
X22685Y-23130D01*
X22571Y-23130D01*
X22542Y-23143D01*
X22528Y-23155D01*
X22514Y-23181D01*
X22514Y-23220D01*
X22528Y-23245D01*
X22542Y-23258D01*
X22571Y-23271D01*
X22685Y-23271D01*
X22385Y-23258D02*
X22285Y-23258D01*
X22242Y-23400D02*
X22385Y-23400D01*
X22385Y-23130D01*
X22242Y-23130D01*
X22014Y-23258D02*
X22114Y-23258D01*
X22114Y-23400D02*
X22114Y-23130D01*
X21971Y-23130D01*
G54D14*
X21650Y-22750D02*
X21650Y-24300D01*
G54D13*
X21900Y-23250D02*
X21750Y-23250D01*
G54D14*
X21650Y-24700D02*
X21650Y-26300D01*
X21650Y-26700D02*
X21650Y-28300D01*
X21650Y-28700D02*
X21650Y-29300D01*
X21650Y-29700D02*
X21650Y-34300D01*
G54D15*
X40000Y-38000D02*
X39000Y-38000D01*
X38000Y-40000D02*
X38000Y-39000D01*
X39000Y-38000D02*
G75*
G03X38000Y-39000I0J-1000D01*
G74*
G01*
G54D12*
X36500Y-19500D02*
X36500Y-21500D01*
X22500Y-19500D02*
X22500Y-21500D01*
X23500Y-19500D02*
X23500Y-21500D01*
G54D16*
X22500Y-21500D02*
X36500Y-21500D01*
X22500Y-20500D02*
X36500Y-20500D01*
X22500Y-19500D02*
X36500Y-19500D01*
G54D12*
X19500Y-22500D02*
X21500Y-22500D01*
X19500Y-36500D02*
X21500Y-36500D01*
X19500Y-35500D02*
X21500Y-35500D01*
G54D16*
X21500Y-36500D02*
X21500Y-22500D01*
X20500Y-36500D02*
X20500Y-22500D01*
X19500Y-36500D02*
X19500Y-22500D01*
G54D12*
X39500Y-36500D02*
X37500Y-36500D01*
X39500Y-22500D02*
X37500Y-22500D01*
X39500Y-23500D02*
X37500Y-23500D01*
G54D16*
X37500Y-22500D02*
X37500Y-36500D01*
X38500Y-22500D02*
X38500Y-36500D01*
X39500Y-22500D02*
X39500Y-36500D01*
G54D14*
X34250Y-33800D02*
X24750Y-33800D01*
G54D17*
X25950Y-31271D02*
X26150Y-30985D01*
X26292Y-31271D02*
X26292Y-30671D01*
X26064Y-30671D01*
X26007Y-30700D01*
X25978Y-30728D01*
X25950Y-30785D01*
X25950Y-30871D01*
X25978Y-30928D01*
X26007Y-30957D01*
X26064Y-30985D01*
X26292Y-30985D01*
X25721Y-31242D02*
X25635Y-31271D01*
X25492Y-31271D01*
X25435Y-31242D01*
X25407Y-31214D01*
X25378Y-31157D01*
X25378Y-31100D01*
X25407Y-31042D01*
X25435Y-31014D01*
X25492Y-30985D01*
X25607Y-30957D01*
X25664Y-30928D01*
X25692Y-30900D01*
X25721Y-30842D01*
X25721Y-30785D01*
X25692Y-30728D01*
X25664Y-30700D01*
X25607Y-30671D01*
X25464Y-30671D01*
X25378Y-30700D01*
G54D18*
X32342Y-34235D02*
X32342Y-33935D01*
X32271Y-33935D01*
X32228Y-33950D01*
X32200Y-33978D01*
X32185Y-34007D01*
X32171Y-34064D01*
X32171Y-34107D01*
X32185Y-34164D01*
X32200Y-34192D01*
X32228Y-34221D01*
X32271Y-34235D01*
X32342Y-34235D01*
X31928Y-34221D02*
X31957Y-34235D01*
X32014Y-34235D01*
X32042Y-34221D01*
X32057Y-34192D01*
X32057Y-34078D01*
X32042Y-34050D01*
X32014Y-34035D01*
X31957Y-34035D01*
X31928Y-34050D01*
X31914Y-34078D01*
X31914Y-34107D01*
X32057Y-34135D01*
X31800Y-34221D02*
X31771Y-34235D01*
X31714Y-34235D01*
X31685Y-34221D01*
X31671Y-34192D01*
X31671Y-34178D01*
X31685Y-34150D01*
X31714Y-34135D01*
X31757Y-34135D01*
X31785Y-34121D01*
X31800Y-34092D01*
X31800Y-34078D01*
X31785Y-34050D01*
X31757Y-34035D01*
X31714Y-34035D01*
X31685Y-34050D01*
X31542Y-34235D02*
X31542Y-34035D01*
X31542Y-33935D02*
X31557Y-33950D01*
X31542Y-33964D01*
X31528Y-33950D01*
X31542Y-33935D01*
X31542Y-33964D01*
X31271Y-34035D02*
X31271Y-34278D01*
X31285Y-34307D01*
X31300Y-34321D01*
X31328Y-34335D01*
X31371Y-34335D01*
X31400Y-34321D01*
X31271Y-34221D02*
X31300Y-34235D01*
X31357Y-34235D01*
X31385Y-34221D01*
X31400Y-34207D01*
X31414Y-34178D01*
X31414Y-34092D01*
X31400Y-34064D01*
X31385Y-34050D01*
X31357Y-34035D01*
X31300Y-34035D01*
X31271Y-34050D01*
X31128Y-34035D02*
X31128Y-34235D01*
X31128Y-34064D02*
X31114Y-34050D01*
X31085Y-34035D01*
X31042Y-34035D01*
X31014Y-34050D01*
X31000Y-34078D01*
X31000Y-34235D01*
X30742Y-34221D02*
X30771Y-34235D01*
X30828Y-34235D01*
X30857Y-34221D01*
X30871Y-34192D01*
X30871Y-34078D01*
X30857Y-34050D01*
X30828Y-34035D01*
X30771Y-34035D01*
X30742Y-34050D01*
X30728Y-34078D01*
X30728Y-34107D01*
X30871Y-34135D01*
X30471Y-34235D02*
X30471Y-33935D01*
X30471Y-34221D02*
X30499Y-34235D01*
X30557Y-34235D01*
X30585Y-34221D01*
X30599Y-34207D01*
X30614Y-34178D01*
X30614Y-34092D01*
X30599Y-34064D01*
X30585Y-34050D01*
X30557Y-34035D01*
X30499Y-34035D01*
X30471Y-34050D01*
X29857Y-34235D02*
X29871Y-34235D01*
X29899Y-34221D01*
X29942Y-34178D01*
X30014Y-34092D01*
X30042Y-34050D01*
X30057Y-34007D01*
X30057Y-33978D01*
X30042Y-33950D01*
X30014Y-33935D01*
X29999Y-33935D01*
X29971Y-33950D01*
X29957Y-33978D01*
X29957Y-33992D01*
X29971Y-34021D01*
X29985Y-34035D01*
X30071Y-34092D01*
X30085Y-34107D01*
X30099Y-34135D01*
X30099Y-34178D01*
X30085Y-34207D01*
X30071Y-34221D01*
X30042Y-34235D01*
X29999Y-34235D01*
X29971Y-34221D01*
X29957Y-34207D01*
X29914Y-34150D01*
X29899Y-34107D01*
X29899Y-34078D01*
X29499Y-34235D02*
X29499Y-33935D01*
X29399Y-34150D01*
X29299Y-33935D01*
X29299Y-34235D01*
X29028Y-34235D02*
X29028Y-34078D01*
X29042Y-34050D01*
X29071Y-34035D01*
X29128Y-34035D01*
X29157Y-34050D01*
X29028Y-34221D02*
X29057Y-34235D01*
X29128Y-34235D01*
X29157Y-34221D01*
X29171Y-34192D01*
X29171Y-34164D01*
X29157Y-34135D01*
X29128Y-34121D01*
X29057Y-34121D01*
X29028Y-34107D01*
X28757Y-34235D02*
X28757Y-33935D01*
X28757Y-34221D02*
X28785Y-34235D01*
X28842Y-34235D01*
X28871Y-34221D01*
X28885Y-34207D01*
X28899Y-34178D01*
X28899Y-34092D01*
X28885Y-34064D01*
X28871Y-34050D01*
X28842Y-34035D01*
X28785Y-34035D01*
X28757Y-34050D01*
X28499Y-34221D02*
X28528Y-34235D01*
X28585Y-34235D01*
X28614Y-34221D01*
X28628Y-34192D01*
X28628Y-34078D01*
X28614Y-34050D01*
X28585Y-34035D01*
X28528Y-34035D01*
X28499Y-34050D01*
X28485Y-34078D01*
X28485Y-34107D01*
X28628Y-34135D01*
X28128Y-34235D02*
X28128Y-34035D01*
X28128Y-33935D02*
X28142Y-33950D01*
X28128Y-33964D01*
X28114Y-33950D01*
X28128Y-33935D01*
X28128Y-33964D01*
X27985Y-34035D02*
X27985Y-34235D01*
X27985Y-34064D02*
X27971Y-34050D01*
X27942Y-34035D01*
X27899Y-34035D01*
X27871Y-34050D01*
X27857Y-34078D01*
X27857Y-34235D01*
X27485Y-34235D02*
X27485Y-33935D01*
X27385Y-34035D02*
X27271Y-34035D01*
X27342Y-33935D02*
X27342Y-34192D01*
X27328Y-34221D01*
X27299Y-34235D01*
X27271Y-34235D01*
X27042Y-34235D02*
X27042Y-34078D01*
X27057Y-34050D01*
X27085Y-34035D01*
X27142Y-34035D01*
X27171Y-34050D01*
X27042Y-34221D02*
X27071Y-34235D01*
X27142Y-34235D01*
X27171Y-34221D01*
X27185Y-34192D01*
X27185Y-34164D01*
X27171Y-34135D01*
X27142Y-34121D01*
X27071Y-34121D01*
X27042Y-34107D01*
X26857Y-34235D02*
X26885Y-34221D01*
X26899Y-34192D01*
X26899Y-33935D01*
X26771Y-34035D02*
X26699Y-34235D01*
X26628Y-34035D02*
X26699Y-34235D01*
X26728Y-34307D01*
X26742Y-34321D01*
X26771Y-34335D01*
G54D19*
X32271Y-33214D02*
X32195Y-33480D01*
X32119Y-33290D01*
X32042Y-33480D01*
X31966Y-33214D01*
X31852Y-33214D02*
X31776Y-33480D01*
X31700Y-33290D01*
X31623Y-33480D01*
X31547Y-33214D01*
X31433Y-33214D02*
X31357Y-33480D01*
X31280Y-33290D01*
X31204Y-33480D01*
X31128Y-33214D01*
X30976Y-33442D02*
X30957Y-33461D01*
X30976Y-33480D01*
X30995Y-33461D01*
X30976Y-33442D01*
X30976Y-33480D01*
X30823Y-33214D02*
X30728Y-33480D01*
X30633Y-33214D01*
X30480Y-33480D02*
X30480Y-33214D01*
X30480Y-33080D02*
X30499Y-33100D01*
X30480Y-33119D01*
X30461Y-33100D01*
X30480Y-33080D01*
X30480Y-33119D01*
X30290Y-33480D02*
X30290Y-33214D01*
X30290Y-33290D02*
X30271Y-33252D01*
X30252Y-33233D01*
X30214Y-33214D01*
X30176Y-33214D01*
X30099Y-33214D02*
X29947Y-33214D01*
X30042Y-33080D02*
X30042Y-33423D01*
X30023Y-33461D01*
X29985Y-33480D01*
X29947Y-33480D01*
X29642Y-33214D02*
X29642Y-33480D01*
X29814Y-33214D02*
X29814Y-33423D01*
X29795Y-33461D01*
X29757Y-33480D01*
X29700Y-33480D01*
X29661Y-33461D01*
X29642Y-33442D01*
X29280Y-33480D02*
X29280Y-33271D01*
X29300Y-33233D01*
X29338Y-33214D01*
X29414Y-33214D01*
X29452Y-33233D01*
X29280Y-33461D02*
X29319Y-33480D01*
X29414Y-33480D01*
X29452Y-33461D01*
X29471Y-33423D01*
X29471Y-33385D01*
X29452Y-33347D01*
X29414Y-33328D01*
X29319Y-33328D01*
X29280Y-33309D01*
X29033Y-33480D02*
X29071Y-33461D01*
X29090Y-33423D01*
X29090Y-33080D01*
X28900Y-33461D02*
X28861Y-33480D01*
X28785Y-33480D01*
X28747Y-33461D01*
X28728Y-33423D01*
X28728Y-33404D01*
X28747Y-33366D01*
X28785Y-33347D01*
X28842Y-33347D01*
X28880Y-33328D01*
X28900Y-33290D01*
X28900Y-33271D01*
X28880Y-33233D01*
X28842Y-33214D01*
X28785Y-33214D01*
X28747Y-33233D01*
X28404Y-33461D02*
X28442Y-33480D01*
X28519Y-33480D01*
X28557Y-33461D01*
X28576Y-33423D01*
X28576Y-33271D01*
X28557Y-33233D01*
X28519Y-33214D01*
X28442Y-33214D01*
X28404Y-33233D01*
X28385Y-33271D01*
X28385Y-33309D01*
X28576Y-33347D01*
X28214Y-33214D02*
X28214Y-33480D01*
X28214Y-33252D02*
X28195Y-33233D01*
X28157Y-33214D01*
X28100Y-33214D01*
X28061Y-33233D01*
X28042Y-33271D01*
X28042Y-33480D01*
X27871Y-33461D02*
X27833Y-33480D01*
X27757Y-33480D01*
X27719Y-33461D01*
X27700Y-33423D01*
X27700Y-33404D01*
X27719Y-33366D01*
X27757Y-33347D01*
X27814Y-33347D01*
X27852Y-33328D01*
X27871Y-33290D01*
X27871Y-33271D01*
X27852Y-33233D01*
X27814Y-33214D01*
X27757Y-33214D01*
X27719Y-33233D01*
X27376Y-33461D02*
X27414Y-33480D01*
X27490Y-33480D01*
X27528Y-33461D01*
X27547Y-33423D01*
X27547Y-33271D01*
X27528Y-33233D01*
X27490Y-33214D01*
X27414Y-33214D01*
X27376Y-33233D01*
X27357Y-33271D01*
X27357Y-33309D01*
X27547Y-33347D01*
X27185Y-33442D02*
X27166Y-33461D01*
X27185Y-33480D01*
X27204Y-33461D01*
X27185Y-33442D01*
X27185Y-33480D01*
X26995Y-33480D02*
X26995Y-33214D01*
X26995Y-33080D02*
X27014Y-33100D01*
X26995Y-33119D01*
X26976Y-33100D01*
X26995Y-33080D01*
X26995Y-33119D01*
X26861Y-33214D02*
X26709Y-33214D01*
X26804Y-33080D02*
X26804Y-33423D01*
X26785Y-33461D01*
X26747Y-33480D01*
X26709Y-33480D01*
G54D20*
X32033Y-32319D02*
X32014Y-32300D01*
X31976Y-32280D01*
X31880Y-32280D01*
X31842Y-32300D01*
X31823Y-32319D01*
X31804Y-32357D01*
X31804Y-32395D01*
X31823Y-32452D01*
X32052Y-32680D01*
X31804Y-32680D01*
X31461Y-32280D02*
X31538Y-32280D01*
X31576Y-32300D01*
X31595Y-32319D01*
X31633Y-32376D01*
X31652Y-32452D01*
X31652Y-32604D01*
X31633Y-32642D01*
X31614Y-32661D01*
X31576Y-32680D01*
X31500Y-32680D01*
X31461Y-32661D01*
X31442Y-32642D01*
X31423Y-32604D01*
X31423Y-32509D01*
X31442Y-32471D01*
X31461Y-32452D01*
X31500Y-32433D01*
X31576Y-32433D01*
X31614Y-32452D01*
X31633Y-32471D01*
X31652Y-32509D01*
X31271Y-32319D02*
X31252Y-32300D01*
X31214Y-32280D01*
X31119Y-32280D01*
X31080Y-32300D01*
X31061Y-32319D01*
X31042Y-32357D01*
X31042Y-32395D01*
X31061Y-32452D01*
X31290Y-32680D01*
X31042Y-32680D01*
X30795Y-32280D02*
X30757Y-32280D01*
X30719Y-32300D01*
X30700Y-32319D01*
X30680Y-32357D01*
X30661Y-32433D01*
X30661Y-32528D01*
X30680Y-32604D01*
X30700Y-32642D01*
X30719Y-32661D01*
X30757Y-32680D01*
X30795Y-32680D01*
X30833Y-32661D01*
X30852Y-32642D01*
X30871Y-32604D01*
X30890Y-32528D01*
X30890Y-32433D01*
X30871Y-32357D01*
X30852Y-32319D01*
X30833Y-32300D01*
X30795Y-32280D01*
X30280Y-32680D02*
X30509Y-32680D01*
X30395Y-32680D02*
X30395Y-32280D01*
X30433Y-32338D01*
X30471Y-32376D01*
X30509Y-32395D01*
X30147Y-32280D02*
X29900Y-32280D01*
X30033Y-32433D01*
X29976Y-32433D01*
X29938Y-32452D01*
X29919Y-32471D01*
X29900Y-32509D01*
X29900Y-32604D01*
X29919Y-32642D01*
X29938Y-32661D01*
X29976Y-32680D01*
X30090Y-32680D01*
X30128Y-32661D01*
X30147Y-32642D01*
X29423Y-32528D02*
X29119Y-32528D01*
X28661Y-32414D02*
X28566Y-32680D01*
X28471Y-32414D01*
X28109Y-32680D02*
X28338Y-32680D01*
X28223Y-32680D02*
X28223Y-32280D01*
X28261Y-32338D01*
X28300Y-32376D01*
X28338Y-32395D01*
X27938Y-32642D02*
X27919Y-32661D01*
X27938Y-32680D01*
X27957Y-32661D01*
X27938Y-32642D01*
X27938Y-32680D01*
X27538Y-32680D02*
X27766Y-32680D01*
X27652Y-32680D02*
X27652Y-32280D01*
X27690Y-32338D01*
X27728Y-32376D01*
X27766Y-32395D01*
X27366Y-32642D02*
X27347Y-32661D01*
X27366Y-32680D01*
X27385Y-32661D01*
X27366Y-32642D01*
X27366Y-32680D01*
X27099Y-32280D02*
X27061Y-32280D01*
X27023Y-32300D01*
X27004Y-32319D01*
X26985Y-32357D01*
X26966Y-32433D01*
X26966Y-32528D01*
X26985Y-32604D01*
X27004Y-32642D01*
X27023Y-32661D01*
X27061Y-32680D01*
X27099Y-32680D01*
X27138Y-32661D01*
X27157Y-32642D01*
X27176Y-32604D01*
X27195Y-32528D01*
X27195Y-32433D01*
X27176Y-32357D01*
X27157Y-32319D01*
X27138Y-32300D01*
X27099Y-32280D01*
G54D13*
X33850Y-31810D02*
X33850Y-31653D01*
X33864Y-31625D01*
X33892Y-31610D01*
X33950Y-31610D01*
X33978Y-31625D01*
X33850Y-31796D02*
X33878Y-31810D01*
X33950Y-31810D01*
X33978Y-31796D01*
X33992Y-31767D01*
X33992Y-31739D01*
X33978Y-31710D01*
X33950Y-31696D01*
X33878Y-31696D01*
X33850Y-31682D01*
X33707Y-31610D02*
X33707Y-31810D01*
X33707Y-31639D02*
X33692Y-31625D01*
X33664Y-31610D01*
X33621Y-31610D01*
X33592Y-31625D01*
X33578Y-31653D01*
X33578Y-31810D01*
X33150Y-31510D02*
X33092Y-31510D01*
X33064Y-31525D01*
X33035Y-31553D01*
X33021Y-31610D01*
X33021Y-31710D01*
X33035Y-31767D01*
X33064Y-31796D01*
X33092Y-31810D01*
X33150Y-31810D01*
X33178Y-31796D01*
X33207Y-31767D01*
X33221Y-31710D01*
X33221Y-31610D01*
X33207Y-31553D01*
X33178Y-31525D01*
X33150Y-31510D01*
X32892Y-31610D02*
X32892Y-31910D01*
X32892Y-31625D02*
X32864Y-31610D01*
X32807Y-31610D01*
X32778Y-31625D01*
X32764Y-31639D01*
X32750Y-31667D01*
X32750Y-31753D01*
X32764Y-31782D01*
X32778Y-31796D01*
X32807Y-31810D01*
X32864Y-31810D01*
X32892Y-31796D01*
X32507Y-31796D02*
X32535Y-31810D01*
X32592Y-31810D01*
X32621Y-31796D01*
X32635Y-31767D01*
X32635Y-31653D01*
X32621Y-31625D01*
X32592Y-31610D01*
X32535Y-31610D01*
X32507Y-31625D01*
X32492Y-31653D01*
X32492Y-31682D01*
X32635Y-31710D01*
X32364Y-31610D02*
X32364Y-31810D01*
X32364Y-31639D02*
X32350Y-31625D01*
X32321Y-31610D01*
X32278Y-31610D01*
X32250Y-31625D01*
X32235Y-31653D01*
X32235Y-31810D01*
X31864Y-31810D02*
X31864Y-31510D01*
X31864Y-31653D02*
X31692Y-31653D01*
X31692Y-31810D02*
X31692Y-31510D01*
X31421Y-31810D02*
X31421Y-31653D01*
X31435Y-31625D01*
X31464Y-31610D01*
X31521Y-31610D01*
X31550Y-31625D01*
X31421Y-31796D02*
X31450Y-31810D01*
X31521Y-31810D01*
X31550Y-31796D01*
X31564Y-31767D01*
X31564Y-31739D01*
X31550Y-31710D01*
X31521Y-31696D01*
X31450Y-31696D01*
X31421Y-31682D01*
X31278Y-31810D02*
X31278Y-31610D01*
X31278Y-31667D02*
X31264Y-31639D01*
X31250Y-31625D01*
X31221Y-31610D01*
X31192Y-31610D01*
X30964Y-31810D02*
X30964Y-31510D01*
X30964Y-31796D02*
X30992Y-31810D01*
X31050Y-31810D01*
X31078Y-31796D01*
X31092Y-31782D01*
X31107Y-31753D01*
X31107Y-31667D01*
X31092Y-31639D01*
X31078Y-31625D01*
X31050Y-31610D01*
X30992Y-31610D01*
X30964Y-31625D01*
X30850Y-31610D02*
X30792Y-31810D01*
X30735Y-31667D01*
X30678Y-31810D01*
X30621Y-31610D01*
X30378Y-31810D02*
X30378Y-31653D01*
X30392Y-31625D01*
X30421Y-31610D01*
X30478Y-31610D01*
X30507Y-31625D01*
X30378Y-31796D02*
X30407Y-31810D01*
X30478Y-31810D01*
X30507Y-31796D01*
X30521Y-31767D01*
X30521Y-31739D01*
X30507Y-31710D01*
X30478Y-31696D01*
X30407Y-31696D01*
X30378Y-31682D01*
X30235Y-31810D02*
X30235Y-31610D01*
X30235Y-31667D02*
X30221Y-31639D01*
X30207Y-31625D01*
X30178Y-31610D01*
X30149Y-31610D01*
X29935Y-31796D02*
X29964Y-31810D01*
X30021Y-31810D01*
X30049Y-31796D01*
X30064Y-31767D01*
X30064Y-31653D01*
X30049Y-31625D01*
X30021Y-31610D01*
X29964Y-31610D01*
X29935Y-31625D01*
X29921Y-31653D01*
X29921Y-31682D01*
X30064Y-31710D01*
X29507Y-31510D02*
X29450Y-31510D01*
X29421Y-31525D01*
X29392Y-31553D01*
X29378Y-31610D01*
X29378Y-31710D01*
X29392Y-31767D01*
X29421Y-31796D01*
X29450Y-31810D01*
X29507Y-31810D01*
X29535Y-31796D01*
X29564Y-31767D01*
X29578Y-31710D01*
X29578Y-31610D01*
X29564Y-31553D01*
X29535Y-31525D01*
X29507Y-31510D01*
X29249Y-31610D02*
X29249Y-31910D01*
X29249Y-31625D02*
X29221Y-31610D01*
X29164Y-31610D01*
X29135Y-31625D01*
X29121Y-31639D01*
X29107Y-31667D01*
X29107Y-31753D01*
X29121Y-31782D01*
X29135Y-31796D01*
X29164Y-31810D01*
X29221Y-31810D01*
X29249Y-31796D01*
X28864Y-31796D02*
X28892Y-31810D01*
X28949Y-31810D01*
X28978Y-31796D01*
X28992Y-31767D01*
X28992Y-31653D01*
X28978Y-31625D01*
X28949Y-31610D01*
X28892Y-31610D01*
X28864Y-31625D01*
X28849Y-31653D01*
X28849Y-31682D01*
X28992Y-31710D01*
X28721Y-31610D02*
X28721Y-31810D01*
X28721Y-31639D02*
X28707Y-31625D01*
X28678Y-31610D01*
X28635Y-31610D01*
X28607Y-31625D01*
X28592Y-31653D01*
X28592Y-31810D01*
X28235Y-31796D02*
X28192Y-31810D01*
X28121Y-31810D01*
X28092Y-31796D01*
X28078Y-31782D01*
X28064Y-31753D01*
X28064Y-31725D01*
X28078Y-31696D01*
X28092Y-31682D01*
X28121Y-31667D01*
X28178Y-31653D01*
X28207Y-31639D01*
X28221Y-31625D01*
X28235Y-31596D01*
X28235Y-31567D01*
X28221Y-31539D01*
X28207Y-31525D01*
X28178Y-31510D01*
X28107Y-31510D01*
X28064Y-31525D01*
X27892Y-31810D02*
X27921Y-31796D01*
X27935Y-31782D01*
X27949Y-31753D01*
X27949Y-31667D01*
X27935Y-31639D01*
X27921Y-31625D01*
X27892Y-31610D01*
X27849Y-31610D01*
X27821Y-31625D01*
X27807Y-31639D01*
X27792Y-31667D01*
X27792Y-31753D01*
X27807Y-31782D01*
X27821Y-31796D01*
X27849Y-31810D01*
X27892Y-31810D01*
X27535Y-31610D02*
X27535Y-31810D01*
X27664Y-31610D02*
X27664Y-31767D01*
X27649Y-31796D01*
X27621Y-31810D01*
X27578Y-31810D01*
X27549Y-31796D01*
X27535Y-31782D01*
X27392Y-31810D02*
X27392Y-31610D01*
X27392Y-31667D02*
X27378Y-31639D01*
X27364Y-31625D01*
X27335Y-31610D01*
X27307Y-31610D01*
X27078Y-31796D02*
X27107Y-31810D01*
X27164Y-31810D01*
X27192Y-31796D01*
X27207Y-31782D01*
X27221Y-31753D01*
X27221Y-31667D01*
X27207Y-31639D01*
X27192Y-31625D01*
X27164Y-31610D01*
X27107Y-31610D01*
X27078Y-31625D01*
X26835Y-31796D02*
X26864Y-31810D01*
X26921Y-31810D01*
X26949Y-31796D01*
X26964Y-31767D01*
X26964Y-31653D01*
X26949Y-31625D01*
X26921Y-31610D01*
X26864Y-31610D01*
X26835Y-31625D01*
X26821Y-31653D01*
X26821Y-31682D01*
X26964Y-31710D01*
X26464Y-31810D02*
X26464Y-31510D01*
X26349Y-31510D01*
X26321Y-31525D01*
X26307Y-31539D01*
X26292Y-31567D01*
X26292Y-31610D01*
X26307Y-31639D01*
X26321Y-31653D01*
X26349Y-31667D01*
X26464Y-31667D01*
X26164Y-31810D02*
X26164Y-31610D01*
X26164Y-31667D02*
X26149Y-31639D01*
X26135Y-31625D01*
X26107Y-31610D01*
X26078Y-31610D01*
X25935Y-31810D02*
X25964Y-31796D01*
X25978Y-31782D01*
X25992Y-31753D01*
X25992Y-31667D01*
X25978Y-31639D01*
X25964Y-31625D01*
X25935Y-31610D01*
X25892Y-31610D01*
X25864Y-31625D01*
X25849Y-31639D01*
X25835Y-31667D01*
X25835Y-31753D01*
X25849Y-31782D01*
X25864Y-31796D01*
X25892Y-31810D01*
X25935Y-31810D01*
X25707Y-31610D02*
X25707Y-31867D01*
X25721Y-31896D01*
X25749Y-31910D01*
X25764Y-31910D01*
X25707Y-31510D02*
X25721Y-31525D01*
X25707Y-31539D01*
X25692Y-31525D01*
X25707Y-31510D01*
X25707Y-31539D01*
X25449Y-31796D02*
X25478Y-31810D01*
X25535Y-31810D01*
X25564Y-31796D01*
X25578Y-31767D01*
X25578Y-31653D01*
X25564Y-31625D01*
X25535Y-31610D01*
X25478Y-31610D01*
X25449Y-31625D01*
X25435Y-31653D01*
X25435Y-31682D01*
X25578Y-31710D01*
X25178Y-31796D02*
X25207Y-31810D01*
X25264Y-31810D01*
X25292Y-31796D01*
X25307Y-31782D01*
X25321Y-31753D01*
X25321Y-31667D01*
X25307Y-31639D01*
X25292Y-31625D01*
X25264Y-31610D01*
X25207Y-31610D01*
X25178Y-31625D01*
X25092Y-31610D02*
X24978Y-31610D01*
X25049Y-31510D02*
X25049Y-31767D01*
X25035Y-31796D01*
X25007Y-31810D01*
X24978Y-31810D01*
G54D17*
X33564Y-30671D02*
X33364Y-31271D01*
X33164Y-30671D01*
X32964Y-31271D02*
X32964Y-30871D01*
X32964Y-30671D02*
X32992Y-30700D01*
X32964Y-30728D01*
X32935Y-30700D01*
X32964Y-30671D01*
X32964Y-30728D01*
X32678Y-31271D02*
X32678Y-30871D01*
X32678Y-30985D02*
X32650Y-30928D01*
X32621Y-30900D01*
X32564Y-30871D01*
X32507Y-30871D01*
X32392Y-30871D02*
X32164Y-30871D01*
X32307Y-30671D02*
X32307Y-31185D01*
X32278Y-31242D01*
X32221Y-31271D01*
X32164Y-31271D01*
X31707Y-30871D02*
X31707Y-31271D01*
X31964Y-30871D02*
X31964Y-31185D01*
X31935Y-31242D01*
X31878Y-31271D01*
X31792Y-31271D01*
X31735Y-31242D01*
X31707Y-31214D01*
X31164Y-31271D02*
X31164Y-30957D01*
X31192Y-30900D01*
X31250Y-30871D01*
X31364Y-30871D01*
X31421Y-30900D01*
X31164Y-31242D02*
X31221Y-31271D01*
X31364Y-31271D01*
X31421Y-31242D01*
X31450Y-31185D01*
X31450Y-31128D01*
X31421Y-31071D01*
X31364Y-31042D01*
X31221Y-31042D01*
X31164Y-31014D01*
X30792Y-31271D02*
X30850Y-31242D01*
X30878Y-31185D01*
X30878Y-30671D01*
X30592Y-31242D02*
X30507Y-31271D01*
X30364Y-31271D01*
X30307Y-31242D01*
X30278Y-31214D01*
X30250Y-31157D01*
X30250Y-31100D01*
X30278Y-31042D01*
X30307Y-31014D01*
X30364Y-30985D01*
X30478Y-30957D01*
X30535Y-30928D01*
X30564Y-30900D01*
X30592Y-30842D01*
X30592Y-30785D01*
X30564Y-30728D01*
X30535Y-30700D01*
X30478Y-30671D01*
X30335Y-30671D01*
X30250Y-30700D01*
X29764Y-31242D02*
X29821Y-31271D01*
X29935Y-31271D01*
X29992Y-31242D01*
X30021Y-31185D01*
X30021Y-30957D01*
X29992Y-30900D01*
X29935Y-30871D01*
X29821Y-30871D01*
X29764Y-30900D01*
X29735Y-30957D01*
X29735Y-31014D01*
X30021Y-31071D01*
X29478Y-30871D02*
X29478Y-31271D01*
X29478Y-30928D02*
X29449Y-30900D01*
X29392Y-30871D01*
X29307Y-30871D01*
X29249Y-30900D01*
X29221Y-30957D01*
X29221Y-31271D01*
X28964Y-31242D02*
X28907Y-31271D01*
X28792Y-31271D01*
X28735Y-31242D01*
X28707Y-31185D01*
X28707Y-31157D01*
X28735Y-31100D01*
X28792Y-31071D01*
X28878Y-31071D01*
X28935Y-31042D01*
X28964Y-30985D01*
X28964Y-30957D01*
X28935Y-30900D01*
X28878Y-30871D01*
X28792Y-30871D01*
X28735Y-30900D01*
X28221Y-31242D02*
X28278Y-31271D01*
X28392Y-31271D01*
X28450Y-31242D01*
X28478Y-31185D01*
X28478Y-30957D01*
X28450Y-30900D01*
X28392Y-30871D01*
X28278Y-30871D01*
X28221Y-30900D01*
X28192Y-30957D01*
X28192Y-31014D01*
X28478Y-31071D01*
X27478Y-31042D02*
X27021Y-31042D01*
%LPC*%
G54D21*
X20000Y-39000D03*
G54D22*
X39000Y-20000D03*
G54D23*
X36000Y-21000D03*
X35000Y-21000D03*
X34000Y-21000D03*
X33000Y-21000D03*
X32000Y-21000D03*
X31000Y-21000D03*
X30000Y-21000D03*
X29000Y-21000D03*
X28000Y-21000D03*
X27000Y-21000D03*
X26000Y-21000D03*
X25000Y-21000D03*
X24000Y-21000D03*
G54D24*
X23000Y-21000D03*
X23000Y-20000D03*
G54D23*
X24000Y-20000D03*
X25000Y-20000D03*
X26000Y-20000D03*
X27000Y-20000D03*
X28000Y-20000D03*
X29000Y-20000D03*
X30000Y-20000D03*
X31000Y-20000D03*
X32000Y-20000D03*
X33000Y-20000D03*
X34000Y-20000D03*
X35000Y-20000D03*
X36000Y-20000D03*
X21000Y-23000D03*
X21000Y-24000D03*
X21000Y-25000D03*
X21000Y-26000D03*
X21000Y-27000D03*
X21000Y-28000D03*
X21000Y-29000D03*
X21000Y-30000D03*
X21000Y-31000D03*
X21000Y-32000D03*
X21000Y-33000D03*
X21000Y-34000D03*
X21000Y-35000D03*
G54D24*
X21000Y-36000D03*
X20000Y-36000D03*
G54D23*
X20000Y-35000D03*
X20000Y-34000D03*
X20000Y-33000D03*
X20000Y-32000D03*
X20000Y-31000D03*
X20000Y-30000D03*
X20000Y-29000D03*
X20000Y-28000D03*
X20000Y-27000D03*
X20000Y-26000D03*
X20000Y-25000D03*
X20000Y-24000D03*
X20000Y-23000D03*
X38000Y-36000D03*
X38000Y-35000D03*
X38000Y-34000D03*
X38000Y-33000D03*
X38000Y-32000D03*
X38000Y-31000D03*
X38000Y-30000D03*
X38000Y-29000D03*
X38000Y-28000D03*
X38000Y-27000D03*
X38000Y-26000D03*
X38000Y-25000D03*
X38000Y-24000D03*
G54D24*
X38000Y-23000D03*
X39000Y-23000D03*
G54D23*
X39000Y-24000D03*
X39000Y-25000D03*
X39000Y-26000D03*
X39000Y-27000D03*
X39000Y-28000D03*
X39000Y-29000D03*
X39000Y-30000D03*
X39000Y-31000D03*
X39000Y-32000D03*
X39000Y-33000D03*
X39000Y-34000D03*
X39000Y-35000D03*
X39000Y-36000D03*
M02*
