G04 (created by PCBNEW (2013-mar-13)-testing) date Sun 04 Aug 2013 09:21:59 PM CEST*
%MOIN*%
G04 Gerber Fmt 3.4, Leading zero omitted, Abs format*
%FSLAX34Y34*%
G01*
G70*
G90*
G04 APERTURE LIST*
%ADD10C,0.005906*%
%ADD11C,0.015000*%
%ADD12C,0.005000*%
%ADD13C,0.005900*%
%ADD14C,0.012000*%
%ADD15C,0.010000*%
%ADD16C,0.007500*%
%ADD17C,0.006000*%
%ADD18C,0.010700*%
%ADD19C,0.116000*%
%ADD20R,0.052000X0.052000*%
%ADD21R,0.027800X0.035700*%
%ADD22O,0.027000X0.055400*%
%ADD23O,0.055400X0.027000*%
%ADD24R,0.153800X0.153800*%
%ADD25R,0.047500X0.035700*%
%ADD26R,0.067200X0.079000*%
%ADD27C,0.156000*%
%ADD28R,0.071000X0.051000*%
%ADD29R,0.051000X0.071000*%
%ADD30C,0.086000*%
%ADD31R,0.086000X0.086000*%
%ADD32R,0.075100X0.075100*%
%ADD33C,0.075100*%
%ADD34R,0.036000X0.039600*%
%ADD35R,0.039600X0.036000*%
G04 APERTURE END LIST*
G54D10*
G54D11*
X21600Y-38000D02*
G75*
G03X21600Y-38000I-600J0D01*
G74*
G01*
G54D12*
X28350Y-25100D02*
X28350Y-23900D01*
X28350Y-23900D02*
X28650Y-23900D01*
X28650Y-23900D02*
X28650Y-25100D01*
X28650Y-25100D02*
X28350Y-25100D01*
X23757Y-23955D02*
X23757Y-22755D01*
X23757Y-22755D02*
X24057Y-22755D01*
X24057Y-22755D02*
X24057Y-23955D01*
X24057Y-23955D02*
X23757Y-23955D01*
G54D11*
X25699Y-22549D02*
X25699Y-23179D01*
X26644Y-22549D02*
X26644Y-23179D01*
X31926Y-28992D02*
G75*
G03X31926Y-28992I-278J0D01*
G74*
G01*
X31648Y-28992D02*
X31648Y-31748D01*
X31648Y-31748D02*
X28892Y-31748D01*
X28892Y-31748D02*
X28892Y-28992D01*
X28892Y-28992D02*
X31648Y-28992D01*
G54D13*
X31787Y-22917D02*
X31787Y-25083D01*
X31787Y-25083D02*
X30213Y-25083D01*
X30213Y-25083D02*
X30213Y-22917D01*
X30213Y-22917D02*
X31787Y-22917D01*
G54D11*
X25826Y-31161D02*
X23858Y-31161D01*
X23858Y-31161D02*
X23858Y-28601D01*
X23858Y-28601D02*
X25826Y-28601D01*
X25826Y-28601D02*
X25826Y-31161D01*
X38800Y-21000D02*
G75*
G03X38800Y-21000I-800J0D01*
G74*
G01*
G54D14*
X23500Y-21500D02*
X23500Y-20500D01*
X22500Y-20500D02*
X36500Y-20500D01*
X36500Y-20500D02*
X36500Y-21500D01*
X36500Y-21500D02*
X22500Y-21500D01*
X22500Y-21500D02*
X22500Y-20500D01*
X21500Y-35500D02*
X20500Y-35500D01*
X20500Y-36500D02*
X20500Y-22500D01*
X20500Y-22500D02*
X21500Y-22500D01*
X21500Y-22500D02*
X21500Y-36500D01*
X21500Y-36500D02*
X20500Y-36500D01*
X37500Y-23500D02*
X38500Y-23500D01*
X38500Y-22500D02*
X38500Y-36500D01*
X38500Y-36500D02*
X37500Y-36500D01*
X37500Y-36500D02*
X37500Y-22500D01*
X37500Y-22500D02*
X38500Y-22500D01*
G54D10*
X36910Y-10216D02*
X36910Y-10694D01*
X36938Y-10750D01*
X36966Y-10779D01*
X37022Y-10807D01*
X37135Y-10807D01*
X37191Y-10779D01*
X37219Y-10750D01*
X37247Y-10694D01*
X37247Y-10216D01*
X37781Y-10413D02*
X37781Y-10807D01*
X37641Y-10188D02*
X37500Y-10610D01*
X37866Y-10610D01*
X12636Y-12797D02*
X12720Y-12825D01*
X12748Y-12854D01*
X12776Y-12910D01*
X12776Y-12994D01*
X12748Y-13050D01*
X12720Y-13079D01*
X12664Y-13107D01*
X12439Y-13107D01*
X12439Y-12516D01*
X12636Y-12516D01*
X12692Y-12544D01*
X12720Y-12572D01*
X12748Y-12629D01*
X12748Y-12685D01*
X12720Y-12741D01*
X12692Y-12769D01*
X12636Y-12797D01*
X12439Y-12797D01*
X13001Y-12938D02*
X13283Y-12938D01*
X12945Y-13107D02*
X13142Y-12516D01*
X13339Y-13107D01*
X13817Y-13107D02*
X13536Y-13107D01*
X13536Y-12516D01*
X14014Y-12516D02*
X14014Y-12994D01*
X14042Y-13050D01*
X14070Y-13079D01*
X14126Y-13107D01*
X14239Y-13107D01*
X14295Y-13079D01*
X14323Y-13050D01*
X14351Y-12994D01*
X14351Y-12516D01*
X14632Y-13107D02*
X14632Y-12516D01*
X14970Y-13107D01*
X14970Y-12516D01*
X15111Y-13163D02*
X15560Y-13163D01*
X15673Y-12938D02*
X15954Y-12938D01*
X15617Y-13107D02*
X15814Y-12516D01*
X16010Y-13107D01*
X16207Y-13107D02*
X16207Y-12516D01*
X16545Y-13107D01*
X16545Y-12516D01*
X16742Y-12516D02*
X17079Y-12516D01*
X16910Y-13107D02*
X16910Y-12516D01*
X17276Y-12797D02*
X17473Y-12797D01*
X17557Y-13107D02*
X17276Y-13107D01*
X17276Y-12516D01*
X17557Y-12516D01*
X17810Y-13107D02*
X17810Y-12516D01*
X18148Y-13107D01*
X18148Y-12516D01*
X18429Y-13107D02*
X18429Y-12516D01*
X18766Y-13107D01*
X18766Y-12516D01*
X19019Y-12938D02*
X19301Y-12938D01*
X18963Y-13107D02*
X19160Y-12516D01*
X19357Y-13107D01*
X19413Y-13163D02*
X19863Y-13163D01*
X19976Y-12572D02*
X20004Y-12544D01*
X20060Y-12516D01*
X20200Y-12516D01*
X20257Y-12544D01*
X20285Y-12572D01*
X20313Y-12629D01*
X20313Y-12685D01*
X20285Y-12769D01*
X19947Y-13107D01*
X20313Y-13107D01*
X20875Y-12544D02*
X20819Y-12516D01*
X20735Y-12516D01*
X20650Y-12544D01*
X20594Y-12600D01*
X20566Y-12657D01*
X20538Y-12769D01*
X20538Y-12854D01*
X20566Y-12966D01*
X20594Y-13022D01*
X20650Y-13079D01*
X20735Y-13107D01*
X20791Y-13107D01*
X20875Y-13079D01*
X20904Y-13050D01*
X20904Y-12854D01*
X20791Y-12854D01*
X21157Y-13107D02*
X21157Y-12516D01*
X21157Y-12797D02*
X21494Y-12797D01*
X21494Y-13107D02*
X21494Y-12516D01*
X21719Y-12516D02*
X22113Y-12516D01*
X21719Y-13107D01*
X22113Y-13107D01*
X22591Y-12713D02*
X22591Y-13107D01*
X22450Y-12488D02*
X22310Y-12910D01*
X22675Y-12910D01*
X22760Y-13163D02*
X23209Y-13163D01*
X23266Y-12516D02*
X23603Y-12516D01*
X23434Y-13107D02*
X23434Y-12516D01*
X23800Y-13107D02*
X23800Y-12516D01*
G54D15*
X16704Y-10080D02*
X16704Y-9680D01*
X16857Y-9680D01*
X16895Y-9700D01*
X16914Y-9719D01*
X16933Y-9757D01*
X16933Y-9814D01*
X16914Y-9852D01*
X16895Y-9871D01*
X16857Y-9890D01*
X16704Y-9890D01*
X17066Y-9680D02*
X17314Y-9680D01*
X17180Y-9833D01*
X17238Y-9833D01*
X17276Y-9852D01*
X17295Y-9871D01*
X17314Y-9909D01*
X17314Y-10004D01*
X17295Y-10042D01*
X17276Y-10061D01*
X17238Y-10080D01*
X17123Y-10080D01*
X17085Y-10061D01*
X17066Y-10042D01*
G54D16*
X29121Y-24064D02*
X29092Y-24050D01*
X29064Y-24021D01*
X29021Y-23978D01*
X28992Y-23964D01*
X28964Y-23964D01*
X28978Y-24035D02*
X28950Y-24021D01*
X28921Y-23992D01*
X28907Y-23935D01*
X28907Y-23835D01*
X28921Y-23778D01*
X28950Y-23750D01*
X28978Y-23735D01*
X29035Y-23735D01*
X29064Y-23750D01*
X29092Y-23778D01*
X29107Y-23835D01*
X29107Y-23935D01*
X29092Y-23992D01*
X29064Y-24021D01*
X29035Y-24035D01*
X28978Y-24035D01*
X29392Y-24035D02*
X29221Y-24035D01*
X29307Y-24035D02*
X29307Y-23735D01*
X29278Y-23778D01*
X29250Y-23807D01*
X29221Y-23821D01*
X38178Y-12160D02*
X38178Y-11860D01*
X38278Y-12075D01*
X38378Y-11860D01*
X38378Y-12160D01*
X38578Y-11860D02*
X38635Y-11860D01*
X38664Y-11875D01*
X38692Y-11903D01*
X38707Y-11960D01*
X38707Y-12060D01*
X38692Y-12117D01*
X38664Y-12146D01*
X38635Y-12160D01*
X38578Y-12160D01*
X38550Y-12146D01*
X38521Y-12117D01*
X38507Y-12060D01*
X38507Y-11960D01*
X38521Y-11903D01*
X38550Y-11875D01*
X38578Y-11860D01*
X38821Y-12146D02*
X38864Y-12160D01*
X38935Y-12160D01*
X38964Y-12146D01*
X38978Y-12132D01*
X38992Y-12103D01*
X38992Y-12075D01*
X38978Y-12046D01*
X38964Y-12032D01*
X38935Y-12017D01*
X38878Y-12003D01*
X38850Y-11989D01*
X38835Y-11975D01*
X38821Y-11946D01*
X38821Y-11917D01*
X38835Y-11889D01*
X38850Y-11875D01*
X38878Y-11860D01*
X38950Y-11860D01*
X38992Y-11875D01*
X39050Y-12189D02*
X39278Y-12189D01*
X39350Y-12160D02*
X39350Y-11860D01*
X39521Y-12160D01*
X39521Y-11860D01*
X24471Y-22914D02*
X24442Y-22899D01*
X24414Y-22871D01*
X24371Y-22828D01*
X24342Y-22814D01*
X24314Y-22814D01*
X24328Y-22885D02*
X24299Y-22871D01*
X24271Y-22842D01*
X24257Y-22785D01*
X24257Y-22685D01*
X24271Y-22628D01*
X24299Y-22599D01*
X24328Y-22585D01*
X24385Y-22585D01*
X24414Y-22599D01*
X24442Y-22628D01*
X24457Y-22685D01*
X24457Y-22785D01*
X24442Y-22842D01*
X24414Y-22871D01*
X24385Y-22885D01*
X24328Y-22885D01*
X24571Y-22614D02*
X24585Y-22599D01*
X24614Y-22585D01*
X24685Y-22585D01*
X24714Y-22599D01*
X24728Y-22614D01*
X24742Y-22642D01*
X24742Y-22671D01*
X24728Y-22714D01*
X24557Y-22885D01*
X24742Y-22885D01*
X32728Y-11935D02*
X32728Y-11635D01*
X32828Y-11849D01*
X32928Y-11635D01*
X32928Y-11935D01*
X33128Y-11635D02*
X33185Y-11635D01*
X33214Y-11649D01*
X33242Y-11678D01*
X33257Y-11735D01*
X33257Y-11835D01*
X33242Y-11892D01*
X33214Y-11921D01*
X33185Y-11935D01*
X33128Y-11935D01*
X33099Y-11921D01*
X33071Y-11892D01*
X33057Y-11835D01*
X33057Y-11735D01*
X33071Y-11678D01*
X33099Y-11649D01*
X33128Y-11635D01*
X33371Y-11921D02*
X33414Y-11935D01*
X33485Y-11935D01*
X33514Y-11921D01*
X33528Y-11907D01*
X33542Y-11878D01*
X33542Y-11849D01*
X33528Y-11821D01*
X33514Y-11807D01*
X33485Y-11792D01*
X33428Y-11778D01*
X33399Y-11764D01*
X33385Y-11749D01*
X33371Y-11721D01*
X33371Y-11692D01*
X33385Y-11664D01*
X33399Y-11649D01*
X33428Y-11635D01*
X33499Y-11635D01*
X33542Y-11649D01*
X33599Y-11964D02*
X33828Y-11964D01*
X33899Y-11935D02*
X33899Y-11635D01*
X34071Y-11935D01*
X34071Y-11635D01*
G54D14*
X17335Y-11957D02*
X17421Y-11985D01*
X17449Y-12014D01*
X17478Y-12071D01*
X17478Y-12157D01*
X17449Y-12214D01*
X17421Y-12242D01*
X17364Y-12271D01*
X17135Y-12271D01*
X17135Y-11671D01*
X17335Y-11671D01*
X17392Y-11700D01*
X17421Y-11728D01*
X17449Y-11785D01*
X17449Y-11842D01*
X17421Y-11900D01*
X17392Y-11928D01*
X17335Y-11957D01*
X17135Y-11957D01*
X17735Y-12271D02*
X17735Y-11671D01*
X17735Y-11957D02*
X18078Y-11957D01*
X18078Y-12271D02*
X18078Y-11671D01*
X18678Y-12271D02*
X18335Y-12271D01*
X18507Y-12271D02*
X18507Y-11671D01*
X18449Y-11757D01*
X18392Y-11814D01*
X18335Y-11842D01*
X19192Y-11671D02*
X19078Y-11671D01*
X19021Y-11700D01*
X18992Y-11728D01*
X18935Y-11814D01*
X18907Y-11928D01*
X18907Y-12157D01*
X18935Y-12214D01*
X18964Y-12242D01*
X19021Y-12271D01*
X19135Y-12271D01*
X19192Y-12242D01*
X19221Y-12214D01*
X19249Y-12157D01*
X19249Y-12014D01*
X19221Y-11957D01*
X19192Y-11928D01*
X19135Y-11900D01*
X19021Y-11900D01*
X18964Y-11928D01*
X18935Y-11957D01*
X18907Y-12014D01*
X19478Y-11728D02*
X19507Y-11700D01*
X19564Y-11671D01*
X19707Y-11671D01*
X19764Y-11700D01*
X19792Y-11728D01*
X19821Y-11785D01*
X19821Y-11842D01*
X19792Y-11928D01*
X19449Y-12271D01*
X19821Y-12271D01*
X20192Y-11671D02*
X20250Y-11671D01*
X20307Y-11700D01*
X20335Y-11728D01*
X20364Y-11785D01*
X20392Y-11900D01*
X20392Y-12042D01*
X20364Y-12157D01*
X20335Y-12214D01*
X20307Y-12242D01*
X20250Y-12271D01*
X20192Y-12271D01*
X20135Y-12242D01*
X20107Y-12214D01*
X20078Y-12157D01*
X20050Y-12042D01*
X20050Y-11900D01*
X20078Y-11785D01*
X20107Y-11728D01*
X20135Y-11700D01*
X20192Y-11671D01*
X20850Y-11957D02*
X20650Y-11957D01*
X20650Y-12271D02*
X20650Y-11671D01*
X20935Y-11671D01*
X21078Y-11671D02*
X21278Y-12271D01*
X21478Y-11671D01*
X22021Y-12214D02*
X21992Y-12242D01*
X21907Y-12271D01*
X21850Y-12271D01*
X21764Y-12242D01*
X21707Y-12185D01*
X21678Y-12128D01*
X21650Y-12014D01*
X21650Y-11928D01*
X21678Y-11814D01*
X21707Y-11757D01*
X21764Y-11700D01*
X21850Y-11671D01*
X21907Y-11671D01*
X21992Y-11700D01*
X22021Y-11728D01*
X22592Y-12271D02*
X22250Y-12271D01*
X22421Y-12271D02*
X22421Y-11671D01*
X22364Y-11757D01*
X22307Y-11814D01*
X22250Y-11842D01*
G54D17*
X25883Y-23558D02*
X25883Y-23841D01*
X25900Y-23875D01*
X25916Y-23891D01*
X25950Y-23908D01*
X26016Y-23908D01*
X26050Y-23891D01*
X26066Y-23875D01*
X26083Y-23841D01*
X26083Y-23558D01*
X26400Y-23675D02*
X26400Y-23908D01*
X26316Y-23541D02*
X26233Y-23791D01*
X26450Y-23791D01*
X30033Y-28458D02*
X30033Y-28741D01*
X30050Y-28775D01*
X30066Y-28791D01*
X30100Y-28808D01*
X30166Y-28808D01*
X30200Y-28791D01*
X30216Y-28775D01*
X30233Y-28741D01*
X30233Y-28458D01*
X30583Y-28808D02*
X30383Y-28808D01*
X30483Y-28808D02*
X30483Y-28458D01*
X30450Y-28508D01*
X30416Y-28541D01*
X30383Y-28558D01*
G54D14*
X24142Y-10414D02*
X24114Y-10442D01*
X24028Y-10471D01*
X23971Y-10471D01*
X23885Y-10442D01*
X23828Y-10385D01*
X23799Y-10328D01*
X23771Y-10214D01*
X23771Y-10128D01*
X23799Y-10014D01*
X23828Y-9957D01*
X23885Y-9900D01*
X23971Y-9871D01*
X24028Y-9871D01*
X24114Y-9900D01*
X24142Y-9928D01*
X24742Y-10414D02*
X24714Y-10442D01*
X24628Y-10471D01*
X24571Y-10471D01*
X24485Y-10442D01*
X24428Y-10385D01*
X24399Y-10328D01*
X24371Y-10214D01*
X24371Y-10128D01*
X24399Y-10014D01*
X24428Y-9957D01*
X24485Y-9900D01*
X24571Y-9871D01*
X24628Y-9871D01*
X24714Y-9900D01*
X24742Y-9928D01*
X24971Y-9928D02*
X24999Y-9900D01*
X25057Y-9871D01*
X25199Y-9871D01*
X25257Y-9900D01*
X25285Y-9928D01*
X25314Y-9985D01*
X25314Y-10042D01*
X25285Y-10128D01*
X24942Y-10471D01*
X25314Y-10471D01*
X25857Y-9871D02*
X25571Y-9871D01*
X25542Y-10157D01*
X25571Y-10128D01*
X25628Y-10100D01*
X25771Y-10100D01*
X25828Y-10128D01*
X25857Y-10157D01*
X25885Y-10214D01*
X25885Y-10357D01*
X25857Y-10414D01*
X25828Y-10442D01*
X25771Y-10471D01*
X25628Y-10471D01*
X25571Y-10442D01*
X25542Y-10414D01*
X26114Y-9928D02*
X26142Y-9900D01*
X26200Y-9871D01*
X26342Y-9871D01*
X26400Y-9900D01*
X26428Y-9928D01*
X26457Y-9985D01*
X26457Y-10042D01*
X26428Y-10128D01*
X26085Y-10471D01*
X26457Y-10471D01*
X26828Y-9871D02*
X26885Y-9871D01*
X26942Y-9900D01*
X26971Y-9928D01*
X27000Y-9985D01*
X27028Y-10100D01*
X27028Y-10242D01*
X27000Y-10357D01*
X26971Y-10414D01*
X26942Y-10442D01*
X26885Y-10471D01*
X26828Y-10471D01*
X26771Y-10442D01*
X26742Y-10414D01*
X26714Y-10357D01*
X26685Y-10242D01*
X26685Y-10100D01*
X26714Y-9985D01*
X26742Y-9928D01*
X26771Y-9900D01*
X26828Y-9871D01*
G54D17*
X30733Y-22408D02*
X30733Y-22691D01*
X30750Y-22725D01*
X30766Y-22741D01*
X30800Y-22758D01*
X30866Y-22758D01*
X30900Y-22741D01*
X30916Y-22725D01*
X30933Y-22691D01*
X30933Y-22408D01*
X31083Y-22441D02*
X31100Y-22425D01*
X31133Y-22408D01*
X31216Y-22408D01*
X31250Y-22425D01*
X31266Y-22441D01*
X31283Y-22475D01*
X31283Y-22508D01*
X31266Y-22558D01*
X31066Y-22758D01*
X31283Y-22758D01*
G54D13*
X29942Y-13128D02*
X29942Y-12734D01*
X30074Y-13015D01*
X30205Y-12734D01*
X30205Y-13128D01*
X30393Y-13128D02*
X30393Y-12734D01*
X30543Y-12734D01*
X30580Y-12753D01*
X30599Y-12771D01*
X30618Y-12809D01*
X30618Y-12865D01*
X30599Y-12903D01*
X30580Y-12921D01*
X30543Y-12940D01*
X30393Y-12940D01*
X30974Y-13128D02*
X30787Y-13128D01*
X30787Y-12734D01*
X31312Y-13128D02*
X31087Y-13128D01*
X31199Y-13128D02*
X31199Y-12734D01*
X31162Y-12790D01*
X31124Y-12828D01*
X31087Y-12846D01*
X31687Y-13128D02*
X31462Y-13128D01*
X31575Y-13128D02*
X31575Y-12734D01*
X31537Y-12790D01*
X31500Y-12828D01*
X31462Y-12846D01*
X32044Y-12734D02*
X31856Y-12734D01*
X31837Y-12921D01*
X31856Y-12903D01*
X31894Y-12884D01*
X31987Y-12884D01*
X32025Y-12903D01*
X32044Y-12921D01*
X32062Y-12959D01*
X32062Y-13053D01*
X32044Y-13090D01*
X32025Y-13109D01*
X31987Y-13128D01*
X31894Y-13128D01*
X31856Y-13109D01*
X31837Y-13090D01*
X32213Y-13015D02*
X32400Y-13015D01*
X32175Y-13128D02*
X32306Y-12734D01*
X32438Y-13128D01*
X32550Y-12771D02*
X32569Y-12753D01*
X32607Y-12734D01*
X32700Y-12734D01*
X32738Y-12753D01*
X32757Y-12771D01*
X32775Y-12809D01*
X32775Y-12846D01*
X32757Y-12903D01*
X32532Y-13128D01*
X32775Y-13128D01*
G54D17*
X23133Y-29708D02*
X23133Y-29991D01*
X23150Y-30025D01*
X23166Y-30041D01*
X23200Y-30058D01*
X23266Y-30058D01*
X23300Y-30041D01*
X23316Y-30025D01*
X23333Y-29991D01*
X23333Y-29708D01*
X23466Y-29708D02*
X23683Y-29708D01*
X23566Y-29841D01*
X23616Y-29841D01*
X23650Y-29858D01*
X23666Y-29875D01*
X23683Y-29908D01*
X23683Y-29991D01*
X23666Y-30025D01*
X23650Y-30041D01*
X23616Y-30058D01*
X23516Y-30058D01*
X23483Y-30041D01*
X23466Y-30025D01*
G54D14*
X13657Y-12328D02*
X13600Y-12300D01*
X13542Y-12242D01*
X13457Y-12157D01*
X13400Y-12128D01*
X13342Y-12128D01*
X13371Y-12271D02*
X13314Y-12242D01*
X13257Y-12185D01*
X13228Y-12071D01*
X13228Y-11871D01*
X13257Y-11757D01*
X13314Y-11700D01*
X13371Y-11671D01*
X13485Y-11671D01*
X13542Y-11700D01*
X13600Y-11757D01*
X13628Y-11871D01*
X13628Y-12071D01*
X13600Y-12185D01*
X13542Y-12242D01*
X13485Y-12271D01*
X13371Y-12271D01*
X13885Y-11671D02*
X13885Y-12157D01*
X13914Y-12214D01*
X13942Y-12242D01*
X14000Y-12271D01*
X14114Y-12271D01*
X14171Y-12242D01*
X14200Y-12214D01*
X14228Y-12157D01*
X14228Y-11671D01*
X14485Y-12100D02*
X14771Y-12100D01*
X14428Y-12271D02*
X14628Y-11671D01*
X14828Y-12271D01*
X15371Y-12271D02*
X15171Y-11985D01*
X15028Y-12271D02*
X15028Y-11671D01*
X15257Y-11671D01*
X15314Y-11700D01*
X15342Y-11728D01*
X15371Y-11785D01*
X15371Y-11871D01*
X15342Y-11928D01*
X15314Y-11957D01*
X15257Y-11985D01*
X15028Y-11985D01*
X15571Y-11671D02*
X15971Y-11671D01*
X15571Y-12271D01*
X15971Y-12271D01*
X16314Y-11671D02*
X16428Y-11671D01*
X16485Y-11700D01*
X16542Y-11757D01*
X16571Y-11871D01*
X16571Y-12071D01*
X16542Y-12185D01*
X16485Y-12242D01*
X16428Y-12271D01*
X16314Y-12271D01*
X16257Y-12242D01*
X16200Y-12185D01*
X16171Y-12071D01*
X16171Y-11871D01*
X16200Y-11757D01*
X16257Y-11700D01*
X16314Y-11671D01*
G54D15*
X37204Y-13180D02*
X37204Y-12780D01*
X37357Y-12780D01*
X37395Y-12800D01*
X37414Y-12819D01*
X37433Y-12857D01*
X37433Y-12914D01*
X37414Y-12952D01*
X37395Y-12971D01*
X37357Y-12990D01*
X37204Y-12990D01*
X37585Y-12819D02*
X37604Y-12800D01*
X37642Y-12780D01*
X37738Y-12780D01*
X37776Y-12800D01*
X37795Y-12819D01*
X37814Y-12857D01*
X37814Y-12895D01*
X37795Y-12952D01*
X37566Y-13180D01*
X37814Y-13180D01*
X36082Y-12722D02*
X36063Y-12741D01*
X36006Y-12760D01*
X35968Y-12760D01*
X35910Y-12741D01*
X35872Y-12703D01*
X35853Y-12665D01*
X35834Y-12589D01*
X35834Y-12532D01*
X35853Y-12456D01*
X35872Y-12418D01*
X35910Y-12380D01*
X35968Y-12360D01*
X36006Y-12360D01*
X36063Y-12380D01*
X36082Y-12399D01*
X36330Y-12360D02*
X36406Y-12360D01*
X36444Y-12380D01*
X36482Y-12418D01*
X36501Y-12494D01*
X36501Y-12627D01*
X36482Y-12703D01*
X36444Y-12741D01*
X36406Y-12760D01*
X36330Y-12760D01*
X36291Y-12741D01*
X36253Y-12703D01*
X36234Y-12627D01*
X36234Y-12494D01*
X36253Y-12418D01*
X36291Y-12380D01*
X36330Y-12360D01*
X36672Y-12760D02*
X36672Y-12360D01*
X36901Y-12760D01*
X36901Y-12360D01*
X37091Y-12760D02*
X37091Y-12360D01*
X37320Y-12760D01*
X37320Y-12360D01*
X37415Y-12799D02*
X37720Y-12799D01*
X38025Y-12760D02*
X37796Y-12760D01*
X37910Y-12760D02*
X37910Y-12360D01*
X37872Y-12418D01*
X37834Y-12456D01*
X37796Y-12475D01*
G54D12*
X25489Y-33641D02*
X25501Y-33653D01*
X25513Y-33689D01*
X25513Y-33713D01*
X25501Y-33748D01*
X25477Y-33772D01*
X25453Y-33784D01*
X25405Y-33796D01*
X25370Y-33796D01*
X25322Y-33784D01*
X25298Y-33772D01*
X25275Y-33748D01*
X25263Y-33713D01*
X25263Y-33689D01*
X25275Y-33653D01*
X25286Y-33641D01*
X25513Y-33403D02*
X25513Y-33546D01*
X25513Y-33475D02*
X25263Y-33475D01*
X25298Y-33498D01*
X25322Y-33522D01*
X25334Y-33546D01*
X28458Y-22539D02*
X28446Y-22551D01*
X28410Y-22563D01*
X28386Y-22563D01*
X28351Y-22551D01*
X28327Y-22527D01*
X28315Y-22503D01*
X28303Y-22455D01*
X28303Y-22420D01*
X28315Y-22372D01*
X28327Y-22348D01*
X28351Y-22325D01*
X28386Y-22313D01*
X28410Y-22313D01*
X28446Y-22325D01*
X28458Y-22336D01*
X28553Y-22336D02*
X28565Y-22325D01*
X28589Y-22313D01*
X28648Y-22313D01*
X28672Y-22325D01*
X28684Y-22336D01*
X28696Y-22360D01*
X28696Y-22384D01*
X28684Y-22420D01*
X28541Y-22563D01*
X28696Y-22563D01*
X24269Y-25141D02*
X24281Y-25153D01*
X24293Y-25189D01*
X24293Y-25213D01*
X24281Y-25248D01*
X24257Y-25272D01*
X24233Y-25284D01*
X24185Y-25296D01*
X24150Y-25296D01*
X24102Y-25284D01*
X24078Y-25272D01*
X24055Y-25248D01*
X24043Y-25213D01*
X24043Y-25189D01*
X24055Y-25153D01*
X24066Y-25141D01*
X24043Y-25058D02*
X24043Y-24903D01*
X24138Y-24986D01*
X24138Y-24951D01*
X24150Y-24927D01*
X24162Y-24915D01*
X24185Y-24903D01*
X24245Y-24903D01*
X24269Y-24915D01*
X24281Y-24927D01*
X24293Y-24951D01*
X24293Y-25022D01*
X24281Y-25046D01*
X24269Y-25058D01*
X22943Y-23407D02*
X22955Y-23419D01*
X22967Y-23455D01*
X22967Y-23479D01*
X22955Y-23514D01*
X22931Y-23538D01*
X22907Y-23550D01*
X22859Y-23562D01*
X22824Y-23562D01*
X22776Y-23550D01*
X22752Y-23538D01*
X22729Y-23514D01*
X22717Y-23479D01*
X22717Y-23455D01*
X22729Y-23419D01*
X22740Y-23407D01*
X22800Y-23193D02*
X22967Y-23193D01*
X22705Y-23252D02*
X22883Y-23312D01*
X22883Y-23157D01*
X33639Y-24041D02*
X33651Y-24053D01*
X33663Y-24089D01*
X33663Y-24113D01*
X33651Y-24148D01*
X33627Y-24172D01*
X33603Y-24184D01*
X33555Y-24196D01*
X33520Y-24196D01*
X33472Y-24184D01*
X33448Y-24172D01*
X33425Y-24148D01*
X33413Y-24113D01*
X33413Y-24089D01*
X33425Y-24053D01*
X33436Y-24041D01*
X33413Y-23827D02*
X33413Y-23875D01*
X33425Y-23898D01*
X33436Y-23910D01*
X33472Y-23934D01*
X33520Y-23946D01*
X33615Y-23946D01*
X33639Y-23934D01*
X33651Y-23922D01*
X33663Y-23898D01*
X33663Y-23851D01*
X33651Y-23827D01*
X33639Y-23815D01*
X33615Y-23803D01*
X33555Y-23803D01*
X33532Y-23815D01*
X33520Y-23827D01*
X33508Y-23851D01*
X33508Y-23898D01*
X33520Y-23922D01*
X33532Y-23934D01*
X33555Y-23946D01*
X23188Y-34798D02*
X23176Y-34810D01*
X23140Y-34822D01*
X23116Y-34822D01*
X23081Y-34810D01*
X23057Y-34787D01*
X23045Y-34763D01*
X23033Y-34715D01*
X23033Y-34679D01*
X23045Y-34632D01*
X23057Y-34608D01*
X23081Y-34584D01*
X23116Y-34572D01*
X23140Y-34572D01*
X23176Y-34584D01*
X23188Y-34596D01*
X23426Y-34822D02*
X23283Y-34822D01*
X23355Y-34822D02*
X23355Y-34572D01*
X23331Y-34608D01*
X23307Y-34632D01*
X23283Y-34644D01*
X23521Y-34596D02*
X23533Y-34584D01*
X23557Y-34572D01*
X23616Y-34572D01*
X23640Y-34584D01*
X23652Y-34596D01*
X23664Y-34620D01*
X23664Y-34644D01*
X23652Y-34679D01*
X23509Y-34822D01*
X23664Y-34822D01*
X24570Y-27689D02*
X24558Y-27701D01*
X24522Y-27713D01*
X24498Y-27713D01*
X24463Y-27701D01*
X24439Y-27677D01*
X24427Y-27653D01*
X24415Y-27605D01*
X24415Y-27570D01*
X24427Y-27522D01*
X24439Y-27498D01*
X24463Y-27475D01*
X24498Y-27463D01*
X24522Y-27463D01*
X24558Y-27475D01*
X24570Y-27486D01*
X24808Y-27713D02*
X24665Y-27713D01*
X24736Y-27713D02*
X24736Y-27463D01*
X24713Y-27498D01*
X24689Y-27522D01*
X24665Y-27534D01*
X24903Y-27486D02*
X24915Y-27475D01*
X24939Y-27463D01*
X24998Y-27463D01*
X25022Y-27475D01*
X25034Y-27486D01*
X25046Y-27510D01*
X25046Y-27534D01*
X25034Y-27570D01*
X24891Y-27713D01*
X25046Y-27713D01*
X25284Y-27713D02*
X25141Y-27713D01*
X25213Y-27713D02*
X25213Y-27463D01*
X25189Y-27498D01*
X25165Y-27522D01*
X25141Y-27534D01*
X24570Y-32239D02*
X24558Y-32251D01*
X24522Y-32263D01*
X24498Y-32263D01*
X24463Y-32251D01*
X24439Y-32227D01*
X24427Y-32203D01*
X24415Y-32155D01*
X24415Y-32120D01*
X24427Y-32072D01*
X24439Y-32048D01*
X24463Y-32025D01*
X24498Y-32013D01*
X24522Y-32013D01*
X24558Y-32025D01*
X24570Y-32036D01*
X24808Y-32263D02*
X24665Y-32263D01*
X24736Y-32263D02*
X24736Y-32013D01*
X24713Y-32048D01*
X24689Y-32072D01*
X24665Y-32084D01*
X24891Y-32013D02*
X25046Y-32013D01*
X24963Y-32108D01*
X24998Y-32108D01*
X25022Y-32120D01*
X25034Y-32132D01*
X25046Y-32155D01*
X25046Y-32215D01*
X25034Y-32239D01*
X25022Y-32251D01*
X24998Y-32263D01*
X24927Y-32263D01*
X24903Y-32251D01*
X24891Y-32239D01*
X25284Y-32263D02*
X25141Y-32263D01*
X25213Y-32263D02*
X25213Y-32013D01*
X25189Y-32048D01*
X25165Y-32072D01*
X25141Y-32084D01*
X27539Y-28879D02*
X27551Y-28891D01*
X27563Y-28927D01*
X27563Y-28951D01*
X27551Y-28986D01*
X27527Y-29010D01*
X27503Y-29022D01*
X27455Y-29034D01*
X27420Y-29034D01*
X27372Y-29022D01*
X27348Y-29010D01*
X27325Y-28986D01*
X27313Y-28951D01*
X27313Y-28927D01*
X27325Y-28891D01*
X27336Y-28879D01*
X27563Y-28641D02*
X27563Y-28784D01*
X27563Y-28713D02*
X27313Y-28713D01*
X27348Y-28736D01*
X27372Y-28760D01*
X27384Y-28784D01*
X27396Y-28427D02*
X27563Y-28427D01*
X27301Y-28486D02*
X27479Y-28546D01*
X27479Y-28391D01*
X27563Y-28165D02*
X27563Y-28308D01*
X27563Y-28236D02*
X27313Y-28236D01*
X27348Y-28260D01*
X27372Y-28284D01*
X27384Y-28308D01*
X32327Y-32379D02*
X32339Y-32391D01*
X32351Y-32427D01*
X32351Y-32451D01*
X32339Y-32486D01*
X32315Y-32510D01*
X32292Y-32522D01*
X32244Y-32534D01*
X32208Y-32534D01*
X32161Y-32522D01*
X32137Y-32510D01*
X32113Y-32486D01*
X32101Y-32451D01*
X32101Y-32427D01*
X32113Y-32391D01*
X32125Y-32379D01*
X32351Y-32141D02*
X32351Y-32284D01*
X32351Y-32213D02*
X32101Y-32213D01*
X32137Y-32236D01*
X32161Y-32260D01*
X32173Y-32284D01*
X32101Y-31915D02*
X32101Y-32034D01*
X32220Y-32046D01*
X32208Y-32034D01*
X32196Y-32010D01*
X32196Y-31951D01*
X32208Y-31927D01*
X32220Y-31915D01*
X32244Y-31903D01*
X32304Y-31903D01*
X32327Y-31915D01*
X32339Y-31927D01*
X32351Y-31951D01*
X32351Y-32010D01*
X32339Y-32034D01*
X32327Y-32046D01*
X32351Y-31665D02*
X32351Y-31808D01*
X32351Y-31736D02*
X32101Y-31736D01*
X32137Y-31760D01*
X32161Y-31784D01*
X32173Y-31808D01*
X28639Y-32479D02*
X28651Y-32491D01*
X28663Y-32527D01*
X28663Y-32551D01*
X28651Y-32586D01*
X28627Y-32610D01*
X28603Y-32622D01*
X28555Y-32634D01*
X28520Y-32634D01*
X28472Y-32622D01*
X28448Y-32610D01*
X28425Y-32586D01*
X28413Y-32551D01*
X28413Y-32527D01*
X28425Y-32491D01*
X28436Y-32479D01*
X28663Y-32241D02*
X28663Y-32384D01*
X28663Y-32313D02*
X28413Y-32313D01*
X28448Y-32336D01*
X28472Y-32360D01*
X28484Y-32384D01*
X28413Y-32027D02*
X28413Y-32075D01*
X28425Y-32098D01*
X28436Y-32110D01*
X28472Y-32134D01*
X28520Y-32146D01*
X28615Y-32146D01*
X28639Y-32134D01*
X28651Y-32122D01*
X28663Y-32098D01*
X28663Y-32051D01*
X28651Y-32027D01*
X28639Y-32015D01*
X28615Y-32003D01*
X28555Y-32003D01*
X28532Y-32015D01*
X28520Y-32027D01*
X28508Y-32051D01*
X28508Y-32098D01*
X28520Y-32122D01*
X28532Y-32134D01*
X28555Y-32146D01*
X28663Y-31765D02*
X28663Y-31908D01*
X28663Y-31836D02*
X28413Y-31836D01*
X28448Y-31860D01*
X28472Y-31884D01*
X28484Y-31908D01*
X33089Y-29129D02*
X33101Y-29141D01*
X33113Y-29177D01*
X33113Y-29201D01*
X33101Y-29236D01*
X33077Y-29260D01*
X33053Y-29272D01*
X33005Y-29284D01*
X32970Y-29284D01*
X32922Y-29272D01*
X32898Y-29260D01*
X32875Y-29236D01*
X32863Y-29201D01*
X32863Y-29177D01*
X32875Y-29141D01*
X32886Y-29129D01*
X32886Y-29034D02*
X32875Y-29022D01*
X32863Y-28998D01*
X32863Y-28939D01*
X32875Y-28915D01*
X32886Y-28903D01*
X32910Y-28891D01*
X32934Y-28891D01*
X32970Y-28903D01*
X33113Y-29046D01*
X33113Y-28891D01*
X32863Y-28808D02*
X32863Y-28641D01*
X33113Y-28748D01*
X33113Y-28415D02*
X33113Y-28558D01*
X33113Y-28486D02*
X32863Y-28486D01*
X32898Y-28510D01*
X32922Y-28534D01*
X32934Y-28558D01*
X37179Y-22625D02*
X36929Y-22625D01*
X36929Y-22565D01*
X36940Y-22530D01*
X36964Y-22506D01*
X36988Y-22494D01*
X37036Y-22482D01*
X37071Y-22482D01*
X37119Y-22494D01*
X37143Y-22506D01*
X37167Y-22530D01*
X37179Y-22565D01*
X37179Y-22625D01*
X37179Y-22244D02*
X37179Y-22387D01*
X37179Y-22315D02*
X36929Y-22315D01*
X36964Y-22339D01*
X36988Y-22363D01*
X37000Y-22387D01*
X36096Y-22625D02*
X35846Y-22625D01*
X35846Y-22565D01*
X35857Y-22530D01*
X35881Y-22506D01*
X35905Y-22494D01*
X35953Y-22482D01*
X35988Y-22482D01*
X36036Y-22494D01*
X36060Y-22506D01*
X36084Y-22530D01*
X36096Y-22565D01*
X36096Y-22625D01*
X35869Y-22387D02*
X35857Y-22375D01*
X35846Y-22351D01*
X35846Y-22292D01*
X35857Y-22268D01*
X35869Y-22256D01*
X35893Y-22244D01*
X35917Y-22244D01*
X35953Y-22256D01*
X36096Y-22399D01*
X36096Y-22244D01*
X35013Y-22625D02*
X34763Y-22625D01*
X34763Y-22565D01*
X34775Y-22530D01*
X34798Y-22506D01*
X34822Y-22494D01*
X34870Y-22482D01*
X34905Y-22482D01*
X34953Y-22494D01*
X34977Y-22506D01*
X35001Y-22530D01*
X35013Y-22565D01*
X35013Y-22625D01*
X34763Y-22399D02*
X34763Y-22244D01*
X34858Y-22327D01*
X34858Y-22292D01*
X34870Y-22268D01*
X34882Y-22256D01*
X34905Y-22244D01*
X34965Y-22244D01*
X34989Y-22256D01*
X35001Y-22268D01*
X35013Y-22292D01*
X35013Y-22363D01*
X35001Y-22387D01*
X34989Y-22399D01*
X23262Y-32809D02*
X23238Y-32797D01*
X23227Y-32773D01*
X23227Y-32559D01*
X23488Y-32809D02*
X23346Y-32809D01*
X23417Y-32809D02*
X23417Y-32559D01*
X23393Y-32594D01*
X23369Y-32618D01*
X23346Y-32630D01*
X31958Y-26813D02*
X31875Y-26694D01*
X31815Y-26813D02*
X31815Y-26563D01*
X31910Y-26563D01*
X31934Y-26575D01*
X31946Y-26586D01*
X31958Y-26610D01*
X31958Y-26646D01*
X31946Y-26670D01*
X31934Y-26682D01*
X31910Y-26694D01*
X31815Y-26694D01*
X32196Y-26813D02*
X32053Y-26813D01*
X32125Y-26813D02*
X32125Y-26563D01*
X32101Y-26598D01*
X32077Y-26622D01*
X32053Y-26634D01*
X37179Y-24057D02*
X37060Y-24140D01*
X37179Y-24200D02*
X36929Y-24200D01*
X36929Y-24105D01*
X36940Y-24081D01*
X36952Y-24069D01*
X36976Y-24057D01*
X37012Y-24057D01*
X37036Y-24069D01*
X37048Y-24081D01*
X37060Y-24105D01*
X37060Y-24200D01*
X36952Y-23962D02*
X36940Y-23950D01*
X36929Y-23926D01*
X36929Y-23867D01*
X36940Y-23843D01*
X36952Y-23831D01*
X36976Y-23819D01*
X37000Y-23819D01*
X37036Y-23831D01*
X37179Y-23974D01*
X37179Y-23819D01*
X36096Y-24057D02*
X35977Y-24140D01*
X36096Y-24200D02*
X35846Y-24200D01*
X35846Y-24105D01*
X35857Y-24081D01*
X35869Y-24069D01*
X35893Y-24057D01*
X35929Y-24057D01*
X35953Y-24069D01*
X35965Y-24081D01*
X35977Y-24105D01*
X35977Y-24200D01*
X35846Y-23974D02*
X35846Y-23819D01*
X35941Y-23902D01*
X35941Y-23867D01*
X35953Y-23843D01*
X35965Y-23831D01*
X35988Y-23819D01*
X36048Y-23819D01*
X36072Y-23831D01*
X36084Y-23843D01*
X36096Y-23867D01*
X36096Y-23938D01*
X36084Y-23962D01*
X36072Y-23974D01*
X35013Y-24057D02*
X34894Y-24140D01*
X35013Y-24200D02*
X34763Y-24200D01*
X34763Y-24105D01*
X34775Y-24081D01*
X34786Y-24069D01*
X34810Y-24057D01*
X34846Y-24057D01*
X34870Y-24069D01*
X34882Y-24081D01*
X34894Y-24105D01*
X34894Y-24200D01*
X34846Y-23843D02*
X35013Y-23843D01*
X34751Y-23902D02*
X34929Y-23962D01*
X34929Y-23807D01*
X23193Y-25140D02*
X23074Y-25224D01*
X23193Y-25283D02*
X22943Y-25283D01*
X22943Y-25188D01*
X22955Y-25164D01*
X22966Y-25152D01*
X22990Y-25140D01*
X23026Y-25140D01*
X23050Y-25152D01*
X23062Y-25164D01*
X23074Y-25188D01*
X23074Y-25283D01*
X23193Y-25021D02*
X23193Y-24974D01*
X23181Y-24950D01*
X23169Y-24938D01*
X23133Y-24914D01*
X23085Y-24902D01*
X22990Y-24902D01*
X22966Y-24914D01*
X22955Y-24926D01*
X22943Y-24950D01*
X22943Y-24997D01*
X22955Y-25021D01*
X22966Y-25033D01*
X22990Y-25045D01*
X23050Y-25045D01*
X23074Y-25033D01*
X23085Y-25021D01*
X23097Y-24997D01*
X23097Y-24950D01*
X23085Y-24926D01*
X23074Y-24914D01*
X23050Y-24902D01*
X33820Y-31813D02*
X33736Y-31694D01*
X33677Y-31813D02*
X33677Y-31563D01*
X33772Y-31563D01*
X33796Y-31575D01*
X33808Y-31586D01*
X33820Y-31610D01*
X33820Y-31646D01*
X33808Y-31670D01*
X33796Y-31682D01*
X33772Y-31694D01*
X33677Y-31694D01*
X33915Y-31586D02*
X33927Y-31575D01*
X33951Y-31563D01*
X34010Y-31563D01*
X34034Y-31575D01*
X34046Y-31586D01*
X34058Y-31610D01*
X34058Y-31634D01*
X34046Y-31670D01*
X33903Y-31813D01*
X34058Y-31813D01*
X34141Y-31563D02*
X34296Y-31563D01*
X34213Y-31658D01*
X34248Y-31658D01*
X34272Y-31670D01*
X34284Y-31682D01*
X34296Y-31705D01*
X34296Y-31765D01*
X34284Y-31789D01*
X34272Y-31801D01*
X34248Y-31813D01*
X34177Y-31813D01*
X34153Y-31801D01*
X34141Y-31789D01*
X34534Y-31813D02*
X34391Y-31813D01*
X34463Y-31813D02*
X34463Y-31563D01*
X34439Y-31598D01*
X34415Y-31622D01*
X34391Y-31634D01*
X36013Y-29129D02*
X35894Y-29213D01*
X36013Y-29272D02*
X35763Y-29272D01*
X35763Y-29177D01*
X35775Y-29153D01*
X35786Y-29141D01*
X35810Y-29129D01*
X35846Y-29129D01*
X35870Y-29141D01*
X35882Y-29153D01*
X35894Y-29177D01*
X35894Y-29272D01*
X35786Y-29034D02*
X35775Y-29022D01*
X35763Y-28998D01*
X35763Y-28939D01*
X35775Y-28915D01*
X35786Y-28903D01*
X35810Y-28891D01*
X35834Y-28891D01*
X35870Y-28903D01*
X36013Y-29046D01*
X36013Y-28891D01*
X35763Y-28677D02*
X35763Y-28725D01*
X35775Y-28748D01*
X35786Y-28760D01*
X35822Y-28784D01*
X35870Y-28796D01*
X35965Y-28796D01*
X35989Y-28784D01*
X36001Y-28772D01*
X36013Y-28748D01*
X36013Y-28701D01*
X36001Y-28677D01*
X35989Y-28665D01*
X35965Y-28653D01*
X35905Y-28653D01*
X35882Y-28665D01*
X35870Y-28677D01*
X35858Y-28701D01*
X35858Y-28748D01*
X35870Y-28772D01*
X35882Y-28784D01*
X35905Y-28796D01*
X36013Y-28415D02*
X36013Y-28558D01*
X36013Y-28486D02*
X35763Y-28486D01*
X35798Y-28510D01*
X35822Y-28534D01*
X35834Y-28558D01*
G54D14*
X35142Y-12171D02*
X35142Y-12657D01*
X35171Y-12714D01*
X35200Y-12742D01*
X35257Y-12771D01*
X35371Y-12771D01*
X35428Y-12742D01*
X35457Y-12714D01*
X35485Y-12657D01*
X35485Y-12171D01*
X36057Y-12171D02*
X35771Y-12171D01*
X35742Y-12457D01*
X35771Y-12428D01*
X35828Y-12400D01*
X35971Y-12400D01*
X36028Y-12428D01*
X36057Y-12457D01*
X36085Y-12514D01*
X36085Y-12657D01*
X36057Y-12714D01*
X36028Y-12742D01*
X35971Y-12771D01*
X35828Y-12771D01*
X35771Y-12742D01*
X35742Y-12714D01*
X25182Y-12940D02*
X25468Y-12940D01*
X25125Y-13111D02*
X25325Y-12511D01*
X25525Y-13111D01*
X25725Y-13111D02*
X25725Y-12511D01*
X26068Y-13111D01*
X26068Y-12511D01*
X26268Y-12511D02*
X26611Y-12511D01*
X26439Y-13111D02*
X26439Y-12511D01*
X26811Y-12797D02*
X27011Y-12797D01*
X27097Y-13111D02*
X26811Y-13111D01*
X26811Y-12511D01*
X27097Y-12511D01*
X27354Y-13111D02*
X27354Y-12511D01*
X27697Y-13111D01*
X27697Y-12511D01*
X27982Y-13111D02*
X27982Y-12511D01*
X28325Y-13111D01*
X28325Y-12511D01*
X28582Y-12940D02*
X28868Y-12940D01*
X28525Y-13111D02*
X28725Y-12511D01*
X28925Y-13111D01*
X28982Y-13168D02*
X29439Y-13168D01*
X29582Y-12797D02*
X29782Y-12797D01*
X29868Y-13111D02*
X29582Y-13111D01*
X29582Y-12511D01*
X29868Y-12511D01*
X30068Y-12511D02*
X30468Y-13111D01*
X30468Y-12511D02*
X30068Y-13111D01*
X30611Y-12511D02*
X30954Y-12511D01*
X30782Y-13111D02*
X30782Y-12511D01*
X31011Y-13168D02*
X31468Y-13168D01*
X31582Y-12568D02*
X31611Y-12540D01*
X31668Y-12511D01*
X31811Y-12511D01*
X31868Y-12540D01*
X31897Y-12568D01*
X31925Y-12625D01*
X31925Y-12682D01*
X31897Y-12768D01*
X31554Y-13111D01*
X31925Y-13111D01*
X32497Y-12540D02*
X32440Y-12511D01*
X32354Y-12511D01*
X32268Y-12540D01*
X32211Y-12597D01*
X32182Y-12654D01*
X32154Y-12768D01*
X32154Y-12854D01*
X32182Y-12968D01*
X32211Y-13025D01*
X32268Y-13082D01*
X32354Y-13111D01*
X32411Y-13111D01*
X32497Y-13082D01*
X32525Y-13054D01*
X32525Y-12854D01*
X32411Y-12854D01*
X32782Y-13111D02*
X32782Y-12511D01*
X32782Y-12797D02*
X33125Y-12797D01*
X33125Y-13111D02*
X33125Y-12511D01*
X33354Y-12511D02*
X33754Y-12511D01*
X33354Y-13111D01*
X33754Y-13111D01*
X34240Y-12711D02*
X34240Y-13111D01*
X34097Y-12482D02*
X33954Y-12911D01*
X34325Y-12911D01*
X32448Y-12339D02*
X32448Y-12825D01*
X32477Y-12882D01*
X32506Y-12910D01*
X32563Y-12939D01*
X32677Y-12939D01*
X32734Y-12910D01*
X32763Y-12882D01*
X32791Y-12825D01*
X32791Y-12339D01*
X33334Y-12339D02*
X33220Y-12339D01*
X33163Y-12368D01*
X33134Y-12396D01*
X33077Y-12482D01*
X33048Y-12596D01*
X33048Y-12825D01*
X33077Y-12882D01*
X33106Y-12910D01*
X33163Y-12939D01*
X33277Y-12939D01*
X33334Y-12910D01*
X33363Y-12882D01*
X33391Y-12825D01*
X33391Y-12682D01*
X33363Y-12625D01*
X33334Y-12596D01*
X33277Y-12568D01*
X33163Y-12568D01*
X33106Y-12596D01*
X33077Y-12625D01*
X33048Y-12682D01*
X29751Y-11588D02*
X30037Y-11588D01*
X29694Y-11759D02*
X29894Y-11159D01*
X30094Y-11759D01*
X30294Y-11759D02*
X30294Y-11159D01*
X30637Y-11759D01*
X30637Y-11159D01*
X30837Y-11159D02*
X31180Y-11159D01*
X31008Y-11759D02*
X31008Y-11159D01*
X31380Y-11445D02*
X31580Y-11445D01*
X31666Y-11759D02*
X31380Y-11759D01*
X31380Y-11159D01*
X31666Y-11159D01*
X31923Y-11759D02*
X31923Y-11159D01*
X32266Y-11759D01*
X32266Y-11159D01*
X32551Y-11759D02*
X32551Y-11159D01*
X32894Y-11759D01*
X32894Y-11159D01*
X33151Y-11588D02*
X33437Y-11588D01*
X33094Y-11759D02*
X33294Y-11159D01*
X33494Y-11759D01*
X33666Y-11216D02*
X33694Y-11188D01*
X33751Y-11159D01*
X33894Y-11159D01*
X33951Y-11188D01*
X33980Y-11216D01*
X34008Y-11273D01*
X34008Y-11330D01*
X33980Y-11416D01*
X33637Y-11759D01*
X34008Y-11759D01*
X34580Y-11188D02*
X34523Y-11159D01*
X34437Y-11159D01*
X34351Y-11188D01*
X34294Y-11245D01*
X34266Y-11302D01*
X34237Y-11416D01*
X34237Y-11502D01*
X34266Y-11616D01*
X34294Y-11673D01*
X34351Y-11730D01*
X34437Y-11759D01*
X34494Y-11759D01*
X34580Y-11730D01*
X34608Y-11702D01*
X34608Y-11502D01*
X34494Y-11502D01*
X34866Y-11759D02*
X34866Y-11159D01*
X34866Y-11445D02*
X35208Y-11445D01*
X35208Y-11759D02*
X35208Y-11159D01*
X35437Y-11159D02*
X35837Y-11159D01*
X35437Y-11759D01*
X35837Y-11759D01*
X36323Y-11359D02*
X36323Y-11759D01*
X36180Y-11130D02*
X36037Y-11559D01*
X36408Y-11559D01*
X36494Y-11816D02*
X36951Y-11816D01*
X37008Y-11159D02*
X37351Y-11159D01*
X37180Y-11759D02*
X37180Y-11159D01*
X37551Y-11759D02*
X37551Y-11159D01*
G54D18*
X22243Y-21743D02*
X22275Y-21764D01*
X22308Y-21825D01*
X22308Y-21866D01*
X22275Y-21927D01*
X22210Y-21968D01*
X22145Y-21988D01*
X22016Y-22008D01*
X21918Y-22008D01*
X21789Y-21988D01*
X21724Y-21968D01*
X21659Y-21927D01*
X21627Y-21866D01*
X21627Y-21825D01*
X21659Y-21764D01*
X21691Y-21743D01*
X21627Y-21478D02*
X21627Y-21397D01*
X21659Y-21356D01*
X21724Y-21315D01*
X21854Y-21295D01*
X22081Y-21295D01*
X22210Y-21315D01*
X22275Y-21356D01*
X22308Y-21397D01*
X22308Y-21478D01*
X22275Y-21519D01*
X22210Y-21560D01*
X22081Y-21580D01*
X21854Y-21580D01*
X21724Y-21560D01*
X21659Y-21519D01*
X21627Y-21478D01*
X22308Y-21112D02*
X21627Y-21112D01*
X22308Y-20867D01*
X21627Y-20867D01*
X22308Y-20663D02*
X21627Y-20663D01*
X22308Y-20419D01*
X21627Y-20419D01*
X22308Y-19991D02*
X22308Y-20235D01*
X22308Y-20113D02*
X21627Y-20113D01*
X21724Y-20154D01*
X21789Y-20194D01*
X21821Y-20235D01*
G54D15*
X29961Y-11214D02*
X29942Y-11242D01*
X29885Y-11271D01*
X29847Y-11271D01*
X29790Y-11242D01*
X29752Y-11185D01*
X29733Y-11128D01*
X29714Y-11014D01*
X29714Y-10928D01*
X29733Y-10814D01*
X29752Y-10757D01*
X29790Y-10700D01*
X29847Y-10671D01*
X29885Y-10671D01*
X29942Y-10700D01*
X29961Y-10728D01*
X30209Y-10671D02*
X30285Y-10671D01*
X30323Y-10700D01*
X30361Y-10757D01*
X30380Y-10871D01*
X30380Y-11071D01*
X30361Y-11185D01*
X30323Y-11242D01*
X30285Y-11271D01*
X30209Y-11271D01*
X30171Y-11242D01*
X30133Y-11185D01*
X30114Y-11071D01*
X30114Y-10871D01*
X30133Y-10757D01*
X30171Y-10700D01*
X30209Y-10671D01*
X30552Y-11271D02*
X30552Y-10671D01*
X30780Y-11271D01*
X30780Y-10671D01*
X30971Y-11271D02*
X30971Y-10671D01*
X31200Y-11271D01*
X31200Y-10671D01*
X31295Y-11328D02*
X31600Y-11328D01*
X31904Y-11271D02*
X31676Y-11271D01*
X31790Y-11271D02*
X31790Y-10671D01*
X31752Y-10757D01*
X31714Y-10814D01*
X31676Y-10842D01*
X32247Y-10871D02*
X32247Y-11271D01*
X32152Y-10642D02*
X32057Y-11071D01*
X32304Y-11071D01*
G54D18*
X20256Y-37243D02*
X20235Y-37275D01*
X20174Y-37308D01*
X20133Y-37308D01*
X20072Y-37275D01*
X20031Y-37210D01*
X20011Y-37145D01*
X19991Y-37016D01*
X19991Y-36918D01*
X20011Y-36789D01*
X20031Y-36724D01*
X20072Y-36659D01*
X20133Y-36627D01*
X20174Y-36627D01*
X20235Y-36659D01*
X20256Y-36691D01*
X20521Y-36627D02*
X20602Y-36627D01*
X20643Y-36659D01*
X20684Y-36724D01*
X20704Y-36854D01*
X20704Y-37081D01*
X20684Y-37210D01*
X20643Y-37275D01*
X20602Y-37308D01*
X20521Y-37308D01*
X20480Y-37275D01*
X20439Y-37210D01*
X20419Y-37081D01*
X20419Y-36854D01*
X20439Y-36724D01*
X20480Y-36659D01*
X20521Y-36627D01*
X20887Y-37308D02*
X20887Y-36627D01*
X21132Y-37308D01*
X21132Y-36627D01*
X21336Y-37308D02*
X21336Y-36627D01*
X21580Y-37308D01*
X21580Y-36627D01*
X21764Y-36691D02*
X21784Y-36659D01*
X21825Y-36627D01*
X21927Y-36627D01*
X21968Y-36659D01*
X21988Y-36691D01*
X22008Y-36756D01*
X22008Y-36821D01*
X21988Y-36918D01*
X21743Y-37308D01*
X22008Y-37308D01*
G54D15*
X23461Y-11214D02*
X23442Y-11242D01*
X23385Y-11271D01*
X23347Y-11271D01*
X23290Y-11242D01*
X23252Y-11185D01*
X23233Y-11128D01*
X23214Y-11014D01*
X23214Y-10928D01*
X23233Y-10814D01*
X23252Y-10757D01*
X23290Y-10700D01*
X23347Y-10671D01*
X23385Y-10671D01*
X23442Y-10700D01*
X23461Y-10728D01*
X23709Y-10671D02*
X23785Y-10671D01*
X23823Y-10700D01*
X23861Y-10757D01*
X23880Y-10871D01*
X23880Y-11071D01*
X23861Y-11185D01*
X23823Y-11242D01*
X23785Y-11271D01*
X23709Y-11271D01*
X23671Y-11242D01*
X23633Y-11185D01*
X23614Y-11071D01*
X23614Y-10871D01*
X23633Y-10757D01*
X23671Y-10700D01*
X23709Y-10671D01*
X24052Y-11271D02*
X24052Y-10671D01*
X24280Y-11271D01*
X24280Y-10671D01*
X24471Y-11271D02*
X24471Y-10671D01*
X24700Y-11271D01*
X24700Y-10671D01*
X24795Y-11328D02*
X25100Y-11328D01*
X25404Y-11271D02*
X25176Y-11271D01*
X25290Y-11271D02*
X25290Y-10671D01*
X25252Y-10757D01*
X25214Y-10814D01*
X25176Y-10842D01*
X25747Y-10871D02*
X25747Y-11271D01*
X25652Y-10642D02*
X25557Y-11071D01*
X25804Y-11071D01*
G54D18*
X37256Y-22243D02*
X37235Y-22275D01*
X37174Y-22308D01*
X37133Y-22308D01*
X37072Y-22275D01*
X37031Y-22210D01*
X37011Y-22145D01*
X36991Y-22016D01*
X36991Y-21918D01*
X37011Y-21789D01*
X37031Y-21724D01*
X37072Y-21659D01*
X37133Y-21627D01*
X37174Y-21627D01*
X37235Y-21659D01*
X37256Y-21691D01*
X37521Y-21627D02*
X37602Y-21627D01*
X37643Y-21659D01*
X37684Y-21724D01*
X37704Y-21854D01*
X37704Y-22081D01*
X37684Y-22210D01*
X37643Y-22275D01*
X37602Y-22308D01*
X37521Y-22308D01*
X37480Y-22275D01*
X37439Y-22210D01*
X37419Y-22081D01*
X37419Y-21854D01*
X37439Y-21724D01*
X37480Y-21659D01*
X37521Y-21627D01*
X37887Y-22308D02*
X37887Y-21627D01*
X38132Y-22308D01*
X38132Y-21627D01*
X38336Y-22308D02*
X38336Y-21627D01*
X38580Y-22308D01*
X38580Y-21627D01*
X38968Y-21854D02*
X38968Y-22308D01*
X38866Y-21594D02*
X38764Y-22081D01*
X39029Y-22081D01*
G54D15*
X33961Y-10214D02*
X33942Y-10242D01*
X33885Y-10271D01*
X33847Y-10271D01*
X33790Y-10242D01*
X33752Y-10185D01*
X33733Y-10128D01*
X33714Y-10014D01*
X33714Y-9928D01*
X33733Y-9814D01*
X33752Y-9757D01*
X33790Y-9700D01*
X33847Y-9671D01*
X33885Y-9671D01*
X33942Y-9700D01*
X33961Y-9728D01*
X34209Y-9671D02*
X34285Y-9671D01*
X34323Y-9700D01*
X34361Y-9757D01*
X34380Y-9871D01*
X34380Y-10071D01*
X34361Y-10185D01*
X34323Y-10242D01*
X34285Y-10271D01*
X34209Y-10271D01*
X34171Y-10242D01*
X34133Y-10185D01*
X34114Y-10071D01*
X34114Y-9871D01*
X34133Y-9757D01*
X34171Y-9700D01*
X34209Y-9671D01*
X34552Y-10271D02*
X34552Y-9671D01*
X34780Y-10271D01*
X34780Y-9671D01*
X34971Y-10271D02*
X34971Y-9671D01*
X35200Y-10271D01*
X35200Y-9671D01*
X35295Y-10328D02*
X35600Y-10328D01*
X35904Y-10271D02*
X35676Y-10271D01*
X35790Y-10271D02*
X35790Y-9671D01*
X35752Y-9757D01*
X35714Y-9814D01*
X35676Y-9842D01*
X36247Y-9871D02*
X36247Y-10271D01*
X36152Y-9642D02*
X36057Y-10071D01*
X36304Y-10071D01*
G54D14*
X24090Y-12394D02*
X24061Y-12422D01*
X23975Y-12451D01*
X23918Y-12451D01*
X23832Y-12422D01*
X23775Y-12365D01*
X23747Y-12308D01*
X23718Y-12194D01*
X23718Y-12108D01*
X23747Y-11994D01*
X23775Y-11937D01*
X23832Y-11880D01*
X23918Y-11851D01*
X23975Y-11851D01*
X24061Y-11880D01*
X24090Y-11908D01*
X24632Y-11851D02*
X24347Y-11851D01*
X24318Y-12137D01*
X24347Y-12108D01*
X24404Y-12080D01*
X24547Y-12080D01*
X24604Y-12108D01*
X24632Y-12137D01*
X24661Y-12194D01*
X24661Y-12337D01*
X24632Y-12394D01*
X24604Y-12422D01*
X24547Y-12451D01*
X24404Y-12451D01*
X24347Y-12422D01*
X24318Y-12394D01*
X22195Y-10068D02*
X22138Y-10040D01*
X22110Y-10011D01*
X22081Y-9954D01*
X22081Y-9925D01*
X22110Y-9868D01*
X22138Y-9840D01*
X22195Y-9811D01*
X22310Y-9811D01*
X22367Y-9840D01*
X22395Y-9868D01*
X22424Y-9925D01*
X22424Y-9954D01*
X22395Y-10011D01*
X22367Y-10040D01*
X22310Y-10068D01*
X22195Y-10068D01*
X22138Y-10097D01*
X22110Y-10125D01*
X22081Y-10182D01*
X22081Y-10297D01*
X22110Y-10354D01*
X22138Y-10382D01*
X22195Y-10411D01*
X22310Y-10411D01*
X22367Y-10382D01*
X22395Y-10354D01*
X22424Y-10297D01*
X22424Y-10182D01*
X22395Y-10125D01*
X22367Y-10097D01*
X22310Y-10068D01*
X22652Y-9868D02*
X22681Y-9840D01*
X22738Y-9811D01*
X22881Y-9811D01*
X22938Y-9840D01*
X22967Y-9868D01*
X22995Y-9925D01*
X22995Y-9982D01*
X22967Y-10068D01*
X22624Y-10411D01*
X22995Y-10411D01*
X23252Y-10011D02*
X23252Y-10611D01*
X23252Y-10040D02*
X23310Y-10011D01*
X23424Y-10011D01*
X23481Y-10040D01*
X23510Y-10068D01*
X23538Y-10125D01*
X23538Y-10297D01*
X23510Y-10354D01*
X23481Y-10382D01*
X23424Y-10411D01*
X23310Y-10411D01*
X23252Y-10382D01*
X21030Y-10554D02*
X21001Y-10582D01*
X20915Y-10611D01*
X20858Y-10611D01*
X20772Y-10582D01*
X20715Y-10525D01*
X20687Y-10468D01*
X20658Y-10354D01*
X20658Y-10268D01*
X20687Y-10154D01*
X20715Y-10097D01*
X20772Y-10040D01*
X20858Y-10011D01*
X20915Y-10011D01*
X21001Y-10040D01*
X21030Y-10068D01*
X21230Y-10011D02*
X21630Y-10011D01*
X21372Y-10611D01*
X21292Y-10791D02*
X21664Y-10791D01*
X21464Y-11020D01*
X21550Y-11020D01*
X21607Y-11048D01*
X21635Y-11077D01*
X21664Y-11134D01*
X21664Y-11277D01*
X21635Y-11334D01*
X21607Y-11362D01*
X21550Y-11391D01*
X21378Y-11391D01*
X21321Y-11362D01*
X21292Y-11334D01*
X21950Y-11391D02*
X22064Y-11391D01*
X22121Y-11362D01*
X22150Y-11334D01*
X22207Y-11248D01*
X22235Y-11134D01*
X22235Y-10905D01*
X22207Y-10848D01*
X22178Y-10820D01*
X22121Y-10791D01*
X22007Y-10791D01*
X21950Y-10820D01*
X21921Y-10848D01*
X21892Y-10905D01*
X21892Y-11048D01*
X21921Y-11105D01*
X21950Y-11134D01*
X22007Y-11162D01*
X22121Y-11162D01*
X22178Y-11134D01*
X22207Y-11105D01*
X22235Y-11048D01*
X22492Y-10991D02*
X22492Y-11591D01*
X22492Y-11020D02*
X22550Y-10991D01*
X22664Y-10991D01*
X22721Y-11020D01*
X22750Y-11048D01*
X22778Y-11105D01*
X22778Y-11277D01*
X22750Y-11334D01*
X22721Y-11362D01*
X22664Y-11391D01*
X22550Y-11391D01*
X22492Y-11362D01*
X25730Y-11894D02*
X25701Y-11922D01*
X25615Y-11951D01*
X25558Y-11951D01*
X25472Y-11922D01*
X25415Y-11865D01*
X25387Y-11808D01*
X25358Y-11694D01*
X25358Y-11608D01*
X25387Y-11494D01*
X25415Y-11437D01*
X25472Y-11380D01*
X25558Y-11351D01*
X25615Y-11351D01*
X25701Y-11380D01*
X25730Y-11408D01*
X26072Y-11608D02*
X26015Y-11580D01*
X25987Y-11551D01*
X25958Y-11494D01*
X25958Y-11465D01*
X25987Y-11408D01*
X26015Y-11380D01*
X26072Y-11351D01*
X26187Y-11351D01*
X26244Y-11380D01*
X26272Y-11408D01*
X26301Y-11465D01*
X26301Y-11494D01*
X26272Y-11551D01*
X26244Y-11580D01*
X26187Y-11608D01*
X26072Y-11608D01*
X26015Y-11637D01*
X25987Y-11665D01*
X25958Y-11722D01*
X25958Y-11837D01*
X25987Y-11894D01*
X26015Y-11922D01*
X26072Y-11951D01*
X26187Y-11951D01*
X26244Y-11922D01*
X26272Y-11894D01*
X26301Y-11837D01*
X26301Y-11722D01*
X26272Y-11665D01*
X26244Y-11637D01*
X26187Y-11608D01*
X28414Y-11011D02*
X28071Y-11011D01*
X28242Y-11011D02*
X28242Y-10411D01*
X28185Y-10497D01*
X28128Y-10554D01*
X28071Y-10582D01*
X28671Y-10611D02*
X28671Y-11211D01*
X28671Y-10640D02*
X28728Y-10611D01*
X28842Y-10611D01*
X28900Y-10640D01*
X28928Y-10668D01*
X28957Y-10725D01*
X28957Y-10897D01*
X28928Y-10954D01*
X28900Y-10982D01*
X28842Y-11011D01*
X28728Y-11011D01*
X28671Y-10982D01*
X29300Y-10668D02*
X29242Y-10640D01*
X29214Y-10611D01*
X29185Y-10554D01*
X29185Y-10525D01*
X29214Y-10468D01*
X29242Y-10440D01*
X29300Y-10411D01*
X29414Y-10411D01*
X29471Y-10440D01*
X29500Y-10468D01*
X29528Y-10525D01*
X29528Y-10554D01*
X29500Y-10611D01*
X29471Y-10640D01*
X29414Y-10668D01*
X29300Y-10668D01*
X29242Y-10697D01*
X29214Y-10725D01*
X29185Y-10782D01*
X29185Y-10897D01*
X29214Y-10954D01*
X29242Y-10982D01*
X29300Y-11011D01*
X29414Y-11011D01*
X29471Y-10982D01*
X29500Y-10954D01*
X29528Y-10897D01*
X29528Y-10782D01*
X29500Y-10725D01*
X29471Y-10697D01*
X29414Y-10668D01*
X22700Y-11574D02*
X22671Y-11602D01*
X22585Y-11631D01*
X22528Y-11631D01*
X22442Y-11602D01*
X22385Y-11545D01*
X22357Y-11488D01*
X22328Y-11374D01*
X22328Y-11288D01*
X22357Y-11174D01*
X22385Y-11117D01*
X22442Y-11060D01*
X22528Y-11031D01*
X22585Y-11031D01*
X22671Y-11060D01*
X22700Y-11088D01*
X22985Y-11631D02*
X23100Y-11631D01*
X23157Y-11602D01*
X23185Y-11574D01*
X23242Y-11488D01*
X23271Y-11374D01*
X23271Y-11145D01*
X23242Y-11088D01*
X23214Y-11060D01*
X23157Y-11031D01*
X23042Y-11031D01*
X22985Y-11060D01*
X22957Y-11088D01*
X22928Y-11145D01*
X22928Y-11288D01*
X22957Y-11345D01*
X22985Y-11374D01*
X23042Y-11402D01*
X23157Y-11402D01*
X23214Y-11374D01*
X23242Y-11345D01*
X23271Y-11288D01*
X19604Y-11051D02*
X19261Y-11051D01*
X19432Y-11051D02*
X19432Y-10451D01*
X19375Y-10537D01*
X19318Y-10594D01*
X19261Y-10622D01*
X19861Y-10651D02*
X19861Y-11251D01*
X19861Y-10680D02*
X19918Y-10651D01*
X20032Y-10651D01*
X20090Y-10680D01*
X20118Y-10708D01*
X20147Y-10765D01*
X20147Y-10937D01*
X20118Y-10994D01*
X20090Y-11022D01*
X20032Y-11051D01*
X19918Y-11051D01*
X19861Y-11022D01*
X20690Y-10451D02*
X20404Y-10451D01*
X20375Y-10737D01*
X20404Y-10708D01*
X20461Y-10680D01*
X20604Y-10680D01*
X20661Y-10708D01*
X20690Y-10737D01*
X20718Y-10794D01*
X20718Y-10937D01*
X20690Y-10994D01*
X20661Y-11022D01*
X20604Y-11051D01*
X20461Y-11051D01*
X20404Y-11022D01*
X20375Y-10994D01*
X26824Y-11104D02*
X26795Y-11132D01*
X26710Y-11161D01*
X26652Y-11161D01*
X26567Y-11132D01*
X26510Y-11075D01*
X26481Y-11018D01*
X26452Y-10904D01*
X26452Y-10818D01*
X26481Y-10704D01*
X26510Y-10647D01*
X26567Y-10590D01*
X26652Y-10561D01*
X26710Y-10561D01*
X26795Y-10590D01*
X26824Y-10618D01*
X27395Y-11161D02*
X27052Y-11161D01*
X27224Y-11161D02*
X27224Y-10561D01*
X27167Y-10647D01*
X27110Y-10704D01*
X27052Y-10732D01*
X27767Y-10561D02*
X27824Y-10561D01*
X27881Y-10590D01*
X27910Y-10618D01*
X27938Y-10675D01*
X27967Y-10790D01*
X27967Y-10932D01*
X27938Y-11047D01*
X27910Y-11104D01*
X27881Y-11132D01*
X27824Y-11161D01*
X27767Y-11161D01*
X27710Y-11132D01*
X27681Y-11104D01*
X27652Y-11047D01*
X27624Y-10932D01*
X27624Y-10790D01*
X27652Y-10675D01*
X27681Y-10618D01*
X27710Y-10590D01*
X27767Y-10561D01*
X17714Y-11051D02*
X17371Y-11051D01*
X17542Y-11051D02*
X17542Y-10451D01*
X17485Y-10537D01*
X17428Y-10594D01*
X17371Y-10622D01*
X17971Y-10651D02*
X17971Y-11251D01*
X17971Y-10680D02*
X18028Y-10651D01*
X18142Y-10651D01*
X18200Y-10680D01*
X18228Y-10708D01*
X18257Y-10765D01*
X18257Y-10937D01*
X18228Y-10994D01*
X18200Y-11022D01*
X18142Y-11051D01*
X18028Y-11051D01*
X17971Y-11022D01*
X18600Y-10708D02*
X18542Y-10680D01*
X18514Y-10651D01*
X18485Y-10594D01*
X18485Y-10565D01*
X18514Y-10508D01*
X18542Y-10480D01*
X18600Y-10451D01*
X18714Y-10451D01*
X18771Y-10480D01*
X18800Y-10508D01*
X18828Y-10565D01*
X18828Y-10594D01*
X18800Y-10651D01*
X18771Y-10680D01*
X18714Y-10708D01*
X18600Y-10708D01*
X18542Y-10737D01*
X18514Y-10765D01*
X18485Y-10822D01*
X18485Y-10937D01*
X18514Y-10994D01*
X18542Y-11022D01*
X18600Y-11051D01*
X18714Y-11051D01*
X18771Y-11022D01*
X18800Y-10994D01*
X18828Y-10937D01*
X18828Y-10822D01*
X18800Y-10765D01*
X18771Y-10737D01*
X18714Y-10708D01*
X25904Y-11494D02*
X25875Y-11522D01*
X25790Y-11551D01*
X25732Y-11551D01*
X25647Y-11522D01*
X25590Y-11465D01*
X25561Y-11408D01*
X25532Y-11294D01*
X25532Y-11208D01*
X25561Y-11094D01*
X25590Y-11037D01*
X25647Y-10980D01*
X25732Y-10951D01*
X25790Y-10951D01*
X25875Y-10980D01*
X25904Y-11008D01*
X26475Y-11551D02*
X26132Y-11551D01*
X26304Y-11551D02*
X26304Y-10951D01*
X26247Y-11037D01*
X26190Y-11094D01*
X26132Y-11122D01*
X26675Y-10951D02*
X27047Y-10951D01*
X26847Y-11180D01*
X26932Y-11180D01*
X26990Y-11208D01*
X27018Y-11237D01*
X27047Y-11294D01*
X27047Y-11437D01*
X27018Y-11494D01*
X26990Y-11522D01*
X26932Y-11551D01*
X26761Y-11551D01*
X26704Y-11522D01*
X26675Y-11494D01*
X28290Y-13151D02*
X27947Y-13151D01*
X28118Y-13151D02*
X28118Y-12551D01*
X28061Y-12637D01*
X28004Y-12694D01*
X27947Y-12722D01*
X28547Y-12751D02*
X28547Y-13351D01*
X28547Y-12780D02*
X28604Y-12751D01*
X28718Y-12751D01*
X28775Y-12780D01*
X28804Y-12808D01*
X28832Y-12865D01*
X28832Y-13037D01*
X28804Y-13094D01*
X28775Y-13122D01*
X28718Y-13151D01*
X28604Y-13151D01*
X28547Y-13122D01*
X28300Y-11101D02*
X28100Y-10815D01*
X27957Y-11101D02*
X27957Y-10501D01*
X28185Y-10501D01*
X28242Y-10530D01*
X28271Y-10558D01*
X28300Y-10615D01*
X28300Y-10701D01*
X28271Y-10758D01*
X28242Y-10787D01*
X28185Y-10815D01*
X27957Y-10815D01*
X28814Y-10501D02*
X28700Y-10501D01*
X28642Y-10530D01*
X28614Y-10558D01*
X28557Y-10644D01*
X28528Y-10758D01*
X28528Y-10987D01*
X28557Y-11044D01*
X28585Y-11072D01*
X28642Y-11101D01*
X28757Y-11101D01*
X28814Y-11072D01*
X28842Y-11044D01*
X28871Y-10987D01*
X28871Y-10844D01*
X28842Y-10787D01*
X28814Y-10758D01*
X28757Y-10730D01*
X28642Y-10730D01*
X28585Y-10758D01*
X28557Y-10787D01*
X28528Y-10844D01*
X30881Y-10388D02*
X30881Y-10331D01*
X30910Y-10274D01*
X30938Y-10245D01*
X30995Y-10217D01*
X31110Y-10188D01*
X31252Y-10188D01*
X31367Y-10217D01*
X31424Y-10245D01*
X31452Y-10274D01*
X31481Y-10331D01*
X31481Y-10388D01*
X31452Y-10445D01*
X31424Y-10474D01*
X31367Y-10502D01*
X31252Y-10531D01*
X31110Y-10531D01*
X30995Y-10502D01*
X30938Y-10474D01*
X30910Y-10445D01*
X30881Y-10388D01*
X31481Y-9588D02*
X31195Y-9788D01*
X31481Y-9931D02*
X30881Y-9931D01*
X30881Y-9702D01*
X30910Y-9645D01*
X30938Y-9617D01*
X30995Y-9588D01*
X31081Y-9588D01*
X31138Y-9617D01*
X31167Y-9645D01*
X31195Y-9702D01*
X31195Y-9931D01*
X29020Y-10711D02*
X28820Y-10425D01*
X28677Y-10711D02*
X28677Y-10111D01*
X28905Y-10111D01*
X28962Y-10140D01*
X28991Y-10168D01*
X29020Y-10225D01*
X29020Y-10311D01*
X28991Y-10368D01*
X28962Y-10397D01*
X28905Y-10425D01*
X28677Y-10425D01*
X29562Y-10111D02*
X29277Y-10111D01*
X29248Y-10397D01*
X29277Y-10368D01*
X29334Y-10340D01*
X29477Y-10340D01*
X29534Y-10368D01*
X29562Y-10397D01*
X29591Y-10454D01*
X29591Y-10597D01*
X29562Y-10654D01*
X29534Y-10682D01*
X29477Y-10711D01*
X29334Y-10711D01*
X29277Y-10682D01*
X29248Y-10654D01*
X28650Y-11816D02*
X28450Y-11530D01*
X28307Y-11816D02*
X28307Y-11216D01*
X28535Y-11216D01*
X28592Y-11245D01*
X28621Y-11273D01*
X28650Y-11330D01*
X28650Y-11416D01*
X28621Y-11473D01*
X28592Y-11502D01*
X28535Y-11530D01*
X28307Y-11530D01*
X29192Y-11216D02*
X28907Y-11216D01*
X28878Y-11502D01*
X28907Y-11473D01*
X28964Y-11445D01*
X29107Y-11445D01*
X29164Y-11473D01*
X29192Y-11502D01*
X29221Y-11559D01*
X29221Y-11702D01*
X29192Y-11759D01*
X29164Y-11787D01*
X29107Y-11816D01*
X28964Y-11816D01*
X28907Y-11787D01*
X28878Y-11759D01*
X33089Y-13443D02*
X33031Y-13472D01*
X32917Y-13472D01*
X32860Y-13443D01*
X32831Y-13386D01*
X32831Y-13158D01*
X32860Y-13101D01*
X32917Y-13072D01*
X33031Y-13072D01*
X33089Y-13101D01*
X33117Y-13158D01*
X33117Y-13215D01*
X32831Y-13272D01*
X33374Y-13472D02*
X33374Y-13072D01*
X33374Y-13129D02*
X33403Y-13101D01*
X33460Y-13072D01*
X33546Y-13072D01*
X33603Y-13101D01*
X33631Y-13158D01*
X33631Y-13472D01*
X33631Y-13158D02*
X33660Y-13101D01*
X33717Y-13072D01*
X33803Y-13072D01*
X33860Y-13101D01*
X33889Y-13158D01*
X33889Y-13472D01*
X34174Y-13072D02*
X34174Y-13672D01*
X34174Y-13101D02*
X34231Y-13072D01*
X34346Y-13072D01*
X34403Y-13101D01*
X34431Y-13129D01*
X34460Y-13186D01*
X34460Y-13358D01*
X34431Y-13415D01*
X34403Y-13443D01*
X34346Y-13472D01*
X34231Y-13472D01*
X34174Y-13443D01*
X34631Y-13072D02*
X34860Y-13072D01*
X34717Y-12872D02*
X34717Y-13386D01*
X34746Y-13443D01*
X34803Y-13472D01*
X34860Y-13472D01*
X35003Y-13072D02*
X35146Y-13472D01*
X35289Y-13072D02*
X35146Y-13472D01*
X35089Y-13615D01*
X35060Y-13643D01*
X35003Y-13672D01*
X35374Y-13529D02*
X35831Y-13529D01*
X35974Y-13072D02*
X35974Y-13672D01*
X35974Y-13101D02*
X36031Y-13072D01*
X36146Y-13072D01*
X36203Y-13101D01*
X36231Y-13129D01*
X36260Y-13186D01*
X36260Y-13358D01*
X36231Y-13415D01*
X36203Y-13443D01*
X36146Y-13472D01*
X36031Y-13472D01*
X35974Y-13443D01*
X36774Y-13472D02*
X36774Y-13158D01*
X36746Y-13101D01*
X36689Y-13072D01*
X36574Y-13072D01*
X36517Y-13101D01*
X36774Y-13443D02*
X36717Y-13472D01*
X36574Y-13472D01*
X36517Y-13443D01*
X36489Y-13386D01*
X36489Y-13329D01*
X36517Y-13272D01*
X36574Y-13243D01*
X36717Y-13243D01*
X36774Y-13215D01*
X37317Y-13472D02*
X37317Y-12872D01*
X37317Y-13443D02*
X37260Y-13472D01*
X37146Y-13472D01*
X37089Y-13443D01*
X37060Y-13415D01*
X37031Y-13358D01*
X37031Y-13186D01*
X37060Y-13129D01*
X37089Y-13101D01*
X37146Y-13072D01*
X37260Y-13072D01*
X37317Y-13101D01*
X33371Y-11912D02*
X33571Y-12512D01*
X33771Y-11912D01*
X33943Y-12341D02*
X34229Y-12341D01*
X33886Y-12512D02*
X34086Y-11912D01*
X34286Y-12512D01*
X34771Y-12512D02*
X34486Y-12512D01*
X34486Y-11912D01*
X35057Y-11912D02*
X35057Y-12055D01*
X34914Y-11998D02*
X35057Y-12055D01*
X35200Y-11998D01*
X34971Y-12169D02*
X35057Y-12055D01*
X35143Y-12169D01*
X35514Y-11912D02*
X35514Y-12055D01*
X35371Y-11998D02*
X35514Y-12055D01*
X35657Y-11998D01*
X35429Y-12169D02*
X35514Y-12055D01*
X35600Y-12169D01*
X32804Y-10813D02*
X32747Y-10842D01*
X32632Y-10842D01*
X32575Y-10813D01*
X32547Y-10756D01*
X32547Y-10528D01*
X32575Y-10471D01*
X32632Y-10442D01*
X32747Y-10442D01*
X32804Y-10471D01*
X32832Y-10528D01*
X32832Y-10585D01*
X32547Y-10642D01*
X33090Y-10842D02*
X33090Y-10442D01*
X33090Y-10499D02*
X33118Y-10471D01*
X33175Y-10442D01*
X33261Y-10442D01*
X33318Y-10471D01*
X33347Y-10528D01*
X33347Y-10842D01*
X33347Y-10528D02*
X33375Y-10471D01*
X33432Y-10442D01*
X33518Y-10442D01*
X33575Y-10471D01*
X33604Y-10528D01*
X33604Y-10842D01*
X33890Y-10442D02*
X33890Y-11042D01*
X33890Y-10471D02*
X33947Y-10442D01*
X34061Y-10442D01*
X34118Y-10471D01*
X34147Y-10499D01*
X34175Y-10556D01*
X34175Y-10728D01*
X34147Y-10785D01*
X34118Y-10813D01*
X34061Y-10842D01*
X33947Y-10842D01*
X33890Y-10813D01*
X34347Y-10442D02*
X34575Y-10442D01*
X34432Y-10242D02*
X34432Y-10756D01*
X34461Y-10813D01*
X34518Y-10842D01*
X34575Y-10842D01*
X34718Y-10442D02*
X34861Y-10842D01*
X35004Y-10442D02*
X34861Y-10842D01*
X34804Y-10985D01*
X34775Y-11013D01*
X34718Y-11042D01*
X35090Y-10899D02*
X35547Y-10899D01*
X35690Y-10442D02*
X35690Y-11042D01*
X35690Y-10471D02*
X35747Y-10442D01*
X35861Y-10442D01*
X35918Y-10471D01*
X35947Y-10499D01*
X35975Y-10556D01*
X35975Y-10728D01*
X35947Y-10785D01*
X35918Y-10813D01*
X35861Y-10842D01*
X35747Y-10842D01*
X35690Y-10813D01*
X36490Y-10842D02*
X36490Y-10528D01*
X36461Y-10471D01*
X36404Y-10442D01*
X36290Y-10442D01*
X36232Y-10471D01*
X36490Y-10813D02*
X36432Y-10842D01*
X36290Y-10842D01*
X36232Y-10813D01*
X36204Y-10756D01*
X36204Y-10699D01*
X36232Y-10642D01*
X36290Y-10613D01*
X36432Y-10613D01*
X36490Y-10585D01*
X37032Y-10842D02*
X37032Y-10242D01*
X37032Y-10813D02*
X36975Y-10842D01*
X36861Y-10842D01*
X36804Y-10813D01*
X36775Y-10785D01*
X36747Y-10728D01*
X36747Y-10556D01*
X36775Y-10499D01*
X36804Y-10471D01*
X36861Y-10442D01*
X36975Y-10442D01*
X37032Y-10471D01*
X37290Y-10299D02*
X37318Y-10271D01*
X37375Y-10242D01*
X37518Y-10242D01*
X37575Y-10271D01*
X37604Y-10299D01*
X37632Y-10356D01*
X37632Y-10413D01*
X37604Y-10499D01*
X37261Y-10842D01*
X37632Y-10842D01*
X30500Y-11872D02*
X30700Y-12472D01*
X30900Y-11872D01*
X31072Y-12301D02*
X31358Y-12301D01*
X31015Y-12472D02*
X31215Y-11872D01*
X31415Y-12472D01*
X31900Y-12472D02*
X31615Y-12472D01*
X31615Y-11872D01*
X32186Y-11872D02*
X32186Y-12015D01*
X32043Y-11958D02*
X32186Y-12015D01*
X32329Y-11958D01*
X32100Y-12129D02*
X32186Y-12015D01*
X32272Y-12129D01*
X32643Y-11872D02*
X32643Y-12015D01*
X32500Y-11958D02*
X32643Y-12015D01*
X32786Y-11958D01*
X32558Y-12129D02*
X32643Y-12015D01*
X32729Y-12129D01*
%LPC*%
G54D19*
X21000Y-38000D03*
G54D20*
X28100Y-24850D03*
X28100Y-24150D03*
X28900Y-24500D03*
X23507Y-23705D03*
X23507Y-23005D03*
X24307Y-23355D03*
G54D21*
X25975Y-22549D03*
X26369Y-22549D03*
X26369Y-23179D03*
X26172Y-23179D03*
X25975Y-23179D03*
G54D22*
X29679Y-29425D03*
X30664Y-29425D03*
X30861Y-29425D03*
X30270Y-29425D03*
X30467Y-29425D03*
X30073Y-29425D03*
X29876Y-29425D03*
X29876Y-31315D03*
X30073Y-31315D03*
X30467Y-31315D03*
X30270Y-31315D03*
X30664Y-31315D03*
X30861Y-31315D03*
X29679Y-31315D03*
G54D23*
X31215Y-30370D03*
X31215Y-30567D03*
X31215Y-30961D03*
X31215Y-30764D03*
X31215Y-29976D03*
X31215Y-30173D03*
X31215Y-29779D03*
X29325Y-29779D03*
X29325Y-30173D03*
X29325Y-29976D03*
X29325Y-30764D03*
X29325Y-30961D03*
X29325Y-30567D03*
X29325Y-30370D03*
G54D24*
X30270Y-30370D03*
G54D25*
X31394Y-23262D03*
X31394Y-23754D03*
X31394Y-24738D03*
X31394Y-24246D03*
X30606Y-24246D03*
X30606Y-24738D03*
X30606Y-23754D03*
X30606Y-23262D03*
G54D26*
X25295Y-29133D03*
X25295Y-30629D03*
X24389Y-30629D03*
X24389Y-29133D03*
G54D27*
X38000Y-21000D03*
G54D28*
X24850Y-33225D03*
X24850Y-33975D03*
G54D29*
X28125Y-23000D03*
X28875Y-23000D03*
G54D28*
X23632Y-25474D03*
X23632Y-24724D03*
X22304Y-22990D03*
X22304Y-23740D03*
X33000Y-23625D03*
X33000Y-24375D03*
G54D29*
X22975Y-34150D03*
X23725Y-34150D03*
X24475Y-28150D03*
X25225Y-28150D03*
X25225Y-31600D03*
X24475Y-31600D03*
G54D28*
X28000Y-28975D03*
X28000Y-28225D03*
X32800Y-31725D03*
X32800Y-32475D03*
X28000Y-31825D03*
X28000Y-32575D03*
X33550Y-29225D03*
X33550Y-28475D03*
X36515Y-22065D03*
X36515Y-22815D03*
X35432Y-22065D03*
X35432Y-22815D03*
X34350Y-22065D03*
X34350Y-22815D03*
G54D29*
X23725Y-33250D03*
X22975Y-33250D03*
X32375Y-27250D03*
X31625Y-27250D03*
G54D28*
X36515Y-23640D03*
X36515Y-24390D03*
X35432Y-23640D03*
X35432Y-24390D03*
X34350Y-23640D03*
X34350Y-24390D03*
X22530Y-24724D03*
X22530Y-25474D03*
G54D29*
X34475Y-31150D03*
X33725Y-31150D03*
G54D28*
X35350Y-28475D03*
X35350Y-29225D03*
G54D30*
X33090Y-34560D03*
G54D31*
X32090Y-35560D03*
X32090Y-33560D03*
X34090Y-33560D03*
X34090Y-35560D03*
G54D32*
X23000Y-21000D03*
G54D33*
X24000Y-21000D03*
X25000Y-21000D03*
X26000Y-21000D03*
X27000Y-21000D03*
X28000Y-21000D03*
X29000Y-21000D03*
X30000Y-21000D03*
X31000Y-21000D03*
X32000Y-21000D03*
X33000Y-21000D03*
X34000Y-21000D03*
X35000Y-21000D03*
X36000Y-21000D03*
G54D32*
X21000Y-36000D03*
G54D33*
X21000Y-35000D03*
X21000Y-34000D03*
X21000Y-33000D03*
X21000Y-32000D03*
X21000Y-31000D03*
X21000Y-30000D03*
X21000Y-29000D03*
X21000Y-28000D03*
X21000Y-27000D03*
X21000Y-26000D03*
X21000Y-25000D03*
X21000Y-24000D03*
X21000Y-23000D03*
G54D32*
X38000Y-23000D03*
G54D33*
X38000Y-24000D03*
X38000Y-25000D03*
X38000Y-26000D03*
X38000Y-27000D03*
X38000Y-28000D03*
X38000Y-29000D03*
X38000Y-30000D03*
X38000Y-31000D03*
X38000Y-32000D03*
X38000Y-33000D03*
X38000Y-34000D03*
X38000Y-35000D03*
X38000Y-36000D03*
G54D34*
X30480Y-31812D03*
X30480Y-32248D03*
X30060Y-31812D03*
X30060Y-32248D03*
G54D35*
X30038Y-32600D03*
X29602Y-32600D03*
G54D34*
X30480Y-32652D03*
X30480Y-33088D03*
G54D35*
X30022Y-33450D03*
X30458Y-33450D03*
X30032Y-34200D03*
X30468Y-34200D03*
G54D34*
X30470Y-34988D03*
X30470Y-34552D03*
G54D35*
X30888Y-34560D03*
M02*
