G04 (created by PCBNEW (2013-mar-13)-testing) date Sun 04 Aug 2013 09:21:59 PM CEST*
%MOIN*%
G04 Gerber Fmt 3.4, Leading zero omitted, Abs format*
%FSLAX34Y34*%
G01*
G70*
G90*
G04 APERTURE LIST*
%ADD10C,0.005906*%
%ADD11C,0.008000*%
%ADD12C,0.020000*%
%ADD13C,0.055000*%
%ADD14C,0.010000*%
%ADD15C,0.040000*%
%ADD16C,0.025000*%
%ADD17C,0.030000*%
%ADD18R,0.006000X0.006000*%
%ADD19O,0.011000X0.039400*%
%ADD20R,0.004000X0.008000*%
%ADD21C,0.100000*%
%ADD22R,0.036000X0.036000*%
%ADD23R,0.011800X0.019700*%
%ADD24O,0.039400X0.011000*%
%ADD25R,0.137800X0.137800*%
%ADD26R,0.031500X0.019700*%
%ADD27R,0.051200X0.063000*%
%ADD28C,0.140000*%
%ADD29R,0.055000X0.035000*%
%ADD30R,0.035000X0.055000*%
%ADD31C,0.070000*%
%ADD32R,0.070000X0.070000*%
%ADD33R,0.011800X0.051200*%
%ADD34R,0.059100X0.059100*%
%ADD35C,0.059100*%
%ADD36R,0.020000X0.023600*%
%ADD37R,0.023600X0.020000*%
%ADD38C,0.028000*%
%ADD39C,0.012000*%
G04 APERTURE END LIST*
G54D10*
G54D11*
X31490Y-32770D02*
X31490Y-32630D01*
X31490Y-32630D02*
X31590Y-32630D01*
X31590Y-32630D02*
X31590Y-32770D01*
X31590Y-32770D02*
X31490Y-32770D01*
G54D12*
X31220Y-34559D02*
X30886Y-34559D01*
G54D13*
X33090Y-34560D02*
X31220Y-34560D01*
G54D11*
X30037Y-32784D02*
X30037Y-32600D01*
X30420Y-33190D02*
X29810Y-33190D01*
X29810Y-33190D02*
X29700Y-33080D01*
X29700Y-33080D02*
X29700Y-32960D01*
X29700Y-32960D02*
X29810Y-32850D01*
X29810Y-32850D02*
X29970Y-32850D01*
X29970Y-32850D02*
X30037Y-32784D01*
G54D12*
X30060Y-32247D02*
X30060Y-32590D01*
G54D14*
X30073Y-31764D02*
X30073Y-31366D01*
X30467Y-31764D02*
X30467Y-31366D01*
G54D11*
X30480Y-32440D02*
X30690Y-32440D01*
X30690Y-32440D02*
X30760Y-32510D01*
X30760Y-32510D02*
X30760Y-32620D01*
X30760Y-32620D02*
X30840Y-32700D01*
X30840Y-32700D02*
X31500Y-32700D01*
G54D12*
X30480Y-32654D02*
X30480Y-32247D01*
X30480Y-33450D02*
X30480Y-33087D01*
G54D11*
X30457Y-33607D02*
X30457Y-33450D01*
X30470Y-34030D02*
X30530Y-33970D01*
X30530Y-33970D02*
X30920Y-33970D01*
X30920Y-33970D02*
X31020Y-33870D01*
X31020Y-33870D02*
X31020Y-33760D01*
X31020Y-33760D02*
X30930Y-33670D01*
X30930Y-33670D02*
X30520Y-33670D01*
X30520Y-33670D02*
X30457Y-33607D01*
X30470Y-34180D02*
X30470Y-34030D01*
G54D12*
X30470Y-34554D02*
X30470Y-34200D01*
X30470Y-35200D02*
X30470Y-34987D01*
G54D15*
X30470Y-36190D02*
X30470Y-35200D01*
G54D12*
X30470Y-36600D02*
X30470Y-36190D01*
G54D11*
X30821Y-37608D02*
X30471Y-37247D01*
X30471Y-37247D02*
X30471Y-36373D01*
X30530Y-37240D02*
X30860Y-37570D01*
X30520Y-37210D02*
X30530Y-37240D01*
X30520Y-36340D02*
X30520Y-37210D01*
X30420Y-36340D02*
X30520Y-36340D01*
X30420Y-37270D02*
X30770Y-37620D01*
X30420Y-36340D02*
X30420Y-37270D01*
G54D15*
X31735Y-36795D02*
X31735Y-36500D01*
X31825Y-36795D02*
X31825Y-36500D01*
X30965Y-37020D02*
X30965Y-36500D01*
X34540Y-36970D02*
X30930Y-36970D01*
X34150Y-38430D02*
X34150Y-36930D01*
X31350Y-38520D02*
X34540Y-38520D01*
X31370Y-37700D02*
X31370Y-38600D01*
X31790Y-37720D02*
X30930Y-37720D01*
X24630Y-38900D02*
X34540Y-38900D01*
X34540Y-38900D02*
X34540Y-36930D01*
G54D11*
X31557Y-36340D02*
X32010Y-36340D01*
X31557Y-36734D02*
X31557Y-36340D01*
X31163Y-36734D02*
X31557Y-36734D01*
X31163Y-36340D02*
X31163Y-36734D01*
X30770Y-36340D02*
X31163Y-36340D01*
X30770Y-37180D02*
X30770Y-36340D01*
X33919Y-37180D02*
X30770Y-37180D01*
X33919Y-38309D02*
X33919Y-37180D01*
X31557Y-38309D02*
X33919Y-38309D01*
X31557Y-37915D02*
X31557Y-38309D01*
X31951Y-37915D02*
X31557Y-37915D01*
X31951Y-37521D02*
X31951Y-37915D01*
X30770Y-37521D02*
X31951Y-37521D01*
X30770Y-37915D02*
X30770Y-37521D01*
X31163Y-37915D02*
X30770Y-37915D01*
X34700Y-36760D02*
X34700Y-39096D01*
X34700Y-39096D02*
X24470Y-39096D01*
X24470Y-39096D02*
X24470Y-38703D01*
X24470Y-38703D02*
X31163Y-38703D01*
X31163Y-38703D02*
X31163Y-37915D01*
X32010Y-36760D02*
X34700Y-36760D01*
X32010Y-36340D02*
X32010Y-36760D01*
G54D16*
X30853Y-36295D02*
X32353Y-36295D01*
G54D17*
X31600Y-32941D02*
X31600Y-32441D01*
G54D18*
X30470Y-34560D03*
G54D19*
X30073Y-31316D03*
X30467Y-31316D03*
G54D20*
X31540Y-32700D03*
G54D18*
X30470Y-34200D03*
X30470Y-33450D03*
X30480Y-33070D03*
X30480Y-32670D03*
G54D20*
X30480Y-32230D03*
X30470Y-31760D03*
X30070Y-31750D03*
X30060Y-32230D03*
X30060Y-32600D03*
G54D21*
X21000Y-38000D03*
G54D22*
X28100Y-24850D03*
X28100Y-24150D03*
X28900Y-24500D03*
X23507Y-23705D03*
X23507Y-23005D03*
X24307Y-23355D03*
G54D23*
X25975Y-22549D03*
X26369Y-22549D03*
X26369Y-23179D03*
X26172Y-23179D03*
X25975Y-23179D03*
G54D19*
X29679Y-29425D03*
X30664Y-29425D03*
X30861Y-29425D03*
X30270Y-29425D03*
X30467Y-29425D03*
X30073Y-29425D03*
X29876Y-29425D03*
X29876Y-31315D03*
X30073Y-31315D03*
X30467Y-31315D03*
X30270Y-31315D03*
X30664Y-31315D03*
X30861Y-31315D03*
X29679Y-31315D03*
G54D24*
X31215Y-30370D03*
X31215Y-30567D03*
X31215Y-30961D03*
X31215Y-30764D03*
X31215Y-29976D03*
X31215Y-30173D03*
X31215Y-29779D03*
X29325Y-29779D03*
X29325Y-30173D03*
X29325Y-29976D03*
X29325Y-30764D03*
X29325Y-30961D03*
X29325Y-30567D03*
X29325Y-30370D03*
G54D25*
X30270Y-30370D03*
G54D26*
X31394Y-23262D03*
X31394Y-23754D03*
X31394Y-24738D03*
X31394Y-24246D03*
X30606Y-24246D03*
X30606Y-24738D03*
X30606Y-23754D03*
X30606Y-23262D03*
G54D27*
X25295Y-29133D03*
X25295Y-30629D03*
X24389Y-30629D03*
X24389Y-29133D03*
G54D28*
X38000Y-21000D03*
G54D29*
X24850Y-33225D03*
X24850Y-33975D03*
G54D30*
X28125Y-23000D03*
X28875Y-23000D03*
G54D29*
X23632Y-25474D03*
X23632Y-24724D03*
X22304Y-22990D03*
X22304Y-23740D03*
X33000Y-23625D03*
X33000Y-24375D03*
G54D30*
X22975Y-34150D03*
X23725Y-34150D03*
X24475Y-28150D03*
X25225Y-28150D03*
X25225Y-31600D03*
X24475Y-31600D03*
G54D29*
X28000Y-28975D03*
X28000Y-28225D03*
X32800Y-31725D03*
X32800Y-32475D03*
X28000Y-31825D03*
X28000Y-32575D03*
X33550Y-29225D03*
X33550Y-28475D03*
X36515Y-22065D03*
X36515Y-22815D03*
X35432Y-22065D03*
X35432Y-22815D03*
X34350Y-22065D03*
X34350Y-22815D03*
G54D30*
X23725Y-33250D03*
X22975Y-33250D03*
X32375Y-27250D03*
X31625Y-27250D03*
G54D29*
X36515Y-23640D03*
X36515Y-24390D03*
X35432Y-23640D03*
X35432Y-24390D03*
X34350Y-23640D03*
X34350Y-24390D03*
X22530Y-24724D03*
X22530Y-25474D03*
G54D30*
X34475Y-31150D03*
X33725Y-31150D03*
G54D29*
X35350Y-28475D03*
X35350Y-29225D03*
G54D31*
X33090Y-34560D03*
G54D32*
X32090Y-35560D03*
X32090Y-33560D03*
X34090Y-33560D03*
X34090Y-35560D03*
G54D33*
X30470Y-36600D03*
X30980Y-36600D03*
X31810Y-36600D03*
G54D34*
X23000Y-21000D03*
G54D35*
X24000Y-21000D03*
X25000Y-21000D03*
X26000Y-21000D03*
X27000Y-21000D03*
X28000Y-21000D03*
X29000Y-21000D03*
X30000Y-21000D03*
X31000Y-21000D03*
X32000Y-21000D03*
X33000Y-21000D03*
X34000Y-21000D03*
X35000Y-21000D03*
X36000Y-21000D03*
G54D34*
X21000Y-36000D03*
G54D35*
X21000Y-35000D03*
X21000Y-34000D03*
X21000Y-33000D03*
X21000Y-32000D03*
X21000Y-31000D03*
X21000Y-30000D03*
X21000Y-29000D03*
X21000Y-28000D03*
X21000Y-27000D03*
X21000Y-26000D03*
X21000Y-25000D03*
X21000Y-24000D03*
X21000Y-23000D03*
G54D34*
X38000Y-23000D03*
G54D35*
X38000Y-24000D03*
X38000Y-25000D03*
X38000Y-26000D03*
X38000Y-27000D03*
X38000Y-28000D03*
X38000Y-29000D03*
X38000Y-30000D03*
X38000Y-31000D03*
X38000Y-32000D03*
X38000Y-33000D03*
X38000Y-34000D03*
X38000Y-35000D03*
X38000Y-36000D03*
G54D36*
X30480Y-31812D03*
X30480Y-32248D03*
X30060Y-31812D03*
X30060Y-32248D03*
G54D37*
X30038Y-32600D03*
X29602Y-32600D03*
G54D36*
X30480Y-32652D03*
X30480Y-33088D03*
G54D37*
X30022Y-33450D03*
X30458Y-33450D03*
X30032Y-34200D03*
X30468Y-34200D03*
G54D36*
X30470Y-34988D03*
X30470Y-34552D03*
G54D37*
X30888Y-34560D03*
G54D38*
X21770Y-25450D03*
X21810Y-24470D03*
X30538Y-28925D03*
X28574Y-23773D03*
X27211Y-26536D03*
X28152Y-30002D03*
X28522Y-29889D03*
X29381Y-26646D03*
X29687Y-27004D03*
X30604Y-27564D03*
X31060Y-27739D03*
X27892Y-27496D03*
X31121Y-28443D03*
X34329Y-30370D03*
X31195Y-29342D03*
X34069Y-29527D03*
X35168Y-33411D03*
X34506Y-28440D03*
X34930Y-30429D03*
X35238Y-31086D03*
X26159Y-28336D03*
X26180Y-29281D03*
X24255Y-32564D03*
X24920Y-32627D03*
X32169Y-29283D03*
X32814Y-29289D03*
X30138Y-25990D03*
X30167Y-26789D03*
X28502Y-25512D03*
X29134Y-29267D03*
X28798Y-28546D03*
X22022Y-27940D03*
X23056Y-26950D03*
X22435Y-26061D03*
X21882Y-26607D03*
X24950Y-22390D03*
X23950Y-22390D03*
X31540Y-21900D03*
X30810Y-21920D03*
X29930Y-22800D03*
X20550Y-22010D03*
X21160Y-21330D03*
X28750Y-21920D03*
X29470Y-21930D03*
X25459Y-27083D03*
X26278Y-27104D03*
X25928Y-26572D03*
X26570Y-24200D03*
X24416Y-25774D03*
X25298Y-25823D03*
X24269Y-26831D03*
X23034Y-28072D03*
X21956Y-29194D03*
X23034Y-29172D03*
X22000Y-30448D03*
X23034Y-30668D03*
X22088Y-31570D03*
X23345Y-32193D03*
X22044Y-33748D03*
X26750Y-33250D03*
X28280Y-31240D03*
X26430Y-31330D03*
X25970Y-31980D03*
X29960Y-30674D03*
X30588Y-30056D03*
X29958Y-30060D03*
X27250Y-32500D03*
X30550Y-30670D03*
X30270Y-30370D03*
X36870Y-30800D03*
X25000Y-34500D03*
X26500Y-34500D03*
X28750Y-33250D03*
X28000Y-34250D03*
X29500Y-34250D03*
X28750Y-35000D03*
X27250Y-35000D03*
X25750Y-35000D03*
X24250Y-35000D03*
X22000Y-35750D03*
X23250Y-35750D03*
X25000Y-35750D03*
X26500Y-35750D03*
X28000Y-35750D03*
X29500Y-35750D03*
X36025Y-35125D03*
X35300Y-34600D03*
X35850Y-33925D03*
X36775Y-33550D03*
X36800Y-34750D03*
X36775Y-35800D03*
X35075Y-35825D03*
X35825Y-25200D03*
X35800Y-26200D03*
X35800Y-27175D03*
X36850Y-28200D03*
X36850Y-26525D03*
X36850Y-25375D03*
X32675Y-25350D03*
X33550Y-25250D03*
X33525Y-26200D03*
X32250Y-26175D03*
X33275Y-27200D03*
X34350Y-27525D03*
X34350Y-26450D03*
X34350Y-25400D03*
X32025Y-28600D03*
X32050Y-27900D03*
X32650Y-28500D03*
X34150Y-32150D03*
X35900Y-32175D03*
X36750Y-32175D03*
X37338Y-24197D03*
X34891Y-22085D03*
X26889Y-27754D03*
X26889Y-30566D03*
X33062Y-31150D03*
X32538Y-31055D03*
X29050Y-31825D03*
X31600Y-31725D03*
X24332Y-24000D03*
X24151Y-22879D03*
X31320Y-25621D03*
X24620Y-24521D03*
G54D11*
X21770Y-24510D02*
X21770Y-25450D01*
X21810Y-24470D02*
X21770Y-24510D01*
X22384Y-34445D02*
X22679Y-34150D01*
X20956Y-34445D02*
X22384Y-34445D01*
X20564Y-34836D02*
X20956Y-34445D01*
X20564Y-35200D02*
X20564Y-34836D01*
X20948Y-35584D02*
X20564Y-35200D01*
X21000Y-35584D02*
X20948Y-35584D01*
X21000Y-36000D02*
X21000Y-35584D01*
X22975Y-34150D02*
X22679Y-34150D01*
X22975Y-34150D02*
X22975Y-33250D01*
X22975Y-33250D02*
X23270Y-33250D01*
X31394Y-24737D02*
X31116Y-24737D01*
X30605Y-24737D02*
X30883Y-24737D01*
X30883Y-24737D02*
X31116Y-24737D01*
X30605Y-23262D02*
X30328Y-23262D01*
X22304Y-22990D02*
X22304Y-22695D01*
X27272Y-23557D02*
X27829Y-23000D01*
X25975Y-23557D02*
X27272Y-23557D01*
X25975Y-25704D02*
X25975Y-23557D01*
X23792Y-27887D02*
X25975Y-25704D01*
X23792Y-32432D02*
X23792Y-27887D01*
X23270Y-32954D02*
X23792Y-32432D01*
X23270Y-33250D02*
X23270Y-32954D01*
X25975Y-23557D02*
X25975Y-23179D01*
X23004Y-21995D02*
X22304Y-22695D01*
X26825Y-21995D02*
X23004Y-21995D01*
X27829Y-23000D02*
X26825Y-21995D01*
X28125Y-23000D02*
X27977Y-23000D01*
X27977Y-23000D02*
X27829Y-23000D01*
X30328Y-23911D02*
X30328Y-23397D01*
X30444Y-24027D02*
X30328Y-23911D01*
X30813Y-24027D02*
X30444Y-24027D01*
X30883Y-24097D02*
X30813Y-24027D01*
X30883Y-24737D02*
X30883Y-24097D01*
X30328Y-23397D02*
X30328Y-23262D01*
X28374Y-23397D02*
X27977Y-23000D01*
X30328Y-23397D02*
X28374Y-23397D01*
X23632Y-31367D02*
X23632Y-25474D01*
X21000Y-34000D02*
X23632Y-31367D01*
X25975Y-22549D02*
X25975Y-22767D01*
X22530Y-25474D02*
X23632Y-25474D01*
X23632Y-25474D02*
X23632Y-25178D01*
X25817Y-22767D02*
X25975Y-22767D01*
X24783Y-23801D02*
X25817Y-22767D01*
X24783Y-23983D02*
X24783Y-23801D01*
X24344Y-24422D02*
X24783Y-23983D01*
X24344Y-24650D02*
X24344Y-24422D01*
X23816Y-25178D02*
X24344Y-24650D01*
X23632Y-25178D02*
X23816Y-25178D01*
X30467Y-28997D02*
X30538Y-28925D01*
X30467Y-29425D02*
X30467Y-28997D01*
X28323Y-30172D02*
X28152Y-30002D01*
X29325Y-30172D02*
X28323Y-30172D01*
X27211Y-24484D02*
X27211Y-26536D01*
X27922Y-23773D02*
X27211Y-24484D01*
X28574Y-23773D02*
X27922Y-23773D01*
X28609Y-29975D02*
X28522Y-29889D01*
X29325Y-29975D02*
X28609Y-29975D01*
X29679Y-29425D02*
X29679Y-29107D01*
X29381Y-28810D02*
X29381Y-26646D01*
X29679Y-29107D02*
X29381Y-28810D01*
X29875Y-27193D02*
X29687Y-27004D01*
X29875Y-29425D02*
X29875Y-27193D01*
X30072Y-28096D02*
X30604Y-27564D01*
X30072Y-29425D02*
X30072Y-28096D01*
X30270Y-28529D02*
X31060Y-27739D01*
X30270Y-29425D02*
X30270Y-28529D01*
X29005Y-26384D02*
X27892Y-27496D01*
X30611Y-26384D02*
X29005Y-26384D01*
X31477Y-27250D02*
X30611Y-26384D01*
X31625Y-27250D02*
X31514Y-27250D01*
X31514Y-27250D02*
X31477Y-27250D01*
X30860Y-29237D02*
X30860Y-29425D01*
X31514Y-28584D02*
X30860Y-29237D01*
X31514Y-27250D02*
X31514Y-28584D01*
X30664Y-29207D02*
X30664Y-29425D01*
X31121Y-28750D02*
X30664Y-29207D01*
X31121Y-28443D02*
X31121Y-28750D01*
X31215Y-30370D02*
X34329Y-30370D01*
X31215Y-29362D02*
X31195Y-29342D01*
X31215Y-29779D02*
X31215Y-29362D01*
X35350Y-29225D02*
X35350Y-29520D01*
X35342Y-29527D02*
X34069Y-29527D01*
X35350Y-29520D02*
X35342Y-29527D01*
X33423Y-30172D02*
X34069Y-29527D01*
X31215Y-30172D02*
X33423Y-30172D01*
X34350Y-27525D02*
X34350Y-28284D01*
X34350Y-28284D02*
X34506Y-28440D01*
X34475Y-31150D02*
X35174Y-31150D01*
X35174Y-31150D02*
X35238Y-31086D01*
X26159Y-29260D02*
X26159Y-28336D01*
X26180Y-29281D02*
X26159Y-29260D01*
X24857Y-32564D02*
X24255Y-32564D01*
X24920Y-32627D02*
X24857Y-32564D01*
X32650Y-28500D02*
X32650Y-29125D01*
X32650Y-29125D02*
X32814Y-29289D01*
X28557Y-25512D02*
X29035Y-25990D01*
X29035Y-25990D02*
X30138Y-25990D01*
X28502Y-25512D02*
X28557Y-25512D01*
X28100Y-24850D02*
X28100Y-25110D01*
X28100Y-25110D02*
X28502Y-25512D01*
X28000Y-28225D02*
X28477Y-28225D01*
X28477Y-28225D02*
X28798Y-28546D01*
X23056Y-26950D02*
X22225Y-26950D01*
X22022Y-27940D02*
X23012Y-26950D01*
X23012Y-26950D02*
X23056Y-26950D01*
X22225Y-26950D02*
X21882Y-26607D01*
X23280Y-22390D02*
X23950Y-22390D01*
X22990Y-22680D02*
X23280Y-22390D01*
X22990Y-23630D02*
X22990Y-22680D01*
X22879Y-23740D02*
X22990Y-23630D01*
X22304Y-23740D02*
X22879Y-23740D01*
X28875Y-23000D02*
X29730Y-23000D01*
X30830Y-21900D02*
X31540Y-21900D01*
X30810Y-21920D02*
X30830Y-21900D01*
X29730Y-23000D02*
X29930Y-22800D01*
X20550Y-21940D02*
X20550Y-22010D01*
X21160Y-21330D02*
X20550Y-21940D01*
X28875Y-23000D02*
X28875Y-22525D01*
X28875Y-22525D02*
X29470Y-21930D01*
X25928Y-26572D02*
X25928Y-26472D01*
X25459Y-27083D02*
X25480Y-27104D01*
X25480Y-27104D02*
X26278Y-27104D01*
X26570Y-25830D02*
X26570Y-24200D01*
X25928Y-26472D02*
X26570Y-25830D01*
X25277Y-25823D02*
X25298Y-25823D01*
X24269Y-26831D02*
X25277Y-25823D01*
X23034Y-28116D02*
X23034Y-28072D01*
X21956Y-29194D02*
X23034Y-28116D01*
X23034Y-29414D02*
X23034Y-29172D01*
X22000Y-30448D02*
X23034Y-29414D01*
X22990Y-30668D02*
X23034Y-30668D01*
X22088Y-31570D02*
X22990Y-30668D01*
X22149Y-33389D02*
X23345Y-32193D01*
X22149Y-33643D02*
X22149Y-33389D01*
X22044Y-33748D02*
X22149Y-33643D01*
G54D39*
X27425Y-32575D02*
X26750Y-33250D01*
X28000Y-32575D02*
X27425Y-32575D01*
G54D11*
X26430Y-31520D02*
X26430Y-31330D01*
X25970Y-31980D02*
X26430Y-31520D01*
X29960Y-30674D02*
X30264Y-30370D01*
X30264Y-30370D02*
X30270Y-30370D01*
X30274Y-30370D02*
X30270Y-30370D01*
X30588Y-30056D02*
X30274Y-30370D01*
X30268Y-30370D02*
X30270Y-30370D01*
X29958Y-30060D02*
X30268Y-30370D01*
X27325Y-32575D02*
X27250Y-32500D01*
X28000Y-32575D02*
X27325Y-32575D01*
G54D39*
X30550Y-30670D02*
X30270Y-30390D01*
X30270Y-30390D02*
X30270Y-30370D01*
G54D11*
X36750Y-32175D02*
X36750Y-30920D01*
X36750Y-30920D02*
X36870Y-30800D01*
G54D39*
X30032Y-34200D02*
X30032Y-35218D01*
G54D11*
X26500Y-34500D02*
X25000Y-34500D01*
G54D39*
X28750Y-33500D02*
X28750Y-33250D01*
X28000Y-34250D02*
X28750Y-33500D01*
X28750Y-35000D02*
X29500Y-34250D01*
X25750Y-35000D02*
X27250Y-35000D01*
X22750Y-35000D02*
X24250Y-35000D01*
X22000Y-35750D02*
X22750Y-35000D01*
X25000Y-35750D02*
X23250Y-35750D01*
X28000Y-35750D02*
X26500Y-35750D01*
X30032Y-35218D02*
X29500Y-35750D01*
X34090Y-35560D02*
X34810Y-35560D01*
X35825Y-35125D02*
X36025Y-35125D01*
X35300Y-34600D02*
X35825Y-35125D01*
X36400Y-33925D02*
X35850Y-33925D01*
X36775Y-33550D02*
X36400Y-33925D01*
X36800Y-35775D02*
X36800Y-34750D01*
X36775Y-35800D02*
X36800Y-35775D01*
X34810Y-35560D02*
X35075Y-35825D01*
X36515Y-24390D02*
X36515Y-25040D01*
X35800Y-27175D02*
X35800Y-26200D01*
X36850Y-26525D02*
X36850Y-28200D01*
X36515Y-25040D02*
X36850Y-25375D01*
X34350Y-24390D02*
X34350Y-25400D01*
X33550Y-26175D02*
X33550Y-25250D01*
X33525Y-26200D02*
X33550Y-26175D01*
X33275Y-27200D02*
X32250Y-26175D01*
X34350Y-26450D02*
X34350Y-27525D01*
X33550Y-28475D02*
X32675Y-28475D01*
X32025Y-27925D02*
X32025Y-28600D01*
X32050Y-27900D02*
X32025Y-27925D01*
X32675Y-28475D02*
X32650Y-28500D01*
X34090Y-33560D02*
X35365Y-33560D01*
X35875Y-32150D02*
X34150Y-32150D01*
X35900Y-32175D02*
X35875Y-32150D01*
X35365Y-33560D02*
X36750Y-32175D01*
X30980Y-36600D02*
X30980Y-36370D01*
X31810Y-36410D02*
X31810Y-36600D01*
X31700Y-36300D02*
X31810Y-36410D01*
X31050Y-36300D02*
X31700Y-36300D01*
X30980Y-36370D02*
X31050Y-36300D01*
G54D11*
X32090Y-35560D02*
X32090Y-35580D01*
X32090Y-35580D02*
X31810Y-35860D01*
X31810Y-35860D02*
X31810Y-36600D01*
X32090Y-35560D02*
X31310Y-35560D01*
X30980Y-35890D02*
X30980Y-36600D01*
X31310Y-35560D02*
X30980Y-35890D01*
X34090Y-35560D02*
X33610Y-36040D01*
X32570Y-36040D02*
X32090Y-35560D01*
X33610Y-36040D02*
X32570Y-36040D01*
X34090Y-33560D02*
X34660Y-34130D01*
X34660Y-34990D02*
X34090Y-35560D01*
X34660Y-34130D02*
X34660Y-34990D01*
X32090Y-33560D02*
X32520Y-33130D01*
X33660Y-33130D02*
X34090Y-33560D01*
X32520Y-33130D02*
X33660Y-33130D01*
X31540Y-32700D02*
X31540Y-33010D01*
X31540Y-33010D02*
X32090Y-33560D01*
X31540Y-32700D02*
X32575Y-32700D01*
X32575Y-32700D02*
X32800Y-32475D01*
X23429Y-34334D02*
X23429Y-34150D01*
X22764Y-35000D02*
X23429Y-34334D01*
X21000Y-35000D02*
X22764Y-35000D01*
X35541Y-28770D02*
X33550Y-28770D01*
X35745Y-28974D02*
X35541Y-28770D01*
X35745Y-30174D02*
X35745Y-28974D01*
X34770Y-31150D02*
X35745Y-30174D01*
X34475Y-31150D02*
X34770Y-31150D01*
X33550Y-28475D02*
X33550Y-28770D01*
X35432Y-24390D02*
X34350Y-24390D01*
X32670Y-27300D02*
X33550Y-28179D01*
X32670Y-27250D02*
X32670Y-27300D01*
X33550Y-28475D02*
X33550Y-28179D01*
X32375Y-27250D02*
X32670Y-27250D01*
X26895Y-33975D02*
X24850Y-33975D01*
X28000Y-32870D02*
X26895Y-33975D01*
X28000Y-32575D02*
X28000Y-32870D01*
X25225Y-28150D02*
X25520Y-28150D01*
X24475Y-31600D02*
X24475Y-31204D01*
X23577Y-34150D02*
X23429Y-34150D01*
X23577Y-34150D02*
X23725Y-34150D01*
X24279Y-34150D02*
X24454Y-33975D01*
X23725Y-34150D02*
X24279Y-34150D01*
X25671Y-28225D02*
X25671Y-29133D01*
X25595Y-28225D02*
X25520Y-28150D01*
X25671Y-28225D02*
X25595Y-28225D01*
X33938Y-24375D02*
X33395Y-24375D01*
X33954Y-24390D02*
X33938Y-24375D01*
X34350Y-24390D02*
X33954Y-24390D01*
X23172Y-23740D02*
X23207Y-23705D01*
X22304Y-23740D02*
X23172Y-23740D01*
X24389Y-31119D02*
X24389Y-30629D01*
X24475Y-31204D02*
X24389Y-31119D01*
X28000Y-28225D02*
X25671Y-28225D01*
X23507Y-23705D02*
X23207Y-23705D01*
X32375Y-27250D02*
X32079Y-27250D01*
X24850Y-33975D02*
X24454Y-33975D01*
X33197Y-24375D02*
X33395Y-24375D01*
X33197Y-24375D02*
X33000Y-24375D01*
X33000Y-24375D02*
X32604Y-24375D01*
X37568Y-21431D02*
X38000Y-21000D01*
X30738Y-21431D02*
X37568Y-21431D01*
X29170Y-23000D02*
X30738Y-21431D01*
X28875Y-23000D02*
X29022Y-23000D01*
X29022Y-23000D02*
X29170Y-23000D01*
X22304Y-23740D02*
X22304Y-23445D01*
X32079Y-26827D02*
X31281Y-26028D01*
X32079Y-27250D02*
X32079Y-26827D01*
X32604Y-24705D02*
X32604Y-24375D01*
X31281Y-26028D02*
X32604Y-24705D01*
X35857Y-28179D02*
X33550Y-28179D01*
X36268Y-28591D02*
X35857Y-28179D01*
X36268Y-31084D02*
X36268Y-28591D01*
X34877Y-32475D02*
X36268Y-31084D01*
X32800Y-32475D02*
X34877Y-32475D01*
X28000Y-28225D02*
X28000Y-27929D01*
X25295Y-29133D02*
X25483Y-29133D01*
X25483Y-29133D02*
X25671Y-29133D01*
X24422Y-30194D02*
X24389Y-30194D01*
X25483Y-29133D02*
X24422Y-30194D01*
X24389Y-30629D02*
X24389Y-30194D01*
X28100Y-24850D02*
X28100Y-25150D01*
X22119Y-23445D02*
X22304Y-23445D01*
X21908Y-23235D02*
X22119Y-23445D01*
X21908Y-22744D02*
X21908Y-23235D01*
X22818Y-21835D02*
X21908Y-22744D01*
X27858Y-21835D02*
X22818Y-21835D01*
X29022Y-23000D02*
X27858Y-21835D01*
X36515Y-24390D02*
X35432Y-24390D01*
X37104Y-24197D02*
X37338Y-24197D01*
X36911Y-24390D02*
X37104Y-24197D01*
X36515Y-24390D02*
X36911Y-24390D01*
X31143Y-25891D02*
X28250Y-25891D01*
X31281Y-26028D02*
X31143Y-25891D01*
X28100Y-25740D02*
X28100Y-25150D01*
X28250Y-25891D02*
X28100Y-25740D01*
X27957Y-27929D02*
X28000Y-27929D01*
X27632Y-27604D02*
X27957Y-27929D01*
X27632Y-26509D02*
X27632Y-27604D01*
X28250Y-25891D02*
X27632Y-26509D01*
X38053Y-22065D02*
X36515Y-22065D01*
X38598Y-22610D02*
X38053Y-22065D01*
X38598Y-28401D02*
X38598Y-22610D01*
X38000Y-29000D02*
X38598Y-28401D01*
X37179Y-21770D02*
X35432Y-21770D01*
X37314Y-21905D02*
X37179Y-21770D01*
X38123Y-21905D02*
X37314Y-21905D01*
X38772Y-22554D02*
X38123Y-21905D01*
X38772Y-29227D02*
X38772Y-22554D01*
X38000Y-30000D02*
X38772Y-29227D01*
X35432Y-22065D02*
X35432Y-21770D01*
X34764Y-22085D02*
X34745Y-22065D01*
X34891Y-22085D02*
X34764Y-22085D01*
X34350Y-22065D02*
X34745Y-22065D01*
X25225Y-31135D02*
X25295Y-31065D01*
X25225Y-31600D02*
X25225Y-31135D01*
X25295Y-30629D02*
X25295Y-30763D01*
X25295Y-30763D02*
X25295Y-31065D01*
X29325Y-30764D02*
X29007Y-30764D01*
X28944Y-30827D02*
X29007Y-30764D01*
X25358Y-30827D02*
X28944Y-30827D01*
X25295Y-30763D02*
X25358Y-30827D01*
X22530Y-24724D02*
X23632Y-24724D01*
X23632Y-24724D02*
X23632Y-24428D01*
X24307Y-23355D02*
X24608Y-23355D01*
X26172Y-23179D02*
X26172Y-23397D01*
X23632Y-24332D02*
X23632Y-24428D01*
X24307Y-23656D02*
X23632Y-24332D01*
X24608Y-23309D02*
X24608Y-23355D01*
X25761Y-22155D02*
X24608Y-23309D01*
X26303Y-22155D02*
X25761Y-22155D01*
X26564Y-22416D02*
X26303Y-22155D01*
X26564Y-23338D02*
X26564Y-22416D01*
X26505Y-23397D02*
X26564Y-23338D01*
X26172Y-23397D02*
X26505Y-23397D01*
X24307Y-23355D02*
X24307Y-23656D01*
X24389Y-28630D02*
X24389Y-29133D01*
X24475Y-28545D02*
X24389Y-28630D01*
X24475Y-28347D02*
X24475Y-28279D01*
X24475Y-28347D02*
X24475Y-28545D01*
X24475Y-28150D02*
X24475Y-28279D01*
X29325Y-30567D02*
X29007Y-30567D01*
X24999Y-27754D02*
X26889Y-27754D01*
X24475Y-28279D02*
X24999Y-27754D01*
X29007Y-30566D02*
X26889Y-30566D01*
X29007Y-30567D02*
X29007Y-30566D01*
X29454Y-24245D02*
X29200Y-24500D01*
X30605Y-24245D02*
X29454Y-24245D01*
X28900Y-24500D02*
X29200Y-24500D01*
X33725Y-31150D02*
X33062Y-31150D01*
X32246Y-30764D02*
X32538Y-31055D01*
X31215Y-30764D02*
X32246Y-30764D01*
X31215Y-29975D02*
X31532Y-29975D01*
X33550Y-29225D02*
X33550Y-29520D01*
X33094Y-29975D02*
X33550Y-29520D01*
X31532Y-29975D02*
X33094Y-29975D01*
X35432Y-23640D02*
X35432Y-22815D01*
X31102Y-23535D02*
X30883Y-23754D01*
X32515Y-23535D02*
X31102Y-23535D01*
X32604Y-23625D02*
X32515Y-23535D01*
X33000Y-23625D02*
X32604Y-23625D01*
X30605Y-23754D02*
X30883Y-23754D01*
X31600Y-31725D02*
X32800Y-31725D01*
X32800Y-30750D02*
X32800Y-31725D01*
X32617Y-30567D02*
X32800Y-30750D01*
X31215Y-30567D02*
X32617Y-30567D01*
X35925Y-28475D02*
X35350Y-28475D01*
X36100Y-28650D02*
X35925Y-28475D01*
X36100Y-31000D02*
X36100Y-28650D01*
X35375Y-31725D02*
X36100Y-31000D01*
X32800Y-31725D02*
X35375Y-31725D01*
X31600Y-31100D02*
X31600Y-31725D01*
X31460Y-30960D02*
X31600Y-31100D01*
X31215Y-30960D02*
X31460Y-30960D01*
X28000Y-31825D02*
X29050Y-31825D01*
X31600Y-31725D02*
X32800Y-31725D01*
X30825Y-31725D02*
X31600Y-31725D01*
X30664Y-31564D02*
X30825Y-31725D01*
X30664Y-31315D02*
X30664Y-31564D01*
X29625Y-31825D02*
X29875Y-31574D01*
X29875Y-31574D02*
X29875Y-31315D01*
X29050Y-31825D02*
X29625Y-31825D01*
X29050Y-31050D02*
X29050Y-31825D01*
X29325Y-30960D02*
X29139Y-30960D01*
X29139Y-30960D02*
X29050Y-31050D01*
X24429Y-33250D02*
X24454Y-33225D01*
X23725Y-33250D02*
X24429Y-33250D01*
X24850Y-33225D02*
X24454Y-33225D01*
X25625Y-33225D02*
X25887Y-32962D01*
X24850Y-33225D02*
X25625Y-33225D01*
X27025Y-31825D02*
X28000Y-31825D01*
X25887Y-32962D02*
X27025Y-31825D01*
X24919Y-31994D02*
X25887Y-32962D01*
X24919Y-30255D02*
X24919Y-31994D01*
X25293Y-29881D02*
X24919Y-30255D01*
X27585Y-29881D02*
X25293Y-29881D01*
X28650Y-29150D02*
X28650Y-29600D01*
X28475Y-28975D02*
X28650Y-29150D01*
X28000Y-28975D02*
X28475Y-28975D01*
X28829Y-29779D02*
X29325Y-29779D01*
X28650Y-29600D02*
X28829Y-29779D01*
X27585Y-28726D02*
X27585Y-29881D01*
X27632Y-28679D02*
X27585Y-28726D01*
X27741Y-28679D02*
X27632Y-28679D01*
X27764Y-28703D02*
X27741Y-28679D01*
X27764Y-29247D02*
X27764Y-28703D01*
X28117Y-29600D02*
X27764Y-29247D01*
X28650Y-29600D02*
X28117Y-29600D01*
X28073Y-30370D02*
X27585Y-29881D01*
X29325Y-30370D02*
X28073Y-30370D01*
X34350Y-23640D02*
X34350Y-22815D01*
X36515Y-23640D02*
X36515Y-22815D01*
X25648Y-22684D02*
X24332Y-24000D01*
X25648Y-22537D02*
X25648Y-22684D01*
X25869Y-22316D02*
X25648Y-22537D01*
X26136Y-22316D02*
X25869Y-22316D01*
X26369Y-22549D02*
X26136Y-22316D01*
X38418Y-23581D02*
X38000Y-24000D01*
X38418Y-22657D02*
X38418Y-23581D01*
X38281Y-22520D02*
X38418Y-22657D01*
X32412Y-22520D02*
X38281Y-22520D01*
X31671Y-23262D02*
X32412Y-22520D01*
X31394Y-23262D02*
X31671Y-23262D01*
X37584Y-23207D02*
X37584Y-23000D01*
X36839Y-23952D02*
X37584Y-23207D01*
X31870Y-23952D02*
X36839Y-23952D01*
X31671Y-23754D02*
X31870Y-23952D01*
X31394Y-23754D02*
X31671Y-23754D01*
X38000Y-23000D02*
X37584Y-23000D01*
X23808Y-23005D02*
X24025Y-23005D01*
X24025Y-23005D02*
X24151Y-22879D01*
X23507Y-23005D02*
X23808Y-23005D01*
X28300Y-24450D02*
X28100Y-24450D01*
X29472Y-25621D02*
X28300Y-24450D01*
X31320Y-25621D02*
X29472Y-25621D01*
X28100Y-24150D02*
X28100Y-24450D01*
X26369Y-23179D02*
X26369Y-22960D01*
X25857Y-22960D02*
X26369Y-22960D01*
X24943Y-23874D02*
X25857Y-22960D01*
X24943Y-24198D02*
X24943Y-23874D01*
X24620Y-24521D02*
X24943Y-24198D01*
G54D10*
G36*
X23602Y-32354D02*
X23135Y-32820D01*
X23132Y-32825D01*
X23120Y-32825D01*
X22770Y-32825D01*
X22715Y-32847D01*
X22672Y-32890D01*
X22650Y-32945D01*
X22650Y-33004D01*
X22650Y-33554D01*
X22672Y-33609D01*
X22715Y-33652D01*
X22770Y-33675D01*
X22785Y-33675D01*
X22785Y-33725D01*
X22770Y-33725D01*
X22715Y-33747D01*
X22672Y-33790D01*
X22650Y-33845D01*
X22650Y-33904D01*
X22650Y-33965D01*
X22607Y-33974D01*
X22545Y-34015D01*
X22545Y-34015D01*
X22306Y-34255D01*
X21375Y-34255D01*
X21377Y-34252D01*
X21445Y-34089D01*
X21445Y-33911D01*
X21419Y-33849D01*
X23602Y-31666D01*
X23602Y-32354D01*
X23602Y-32354D01*
G37*
G54D14*
X23602Y-32354D02*
X23135Y-32820D01*
X23132Y-32825D01*
X23120Y-32825D01*
X22770Y-32825D01*
X22715Y-32847D01*
X22672Y-32890D01*
X22650Y-32945D01*
X22650Y-33004D01*
X22650Y-33554D01*
X22672Y-33609D01*
X22715Y-33652D01*
X22770Y-33675D01*
X22785Y-33675D01*
X22785Y-33725D01*
X22770Y-33725D01*
X22715Y-33747D01*
X22672Y-33790D01*
X22650Y-33845D01*
X22650Y-33904D01*
X22650Y-33965D01*
X22607Y-33974D01*
X22545Y-34015D01*
X22545Y-34015D01*
X22306Y-34255D01*
X21375Y-34255D01*
X21377Y-34252D01*
X21445Y-34089D01*
X21445Y-33911D01*
X21419Y-33849D01*
X23602Y-31666D01*
X23602Y-32354D01*
G54D10*
G36*
X25785Y-25626D02*
X23822Y-27589D01*
X23822Y-25799D01*
X23936Y-25799D01*
X23991Y-25776D01*
X24034Y-25733D01*
X24057Y-25678D01*
X24057Y-25619D01*
X24057Y-25269D01*
X24038Y-25225D01*
X24478Y-24785D01*
X24478Y-24785D01*
X24478Y-24785D01*
X24483Y-24778D01*
X24562Y-24811D01*
X24677Y-24811D01*
X24784Y-24767D01*
X24866Y-24685D01*
X24910Y-24579D01*
X24910Y-24499D01*
X25077Y-24332D01*
X25119Y-24270D01*
X25133Y-24198D01*
X25133Y-23953D01*
X25769Y-23316D01*
X25785Y-23353D01*
X25785Y-23557D01*
X25785Y-25626D01*
X25785Y-25626D01*
G37*
G54D14*
X25785Y-25626D02*
X23822Y-27589D01*
X23822Y-25799D01*
X23936Y-25799D01*
X23991Y-25776D01*
X24034Y-25733D01*
X24057Y-25678D01*
X24057Y-25619D01*
X24057Y-25269D01*
X24038Y-25225D01*
X24478Y-24785D01*
X24478Y-24785D01*
X24478Y-24785D01*
X24483Y-24778D01*
X24562Y-24811D01*
X24677Y-24811D01*
X24784Y-24767D01*
X24866Y-24685D01*
X24910Y-24579D01*
X24910Y-24499D01*
X25077Y-24332D01*
X25119Y-24270D01*
X25133Y-24198D01*
X25133Y-23953D01*
X25769Y-23316D01*
X25785Y-23353D01*
X25785Y-23557D01*
X25785Y-25626D01*
G54D10*
G36*
X28866Y-31017D02*
X28860Y-31050D01*
X28860Y-31604D01*
X28829Y-31635D01*
X28425Y-31635D01*
X28425Y-31620D01*
X28402Y-31565D01*
X28359Y-31522D01*
X28304Y-31500D01*
X28245Y-31500D01*
X27695Y-31500D01*
X27640Y-31522D01*
X27597Y-31565D01*
X27575Y-31620D01*
X27575Y-31635D01*
X27025Y-31635D01*
X27025Y-31634D01*
X26952Y-31649D01*
X26890Y-31690D01*
X26890Y-31690D01*
X25887Y-32693D01*
X25218Y-32025D01*
X25429Y-32025D01*
X25484Y-32002D01*
X25527Y-31959D01*
X25550Y-31904D01*
X25550Y-31845D01*
X25550Y-31295D01*
X25527Y-31240D01*
X25484Y-31197D01*
X25442Y-31180D01*
X25471Y-31137D01*
X25479Y-31094D01*
X25479Y-31094D01*
X25581Y-31094D01*
X25636Y-31072D01*
X25678Y-31029D01*
X25683Y-31017D01*
X28866Y-31017D01*
X28866Y-31017D01*
G37*
G54D14*
X28866Y-31017D02*
X28860Y-31050D01*
X28860Y-31604D01*
X28829Y-31635D01*
X28425Y-31635D01*
X28425Y-31620D01*
X28402Y-31565D01*
X28359Y-31522D01*
X28304Y-31500D01*
X28245Y-31500D01*
X27695Y-31500D01*
X27640Y-31522D01*
X27597Y-31565D01*
X27575Y-31620D01*
X27575Y-31635D01*
X27025Y-31635D01*
X27025Y-31634D01*
X26952Y-31649D01*
X26890Y-31690D01*
X26890Y-31690D01*
X25887Y-32693D01*
X25218Y-32025D01*
X25429Y-32025D01*
X25484Y-32002D01*
X25527Y-31959D01*
X25550Y-31904D01*
X25550Y-31845D01*
X25550Y-31295D01*
X25527Y-31240D01*
X25484Y-31197D01*
X25442Y-31180D01*
X25471Y-31137D01*
X25479Y-31094D01*
X25479Y-31094D01*
X25581Y-31094D01*
X25636Y-31072D01*
X25678Y-31029D01*
X25683Y-31017D01*
X28866Y-31017D01*
G54D10*
G36*
X30320Y-33919D02*
X30294Y-33957D01*
X30293Y-33960D01*
X30265Y-33972D01*
X30250Y-33987D01*
X30234Y-33972D01*
X30179Y-33950D01*
X30119Y-33950D01*
X30082Y-33987D01*
X30082Y-34150D01*
X30089Y-34150D01*
X30089Y-34250D01*
X30082Y-34250D01*
X30082Y-34412D01*
X30119Y-34450D01*
X30179Y-34450D01*
X30220Y-34433D01*
X30220Y-34463D01*
X30220Y-34554D01*
X30220Y-34699D01*
X30242Y-34754D01*
X30257Y-34770D01*
X30242Y-34785D01*
X30220Y-34840D01*
X30220Y-34899D01*
X30220Y-34956D01*
X30146Y-35066D01*
X30120Y-35200D01*
X30120Y-36190D01*
X30146Y-36323D01*
X30177Y-36370D01*
X29982Y-36370D01*
X29982Y-34412D01*
X29982Y-34250D01*
X29982Y-34150D01*
X29982Y-33987D01*
X29972Y-33977D01*
X29972Y-33662D01*
X29972Y-33500D01*
X29791Y-33500D01*
X29754Y-33537D01*
X29754Y-33579D01*
X29776Y-33634D01*
X29819Y-33677D01*
X29874Y-33700D01*
X29934Y-33700D01*
X29972Y-33662D01*
X29972Y-33977D01*
X29944Y-33950D01*
X29884Y-33950D01*
X29829Y-33972D01*
X29786Y-34015D01*
X29764Y-34070D01*
X29764Y-34112D01*
X29801Y-34150D01*
X29982Y-34150D01*
X29982Y-34250D01*
X29801Y-34250D01*
X29764Y-34287D01*
X29764Y-34329D01*
X29786Y-34384D01*
X29829Y-34427D01*
X29884Y-34450D01*
X29944Y-34450D01*
X29982Y-34412D01*
X29982Y-36370D01*
X28425Y-36370D01*
X28425Y-32779D01*
X28425Y-32662D01*
X28425Y-32487D01*
X28425Y-32370D01*
X28402Y-32315D01*
X28359Y-32272D01*
X28304Y-32250D01*
X28245Y-32250D01*
X28087Y-32250D01*
X28050Y-32287D01*
X28050Y-32525D01*
X28387Y-32525D01*
X28425Y-32487D01*
X28425Y-32662D01*
X28387Y-32625D01*
X28050Y-32625D01*
X28050Y-32862D01*
X28087Y-32900D01*
X28245Y-32900D01*
X28304Y-32900D01*
X28359Y-32877D01*
X28402Y-32834D01*
X28425Y-32779D01*
X28425Y-36370D01*
X27950Y-36370D01*
X27950Y-32862D01*
X27950Y-32625D01*
X27950Y-32525D01*
X27950Y-32287D01*
X27912Y-32250D01*
X27754Y-32250D01*
X27695Y-32250D01*
X27640Y-32272D01*
X27597Y-32315D01*
X27575Y-32370D01*
X27575Y-32487D01*
X27612Y-32525D01*
X27950Y-32525D01*
X27950Y-32625D01*
X27612Y-32625D01*
X27575Y-32662D01*
X27575Y-32779D01*
X27597Y-32834D01*
X27640Y-32877D01*
X27695Y-32900D01*
X27754Y-32900D01*
X27912Y-32900D01*
X27950Y-32862D01*
X27950Y-36370D01*
X25275Y-36370D01*
X25275Y-34179D01*
X25275Y-34062D01*
X25275Y-33887D01*
X25275Y-33770D01*
X25252Y-33715D01*
X25209Y-33672D01*
X25154Y-33650D01*
X25095Y-33650D01*
X24937Y-33650D01*
X24900Y-33687D01*
X24900Y-33925D01*
X25237Y-33925D01*
X25275Y-33887D01*
X25275Y-34062D01*
X25237Y-34025D01*
X24900Y-34025D01*
X24900Y-34262D01*
X24937Y-34300D01*
X25095Y-34300D01*
X25154Y-34300D01*
X25209Y-34277D01*
X25252Y-34234D01*
X25275Y-34179D01*
X25275Y-36370D01*
X24800Y-36370D01*
X24800Y-34262D01*
X24800Y-34025D01*
X24800Y-33925D01*
X24800Y-33687D01*
X24762Y-33650D01*
X24604Y-33650D01*
X24545Y-33650D01*
X24490Y-33672D01*
X24447Y-33715D01*
X24425Y-33770D01*
X24425Y-33887D01*
X24462Y-33925D01*
X24800Y-33925D01*
X24800Y-34025D01*
X24462Y-34025D01*
X24425Y-34062D01*
X24425Y-34179D01*
X24447Y-34234D01*
X24490Y-34277D01*
X24545Y-34300D01*
X24604Y-34300D01*
X24762Y-34300D01*
X24800Y-34262D01*
X24800Y-36370D01*
X24050Y-36370D01*
X24050Y-34454D01*
X24050Y-34395D01*
X24050Y-34237D01*
X24050Y-34062D01*
X24050Y-33904D01*
X24050Y-33845D01*
X24027Y-33790D01*
X23984Y-33747D01*
X23929Y-33725D01*
X23812Y-33725D01*
X23775Y-33762D01*
X23775Y-34100D01*
X24012Y-34100D01*
X24050Y-34062D01*
X24050Y-34237D01*
X24012Y-34200D01*
X23775Y-34200D01*
X23775Y-34537D01*
X23812Y-34575D01*
X23929Y-34575D01*
X23984Y-34552D01*
X24027Y-34509D01*
X24050Y-34454D01*
X24050Y-36370D01*
X23675Y-36370D01*
X23675Y-34537D01*
X23675Y-34200D01*
X23675Y-34100D01*
X23675Y-33762D01*
X23637Y-33725D01*
X23520Y-33725D01*
X23465Y-33747D01*
X23422Y-33790D01*
X23400Y-33845D01*
X23400Y-33904D01*
X23400Y-34062D01*
X23437Y-34100D01*
X23675Y-34100D01*
X23675Y-34200D01*
X23437Y-34200D01*
X23400Y-34237D01*
X23400Y-34395D01*
X23400Y-34454D01*
X23422Y-34509D01*
X23465Y-34552D01*
X23520Y-34575D01*
X23637Y-34575D01*
X23675Y-34537D01*
X23675Y-36370D01*
X21450Y-36370D01*
X21450Y-35056D01*
X21438Y-34879D01*
X21394Y-34775D01*
X21327Y-34742D01*
X21070Y-35000D01*
X21327Y-35257D01*
X21394Y-35224D01*
X21450Y-35056D01*
X21450Y-36370D01*
X21426Y-36370D01*
X21445Y-36325D01*
X21445Y-36265D01*
X21445Y-35674D01*
X21422Y-35619D01*
X21380Y-35577D01*
X21325Y-35554D01*
X21265Y-35554D01*
X21184Y-35554D01*
X21175Y-35511D01*
X21134Y-35450D01*
X21116Y-35438D01*
X21120Y-35438D01*
X21224Y-35394D01*
X21257Y-35327D01*
X21000Y-35070D01*
X20994Y-35076D01*
X20923Y-35005D01*
X20929Y-35000D01*
X20923Y-34994D01*
X20994Y-34923D01*
X21000Y-34929D01*
X21257Y-34672D01*
X21239Y-34635D01*
X22384Y-34635D01*
X22457Y-34620D01*
X22519Y-34579D01*
X22650Y-34448D01*
X22650Y-34454D01*
X22672Y-34509D01*
X22715Y-34552D01*
X22770Y-34575D01*
X22829Y-34575D01*
X23179Y-34575D01*
X23234Y-34552D01*
X23277Y-34509D01*
X23300Y-34454D01*
X23300Y-34395D01*
X23300Y-33845D01*
X23277Y-33790D01*
X23234Y-33747D01*
X23179Y-33725D01*
X23165Y-33725D01*
X23165Y-33675D01*
X23179Y-33675D01*
X23234Y-33652D01*
X23277Y-33609D01*
X23300Y-33554D01*
X23300Y-33495D01*
X23300Y-33434D01*
X23342Y-33425D01*
X23400Y-33387D01*
X23400Y-33554D01*
X23422Y-33609D01*
X23465Y-33652D01*
X23520Y-33675D01*
X23579Y-33675D01*
X23929Y-33675D01*
X23984Y-33652D01*
X24027Y-33609D01*
X24050Y-33554D01*
X24050Y-33495D01*
X24050Y-33440D01*
X24429Y-33440D01*
X24447Y-33484D01*
X24490Y-33527D01*
X24545Y-33550D01*
X24604Y-33550D01*
X25154Y-33550D01*
X25209Y-33527D01*
X25252Y-33484D01*
X25275Y-33429D01*
X25275Y-33415D01*
X25625Y-33415D01*
X25697Y-33400D01*
X25759Y-33359D01*
X26021Y-33096D01*
X27103Y-32015D01*
X27575Y-32015D01*
X27575Y-32029D01*
X27597Y-32084D01*
X27640Y-32127D01*
X27695Y-32150D01*
X27754Y-32150D01*
X28304Y-32150D01*
X28359Y-32127D01*
X28402Y-32084D01*
X28425Y-32029D01*
X28425Y-32015D01*
X28829Y-32015D01*
X28885Y-32070D01*
X28992Y-32114D01*
X29107Y-32115D01*
X29214Y-32070D01*
X29270Y-32015D01*
X29625Y-32015D01*
X29697Y-32000D01*
X29759Y-31959D01*
X29770Y-31948D01*
X29770Y-32358D01*
X29749Y-32350D01*
X29689Y-32350D01*
X29652Y-32387D01*
X29652Y-32550D01*
X29659Y-32550D01*
X29659Y-32650D01*
X29652Y-32650D01*
X29552Y-32650D01*
X29552Y-32550D01*
X29552Y-32387D01*
X29514Y-32350D01*
X29454Y-32350D01*
X29399Y-32372D01*
X29356Y-32415D01*
X29334Y-32470D01*
X29334Y-32512D01*
X29371Y-32550D01*
X29552Y-32550D01*
X29552Y-32650D01*
X29410Y-32650D01*
X29371Y-32650D01*
X29334Y-32687D01*
X29334Y-32729D01*
X29356Y-32784D01*
X29399Y-32827D01*
X29410Y-32831D01*
X29410Y-33400D01*
X29791Y-33400D01*
X29972Y-33400D01*
X30072Y-33400D01*
X30079Y-33400D01*
X30079Y-33500D01*
X30072Y-33500D01*
X30072Y-33662D01*
X30109Y-33700D01*
X30169Y-33700D01*
X30224Y-33677D01*
X30240Y-33662D01*
X30255Y-33677D01*
X30289Y-33691D01*
X30320Y-33737D01*
X30320Y-33919D01*
X30320Y-33919D01*
G37*
G54D14*
X30320Y-33919D02*
X30294Y-33957D01*
X30293Y-33960D01*
X30265Y-33972D01*
X30250Y-33987D01*
X30234Y-33972D01*
X30179Y-33950D01*
X30119Y-33950D01*
X30082Y-33987D01*
X30082Y-34150D01*
X30089Y-34150D01*
X30089Y-34250D01*
X30082Y-34250D01*
X30082Y-34412D01*
X30119Y-34450D01*
X30179Y-34450D01*
X30220Y-34433D01*
X30220Y-34463D01*
X30220Y-34554D01*
X30220Y-34699D01*
X30242Y-34754D01*
X30257Y-34770D01*
X30242Y-34785D01*
X30220Y-34840D01*
X30220Y-34899D01*
X30220Y-34956D01*
X30146Y-35066D01*
X30120Y-35200D01*
X30120Y-36190D01*
X30146Y-36323D01*
X30177Y-36370D01*
X29982Y-36370D01*
X29982Y-34412D01*
X29982Y-34250D01*
X29982Y-34150D01*
X29982Y-33987D01*
X29972Y-33977D01*
X29972Y-33662D01*
X29972Y-33500D01*
X29791Y-33500D01*
X29754Y-33537D01*
X29754Y-33579D01*
X29776Y-33634D01*
X29819Y-33677D01*
X29874Y-33700D01*
X29934Y-33700D01*
X29972Y-33662D01*
X29972Y-33977D01*
X29944Y-33950D01*
X29884Y-33950D01*
X29829Y-33972D01*
X29786Y-34015D01*
X29764Y-34070D01*
X29764Y-34112D01*
X29801Y-34150D01*
X29982Y-34150D01*
X29982Y-34250D01*
X29801Y-34250D01*
X29764Y-34287D01*
X29764Y-34329D01*
X29786Y-34384D01*
X29829Y-34427D01*
X29884Y-34450D01*
X29944Y-34450D01*
X29982Y-34412D01*
X29982Y-36370D01*
X28425Y-36370D01*
X28425Y-32779D01*
X28425Y-32662D01*
X28425Y-32487D01*
X28425Y-32370D01*
X28402Y-32315D01*
X28359Y-32272D01*
X28304Y-32250D01*
X28245Y-32250D01*
X28087Y-32250D01*
X28050Y-32287D01*
X28050Y-32525D01*
X28387Y-32525D01*
X28425Y-32487D01*
X28425Y-32662D01*
X28387Y-32625D01*
X28050Y-32625D01*
X28050Y-32862D01*
X28087Y-32900D01*
X28245Y-32900D01*
X28304Y-32900D01*
X28359Y-32877D01*
X28402Y-32834D01*
X28425Y-32779D01*
X28425Y-36370D01*
X27950Y-36370D01*
X27950Y-32862D01*
X27950Y-32625D01*
X27950Y-32525D01*
X27950Y-32287D01*
X27912Y-32250D01*
X27754Y-32250D01*
X27695Y-32250D01*
X27640Y-32272D01*
X27597Y-32315D01*
X27575Y-32370D01*
X27575Y-32487D01*
X27612Y-32525D01*
X27950Y-32525D01*
X27950Y-32625D01*
X27612Y-32625D01*
X27575Y-32662D01*
X27575Y-32779D01*
X27597Y-32834D01*
X27640Y-32877D01*
X27695Y-32900D01*
X27754Y-32900D01*
X27912Y-32900D01*
X27950Y-32862D01*
X27950Y-36370D01*
X25275Y-36370D01*
X25275Y-34179D01*
X25275Y-34062D01*
X25275Y-33887D01*
X25275Y-33770D01*
X25252Y-33715D01*
X25209Y-33672D01*
X25154Y-33650D01*
X25095Y-33650D01*
X24937Y-33650D01*
X24900Y-33687D01*
X24900Y-33925D01*
X25237Y-33925D01*
X25275Y-33887D01*
X25275Y-34062D01*
X25237Y-34025D01*
X24900Y-34025D01*
X24900Y-34262D01*
X24937Y-34300D01*
X25095Y-34300D01*
X25154Y-34300D01*
X25209Y-34277D01*
X25252Y-34234D01*
X25275Y-34179D01*
X25275Y-36370D01*
X24800Y-36370D01*
X24800Y-34262D01*
X24800Y-34025D01*
X24800Y-33925D01*
X24800Y-33687D01*
X24762Y-33650D01*
X24604Y-33650D01*
X24545Y-33650D01*
X24490Y-33672D01*
X24447Y-33715D01*
X24425Y-33770D01*
X24425Y-33887D01*
X24462Y-33925D01*
X24800Y-33925D01*
X24800Y-34025D01*
X24462Y-34025D01*
X24425Y-34062D01*
X24425Y-34179D01*
X24447Y-34234D01*
X24490Y-34277D01*
X24545Y-34300D01*
X24604Y-34300D01*
X24762Y-34300D01*
X24800Y-34262D01*
X24800Y-36370D01*
X24050Y-36370D01*
X24050Y-34454D01*
X24050Y-34395D01*
X24050Y-34237D01*
X24050Y-34062D01*
X24050Y-33904D01*
X24050Y-33845D01*
X24027Y-33790D01*
X23984Y-33747D01*
X23929Y-33725D01*
X23812Y-33725D01*
X23775Y-33762D01*
X23775Y-34100D01*
X24012Y-34100D01*
X24050Y-34062D01*
X24050Y-34237D01*
X24012Y-34200D01*
X23775Y-34200D01*
X23775Y-34537D01*
X23812Y-34575D01*
X23929Y-34575D01*
X23984Y-34552D01*
X24027Y-34509D01*
X24050Y-34454D01*
X24050Y-36370D01*
X23675Y-36370D01*
X23675Y-34537D01*
X23675Y-34200D01*
X23675Y-34100D01*
X23675Y-33762D01*
X23637Y-33725D01*
X23520Y-33725D01*
X23465Y-33747D01*
X23422Y-33790D01*
X23400Y-33845D01*
X23400Y-33904D01*
X23400Y-34062D01*
X23437Y-34100D01*
X23675Y-34100D01*
X23675Y-34200D01*
X23437Y-34200D01*
X23400Y-34237D01*
X23400Y-34395D01*
X23400Y-34454D01*
X23422Y-34509D01*
X23465Y-34552D01*
X23520Y-34575D01*
X23637Y-34575D01*
X23675Y-34537D01*
X23675Y-36370D01*
X21450Y-36370D01*
X21450Y-35056D01*
X21438Y-34879D01*
X21394Y-34775D01*
X21327Y-34742D01*
X21070Y-35000D01*
X21327Y-35257D01*
X21394Y-35224D01*
X21450Y-35056D01*
X21450Y-36370D01*
X21426Y-36370D01*
X21445Y-36325D01*
X21445Y-36265D01*
X21445Y-35674D01*
X21422Y-35619D01*
X21380Y-35577D01*
X21325Y-35554D01*
X21265Y-35554D01*
X21184Y-35554D01*
X21175Y-35511D01*
X21134Y-35450D01*
X21116Y-35438D01*
X21120Y-35438D01*
X21224Y-35394D01*
X21257Y-35327D01*
X21000Y-35070D01*
X20994Y-35076D01*
X20923Y-35005D01*
X20929Y-35000D01*
X20923Y-34994D01*
X20994Y-34923D01*
X21000Y-34929D01*
X21257Y-34672D01*
X21239Y-34635D01*
X22384Y-34635D01*
X22457Y-34620D01*
X22519Y-34579D01*
X22650Y-34448D01*
X22650Y-34454D01*
X22672Y-34509D01*
X22715Y-34552D01*
X22770Y-34575D01*
X22829Y-34575D01*
X23179Y-34575D01*
X23234Y-34552D01*
X23277Y-34509D01*
X23300Y-34454D01*
X23300Y-34395D01*
X23300Y-33845D01*
X23277Y-33790D01*
X23234Y-33747D01*
X23179Y-33725D01*
X23165Y-33725D01*
X23165Y-33675D01*
X23179Y-33675D01*
X23234Y-33652D01*
X23277Y-33609D01*
X23300Y-33554D01*
X23300Y-33495D01*
X23300Y-33434D01*
X23342Y-33425D01*
X23400Y-33387D01*
X23400Y-33554D01*
X23422Y-33609D01*
X23465Y-33652D01*
X23520Y-33675D01*
X23579Y-33675D01*
X23929Y-33675D01*
X23984Y-33652D01*
X24027Y-33609D01*
X24050Y-33554D01*
X24050Y-33495D01*
X24050Y-33440D01*
X24429Y-33440D01*
X24447Y-33484D01*
X24490Y-33527D01*
X24545Y-33550D01*
X24604Y-33550D01*
X25154Y-33550D01*
X25209Y-33527D01*
X25252Y-33484D01*
X25275Y-33429D01*
X25275Y-33415D01*
X25625Y-33415D01*
X25697Y-33400D01*
X25759Y-33359D01*
X26021Y-33096D01*
X27103Y-32015D01*
X27575Y-32015D01*
X27575Y-32029D01*
X27597Y-32084D01*
X27640Y-32127D01*
X27695Y-32150D01*
X27754Y-32150D01*
X28304Y-32150D01*
X28359Y-32127D01*
X28402Y-32084D01*
X28425Y-32029D01*
X28425Y-32015D01*
X28829Y-32015D01*
X28885Y-32070D01*
X28992Y-32114D01*
X29107Y-32115D01*
X29214Y-32070D01*
X29270Y-32015D01*
X29625Y-32015D01*
X29697Y-32000D01*
X29759Y-31959D01*
X29770Y-31948D01*
X29770Y-32358D01*
X29749Y-32350D01*
X29689Y-32350D01*
X29652Y-32387D01*
X29652Y-32550D01*
X29659Y-32550D01*
X29659Y-32650D01*
X29652Y-32650D01*
X29552Y-32650D01*
X29552Y-32550D01*
X29552Y-32387D01*
X29514Y-32350D01*
X29454Y-32350D01*
X29399Y-32372D01*
X29356Y-32415D01*
X29334Y-32470D01*
X29334Y-32512D01*
X29371Y-32550D01*
X29552Y-32550D01*
X29552Y-32650D01*
X29410Y-32650D01*
X29371Y-32650D01*
X29334Y-32687D01*
X29334Y-32729D01*
X29356Y-32784D01*
X29399Y-32827D01*
X29410Y-32831D01*
X29410Y-33400D01*
X29791Y-33400D01*
X29972Y-33400D01*
X30072Y-33400D01*
X30079Y-33400D01*
X30079Y-33500D01*
X30072Y-33500D01*
X30072Y-33662D01*
X30109Y-33700D01*
X30169Y-33700D01*
X30224Y-33677D01*
X30240Y-33662D01*
X30255Y-33677D01*
X30289Y-33691D01*
X30320Y-33737D01*
X30320Y-33919D01*
G54D10*
G36*
X30327Y-30420D02*
X30320Y-30420D01*
X30320Y-30427D01*
X30220Y-30427D01*
X30220Y-30420D01*
X30212Y-30420D01*
X30212Y-30320D01*
X30220Y-30320D01*
X30220Y-30312D01*
X30320Y-30312D01*
X30320Y-30320D01*
X30327Y-30320D01*
X30327Y-30420D01*
X30327Y-30420D01*
G37*
G54D14*
X30327Y-30420D02*
X30320Y-30420D01*
X30320Y-30427D01*
X30220Y-30427D01*
X30220Y-30420D01*
X30212Y-30420D01*
X30212Y-30320D01*
X30220Y-30320D01*
X30220Y-30312D01*
X30320Y-30312D01*
X30320Y-30320D01*
X30327Y-30320D01*
X30327Y-30420D01*
G54D10*
G36*
X31324Y-27618D02*
X31306Y-27575D01*
X31224Y-27493D01*
X31118Y-27449D01*
X31003Y-27449D01*
X30896Y-27493D01*
X30891Y-27498D01*
X30850Y-27400D01*
X30769Y-27318D01*
X30662Y-27274D01*
X30547Y-27274D01*
X30440Y-27318D01*
X30359Y-27399D01*
X30314Y-27506D01*
X30314Y-27585D01*
X30065Y-27834D01*
X30065Y-27193D01*
X30065Y-27193D01*
X30065Y-27193D01*
X30051Y-27120D01*
X30010Y-27058D01*
X30010Y-27058D01*
X30010Y-27058D01*
X29976Y-27025D01*
X29977Y-26946D01*
X29933Y-26840D01*
X29851Y-26758D01*
X29744Y-26714D01*
X29667Y-26714D01*
X29671Y-26704D01*
X29671Y-26589D01*
X29665Y-26574D01*
X30532Y-26574D01*
X31300Y-27341D01*
X31300Y-27554D01*
X31322Y-27609D01*
X31324Y-27611D01*
X31324Y-27618D01*
X31324Y-27618D01*
G37*
G54D14*
X31324Y-27618D02*
X31306Y-27575D01*
X31224Y-27493D01*
X31118Y-27449D01*
X31003Y-27449D01*
X30896Y-27493D01*
X30891Y-27498D01*
X30850Y-27400D01*
X30769Y-27318D01*
X30662Y-27274D01*
X30547Y-27274D01*
X30440Y-27318D01*
X30359Y-27399D01*
X30314Y-27506D01*
X30314Y-27585D01*
X30065Y-27834D01*
X30065Y-27193D01*
X30065Y-27193D01*
X30065Y-27193D01*
X30051Y-27120D01*
X30010Y-27058D01*
X30010Y-27058D01*
X30010Y-27058D01*
X29976Y-27025D01*
X29977Y-26946D01*
X29933Y-26840D01*
X29851Y-26758D01*
X29744Y-26714D01*
X29667Y-26714D01*
X29671Y-26704D01*
X29671Y-26589D01*
X29665Y-26574D01*
X30532Y-26574D01*
X31300Y-27341D01*
X31300Y-27554D01*
X31322Y-27609D01*
X31324Y-27611D01*
X31324Y-27618D01*
G54D10*
G36*
X39145Y-36370D02*
X38259Y-36370D01*
X38377Y-36252D01*
X38445Y-36089D01*
X38445Y-35911D01*
X38445Y-34911D01*
X38445Y-33911D01*
X38445Y-32911D01*
X38445Y-31911D01*
X38445Y-30911D01*
X38377Y-30747D01*
X38252Y-30622D01*
X38089Y-30554D01*
X37911Y-30554D01*
X37747Y-30622D01*
X37622Y-30747D01*
X37554Y-30910D01*
X37554Y-31088D01*
X37622Y-31252D01*
X37747Y-31377D01*
X37910Y-31445D01*
X38088Y-31445D01*
X38252Y-31377D01*
X38377Y-31252D01*
X38445Y-31089D01*
X38445Y-30911D01*
X38445Y-31911D01*
X38377Y-31747D01*
X38252Y-31622D01*
X38089Y-31554D01*
X37911Y-31554D01*
X37747Y-31622D01*
X37622Y-31747D01*
X37554Y-31910D01*
X37554Y-32088D01*
X37622Y-32252D01*
X37747Y-32377D01*
X37910Y-32445D01*
X38088Y-32445D01*
X38252Y-32377D01*
X38377Y-32252D01*
X38445Y-32089D01*
X38445Y-31911D01*
X38445Y-32911D01*
X38377Y-32747D01*
X38252Y-32622D01*
X38089Y-32554D01*
X37911Y-32554D01*
X37747Y-32622D01*
X37622Y-32747D01*
X37554Y-32910D01*
X37554Y-33088D01*
X37622Y-33252D01*
X37747Y-33377D01*
X37910Y-33445D01*
X38088Y-33445D01*
X38252Y-33377D01*
X38377Y-33252D01*
X38445Y-33089D01*
X38445Y-32911D01*
X38445Y-33911D01*
X38377Y-33747D01*
X38252Y-33622D01*
X38089Y-33554D01*
X37911Y-33554D01*
X37747Y-33622D01*
X37622Y-33747D01*
X37554Y-33910D01*
X37554Y-34088D01*
X37622Y-34252D01*
X37747Y-34377D01*
X37910Y-34445D01*
X38088Y-34445D01*
X38252Y-34377D01*
X38377Y-34252D01*
X38445Y-34089D01*
X38445Y-33911D01*
X38445Y-34911D01*
X38377Y-34747D01*
X38252Y-34622D01*
X38089Y-34554D01*
X37911Y-34554D01*
X37747Y-34622D01*
X37622Y-34747D01*
X37554Y-34910D01*
X37554Y-35088D01*
X37622Y-35252D01*
X37747Y-35377D01*
X37910Y-35445D01*
X38088Y-35445D01*
X38252Y-35377D01*
X38377Y-35252D01*
X38445Y-35089D01*
X38445Y-34911D01*
X38445Y-35911D01*
X38377Y-35747D01*
X38252Y-35622D01*
X38089Y-35554D01*
X37911Y-35554D01*
X37747Y-35622D01*
X37622Y-35747D01*
X37554Y-35910D01*
X37554Y-36088D01*
X37622Y-36252D01*
X37739Y-36370D01*
X36940Y-36370D01*
X36940Y-24595D01*
X36940Y-24478D01*
X36903Y-24440D01*
X36565Y-24440D01*
X36565Y-24678D01*
X36603Y-24715D01*
X36761Y-24715D01*
X36820Y-24715D01*
X36875Y-24693D01*
X36918Y-24650D01*
X36940Y-24595D01*
X36940Y-36370D01*
X36465Y-36370D01*
X36465Y-24678D01*
X36465Y-24440D01*
X36128Y-24440D01*
X36090Y-24478D01*
X36090Y-24595D01*
X36113Y-24650D01*
X36156Y-24693D01*
X36211Y-24715D01*
X36270Y-24715D01*
X36428Y-24715D01*
X36465Y-24678D01*
X36465Y-36370D01*
X34590Y-36370D01*
X34590Y-35939D01*
X34590Y-35880D01*
X34590Y-35647D01*
X34590Y-35472D01*
X34590Y-35239D01*
X34590Y-35180D01*
X34590Y-33939D01*
X34590Y-33880D01*
X34590Y-33647D01*
X34590Y-33472D01*
X34590Y-33239D01*
X34590Y-33180D01*
X34567Y-33125D01*
X34524Y-33082D01*
X34469Y-33060D01*
X34177Y-33060D01*
X34140Y-33097D01*
X34140Y-33510D01*
X34552Y-33510D01*
X34590Y-33472D01*
X34590Y-33647D01*
X34552Y-33610D01*
X34140Y-33610D01*
X34140Y-34022D01*
X34177Y-34060D01*
X34469Y-34060D01*
X34524Y-34037D01*
X34567Y-33994D01*
X34590Y-33939D01*
X34590Y-35180D01*
X34567Y-35125D01*
X34524Y-35082D01*
X34469Y-35060D01*
X34177Y-35060D01*
X34140Y-35097D01*
X34140Y-35510D01*
X34552Y-35510D01*
X34590Y-35472D01*
X34590Y-35647D01*
X34552Y-35610D01*
X34140Y-35610D01*
X34140Y-36022D01*
X34177Y-36060D01*
X34469Y-36060D01*
X34524Y-36037D01*
X34567Y-35994D01*
X34590Y-35939D01*
X34590Y-36370D01*
X34040Y-36370D01*
X34040Y-36022D01*
X34040Y-35610D01*
X33627Y-35610D01*
X33590Y-35647D01*
X33590Y-35880D01*
X33590Y-35939D01*
X33612Y-35994D01*
X33655Y-36037D01*
X33710Y-36060D01*
X34002Y-36060D01*
X34040Y-36022D01*
X34040Y-36370D01*
X32590Y-36370D01*
X32590Y-35939D01*
X32590Y-35880D01*
X32590Y-35647D01*
X32552Y-35610D01*
X32140Y-35610D01*
X32140Y-36022D01*
X32177Y-36060D01*
X32469Y-36060D01*
X32524Y-36037D01*
X32567Y-35994D01*
X32590Y-35939D01*
X32590Y-36370D01*
X32200Y-36370D01*
X32200Y-36340D01*
X32185Y-36267D01*
X32144Y-36205D01*
X32082Y-36164D01*
X32040Y-36155D01*
X32040Y-36022D01*
X32040Y-35610D01*
X31627Y-35610D01*
X31590Y-35647D01*
X31590Y-35880D01*
X31590Y-35939D01*
X31612Y-35994D01*
X31655Y-36037D01*
X31710Y-36060D01*
X32002Y-36060D01*
X32040Y-36022D01*
X32040Y-36155D01*
X32010Y-36150D01*
X31825Y-36150D01*
X31735Y-36150D01*
X31557Y-36150D01*
X31484Y-36164D01*
X31422Y-36205D01*
X31381Y-36267D01*
X31367Y-36340D01*
X31367Y-36370D01*
X31353Y-36370D01*
X31353Y-36340D01*
X31338Y-36267D01*
X31297Y-36205D01*
X31235Y-36164D01*
X31163Y-36150D01*
X30965Y-36150D01*
X30820Y-36150D01*
X30820Y-35270D01*
X31590Y-35270D01*
X31590Y-35472D01*
X31627Y-35510D01*
X32040Y-35510D01*
X32040Y-35502D01*
X32140Y-35502D01*
X32140Y-35510D01*
X32552Y-35510D01*
X32590Y-35472D01*
X32590Y-35270D01*
X33590Y-35270D01*
X33590Y-35472D01*
X33627Y-35510D01*
X34040Y-35510D01*
X34040Y-35097D01*
X34002Y-35060D01*
X33800Y-35060D01*
X33800Y-34060D01*
X34002Y-34060D01*
X34040Y-34022D01*
X34040Y-33610D01*
X34040Y-33510D01*
X34040Y-33097D01*
X34002Y-33060D01*
X33710Y-33060D01*
X33655Y-33082D01*
X33612Y-33125D01*
X33590Y-33180D01*
X33590Y-33239D01*
X33590Y-33472D01*
X33627Y-33510D01*
X34040Y-33510D01*
X34040Y-33610D01*
X33627Y-33610D01*
X33590Y-33647D01*
X33590Y-33850D01*
X33225Y-33850D01*
X33225Y-32679D01*
X33225Y-32562D01*
X33225Y-32387D01*
X33225Y-32270D01*
X33202Y-32215D01*
X33159Y-32172D01*
X33104Y-32150D01*
X33045Y-32150D01*
X32887Y-32150D01*
X32850Y-32187D01*
X32850Y-32425D01*
X33187Y-32425D01*
X33225Y-32387D01*
X33225Y-32562D01*
X33187Y-32525D01*
X32850Y-32525D01*
X32850Y-32762D01*
X32887Y-32800D01*
X33045Y-32800D01*
X33104Y-32800D01*
X33159Y-32777D01*
X33202Y-32734D01*
X33225Y-32679D01*
X33225Y-33850D01*
X32750Y-33850D01*
X32750Y-32762D01*
X32750Y-32525D01*
X32750Y-32425D01*
X32750Y-32187D01*
X32712Y-32150D01*
X32554Y-32150D01*
X32495Y-32150D01*
X32440Y-32172D01*
X32397Y-32215D01*
X32375Y-32270D01*
X32375Y-32387D01*
X32412Y-32425D01*
X32750Y-32425D01*
X32750Y-32525D01*
X32412Y-32525D01*
X32375Y-32562D01*
X32375Y-32679D01*
X32397Y-32734D01*
X32440Y-32777D01*
X32495Y-32800D01*
X32554Y-32800D01*
X32712Y-32800D01*
X32750Y-32762D01*
X32750Y-33850D01*
X32590Y-33850D01*
X32590Y-33647D01*
X32590Y-33472D01*
X32590Y-33239D01*
X32590Y-33180D01*
X32567Y-33125D01*
X32524Y-33082D01*
X32469Y-33060D01*
X32177Y-33060D01*
X32140Y-33097D01*
X32140Y-33510D01*
X32552Y-33510D01*
X32590Y-33472D01*
X32590Y-33647D01*
X32552Y-33610D01*
X32140Y-33610D01*
X32140Y-33617D01*
X32040Y-33617D01*
X32040Y-33610D01*
X32040Y-33510D01*
X32040Y-33097D01*
X32002Y-33060D01*
X31710Y-33060D01*
X31655Y-33082D01*
X31612Y-33125D01*
X31590Y-33180D01*
X31590Y-33239D01*
X31590Y-33472D01*
X31627Y-33510D01*
X32040Y-33510D01*
X32040Y-33610D01*
X31627Y-33610D01*
X31590Y-33647D01*
X31590Y-33850D01*
X31300Y-33850D01*
X31300Y-33190D01*
X31500Y-33190D01*
X31500Y-32960D01*
X31590Y-32960D01*
X31662Y-32945D01*
X31724Y-32904D01*
X31765Y-32842D01*
X31780Y-32770D01*
X31780Y-32630D01*
X31765Y-32557D01*
X31724Y-32495D01*
X31662Y-32454D01*
X31590Y-32440D01*
X31500Y-32440D01*
X31500Y-31997D01*
X31542Y-32014D01*
X31657Y-32015D01*
X31764Y-31970D01*
X31820Y-31915D01*
X32375Y-31915D01*
X32375Y-31929D01*
X32397Y-31984D01*
X32440Y-32027D01*
X32495Y-32050D01*
X32554Y-32050D01*
X33104Y-32050D01*
X33159Y-32027D01*
X33202Y-31984D01*
X33225Y-31929D01*
X33225Y-31915D01*
X35375Y-31915D01*
X35447Y-31900D01*
X35509Y-31859D01*
X36234Y-31134D01*
X36275Y-31072D01*
X36290Y-31000D01*
X36290Y-28650D01*
X36275Y-28577D01*
X36234Y-28515D01*
X36059Y-28340D01*
X35997Y-28299D01*
X35925Y-28285D01*
X35857Y-28285D01*
X35857Y-24595D01*
X35857Y-24478D01*
X35820Y-24440D01*
X35482Y-24440D01*
X35482Y-24678D01*
X35520Y-24715D01*
X35678Y-24715D01*
X35737Y-24715D01*
X35792Y-24693D01*
X35835Y-24650D01*
X35857Y-24595D01*
X35857Y-28285D01*
X35775Y-28285D01*
X35775Y-28270D01*
X35752Y-28215D01*
X35709Y-28172D01*
X35654Y-28150D01*
X35595Y-28150D01*
X35382Y-28150D01*
X35382Y-24678D01*
X35382Y-24440D01*
X35045Y-24440D01*
X35007Y-24478D01*
X35007Y-24595D01*
X35030Y-24650D01*
X35073Y-24693D01*
X35128Y-24715D01*
X35187Y-24715D01*
X35345Y-24715D01*
X35382Y-24678D01*
X35382Y-28150D01*
X35045Y-28150D01*
X34990Y-28172D01*
X34947Y-28215D01*
X34925Y-28270D01*
X34925Y-28329D01*
X34925Y-28679D01*
X34947Y-28734D01*
X34990Y-28777D01*
X35045Y-28800D01*
X35104Y-28800D01*
X35654Y-28800D01*
X35709Y-28777D01*
X35752Y-28734D01*
X35775Y-28679D01*
X35775Y-28665D01*
X35846Y-28665D01*
X35910Y-28728D01*
X35910Y-30921D01*
X35296Y-31535D01*
X34752Y-31535D01*
X34777Y-31509D01*
X34800Y-31454D01*
X34800Y-31395D01*
X34800Y-31237D01*
X34800Y-31062D01*
X34800Y-30904D01*
X34800Y-30845D01*
X34777Y-30790D01*
X34734Y-30747D01*
X34679Y-30725D01*
X34562Y-30725D01*
X34525Y-30762D01*
X34525Y-31100D01*
X34762Y-31100D01*
X34800Y-31062D01*
X34800Y-31237D01*
X34762Y-31200D01*
X34525Y-31200D01*
X34525Y-31207D01*
X34425Y-31207D01*
X34425Y-31200D01*
X34425Y-31100D01*
X34425Y-30762D01*
X34387Y-30725D01*
X34270Y-30725D01*
X34215Y-30747D01*
X34172Y-30790D01*
X34150Y-30845D01*
X34150Y-30904D01*
X34150Y-31062D01*
X34187Y-31100D01*
X34425Y-31100D01*
X34425Y-31200D01*
X34187Y-31200D01*
X34150Y-31237D01*
X34150Y-31395D01*
X34150Y-31454D01*
X34172Y-31509D01*
X34197Y-31535D01*
X34002Y-31535D01*
X34027Y-31509D01*
X34050Y-31454D01*
X34050Y-31395D01*
X34050Y-30845D01*
X34027Y-30790D01*
X33984Y-30747D01*
X33929Y-30725D01*
X33870Y-30725D01*
X33520Y-30725D01*
X33465Y-30747D01*
X33422Y-30790D01*
X33400Y-30845D01*
X33400Y-30904D01*
X33400Y-30960D01*
X33282Y-30960D01*
X33227Y-30904D01*
X33120Y-30860D01*
X33005Y-30859D01*
X32990Y-30866D01*
X32990Y-30750D01*
X32975Y-30677D01*
X32934Y-30615D01*
X32934Y-30615D01*
X32878Y-30560D01*
X34109Y-30560D01*
X34164Y-30615D01*
X34271Y-30659D01*
X34386Y-30660D01*
X34493Y-30615D01*
X34575Y-30534D01*
X34619Y-30427D01*
X34619Y-30312D01*
X34575Y-30205D01*
X34493Y-30124D01*
X34387Y-30080D01*
X34271Y-30079D01*
X34165Y-30124D01*
X34109Y-30180D01*
X33685Y-30180D01*
X34047Y-29817D01*
X34126Y-29817D01*
X34233Y-29773D01*
X34289Y-29717D01*
X35342Y-29717D01*
X35415Y-29702D01*
X35477Y-29661D01*
X35484Y-29654D01*
X35484Y-29654D01*
X35484Y-29654D01*
X35525Y-29592D01*
X35534Y-29550D01*
X35654Y-29550D01*
X35709Y-29527D01*
X35752Y-29484D01*
X35775Y-29429D01*
X35775Y-29370D01*
X35775Y-29020D01*
X35752Y-28965D01*
X35709Y-28922D01*
X35654Y-28900D01*
X35595Y-28900D01*
X35045Y-28900D01*
X34990Y-28922D01*
X34947Y-28965D01*
X34925Y-29020D01*
X34925Y-29079D01*
X34925Y-29337D01*
X34775Y-29337D01*
X34775Y-24595D01*
X34775Y-24478D01*
X34737Y-24440D01*
X34400Y-24440D01*
X34400Y-24678D01*
X34437Y-24715D01*
X34595Y-24715D01*
X34654Y-24715D01*
X34709Y-24693D01*
X34752Y-24650D01*
X34775Y-24595D01*
X34775Y-29337D01*
X34300Y-29337D01*
X34300Y-24678D01*
X34300Y-24440D01*
X33962Y-24440D01*
X33925Y-24478D01*
X33925Y-24595D01*
X33947Y-24650D01*
X33990Y-24693D01*
X34045Y-24715D01*
X34104Y-24715D01*
X34262Y-24715D01*
X34300Y-24678D01*
X34300Y-29337D01*
X34289Y-29337D01*
X34233Y-29281D01*
X34127Y-29237D01*
X34011Y-29237D01*
X33975Y-29252D01*
X33975Y-29020D01*
X33975Y-28679D01*
X33975Y-28562D01*
X33975Y-28387D01*
X33975Y-28270D01*
X33952Y-28215D01*
X33909Y-28172D01*
X33854Y-28150D01*
X33795Y-28150D01*
X33637Y-28150D01*
X33600Y-28187D01*
X33600Y-28425D01*
X33937Y-28425D01*
X33975Y-28387D01*
X33975Y-28562D01*
X33937Y-28525D01*
X33600Y-28525D01*
X33600Y-28762D01*
X33637Y-28800D01*
X33795Y-28800D01*
X33854Y-28800D01*
X33909Y-28777D01*
X33952Y-28734D01*
X33975Y-28679D01*
X33975Y-29020D01*
X33952Y-28965D01*
X33909Y-28922D01*
X33854Y-28900D01*
X33795Y-28900D01*
X33500Y-28900D01*
X33500Y-28762D01*
X33500Y-28525D01*
X33500Y-28425D01*
X33500Y-28187D01*
X33462Y-28150D01*
X33425Y-28150D01*
X33425Y-24579D01*
X33425Y-24462D01*
X33387Y-24425D01*
X33050Y-24425D01*
X33050Y-24662D01*
X33087Y-24700D01*
X33245Y-24700D01*
X33304Y-24700D01*
X33359Y-24677D01*
X33402Y-24634D01*
X33425Y-24579D01*
X33425Y-28150D01*
X33304Y-28150D01*
X33245Y-28150D01*
X33190Y-28172D01*
X33147Y-28215D01*
X33125Y-28270D01*
X33125Y-28387D01*
X33162Y-28425D01*
X33500Y-28425D01*
X33500Y-28525D01*
X33162Y-28525D01*
X33125Y-28562D01*
X33125Y-28679D01*
X33147Y-28734D01*
X33190Y-28777D01*
X33245Y-28800D01*
X33304Y-28800D01*
X33462Y-28800D01*
X33500Y-28762D01*
X33500Y-28900D01*
X33245Y-28900D01*
X33190Y-28922D01*
X33147Y-28965D01*
X33125Y-29020D01*
X33125Y-29079D01*
X33125Y-29429D01*
X33147Y-29484D01*
X33190Y-29527D01*
X33245Y-29550D01*
X33251Y-29550D01*
X33015Y-29785D01*
X32950Y-29785D01*
X32950Y-24662D01*
X32950Y-24425D01*
X32612Y-24425D01*
X32575Y-24462D01*
X32575Y-24579D01*
X32597Y-24634D01*
X32640Y-24677D01*
X32695Y-24700D01*
X32754Y-24700D01*
X32912Y-24700D01*
X32950Y-24662D01*
X32950Y-29785D01*
X32700Y-29785D01*
X32700Y-27554D01*
X32700Y-27495D01*
X32700Y-27337D01*
X32700Y-27162D01*
X32700Y-27004D01*
X32700Y-26945D01*
X32677Y-26890D01*
X32634Y-26847D01*
X32579Y-26825D01*
X32462Y-26825D01*
X32425Y-26862D01*
X32425Y-27200D01*
X32662Y-27200D01*
X32700Y-27162D01*
X32700Y-27337D01*
X32662Y-27300D01*
X32425Y-27300D01*
X32425Y-27637D01*
X32462Y-27675D01*
X32579Y-27675D01*
X32634Y-27652D01*
X32677Y-27609D01*
X32700Y-27554D01*
X32700Y-29785D01*
X32325Y-29785D01*
X32325Y-27637D01*
X32325Y-27300D01*
X32325Y-27200D01*
X32325Y-26862D01*
X32287Y-26825D01*
X32170Y-26825D01*
X32115Y-26847D01*
X32072Y-26890D01*
X32050Y-26945D01*
X32050Y-27004D01*
X32050Y-27162D01*
X32087Y-27200D01*
X32325Y-27200D01*
X32325Y-27300D01*
X32087Y-27300D01*
X32050Y-27337D01*
X32050Y-27495D01*
X32050Y-27554D01*
X32072Y-27609D01*
X32115Y-27652D01*
X32170Y-27675D01*
X32287Y-27675D01*
X32325Y-27637D01*
X32325Y-29785D01*
X31567Y-29785D01*
X31568Y-29779D01*
X31553Y-29700D01*
X31508Y-29634D01*
X31442Y-29589D01*
X31405Y-29582D01*
X31405Y-29542D01*
X31440Y-29507D01*
X31485Y-29400D01*
X31485Y-29285D01*
X31441Y-29178D01*
X31359Y-29096D01*
X31296Y-29070D01*
X31648Y-28718D01*
X31648Y-28718D01*
X31648Y-28718D01*
X31689Y-28656D01*
X31704Y-28584D01*
X31704Y-27675D01*
X31829Y-27675D01*
X31884Y-27652D01*
X31927Y-27609D01*
X31950Y-27554D01*
X31950Y-27495D01*
X31950Y-26945D01*
X31927Y-26890D01*
X31884Y-26847D01*
X31829Y-26825D01*
X31770Y-26825D01*
X31420Y-26825D01*
X31365Y-26847D01*
X31354Y-26858D01*
X30745Y-26249D01*
X30684Y-26208D01*
X30611Y-26194D01*
X29005Y-26194D01*
X28932Y-26208D01*
X28870Y-26249D01*
X28430Y-26690D01*
X28430Y-25059D01*
X28430Y-24937D01*
X28392Y-24900D01*
X28150Y-24900D01*
X28150Y-25142D01*
X28187Y-25180D01*
X28250Y-25180D01*
X28309Y-25180D01*
X28364Y-25157D01*
X28407Y-25114D01*
X28430Y-25059D01*
X28430Y-26690D01*
X28050Y-27070D01*
X28050Y-25142D01*
X28050Y-24900D01*
X27807Y-24900D01*
X27770Y-24937D01*
X27770Y-25059D01*
X27792Y-25114D01*
X27835Y-25157D01*
X27890Y-25180D01*
X27949Y-25180D01*
X28012Y-25180D01*
X28050Y-25142D01*
X28050Y-27070D01*
X27913Y-27206D01*
X27835Y-27206D01*
X27728Y-27250D01*
X27646Y-27332D01*
X27602Y-27438D01*
X27602Y-27554D01*
X27646Y-27660D01*
X27728Y-27742D01*
X27834Y-27786D01*
X27950Y-27786D01*
X28056Y-27742D01*
X28138Y-27661D01*
X28182Y-27554D01*
X28182Y-27475D01*
X29083Y-26574D01*
X29097Y-26574D01*
X29091Y-26589D01*
X29091Y-26704D01*
X29135Y-26811D01*
X29191Y-26867D01*
X29191Y-28810D01*
X29205Y-28882D01*
X29247Y-28944D01*
X29489Y-29186D01*
X29489Y-29200D01*
X29474Y-29276D01*
X29474Y-29573D01*
X29474Y-29574D01*
X29473Y-29574D01*
X29176Y-29574D01*
X29100Y-29589D01*
X28907Y-29589D01*
X28840Y-29521D01*
X28840Y-29150D01*
X28825Y-29077D01*
X28784Y-29015D01*
X28609Y-28840D01*
X28547Y-28799D01*
X28475Y-28785D01*
X28425Y-28785D01*
X28425Y-28770D01*
X28425Y-28429D01*
X28425Y-28312D01*
X28425Y-28137D01*
X28425Y-28020D01*
X28402Y-27965D01*
X28359Y-27922D01*
X28304Y-27900D01*
X28245Y-27900D01*
X28087Y-27900D01*
X28050Y-27937D01*
X28050Y-28175D01*
X28387Y-28175D01*
X28425Y-28137D01*
X28425Y-28312D01*
X28387Y-28275D01*
X28050Y-28275D01*
X28050Y-28512D01*
X28087Y-28550D01*
X28245Y-28550D01*
X28304Y-28550D01*
X28359Y-28527D01*
X28402Y-28484D01*
X28425Y-28429D01*
X28425Y-28770D01*
X28402Y-28715D01*
X28359Y-28672D01*
X28304Y-28650D01*
X28245Y-28650D01*
X27944Y-28650D01*
X27940Y-28630D01*
X27899Y-28568D01*
X27880Y-28550D01*
X27912Y-28550D01*
X27950Y-28512D01*
X27950Y-28275D01*
X27950Y-28175D01*
X27950Y-27937D01*
X27912Y-27900D01*
X27754Y-27900D01*
X27695Y-27900D01*
X27640Y-27922D01*
X27597Y-27965D01*
X27575Y-28020D01*
X27575Y-28137D01*
X27612Y-28175D01*
X27950Y-28175D01*
X27950Y-28275D01*
X27612Y-28275D01*
X27575Y-28312D01*
X27575Y-28429D01*
X27597Y-28484D01*
X27607Y-28494D01*
X27559Y-28504D01*
X27497Y-28545D01*
X27450Y-28592D01*
X27409Y-28654D01*
X27395Y-28726D01*
X27395Y-29691D01*
X27179Y-29691D01*
X27179Y-27697D01*
X27135Y-27590D01*
X27053Y-27509D01*
X26947Y-27464D01*
X26832Y-27464D01*
X26725Y-27508D01*
X26669Y-27564D01*
X24999Y-27564D01*
X24926Y-27579D01*
X24865Y-27620D01*
X24736Y-27749D01*
X24734Y-27747D01*
X24679Y-27725D01*
X24620Y-27725D01*
X24270Y-27725D01*
X24215Y-27747D01*
X24172Y-27790D01*
X24150Y-27845D01*
X24150Y-27904D01*
X24150Y-28454D01*
X24172Y-28509D01*
X24215Y-28552D01*
X24217Y-28553D01*
X24213Y-28557D01*
X24199Y-28630D01*
X24199Y-28668D01*
X24103Y-28668D01*
X24048Y-28691D01*
X24006Y-28733D01*
X23983Y-28789D01*
X23983Y-28848D01*
X23983Y-29478D01*
X24006Y-29533D01*
X24048Y-29576D01*
X24103Y-29598D01*
X24163Y-29598D01*
X24675Y-29598D01*
X24730Y-29576D01*
X24772Y-29533D01*
X24795Y-29478D01*
X24795Y-29419D01*
X24795Y-28789D01*
X24772Y-28733D01*
X24730Y-28691D01*
X24675Y-28668D01*
X24616Y-28668D01*
X24650Y-28617D01*
X24659Y-28575D01*
X24659Y-28575D01*
X24679Y-28575D01*
X24734Y-28552D01*
X24777Y-28509D01*
X24800Y-28454D01*
X24800Y-28395D01*
X24800Y-28223D01*
X24930Y-28092D01*
X24937Y-28100D01*
X25175Y-28100D01*
X25175Y-28092D01*
X25275Y-28092D01*
X25275Y-28100D01*
X25512Y-28100D01*
X25550Y-28062D01*
X25550Y-27944D01*
X26669Y-27944D01*
X26725Y-28000D01*
X26831Y-28044D01*
X26946Y-28044D01*
X27053Y-28000D01*
X27135Y-27919D01*
X27179Y-27812D01*
X27179Y-27697D01*
X27179Y-29691D01*
X25701Y-29691D01*
X25701Y-29478D01*
X25701Y-29221D01*
X25701Y-29046D01*
X25701Y-28789D01*
X25678Y-28733D01*
X25636Y-28691D01*
X25581Y-28668D01*
X25550Y-28668D01*
X25550Y-28454D01*
X25550Y-28395D01*
X25550Y-28237D01*
X25512Y-28200D01*
X25275Y-28200D01*
X25275Y-28537D01*
X25312Y-28575D01*
X25429Y-28575D01*
X25484Y-28552D01*
X25527Y-28509D01*
X25550Y-28454D01*
X25550Y-28668D01*
X25521Y-28668D01*
X25383Y-28668D01*
X25345Y-28706D01*
X25345Y-29083D01*
X25664Y-29083D01*
X25701Y-29046D01*
X25701Y-29221D01*
X25664Y-29183D01*
X25345Y-29183D01*
X25345Y-29561D01*
X25383Y-29598D01*
X25521Y-29598D01*
X25581Y-29598D01*
X25636Y-29576D01*
X25678Y-29533D01*
X25701Y-29478D01*
X25701Y-29691D01*
X25293Y-29691D01*
X25245Y-29701D01*
X25245Y-29561D01*
X25245Y-29183D01*
X25245Y-29083D01*
X25245Y-28706D01*
X25208Y-28668D01*
X25175Y-28668D01*
X25175Y-28537D01*
X25175Y-28200D01*
X24937Y-28200D01*
X24900Y-28237D01*
X24900Y-28395D01*
X24900Y-28454D01*
X24922Y-28509D01*
X24965Y-28552D01*
X25020Y-28575D01*
X25137Y-28575D01*
X25175Y-28537D01*
X25175Y-28668D01*
X25069Y-28668D01*
X25009Y-28668D01*
X24954Y-28691D01*
X24912Y-28733D01*
X24889Y-28789D01*
X24889Y-29046D01*
X24927Y-29083D01*
X25245Y-29083D01*
X25245Y-29183D01*
X24927Y-29183D01*
X24889Y-29221D01*
X24889Y-29478D01*
X24912Y-29533D01*
X24954Y-29576D01*
X25009Y-29598D01*
X25069Y-29598D01*
X25208Y-29598D01*
X25245Y-29561D01*
X25245Y-29701D01*
X25220Y-29706D01*
X25159Y-29747D01*
X24785Y-30121D01*
X24743Y-30183D01*
X24740Y-30198D01*
X24730Y-30187D01*
X24675Y-30164D01*
X24615Y-30164D01*
X24477Y-30164D01*
X24439Y-30202D01*
X24439Y-30579D01*
X24447Y-30579D01*
X24447Y-30679D01*
X24439Y-30679D01*
X24439Y-31057D01*
X24477Y-31094D01*
X24615Y-31094D01*
X24675Y-31094D01*
X24729Y-31072D01*
X24729Y-31195D01*
X24679Y-31175D01*
X24562Y-31175D01*
X24525Y-31212D01*
X24525Y-31550D01*
X24532Y-31550D01*
X24532Y-31650D01*
X24525Y-31650D01*
X24525Y-31987D01*
X24562Y-32025D01*
X24679Y-32025D01*
X24731Y-32003D01*
X24743Y-32066D01*
X24785Y-32128D01*
X25618Y-32962D01*
X25546Y-33035D01*
X25275Y-33035D01*
X25275Y-33020D01*
X25252Y-32965D01*
X25209Y-32922D01*
X25154Y-32900D01*
X25095Y-32900D01*
X24545Y-32900D01*
X24490Y-32922D01*
X24447Y-32965D01*
X24425Y-33020D01*
X24425Y-31987D01*
X24425Y-31650D01*
X24425Y-31550D01*
X24425Y-31212D01*
X24387Y-31175D01*
X24339Y-31175D01*
X24339Y-31057D01*
X24339Y-30679D01*
X24339Y-30579D01*
X24339Y-30202D01*
X24302Y-30164D01*
X24163Y-30164D01*
X24103Y-30164D01*
X24048Y-30187D01*
X24006Y-30229D01*
X23983Y-30285D01*
X23983Y-30542D01*
X24021Y-30579D01*
X24339Y-30579D01*
X24339Y-30679D01*
X24021Y-30679D01*
X23983Y-30717D01*
X23983Y-30974D01*
X24006Y-31029D01*
X24048Y-31072D01*
X24103Y-31094D01*
X24163Y-31094D01*
X24302Y-31094D01*
X24339Y-31057D01*
X24339Y-31175D01*
X24270Y-31175D01*
X24215Y-31197D01*
X24172Y-31240D01*
X24150Y-31295D01*
X24150Y-31354D01*
X24150Y-31512D01*
X24187Y-31550D01*
X24425Y-31550D01*
X24425Y-31650D01*
X24187Y-31650D01*
X24150Y-31687D01*
X24150Y-31845D01*
X24150Y-31904D01*
X24172Y-31959D01*
X24215Y-32002D01*
X24270Y-32025D01*
X24387Y-32025D01*
X24425Y-31987D01*
X24425Y-33020D01*
X24425Y-33040D01*
X24382Y-33049D01*
X24366Y-33060D01*
X24050Y-33060D01*
X24050Y-32945D01*
X24027Y-32890D01*
X23984Y-32847D01*
X23929Y-32825D01*
X23870Y-32825D01*
X23668Y-32825D01*
X23926Y-32567D01*
X23967Y-32505D01*
X23982Y-32432D01*
X23982Y-27966D01*
X26109Y-25839D01*
X26150Y-25777D01*
X26165Y-25704D01*
X26165Y-25704D01*
X26165Y-25704D01*
X26165Y-23747D01*
X27272Y-23747D01*
X27344Y-23733D01*
X27406Y-23692D01*
X27800Y-23298D01*
X27800Y-23304D01*
X27822Y-23359D01*
X27865Y-23402D01*
X27920Y-23425D01*
X27979Y-23425D01*
X28133Y-23425D01*
X28240Y-23531D01*
X28240Y-23531D01*
X28302Y-23573D01*
X28354Y-23583D01*
X27922Y-23583D01*
X27849Y-23597D01*
X27788Y-23639D01*
X27077Y-24349D01*
X27036Y-24411D01*
X27021Y-24484D01*
X27021Y-26316D01*
X26966Y-26372D01*
X26922Y-26478D01*
X26921Y-26594D01*
X26965Y-26700D01*
X27047Y-26782D01*
X27154Y-26826D01*
X27269Y-26826D01*
X27376Y-26782D01*
X27457Y-26701D01*
X27501Y-26594D01*
X27502Y-26479D01*
X27457Y-26372D01*
X27401Y-26316D01*
X27401Y-24562D01*
X27770Y-24194D01*
X27770Y-24359D01*
X27792Y-24414D01*
X27835Y-24457D01*
X27890Y-24480D01*
X27915Y-24480D01*
X27923Y-24520D01*
X27890Y-24520D01*
X27835Y-24542D01*
X27792Y-24585D01*
X27770Y-24640D01*
X27770Y-24762D01*
X27807Y-24800D01*
X28050Y-24800D01*
X28050Y-24792D01*
X28150Y-24792D01*
X28150Y-24800D01*
X28381Y-24800D01*
X29337Y-25755D01*
X29399Y-25797D01*
X29472Y-25811D01*
X31100Y-25811D01*
X31156Y-25867D01*
X31262Y-25911D01*
X31378Y-25911D01*
X31484Y-25867D01*
X31566Y-25786D01*
X31610Y-25679D01*
X31610Y-25564D01*
X31566Y-25457D01*
X31485Y-25375D01*
X31378Y-25331D01*
X31263Y-25331D01*
X31156Y-25375D01*
X31100Y-25431D01*
X29550Y-25431D01*
X28949Y-24830D01*
X29109Y-24830D01*
X29164Y-24807D01*
X29207Y-24764D01*
X29230Y-24709D01*
X29230Y-24684D01*
X29272Y-24675D01*
X29334Y-24634D01*
X29532Y-24435D01*
X30327Y-24435D01*
X30363Y-24471D01*
X30412Y-24491D01*
X30363Y-24512D01*
X30321Y-24554D01*
X30298Y-24609D01*
X30298Y-24669D01*
X30298Y-24866D01*
X30321Y-24921D01*
X30363Y-24963D01*
X30418Y-24986D01*
X30478Y-24986D01*
X30793Y-24986D01*
X30848Y-24963D01*
X30884Y-24927D01*
X31115Y-24927D01*
X31151Y-24963D01*
X31206Y-24986D01*
X31266Y-24986D01*
X31581Y-24986D01*
X31636Y-24963D01*
X31678Y-24921D01*
X31701Y-24866D01*
X31701Y-24806D01*
X31701Y-24609D01*
X31678Y-24554D01*
X31636Y-24512D01*
X31587Y-24492D01*
X31636Y-24471D01*
X31678Y-24429D01*
X31701Y-24374D01*
X31701Y-24314D01*
X31701Y-24117D01*
X31678Y-24062D01*
X31636Y-24020D01*
X31587Y-24000D01*
X31630Y-23981D01*
X31735Y-24086D01*
X31797Y-24128D01*
X31870Y-24142D01*
X32586Y-24142D01*
X32575Y-24170D01*
X32575Y-24287D01*
X32612Y-24325D01*
X32950Y-24325D01*
X32950Y-24317D01*
X33050Y-24317D01*
X33050Y-24325D01*
X33387Y-24325D01*
X33425Y-24287D01*
X33425Y-24170D01*
X33413Y-24142D01*
X33943Y-24142D01*
X33925Y-24186D01*
X33925Y-24303D01*
X33962Y-24340D01*
X34300Y-24340D01*
X34300Y-24333D01*
X34400Y-24333D01*
X34400Y-24340D01*
X34737Y-24340D01*
X34775Y-24303D01*
X34775Y-24186D01*
X34756Y-24142D01*
X35026Y-24142D01*
X35007Y-24186D01*
X35007Y-24303D01*
X35045Y-24340D01*
X35382Y-24340D01*
X35382Y-24333D01*
X35482Y-24333D01*
X35482Y-24340D01*
X35820Y-24340D01*
X35857Y-24303D01*
X35857Y-24186D01*
X35839Y-24142D01*
X36109Y-24142D01*
X36090Y-24186D01*
X36090Y-24303D01*
X36128Y-24340D01*
X36465Y-24340D01*
X36465Y-24333D01*
X36565Y-24333D01*
X36565Y-24340D01*
X36903Y-24340D01*
X36940Y-24303D01*
X36940Y-24186D01*
X36918Y-24131D01*
X36914Y-24126D01*
X36973Y-24086D01*
X37632Y-23428D01*
X37674Y-23445D01*
X37734Y-23445D01*
X38228Y-23445D01*
X38228Y-23503D01*
X38150Y-23580D01*
X38089Y-23554D01*
X37911Y-23554D01*
X37747Y-23622D01*
X37622Y-23747D01*
X37554Y-23910D01*
X37554Y-24088D01*
X37622Y-24252D01*
X37747Y-24377D01*
X37910Y-24445D01*
X38088Y-24445D01*
X38252Y-24377D01*
X38377Y-24252D01*
X38408Y-24178D01*
X38408Y-24821D01*
X38377Y-24747D01*
X38252Y-24622D01*
X38089Y-24554D01*
X37911Y-24554D01*
X37747Y-24622D01*
X37622Y-24747D01*
X37554Y-24910D01*
X37554Y-25088D01*
X37622Y-25252D01*
X37747Y-25377D01*
X37910Y-25445D01*
X38088Y-25445D01*
X38252Y-25377D01*
X38377Y-25252D01*
X38408Y-25178D01*
X38408Y-25821D01*
X38377Y-25747D01*
X38252Y-25622D01*
X38089Y-25554D01*
X37911Y-25554D01*
X37747Y-25622D01*
X37622Y-25747D01*
X37554Y-25910D01*
X37554Y-26088D01*
X37622Y-26252D01*
X37747Y-26377D01*
X37910Y-26445D01*
X38088Y-26445D01*
X38252Y-26377D01*
X38377Y-26252D01*
X38408Y-26178D01*
X38408Y-26821D01*
X38377Y-26747D01*
X38252Y-26622D01*
X38089Y-26554D01*
X37911Y-26554D01*
X37747Y-26622D01*
X37622Y-26747D01*
X37554Y-26910D01*
X37554Y-27088D01*
X37622Y-27252D01*
X37747Y-27377D01*
X37910Y-27445D01*
X38088Y-27445D01*
X38252Y-27377D01*
X38377Y-27252D01*
X38408Y-27178D01*
X38408Y-27821D01*
X38377Y-27747D01*
X38252Y-27622D01*
X38089Y-27554D01*
X37911Y-27554D01*
X37747Y-27622D01*
X37622Y-27747D01*
X37554Y-27910D01*
X37554Y-28088D01*
X37622Y-28252D01*
X37747Y-28377D01*
X37910Y-28445D01*
X38088Y-28445D01*
X38252Y-28377D01*
X38377Y-28252D01*
X38408Y-28178D01*
X38408Y-28322D01*
X38150Y-28580D01*
X38089Y-28554D01*
X37911Y-28554D01*
X37747Y-28622D01*
X37622Y-28747D01*
X37554Y-28910D01*
X37554Y-29088D01*
X37622Y-29252D01*
X37747Y-29377D01*
X37910Y-29445D01*
X38088Y-29445D01*
X38252Y-29377D01*
X38377Y-29252D01*
X38445Y-29089D01*
X38445Y-28911D01*
X38419Y-28849D01*
X38582Y-28686D01*
X38582Y-29148D01*
X38150Y-29580D01*
X38089Y-29554D01*
X37911Y-29554D01*
X37747Y-29622D01*
X37622Y-29747D01*
X37554Y-29910D01*
X37554Y-30088D01*
X37622Y-30252D01*
X37747Y-30377D01*
X37910Y-30445D01*
X38088Y-30445D01*
X38252Y-30377D01*
X38377Y-30252D01*
X38445Y-30089D01*
X38445Y-29911D01*
X38419Y-29849D01*
X38906Y-29361D01*
X38906Y-29361D01*
X38906Y-29361D01*
X38947Y-29300D01*
X38962Y-29227D01*
X38962Y-29227D01*
X38962Y-29227D01*
X38962Y-22554D01*
X38962Y-22554D01*
X38962Y-22554D01*
X38947Y-22481D01*
X38906Y-22419D01*
X38852Y-22366D01*
X38852Y-21153D01*
X38846Y-20815D01*
X38729Y-20531D01*
X38620Y-20450D01*
X38549Y-20520D01*
X38549Y-20379D01*
X38468Y-20270D01*
X38153Y-20147D01*
X37815Y-20153D01*
X37531Y-20270D01*
X37450Y-20379D01*
X38000Y-20929D01*
X38549Y-20379D01*
X38549Y-20520D01*
X38070Y-21000D01*
X38620Y-21549D01*
X38729Y-21468D01*
X38852Y-21153D01*
X38852Y-22366D01*
X38289Y-21803D01*
X38468Y-21729D01*
X38549Y-21620D01*
X38000Y-21070D01*
X37929Y-21141D01*
X37929Y-21000D01*
X37379Y-20450D01*
X37270Y-20531D01*
X37147Y-20846D01*
X37153Y-21184D01*
X37270Y-21468D01*
X37379Y-21549D01*
X37929Y-21000D01*
X37929Y-21141D01*
X37450Y-21620D01*
X37521Y-21715D01*
X37393Y-21715D01*
X37314Y-21636D01*
X37252Y-21595D01*
X37179Y-21580D01*
X36445Y-21580D01*
X36445Y-20911D01*
X36377Y-20747D01*
X36252Y-20622D01*
X36089Y-20554D01*
X35911Y-20554D01*
X35747Y-20622D01*
X35622Y-20747D01*
X35554Y-20910D01*
X35554Y-21088D01*
X35622Y-21252D01*
X35747Y-21377D01*
X35910Y-21445D01*
X36088Y-21445D01*
X36252Y-21377D01*
X36377Y-21252D01*
X36445Y-21089D01*
X36445Y-20911D01*
X36445Y-21580D01*
X35445Y-21580D01*
X35445Y-20911D01*
X35377Y-20747D01*
X35252Y-20622D01*
X35089Y-20554D01*
X34911Y-20554D01*
X34747Y-20622D01*
X34622Y-20747D01*
X34554Y-20910D01*
X34554Y-21088D01*
X34622Y-21252D01*
X34747Y-21377D01*
X34910Y-21445D01*
X35088Y-21445D01*
X35252Y-21377D01*
X35377Y-21252D01*
X35445Y-21089D01*
X35445Y-20911D01*
X35445Y-21580D01*
X35432Y-21580D01*
X35360Y-21595D01*
X35298Y-21636D01*
X35257Y-21698D01*
X35248Y-21740D01*
X35128Y-21740D01*
X35073Y-21763D01*
X35030Y-21806D01*
X35022Y-21826D01*
X34949Y-21795D01*
X34834Y-21795D01*
X34760Y-21826D01*
X34752Y-21806D01*
X34709Y-21763D01*
X34654Y-21740D01*
X34595Y-21740D01*
X34445Y-21740D01*
X34445Y-20911D01*
X34377Y-20747D01*
X34252Y-20622D01*
X34089Y-20554D01*
X33911Y-20554D01*
X33747Y-20622D01*
X33622Y-20747D01*
X33554Y-20910D01*
X33554Y-21088D01*
X33622Y-21252D01*
X33747Y-21377D01*
X33910Y-21445D01*
X34088Y-21445D01*
X34252Y-21377D01*
X34377Y-21252D01*
X34445Y-21089D01*
X34445Y-20911D01*
X34445Y-21740D01*
X34045Y-21740D01*
X33990Y-21763D01*
X33947Y-21806D01*
X33925Y-21861D01*
X33925Y-21920D01*
X33925Y-22270D01*
X33947Y-22325D01*
X33952Y-22330D01*
X33445Y-22330D01*
X33445Y-20911D01*
X33377Y-20747D01*
X33252Y-20622D01*
X33089Y-20554D01*
X32911Y-20554D01*
X32747Y-20622D01*
X32622Y-20747D01*
X32554Y-20910D01*
X32554Y-21088D01*
X32622Y-21252D01*
X32747Y-21377D01*
X32910Y-21445D01*
X33088Y-21445D01*
X33252Y-21377D01*
X33377Y-21252D01*
X33445Y-21089D01*
X33445Y-20911D01*
X33445Y-22330D01*
X32445Y-22330D01*
X32445Y-20911D01*
X32377Y-20747D01*
X32252Y-20622D01*
X32089Y-20554D01*
X31911Y-20554D01*
X31747Y-20622D01*
X31622Y-20747D01*
X31554Y-20910D01*
X31554Y-21088D01*
X31622Y-21252D01*
X31747Y-21377D01*
X31910Y-21445D01*
X32088Y-21445D01*
X32252Y-21377D01*
X32377Y-21252D01*
X32445Y-21089D01*
X32445Y-20911D01*
X32445Y-22330D01*
X32412Y-22330D01*
X32340Y-22345D01*
X32278Y-22386D01*
X32278Y-22386D01*
X31630Y-23034D01*
X31581Y-23013D01*
X31521Y-23013D01*
X31445Y-23013D01*
X31445Y-20911D01*
X31377Y-20747D01*
X31252Y-20622D01*
X31089Y-20554D01*
X30911Y-20554D01*
X30747Y-20622D01*
X30622Y-20747D01*
X30554Y-20910D01*
X30554Y-21088D01*
X30622Y-21252D01*
X30747Y-21377D01*
X30910Y-21445D01*
X31088Y-21445D01*
X31252Y-21377D01*
X31377Y-21252D01*
X31445Y-21089D01*
X31445Y-20911D01*
X31445Y-23013D01*
X31206Y-23013D01*
X31151Y-23036D01*
X31109Y-23078D01*
X31086Y-23133D01*
X31086Y-23193D01*
X31086Y-23348D01*
X31029Y-23359D01*
X30967Y-23401D01*
X30842Y-23526D01*
X30799Y-23508D01*
X30848Y-23487D01*
X30890Y-23445D01*
X30913Y-23390D01*
X30913Y-23330D01*
X30913Y-23133D01*
X30890Y-23078D01*
X30848Y-23036D01*
X30793Y-23013D01*
X30733Y-23013D01*
X30445Y-23013D01*
X30445Y-20911D01*
X30377Y-20747D01*
X30252Y-20622D01*
X30089Y-20554D01*
X29911Y-20554D01*
X29747Y-20622D01*
X29622Y-20747D01*
X29554Y-20910D01*
X29554Y-21088D01*
X29622Y-21252D01*
X29747Y-21377D01*
X29910Y-21445D01*
X30088Y-21445D01*
X30252Y-21377D01*
X30377Y-21252D01*
X30445Y-21089D01*
X30445Y-20911D01*
X30445Y-23013D01*
X30418Y-23013D01*
X30363Y-23036D01*
X30327Y-23072D01*
X30255Y-23086D01*
X30194Y-23127D01*
X30152Y-23189D01*
X30149Y-23207D01*
X29445Y-23207D01*
X29445Y-20911D01*
X29377Y-20747D01*
X29252Y-20622D01*
X29089Y-20554D01*
X28911Y-20554D01*
X28747Y-20622D01*
X28622Y-20747D01*
X28554Y-20910D01*
X28554Y-21088D01*
X28622Y-21252D01*
X28747Y-21377D01*
X28910Y-21445D01*
X29088Y-21445D01*
X29252Y-21377D01*
X29377Y-21252D01*
X29445Y-21089D01*
X29445Y-20911D01*
X29445Y-23207D01*
X29200Y-23207D01*
X29200Y-23087D01*
X29200Y-22912D01*
X29200Y-22754D01*
X29200Y-22695D01*
X29177Y-22640D01*
X29134Y-22597D01*
X29079Y-22575D01*
X28962Y-22575D01*
X28925Y-22612D01*
X28925Y-22950D01*
X29162Y-22950D01*
X29200Y-22912D01*
X29200Y-23087D01*
X29162Y-23050D01*
X28925Y-23050D01*
X28925Y-23057D01*
X28825Y-23057D01*
X28825Y-23050D01*
X28825Y-22950D01*
X28825Y-22612D01*
X28787Y-22575D01*
X28670Y-22575D01*
X28615Y-22597D01*
X28572Y-22640D01*
X28550Y-22695D01*
X28550Y-22754D01*
X28550Y-22912D01*
X28587Y-22950D01*
X28825Y-22950D01*
X28825Y-23050D01*
X28587Y-23050D01*
X28550Y-23087D01*
X28550Y-23207D01*
X28453Y-23207D01*
X28450Y-23203D01*
X28450Y-22695D01*
X28445Y-22684D01*
X28445Y-20911D01*
X28377Y-20747D01*
X28252Y-20622D01*
X28089Y-20554D01*
X27911Y-20554D01*
X27747Y-20622D01*
X27622Y-20747D01*
X27554Y-20910D01*
X27554Y-21088D01*
X27622Y-21252D01*
X27747Y-21377D01*
X27910Y-21445D01*
X28088Y-21445D01*
X28252Y-21377D01*
X28377Y-21252D01*
X28445Y-21089D01*
X28445Y-20911D01*
X28445Y-22684D01*
X28427Y-22640D01*
X28384Y-22597D01*
X28329Y-22575D01*
X28270Y-22575D01*
X27920Y-22575D01*
X27865Y-22597D01*
X27822Y-22640D01*
X27800Y-22695D01*
X27800Y-22701D01*
X27445Y-22346D01*
X27445Y-20911D01*
X27377Y-20747D01*
X27252Y-20622D01*
X27089Y-20554D01*
X26911Y-20554D01*
X26747Y-20622D01*
X26622Y-20747D01*
X26554Y-20910D01*
X26554Y-21088D01*
X26622Y-21252D01*
X26747Y-21377D01*
X26910Y-21445D01*
X27088Y-21445D01*
X27252Y-21377D01*
X27377Y-21252D01*
X27445Y-21089D01*
X27445Y-20911D01*
X27445Y-22346D01*
X26960Y-21861D01*
X26898Y-21820D01*
X26825Y-21805D01*
X26445Y-21805D01*
X26445Y-20911D01*
X26377Y-20747D01*
X26252Y-20622D01*
X26089Y-20554D01*
X25911Y-20554D01*
X25747Y-20622D01*
X25622Y-20747D01*
X25554Y-20910D01*
X25554Y-21088D01*
X25622Y-21252D01*
X25747Y-21377D01*
X25910Y-21445D01*
X26088Y-21445D01*
X26252Y-21377D01*
X26377Y-21252D01*
X26445Y-21089D01*
X26445Y-20911D01*
X26445Y-21805D01*
X25445Y-21805D01*
X25445Y-20911D01*
X25377Y-20747D01*
X25252Y-20622D01*
X25089Y-20554D01*
X24911Y-20554D01*
X24747Y-20622D01*
X24622Y-20747D01*
X24554Y-20910D01*
X24554Y-21088D01*
X24622Y-21252D01*
X24747Y-21377D01*
X24910Y-21445D01*
X25088Y-21445D01*
X25252Y-21377D01*
X25377Y-21252D01*
X25445Y-21089D01*
X25445Y-20911D01*
X25445Y-21805D01*
X24445Y-21805D01*
X24445Y-20911D01*
X24377Y-20747D01*
X24252Y-20622D01*
X24089Y-20554D01*
X23911Y-20554D01*
X23747Y-20622D01*
X23622Y-20747D01*
X23554Y-20910D01*
X23554Y-21088D01*
X23622Y-21252D01*
X23747Y-21377D01*
X23910Y-21445D01*
X24088Y-21445D01*
X24252Y-21377D01*
X24377Y-21252D01*
X24445Y-21089D01*
X24445Y-20911D01*
X24445Y-21805D01*
X23445Y-21805D01*
X23445Y-21325D01*
X23445Y-21265D01*
X23445Y-20674D01*
X23422Y-20619D01*
X23380Y-20577D01*
X23325Y-20554D01*
X23265Y-20554D01*
X22674Y-20554D01*
X22619Y-20577D01*
X22577Y-20619D01*
X22554Y-20674D01*
X22554Y-20734D01*
X22554Y-21325D01*
X22577Y-21380D01*
X22619Y-21422D01*
X22674Y-21445D01*
X22734Y-21445D01*
X23325Y-21445D01*
X23380Y-21422D01*
X23422Y-21380D01*
X23445Y-21325D01*
X23445Y-21805D01*
X23004Y-21805D01*
X22931Y-21820D01*
X22869Y-21861D01*
X22169Y-22561D01*
X22128Y-22623D01*
X22119Y-22665D01*
X21999Y-22665D01*
X21944Y-22688D01*
X21901Y-22731D01*
X21879Y-22786D01*
X21879Y-22845D01*
X21879Y-23195D01*
X21901Y-23250D01*
X21944Y-23293D01*
X21999Y-23315D01*
X22058Y-23315D01*
X22608Y-23315D01*
X22663Y-23293D01*
X22706Y-23250D01*
X22729Y-23195D01*
X22729Y-23136D01*
X22729Y-22786D01*
X22706Y-22731D01*
X22663Y-22688D01*
X22608Y-22665D01*
X22602Y-22665D01*
X23082Y-22185D01*
X25462Y-22185D01*
X24586Y-23062D01*
X24572Y-23048D01*
X24517Y-23025D01*
X24458Y-23025D01*
X24405Y-23025D01*
X24441Y-22937D01*
X24441Y-22822D01*
X24397Y-22715D01*
X24316Y-22633D01*
X24209Y-22589D01*
X24094Y-22589D01*
X23987Y-22633D01*
X23906Y-22715D01*
X23864Y-22815D01*
X23837Y-22815D01*
X23837Y-22796D01*
X23815Y-22741D01*
X23772Y-22698D01*
X23717Y-22675D01*
X23658Y-22675D01*
X23298Y-22675D01*
X23243Y-22698D01*
X23200Y-22741D01*
X23177Y-22796D01*
X23177Y-22855D01*
X23177Y-23215D01*
X23200Y-23270D01*
X23243Y-23313D01*
X23298Y-23335D01*
X23357Y-23335D01*
X23717Y-23335D01*
X23772Y-23313D01*
X23815Y-23270D01*
X23837Y-23215D01*
X23837Y-23195D01*
X23977Y-23195D01*
X23977Y-23205D01*
X23977Y-23565D01*
X24000Y-23620D01*
X24037Y-23657D01*
X23837Y-23857D01*
X23837Y-23793D01*
X23837Y-23618D01*
X23837Y-23496D01*
X23815Y-23441D01*
X23772Y-23398D01*
X23717Y-23375D01*
X23658Y-23375D01*
X23595Y-23375D01*
X23557Y-23413D01*
X23557Y-23655D01*
X23800Y-23655D01*
X23837Y-23618D01*
X23837Y-23793D01*
X23800Y-23755D01*
X23557Y-23755D01*
X23557Y-23998D01*
X23595Y-24035D01*
X23658Y-24035D01*
X23659Y-24035D01*
X23497Y-24197D01*
X23457Y-24257D01*
X23457Y-23998D01*
X23457Y-23755D01*
X23457Y-23655D01*
X23457Y-23413D01*
X23420Y-23375D01*
X23357Y-23375D01*
X23298Y-23375D01*
X23243Y-23398D01*
X23200Y-23441D01*
X23177Y-23496D01*
X23177Y-23618D01*
X23215Y-23655D01*
X23457Y-23655D01*
X23457Y-23755D01*
X23215Y-23755D01*
X23177Y-23793D01*
X23177Y-23915D01*
X23200Y-23970D01*
X23243Y-24013D01*
X23298Y-24035D01*
X23357Y-24035D01*
X23420Y-24035D01*
X23457Y-23998D01*
X23457Y-24257D01*
X23456Y-24259D01*
X23442Y-24332D01*
X23442Y-24399D01*
X23327Y-24399D01*
X23272Y-24421D01*
X23229Y-24464D01*
X23207Y-24519D01*
X23207Y-24534D01*
X22955Y-24534D01*
X22955Y-24519D01*
X22932Y-24464D01*
X22889Y-24421D01*
X22834Y-24399D01*
X22775Y-24399D01*
X22729Y-24399D01*
X22729Y-23945D01*
X22729Y-23828D01*
X22729Y-23653D01*
X22729Y-23536D01*
X22706Y-23481D01*
X22663Y-23438D01*
X22608Y-23415D01*
X22549Y-23415D01*
X22391Y-23415D01*
X22354Y-23453D01*
X22354Y-23690D01*
X22691Y-23690D01*
X22729Y-23653D01*
X22729Y-23828D01*
X22691Y-23790D01*
X22354Y-23790D01*
X22354Y-24028D01*
X22391Y-24065D01*
X22549Y-24065D01*
X22608Y-24065D01*
X22663Y-24043D01*
X22706Y-24000D01*
X22729Y-23945D01*
X22729Y-24399D01*
X22254Y-24399D01*
X22254Y-24028D01*
X22254Y-23790D01*
X22254Y-23690D01*
X22254Y-23453D01*
X22216Y-23415D01*
X22058Y-23415D01*
X21999Y-23415D01*
X21944Y-23438D01*
X21901Y-23481D01*
X21879Y-23536D01*
X21879Y-23653D01*
X21916Y-23690D01*
X22254Y-23690D01*
X22254Y-23790D01*
X21916Y-23790D01*
X21879Y-23828D01*
X21879Y-23945D01*
X21901Y-24000D01*
X21944Y-24043D01*
X21999Y-24065D01*
X22058Y-24065D01*
X22216Y-24065D01*
X22254Y-24028D01*
X22254Y-24399D01*
X22225Y-24399D01*
X22170Y-24421D01*
X22127Y-24464D01*
X22105Y-24519D01*
X22105Y-24578D01*
X22105Y-24928D01*
X22127Y-24983D01*
X22170Y-25026D01*
X22225Y-25049D01*
X22284Y-25049D01*
X22834Y-25049D01*
X22889Y-25026D01*
X22932Y-24983D01*
X22955Y-24928D01*
X22955Y-24914D01*
X23207Y-24914D01*
X23207Y-24928D01*
X23229Y-24983D01*
X23272Y-25026D01*
X23327Y-25049D01*
X23386Y-25049D01*
X23494Y-25049D01*
X23456Y-25106D01*
X23447Y-25149D01*
X23327Y-25149D01*
X23272Y-25171D01*
X23229Y-25214D01*
X23207Y-25269D01*
X23207Y-25284D01*
X22955Y-25284D01*
X22955Y-25269D01*
X22932Y-25214D01*
X22889Y-25171D01*
X22834Y-25149D01*
X22775Y-25149D01*
X22225Y-25149D01*
X22170Y-25171D01*
X22127Y-25214D01*
X22105Y-25269D01*
X22105Y-25328D01*
X22105Y-25678D01*
X22127Y-25733D01*
X22170Y-25776D01*
X22225Y-25799D01*
X22284Y-25799D01*
X22834Y-25799D01*
X22889Y-25776D01*
X22932Y-25733D01*
X22955Y-25678D01*
X22955Y-25664D01*
X23207Y-25664D01*
X23207Y-25678D01*
X23229Y-25733D01*
X23272Y-25776D01*
X23327Y-25799D01*
X23386Y-25799D01*
X23442Y-25799D01*
X23442Y-31289D01*
X22100Y-32631D01*
X22100Y-24412D01*
X22055Y-24305D01*
X21974Y-24224D01*
X21867Y-24180D01*
X21752Y-24179D01*
X21645Y-24224D01*
X21564Y-24305D01*
X21520Y-24412D01*
X21519Y-24527D01*
X21564Y-24634D01*
X21580Y-24650D01*
X21580Y-25229D01*
X21524Y-25285D01*
X21480Y-25392D01*
X21479Y-25507D01*
X21524Y-25614D01*
X21605Y-25695D01*
X21712Y-25739D01*
X21827Y-25740D01*
X21934Y-25695D01*
X22015Y-25614D01*
X22059Y-25507D01*
X22060Y-25392D01*
X22015Y-25285D01*
X21960Y-25229D01*
X21960Y-24721D01*
X21974Y-24715D01*
X22055Y-24634D01*
X22099Y-24527D01*
X22100Y-24412D01*
X22100Y-32631D01*
X21445Y-33285D01*
X21445Y-32911D01*
X21445Y-31911D01*
X21445Y-30911D01*
X21445Y-29911D01*
X21445Y-28911D01*
X21445Y-27911D01*
X21445Y-26911D01*
X21445Y-25911D01*
X21445Y-24911D01*
X21445Y-23911D01*
X21445Y-22911D01*
X21377Y-22747D01*
X21252Y-22622D01*
X21089Y-22554D01*
X20911Y-22554D01*
X20747Y-22622D01*
X20622Y-22747D01*
X20554Y-22910D01*
X20554Y-23088D01*
X20622Y-23252D01*
X20747Y-23377D01*
X20910Y-23445D01*
X21088Y-23445D01*
X21252Y-23377D01*
X21377Y-23252D01*
X21445Y-23089D01*
X21445Y-22911D01*
X21445Y-23911D01*
X21377Y-23747D01*
X21252Y-23622D01*
X21089Y-23554D01*
X20911Y-23554D01*
X20747Y-23622D01*
X20622Y-23747D01*
X20554Y-23910D01*
X20554Y-24088D01*
X20622Y-24252D01*
X20747Y-24377D01*
X20910Y-24445D01*
X21088Y-24445D01*
X21252Y-24377D01*
X21377Y-24252D01*
X21445Y-24089D01*
X21445Y-23911D01*
X21445Y-24911D01*
X21377Y-24747D01*
X21252Y-24622D01*
X21089Y-24554D01*
X20911Y-24554D01*
X20747Y-24622D01*
X20622Y-24747D01*
X20554Y-24910D01*
X20554Y-25088D01*
X20622Y-25252D01*
X20747Y-25377D01*
X20910Y-25445D01*
X21088Y-25445D01*
X21252Y-25377D01*
X21377Y-25252D01*
X21445Y-25089D01*
X21445Y-24911D01*
X21445Y-25911D01*
X21377Y-25747D01*
X21252Y-25622D01*
X21089Y-25554D01*
X20911Y-25554D01*
X20747Y-25622D01*
X20622Y-25747D01*
X20554Y-25910D01*
X20554Y-26088D01*
X20622Y-26252D01*
X20747Y-26377D01*
X20910Y-26445D01*
X21088Y-26445D01*
X21252Y-26377D01*
X21377Y-26252D01*
X21445Y-26089D01*
X21445Y-25911D01*
X21445Y-26911D01*
X21377Y-26747D01*
X21252Y-26622D01*
X21089Y-26554D01*
X20911Y-26554D01*
X20747Y-26622D01*
X20622Y-26747D01*
X20554Y-26910D01*
X20554Y-27088D01*
X20622Y-27252D01*
X20747Y-27377D01*
X20910Y-27445D01*
X21088Y-27445D01*
X21252Y-27377D01*
X21377Y-27252D01*
X21445Y-27089D01*
X21445Y-26911D01*
X21445Y-27911D01*
X21377Y-27747D01*
X21252Y-27622D01*
X21089Y-27554D01*
X20911Y-27554D01*
X20747Y-27622D01*
X20622Y-27747D01*
X20554Y-27910D01*
X20554Y-28088D01*
X20622Y-28252D01*
X20747Y-28377D01*
X20910Y-28445D01*
X21088Y-28445D01*
X21252Y-28377D01*
X21377Y-28252D01*
X21445Y-28089D01*
X21445Y-27911D01*
X21445Y-28911D01*
X21377Y-28747D01*
X21252Y-28622D01*
X21089Y-28554D01*
X20911Y-28554D01*
X20747Y-28622D01*
X20622Y-28747D01*
X20554Y-28910D01*
X20554Y-29088D01*
X20622Y-29252D01*
X20747Y-29377D01*
X20910Y-29445D01*
X21088Y-29445D01*
X21252Y-29377D01*
X21377Y-29252D01*
X21445Y-29089D01*
X21445Y-28911D01*
X21445Y-29911D01*
X21377Y-29747D01*
X21252Y-29622D01*
X21089Y-29554D01*
X20911Y-29554D01*
X20747Y-29622D01*
X20622Y-29747D01*
X20554Y-29910D01*
X20554Y-30088D01*
X20622Y-30252D01*
X20747Y-30377D01*
X20910Y-30445D01*
X21088Y-30445D01*
X21252Y-30377D01*
X21377Y-30252D01*
X21445Y-30089D01*
X21445Y-29911D01*
X21445Y-30911D01*
X21377Y-30747D01*
X21252Y-30622D01*
X21089Y-30554D01*
X20911Y-30554D01*
X20747Y-30622D01*
X20622Y-30747D01*
X20554Y-30910D01*
X20554Y-31088D01*
X20622Y-31252D01*
X20747Y-31377D01*
X20910Y-31445D01*
X21088Y-31445D01*
X21252Y-31377D01*
X21377Y-31252D01*
X21445Y-31089D01*
X21445Y-30911D01*
X21445Y-31911D01*
X21377Y-31747D01*
X21252Y-31622D01*
X21089Y-31554D01*
X20911Y-31554D01*
X20747Y-31622D01*
X20622Y-31747D01*
X20554Y-31910D01*
X20554Y-32088D01*
X20622Y-32252D01*
X20747Y-32377D01*
X20910Y-32445D01*
X21088Y-32445D01*
X21252Y-32377D01*
X21377Y-32252D01*
X21445Y-32089D01*
X21445Y-31911D01*
X21445Y-32911D01*
X21377Y-32747D01*
X21252Y-32622D01*
X21089Y-32554D01*
X20911Y-32554D01*
X20747Y-32622D01*
X20622Y-32747D01*
X20554Y-32910D01*
X20554Y-33088D01*
X20622Y-33252D01*
X20747Y-33377D01*
X20910Y-33445D01*
X21088Y-33445D01*
X21252Y-33377D01*
X21377Y-33252D01*
X21445Y-33089D01*
X21445Y-32911D01*
X21445Y-33285D01*
X21150Y-33580D01*
X21089Y-33554D01*
X20911Y-33554D01*
X20747Y-33622D01*
X20622Y-33747D01*
X20554Y-33910D01*
X20554Y-34088D01*
X20622Y-34252D01*
X20747Y-34377D01*
X20752Y-34379D01*
X20430Y-34702D01*
X20389Y-34764D01*
X20374Y-34836D01*
X20374Y-35200D01*
X20389Y-35273D01*
X20430Y-35335D01*
X20656Y-35561D01*
X20619Y-35577D01*
X20577Y-35619D01*
X20554Y-35674D01*
X20554Y-35734D01*
X20554Y-36325D01*
X20573Y-36370D01*
X19910Y-36370D01*
X19910Y-21225D01*
X20000Y-21225D01*
X20021Y-21220D01*
X20043Y-21220D01*
X20426Y-21144D01*
X20507Y-21110D01*
X20832Y-20894D01*
X20832Y-20894D01*
X20894Y-20832D01*
X20894Y-20832D01*
X20894Y-20832D01*
X21110Y-20507D01*
X21110Y-20507D01*
X21110Y-20507D01*
X21144Y-20426D01*
X21220Y-20043D01*
X21220Y-20021D01*
X21225Y-20000D01*
X21225Y-19910D01*
X39145Y-19910D01*
X39145Y-36370D01*
X39145Y-36370D01*
G37*
G54D14*
X39145Y-36370D02*
X38259Y-36370D01*
X38377Y-36252D01*
X38445Y-36089D01*
X38445Y-35911D01*
X38445Y-34911D01*
X38445Y-33911D01*
X38445Y-32911D01*
X38445Y-31911D01*
X38445Y-30911D01*
X38377Y-30747D01*
X38252Y-30622D01*
X38089Y-30554D01*
X37911Y-30554D01*
X37747Y-30622D01*
X37622Y-30747D01*
X37554Y-30910D01*
X37554Y-31088D01*
X37622Y-31252D01*
X37747Y-31377D01*
X37910Y-31445D01*
X38088Y-31445D01*
X38252Y-31377D01*
X38377Y-31252D01*
X38445Y-31089D01*
X38445Y-30911D01*
X38445Y-31911D01*
X38377Y-31747D01*
X38252Y-31622D01*
X38089Y-31554D01*
X37911Y-31554D01*
X37747Y-31622D01*
X37622Y-31747D01*
X37554Y-31910D01*
X37554Y-32088D01*
X37622Y-32252D01*
X37747Y-32377D01*
X37910Y-32445D01*
X38088Y-32445D01*
X38252Y-32377D01*
X38377Y-32252D01*
X38445Y-32089D01*
X38445Y-31911D01*
X38445Y-32911D01*
X38377Y-32747D01*
X38252Y-32622D01*
X38089Y-32554D01*
X37911Y-32554D01*
X37747Y-32622D01*
X37622Y-32747D01*
X37554Y-32910D01*
X37554Y-33088D01*
X37622Y-33252D01*
X37747Y-33377D01*
X37910Y-33445D01*
X38088Y-33445D01*
X38252Y-33377D01*
X38377Y-33252D01*
X38445Y-33089D01*
X38445Y-32911D01*
X38445Y-33911D01*
X38377Y-33747D01*
X38252Y-33622D01*
X38089Y-33554D01*
X37911Y-33554D01*
X37747Y-33622D01*
X37622Y-33747D01*
X37554Y-33910D01*
X37554Y-34088D01*
X37622Y-34252D01*
X37747Y-34377D01*
X37910Y-34445D01*
X38088Y-34445D01*
X38252Y-34377D01*
X38377Y-34252D01*
X38445Y-34089D01*
X38445Y-33911D01*
X38445Y-34911D01*
X38377Y-34747D01*
X38252Y-34622D01*
X38089Y-34554D01*
X37911Y-34554D01*
X37747Y-34622D01*
X37622Y-34747D01*
X37554Y-34910D01*
X37554Y-35088D01*
X37622Y-35252D01*
X37747Y-35377D01*
X37910Y-35445D01*
X38088Y-35445D01*
X38252Y-35377D01*
X38377Y-35252D01*
X38445Y-35089D01*
X38445Y-34911D01*
X38445Y-35911D01*
X38377Y-35747D01*
X38252Y-35622D01*
X38089Y-35554D01*
X37911Y-35554D01*
X37747Y-35622D01*
X37622Y-35747D01*
X37554Y-35910D01*
X37554Y-36088D01*
X37622Y-36252D01*
X37739Y-36370D01*
X36940Y-36370D01*
X36940Y-24595D01*
X36940Y-24478D01*
X36903Y-24440D01*
X36565Y-24440D01*
X36565Y-24678D01*
X36603Y-24715D01*
X36761Y-24715D01*
X36820Y-24715D01*
X36875Y-24693D01*
X36918Y-24650D01*
X36940Y-24595D01*
X36940Y-36370D01*
X36465Y-36370D01*
X36465Y-24678D01*
X36465Y-24440D01*
X36128Y-24440D01*
X36090Y-24478D01*
X36090Y-24595D01*
X36113Y-24650D01*
X36156Y-24693D01*
X36211Y-24715D01*
X36270Y-24715D01*
X36428Y-24715D01*
X36465Y-24678D01*
X36465Y-36370D01*
X34590Y-36370D01*
X34590Y-35939D01*
X34590Y-35880D01*
X34590Y-35647D01*
X34590Y-35472D01*
X34590Y-35239D01*
X34590Y-35180D01*
X34590Y-33939D01*
X34590Y-33880D01*
X34590Y-33647D01*
X34590Y-33472D01*
X34590Y-33239D01*
X34590Y-33180D01*
X34567Y-33125D01*
X34524Y-33082D01*
X34469Y-33060D01*
X34177Y-33060D01*
X34140Y-33097D01*
X34140Y-33510D01*
X34552Y-33510D01*
X34590Y-33472D01*
X34590Y-33647D01*
X34552Y-33610D01*
X34140Y-33610D01*
X34140Y-34022D01*
X34177Y-34060D01*
X34469Y-34060D01*
X34524Y-34037D01*
X34567Y-33994D01*
X34590Y-33939D01*
X34590Y-35180D01*
X34567Y-35125D01*
X34524Y-35082D01*
X34469Y-35060D01*
X34177Y-35060D01*
X34140Y-35097D01*
X34140Y-35510D01*
X34552Y-35510D01*
X34590Y-35472D01*
X34590Y-35647D01*
X34552Y-35610D01*
X34140Y-35610D01*
X34140Y-36022D01*
X34177Y-36060D01*
X34469Y-36060D01*
X34524Y-36037D01*
X34567Y-35994D01*
X34590Y-35939D01*
X34590Y-36370D01*
X34040Y-36370D01*
X34040Y-36022D01*
X34040Y-35610D01*
X33627Y-35610D01*
X33590Y-35647D01*
X33590Y-35880D01*
X33590Y-35939D01*
X33612Y-35994D01*
X33655Y-36037D01*
X33710Y-36060D01*
X34002Y-36060D01*
X34040Y-36022D01*
X34040Y-36370D01*
X32590Y-36370D01*
X32590Y-35939D01*
X32590Y-35880D01*
X32590Y-35647D01*
X32552Y-35610D01*
X32140Y-35610D01*
X32140Y-36022D01*
X32177Y-36060D01*
X32469Y-36060D01*
X32524Y-36037D01*
X32567Y-35994D01*
X32590Y-35939D01*
X32590Y-36370D01*
X32200Y-36370D01*
X32200Y-36340D01*
X32185Y-36267D01*
X32144Y-36205D01*
X32082Y-36164D01*
X32040Y-36155D01*
X32040Y-36022D01*
X32040Y-35610D01*
X31627Y-35610D01*
X31590Y-35647D01*
X31590Y-35880D01*
X31590Y-35939D01*
X31612Y-35994D01*
X31655Y-36037D01*
X31710Y-36060D01*
X32002Y-36060D01*
X32040Y-36022D01*
X32040Y-36155D01*
X32010Y-36150D01*
X31825Y-36150D01*
X31735Y-36150D01*
X31557Y-36150D01*
X31484Y-36164D01*
X31422Y-36205D01*
X31381Y-36267D01*
X31367Y-36340D01*
X31367Y-36370D01*
X31353Y-36370D01*
X31353Y-36340D01*
X31338Y-36267D01*
X31297Y-36205D01*
X31235Y-36164D01*
X31163Y-36150D01*
X30965Y-36150D01*
X30820Y-36150D01*
X30820Y-35270D01*
X31590Y-35270D01*
X31590Y-35472D01*
X31627Y-35510D01*
X32040Y-35510D01*
X32040Y-35502D01*
X32140Y-35502D01*
X32140Y-35510D01*
X32552Y-35510D01*
X32590Y-35472D01*
X32590Y-35270D01*
X33590Y-35270D01*
X33590Y-35472D01*
X33627Y-35510D01*
X34040Y-35510D01*
X34040Y-35097D01*
X34002Y-35060D01*
X33800Y-35060D01*
X33800Y-34060D01*
X34002Y-34060D01*
X34040Y-34022D01*
X34040Y-33610D01*
X34040Y-33510D01*
X34040Y-33097D01*
X34002Y-33060D01*
X33710Y-33060D01*
X33655Y-33082D01*
X33612Y-33125D01*
X33590Y-33180D01*
X33590Y-33239D01*
X33590Y-33472D01*
X33627Y-33510D01*
X34040Y-33510D01*
X34040Y-33610D01*
X33627Y-33610D01*
X33590Y-33647D01*
X33590Y-33850D01*
X33225Y-33850D01*
X33225Y-32679D01*
X33225Y-32562D01*
X33225Y-32387D01*
X33225Y-32270D01*
X33202Y-32215D01*
X33159Y-32172D01*
X33104Y-32150D01*
X33045Y-32150D01*
X32887Y-32150D01*
X32850Y-32187D01*
X32850Y-32425D01*
X33187Y-32425D01*
X33225Y-32387D01*
X33225Y-32562D01*
X33187Y-32525D01*
X32850Y-32525D01*
X32850Y-32762D01*
X32887Y-32800D01*
X33045Y-32800D01*
X33104Y-32800D01*
X33159Y-32777D01*
X33202Y-32734D01*
X33225Y-32679D01*
X33225Y-33850D01*
X32750Y-33850D01*
X32750Y-32762D01*
X32750Y-32525D01*
X32750Y-32425D01*
X32750Y-32187D01*
X32712Y-32150D01*
X32554Y-32150D01*
X32495Y-32150D01*
X32440Y-32172D01*
X32397Y-32215D01*
X32375Y-32270D01*
X32375Y-32387D01*
X32412Y-32425D01*
X32750Y-32425D01*
X32750Y-32525D01*
X32412Y-32525D01*
X32375Y-32562D01*
X32375Y-32679D01*
X32397Y-32734D01*
X32440Y-32777D01*
X32495Y-32800D01*
X32554Y-32800D01*
X32712Y-32800D01*
X32750Y-32762D01*
X32750Y-33850D01*
X32590Y-33850D01*
X32590Y-33647D01*
X32590Y-33472D01*
X32590Y-33239D01*
X32590Y-33180D01*
X32567Y-33125D01*
X32524Y-33082D01*
X32469Y-33060D01*
X32177Y-33060D01*
X32140Y-33097D01*
X32140Y-33510D01*
X32552Y-33510D01*
X32590Y-33472D01*
X32590Y-33647D01*
X32552Y-33610D01*
X32140Y-33610D01*
X32140Y-33617D01*
X32040Y-33617D01*
X32040Y-33610D01*
X32040Y-33510D01*
X32040Y-33097D01*
X32002Y-33060D01*
X31710Y-33060D01*
X31655Y-33082D01*
X31612Y-33125D01*
X31590Y-33180D01*
X31590Y-33239D01*
X31590Y-33472D01*
X31627Y-33510D01*
X32040Y-33510D01*
X32040Y-33610D01*
X31627Y-33610D01*
X31590Y-33647D01*
X31590Y-33850D01*
X31300Y-33850D01*
X31300Y-33190D01*
X31500Y-33190D01*
X31500Y-32960D01*
X31590Y-32960D01*
X31662Y-32945D01*
X31724Y-32904D01*
X31765Y-32842D01*
X31780Y-32770D01*
X31780Y-32630D01*
X31765Y-32557D01*
X31724Y-32495D01*
X31662Y-32454D01*
X31590Y-32440D01*
X31500Y-32440D01*
X31500Y-31997D01*
X31542Y-32014D01*
X31657Y-32015D01*
X31764Y-31970D01*
X31820Y-31915D01*
X32375Y-31915D01*
X32375Y-31929D01*
X32397Y-31984D01*
X32440Y-32027D01*
X32495Y-32050D01*
X32554Y-32050D01*
X33104Y-32050D01*
X33159Y-32027D01*
X33202Y-31984D01*
X33225Y-31929D01*
X33225Y-31915D01*
X35375Y-31915D01*
X35447Y-31900D01*
X35509Y-31859D01*
X36234Y-31134D01*
X36275Y-31072D01*
X36290Y-31000D01*
X36290Y-28650D01*
X36275Y-28577D01*
X36234Y-28515D01*
X36059Y-28340D01*
X35997Y-28299D01*
X35925Y-28285D01*
X35857Y-28285D01*
X35857Y-24595D01*
X35857Y-24478D01*
X35820Y-24440D01*
X35482Y-24440D01*
X35482Y-24678D01*
X35520Y-24715D01*
X35678Y-24715D01*
X35737Y-24715D01*
X35792Y-24693D01*
X35835Y-24650D01*
X35857Y-24595D01*
X35857Y-28285D01*
X35775Y-28285D01*
X35775Y-28270D01*
X35752Y-28215D01*
X35709Y-28172D01*
X35654Y-28150D01*
X35595Y-28150D01*
X35382Y-28150D01*
X35382Y-24678D01*
X35382Y-24440D01*
X35045Y-24440D01*
X35007Y-24478D01*
X35007Y-24595D01*
X35030Y-24650D01*
X35073Y-24693D01*
X35128Y-24715D01*
X35187Y-24715D01*
X35345Y-24715D01*
X35382Y-24678D01*
X35382Y-28150D01*
X35045Y-28150D01*
X34990Y-28172D01*
X34947Y-28215D01*
X34925Y-28270D01*
X34925Y-28329D01*
X34925Y-28679D01*
X34947Y-28734D01*
X34990Y-28777D01*
X35045Y-28800D01*
X35104Y-28800D01*
X35654Y-28800D01*
X35709Y-28777D01*
X35752Y-28734D01*
X35775Y-28679D01*
X35775Y-28665D01*
X35846Y-28665D01*
X35910Y-28728D01*
X35910Y-30921D01*
X35296Y-31535D01*
X34752Y-31535D01*
X34777Y-31509D01*
X34800Y-31454D01*
X34800Y-31395D01*
X34800Y-31237D01*
X34800Y-31062D01*
X34800Y-30904D01*
X34800Y-30845D01*
X34777Y-30790D01*
X34734Y-30747D01*
X34679Y-30725D01*
X34562Y-30725D01*
X34525Y-30762D01*
X34525Y-31100D01*
X34762Y-31100D01*
X34800Y-31062D01*
X34800Y-31237D01*
X34762Y-31200D01*
X34525Y-31200D01*
X34525Y-31207D01*
X34425Y-31207D01*
X34425Y-31200D01*
X34425Y-31100D01*
X34425Y-30762D01*
X34387Y-30725D01*
X34270Y-30725D01*
X34215Y-30747D01*
X34172Y-30790D01*
X34150Y-30845D01*
X34150Y-30904D01*
X34150Y-31062D01*
X34187Y-31100D01*
X34425Y-31100D01*
X34425Y-31200D01*
X34187Y-31200D01*
X34150Y-31237D01*
X34150Y-31395D01*
X34150Y-31454D01*
X34172Y-31509D01*
X34197Y-31535D01*
X34002Y-31535D01*
X34027Y-31509D01*
X34050Y-31454D01*
X34050Y-31395D01*
X34050Y-30845D01*
X34027Y-30790D01*
X33984Y-30747D01*
X33929Y-30725D01*
X33870Y-30725D01*
X33520Y-30725D01*
X33465Y-30747D01*
X33422Y-30790D01*
X33400Y-30845D01*
X33400Y-30904D01*
X33400Y-30960D01*
X33282Y-30960D01*
X33227Y-30904D01*
X33120Y-30860D01*
X33005Y-30859D01*
X32990Y-30866D01*
X32990Y-30750D01*
X32975Y-30677D01*
X32934Y-30615D01*
X32934Y-30615D01*
X32878Y-30560D01*
X34109Y-30560D01*
X34164Y-30615D01*
X34271Y-30659D01*
X34386Y-30660D01*
X34493Y-30615D01*
X34575Y-30534D01*
X34619Y-30427D01*
X34619Y-30312D01*
X34575Y-30205D01*
X34493Y-30124D01*
X34387Y-30080D01*
X34271Y-30079D01*
X34165Y-30124D01*
X34109Y-30180D01*
X33685Y-30180D01*
X34047Y-29817D01*
X34126Y-29817D01*
X34233Y-29773D01*
X34289Y-29717D01*
X35342Y-29717D01*
X35415Y-29702D01*
X35477Y-29661D01*
X35484Y-29654D01*
X35484Y-29654D01*
X35484Y-29654D01*
X35525Y-29592D01*
X35534Y-29550D01*
X35654Y-29550D01*
X35709Y-29527D01*
X35752Y-29484D01*
X35775Y-29429D01*
X35775Y-29370D01*
X35775Y-29020D01*
X35752Y-28965D01*
X35709Y-28922D01*
X35654Y-28900D01*
X35595Y-28900D01*
X35045Y-28900D01*
X34990Y-28922D01*
X34947Y-28965D01*
X34925Y-29020D01*
X34925Y-29079D01*
X34925Y-29337D01*
X34775Y-29337D01*
X34775Y-24595D01*
X34775Y-24478D01*
X34737Y-24440D01*
X34400Y-24440D01*
X34400Y-24678D01*
X34437Y-24715D01*
X34595Y-24715D01*
X34654Y-24715D01*
X34709Y-24693D01*
X34752Y-24650D01*
X34775Y-24595D01*
X34775Y-29337D01*
X34300Y-29337D01*
X34300Y-24678D01*
X34300Y-24440D01*
X33962Y-24440D01*
X33925Y-24478D01*
X33925Y-24595D01*
X33947Y-24650D01*
X33990Y-24693D01*
X34045Y-24715D01*
X34104Y-24715D01*
X34262Y-24715D01*
X34300Y-24678D01*
X34300Y-29337D01*
X34289Y-29337D01*
X34233Y-29281D01*
X34127Y-29237D01*
X34011Y-29237D01*
X33975Y-29252D01*
X33975Y-29020D01*
X33975Y-28679D01*
X33975Y-28562D01*
X33975Y-28387D01*
X33975Y-28270D01*
X33952Y-28215D01*
X33909Y-28172D01*
X33854Y-28150D01*
X33795Y-28150D01*
X33637Y-28150D01*
X33600Y-28187D01*
X33600Y-28425D01*
X33937Y-28425D01*
X33975Y-28387D01*
X33975Y-28562D01*
X33937Y-28525D01*
X33600Y-28525D01*
X33600Y-28762D01*
X33637Y-28800D01*
X33795Y-28800D01*
X33854Y-28800D01*
X33909Y-28777D01*
X33952Y-28734D01*
X33975Y-28679D01*
X33975Y-29020D01*
X33952Y-28965D01*
X33909Y-28922D01*
X33854Y-28900D01*
X33795Y-28900D01*
X33500Y-28900D01*
X33500Y-28762D01*
X33500Y-28525D01*
X33500Y-28425D01*
X33500Y-28187D01*
X33462Y-28150D01*
X33425Y-28150D01*
X33425Y-24579D01*
X33425Y-24462D01*
X33387Y-24425D01*
X33050Y-24425D01*
X33050Y-24662D01*
X33087Y-24700D01*
X33245Y-24700D01*
X33304Y-24700D01*
X33359Y-24677D01*
X33402Y-24634D01*
X33425Y-24579D01*
X33425Y-28150D01*
X33304Y-28150D01*
X33245Y-28150D01*
X33190Y-28172D01*
X33147Y-28215D01*
X33125Y-28270D01*
X33125Y-28387D01*
X33162Y-28425D01*
X33500Y-28425D01*
X33500Y-28525D01*
X33162Y-28525D01*
X33125Y-28562D01*
X33125Y-28679D01*
X33147Y-28734D01*
X33190Y-28777D01*
X33245Y-28800D01*
X33304Y-28800D01*
X33462Y-28800D01*
X33500Y-28762D01*
X33500Y-28900D01*
X33245Y-28900D01*
X33190Y-28922D01*
X33147Y-28965D01*
X33125Y-29020D01*
X33125Y-29079D01*
X33125Y-29429D01*
X33147Y-29484D01*
X33190Y-29527D01*
X33245Y-29550D01*
X33251Y-29550D01*
X33015Y-29785D01*
X32950Y-29785D01*
X32950Y-24662D01*
X32950Y-24425D01*
X32612Y-24425D01*
X32575Y-24462D01*
X32575Y-24579D01*
X32597Y-24634D01*
X32640Y-24677D01*
X32695Y-24700D01*
X32754Y-24700D01*
X32912Y-24700D01*
X32950Y-24662D01*
X32950Y-29785D01*
X32700Y-29785D01*
X32700Y-27554D01*
X32700Y-27495D01*
X32700Y-27337D01*
X32700Y-27162D01*
X32700Y-27004D01*
X32700Y-26945D01*
X32677Y-26890D01*
X32634Y-26847D01*
X32579Y-26825D01*
X32462Y-26825D01*
X32425Y-26862D01*
X32425Y-27200D01*
X32662Y-27200D01*
X32700Y-27162D01*
X32700Y-27337D01*
X32662Y-27300D01*
X32425Y-27300D01*
X32425Y-27637D01*
X32462Y-27675D01*
X32579Y-27675D01*
X32634Y-27652D01*
X32677Y-27609D01*
X32700Y-27554D01*
X32700Y-29785D01*
X32325Y-29785D01*
X32325Y-27637D01*
X32325Y-27300D01*
X32325Y-27200D01*
X32325Y-26862D01*
X32287Y-26825D01*
X32170Y-26825D01*
X32115Y-26847D01*
X32072Y-26890D01*
X32050Y-26945D01*
X32050Y-27004D01*
X32050Y-27162D01*
X32087Y-27200D01*
X32325Y-27200D01*
X32325Y-27300D01*
X32087Y-27300D01*
X32050Y-27337D01*
X32050Y-27495D01*
X32050Y-27554D01*
X32072Y-27609D01*
X32115Y-27652D01*
X32170Y-27675D01*
X32287Y-27675D01*
X32325Y-27637D01*
X32325Y-29785D01*
X31567Y-29785D01*
X31568Y-29779D01*
X31553Y-29700D01*
X31508Y-29634D01*
X31442Y-29589D01*
X31405Y-29582D01*
X31405Y-29542D01*
X31440Y-29507D01*
X31485Y-29400D01*
X31485Y-29285D01*
X31441Y-29178D01*
X31359Y-29096D01*
X31296Y-29070D01*
X31648Y-28718D01*
X31648Y-28718D01*
X31648Y-28718D01*
X31689Y-28656D01*
X31704Y-28584D01*
X31704Y-27675D01*
X31829Y-27675D01*
X31884Y-27652D01*
X31927Y-27609D01*
X31950Y-27554D01*
X31950Y-27495D01*
X31950Y-26945D01*
X31927Y-26890D01*
X31884Y-26847D01*
X31829Y-26825D01*
X31770Y-26825D01*
X31420Y-26825D01*
X31365Y-26847D01*
X31354Y-26858D01*
X30745Y-26249D01*
X30684Y-26208D01*
X30611Y-26194D01*
X29005Y-26194D01*
X28932Y-26208D01*
X28870Y-26249D01*
X28430Y-26690D01*
X28430Y-25059D01*
X28430Y-24937D01*
X28392Y-24900D01*
X28150Y-24900D01*
X28150Y-25142D01*
X28187Y-25180D01*
X28250Y-25180D01*
X28309Y-25180D01*
X28364Y-25157D01*
X28407Y-25114D01*
X28430Y-25059D01*
X28430Y-26690D01*
X28050Y-27070D01*
X28050Y-25142D01*
X28050Y-24900D01*
X27807Y-24900D01*
X27770Y-24937D01*
X27770Y-25059D01*
X27792Y-25114D01*
X27835Y-25157D01*
X27890Y-25180D01*
X27949Y-25180D01*
X28012Y-25180D01*
X28050Y-25142D01*
X28050Y-27070D01*
X27913Y-27206D01*
X27835Y-27206D01*
X27728Y-27250D01*
X27646Y-27332D01*
X27602Y-27438D01*
X27602Y-27554D01*
X27646Y-27660D01*
X27728Y-27742D01*
X27834Y-27786D01*
X27950Y-27786D01*
X28056Y-27742D01*
X28138Y-27661D01*
X28182Y-27554D01*
X28182Y-27475D01*
X29083Y-26574D01*
X29097Y-26574D01*
X29091Y-26589D01*
X29091Y-26704D01*
X29135Y-26811D01*
X29191Y-26867D01*
X29191Y-28810D01*
X29205Y-28882D01*
X29247Y-28944D01*
X29489Y-29186D01*
X29489Y-29200D01*
X29474Y-29276D01*
X29474Y-29573D01*
X29474Y-29574D01*
X29473Y-29574D01*
X29176Y-29574D01*
X29100Y-29589D01*
X28907Y-29589D01*
X28840Y-29521D01*
X28840Y-29150D01*
X28825Y-29077D01*
X28784Y-29015D01*
X28609Y-28840D01*
X28547Y-28799D01*
X28475Y-28785D01*
X28425Y-28785D01*
X28425Y-28770D01*
X28425Y-28429D01*
X28425Y-28312D01*
X28425Y-28137D01*
X28425Y-28020D01*
X28402Y-27965D01*
X28359Y-27922D01*
X28304Y-27900D01*
X28245Y-27900D01*
X28087Y-27900D01*
X28050Y-27937D01*
X28050Y-28175D01*
X28387Y-28175D01*
X28425Y-28137D01*
X28425Y-28312D01*
X28387Y-28275D01*
X28050Y-28275D01*
X28050Y-28512D01*
X28087Y-28550D01*
X28245Y-28550D01*
X28304Y-28550D01*
X28359Y-28527D01*
X28402Y-28484D01*
X28425Y-28429D01*
X28425Y-28770D01*
X28402Y-28715D01*
X28359Y-28672D01*
X28304Y-28650D01*
X28245Y-28650D01*
X27944Y-28650D01*
X27940Y-28630D01*
X27899Y-28568D01*
X27880Y-28550D01*
X27912Y-28550D01*
X27950Y-28512D01*
X27950Y-28275D01*
X27950Y-28175D01*
X27950Y-27937D01*
X27912Y-27900D01*
X27754Y-27900D01*
X27695Y-27900D01*
X27640Y-27922D01*
X27597Y-27965D01*
X27575Y-28020D01*
X27575Y-28137D01*
X27612Y-28175D01*
X27950Y-28175D01*
X27950Y-28275D01*
X27612Y-28275D01*
X27575Y-28312D01*
X27575Y-28429D01*
X27597Y-28484D01*
X27607Y-28494D01*
X27559Y-28504D01*
X27497Y-28545D01*
X27450Y-28592D01*
X27409Y-28654D01*
X27395Y-28726D01*
X27395Y-29691D01*
X27179Y-29691D01*
X27179Y-27697D01*
X27135Y-27590D01*
X27053Y-27509D01*
X26947Y-27464D01*
X26832Y-27464D01*
X26725Y-27508D01*
X26669Y-27564D01*
X24999Y-27564D01*
X24926Y-27579D01*
X24865Y-27620D01*
X24736Y-27749D01*
X24734Y-27747D01*
X24679Y-27725D01*
X24620Y-27725D01*
X24270Y-27725D01*
X24215Y-27747D01*
X24172Y-27790D01*
X24150Y-27845D01*
X24150Y-27904D01*
X24150Y-28454D01*
X24172Y-28509D01*
X24215Y-28552D01*
X24217Y-28553D01*
X24213Y-28557D01*
X24199Y-28630D01*
X24199Y-28668D01*
X24103Y-28668D01*
X24048Y-28691D01*
X24006Y-28733D01*
X23983Y-28789D01*
X23983Y-28848D01*
X23983Y-29478D01*
X24006Y-29533D01*
X24048Y-29576D01*
X24103Y-29598D01*
X24163Y-29598D01*
X24675Y-29598D01*
X24730Y-29576D01*
X24772Y-29533D01*
X24795Y-29478D01*
X24795Y-29419D01*
X24795Y-28789D01*
X24772Y-28733D01*
X24730Y-28691D01*
X24675Y-28668D01*
X24616Y-28668D01*
X24650Y-28617D01*
X24659Y-28575D01*
X24659Y-28575D01*
X24679Y-28575D01*
X24734Y-28552D01*
X24777Y-28509D01*
X24800Y-28454D01*
X24800Y-28395D01*
X24800Y-28223D01*
X24930Y-28092D01*
X24937Y-28100D01*
X25175Y-28100D01*
X25175Y-28092D01*
X25275Y-28092D01*
X25275Y-28100D01*
X25512Y-28100D01*
X25550Y-28062D01*
X25550Y-27944D01*
X26669Y-27944D01*
X26725Y-28000D01*
X26831Y-28044D01*
X26946Y-28044D01*
X27053Y-28000D01*
X27135Y-27919D01*
X27179Y-27812D01*
X27179Y-27697D01*
X27179Y-29691D01*
X25701Y-29691D01*
X25701Y-29478D01*
X25701Y-29221D01*
X25701Y-29046D01*
X25701Y-28789D01*
X25678Y-28733D01*
X25636Y-28691D01*
X25581Y-28668D01*
X25550Y-28668D01*
X25550Y-28454D01*
X25550Y-28395D01*
X25550Y-28237D01*
X25512Y-28200D01*
X25275Y-28200D01*
X25275Y-28537D01*
X25312Y-28575D01*
X25429Y-28575D01*
X25484Y-28552D01*
X25527Y-28509D01*
X25550Y-28454D01*
X25550Y-28668D01*
X25521Y-28668D01*
X25383Y-28668D01*
X25345Y-28706D01*
X25345Y-29083D01*
X25664Y-29083D01*
X25701Y-29046D01*
X25701Y-29221D01*
X25664Y-29183D01*
X25345Y-29183D01*
X25345Y-29561D01*
X25383Y-29598D01*
X25521Y-29598D01*
X25581Y-29598D01*
X25636Y-29576D01*
X25678Y-29533D01*
X25701Y-29478D01*
X25701Y-29691D01*
X25293Y-29691D01*
X25245Y-29701D01*
X25245Y-29561D01*
X25245Y-29183D01*
X25245Y-29083D01*
X25245Y-28706D01*
X25208Y-28668D01*
X25175Y-28668D01*
X25175Y-28537D01*
X25175Y-28200D01*
X24937Y-28200D01*
X24900Y-28237D01*
X24900Y-28395D01*
X24900Y-28454D01*
X24922Y-28509D01*
X24965Y-28552D01*
X25020Y-28575D01*
X25137Y-28575D01*
X25175Y-28537D01*
X25175Y-28668D01*
X25069Y-28668D01*
X25009Y-28668D01*
X24954Y-28691D01*
X24912Y-28733D01*
X24889Y-28789D01*
X24889Y-29046D01*
X24927Y-29083D01*
X25245Y-29083D01*
X25245Y-29183D01*
X24927Y-29183D01*
X24889Y-29221D01*
X24889Y-29478D01*
X24912Y-29533D01*
X24954Y-29576D01*
X25009Y-29598D01*
X25069Y-29598D01*
X25208Y-29598D01*
X25245Y-29561D01*
X25245Y-29701D01*
X25220Y-29706D01*
X25159Y-29747D01*
X24785Y-30121D01*
X24743Y-30183D01*
X24740Y-30198D01*
X24730Y-30187D01*
X24675Y-30164D01*
X24615Y-30164D01*
X24477Y-30164D01*
X24439Y-30202D01*
X24439Y-30579D01*
X24447Y-30579D01*
X24447Y-30679D01*
X24439Y-30679D01*
X24439Y-31057D01*
X24477Y-31094D01*
X24615Y-31094D01*
X24675Y-31094D01*
X24729Y-31072D01*
X24729Y-31195D01*
X24679Y-31175D01*
X24562Y-31175D01*
X24525Y-31212D01*
X24525Y-31550D01*
X24532Y-31550D01*
X24532Y-31650D01*
X24525Y-31650D01*
X24525Y-31987D01*
X24562Y-32025D01*
X24679Y-32025D01*
X24731Y-32003D01*
X24743Y-32066D01*
X24785Y-32128D01*
X25618Y-32962D01*
X25546Y-33035D01*
X25275Y-33035D01*
X25275Y-33020D01*
X25252Y-32965D01*
X25209Y-32922D01*
X25154Y-32900D01*
X25095Y-32900D01*
X24545Y-32900D01*
X24490Y-32922D01*
X24447Y-32965D01*
X24425Y-33020D01*
X24425Y-31987D01*
X24425Y-31650D01*
X24425Y-31550D01*
X24425Y-31212D01*
X24387Y-31175D01*
X24339Y-31175D01*
X24339Y-31057D01*
X24339Y-30679D01*
X24339Y-30579D01*
X24339Y-30202D01*
X24302Y-30164D01*
X24163Y-30164D01*
X24103Y-30164D01*
X24048Y-30187D01*
X24006Y-30229D01*
X23983Y-30285D01*
X23983Y-30542D01*
X24021Y-30579D01*
X24339Y-30579D01*
X24339Y-30679D01*
X24021Y-30679D01*
X23983Y-30717D01*
X23983Y-30974D01*
X24006Y-31029D01*
X24048Y-31072D01*
X24103Y-31094D01*
X24163Y-31094D01*
X24302Y-31094D01*
X24339Y-31057D01*
X24339Y-31175D01*
X24270Y-31175D01*
X24215Y-31197D01*
X24172Y-31240D01*
X24150Y-31295D01*
X24150Y-31354D01*
X24150Y-31512D01*
X24187Y-31550D01*
X24425Y-31550D01*
X24425Y-31650D01*
X24187Y-31650D01*
X24150Y-31687D01*
X24150Y-31845D01*
X24150Y-31904D01*
X24172Y-31959D01*
X24215Y-32002D01*
X24270Y-32025D01*
X24387Y-32025D01*
X24425Y-31987D01*
X24425Y-33020D01*
X24425Y-33040D01*
X24382Y-33049D01*
X24366Y-33060D01*
X24050Y-33060D01*
X24050Y-32945D01*
X24027Y-32890D01*
X23984Y-32847D01*
X23929Y-32825D01*
X23870Y-32825D01*
X23668Y-32825D01*
X23926Y-32567D01*
X23967Y-32505D01*
X23982Y-32432D01*
X23982Y-27966D01*
X26109Y-25839D01*
X26150Y-25777D01*
X26165Y-25704D01*
X26165Y-25704D01*
X26165Y-25704D01*
X26165Y-23747D01*
X27272Y-23747D01*
X27344Y-23733D01*
X27406Y-23692D01*
X27800Y-23298D01*
X27800Y-23304D01*
X27822Y-23359D01*
X27865Y-23402D01*
X27920Y-23425D01*
X27979Y-23425D01*
X28133Y-23425D01*
X28240Y-23531D01*
X28240Y-23531D01*
X28302Y-23573D01*
X28354Y-23583D01*
X27922Y-23583D01*
X27849Y-23597D01*
X27788Y-23639D01*
X27077Y-24349D01*
X27036Y-24411D01*
X27021Y-24484D01*
X27021Y-26316D01*
X26966Y-26372D01*
X26922Y-26478D01*
X26921Y-26594D01*
X26965Y-26700D01*
X27047Y-26782D01*
X27154Y-26826D01*
X27269Y-26826D01*
X27376Y-26782D01*
X27457Y-26701D01*
X27501Y-26594D01*
X27502Y-26479D01*
X27457Y-26372D01*
X27401Y-26316D01*
X27401Y-24562D01*
X27770Y-24194D01*
X27770Y-24359D01*
X27792Y-24414D01*
X27835Y-24457D01*
X27890Y-24480D01*
X27915Y-24480D01*
X27923Y-24520D01*
X27890Y-24520D01*
X27835Y-24542D01*
X27792Y-24585D01*
X27770Y-24640D01*
X27770Y-24762D01*
X27807Y-24800D01*
X28050Y-24800D01*
X28050Y-24792D01*
X28150Y-24792D01*
X28150Y-24800D01*
X28381Y-24800D01*
X29337Y-25755D01*
X29399Y-25797D01*
X29472Y-25811D01*
X31100Y-25811D01*
X31156Y-25867D01*
X31262Y-25911D01*
X31378Y-25911D01*
X31484Y-25867D01*
X31566Y-25786D01*
X31610Y-25679D01*
X31610Y-25564D01*
X31566Y-25457D01*
X31485Y-25375D01*
X31378Y-25331D01*
X31263Y-25331D01*
X31156Y-25375D01*
X31100Y-25431D01*
X29550Y-25431D01*
X28949Y-24830D01*
X29109Y-24830D01*
X29164Y-24807D01*
X29207Y-24764D01*
X29230Y-24709D01*
X29230Y-24684D01*
X29272Y-24675D01*
X29334Y-24634D01*
X29532Y-24435D01*
X30327Y-24435D01*
X30363Y-24471D01*
X30412Y-24491D01*
X30363Y-24512D01*
X30321Y-24554D01*
X30298Y-24609D01*
X30298Y-24669D01*
X30298Y-24866D01*
X30321Y-24921D01*
X30363Y-24963D01*
X30418Y-24986D01*
X30478Y-24986D01*
X30793Y-24986D01*
X30848Y-24963D01*
X30884Y-24927D01*
X31115Y-24927D01*
X31151Y-24963D01*
X31206Y-24986D01*
X31266Y-24986D01*
X31581Y-24986D01*
X31636Y-24963D01*
X31678Y-24921D01*
X31701Y-24866D01*
X31701Y-24806D01*
X31701Y-24609D01*
X31678Y-24554D01*
X31636Y-24512D01*
X31587Y-24492D01*
X31636Y-24471D01*
X31678Y-24429D01*
X31701Y-24374D01*
X31701Y-24314D01*
X31701Y-24117D01*
X31678Y-24062D01*
X31636Y-24020D01*
X31587Y-24000D01*
X31630Y-23981D01*
X31735Y-24086D01*
X31797Y-24128D01*
X31870Y-24142D01*
X32586Y-24142D01*
X32575Y-24170D01*
X32575Y-24287D01*
X32612Y-24325D01*
X32950Y-24325D01*
X32950Y-24317D01*
X33050Y-24317D01*
X33050Y-24325D01*
X33387Y-24325D01*
X33425Y-24287D01*
X33425Y-24170D01*
X33413Y-24142D01*
X33943Y-24142D01*
X33925Y-24186D01*
X33925Y-24303D01*
X33962Y-24340D01*
X34300Y-24340D01*
X34300Y-24333D01*
X34400Y-24333D01*
X34400Y-24340D01*
X34737Y-24340D01*
X34775Y-24303D01*
X34775Y-24186D01*
X34756Y-24142D01*
X35026Y-24142D01*
X35007Y-24186D01*
X35007Y-24303D01*
X35045Y-24340D01*
X35382Y-24340D01*
X35382Y-24333D01*
X35482Y-24333D01*
X35482Y-24340D01*
X35820Y-24340D01*
X35857Y-24303D01*
X35857Y-24186D01*
X35839Y-24142D01*
X36109Y-24142D01*
X36090Y-24186D01*
X36090Y-24303D01*
X36128Y-24340D01*
X36465Y-24340D01*
X36465Y-24333D01*
X36565Y-24333D01*
X36565Y-24340D01*
X36903Y-24340D01*
X36940Y-24303D01*
X36940Y-24186D01*
X36918Y-24131D01*
X36914Y-24126D01*
X36973Y-24086D01*
X37632Y-23428D01*
X37674Y-23445D01*
X37734Y-23445D01*
X38228Y-23445D01*
X38228Y-23503D01*
X38150Y-23580D01*
X38089Y-23554D01*
X37911Y-23554D01*
X37747Y-23622D01*
X37622Y-23747D01*
X37554Y-23910D01*
X37554Y-24088D01*
X37622Y-24252D01*
X37747Y-24377D01*
X37910Y-24445D01*
X38088Y-24445D01*
X38252Y-24377D01*
X38377Y-24252D01*
X38408Y-24178D01*
X38408Y-24821D01*
X38377Y-24747D01*
X38252Y-24622D01*
X38089Y-24554D01*
X37911Y-24554D01*
X37747Y-24622D01*
X37622Y-24747D01*
X37554Y-24910D01*
X37554Y-25088D01*
X37622Y-25252D01*
X37747Y-25377D01*
X37910Y-25445D01*
X38088Y-25445D01*
X38252Y-25377D01*
X38377Y-25252D01*
X38408Y-25178D01*
X38408Y-25821D01*
X38377Y-25747D01*
X38252Y-25622D01*
X38089Y-25554D01*
X37911Y-25554D01*
X37747Y-25622D01*
X37622Y-25747D01*
X37554Y-25910D01*
X37554Y-26088D01*
X37622Y-26252D01*
X37747Y-26377D01*
X37910Y-26445D01*
X38088Y-26445D01*
X38252Y-26377D01*
X38377Y-26252D01*
X38408Y-26178D01*
X38408Y-26821D01*
X38377Y-26747D01*
X38252Y-26622D01*
X38089Y-26554D01*
X37911Y-26554D01*
X37747Y-26622D01*
X37622Y-26747D01*
X37554Y-26910D01*
X37554Y-27088D01*
X37622Y-27252D01*
X37747Y-27377D01*
X37910Y-27445D01*
X38088Y-27445D01*
X38252Y-27377D01*
X38377Y-27252D01*
X38408Y-27178D01*
X38408Y-27821D01*
X38377Y-27747D01*
X38252Y-27622D01*
X38089Y-27554D01*
X37911Y-27554D01*
X37747Y-27622D01*
X37622Y-27747D01*
X37554Y-27910D01*
X37554Y-28088D01*
X37622Y-28252D01*
X37747Y-28377D01*
X37910Y-28445D01*
X38088Y-28445D01*
X38252Y-28377D01*
X38377Y-28252D01*
X38408Y-28178D01*
X38408Y-28322D01*
X38150Y-28580D01*
X38089Y-28554D01*
X37911Y-28554D01*
X37747Y-28622D01*
X37622Y-28747D01*
X37554Y-28910D01*
X37554Y-29088D01*
X37622Y-29252D01*
X37747Y-29377D01*
X37910Y-29445D01*
X38088Y-29445D01*
X38252Y-29377D01*
X38377Y-29252D01*
X38445Y-29089D01*
X38445Y-28911D01*
X38419Y-28849D01*
X38582Y-28686D01*
X38582Y-29148D01*
X38150Y-29580D01*
X38089Y-29554D01*
X37911Y-29554D01*
X37747Y-29622D01*
X37622Y-29747D01*
X37554Y-29910D01*
X37554Y-30088D01*
X37622Y-30252D01*
X37747Y-30377D01*
X37910Y-30445D01*
X38088Y-30445D01*
X38252Y-30377D01*
X38377Y-30252D01*
X38445Y-30089D01*
X38445Y-29911D01*
X38419Y-29849D01*
X38906Y-29361D01*
X38906Y-29361D01*
X38906Y-29361D01*
X38947Y-29300D01*
X38962Y-29227D01*
X38962Y-29227D01*
X38962Y-29227D01*
X38962Y-22554D01*
X38962Y-22554D01*
X38962Y-22554D01*
X38947Y-22481D01*
X38906Y-22419D01*
X38852Y-22366D01*
X38852Y-21153D01*
X38846Y-20815D01*
X38729Y-20531D01*
X38620Y-20450D01*
X38549Y-20520D01*
X38549Y-20379D01*
X38468Y-20270D01*
X38153Y-20147D01*
X37815Y-20153D01*
X37531Y-20270D01*
X37450Y-20379D01*
X38000Y-20929D01*
X38549Y-20379D01*
X38549Y-20520D01*
X38070Y-21000D01*
X38620Y-21549D01*
X38729Y-21468D01*
X38852Y-21153D01*
X38852Y-22366D01*
X38289Y-21803D01*
X38468Y-21729D01*
X38549Y-21620D01*
X38000Y-21070D01*
X37929Y-21141D01*
X37929Y-21000D01*
X37379Y-20450D01*
X37270Y-20531D01*
X37147Y-20846D01*
X37153Y-21184D01*
X37270Y-21468D01*
X37379Y-21549D01*
X37929Y-21000D01*
X37929Y-21141D01*
X37450Y-21620D01*
X37521Y-21715D01*
X37393Y-21715D01*
X37314Y-21636D01*
X37252Y-21595D01*
X37179Y-21580D01*
X36445Y-21580D01*
X36445Y-20911D01*
X36377Y-20747D01*
X36252Y-20622D01*
X36089Y-20554D01*
X35911Y-20554D01*
X35747Y-20622D01*
X35622Y-20747D01*
X35554Y-20910D01*
X35554Y-21088D01*
X35622Y-21252D01*
X35747Y-21377D01*
X35910Y-21445D01*
X36088Y-21445D01*
X36252Y-21377D01*
X36377Y-21252D01*
X36445Y-21089D01*
X36445Y-20911D01*
X36445Y-21580D01*
X35445Y-21580D01*
X35445Y-20911D01*
X35377Y-20747D01*
X35252Y-20622D01*
X35089Y-20554D01*
X34911Y-20554D01*
X34747Y-20622D01*
X34622Y-20747D01*
X34554Y-20910D01*
X34554Y-21088D01*
X34622Y-21252D01*
X34747Y-21377D01*
X34910Y-21445D01*
X35088Y-21445D01*
X35252Y-21377D01*
X35377Y-21252D01*
X35445Y-21089D01*
X35445Y-20911D01*
X35445Y-21580D01*
X35432Y-21580D01*
X35360Y-21595D01*
X35298Y-21636D01*
X35257Y-21698D01*
X35248Y-21740D01*
X35128Y-21740D01*
X35073Y-21763D01*
X35030Y-21806D01*
X35022Y-21826D01*
X34949Y-21795D01*
X34834Y-21795D01*
X34760Y-21826D01*
X34752Y-21806D01*
X34709Y-21763D01*
X34654Y-21740D01*
X34595Y-21740D01*
X34445Y-21740D01*
X34445Y-20911D01*
X34377Y-20747D01*
X34252Y-20622D01*
X34089Y-20554D01*
X33911Y-20554D01*
X33747Y-20622D01*
X33622Y-20747D01*
X33554Y-20910D01*
X33554Y-21088D01*
X33622Y-21252D01*
X33747Y-21377D01*
X33910Y-21445D01*
X34088Y-21445D01*
X34252Y-21377D01*
X34377Y-21252D01*
X34445Y-21089D01*
X34445Y-20911D01*
X34445Y-21740D01*
X34045Y-21740D01*
X33990Y-21763D01*
X33947Y-21806D01*
X33925Y-21861D01*
X33925Y-21920D01*
X33925Y-22270D01*
X33947Y-22325D01*
X33952Y-22330D01*
X33445Y-22330D01*
X33445Y-20911D01*
X33377Y-20747D01*
X33252Y-20622D01*
X33089Y-20554D01*
X32911Y-20554D01*
X32747Y-20622D01*
X32622Y-20747D01*
X32554Y-20910D01*
X32554Y-21088D01*
X32622Y-21252D01*
X32747Y-21377D01*
X32910Y-21445D01*
X33088Y-21445D01*
X33252Y-21377D01*
X33377Y-21252D01*
X33445Y-21089D01*
X33445Y-20911D01*
X33445Y-22330D01*
X32445Y-22330D01*
X32445Y-20911D01*
X32377Y-20747D01*
X32252Y-20622D01*
X32089Y-20554D01*
X31911Y-20554D01*
X31747Y-20622D01*
X31622Y-20747D01*
X31554Y-20910D01*
X31554Y-21088D01*
X31622Y-21252D01*
X31747Y-21377D01*
X31910Y-21445D01*
X32088Y-21445D01*
X32252Y-21377D01*
X32377Y-21252D01*
X32445Y-21089D01*
X32445Y-20911D01*
X32445Y-22330D01*
X32412Y-22330D01*
X32340Y-22345D01*
X32278Y-22386D01*
X32278Y-22386D01*
X31630Y-23034D01*
X31581Y-23013D01*
X31521Y-23013D01*
X31445Y-23013D01*
X31445Y-20911D01*
X31377Y-20747D01*
X31252Y-20622D01*
X31089Y-20554D01*
X30911Y-20554D01*
X30747Y-20622D01*
X30622Y-20747D01*
X30554Y-20910D01*
X30554Y-21088D01*
X30622Y-21252D01*
X30747Y-21377D01*
X30910Y-21445D01*
X31088Y-21445D01*
X31252Y-21377D01*
X31377Y-21252D01*
X31445Y-21089D01*
X31445Y-20911D01*
X31445Y-23013D01*
X31206Y-23013D01*
X31151Y-23036D01*
X31109Y-23078D01*
X31086Y-23133D01*
X31086Y-23193D01*
X31086Y-23348D01*
X31029Y-23359D01*
X30967Y-23401D01*
X30842Y-23526D01*
X30799Y-23508D01*
X30848Y-23487D01*
X30890Y-23445D01*
X30913Y-23390D01*
X30913Y-23330D01*
X30913Y-23133D01*
X30890Y-23078D01*
X30848Y-23036D01*
X30793Y-23013D01*
X30733Y-23013D01*
X30445Y-23013D01*
X30445Y-20911D01*
X30377Y-20747D01*
X30252Y-20622D01*
X30089Y-20554D01*
X29911Y-20554D01*
X29747Y-20622D01*
X29622Y-20747D01*
X29554Y-20910D01*
X29554Y-21088D01*
X29622Y-21252D01*
X29747Y-21377D01*
X29910Y-21445D01*
X30088Y-21445D01*
X30252Y-21377D01*
X30377Y-21252D01*
X30445Y-21089D01*
X30445Y-20911D01*
X30445Y-23013D01*
X30418Y-23013D01*
X30363Y-23036D01*
X30327Y-23072D01*
X30255Y-23086D01*
X30194Y-23127D01*
X30152Y-23189D01*
X30149Y-23207D01*
X29445Y-23207D01*
X29445Y-20911D01*
X29377Y-20747D01*
X29252Y-20622D01*
X29089Y-20554D01*
X28911Y-20554D01*
X28747Y-20622D01*
X28622Y-20747D01*
X28554Y-20910D01*
X28554Y-21088D01*
X28622Y-21252D01*
X28747Y-21377D01*
X28910Y-21445D01*
X29088Y-21445D01*
X29252Y-21377D01*
X29377Y-21252D01*
X29445Y-21089D01*
X29445Y-20911D01*
X29445Y-23207D01*
X29200Y-23207D01*
X29200Y-23087D01*
X29200Y-22912D01*
X29200Y-22754D01*
X29200Y-22695D01*
X29177Y-22640D01*
X29134Y-22597D01*
X29079Y-22575D01*
X28962Y-22575D01*
X28925Y-22612D01*
X28925Y-22950D01*
X29162Y-22950D01*
X29200Y-22912D01*
X29200Y-23087D01*
X29162Y-23050D01*
X28925Y-23050D01*
X28925Y-23057D01*
X28825Y-23057D01*
X28825Y-23050D01*
X28825Y-22950D01*
X28825Y-22612D01*
X28787Y-22575D01*
X28670Y-22575D01*
X28615Y-22597D01*
X28572Y-22640D01*
X28550Y-22695D01*
X28550Y-22754D01*
X28550Y-22912D01*
X28587Y-22950D01*
X28825Y-22950D01*
X28825Y-23050D01*
X28587Y-23050D01*
X28550Y-23087D01*
X28550Y-23207D01*
X28453Y-23207D01*
X28450Y-23203D01*
X28450Y-22695D01*
X28445Y-22684D01*
X28445Y-20911D01*
X28377Y-20747D01*
X28252Y-20622D01*
X28089Y-20554D01*
X27911Y-20554D01*
X27747Y-20622D01*
X27622Y-20747D01*
X27554Y-20910D01*
X27554Y-21088D01*
X27622Y-21252D01*
X27747Y-21377D01*
X27910Y-21445D01*
X28088Y-21445D01*
X28252Y-21377D01*
X28377Y-21252D01*
X28445Y-21089D01*
X28445Y-20911D01*
X28445Y-22684D01*
X28427Y-22640D01*
X28384Y-22597D01*
X28329Y-22575D01*
X28270Y-22575D01*
X27920Y-22575D01*
X27865Y-22597D01*
X27822Y-22640D01*
X27800Y-22695D01*
X27800Y-22701D01*
X27445Y-22346D01*
X27445Y-20911D01*
X27377Y-20747D01*
X27252Y-20622D01*
X27089Y-20554D01*
X26911Y-20554D01*
X26747Y-20622D01*
X26622Y-20747D01*
X26554Y-20910D01*
X26554Y-21088D01*
X26622Y-21252D01*
X26747Y-21377D01*
X26910Y-21445D01*
X27088Y-21445D01*
X27252Y-21377D01*
X27377Y-21252D01*
X27445Y-21089D01*
X27445Y-20911D01*
X27445Y-22346D01*
X26960Y-21861D01*
X26898Y-21820D01*
X26825Y-21805D01*
X26445Y-21805D01*
X26445Y-20911D01*
X26377Y-20747D01*
X26252Y-20622D01*
X26089Y-20554D01*
X25911Y-20554D01*
X25747Y-20622D01*
X25622Y-20747D01*
X25554Y-20910D01*
X25554Y-21088D01*
X25622Y-21252D01*
X25747Y-21377D01*
X25910Y-21445D01*
X26088Y-21445D01*
X26252Y-21377D01*
X26377Y-21252D01*
X26445Y-21089D01*
X26445Y-20911D01*
X26445Y-21805D01*
X25445Y-21805D01*
X25445Y-20911D01*
X25377Y-20747D01*
X25252Y-20622D01*
X25089Y-20554D01*
X24911Y-20554D01*
X24747Y-20622D01*
X24622Y-20747D01*
X24554Y-20910D01*
X24554Y-21088D01*
X24622Y-21252D01*
X24747Y-21377D01*
X24910Y-21445D01*
X25088Y-21445D01*
X25252Y-21377D01*
X25377Y-21252D01*
X25445Y-21089D01*
X25445Y-20911D01*
X25445Y-21805D01*
X24445Y-21805D01*
X24445Y-20911D01*
X24377Y-20747D01*
X24252Y-20622D01*
X24089Y-20554D01*
X23911Y-20554D01*
X23747Y-20622D01*
X23622Y-20747D01*
X23554Y-20910D01*
X23554Y-21088D01*
X23622Y-21252D01*
X23747Y-21377D01*
X23910Y-21445D01*
X24088Y-21445D01*
X24252Y-21377D01*
X24377Y-21252D01*
X24445Y-21089D01*
X24445Y-20911D01*
X24445Y-21805D01*
X23445Y-21805D01*
X23445Y-21325D01*
X23445Y-21265D01*
X23445Y-20674D01*
X23422Y-20619D01*
X23380Y-20577D01*
X23325Y-20554D01*
X23265Y-20554D01*
X22674Y-20554D01*
X22619Y-20577D01*
X22577Y-20619D01*
X22554Y-20674D01*
X22554Y-20734D01*
X22554Y-21325D01*
X22577Y-21380D01*
X22619Y-21422D01*
X22674Y-21445D01*
X22734Y-21445D01*
X23325Y-21445D01*
X23380Y-21422D01*
X23422Y-21380D01*
X23445Y-21325D01*
X23445Y-21805D01*
X23004Y-21805D01*
X22931Y-21820D01*
X22869Y-21861D01*
X22169Y-22561D01*
X22128Y-22623D01*
X22119Y-22665D01*
X21999Y-22665D01*
X21944Y-22688D01*
X21901Y-22731D01*
X21879Y-22786D01*
X21879Y-22845D01*
X21879Y-23195D01*
X21901Y-23250D01*
X21944Y-23293D01*
X21999Y-23315D01*
X22058Y-23315D01*
X22608Y-23315D01*
X22663Y-23293D01*
X22706Y-23250D01*
X22729Y-23195D01*
X22729Y-23136D01*
X22729Y-22786D01*
X22706Y-22731D01*
X22663Y-22688D01*
X22608Y-22665D01*
X22602Y-22665D01*
X23082Y-22185D01*
X25462Y-22185D01*
X24586Y-23062D01*
X24572Y-23048D01*
X24517Y-23025D01*
X24458Y-23025D01*
X24405Y-23025D01*
X24441Y-22937D01*
X24441Y-22822D01*
X24397Y-22715D01*
X24316Y-22633D01*
X24209Y-22589D01*
X24094Y-22589D01*
X23987Y-22633D01*
X23906Y-22715D01*
X23864Y-22815D01*
X23837Y-22815D01*
X23837Y-22796D01*
X23815Y-22741D01*
X23772Y-22698D01*
X23717Y-22675D01*
X23658Y-22675D01*
X23298Y-22675D01*
X23243Y-22698D01*
X23200Y-22741D01*
X23177Y-22796D01*
X23177Y-22855D01*
X23177Y-23215D01*
X23200Y-23270D01*
X23243Y-23313D01*
X23298Y-23335D01*
X23357Y-23335D01*
X23717Y-23335D01*
X23772Y-23313D01*
X23815Y-23270D01*
X23837Y-23215D01*
X23837Y-23195D01*
X23977Y-23195D01*
X23977Y-23205D01*
X23977Y-23565D01*
X24000Y-23620D01*
X24037Y-23657D01*
X23837Y-23857D01*
X23837Y-23793D01*
X23837Y-23618D01*
X23837Y-23496D01*
X23815Y-23441D01*
X23772Y-23398D01*
X23717Y-23375D01*
X23658Y-23375D01*
X23595Y-23375D01*
X23557Y-23413D01*
X23557Y-23655D01*
X23800Y-23655D01*
X23837Y-23618D01*
X23837Y-23793D01*
X23800Y-23755D01*
X23557Y-23755D01*
X23557Y-23998D01*
X23595Y-24035D01*
X23658Y-24035D01*
X23659Y-24035D01*
X23497Y-24197D01*
X23457Y-24257D01*
X23457Y-23998D01*
X23457Y-23755D01*
X23457Y-23655D01*
X23457Y-23413D01*
X23420Y-23375D01*
X23357Y-23375D01*
X23298Y-23375D01*
X23243Y-23398D01*
X23200Y-23441D01*
X23177Y-23496D01*
X23177Y-23618D01*
X23215Y-23655D01*
X23457Y-23655D01*
X23457Y-23755D01*
X23215Y-23755D01*
X23177Y-23793D01*
X23177Y-23915D01*
X23200Y-23970D01*
X23243Y-24013D01*
X23298Y-24035D01*
X23357Y-24035D01*
X23420Y-24035D01*
X23457Y-23998D01*
X23457Y-24257D01*
X23456Y-24259D01*
X23442Y-24332D01*
X23442Y-24399D01*
X23327Y-24399D01*
X23272Y-24421D01*
X23229Y-24464D01*
X23207Y-24519D01*
X23207Y-24534D01*
X22955Y-24534D01*
X22955Y-24519D01*
X22932Y-24464D01*
X22889Y-24421D01*
X22834Y-24399D01*
X22775Y-24399D01*
X22729Y-24399D01*
X22729Y-23945D01*
X22729Y-23828D01*
X22729Y-23653D01*
X22729Y-23536D01*
X22706Y-23481D01*
X22663Y-23438D01*
X22608Y-23415D01*
X22549Y-23415D01*
X22391Y-23415D01*
X22354Y-23453D01*
X22354Y-23690D01*
X22691Y-23690D01*
X22729Y-23653D01*
X22729Y-23828D01*
X22691Y-23790D01*
X22354Y-23790D01*
X22354Y-24028D01*
X22391Y-24065D01*
X22549Y-24065D01*
X22608Y-24065D01*
X22663Y-24043D01*
X22706Y-24000D01*
X22729Y-23945D01*
X22729Y-24399D01*
X22254Y-24399D01*
X22254Y-24028D01*
X22254Y-23790D01*
X22254Y-23690D01*
X22254Y-23453D01*
X22216Y-23415D01*
X22058Y-23415D01*
X21999Y-23415D01*
X21944Y-23438D01*
X21901Y-23481D01*
X21879Y-23536D01*
X21879Y-23653D01*
X21916Y-23690D01*
X22254Y-23690D01*
X22254Y-23790D01*
X21916Y-23790D01*
X21879Y-23828D01*
X21879Y-23945D01*
X21901Y-24000D01*
X21944Y-24043D01*
X21999Y-24065D01*
X22058Y-24065D01*
X22216Y-24065D01*
X22254Y-24028D01*
X22254Y-24399D01*
X22225Y-24399D01*
X22170Y-24421D01*
X22127Y-24464D01*
X22105Y-24519D01*
X22105Y-24578D01*
X22105Y-24928D01*
X22127Y-24983D01*
X22170Y-25026D01*
X22225Y-25049D01*
X22284Y-25049D01*
X22834Y-25049D01*
X22889Y-25026D01*
X22932Y-24983D01*
X22955Y-24928D01*
X22955Y-24914D01*
X23207Y-24914D01*
X23207Y-24928D01*
X23229Y-24983D01*
X23272Y-25026D01*
X23327Y-25049D01*
X23386Y-25049D01*
X23494Y-25049D01*
X23456Y-25106D01*
X23447Y-25149D01*
X23327Y-25149D01*
X23272Y-25171D01*
X23229Y-25214D01*
X23207Y-25269D01*
X23207Y-25284D01*
X22955Y-25284D01*
X22955Y-25269D01*
X22932Y-25214D01*
X22889Y-25171D01*
X22834Y-25149D01*
X22775Y-25149D01*
X22225Y-25149D01*
X22170Y-25171D01*
X22127Y-25214D01*
X22105Y-25269D01*
X22105Y-25328D01*
X22105Y-25678D01*
X22127Y-25733D01*
X22170Y-25776D01*
X22225Y-25799D01*
X22284Y-25799D01*
X22834Y-25799D01*
X22889Y-25776D01*
X22932Y-25733D01*
X22955Y-25678D01*
X22955Y-25664D01*
X23207Y-25664D01*
X23207Y-25678D01*
X23229Y-25733D01*
X23272Y-25776D01*
X23327Y-25799D01*
X23386Y-25799D01*
X23442Y-25799D01*
X23442Y-31289D01*
X22100Y-32631D01*
X22100Y-24412D01*
X22055Y-24305D01*
X21974Y-24224D01*
X21867Y-24180D01*
X21752Y-24179D01*
X21645Y-24224D01*
X21564Y-24305D01*
X21520Y-24412D01*
X21519Y-24527D01*
X21564Y-24634D01*
X21580Y-24650D01*
X21580Y-25229D01*
X21524Y-25285D01*
X21480Y-25392D01*
X21479Y-25507D01*
X21524Y-25614D01*
X21605Y-25695D01*
X21712Y-25739D01*
X21827Y-25740D01*
X21934Y-25695D01*
X22015Y-25614D01*
X22059Y-25507D01*
X22060Y-25392D01*
X22015Y-25285D01*
X21960Y-25229D01*
X21960Y-24721D01*
X21974Y-24715D01*
X22055Y-24634D01*
X22099Y-24527D01*
X22100Y-24412D01*
X22100Y-32631D01*
X21445Y-33285D01*
X21445Y-32911D01*
X21445Y-31911D01*
X21445Y-30911D01*
X21445Y-29911D01*
X21445Y-28911D01*
X21445Y-27911D01*
X21445Y-26911D01*
X21445Y-25911D01*
X21445Y-24911D01*
X21445Y-23911D01*
X21445Y-22911D01*
X21377Y-22747D01*
X21252Y-22622D01*
X21089Y-22554D01*
X20911Y-22554D01*
X20747Y-22622D01*
X20622Y-22747D01*
X20554Y-22910D01*
X20554Y-23088D01*
X20622Y-23252D01*
X20747Y-23377D01*
X20910Y-23445D01*
X21088Y-23445D01*
X21252Y-23377D01*
X21377Y-23252D01*
X21445Y-23089D01*
X21445Y-22911D01*
X21445Y-23911D01*
X21377Y-23747D01*
X21252Y-23622D01*
X21089Y-23554D01*
X20911Y-23554D01*
X20747Y-23622D01*
X20622Y-23747D01*
X20554Y-23910D01*
X20554Y-24088D01*
X20622Y-24252D01*
X20747Y-24377D01*
X20910Y-24445D01*
X21088Y-24445D01*
X21252Y-24377D01*
X21377Y-24252D01*
X21445Y-24089D01*
X21445Y-23911D01*
X21445Y-24911D01*
X21377Y-24747D01*
X21252Y-24622D01*
X21089Y-24554D01*
X20911Y-24554D01*
X20747Y-24622D01*
X20622Y-24747D01*
X20554Y-24910D01*
X20554Y-25088D01*
X20622Y-25252D01*
X20747Y-25377D01*
X20910Y-25445D01*
X21088Y-25445D01*
X21252Y-25377D01*
X21377Y-25252D01*
X21445Y-25089D01*
X21445Y-24911D01*
X21445Y-25911D01*
X21377Y-25747D01*
X21252Y-25622D01*
X21089Y-25554D01*
X20911Y-25554D01*
X20747Y-25622D01*
X20622Y-25747D01*
X20554Y-25910D01*
X20554Y-26088D01*
X20622Y-26252D01*
X20747Y-26377D01*
X20910Y-26445D01*
X21088Y-26445D01*
X21252Y-26377D01*
X21377Y-26252D01*
X21445Y-26089D01*
X21445Y-25911D01*
X21445Y-26911D01*
X21377Y-26747D01*
X21252Y-26622D01*
X21089Y-26554D01*
X20911Y-26554D01*
X20747Y-26622D01*
X20622Y-26747D01*
X20554Y-26910D01*
X20554Y-27088D01*
X20622Y-27252D01*
X20747Y-27377D01*
X20910Y-27445D01*
X21088Y-27445D01*
X21252Y-27377D01*
X21377Y-27252D01*
X21445Y-27089D01*
X21445Y-26911D01*
X21445Y-27911D01*
X21377Y-27747D01*
X21252Y-27622D01*
X21089Y-27554D01*
X20911Y-27554D01*
X20747Y-27622D01*
X20622Y-27747D01*
X20554Y-27910D01*
X20554Y-28088D01*
X20622Y-28252D01*
X20747Y-28377D01*
X20910Y-28445D01*
X21088Y-28445D01*
X21252Y-28377D01*
X21377Y-28252D01*
X21445Y-28089D01*
X21445Y-27911D01*
X21445Y-28911D01*
X21377Y-28747D01*
X21252Y-28622D01*
X21089Y-28554D01*
X20911Y-28554D01*
X20747Y-28622D01*
X20622Y-28747D01*
X20554Y-28910D01*
X20554Y-29088D01*
X20622Y-29252D01*
X20747Y-29377D01*
X20910Y-29445D01*
X21088Y-29445D01*
X21252Y-29377D01*
X21377Y-29252D01*
X21445Y-29089D01*
X21445Y-28911D01*
X21445Y-29911D01*
X21377Y-29747D01*
X21252Y-29622D01*
X21089Y-29554D01*
X20911Y-29554D01*
X20747Y-29622D01*
X20622Y-29747D01*
X20554Y-29910D01*
X20554Y-30088D01*
X20622Y-30252D01*
X20747Y-30377D01*
X20910Y-30445D01*
X21088Y-30445D01*
X21252Y-30377D01*
X21377Y-30252D01*
X21445Y-30089D01*
X21445Y-29911D01*
X21445Y-30911D01*
X21377Y-30747D01*
X21252Y-30622D01*
X21089Y-30554D01*
X20911Y-30554D01*
X20747Y-30622D01*
X20622Y-30747D01*
X20554Y-30910D01*
X20554Y-31088D01*
X20622Y-31252D01*
X20747Y-31377D01*
X20910Y-31445D01*
X21088Y-31445D01*
X21252Y-31377D01*
X21377Y-31252D01*
X21445Y-31089D01*
X21445Y-30911D01*
X21445Y-31911D01*
X21377Y-31747D01*
X21252Y-31622D01*
X21089Y-31554D01*
X20911Y-31554D01*
X20747Y-31622D01*
X20622Y-31747D01*
X20554Y-31910D01*
X20554Y-32088D01*
X20622Y-32252D01*
X20747Y-32377D01*
X20910Y-32445D01*
X21088Y-32445D01*
X21252Y-32377D01*
X21377Y-32252D01*
X21445Y-32089D01*
X21445Y-31911D01*
X21445Y-32911D01*
X21377Y-32747D01*
X21252Y-32622D01*
X21089Y-32554D01*
X20911Y-32554D01*
X20747Y-32622D01*
X20622Y-32747D01*
X20554Y-32910D01*
X20554Y-33088D01*
X20622Y-33252D01*
X20747Y-33377D01*
X20910Y-33445D01*
X21088Y-33445D01*
X21252Y-33377D01*
X21377Y-33252D01*
X21445Y-33089D01*
X21445Y-32911D01*
X21445Y-33285D01*
X21150Y-33580D01*
X21089Y-33554D01*
X20911Y-33554D01*
X20747Y-33622D01*
X20622Y-33747D01*
X20554Y-33910D01*
X20554Y-34088D01*
X20622Y-34252D01*
X20747Y-34377D01*
X20752Y-34379D01*
X20430Y-34702D01*
X20389Y-34764D01*
X20374Y-34836D01*
X20374Y-35200D01*
X20389Y-35273D01*
X20430Y-35335D01*
X20656Y-35561D01*
X20619Y-35577D01*
X20577Y-35619D01*
X20554Y-35674D01*
X20554Y-35734D01*
X20554Y-36325D01*
X20573Y-36370D01*
X19910Y-36370D01*
X19910Y-21225D01*
X20000Y-21225D01*
X20021Y-21220D01*
X20043Y-21220D01*
X20426Y-21144D01*
X20507Y-21110D01*
X20832Y-20894D01*
X20832Y-20894D01*
X20894Y-20832D01*
X20894Y-20832D01*
X20894Y-20832D01*
X21110Y-20507D01*
X21110Y-20507D01*
X21110Y-20507D01*
X21144Y-20426D01*
X21220Y-20043D01*
X21220Y-20021D01*
X21225Y-20000D01*
X21225Y-19910D01*
X39145Y-19910D01*
X39145Y-36370D01*
M02*
