G04 (created by PCBNEW (2013-mar-13)-testing) date Sun 04 Aug 2013 09:21:59 PM CEST*
%MOIN*%
G04 Gerber Fmt 3.4, Leading zero omitted, Abs format*
%FSLAX34Y34*%
G01*
G70*
G90*
G04 APERTURE LIST*
%ADD10C,0.005906*%
%ADD11C,0.116000*%
%ADD12R,0.052000X0.052000*%
%ADD13R,0.027800X0.035700*%
%ADD14O,0.027000X0.055400*%
%ADD15O,0.055400X0.027000*%
%ADD16R,0.153800X0.153800*%
%ADD17R,0.047500X0.035700*%
%ADD18R,0.067200X0.079000*%
%ADD19C,0.156000*%
%ADD20R,0.071000X0.051000*%
%ADD21R,0.051000X0.071000*%
%ADD22C,0.086000*%
%ADD23R,0.086000X0.086000*%
%ADD24R,0.075100X0.075100*%
%ADD25C,0.075100*%
%ADD26R,0.036000X0.039600*%
%ADD27R,0.039600X0.036000*%
G04 APERTURE END LIST*
G54D10*
G54D11*
X21000Y-38000D03*
G54D12*
X28100Y-24850D03*
X28100Y-24150D03*
X28900Y-24500D03*
X23507Y-23705D03*
X23507Y-23005D03*
X24307Y-23355D03*
G54D13*
X25975Y-22549D03*
X26369Y-22549D03*
X26369Y-23179D03*
X26172Y-23179D03*
X25975Y-23179D03*
G54D14*
X29679Y-29425D03*
X30664Y-29425D03*
X30861Y-29425D03*
X30270Y-29425D03*
X30467Y-29425D03*
X30073Y-29425D03*
X29876Y-29425D03*
X29876Y-31315D03*
X30073Y-31315D03*
X30467Y-31315D03*
X30270Y-31315D03*
X30664Y-31315D03*
X30861Y-31315D03*
X29679Y-31315D03*
G54D15*
X31215Y-30370D03*
X31215Y-30567D03*
X31215Y-30961D03*
X31215Y-30764D03*
X31215Y-29976D03*
X31215Y-30173D03*
X31215Y-29779D03*
X29325Y-29779D03*
X29325Y-30173D03*
X29325Y-29976D03*
X29325Y-30764D03*
X29325Y-30961D03*
X29325Y-30567D03*
X29325Y-30370D03*
G54D16*
X30270Y-30370D03*
G54D17*
X31394Y-23262D03*
X31394Y-23754D03*
X31394Y-24738D03*
X31394Y-24246D03*
X30606Y-24246D03*
X30606Y-24738D03*
X30606Y-23754D03*
X30606Y-23262D03*
G54D18*
X25295Y-29133D03*
X25295Y-30629D03*
X24389Y-30629D03*
X24389Y-29133D03*
G54D19*
X38000Y-21000D03*
G54D20*
X24850Y-33225D03*
X24850Y-33975D03*
G54D21*
X28125Y-23000D03*
X28875Y-23000D03*
G54D20*
X23632Y-25474D03*
X23632Y-24724D03*
X22304Y-22990D03*
X22304Y-23740D03*
X33000Y-23625D03*
X33000Y-24375D03*
G54D21*
X22975Y-34150D03*
X23725Y-34150D03*
X24475Y-28150D03*
X25225Y-28150D03*
X25225Y-31600D03*
X24475Y-31600D03*
G54D20*
X28000Y-28975D03*
X28000Y-28225D03*
X32800Y-31725D03*
X32800Y-32475D03*
X28000Y-31825D03*
X28000Y-32575D03*
X33550Y-29225D03*
X33550Y-28475D03*
X36515Y-22065D03*
X36515Y-22815D03*
X35432Y-22065D03*
X35432Y-22815D03*
X34350Y-22065D03*
X34350Y-22815D03*
G54D21*
X23725Y-33250D03*
X22975Y-33250D03*
X32375Y-27250D03*
X31625Y-27250D03*
G54D20*
X36515Y-23640D03*
X36515Y-24390D03*
X35432Y-23640D03*
X35432Y-24390D03*
X34350Y-23640D03*
X34350Y-24390D03*
X22530Y-24724D03*
X22530Y-25474D03*
G54D21*
X34475Y-31150D03*
X33725Y-31150D03*
G54D20*
X35350Y-28475D03*
X35350Y-29225D03*
G54D22*
X33090Y-34560D03*
G54D23*
X32090Y-35560D03*
X32090Y-33560D03*
X34090Y-33560D03*
X34090Y-35560D03*
G54D24*
X23000Y-21000D03*
G54D25*
X24000Y-21000D03*
X25000Y-21000D03*
X26000Y-21000D03*
X27000Y-21000D03*
X28000Y-21000D03*
X29000Y-21000D03*
X30000Y-21000D03*
X31000Y-21000D03*
X32000Y-21000D03*
X33000Y-21000D03*
X34000Y-21000D03*
X35000Y-21000D03*
X36000Y-21000D03*
G54D24*
X21000Y-36000D03*
G54D25*
X21000Y-35000D03*
X21000Y-34000D03*
X21000Y-33000D03*
X21000Y-32000D03*
X21000Y-31000D03*
X21000Y-30000D03*
X21000Y-29000D03*
X21000Y-28000D03*
X21000Y-27000D03*
X21000Y-26000D03*
X21000Y-25000D03*
X21000Y-24000D03*
X21000Y-23000D03*
G54D24*
X38000Y-23000D03*
G54D25*
X38000Y-24000D03*
X38000Y-25000D03*
X38000Y-26000D03*
X38000Y-27000D03*
X38000Y-28000D03*
X38000Y-29000D03*
X38000Y-30000D03*
X38000Y-31000D03*
X38000Y-32000D03*
X38000Y-33000D03*
X38000Y-34000D03*
X38000Y-35000D03*
X38000Y-36000D03*
G54D26*
X30480Y-31812D03*
X30480Y-32248D03*
X30060Y-31812D03*
X30060Y-32248D03*
G54D27*
X30038Y-32600D03*
X29602Y-32600D03*
G54D26*
X30480Y-32652D03*
X30480Y-33088D03*
G54D27*
X30022Y-33450D03*
X30458Y-33450D03*
X30032Y-34200D03*
X30468Y-34200D03*
G54D26*
X30470Y-34988D03*
X30470Y-34552D03*
G54D27*
X30888Y-34560D03*
M02*
