M48
;DRILL file {Pcbnew (2013-mar-13)-testing} date Sun 04 Aug 2013 09:21:51 PM CEST
;FORMAT={-:-/ absolute / inch / decimal}
FMAT,2
INCH,TZ
T1C0.016
T2C0.039
T3C0.100
%
G90
G05
M72
T1
X2.055Y-2.201
X2.116Y-2.133
X2.177Y-2.545
X2.181Y-2.447
X2.1882Y-2.6607
X2.1956Y-2.9194
X2.2Y-3.0448
X2.2Y-3.575
X2.2022Y-2.794
X2.2044Y-3.3748
X2.2088Y-3.157
X2.2435Y-2.6061
X2.3034Y-2.8072
X2.3034Y-2.9172
X2.3034Y-3.0668
X2.3056Y-2.695
X2.325Y-3.575
X2.3345Y-3.2193
X2.395Y-2.239
X2.4152Y-2.288
X2.425Y-3.5
X2.4255Y-3.2564
X2.4269Y-2.6831
X2.4332Y-2.4001
X2.4416Y-2.5774
X2.462Y-2.4521
X2.492Y-3.2627
X2.495Y-2.239
X2.5Y-3.45
X2.5Y-3.575
X2.5298Y-2.5823
X2.5459Y-2.7083
X2.575Y-3.5
X2.5928Y-2.6572
X2.597Y-3.198
X2.6159Y-2.8336
X2.618Y-2.9281
X2.6278Y-2.7104
X2.643Y-3.133
X2.65Y-3.45
X2.65Y-3.575
X2.657Y-2.42
X2.675Y-3.325
X2.6889Y-2.7755
X2.6889Y-3.0567
X2.7212Y-2.6537
X2.725Y-3.25
X2.725Y-3.5
X2.7893Y-2.7497
X2.8Y-3.425
X2.8Y-3.575
X2.8153Y-3.0003
X2.828Y-3.124
X2.8502Y-2.5512
X2.8522Y-2.9889
X2.8574Y-2.3773
X2.875Y-2.192
X2.875Y-3.325
X2.875Y-3.5
X2.8798Y-2.8546
X2.905Y-3.1825
X2.9134Y-2.9267
X2.9381Y-2.6647
X2.947Y-2.193
X2.95Y-3.425
X2.95Y-3.575
X2.9687Y-2.7004
X2.993Y-2.28
X2.9958Y-3.006
X2.996Y-3.0674
X3.0138Y-2.599
X3.0167Y-2.6789
X3.027Y-3.037
X3.0538Y-2.8926
X3.055Y-3.067
X3.0588Y-3.0056
X3.0605Y-2.7564
X3.081Y-2.192
X3.1061Y-2.7739
X3.1121Y-2.8443
X3.1195Y-2.9343
X3.1321Y-2.5622
X3.154Y-2.19
X3.16Y-3.1725
X3.2025Y-2.86
X3.205Y-2.79
X3.2169Y-2.9283
X3.225Y-2.6175
X3.2538Y-3.1055
X3.265Y-2.85
X3.2675Y-2.535
X3.2814Y-2.9289
X3.3063Y-3.115
X3.3275Y-2.72
X3.3525Y-2.62
X3.355Y-2.525
X3.4069Y-2.9527
X3.415Y-3.215
X3.4329Y-3.037
X3.435Y-2.54
X3.435Y-2.645
X3.435Y-2.7525
X3.4506Y-2.844
X3.4891Y-2.2086
X3.493Y-3.0429
X3.5075Y-3.5825
X3.5168Y-3.3411
X3.5238Y-3.1086
X3.53Y-3.46
X3.58Y-2.62
X3.58Y-2.7175
X3.5825Y-2.52
X3.585Y-3.3925
X3.59Y-3.2175
X3.6025Y-3.5125
X3.675Y-3.2175
X3.6775Y-3.355
X3.6775Y-3.58
X3.68Y-3.475
X3.685Y-2.5375
X3.685Y-2.6525
X3.685Y-2.82
X3.687Y-3.08
X3.7338Y-2.4198
T2
X2.1Y-2.3
X2.1Y-2.4
X2.1Y-2.5
X2.1Y-2.6
X2.1Y-2.7
X2.1Y-2.8
X2.1Y-2.9
X2.1Y-3.
X2.1Y-3.1
X2.1Y-3.2
X2.1Y-3.3
X2.1Y-3.4
X2.1Y-3.5
X2.1Y-3.6
X2.3Y-2.1
X2.4Y-2.1
X2.5Y-2.1
X2.6Y-2.1
X2.7Y-2.1
X2.8Y-2.1
X2.9Y-2.1
X3.Y-2.1
X3.1Y-2.1
X3.2Y-2.1
X3.3Y-2.1
X3.4Y-2.1
X3.5Y-2.1
X3.6Y-2.1
X3.8Y-2.3
X3.8Y-2.4
X3.8Y-2.5
X3.8Y-2.6
X3.8Y-2.7
X3.8Y-2.8
X3.8Y-2.9
X3.8Y-3.
X3.8Y-3.1
X3.8Y-3.2
X3.8Y-3.3
X3.8Y-3.4
X3.8Y-3.5
X3.8Y-3.6
T3
X2.1Y-3.8
X3.8Y-2.1
T0
M30
