<?xml version="1.0" standalone="no"?>
 <!DOCTYPE svg PUBLIC "-//W3C//DTD SVG 1.1//EN" 
 "http://www.w3.org/Graphics/SVG/1.1/DTD/svg11.dtd"> 
<svg xmlns="http://www.w3.org/2000/svg" version="1.1" 
    width="29.7002cm" height="21.0007cm" viewBox="0 0 116930 82680 ">
<title>SVG Picture created as VirtualSense_TADSP--brd.svg date 2013/09/25 17:51:03 </title>
  <desc>Picture generated by PCBNEW </desc>
<g style="fill:#000000; fill-opacity:1;stroke:#000000; stroke-opacity:1;
stroke-linecap:round; stroke-linejoin:round; "
 transform="translate(0 0) scale(1 1)">
</g>
<g style="fill:#000000; fill-opacity:0.0; 
stroke:#000000; stroke-width:39.3701; stroke-opacity:1; 
stroke-linecap:round; stroke-linejoin:round;">
<rect x="-845466" y="-845466" width="0" height="0" rx="0" />
<rect x="-845466" y="-845466" width="0" height="0" rx="0" />
<path d="M-845466 -845466
L-845466 -845466
" />
<path d="M-845466 -845466
L-845466 -845466
" />
<path d="M-845466 -845466
L-845466 -845466
" />
<path d="M-845466 -845466
L-845466 -845466
" />
<path d="M-845466 -845466
L-845466 -845466
" />
<path d="M-845353 -845227
L-845269 -845199
L-845128 -845199
L-845072 -845227
L-845044 -845255
L-845016 -845311
L-845016 -845367
L-845044 -845423
L-845072 -845451
L-845128 845451
L-845241 845423
L-845297 845395
L-845325 845367
L-845353 845311
L-845353 845255
L-845325 845199
L-845297 845171
L-845241 845142
L-845100 845142
L-845016 845171
" />
<path d="M-844763 -845199
L-844763 845142
" />
<path d="M-844510 -845199
L-844510 845423
L-844538 845367
L-844595 845339
L-844679 845339
L-844735 845367
L-844763 845395
" />
<path d="M-844005 -845227
L-844061 -845199
L-844173 -845199
L-844229 -845227
L-844257 -845283
L-844257 845423
L-844229 845367
L-844173 845339
L-844061 845339
L-844005 845367
L-843976 845423
L-843976 -845451
L-844257 -845395
" />
<path d="M-843499 -845227
L-843555 -845199
L-843667 -845199
L-843724 -845227
L-843752 -845283
L-843752 845423
L-843724 845367
L-843667 845339
L-843555 845339
L-843499 845367
L-843471 845423
L-843471 -845451
L-843752 -845395
" />
<path d="M-843302 845339
L-843077 845339
" />
<path d="M-843218 845142
L-843218 -845283
L-843190 -845227
L-843134 -845199
L-843077 -845199
" />
<path d="M-842881 -845255
L-842853 -845227
L-842881 -845199
L-842909 -845227
L-842881 -845255
L-842881 -845199
" />
<path d="M-842881 845367
L-842853 845395
L-842881 845423
L-842909 845395
L-842881 845367
L-842881 845423
" />
<path d="M-841729 845114
L-842235 -845058
" />
<path d="M-841532 -845199
L-841532 845142
" />
<path d="M-841279 -845199
L-841279 845423
L-841307 845367
L-841364 845339
L-841448 845339
L-841504 845367
L-841532 845395
" />
<path d="M-840914 -845199
L-840970 -845227
L-840998 -845255
L-841026 -845311
L-841026 845451
L-840998 845395
L-840970 845367
L-840914 845339
L-840830 845339
L-840774 845367
L-840746 845395
L-840717 845451
L-840717 -845311
L-840746 -845255
L-840774 -845227
L-840830 -845199
L-840914 -845199
" />
<path d="M-840465 -845199
L-840465 845339
" />
<path d="M-840465 845395
L-840436 845367
L-840380 845339
L-840296 845339
L-840240 845367
L-840212 845423
L-840212 -845199
" />
<path d="M-840212 845423
L-840184 845367
L-840127 845339
L-840043 845339
L-839987 845367
L-839959 845423
L-839959 -845199
" />
<path d="M-839453 -845227
L-839509 -845199
L-839622 -845199
L-839678 -845227
L-839706 -845283
L-839706 845423
L-839678 845367
L-839622 845339
L-839509 845339
L-839453 845367
L-839425 845423
L-839425 -845451
L-839706 -845395
" />
<path d="M-838751 845114
L-839256 -845058
" />
<path d="M-838554 -845199
L-838554 845339
" />
<path d="M-838554 845395
L-838526 845367
L-838470 845339
L-838386 845339
L-838329 845367
L-838301 845423
L-838301 -845199
" />
<path d="M-838301 845423
L-838273 845367
L-838217 845339
L-838133 845339
L-838076 845367
L-838048 845423
L-838048 -845199
" />
<path d="M-837515 -845199
L-837515 845423
L-837543 845367
L-837599 845339
L-837711 845339
L-837767 845367
" />
<path d="M-837515 -845227
L-837571 -845199
L-837711 -845199
L-837767 -845227
L-837796 -845283
L-837796 -845339
L-837767 -845395
L-837711 -845423
L-837571 -845423
L-837515 -845451
" />
<path d="M-837318 845339
L-837093 845339
" />
<path d="M-837234 845142
L-837234 -845283
L-837206 -845227
L-837149 -845199
L-837093 -845199
" />
<path d="M-836981 845339
L-836756 845339
" />
<path d="M-836896 845142
L-836896 -845283
L-836868 -845227
L-836812 -845199
L-836756 -845199
" />
<path d="M-836335 -845227
L-836391 -845199
L-836503 -845199
L-836559 -845227
L-836587 -845283
L-836587 845423
L-836559 845367
L-836503 845339
L-836391 845339
L-836335 845367
L-836306 845423
L-836306 -845451
L-836587 -845395
" />
<path d="M-835969 -845199
L-836026 -845227
L-836054 -845255
L-836082 -845311
L-836082 845451
L-836054 845395
L-836026 845367
L-835969 845339
L-835885 845339
L-835829 845367
L-835801 845395
L-835773 845451
L-835773 -845311
L-835801 -845255
L-835829 -845227
L-835885 -845199
L-835969 -845199
" />
<path d="M-835098 845114
L-835604 -845058
" />
<path d="M-834958 845339
L-834817 -845199
L-834677 845339
" />
<path d="M-834452 -845199
L-834452 845339
" />
<path d="M-834452 845142
L-834480 845171
L-834452 845199
L-834424 845171
L-834452 845142
L-834452 845199
" />
<path d="M-834171 -845199
L-834171 845339
" />
<path d="M-834171 845451
L-834143 845395
L-834115 845367
L-834059 845339
L-834003 845339
" />
<path d="M-833890 845339
L-833666 845339
" />
<path d="M-833806 845142
L-833806 -845283
L-833778 -845227
L-833722 -845199
L-833666 -845199
" />
<path d="M-833216 845339
L-833216 -845199
" />
<path d="M-833469 845339
L-833469 -845283
L-833441 -845227
L-833385 -845199
L-833300 -845199
L-833244 -845227
L-833216 -845255
" />
<path d="M-832682 -845199
L-832682 845423
L-832710 845367
L-832766 845339
L-832879 845339
L-832935 845367
" />
<path d="M-832682 -845227
L-832738 -845199
L-832879 -845199
L-832935 -845227
L-832963 -845283
L-832963 -845339
L-832935 -845395
L-832879 -845423
L-832738 -845423
L-832682 -845451
" />
<path d="M-832317 -845199
L-832373 -845227
L-832401 -845283
L-832401 845142
" />
<path d="M-832092 -845423
L-831643 -845423
" />
<path d="M-831390 -845227
L-831334 -845199
L-831221 -845199
L-831165 -845227
L-831137 -845283
L-831137 -845311
L-831165 -845367
L-831221 -845395
L-831306 -845395
L-831362 -845423
L-831390 845451
L-831390 845423
L-831362 845367
L-831306 845339
L-831221 845339
L-831165 845367
" />
<path d="M-830659 -845227
L-830716 -845199
L-830828 -845199
L-830884 -845227
L-830912 -845283
L-830912 845423
L-830884 845367
L-830828 845339
L-830716 845339
L-830659 845367
L-830631 845423
L-830631 -845451
L-830912 -845395
" />
<path d="M-830378 845339
L-830378 -845199
" />
<path d="M-830378 845395
L-830350 845367
L-830294 845339
L-830210 845339
L-830154 845367
L-830126 845423
L-830126 -845199
" />
<path d="M-829873 -845227
L-829816 -845199
L-829704 -845199
L-829648 -845227
L-829620 -845283
L-829620 -845311
L-829648 -845367
L-829704 -845395
L-829788 -845395
L-829845 -845423
L-829873 845451
L-829873 845423
L-829845 845367
L-829788 845339
L-829704 845339
L-829648 845367
" />
<path d="M-829142 -845227
L-829198 -845199
L-829311 -845199
L-829367 -845227
L-829395 -845283
L-829395 845423
L-829367 845367
L-829311 845339
L-829198 845339
L-829142 845367
L-829114 845423
L-829114 -845451
L-829395 -845395
" />
<path d="M-828861 -845255
L-828833 -845227
L-828861 -845199
L-828889 -845227
L-828861 -845255
L-828861 -845199
" />
<path d="M-828580 -845199
L-828580 845142
" />
<path d="M-828327 -845199
L-828327 845423
L-828356 845367
L-828412 845339
L-828496 845339
L-828552 845367
L-828580 845395
" />
<path d="M-827794 -845199
L-827794 845423
L-827822 845367
L-827878 845339
L-827990 845339
L-828046 845367
" />
<path d="M-827794 -845227
L-827850 -845199
L-827990 -845199
L-828046 -845227
L-828075 -845283
L-828075 -845339
L-828046 -845395
L-827990 -845423
L-827850 -845423
L-827794 -845451
" />
<path d="M-827513 -845199
L-827513 845339
" />
<path d="M-827513 845451
L-827485 845395
L-827456 845367
L-827400 845339
L-827344 845339
" />
<path d="M-826895 -845199
L-826895 845142
" />
<path d="M-826895 -845227
L-826951 -845199
L-827063 -845199
L-827119 -845227
L-827147 -845255
L-827176 -845311
L-827176 845451
L-827147 845395
L-827119 845367
L-827063 845339
L-826951 845339
L-826895 845367
" />
<path d="M-826670 845339
L-826557 -845199
L-826445 845451
L-826333 -845199
L-826220 845339
" />
<path d="M-825743 -845199
L-825743 845423
L-825771 845367
L-825827 845339
L-825939 845339
L-825996 845367
" />
<path d="M-825743 -845227
L-825799 -845199
L-825939 -845199
L-825996 -845227
L-826024 -845283
L-826024 -845339
L-825996 -845395
L-825939 -845423
L-825799 -845423
L-825743 -845451
" />
<path d="M-825462 -845199
L-825462 845339
" />
<path d="M-825462 845451
L-825434 845395
L-825406 845367
L-825349 845339
L-825293 845339
" />
<path d="M-824872 -845227
L-824928 -845199
L-825040 -845199
L-825096 -845227
L-825125 -845283
L-825125 845423
L-825096 845367
L-825040 845339
L-824928 845339
L-824872 845367
L-824844 845423
L-824844 -845451
L-825125 -845395
" />
<path d="M-824169 845114
L-824675 -845058
" />
<path d="M-823664 -845199
L-824001 -845199
" />
<path d="M-823832 -845199
L-823832 845142
L-823888 845227
L-823945 845283
L-824001 845311
" />
<path d="M-823411 -845255
L-823383 -845227
L-823411 -845199
L-823439 -845227
L-823411 -845255
L-823411 -845199
" />
<path d="M-822821 -845199
L-823158 -845199
" />
<path d="M-822989 -845199
L-822989 845142
L-823046 845227
L-823102 845283
L-823158 845311
" />
<path d="M-822568 -845255
L-822540 -845227
L-822568 -845199
L-822596 -845227
L-822568 -845255
L-822568 -845199
" />
<path d="M-822175 845142
L-822118 845142
L-822062 845171
L-822034 845199
L-822006 845255
L-821978 845367
L-821978 -845423
L-822006 -845311
L-822034 -845255
L-822062 -845227
L-822118 -845199
L-822175 -845199
L-822231 -845227
L-822259 -845255
L-822287 -845311
L-822315 -845423
L-822315 845367
L-822287 845255
L-822259 845199
L-822231 845171
L-822175 845142
" />
<path d="M-821304 845114
L-821809 -845058
" />
<path d="M-821191 845142
L-820854 845142
" />
<path d="M-821023 -845199
L-821023 845142
" />
<path d="M-820433 -845227
L-820489 -845199
L-820601 -845199
L-820657 -845227
L-820686 -845283
L-820686 845423
L-820657 845367
L-820601 845339
L-820489 845339
L-820433 845367
L-820405 845423
L-820405 -845451
L-820686 -845395
" />
<path d="M-820180 -845227
L-820124 -845199
L-820011 -845199
L-819955 -845227
L-819927 -845283
L-819927 -845311
L-819955 -845367
L-820011 -845395
L-820096 -845395
L-820152 -845423
L-820180 845451
L-820180 845423
L-820152 845367
L-820096 845339
L-820011 845339
L-819955 845367
" />
<path d="M-819758 845339
L-819534 845339
" />
<path d="M-819674 845142
L-819674 -845283
L-819646 -845227
L-819590 -845199
L-819534 -845199
" />
<path d="M-819365 -845367
L-819084 -845367
" />
<path d="M-819421 -845199
L-819225 845142
L-819028 -845199
" />
<path d="M-818578 845339
L-818578 -845199
" />
<path d="M-818831 845339
L-818831 -845283
L-818803 -845227
L-818747 -845199
L-818663 -845199
L-818606 -845227
L-818578 -845255
" />
<path d="M-818045 -845199
L-818045 845142
" />
<path d="M-818045 -845227
L-818101 -845199
L-818213 -845199
L-818269 -845227
L-818297 -845255
L-818326 -845311
L-818326 845451
L-818297 845395
L-818269 845367
L-818213 845339
L-818101 845339
L-818045 845367
" />
<path d="M-817764 -845199
L-817764 845339
" />
<path d="M-817764 845142
L-817792 845171
L-817764 845199
L-817736 845171
L-817764 845142
L-817764 845199
" />
<path d="M-817398 -845199
L-817455 -845227
L-817483 -845255
L-817511 -845311
L-817511 845451
L-817483 845395
L-817455 845367
L-817398 845339
L-817314 845339
L-817258 845367
L-817230 845395
L-817202 845451
L-817202 -845311
L-817230 -845255
L-817258 -845227
L-817314 -845199
L-817398 -845199
" />
<path d="M-816949 -845199
L-816949 845142
L-816808 845142
L-816724 845171
L-816668 845227
L-816640 845283
L-816612 845395
L-816612 -845451
L-816640 -845339
L-816668 -845283
L-816724 -845227
L-816808 -845199
L-816949 -845199
" />
<path d="M-816387 -845227
L-816303 -845199
L-816162 -845199
L-816106 -845227
L-816078 -845255
L-816050 -845311
L-816050 -845367
L-816078 -845423
L-816106 -845451
L-816162 845451
L-816275 845423
L-816331 845395
L-816359 845367
L-816387 845311
L-816387 845255
L-816359 845199
L-816331 845171
L-816275 845142
L-816134 845142
L-816050 845171
" />
<path d="M-815797 -845199
L-815797 845142
L-815572 845142
L-815516 845171
L-815488 845199
L-815460 845255
L-815460 845339
L-815488 845395
L-815516 845423
L-815572 845451
L-815797 845451
" />
<path d="M-814786 845114
L-815291 -845058
" />
<path d="M-814673 845142
L-814476 -845199
L-814280 845142
" />
<path d="M-814083 -845199
L-814083 845339
" />
<path d="M-814083 845142
L-814111 845171
L-814083 845199
L-814055 845171
L-814083 845142
L-814083 845199
" />
<path d="M-813802 -845199
L-813802 845339
" />
<path d="M-813802 845451
L-813774 845395
L-813746 845367
L-813690 845339
L-813634 845339
" />
<path d="M-813521 845339
L-813296 845339
" />
<path d="M-813437 845142
L-813437 -845283
L-813409 -845227
L-813353 -845199
L-813296 -845199
" />
<path d="M-812847 845339
L-812847 -845199
" />
<path d="M-813100 845339
L-813100 -845283
L-813072 -845227
L-813016 -845199
L-812931 -845199
L-812875 -845227
L-812847 -845255
" />
<path d="M-812313 -845199
L-812313 845423
L-812341 845367
L-812397 845339
L-812510 845339
L-812566 845367
" />
<path d="M-812313 -845227
L-812369 -845199
L-812510 -845199
L-812566 -845227
L-812594 -845283
L-812594 -845339
L-812566 -845395
L-812510 -845423
L-812369 -845423
L-812313 -845451
" />
<path d="M-811948 -845199
L-812004 -845227
L-812032 -845283
L-812032 845142
" />
<path d="M-811751 -845227
L-811667 -845199
L-811526 -845199
L-811470 -845227
L-811442 -845255
L-811414 -845311
L-811414 -845367
L-811442 -845423
L-811470 -845451
L-811526 845451
L-811639 845423
L-811695 845395
L-811723 845367
L-811751 845311
L-811751 845255
L-811723 845199
L-811695 845171
L-811639 845142
L-811498 845142
L-811414 845171
" />
<path d="M-810936 -845227
L-810993 -845199
L-811105 -845199
L-811161 -845227
L-811189 -845283
L-811189 845423
L-811161 845367
L-811105 845339
L-810993 845339
L-810936 845367
L-810908 845423
L-810908 -845451
L-811189 -845395
" />
<path d="M-810656 845339
L-810656 -845199
" />
<path d="M-810656 845395
L-810627 845367
L-810571 845339
L-810487 845339
L-810431 845367
L-810403 845423
L-810403 -845199
" />
<path d="M-810150 -845227
L-810094 -845199
L-809981 -845199
L-809925 -845227
L-809897 -845283
L-809897 -845311
L-809925 -845367
L-809981 -845395
L-810066 -845395
L-810122 -845423
L-810150 845451
L-810150 845423
L-810122 845367
L-810066 845339
L-809981 845339
L-809925 845367
" />
<path d="M-809419 -845227
L-809476 -845199
L-809588 -845199
L-809644 -845227
L-809672 -845283
L-809672 845423
L-809644 845367
L-809588 845339
L-809476 845339
L-809419 845367
L-809391 845423
L-809391 -845451
L-809672 -845395
" />
<path d="M-809279 -845142
L-808829 -845142
" />
<path d="M-808773 845142
L-808436 845142
" />
<path d="M-808605 -845199
L-808605 845142
" />
<path d="M-808267 -845367
L-807986 -845367
" />
<path d="M-808324 -845199
L-808127 845142
L-807930 -845199
" />
<path d="M-807734 -845199
L-807734 845142
L-807593 845142
L-807509 845171
L-807453 845227
L-807425 845283
L-807396 845395
L-807396 -845451
L-807425 -845339
L-807453 -845283
L-807509 -845227
L-807593 -845199
L-807734 -845199
" />
<path d="M-807172 -845227
L-807087 -845199
L-806947 -845199
L-806891 -845227
L-806863 -845255
L-806835 -845311
L-806835 -845367
L-806863 -845423
L-806891 -845451
L-806947 845451
L-807059 845423
L-807116 845395
L-807144 845367
L-807172 845311
L-807172 845255
L-807144 845199
L-807116 845171
L-807059 845142
L-806919 845142
L-806835 845171
" />
<path d="M-806582 -845199
L-806582 845142
L-806357 845142
L-806301 845171
L-806273 845199
L-806245 845255
L-806245 845339
L-806273 845395
L-806301 845423
L-806357 845451
L-806582 845451
" />
<path d="M-805992 -845255
L-805964 -845227
L-805992 -845199
L-806020 -845227
L-805992 -845255
L-805992 -845199
" />
<path d="M-805711 -845199
L-805711 845142
" />
<path d="M-805711 845367
L-805655 845339
L-805542 845339
L-805486 845367
L-805458 845395
L-805430 845451
L-805430 -845311
L-805458 -845255
L-805486 -845227
L-805542 -845199
L-805655 -845199
L-805711 -845227
" />
<path d="M-805177 -845199
L-805177 845339
" />
<path d="M-805177 845451
L-805149 845395
L-805121 845367
L-805065 845339
L-805008 845339
" />
<path d="M-804559 -845199
L-804559 845142
" />
<path d="M-804559 -845227
L-804615 -845199
L-804727 -845199
L-804784 -845227
L-804812 -845255
L-804840 -845311
L-804840 845451
L-804812 845395
L-804784 845367
L-804727 845339
L-804615 845339
L-804559 845367
" />
<path d="M-845128 845423
L-845325 845423
" />
<path d="M-845325 -845199
L-845325 845142
L-845044 845142
" />
<path d="M-844819 -845199
L-844819 845339
" />
<path d="M-844819 845142
L-844847 845171
L-844819 845199
L-844791 845171
L-844819 845142
L-844819 845199
" />
<path d="M-844454 -845199
L-844510 -845227
L-844538 -845283
L-844538 845142
" />
<path d="M-844005 -845227
L-844061 -845199
L-844173 -845199
L-844229 -845227
L-844257 -845283
L-844257 845423
L-844229 845367
L-844173 845339
L-844061 845339
L-844005 845367
L-843976 845423
L-843976 -845451
L-844257 -845395
" />
<path d="M-843724 -845255
L-843696 -845227
L-843724 -845199
L-843752 -845227
L-843724 -845255
L-843724 -845199
" />
<path d="M-843724 845367
L-843696 845395
L-843724 845423
L-843752 845395
L-843724 845367
L-843724 845423
" />
</g>
<g style="fill:#000000; fill-opacity:0.0; 
stroke:#000000; stroke-width:118; stroke-opacity:1; 
stroke-linecap:round; stroke-linejoin:round;">
<path d="M-845409 845142
L-845072 845142
" />
<path d="M-845241 -845199
L-845241 845142
" />
<path d="M-844876 -845199
L-844876 845339
" />
<path d="M-844876 845142
L-844904 845171
L-844876 845199
L-844847 845171
L-844876 845142
L-844876 845199
" />
<path d="M-844679 845339
L-844454 845339
" />
<path d="M-844595 845142
L-844595 -845283
L-844566 -845227
L-844510 -845199
L-844454 -845199
" />
<path d="M-844173 -845199
L-844229 -845227
L-844257 -845283
L-844257 845142
" />
<path d="M-843724 -845227
L-843780 -845199
L-843892 -845199
L-843948 -845227
L-843976 -845283
L-843976 845423
L-843948 845367
L-843892 845339
L-843780 845339
L-843724 845367
L-843696 845423
L-843696 -845451
L-843976 -845395
" />
<path d="M-843443 -845255
L-843415 -845227
L-843443 -845199
L-843471 -845227
L-843443 -845255
L-843443 -845199
" />
<path d="M-843443 845367
L-843415 845395
L-843443 845423
L-843471 845395
L-843443 845367
L-843443 845423
" />
</g>
<g style="fill:#000000; fill-opacity:0.0; 
stroke:#000000; stroke-width:39.3701; stroke-opacity:1; 
stroke-linecap:round; stroke-linejoin:round;">
<path d="M-845325 -845199
L-845325 845142
" />
<path d="M-844791 -845199
L-844791 845142
" />
<path d="M-844791 -845227
L-844847 -845199
L-844960 -845199
L-845016 -845227
L-845044 -845255
L-845072 -845311
L-845072 845451
L-845044 845395
L-845016 845367
L-844960 845339
L-844847 845339
L-844791 845367
" />
<path d="M-844510 -845255
L-844482 -845227
L-844510 -845199
L-844538 -845227
L-844510 -845255
L-844510 -845199
" />
<path d="M-844510 845367
L-844482 845395
L-844510 845423
L-844538 845395
L-844510 845367
L-844510 845423
" />
<path d="M-843471 -845199
L-843808 -845199
" />
<path d="M-843639 -845199
L-843639 845142
L-843696 845227
L-843752 845283
L-843808 845311
" />
<path d="M-842796 845114
L-843302 -845058
" />
<path d="M-842291 -845199
L-842628 -845199
" />
<path d="M-842459 -845199
L-842459 845142
L-842516 845227
L-842572 845283
L-842628 845311
" />
<path d="M-845353 -845227
L-845269 -845199
L-845128 -845199
L-845072 -845227
L-845044 -845255
L-845016 -845311
L-845016 -845367
L-845044 -845423
L-845072 -845451
L-845128 845451
L-845241 845423
L-845297 845395
L-845325 845367
L-845353 845311
L-845353 845255
L-845325 845199
L-845297 845171
L-845241 845142
L-845100 845142
L-845016 845171
" />
<path d="M-844763 -845199
L-844763 845339
" />
<path d="M-844763 845142
L-844791 845171
L-844763 845199
L-844735 845171
L-844763 845142
L-844763 845199
" />
<path d="M-844538 845339
L-844229 845339
L-844538 -845199
L-844229 -845199
" />
<path d="M-843780 -845227
L-843836 -845199
L-843948 -845199
L-844005 -845227
L-844033 -845283
L-844033 845423
L-844005 845367
L-843948 845339
L-843836 845339
L-843780 845367
L-843752 845423
L-843752 -845451
L-844033 -845395
" />
<path d="M-843499 -845255
L-843471 -845227
L-843499 -845199
L-843527 -845227
L-843499 -845255
L-843499 -845199
" />
<path d="M-843499 845367
L-843471 845395
L-843499 845423
L-843527 845395
L-843499 845367
L-843499 845423
" />
<path d="M-842796 -845367
L-842516 -845367
" />
<path d="M-842853 -845199
L-842656 845142
L-842459 -845199
" />
<path d="M-842010 845339
L-842010 -845199
" />
<path d="M-842150 845114
L-842291 -845395
L-841926 -845395
" />
</g>
<g style="fill:#000000; fill-opacity:0.0; 
stroke:#000000; stroke-width:118; stroke-opacity:1; 
stroke-linecap:round; stroke-linejoin:round;">
<path d="M-844988 -845199
L-845185 845451
" />
<path d="M-845325 -845199
L-845325 845142
L-845100 845142
L-845044 845171
L-845016 845199
L-844988 845255
L-844988 845339
L-845016 845395
L-845044 845423
L-845100 845451
L-845325 845451
" />
<path d="M-844510 -845227
L-844566 -845199
L-844679 -845199
L-844735 -845227
L-844763 -845283
L-844763 845423
L-844735 845367
L-844679 845339
L-844566 845339
L-844510 845367
L-844482 845423
L-844482 -845451
L-844763 -845395
" />
<path d="M-844286 845339
L-844145 -845199
L-844005 845339
" />
<path d="M-843780 -845255
L-843752 -845227
L-843780 -845199
L-843808 -845227
L-843780 -845255
L-843780 -845199
" />
<path d="M-843780 845367
L-843752 845395
L-843780 845423
L-843808 845395
L-843780 845367
L-843780 845423
" />
<path d="M-843077 845199
L-843049 845171
L-842993 845142
L-842853 845142
L-842796 845171
L-842768 845199
L-842740 845255
L-842740 845311
L-842768 845395
L-843106 -845199
L-842740 -845199
" />
</g>
<g style="fill:#000000; fill-opacity:0.0; 
stroke:#000000; stroke-width:39.3701; stroke-opacity:1; 
stroke-linecap:round; stroke-linejoin:round;">
<path d="M-845325 -845199
L-845325 845142
" />
<path d="M-844988 -845199
L-845241 845395
" />
<path d="M-844988 845142
L-845325 -845451
" />
<path d="M-844735 -845199
L-844735 845339
" />
<path d="M-844735 845142
L-844763 845171
L-844735 845199
L-844707 845171
L-844735 845142
L-844735 845199
" />
<path d="M-844117 -845255
L-844145 -845227
L-844229 -845199
L-844286 -845199
L-844370 -845227
L-844426 -845283
L-844454 -845339
L-844482 -845451
L-844482 845395
L-844454 845283
L-844426 845227
L-844370 845171
L-844286 845142
L-844229 845142
L-844145 845171
L-844117 845199
" />
<path d="M-843611 -845199
L-843611 845423
L-843639 845367
L-843696 845339
L-843808 845339
L-843864 845367
" />
<path d="M-843611 -845227
L-843667 -845199
L-843808 -845199
L-843864 -845227
L-843892 -845283
L-843892 -845339
L-843864 -845395
L-843808 -845423
L-843667 -845423
L-843611 -845451
" />
<path d="M-843077 -845199
L-843077 845142
" />
<path d="M-843077 -845227
L-843134 -845199
L-843246 -845199
L-843302 -845227
L-843330 -845255
L-843358 -845311
L-843358 845451
L-843330 845395
L-843302 845367
L-843246 845339
L-843134 845339
L-843077 845367
" />
<path d="M-842347 845423
L-842150 845423
" />
<path d="M-842066 -845199
L-842347 -845199
L-842347 845142
L-842066 845142
" />
<path d="M-841813 -845255
L-841785 -845227
L-841813 -845199
L-841841 -845227
L-841813 -845255
L-841813 -845199
" />
<path d="M-841532 -845199
L-841532 845142
L-841392 845142
L-841307 845171
L-841251 845227
L-841223 845283
L-841195 845395
L-841195 -845451
L-841223 -845339
L-841251 -845283
L-841307 -845227
L-841392 -845199
L-841532 -845199
" />
<path d="M-840942 -845255
L-840914 -845227
L-840942 -845199
L-840970 -845227
L-840942 -845255
L-840942 -845199
" />
<path d="M-840689 -845367
L-840408 -845367
" />
<path d="M-840746 -845199
L-840549 845142
L-840352 -845199
" />
<path d="M-840156 -845255
L-840127 -845227
L-840156 -845199
L-840184 -845227
L-840156 -845255
L-840156 -845199
" />
<path d="M-838976 845339
L-838976 -845002
" />
<path d="M-838976 845367
L-838919 845339
L-838807 845339
L-838751 845367
L-838723 845395
L-838695 845451
L-838695 -845311
L-838723 -845255
L-838751 -845227
L-838807 -845199
L-838919 -845199
L-838976 -845227
" />
<path d="M-838189 -845227
L-838245 -845199
L-838357 -845199
L-838414 -845227
L-838442 -845255
L-838470 -845311
L-838470 845451
L-838442 845395
L-838414 845367
L-838357 845339
L-838245 845339
L-838189 845367
" />
<path d="M-837936 -845199
L-837936 845142
" />
<path d="M-837936 845367
L-837880 845339
L-837767 845339
L-837711 845367
L-837683 845395
L-837655 845451
L-837655 -845311
L-837683 -845255
L-837711 -845227
L-837767 -845199
L-837880 -845199
L-837936 -845227
" />
<path d="M-837402 845339
L-837402 -845199
" />
<path d="M-837402 845395
L-837374 845367
L-837318 845339
L-837234 845339
L-837177 845367
L-837149 845423
L-837149 -845199
" />
<path d="M-836644 -845227
L-836700 -845199
L-836812 -845199
L-836868 -845227
L-836896 -845283
L-836896 845423
L-836868 845367
L-836812 845339
L-836700 845339
L-836644 845367
L-836616 845423
L-836616 -845451
L-836896 -845395
" />
<path d="M-836419 845339
L-836306 -845199
L-836194 845451
L-836082 -845199
L-835969 845339
" />
<path d="M-835126 -844974
L-835155 -845002
L-835211 -845086
L-835239 -845142
L-835267 -845227
L-835295 -845367
L-835295 845451
L-835267 845311
L-835239 845227
L-835211 845171
L-835155 845086
L-835126 845058
" />
<path d="M-834930 845199
L-834902 845171
L-834846 845142
L-834705 845142
L-834649 845171
L-834621 845199
L-834593 845255
L-834593 845311
L-834621 845395
L-834958 -845199
L-834593 -845199
" />
<path d="M-834227 845142
L-834171 845142
L-834115 845171
L-834087 845199
L-834059 845255
L-834031 845367
L-834031 -845423
L-834059 -845311
L-834087 -845255
L-834115 -845227
L-834171 -845199
L-834227 -845199
L-834284 -845227
L-834312 -845255
L-834340 -845311
L-834368 -845423
L-834368 845367
L-834340 845255
L-834312 845199
L-834284 845171
L-834227 845142
" />
<path d="M-833469 -845199
L-833806 -845199
" />
<path d="M-833637 -845199
L-833637 845142
L-833694 845227
L-833750 845283
L-833806 845311
" />
<path d="M-833272 845142
L-832907 845142
L-833104 845367
L-833019 845367
L-832963 845395
L-832935 845423
L-832907 -845451
L-832907 -845311
L-832935 -845255
L-832963 -845227
L-833019 -845199
L-833188 -845199
L-833244 -845227
L-833272 -845255
" />
<path d="M-832654 -845423
L-832205 -845423
" />
<path d="M-831924 -845199
L-831924 845339
" />
<path d="M-831924 845395
L-831896 845367
L-831839 845339
L-831755 845339
L-831699 845367
L-831671 845423
L-831671 -845199
" />
<path d="M-831671 845423
L-831643 845367
L-831586 845339
L-831502 845339
L-831446 845367
L-831418 845423
L-831418 -845199
" />
<path d="M-830884 -845199
L-830884 845423
L-830912 845367
L-830968 845339
L-831081 845339
L-831137 845367
" />
<path d="M-830884 -845227
L-830940 -845199
L-831081 -845199
L-831137 -845227
L-831165 -845283
L-831165 -845339
L-831137 -845395
L-831081 -845423
L-830940 -845423
L-830884 -845451
" />
<path d="M-830603 -845199
L-830603 845339
" />
<path d="M-830603 845451
L-830575 845395
L-830547 845367
L-830491 845339
L-830435 845339
" />
<path d="M-830238 -845423
L-829788 -845423
" />
<path d="M-829198 -845199
L-829536 -845199
" />
<path d="M-829367 -845199
L-829367 845142
L-829423 845227
L-829479 845283
L-829536 845311
" />
<path d="M-829002 845142
L-828636 845142
L-828833 845367
L-828749 845367
L-828693 845395
L-828665 845423
L-828636 -845451
L-828636 -845311
L-828665 -845255
L-828693 -845227
L-828749 -845199
L-828917 -845199
L-828974 -845227
L-829002 -845255
" />
<path d="M-828440 -844974
L-828412 -845002
L-828356 -845086
L-828327 -845142
L-828299 -845227
L-828271 -845367
L-828271 845451
L-828299 845311
L-828327 845227
L-828356 845171
L-828412 845086
L-828440 845058
" />
<path d="M-827990 -845423
L-827541 -845423
" />
<path d="M-827344 845339
L-827119 845339
" />
<path d="M-827260 845142
L-827260 -845283
L-827232 -845227
L-827176 -845199
L-827119 -845199
" />
<path d="M-826698 -845227
L-826754 -845199
L-826866 -845199
L-826923 -845227
L-826951 -845283
L-826951 845423
L-826923 845367
L-826866 845339
L-826754 845339
L-826698 845367
L-826670 845423
L-826670 -845451
L-826951 -845395
" />
<path d="M-826445 -845227
L-826389 -845199
L-826276 -845199
L-826220 -845227
L-826192 -845283
L-826192 -845311
L-826220 -845367
L-826276 -845395
L-826361 -845395
L-826417 -845423
L-826445 845451
L-826445 845423
L-826417 845367
L-826361 845339
L-826276 845339
L-826220 845367
" />
<path d="M-826024 845339
L-825799 845339
" />
<path d="M-825939 845142
L-825939 -845283
L-825911 -845227
L-825855 -845199
L-825799 -845199
" />
<path d="M-825602 -845199
L-825602 845339
" />
<path d="M-825602 845142
L-825630 845171
L-825602 845199
L-825574 845171
L-825602 845142
L-825602 845199
" />
<path d="M-825321 845339
L-825321 -845199
" />
<path d="M-825321 845395
L-825293 845367
L-825237 845339
L-825153 845339
L-825096 845367
L-825068 845423
L-825068 -845199
" />
<path d="M-824535 845339
L-824535 -845114
L-824563 -845058
L-824591 -845030
L-824647 -845002
L-824731 -845002
L-824787 -845030
" />
<path d="M-824535 -845227
L-824591 -845199
L-824703 -845199
L-824759 -845227
L-824787 -845255
L-824816 -845311
L-824816 845451
L-824787 845395
L-824759 845367
L-824703 845339
L-824591 845339
L-824535 845367
" />
<path d="M-845325 -845199
L-845325 845142
L-845185 845142
L-845100 845171
L-845044 845227
L-845016 845283
L-844988 845395
L-844988 -845451
L-845016 -845339
L-845044 -845283
L-845100 -845227
L-845185 -845199
L-845325 -845199
" />
<path d="M-844482 -845199
L-844482 845423
L-844510 845367
L-844566 845339
L-844679 845339
L-844735 845367
" />
<path d="M-844482 -845227
L-844538 -845199
L-844679 -845199
L-844735 -845227
L-844763 -845283
L-844763 -845339
L-844735 -845395
L-844679 -845423
L-844538 -845423
L-844482 -845451
" />
<path d="M-844286 845339
L-844061 845339
" />
<path d="M-844201 845142
L-844201 -845283
L-844173 -845227
L-844117 -845199
L-844061 -845199
" />
<path d="M-843639 -845227
L-843696 -845199
L-843808 -845199
L-843864 -845227
L-843892 -845283
L-843892 845423
L-843864 845367
L-843808 845339
L-843696 845339
L-843639 845367
L-843611 845423
L-843611 -845451
L-843892 -845395
" />
<path d="M-843358 -845255
L-843330 -845227
L-843358 -845199
L-843386 -845227
L-843358 -845255
L-843358 -845199
" />
<path d="M-843358 845367
L-843330 845395
L-843358 845423
L-843386 845395
L-843358 845367
L-843358 845423
" />
<path d="M-842656 845199
L-842628 845171
L-842572 845142
L-842431 845142
L-842375 845171
L-842347 845199
L-842319 845255
L-842319 845311
L-842347 845395
L-842684 -845199
L-842319 -845199
" />
<path d="M-842122 845142
L-841757 845142
L-841954 845367
L-841869 845367
L-841813 845395
L-841785 845423
L-841757 -845451
L-841757 -845311
L-841785 -845255
L-841813 -845227
L-841869 -845199
L-842038 -845199
L-842094 -845227
L-842122 -845255
" />
<path d="M-841055 -845199
L-841055 845339
" />
<path d="M-841055 845395
L-841026 845367
L-840970 845339
L-840886 845339
L-840830 845367
L-840802 845423
L-840802 -845199
" />
<path d="M-840802 845423
L-840774 845367
L-840717 845339
L-840633 845339
L-840577 845367
L-840549 845423
L-840549 -845199
" />
<path d="M-840015 -845199
L-840015 845423
L-840043 845367
L-840099 845339
L-840212 845339
L-840268 845367
" />
<path d="M-840015 -845227
L-840071 -845199
L-840212 -845199
L-840268 -845227
L-840296 -845283
L-840296 -845339
L-840268 -845395
L-840212 -845423
L-840071 -845423
L-840015 -845451
" />
<path d="M-839790 845339
L-839650 -845199
" />
<path d="M-839509 845339
L-839650 -845199
L-839706 -845058
L-839734 -845030
L-839790 -845002
" />
<path d="M-838863 845199
L-838835 845171
L-838779 845142
L-838638 845142
L-838582 845171
L-838554 845199
L-838526 845255
L-838526 845311
L-838554 845395
L-838891 -845199
L-838526 -845199
" />
<path d="M-838161 845142
L-838105 845142
L-838048 845171
L-838020 845199
L-837992 845255
L-837964 845367
L-837964 -845423
L-837992 -845311
L-838020 -845255
L-838048 -845227
L-838105 -845199
L-838161 -845199
L-838217 -845227
L-838245 -845255
L-838273 -845311
L-838301 -845423
L-838301 845367
L-838273 845255
L-838245 845199
L-838217 845171
L-838161 845142
" />
<path d="M-837402 -845199
L-837739 -845199
" />
<path d="M-837571 -845199
L-837571 845142
L-837627 845227
L-837683 845283
L-837739 845311
" />
<path d="M-837206 845142
L-836840 845142
L-837037 845367
L-836953 845367
L-836896 845395
L-836868 845423
L-836840 -845451
L-836840 -845311
L-836868 -845255
L-836896 -845227
L-836953 -845199
L-837121 -845199
L-837177 -845227
L-837206 -845255
" />
<path d="M-845466 -845466
L-845466 -845466
" />
<path d="M-845466 -845466
L-845466 -845466
" />
<path d="M-845466 -845466
L-845466 -845466
" />
</g>
<g style="fill:#000000; fill-opacity:0.0; 
stroke:#000000; stroke-width:150; stroke-opacity:1; 
stroke-linecap:round; stroke-linejoin:round;">
<path d="M26500 23000
L45500 23000
" />
<path d="M24500 25000
L24500 44000
" />
<path d="M39500 44000
L24500 44000
" />
<path d="M45500 23000
L45500 42000
" />
<path d="M40000 42000 A500 500 0.0 0 0 39500 42500 " />
<path d="M39500 44000
L39500 42500
" />
<path d="M45500 42000
L40000 42000
" />
<path d="M25500 25000 A1000 1000 0.0 0 0 26500 24000 " />
<path d="M24500 25000
L25500 25000
" />
<path d="M26500 23000
L26500 24000
" />
</g>
<g style="fill:#000000; fill-opacity:0.0; 
stroke:#000000; stroke-width:120; stroke-opacity:1; 
stroke-linecap:round; stroke-linejoin:round;">
<path d="M48701 35671
L48701 35957
L49082 35985
L49044 35957
L49006 35900
L49006 35757
L49044 35700
L49082 35671
L49159 35642
L49349 35642
L49425 35671
L49463 35700
L49501 35757
L49501 35900
L49463 35957
L49425 35985
" />
<path d="M48701 35442
L48701 35071
L49006 35271
L49006 35185
L49044 35128
L49082 35100
L49159 35071
L49349 35071
L49425 35100
L49463 35128
L49501 35185
L49501 35357
L49463 35414
L49425 35442
" />
<path d="M49425 34814
L49463 34785
L49501 34814
L49463 34842
L49425 34814
L49501 34814
" />
<path d="M48701 34585
L48701 34214
L49006 34414
L49006 34328
L49044 34271
L49082 34242
L49159 34214
L49349 34214
L49425 34242
L49463 34271
L49501 34328
L49501 34500
L49463 34557
L49425 34585
" />
<path d="M48968 33700
L49501 33700
" />
<path d="M48663 33842
L49235 33985
L49235 33614
" />
<path d="M48701 33271
L48701 33214
L48740 33157
L48778 33128
L48854 33100
L49006 33071
L49197 33071
L49349 33100
L49425 33128
L49463 33157
L49501 33214
L49501 33271
L49463 33328
L49425 33357
L49349 33385
L49197 33414
L49006 33414
L48854 33385
L48778 33357
L48740 33328
L48701 33271
" />
<path d="M49501 32357
L48968 32357
" />
<path d="M49044 32357
L49006 32328
L48968 32271
L48968 32185
L49006 32128
L49082 32099
L49501 32099
" />
<path d="M49082 32099
L49006 32071
L48968 32014
L48968 31928
L49006 31871
L49082 31842
L49501 31842
" />
<path d="M49501 31557
L48968 31557
" />
<path d="M49044 31557
L49006 31528
L48968 31471
L48968 31385
L49006 31328
L49082 31299
L49501 31299
" />
<path d="M49082 31299
L49006 31271
L48968 31214
L48968 31128
L49006 31071
L49082 31042
L49501 31042
" />
<path d="M48500 44000
L48500 23000
" />
<path d="M45500 44000
L49780 44000
" />
<path d="M45500 23000
L49780 23000
" />
<path d="M48500 23000
L48730 23443
" />
<path d="M48500 23000
L48269 23443
" />
<path d="M48500 44000
L48730 43556
" />
<path d="M48500 44000
L48269 43556
" />
<path d="M32828 47201
L32542 47201
L32514 47582
L32542 47544
L32599 47506
L32742 47506
L32799 47544
L32828 47582
L32857 47659
L32857 47849
L32828 47925
L32799 47963
L32742 48001
L32599 48001
L32542 47963
L32514 47925
" />
<path d="M33057 47201
L33428 47201
L33228 47506
L33314 47506
L33371 47544
L33399 47582
L33428 47659
L33428 47849
L33399 47925
L33371 47963
L33314 48001
L33142 48001
L33085 47963
L33057 47925
" />
<path d="M33685 47925
L33714 47963
L33685 48001
L33657 47963
L33685 47925
L33685 48001
" />
<path d="M33914 47201
L34285 47201
L34085 47506
L34171 47506
L34228 47544
L34257 47582
L34285 47659
L34285 47849
L34257 47925
L34228 47963
L34171 48001
L34000 48001
L33942 47963
L33914 47925
" />
<path d="M34800 47468
L34800 48001
" />
<path d="M34657 47163
L34514 47735
L34885 47735
" />
<path d="M35228 47201
L35285 47201
L35342 47240
L35371 47278
L35400 47354
L35428 47506
L35428 47697
L35400 47849
L35371 47925
L35342 47963
L35285 48001
L35228 48001
L35171 47963
L35142 47925
L35114 47849
L35085 47697
L35085 47506
L35114 47354
L35142 47278
L35171 47240
L35228 47201
" />
<path d="M36142 48001
L36142 47468
" />
<path d="M36142 47544
L36171 47506
L36228 47468
L36314 47468
L36371 47506
L36400 47582
L36400 48001
" />
<path d="M36400 47582
L36428 47506
L36485 47468
L36571 47468
L36628 47506
L36657 47582
L36657 48001
" />
<path d="M36942 48001
L36942 47468
" />
<path d="M36942 47544
L36971 47506
L37028 47468
L37114 47468
L37171 47506
L37200 47582
L37200 48001
" />
<path d="M37200 47582
L37228 47506
L37285 47468
L37371 47468
L37428 47506
L37457 47582
L37457 48001
" />
<path d="M45500 47000
L24500 47000
" />
<path d="M45500 44000
L45500 48280
" />
<path d="M24500 44000
L24500 48280
" />
<path d="M24500 47000
L24943 46769
" />
<path d="M24500 47000
L24943 47230
" />
<path d="M45500 47000
L45056 46769
" />
<path d="M45500 47000
L45056 47230
" />
</g>
<g style="fill:#000000; fill-opacity:0.0; 
stroke:#000000; stroke-width:50; stroke-opacity:1; 
stroke-linecap:round; stroke-linejoin:round;">
<path d="M37541 43739
L37553 43751
L37589 43763
L37613 43763
L37648 43751
L37672 43727
L37684 43703
L37696 43655
L37696 43620
L37684 43572
L37672 43548
L37648 43525
L37613 43513
L37589 43513
L37553 43525
L37541 43536
" />
<path d="M37303 43763
L37446 43763
" />
<path d="M37375 43763
L37375 43513
L37398 43548
L37422 43572
L37446 43584
" />
<path d="M42241 37039
L42253 37051
L42289 37063
L42313 37063
L42348 37051
L42372 37027
L42384 37003
L42396 36955
L42396 36920
L42384 36872
L42372 36848
L42348 36825
L42313 36813
L42289 36813
L42253 36825
L42241 36836
" />
<path d="M42027 36813
L42075 36813
L42098 36825
L42110 36836
L42134 36872
L42146 36920
L42146 37015
L42134 37039
L42122 37051
L42098 37063
L42051 37063
L42027 37051
L42015 37039
L42003 37015
L42003 36955
L42015 36932
L42027 36920
L42051 36908
L42098 36908
L42122 36920
L42134 36932
L42146 36955
" />
<path d="M42241 33739
L42253 33751
L42289 33763
L42313 33763
L42348 33751
L42372 33727
L42384 33703
L42396 33655
L42396 33620
L42384 33572
L42372 33548
L42348 33525
L42313 33513
L42289 33513
L42253 33525
L42241 33536
" />
<path d="M42158 33513
L41991 33513
L42098 33763
" />
<path d="M41241 37039
L41253 37051
L41289 37063
L41313 37063
L41348 37051
L41372 37027
L41384 37003
L41396 36955
L41396 36920
L41384 36872
L41372 36848
L41348 36825
L41313 36813
L41289 36813
L41253 36825
L41241 36836
" />
<path d="M41098 36920
L41122 36908
L41134 36896
L41146 36872
L41146 36860
L41134 36836
L41122 36825
L41098 36813
L41051 36813
L41027 36825
L41015 36836
L41003 36860
L41003 36872
L41015 36896
L41027 36908
L41051 36920
L41098 36920
L41122 36932
L41134 36944
L41146 36967
L41146 37015
L41134 37039
L41122 37051
L41098 37063
L41051 37063
L41027 37051
L41015 37039
L41003 37015
L41003 36967
L41015 36944
L41027 36932
L41051 36920
" />
<path d="M37360 35839
L37372 35851
L37408 35863
L37432 35863
L37467 35851
L37491 35827
L37503 35803
L37515 35755
L37515 35720
L37503 35672
L37491 35648
L37467 35625
L37432 35613
L37408 35613
L37372 35625
L37360 35636
" />
<path d="M37122 35863
L37265 35863
" />
<path d="M37194 35863
L37194 35613
L37217 35648
L37241 35672
L37265 35684
" />
<path d="M36884 35863
L37027 35863
" />
<path d="M36955 35863
L36955 35613
L36979 35648
L37003 35672
L37027 35684
" />
<path d="M36260 42139
L36272 42151
L36308 42163
L36332 42163
L36367 42151
L36391 42127
L36403 42103
L36415 42055
L36415 42020
L36403 41972
L36391 41948
L36367 41925
L36332 41913
L36308 41913
L36272 41925
L36260 41936
" />
<path d="M36022 42163
L36165 42163
" />
<path d="M36094 42163
L36094 41913
L36117 41948
L36141 41972
L36165 41984
" />
<path d="M35808 41913
L35855 41913
L35879 41925
L35891 41936
L35915 41972
L35927 42020
L35927 42115
L35915 42139
L35903 42151
L35879 42163
L35832 42163
L35808 42151
L35796 42139
L35784 42115
L35784 42055
L35796 42032
L35808 42020
L35832 42008
L35879 42008
L35903 42020
L35915 42032
L35927 42055
" />
<path d="M41755 30434
L41767 30446
L41803 30458
L41827 30458
L41862 30446
L41886 30422
L41898 30398
L41910 30350
L41910 30315
L41898 30267
L41886 30243
L41862 30220
L41827 30208
L41803 30208
L41767 30220
L41755 30231
" />
<path d="M41660 30231
L41648 30220
L41624 30208
L41565 30208
L41541 30220
L41529 30231
L41517 30255
L41517 30279
L41529 30315
L41672 30458
L41517 30458
" />
<path d="M41362 30208
L41339 30208
L41315 30220
L41303 30231
L41291 30255
L41279 30303
L41279 30362
L41291 30410
L41303 30434
L41315 30446
L41339 30458
L41362 30458
L41386 30446
L41398 30434
L41410 30410
L41422 30362
L41422 30303
L41410 30255
L41398 30231
L41386 30220
L41362 30208
" />
<path d="M39960 30439
L39972 30451
L40008 30463
L40032 30463
L40067 30451
L40091 30427
L40103 30403
L40115 30355
L40115 30320
L40103 30272
L40091 30248
L40067 30225
L40032 30213
L40008 30213
L39972 30225
L39960 30236
" />
<path d="M39865 30236
L39853 30225
L39829 30213
L39770 30213
L39746 30225
L39734 30236
L39722 30260
L39722 30284
L39734 30320
L39877 30463
L39722 30463
" />
<path d="M39484 30463
L39627 30463
" />
<path d="M39555 30463
L39555 30213
L39579 30248
L39603 30272
L39627 30284
" />
<path d="M29360 43239
L29372 43251
L29408 43263
L29432 43263
L29467 43251
L29491 43227
L29503 43203
L29515 43155
L29515 43120
L29503 43072
L29491 43048
L29467 43025
L29432 43013
L29408 43013
L29372 43025
L29360 43036
" />
<path d="M29265 43036
L29253 43025
L29229 43013
L29170 43013
L29146 43025
L29134 43036
L29122 43060
L29122 43084
L29134 43120
L29277 43263
L29122 43263
" />
<path d="M29039 43013
L28884 43013
L28967 43108
L28932 43108
L28908 43120
L28896 43132
L28884 43155
L28884 43215
L28896 43239
L28908 43251
L28932 43263
L29003 43263
L29027 43251
L29039 43239
" />
<path d="M31260 43139
L31272 43151
L31308 43163
L31332 43163
L31367 43151
L31391 43127
L31403 43103
L31415 43055
L31415 43020
L31403 42972
L31391 42948
L31367 42925
L31332 42913
L31308 42913
L31272 42925
L31260 42936
" />
<path d="M31165 42936
L31153 42925
L31129 42913
L31070 42913
L31046 42925
L31034 42936
L31022 42960
L31022 42984
L31034 43020
L31177 43163
L31022 43163
" />
<path d="M30808 42996
L30808 43163
" />
<path d="M30867 42901
L30927 43079
L30772 43079
" />
<path d="M33960 43139
L33972 43151
L34008 43163
L34032 43163
L34067 43151
L34091 43127
L34103 43103
L34115 43055
L34115 43020
L34103 42972
L34091 42948
L34067 42925
L34032 42913
L34008 42913
L33972 42925
L33960 42936
" />
<path d="M33865 42936
L33853 42925
L33829 42913
L33770 42913
L33746 42925
L33734 42936
L33722 42960
L33722 42984
L33734 43020
L33877 43163
L33722 43163
" />
<path d="M33508 42913
L33555 42913
L33579 42925
L33591 42936
L33615 42972
L33627 43020
L33627 43115
L33615 43139
L33603 43151
L33579 43163
L33532 43163
L33508 43151
L33496 43139
L33484 43115
L33484 43055
L33496 43032
L33508 43020
L33532 43008
L33579 43008
L33603 43020
L33615 43032
L33627 43055
" />
<path d="M29360 37989
L29372 38001
L29408 38013
L29432 38013
L29467 38001
L29491 37977
L29503 37953
L29515 37905
L29515 37870
L29503 37822
L29491 37798
L29467 37775
L29432 37763
L29408 37763
L29372 37775
L29360 37786
" />
<path d="M29277 37763
L29122 37763
L29205 37858
L29170 37858
L29146 37870
L29134 37882
L29122 37905
L29122 37965
L29134 37989
L29146 38001
L29170 38013
L29241 38013
L29265 38001
L29277 37989
" />
<path d="M29027 37786
L29015 37775
L28991 37763
L28932 37763
L28908 37775
L28896 37786
L28884 37810
L28884 37834
L28896 37870
L29039 38013
L28884 38013
" />
<path d="M29360 37189
L29372 37201
L29408 37213
L29432 37213
L29467 37201
L29491 37177
L29503 37153
L29515 37105
L29515 37070
L29503 37022
L29491 36998
L29467 36975
L29432 36963
L29408 36963
L29372 36975
L29360 36986
" />
<path d="M29277 36963
L29122 36963
L29205 37058
L29170 37058
L29146 37070
L29134 37082
L29122 37105
L29122 37165
L29134 37189
L29146 37201
L29170 37213
L29241 37213
L29265 37201
L29277 37189
" />
<path d="M28908 37046
L28908 37213
" />
<path d="M28967 36951
L29027 37129
L28872 37129
" />
<path d="M29360 36389
L29372 36401
L29408 36413
L29432 36413
L29467 36401
L29491 36377
L29503 36353
L29515 36305
L29515 36270
L29503 36222
L29491 36198
L29467 36175
L29432 36163
L29408 36163
L29372 36175
L29360 36186
" />
<path d="M29277 36163
L29122 36163
L29205 36258
L29170 36258
L29146 36270
L29134 36282
L29122 36305
L29122 36365
L29134 36389
L29146 36401
L29170 36413
L29241 36413
L29265 36401
L29277 36389
" />
<path d="M28908 36163
L28955 36163
L28979 36175
L28991 36186
L29015 36222
L29027 36270
L29027 36365
L29015 36389
L29003 36401
L28979 36413
L28932 36413
L28908 36401
L28896 36389
L28884 36365
L28884 36305
L28896 36282
L28908 36270
L28932 36258
L28979 36258
L29003 36270
L29015 36282
L29027 36305
" />
<path d="M29360 38789
L29372 38801
L29408 38813
L29432 38813
L29467 38801
L29491 38777
L29503 38753
L29515 38705
L29515 38670
L29503 38622
L29491 38598
L29467 38575
L29432 38563
L29408 38563
L29372 38575
L29360 38586
" />
<path d="M29277 38563
L29122 38563
L29205 38658
L29170 38658
L29146 38670
L29134 38682
L29122 38705
L29122 38765
L29134 38789
L29146 38801
L29170 38813
L29241 38813
L29265 38801
L29277 38789
" />
<path d="M29039 38563
L28872 38563
L28979 38813
" />
<path d="M29141 39713
L29260 39713
L29260 39463
" />
<path d="M29082 39463
L28927 39463
L29010 39558
L28975 39558
L28951 39570
L28939 39582
L28927 39605
L28927 39665
L28939 39689
L28951 39701
L28975 39713
L29046 39713
L29070 39701
L29082 39689
" />
<path d="M42241 38713
L42325 38594
" />
<path d="M42384 38713
L42384 38463
L42289 38463
L42265 38475
L42253 38486
L42241 38510
L42241 38546
L42253 38570
L42265 38582
L42289 38594
L42384 38594
" />
<path d="M42003 38713
L42146 38713
" />
<path d="M42075 38713
L42075 38463
L42098 38498
L42122 38522
L42146 38534
" />
<path d="M41241 38713
L41325 38594
" />
<path d="M41384 38713
L41384 38463
L41289 38463
L41265 38475
L41253 38486
L41241 38510
L41241 38546
L41253 38570
L41265 38582
L41289 38594
L41384 38594
" />
<path d="M41146 38486
L41134 38475
L41110 38463
L41051 38463
L41027 38475
L41015 38486
L41003 38510
L41003 38534
L41015 38570
L41158 38713
L41003 38713
" />
<path d="M39141 42063
L39225 41944
" />
<path d="M39284 42063
L39284 41813
L39189 41813
L39165 41825
L39153 41836
L39141 41860
L39141 41896
L39153 41920
L39165 41932
L39189 41944
L39284 41944
" />
<path d="M38927 41896
L38927 42063
" />
<path d="M38986 41801
L39046 41979
L38891 41979
" />
<path d="M38441 39213
L38525 39094
" />
<path d="M38584 39213
L38584 38963
L38489 38963
L38465 38975
L38453 38986
L38441 39010
L38441 39046
L38453 39070
L38465 39082
L38489 39094
L38584 39094
" />
<path d="M38322 39213
L38275 39213
L38251 39201
L38239 39189
L38215 39153
L38203 39105
L38203 39010
L38215 38986
L38227 38975
L38251 38963
L38298 38963
L38322 38975
L38334 38986
L38346 39010
L38346 39070
L38334 39094
L38322 39105
L38298 39117
L38251 39117
L38227 39105
L38215 39094
L38203 39070
" />
<path d="M38660 38313
L38744 38194
" />
<path d="M38803 38313
L38803 38063
L38708 38063
L38684 38075
L38672 38086
L38660 38110
L38660 38146
L38672 38170
L38684 38182
L38708 38194
L38803 38194
" />
<path d="M38422 38313
L38565 38313
" />
<path d="M38494 38313
L38494 38063
L38517 38098
L38541 38122
L38565 38134
" />
<path d="M38267 38063
L38244 38063
L38220 38075
L38208 38086
L38196 38110
L38184 38158
L38184 38217
L38196 38265
L38208 38289
L38220 38301
L38244 38313
L38267 38313
L38291 38301
L38303 38289
L38315 38265
L38327 38217
L38327 38158
L38315 38110
L38303 38086
L38291 38075
L38267 38063
" />
<path d="M32960 43163
L33044 43044
" />
<path d="M33103 43163
L33103 42913
L33008 42913
L32984 42925
L32972 42936
L32960 42960
L32960 42996
L32972 43020
L32984 43032
L33008 43044
L33103 43044
" />
<path d="M32722 43163
L32865 43163
" />
<path d="M32794 43163
L32794 42913
L32817 42948
L32841 42972
L32865 42984
" />
<path d="M32508 42913
L32555 42913
L32579 42925
L32591 42936
L32615 42972
L32627 43020
L32627 43115
L32615 43139
L32603 43151
L32579 43163
L32532 43163
L32508 43151
L32496 43139
L32484 43115
L32484 43055
L32496 43032
L32508 43020
L32532 43008
L32579 43008
L32603 43020
L32615 43032
L32627 43055
" />
<path d="M30360 43163
L30444 43044
" />
<path d="M30503 43163
L30503 42913
L30408 42913
L30384 42925
L30372 42936
L30360 42960
L30360 42996
L30372 43020
L30384 43032
L30408 43044
L30503 43044
" />
<path d="M30265 42936
L30253 42925
L30229 42913
L30170 42913
L30146 42925
L30134 42936
L30122 42960
L30122 42984
L30134 43020
L30277 43163
L30122 43163
" />
<path d="M29967 42913
L29944 42913
L29920 42925
L29908 42936
L29896 42960
L29884 43008
L29884 43067
L29896 43115
L29908 43139
L29920 43151
L29944 43163
L29967 43163
L29991 43151
L30003 43139
L30015 43115
L30027 43067
L30027 43008
L30015 42960
L30003 42936
L29991 42925
L29967 42913
" />
</g>
<g style="fill:#000000; fill-opacity:0.0; 
stroke:#000000; stroke-width:60; stroke-opacity:1; 
stroke-linecap:round; stroke-linejoin:round;">
<path d="M36492 39803
L36492 40167
L36471 40210
L36450 40232
L36407 40253
L36321 40253
L36278 40232
L36257 40210
L36235 40167
L36235 39803
" />
<path d="M35785 40253
L36042 40253
" />
<path d="M35914 40253
L35914 39803
L35957 39867
L36000 39910
L36042 39932
" />
<path d="M24005 10518
L23805 10518
" />
<path d="M23905 10868
L23905 10518
" />
<path d="M23688 10868
L23688 10518
L23555 10518
L23521 10535
L23505 10551
L23488 10585
L23488 10635
L23505 10668
L23521 10685
L23555 10701
L23688 10701
" />
<path d="M23355 10851
L23305 10868
L23221 10868
L23188 10851
L23171 10835
L23155 10801
L23155 10768
L23171 10735
L23188 10718
L23221 10701
L23288 10685
L23321 10668
L23338 10651
L23355 10618
L23355 10585
L23338 10551
L23321 10535
L23288 10518
L23205 10518
L23155 10535
" />
<path d="M23038 10518
L22805 10518
L22955 10868
" />
<path d="M22705 10518
L22471 10518
L22621 10868
" />
<path d="M22288 10668
L22321 10651
L22338 10635
L22355 10601
L22355 10585
L22338 10551
L22321 10535
L22288 10518
L22221 10518
L22188 10535
L22171 10551
L22155 10585
L22155 10601
L22171 10635
L22188 10651
L22221 10668
L22288 10668
L22321 10685
L22338 10701
L22355 10735
L22355 10801
L22338 10835
L22321 10851
L22288 10868
L22221 10868
L22188 10851
L22171 10835
L22155 10801
L22155 10735
L22171 10701
L22188 10685
L22221 10668
" />
<path d="M21938 10518
L21904 10518
L21871 10535
L21854 10551
L21838 10585
L21821 10651
L21821 10735
L21838 10801
L21854 10835
L21871 10851
L21904 10868
L21938 10868
L21971 10851
L21988 10835
L22004 10801
L22021 10735
L22021 10651
L22004 10585
L21988 10551
L21971 10535
L21938 10518
" />
<path d="M21488 10868
L21688 10868
" />
<path d="M21588 10868
L21588 10518
L21621 10568
L21654 10601
L21688 10618
" />
</g>
<g style="fill:#000000; fill-opacity:0.0; 
stroke:#000000; stroke-width:120; stroke-opacity:1; 
stroke-linecap:round; stroke-linejoin:round;">
<path d="M37957 26071
L37957 26557
L37928 26614
L37900 26642
L37842 26671
L37728 26671
L37671 26642
L37642 26614
L37614 26557
L37614 26071
" />
<path d="M37071 26071
L37185 26071
L37242 26100
L37271 26128
L37328 26214
L37357 26328
L37357 26557
L37328 26614
L37300 26642
L37242 26671
L37128 26671
L37071 26642
L37042 26614
L37014 26557
L37014 26414
L37042 26357
L37071 26328
L37128 26300
L37242 26300
L37300 26328
L37328 26357
L37357 26414
" />
<path d="M26561 9552
L26475 9581
L26332 9581
L26275 9552
L26247 9524
L26218 9467
L26218 9410
L26247 9352
L26275 9324
L26332 9295
L26447 9267
L26504 9238
L26532 9210
L26561 9152
L26561 9095
L26532 9038
L26504 9010
L26447 8981
L26304 8981
L26218 9010
" />
<path d="M25961 9581
L25961 8981
L25818 8981
L25732 9010
L25675 9067
L25647 9124
L25618 9238
L25618 9324
L25647 9438
L25675 9495
L25732 9552
L25818 9581
L25961 9581
" />
<path d="M35107 24571
L35107 25057
L35078 25114
L35050 25142
L34992 25171
L34878 25171
L34821 25142
L34792 25114
L34764 25057
L34764 24571
" />
<path d="M34535 24571
L34135 24571
L34392 25171
" />
<path d="M40331 10611
L40331 10011
L40131 10440
L39931 10011
L39931 10611
" />
<path d="M39645 10611
L39645 10011
" />
<path d="M39017 10554
L39045 10582
L39131 10611
L39188 10611
L39274 10582
L39331 10525
L39360 10468
L39388 10354
L39388 10268
L39360 10154
L39331 10097
L39274 10040
L39188 10011
L39131 10011
L39045 10040
L39017 10068
" />
<path d="M38417 10611
L38617 10325
" />
<path d="M38760 10611
L38760 10011
L38531 10011
L38474 10040
L38445 10068
L38417 10125
L38417 10211
L38445 10268
L38474 10297
L38531 10325
L38760 10325
" />
<path d="M38045 10011
L37931 10011
L37874 10040
L37817 10097
L37788 10211
L37788 10411
L37817 10525
L37874 10582
L37931 10611
L38045 10611
L38102 10582
L38160 10525
L38188 10411
L38188 10211
L38160 10097
L38102 10040
L38045 10011
" />
<path d="M37674 10668
L37217 10668
" />
<path d="M37102 10582
L37017 10611
L36874 10611
L36817 10582
L36788 10554
L36760 10497
L36760 10440
L36788 10382
L36817 10354
L36874 10325
L36988 10297
L37045 10268
L37074 10240
L37102 10182
L37102 10125
L37074 10068
L37045 10040
L36988 10011
L36845 10011
L36760 10040
" />
<path d="M36502 10611
L36502 10011
L36360 10011
L36274 10040
L36217 10097
L36188 10154
L36160 10268
L36160 10354
L36188 10468
L36217 10525
L36274 10582
L36360 10611
L36502 10611
" />
</g>
<g style="fill:#000000; fill-opacity:0.0; 
stroke:#000000; stroke-width:78.7402; stroke-opacity:1; 
stroke-linecap:round; stroke-linejoin:round;">
<path d="M36791 43433
L38208 43433
" />
<path d="M38208 43433
L38208 42566
" />
<path d="M38208 42566
L36791 42566
" />
<path d="M36791 42566
L36791 43433
" />
<path d="M41806 37209
L41806 38390
" />
<path d="M41806 38390
L42593 38390
" />
<path d="M42593 38390
L42593 37209
" />
<path d="M42593 37209
L41806 37209
" />
<path d="M42633 35308
L42633 33891
" />
<path d="M42633 33891
L41766 33891
" />
<path d="M41766 33891
L41766 35308
" />
<path d="M41766 35308
L42633 35308
" />
<path d="M40806 37209
L40806 38390
" />
<path d="M40806 38390
L41593 38390
" />
<path d="M41593 38390
L41593 37209
" />
<path d="M41593 37209
L40806 37209
" />
<path d="M37908 35966
L36491 35966
" />
<path d="M36491 35966
L36491 36833
" />
<path d="M36491 36833
L37908 36833
" />
<path d="M37908 36833
L37908 35966
" />
<path d="M35466 40391
L35466 41808
" />
<path d="M35466 41808
L36333 41808
" />
<path d="M36333 41808
L36333 40391
" />
<path d="M36333 40391
L35466 40391
" />
<path d="M42033 32008
L42033 30591
" />
<path d="M42033 30591
L41166 30591
" />
<path d="M41166 30591
L41166 32008
" />
<path d="M41166 32008
L42033 32008
" />
<path d="M39366 30591
L39366 32008
" />
<path d="M39366 32008
L40233 32008
" />
<path d="M40233 32008
L40233 30591
" />
<path d="M40233 30591
L39366 30591
" />
<path d="M28766 41491
L28766 42908
" />
<path d="M28766 42908
L29633 42908
" />
<path d="M29633 42908
L29633 41491
" />
<path d="M29633 41491
L28766 41491
" />
<path d="M30706 41609
L30706 42790
" />
<path d="M30706 42790
L31493 42790
" />
<path d="M31493 42790
L31493 41609
" />
<path d="M31493 41609
L30706 41609
" />
<path d="M33406 41609
L33406 42790
" />
<path d="M33406 42790
L34193 42790
" />
<path d="M34193 42790
L34193 41609
" />
<path d="M34193 41609
L33406 41609
" />
<path d="M28790 37506
L27609 37506
" />
<path d="M27609 37506
L27609 38293
" />
<path d="M27609 38293
L28790 38293
" />
<path d="M28790 38293
L28790 37506
" />
<path d="M28790 36706
L27609 36706
" />
<path d="M27609 36706
L27609 37493
" />
<path d="M27609 37493
L28790 37493
" />
<path d="M28790 37493
L28790 36706
" />
<path d="M28790 35906
L27609 35906
" />
<path d="M27609 35906
L27609 36693
" />
<path d="M27609 36693
L28790 36693
" />
<path d="M28790 36693
L28790 35906
" />
<path d="M28790 38306
L27609 38306
" />
<path d="M27609 38306
L27609 39093
" />
<path d="M27609 39093
L28790 39093
" />
<path d="M28790 39093
L28790 38306
" />
<path d="M27391 40033
L28808 40033
" />
<path d="M28808 40033
L28808 39166
" />
<path d="M28808 39166
L27391 39166
" />
<path d="M27391 39166
L27391 40033
" />
<path d="M42593 39990
L42593 38809
" />
<path d="M42593 38809
L41806 38809
" />
<path d="M41806 38809
L41806 39990
" />
<path d="M41806 39990
L42593 39990
" />
<path d="M40806 38809
L40806 39990
" />
<path d="M40806 39990
L41593 39990
" />
<path d="M41593 39990
L41593 38809
" />
<path d="M41593 38809
L40806 38809
" />
<path d="M38706 40509
L38706 41690
" />
<path d="M38706 41690
L39493 41690
" />
<path d="M39493 41690
L39493 40509
" />
<path d="M39493 40509
L38706 40509
" />
<path d="M36909 39493
L38090 39493
" />
<path d="M38090 39493
L38090 38706
" />
<path d="M38090 38706
L36909 38706
" />
<path d="M36909 38706
L36909 39493
" />
<path d="M38090 37806
L36909 37806
" />
<path d="M36909 37806
L36909 38593
" />
<path d="M36909 38593
L38090 38593
" />
<path d="M38090 38593
L38090 37806
" />
<path d="M33193 42790
L33193 41609
" />
<path d="M33193 41609
L32406 41609
" />
<path d="M32406 41609
L32406 42790
" />
<path d="M32406 42790
L33193 42790
" />
<path d="M30593 42790
L30593 41609
" />
<path d="M30593 41609
L29806 41609
" />
<path d="M29806 41609
L29806 42790
" />
<path d="M29806 42790
L30593 42790
" />
</g>
<g style="fill:#000000; fill-opacity:0.0; 
stroke:#000000; stroke-width:50; stroke-opacity:1; 
stroke-linecap:round; stroke-linejoin:round;">
<path d="M38550 41750
L36450 41750
" />
<path d="M36450 40450
L38550 40450
" />
<path d="M38550 40450
L38550 41750
" />
<path d="M38550 40900
L38350 40900
" />
<path d="M38350 40900
L38350 41300
" />
<path d="M38350 41300
L38550 41300
" />
<path d="M36450 40450
L36450 41750
" />
</g>
<g style="fill:#000000; fill-opacity:0.0; 
stroke:#000000; stroke-width:78.7402; stroke-opacity:1; 
stroke-linecap:round; stroke-linejoin:round;">
<path d="M27188 34430
L27188 26517
" />
<path d="M38566 26989
L38566 34430
" />
<path d="M38566 34430
L36755 34430
" />
<path d="M27188 25336
L27188 23131
" />
<path d="M27188 23131
L38566 23131
" />
<path d="M38566 23131
L38566 25808
" />
</g>
<g style="fill:#000000; fill-opacity:0.0; 
stroke:#000000; stroke-width:150; stroke-opacity:1; 
stroke-linecap:round; stroke-linejoin:round;">
<path d="M30801 28718
L34998 28718
" />
<path d="M30222 24210
L30222 23481
" />
<path d="M30222 23481
L35577 23481
" />
<path d="M35577 24210
L35577 23481
" />
<path d="M35577 27477
L35577 25627
" />
<path d="M30222 27477
L30222 25627
" />
</g>
<g style="fill:#000000; fill-opacity:0.0; 
stroke:#000000; stroke-width:120; stroke-opacity:1; 
stroke-linecap:round; stroke-linejoin:round;">
<path d="M25000 26500
L27000 26500
" />
<path d="M25000 40500
L27000 40500
" />
<path d="M25000 39500
L27000 39500
" />
</g>
<g style="fill:#000000; fill-opacity:0.0; 
stroke:#000000; stroke-width:119.724; stroke-opacity:1; 
stroke-linecap:round; stroke-linejoin:round;">
<path d="M27000 40500
L27000 26500
" />
<path d="M26000 40500
L26000 26500
" />
<path d="M25000 40500
L25000 26500
" />
</g>
<g style="fill:#000000; fill-opacity:0.0; 
stroke:#000000; stroke-width:120; stroke-opacity:1; 
stroke-linecap:round; stroke-linejoin:round;">
<path d="M45000 40500
L43000 40500
" />
<path d="M45000 26500
L43000 26500
" />
<path d="M45000 27500
L43000 27500
" />
</g>
<g style="fill:#000000; fill-opacity:0.0; 
stroke:#000000; stroke-width:119.724; stroke-opacity:1; 
stroke-linecap:round; stroke-linejoin:round;">
<path d="M43000 26500
L43000 40500
" />
<path d="M44000 26500
L44000 40500
" />
<path d="M45000 26500
L45000 40500
" />
</g>
<g style="fill:#000000; fill-opacity:0.0; 
stroke:#000000; stroke-width:39.3701; stroke-opacity:1; 
stroke-linecap:round; stroke-linejoin:round;">
</g>
<g style="fill:#000000; fill-opacity:1.0; 
stroke:#000000; stroke-width:39.3701; stroke-opacity:1; 
stroke-linecap:round; stroke-linejoin:round;">
<circle cx="37463.8" cy="25100" r="275.591" /> 
<circle cx="27936.2" cy="25100" r="275.591" /> 
</g> 
</svg>
