G04 (created by PCBNEW (2013-mar-13)-testing) date Fri 20 Sep 2013 10:55:17 AM CEST*
%MOIN*%
G04 Gerber Fmt 3.4, Leading zero omitted, Abs format*
%FSLAX34Y34*%
G01*
G70*
G90*
G04 APERTURE LIST*
%ADD10C,0.005906*%
%ADD11C,0.012000*%
%ADD12C,0.015000*%
%ADD13R,0.035000X0.055000*%
%ADD14R,0.045000X0.025000*%
%ADD15R,0.055000X0.035000*%
%ADD16R,0.025000X0.045000*%
%ADD17R,0.023600X0.055100*%
%ADD18R,0.039370X0.059055*%
%ADD19R,0.047244X0.086614*%
%ADD20R,0.057087X0.078740*%
%ADD21R,0.031496X0.059055*%
G04 APERTURE END LIST*
G54D10*
G54D11*
X43634Y-65568D02*
X43291Y-65568D01*
X43462Y-65568D02*
X43462Y-64768D01*
X43405Y-64883D01*
X43348Y-64959D01*
X43291Y-64997D01*
X43834Y-64768D02*
X44205Y-64768D01*
X44005Y-65073D01*
X44091Y-65073D01*
X44148Y-65111D01*
X44177Y-65149D01*
X44205Y-65225D01*
X44205Y-65416D01*
X44177Y-65492D01*
X44148Y-65530D01*
X44091Y-65568D01*
X43920Y-65568D01*
X43862Y-65530D01*
X43834Y-65492D01*
X44577Y-64768D02*
X44634Y-64768D01*
X44691Y-64806D01*
X44720Y-64845D01*
X44748Y-64921D01*
X44777Y-65073D01*
X44777Y-65264D01*
X44748Y-65416D01*
X44720Y-65492D01*
X44691Y-65530D01*
X44634Y-65568D01*
X44577Y-65568D01*
X44520Y-65530D01*
X44491Y-65492D01*
X44462Y-65416D01*
X44434Y-65264D01*
X44434Y-65073D01*
X44462Y-64921D01*
X44491Y-64845D01*
X44520Y-64806D01*
X44577Y-64768D01*
X45034Y-65492D02*
X45062Y-65530D01*
X45034Y-65568D01*
X45005Y-65530D01*
X45034Y-65492D01*
X45034Y-65568D01*
X45434Y-64768D02*
X45491Y-64768D01*
X45548Y-64806D01*
X45577Y-64845D01*
X45605Y-64921D01*
X45634Y-65073D01*
X45634Y-65264D01*
X45605Y-65416D01*
X45577Y-65492D01*
X45548Y-65530D01*
X45491Y-65568D01*
X45434Y-65568D01*
X45377Y-65530D01*
X45348Y-65492D01*
X45320Y-65416D01*
X45291Y-65264D01*
X45291Y-65073D01*
X45320Y-64921D01*
X45348Y-64845D01*
X45377Y-64806D01*
X45434Y-64768D01*
X46005Y-64768D02*
X46062Y-64768D01*
X46120Y-64806D01*
X46148Y-64845D01*
X46177Y-64921D01*
X46205Y-65073D01*
X46205Y-65264D01*
X46177Y-65416D01*
X46148Y-65492D01*
X46120Y-65530D01*
X46062Y-65568D01*
X46005Y-65568D01*
X45948Y-65530D01*
X45920Y-65492D01*
X45891Y-65416D01*
X45862Y-65264D01*
X45862Y-65073D01*
X45891Y-64921D01*
X45920Y-64845D01*
X45948Y-64806D01*
X46005Y-64768D01*
X46577Y-64768D02*
X46634Y-64768D01*
X46691Y-64806D01*
X46720Y-64845D01*
X46748Y-64921D01*
X46777Y-65073D01*
X46777Y-65264D01*
X46748Y-65416D01*
X46720Y-65492D01*
X46691Y-65530D01*
X46634Y-65568D01*
X46577Y-65568D01*
X46520Y-65530D01*
X46491Y-65492D01*
X46462Y-65416D01*
X46434Y-65264D01*
X46434Y-65073D01*
X46462Y-64921D01*
X46491Y-64845D01*
X46520Y-64806D01*
X46577Y-64768D01*
X47491Y-65568D02*
X47491Y-65035D01*
X47491Y-65111D02*
X47520Y-65073D01*
X47577Y-65035D01*
X47662Y-65035D01*
X47720Y-65073D01*
X47748Y-65149D01*
X47748Y-65568D01*
X47748Y-65149D02*
X47777Y-65073D01*
X47834Y-65035D01*
X47920Y-65035D01*
X47977Y-65073D01*
X48005Y-65149D01*
X48005Y-65568D01*
X48291Y-65568D02*
X48291Y-65035D01*
X48291Y-65111D02*
X48320Y-65073D01*
X48377Y-65035D01*
X48462Y-65035D01*
X48520Y-65073D01*
X48548Y-65149D01*
X48548Y-65568D01*
X48548Y-65149D02*
X48577Y-65073D01*
X48634Y-65035D01*
X48720Y-65035D01*
X48777Y-65073D01*
X48805Y-65149D01*
X48805Y-65568D01*
X71653Y-64566D02*
X20472Y-64566D01*
X71653Y-62598D02*
X71653Y-65846D01*
X20472Y-62598D02*
X20472Y-65846D01*
X20472Y-64566D02*
X20915Y-64336D01*
X20472Y-64566D02*
X20915Y-64797D01*
X71653Y-64566D02*
X71210Y-64336D01*
X71653Y-64566D02*
X71210Y-64797D01*
X73900Y-34579D02*
X73900Y-34236D01*
X73900Y-34407D02*
X74700Y-34407D01*
X74585Y-34350D01*
X74509Y-34293D01*
X74471Y-34236D01*
X74700Y-34779D02*
X74700Y-35150D01*
X74395Y-34950D01*
X74395Y-35036D01*
X74357Y-35093D01*
X74319Y-35122D01*
X74242Y-35150D01*
X74052Y-35150D01*
X73976Y-35122D01*
X73938Y-35093D01*
X73900Y-35036D01*
X73900Y-34865D01*
X73938Y-34807D01*
X73976Y-34779D01*
X74700Y-35522D02*
X74700Y-35579D01*
X74662Y-35636D01*
X74623Y-35665D01*
X74547Y-35693D01*
X74395Y-35722D01*
X74204Y-35722D01*
X74052Y-35693D01*
X73976Y-35665D01*
X73938Y-35636D01*
X73900Y-35579D01*
X73900Y-35522D01*
X73938Y-35465D01*
X73976Y-35436D01*
X74052Y-35407D01*
X74204Y-35379D01*
X74395Y-35379D01*
X74547Y-35407D01*
X74623Y-35436D01*
X74662Y-35465D01*
X74700Y-35522D01*
X73976Y-35979D02*
X73938Y-36007D01*
X73900Y-35979D01*
X73938Y-35950D01*
X73976Y-35979D01*
X73900Y-35979D01*
X74700Y-36379D02*
X74700Y-36436D01*
X74662Y-36493D01*
X74623Y-36522D01*
X74547Y-36550D01*
X74395Y-36579D01*
X74204Y-36579D01*
X74052Y-36550D01*
X73976Y-36522D01*
X73938Y-36493D01*
X73900Y-36436D01*
X73900Y-36379D01*
X73938Y-36322D01*
X73976Y-36293D01*
X74052Y-36265D01*
X74204Y-36236D01*
X74395Y-36236D01*
X74547Y-36265D01*
X74623Y-36293D01*
X74662Y-36322D01*
X74700Y-36379D01*
X74700Y-36950D02*
X74700Y-37007D01*
X74662Y-37065D01*
X74623Y-37093D01*
X74547Y-37122D01*
X74395Y-37150D01*
X74204Y-37150D01*
X74052Y-37122D01*
X73976Y-37093D01*
X73938Y-37065D01*
X73900Y-37007D01*
X73900Y-36950D01*
X73938Y-36893D01*
X73976Y-36865D01*
X74052Y-36836D01*
X74204Y-36807D01*
X74395Y-36807D01*
X74547Y-36836D01*
X74623Y-36865D01*
X74662Y-36893D01*
X74700Y-36950D01*
X74700Y-37522D02*
X74700Y-37579D01*
X74662Y-37636D01*
X74623Y-37665D01*
X74547Y-37693D01*
X74395Y-37722D01*
X74204Y-37722D01*
X74052Y-37693D01*
X73976Y-37665D01*
X73938Y-37636D01*
X73900Y-37579D01*
X73900Y-37522D01*
X73938Y-37465D01*
X73976Y-37436D01*
X74052Y-37407D01*
X74204Y-37379D01*
X74395Y-37379D01*
X74547Y-37407D01*
X74623Y-37436D01*
X74662Y-37465D01*
X74700Y-37522D01*
X73900Y-38436D02*
X74433Y-38436D01*
X74357Y-38436D02*
X74395Y-38465D01*
X74433Y-38522D01*
X74433Y-38607D01*
X74395Y-38665D01*
X74319Y-38693D01*
X73900Y-38693D01*
X74319Y-38693D02*
X74395Y-38722D01*
X74433Y-38779D01*
X74433Y-38865D01*
X74395Y-38922D01*
X74319Y-38950D01*
X73900Y-38950D01*
X73900Y-39236D02*
X74433Y-39236D01*
X74357Y-39236D02*
X74395Y-39265D01*
X74433Y-39322D01*
X74433Y-39407D01*
X74395Y-39465D01*
X74319Y-39493D01*
X73900Y-39493D01*
X74319Y-39493D02*
X74395Y-39522D01*
X74433Y-39579D01*
X74433Y-39665D01*
X74395Y-39722D01*
X74319Y-39750D01*
X73900Y-39750D01*
X73622Y-11417D02*
X73622Y-62598D01*
X71653Y-11417D02*
X74902Y-11417D01*
X71653Y-62598D02*
X74902Y-62598D01*
X73622Y-62598D02*
X73391Y-62154D01*
X73622Y-62598D02*
X73852Y-62154D01*
X73622Y-11417D02*
X73391Y-11860D01*
X73622Y-11417D02*
X73852Y-11860D01*
G54D12*
X20472Y-62598D02*
X20472Y-11417D01*
X71653Y-62598D02*
X20472Y-62598D01*
X71653Y-11417D02*
X71653Y-62598D01*
X20472Y-11417D02*
X71653Y-11417D01*
X49000Y-15000D02*
X68000Y-15000D01*
X47000Y-17000D02*
X47000Y-36000D01*
X62000Y-36000D02*
X47000Y-36000D01*
X68000Y-15000D02*
X68000Y-34000D01*
X62500Y-34000D02*
G75*
G03X62000Y-34500I0J-500D01*
G74*
G01*
X62000Y-36000D02*
X62000Y-34500D01*
X68000Y-34000D02*
X62500Y-34000D01*
X48000Y-17000D02*
G75*
G03X49000Y-16000I0J1000D01*
G74*
G01*
X47000Y-17000D02*
X48000Y-17000D01*
X49000Y-15000D02*
X49000Y-16000D01*
X49000Y-38000D02*
X68000Y-38000D01*
X47000Y-40000D02*
X47000Y-59000D01*
X62000Y-59000D02*
X47000Y-59000D01*
X68000Y-38000D02*
X68000Y-57000D01*
X62500Y-57000D02*
G75*
G03X62000Y-57500I0J-500D01*
G74*
G01*
X62000Y-59000D02*
X62000Y-57500D01*
X68000Y-57000D02*
X62500Y-57000D01*
X48000Y-40000D02*
G75*
G03X49000Y-39000I0J1000D01*
G74*
G01*
X47000Y-40000D02*
X48000Y-40000D01*
X49000Y-38000D02*
X49000Y-39000D01*
X26000Y-38000D02*
X45000Y-38000D01*
X24000Y-40000D02*
X24000Y-59000D01*
X39000Y-59000D02*
X24000Y-59000D01*
X45000Y-38000D02*
X45000Y-57000D01*
X39500Y-57000D02*
G75*
G03X39000Y-57500I0J-500D01*
G74*
G01*
X39000Y-59000D02*
X39000Y-57500D01*
X45000Y-57000D02*
X39500Y-57000D01*
X25000Y-40000D02*
G75*
G03X26000Y-39000I0J1000D01*
G74*
G01*
X24000Y-40000D02*
X25000Y-40000D01*
X26000Y-38000D02*
X26000Y-39000D01*
X26000Y-15000D02*
X45000Y-15000D01*
X24000Y-17000D02*
X24000Y-36000D01*
X39000Y-36000D02*
X24000Y-36000D01*
X45000Y-15000D02*
X45000Y-34000D01*
X39500Y-34000D02*
G75*
G03X39000Y-34500I0J-500D01*
G74*
G01*
X39000Y-36000D02*
X39000Y-34500D01*
X45000Y-34000D02*
X39500Y-34000D01*
X25000Y-17000D02*
G75*
G03X26000Y-16000I0J1000D01*
G74*
G01*
X24000Y-17000D02*
X25000Y-17000D01*
X26000Y-15000D02*
X26000Y-16000D01*
G54D13*
X59625Y-35000D03*
X60375Y-35000D03*
G54D14*
X64700Y-29500D03*
X64700Y-30100D03*
G54D15*
X64700Y-26975D03*
X64700Y-26225D03*
G54D14*
X63700Y-29500D03*
X63700Y-30100D03*
G54D13*
X60075Y-28400D03*
X59325Y-28400D03*
G54D15*
X58400Y-32725D03*
X58400Y-33475D03*
X64100Y-23675D03*
X64100Y-22925D03*
X62300Y-22925D03*
X62300Y-23675D03*
X51700Y-33825D03*
X51700Y-34575D03*
G54D14*
X53600Y-33900D03*
X53600Y-34500D03*
X56300Y-33900D03*
X56300Y-34500D03*
G54D16*
X51000Y-29900D03*
X50400Y-29900D03*
X51000Y-29100D03*
X50400Y-29100D03*
X51000Y-28300D03*
X50400Y-28300D03*
X51000Y-30700D03*
X50400Y-30700D03*
G54D13*
X50225Y-31600D03*
X50975Y-31600D03*
G54D14*
X64700Y-31700D03*
X64700Y-31100D03*
X63700Y-31100D03*
X63700Y-31700D03*
X61600Y-32800D03*
X61600Y-33400D03*
G54D16*
X59700Y-31100D03*
X60300Y-31100D03*
X60300Y-30200D03*
X59700Y-30200D03*
G54D14*
X55300Y-34500D03*
X55300Y-33900D03*
X52700Y-34500D03*
X52700Y-33900D03*
G54D17*
X60750Y-32050D03*
X60750Y-34150D03*
X60250Y-32050D03*
X59750Y-32050D03*
X59250Y-32050D03*
X60250Y-34150D03*
X59750Y-34150D03*
X59250Y-34150D03*
G54D18*
X58890Y-26666D03*
X57906Y-26666D03*
X56922Y-26666D03*
X56272Y-26666D03*
X55623Y-26666D03*
X54953Y-26666D03*
X53969Y-26666D03*
X52985Y-26666D03*
X52030Y-26666D03*
X51361Y-26666D03*
X50042Y-26666D03*
G54D19*
X60869Y-18399D03*
X49845Y-17926D03*
G54D20*
X58077Y-16918D03*
X52722Y-16918D03*
X52722Y-20186D03*
X58077Y-20186D03*
G54D21*
X54140Y-19162D03*
X54573Y-19162D03*
X55006Y-19162D03*
X55439Y-19162D03*
X55872Y-19162D03*
X56305Y-19162D03*
X56738Y-19162D03*
X57171Y-19162D03*
G54D13*
X59625Y-58000D03*
X60375Y-58000D03*
G54D14*
X64700Y-52500D03*
X64700Y-53100D03*
G54D15*
X64700Y-49975D03*
X64700Y-49225D03*
G54D14*
X63700Y-52500D03*
X63700Y-53100D03*
G54D13*
X60075Y-51400D03*
X59325Y-51400D03*
G54D15*
X58400Y-55725D03*
X58400Y-56475D03*
X64100Y-46675D03*
X64100Y-45925D03*
X62300Y-45925D03*
X62300Y-46675D03*
X51700Y-56825D03*
X51700Y-57575D03*
G54D14*
X53600Y-56900D03*
X53600Y-57500D03*
X56300Y-56900D03*
X56300Y-57500D03*
G54D16*
X51000Y-52900D03*
X50400Y-52900D03*
X51000Y-52100D03*
X50400Y-52100D03*
X51000Y-51300D03*
X50400Y-51300D03*
X51000Y-53700D03*
X50400Y-53700D03*
G54D13*
X50225Y-54600D03*
X50975Y-54600D03*
G54D14*
X64700Y-54700D03*
X64700Y-54100D03*
X63700Y-54100D03*
X63700Y-54700D03*
X61600Y-55800D03*
X61600Y-56400D03*
G54D16*
X59700Y-54100D03*
X60300Y-54100D03*
X60300Y-53200D03*
X59700Y-53200D03*
G54D14*
X55300Y-57500D03*
X55300Y-56900D03*
X52700Y-57500D03*
X52700Y-56900D03*
G54D17*
X60750Y-55050D03*
X60750Y-57150D03*
X60250Y-55050D03*
X59750Y-55050D03*
X59250Y-55050D03*
X60250Y-57150D03*
X59750Y-57150D03*
X59250Y-57150D03*
G54D18*
X58890Y-49666D03*
X57906Y-49666D03*
X56922Y-49666D03*
X56272Y-49666D03*
X55623Y-49666D03*
X54953Y-49666D03*
X53969Y-49666D03*
X52985Y-49666D03*
X52030Y-49666D03*
X51361Y-49666D03*
X50042Y-49666D03*
G54D19*
X60869Y-41399D03*
X49845Y-40926D03*
G54D20*
X58077Y-39918D03*
X52722Y-39918D03*
X52722Y-43186D03*
X58077Y-43186D03*
G54D21*
X54140Y-42162D03*
X54573Y-42162D03*
X55006Y-42162D03*
X55439Y-42162D03*
X55872Y-42162D03*
X56305Y-42162D03*
X56738Y-42162D03*
X57171Y-42162D03*
G54D13*
X36625Y-58000D03*
X37375Y-58000D03*
G54D14*
X41700Y-52500D03*
X41700Y-53100D03*
G54D15*
X41700Y-49975D03*
X41700Y-49225D03*
G54D14*
X40700Y-52500D03*
X40700Y-53100D03*
G54D13*
X37075Y-51400D03*
X36325Y-51400D03*
G54D15*
X35400Y-55725D03*
X35400Y-56475D03*
X41100Y-46675D03*
X41100Y-45925D03*
X39300Y-45925D03*
X39300Y-46675D03*
X28700Y-56825D03*
X28700Y-57575D03*
G54D14*
X30600Y-56900D03*
X30600Y-57500D03*
X33300Y-56900D03*
X33300Y-57500D03*
G54D16*
X28000Y-52900D03*
X27400Y-52900D03*
X28000Y-52100D03*
X27400Y-52100D03*
X28000Y-51300D03*
X27400Y-51300D03*
X28000Y-53700D03*
X27400Y-53700D03*
G54D13*
X27225Y-54600D03*
X27975Y-54600D03*
G54D14*
X41700Y-54700D03*
X41700Y-54100D03*
X40700Y-54100D03*
X40700Y-54700D03*
X38600Y-55800D03*
X38600Y-56400D03*
G54D16*
X36700Y-54100D03*
X37300Y-54100D03*
X37300Y-53200D03*
X36700Y-53200D03*
G54D14*
X32300Y-57500D03*
X32300Y-56900D03*
X29700Y-57500D03*
X29700Y-56900D03*
G54D17*
X37750Y-55050D03*
X37750Y-57150D03*
X37250Y-55050D03*
X36750Y-55050D03*
X36250Y-55050D03*
X37250Y-57150D03*
X36750Y-57150D03*
X36250Y-57150D03*
G54D18*
X35890Y-49666D03*
X34906Y-49666D03*
X33922Y-49666D03*
X33272Y-49666D03*
X32623Y-49666D03*
X31953Y-49666D03*
X30969Y-49666D03*
X29985Y-49666D03*
X29030Y-49666D03*
X28361Y-49666D03*
X27042Y-49666D03*
G54D19*
X37869Y-41399D03*
X26845Y-40926D03*
G54D20*
X35077Y-39918D03*
X29722Y-39918D03*
X29722Y-43186D03*
X35077Y-43186D03*
G54D21*
X31140Y-42162D03*
X31573Y-42162D03*
X32006Y-42162D03*
X32439Y-42162D03*
X32872Y-42162D03*
X33305Y-42162D03*
X33738Y-42162D03*
X34171Y-42162D03*
G54D13*
X36625Y-35000D03*
X37375Y-35000D03*
G54D14*
X41700Y-29500D03*
X41700Y-30100D03*
G54D15*
X41700Y-26975D03*
X41700Y-26225D03*
G54D14*
X40700Y-29500D03*
X40700Y-30100D03*
G54D13*
X37075Y-28400D03*
X36325Y-28400D03*
G54D15*
X35400Y-32725D03*
X35400Y-33475D03*
X41100Y-23675D03*
X41100Y-22925D03*
X39300Y-22925D03*
X39300Y-23675D03*
X28700Y-33825D03*
X28700Y-34575D03*
G54D14*
X30600Y-33900D03*
X30600Y-34500D03*
X33300Y-33900D03*
X33300Y-34500D03*
G54D16*
X28000Y-29900D03*
X27400Y-29900D03*
X28000Y-29100D03*
X27400Y-29100D03*
X28000Y-28300D03*
X27400Y-28300D03*
X28000Y-30700D03*
X27400Y-30700D03*
G54D13*
X27225Y-31600D03*
X27975Y-31600D03*
G54D14*
X41700Y-31700D03*
X41700Y-31100D03*
X40700Y-31100D03*
X40700Y-31700D03*
X38600Y-32800D03*
X38600Y-33400D03*
G54D16*
X36700Y-31100D03*
X37300Y-31100D03*
X37300Y-30200D03*
X36700Y-30200D03*
G54D14*
X32300Y-34500D03*
X32300Y-33900D03*
X29700Y-34500D03*
X29700Y-33900D03*
G54D17*
X37750Y-32050D03*
X37750Y-34150D03*
X37250Y-32050D03*
X36750Y-32050D03*
X36250Y-32050D03*
X37250Y-34150D03*
X36750Y-34150D03*
X36250Y-34150D03*
G54D18*
X35890Y-26666D03*
X34906Y-26666D03*
X33922Y-26666D03*
X33272Y-26666D03*
X32623Y-26666D03*
X31953Y-26666D03*
X30969Y-26666D03*
X29985Y-26666D03*
X29030Y-26666D03*
X28361Y-26666D03*
X27042Y-26666D03*
G54D19*
X37869Y-18399D03*
X26845Y-17926D03*
G54D20*
X35077Y-16918D03*
X29722Y-16918D03*
X29722Y-20186D03*
X35077Y-20186D03*
G54D21*
X31140Y-19162D03*
X31573Y-19162D03*
X32006Y-19162D03*
X32439Y-19162D03*
X32872Y-19162D03*
X33305Y-19162D03*
X33738Y-19162D03*
X34171Y-19162D03*
M02*
