M48
;DRILL file {Pcbnew (2013-mar-13)-testing} date Thu 27 Jun 2013 11:50:15 AM CEST
;FORMAT={-:-/ absolute / inch / decimal}
FMAT,2
INCH,TZ
T1C0.016
T2C0.039
T3C0.040
T4C0.047
T5C0.100
%
G90
G05
M72
T1
X2.75Y-5.4
X2.8Y-6.
X3.35Y-5.25
X3.35Y-5.55
X3.35Y-5.85
X3.35Y-6.15
X3.9Y-5.4
X3.9Y-6.
X4.15Y-5.05
T2
X2.7Y-4.85
X2.7Y-4.95
X2.7Y-6.65
X2.7Y-6.75
X2.8Y-4.85
X2.8Y-4.95
X2.8Y-6.65
X2.8Y-6.75
X2.9Y-4.85
X2.9Y-4.95
X2.9Y-6.65
X2.9Y-6.75
X3.Y-4.85
X3.Y-4.95
X3.Y-6.65
X3.Y-6.75
X3.1Y-4.85
X3.1Y-4.95
X3.1Y-6.65
X3.1Y-6.75
X3.2Y-4.85
X3.2Y-4.95
X3.2Y-6.65
X3.2Y-6.75
X3.3Y-4.85
X3.3Y-4.95
X3.3Y-6.65
X3.3Y-6.75
X3.4Y-4.85
X3.4Y-4.95
X3.4Y-6.65
X3.4Y-6.75
X3.5Y-4.85
X3.5Y-4.95
X3.5Y-6.65
X3.5Y-6.75
X3.5693Y-6.3339
X3.5693Y-6.4599
X3.6Y-4.85
X3.6Y-4.95
X3.6Y-6.65
X3.6Y-6.75
X3.6677Y-6.3339
X3.6677Y-6.4599
X3.7Y-4.85
X3.7Y-4.95
X3.7Y-6.65
X3.7Y-6.75
X3.7661Y-6.3339
X3.7661Y-6.4599
X3.8Y-4.85
X3.8Y-4.95
X3.8Y-6.65
X3.8Y-6.75
X3.9Y-4.85
X3.9Y-4.95
X3.9Y-6.65
X3.9Y-6.75
X4.Y-4.85
X4.Y-4.95
X4.Y-6.65
X4.Y-6.75
T3
X4.13Y-6.376
X4.23Y-6.376
T4
X2.4701Y-5.4
X2.4701Y-6.
X4.2299Y-5.4
X4.2299Y-6.
T5
X2.4Y-6.75
X4.3Y-4.85
T0
M30
