G04 (created by PCBNEW (2013-mar-13)-testing) date Wed 07 Aug 2013 02:51:24 PM CEST*
%MOIN*%
G04 Gerber Fmt 3.4, Leading zero omitted, Abs format*
%FSLAX34Y34*%
G01*
G70*
G90*
G04 APERTURE LIST*
%ADD10C,0.005906*%
%ADD11C,0.015000*%
%ADD12C,0.012000*%
%ADD13C,0.116000*%
%ADD14R,0.052000X0.052000*%
%ADD15R,0.027800X0.035700*%
%ADD16O,0.027000X0.055400*%
%ADD17O,0.055400X0.027000*%
%ADD18R,0.153800X0.153800*%
%ADD19R,0.047500X0.035700*%
%ADD20R,0.067200X0.079000*%
%ADD21C,0.078740*%
%ADD22C,0.156000*%
%ADD23C,0.075100*%
%ADD24R,0.075100X0.075100*%
%ADD25R,0.071000X0.051000*%
%ADD26R,0.051000X0.071000*%
G04 APERTURE END LIST*
G54D10*
G54D11*
X21000Y-19000D02*
X40000Y-19000D01*
X21000Y-19500D02*
X21000Y-19000D01*
X19000Y-21000D02*
X19500Y-21000D01*
X19000Y-40000D02*
X19000Y-21000D01*
X40000Y-19000D02*
X40000Y-38000D01*
X38000Y-40000D02*
X19000Y-40000D01*
X38000Y-39000D02*
X38000Y-40000D01*
X40000Y-38000D02*
X39000Y-38000D01*
X39000Y-38000D02*
G75*
G03X38000Y-39000I0J-1000D01*
G74*
G01*
X21000Y-19500D02*
X21000Y-20000D01*
X19500Y-21000D02*
X20000Y-21000D01*
X20000Y-21000D02*
G75*
G03X21000Y-20000I0J1000D01*
G74*
G01*
G54D12*
X27328Y-43700D02*
X27042Y-43700D01*
X27014Y-44081D01*
X27042Y-44043D01*
X27099Y-44005D01*
X27242Y-44005D01*
X27299Y-44043D01*
X27328Y-44081D01*
X27357Y-44158D01*
X27357Y-44348D01*
X27328Y-44424D01*
X27299Y-44462D01*
X27242Y-44500D01*
X27099Y-44500D01*
X27042Y-44462D01*
X27014Y-44424D01*
X27557Y-43700D02*
X27928Y-43700D01*
X27728Y-44005D01*
X27814Y-44005D01*
X27871Y-44043D01*
X27899Y-44081D01*
X27928Y-44158D01*
X27928Y-44348D01*
X27899Y-44424D01*
X27871Y-44462D01*
X27814Y-44500D01*
X27642Y-44500D01*
X27585Y-44462D01*
X27557Y-44424D01*
X28214Y-44462D02*
X28214Y-44500D01*
X28185Y-44577D01*
X28157Y-44615D01*
X28414Y-43700D02*
X28785Y-43700D01*
X28585Y-44005D01*
X28671Y-44005D01*
X28728Y-44043D01*
X28757Y-44081D01*
X28785Y-44158D01*
X28785Y-44348D01*
X28757Y-44424D01*
X28728Y-44462D01*
X28671Y-44500D01*
X28500Y-44500D01*
X28442Y-44462D01*
X28414Y-44424D01*
X29300Y-43967D02*
X29300Y-44500D01*
X29157Y-43662D02*
X29014Y-44234D01*
X29385Y-44234D01*
X29728Y-43700D02*
X29785Y-43700D01*
X29842Y-43739D01*
X29871Y-43777D01*
X29900Y-43853D01*
X29928Y-44005D01*
X29928Y-44196D01*
X29900Y-44348D01*
X29871Y-44424D01*
X29842Y-44462D01*
X29785Y-44500D01*
X29728Y-44500D01*
X29671Y-44462D01*
X29642Y-44424D01*
X29614Y-44348D01*
X29585Y-44196D01*
X29585Y-44005D01*
X29614Y-43853D01*
X29642Y-43777D01*
X29671Y-43739D01*
X29728Y-43700D01*
X30642Y-44500D02*
X30642Y-43967D01*
X30642Y-44043D02*
X30671Y-44005D01*
X30728Y-43967D01*
X30814Y-43967D01*
X30871Y-44005D01*
X30900Y-44081D01*
X30900Y-44500D01*
X30900Y-44081D02*
X30928Y-44005D01*
X30985Y-43967D01*
X31071Y-43967D01*
X31128Y-44005D01*
X31157Y-44081D01*
X31157Y-44500D01*
X31442Y-44500D02*
X31442Y-43967D01*
X31442Y-44043D02*
X31471Y-44005D01*
X31528Y-43967D01*
X31614Y-43967D01*
X31671Y-44005D01*
X31700Y-44081D01*
X31700Y-44500D01*
X31700Y-44081D02*
X31728Y-44005D01*
X31785Y-43967D01*
X31871Y-43967D01*
X31928Y-44005D01*
X31957Y-44081D01*
X31957Y-44500D01*
X19000Y-43499D02*
X40000Y-43499D01*
X19000Y-40000D02*
X19000Y-44779D01*
X40000Y-40000D02*
X40000Y-44779D01*
X40000Y-43499D02*
X39557Y-43729D01*
X40000Y-43499D02*
X39557Y-43269D01*
X19000Y-43499D02*
X19443Y-43729D01*
X19000Y-43499D02*
X19443Y-43269D01*
X44577Y-27328D02*
X44577Y-27042D01*
X44196Y-27014D01*
X44234Y-27042D01*
X44272Y-27099D01*
X44272Y-27242D01*
X44234Y-27299D01*
X44196Y-27328D01*
X44119Y-27357D01*
X43929Y-27357D01*
X43853Y-27328D01*
X43815Y-27299D01*
X43777Y-27242D01*
X43777Y-27099D01*
X43815Y-27042D01*
X43853Y-27014D01*
X44577Y-27557D02*
X44577Y-27928D01*
X44272Y-27728D01*
X44272Y-27814D01*
X44234Y-27871D01*
X44196Y-27899D01*
X44119Y-27928D01*
X43929Y-27928D01*
X43853Y-27899D01*
X43815Y-27871D01*
X43777Y-27814D01*
X43777Y-27642D01*
X43815Y-27585D01*
X43853Y-27557D01*
X43815Y-28214D02*
X43777Y-28214D01*
X43700Y-28185D01*
X43662Y-28157D01*
X44577Y-28414D02*
X44577Y-28785D01*
X44272Y-28585D01*
X44272Y-28671D01*
X44234Y-28728D01*
X44196Y-28757D01*
X44119Y-28785D01*
X43929Y-28785D01*
X43853Y-28757D01*
X43815Y-28728D01*
X43777Y-28671D01*
X43777Y-28500D01*
X43815Y-28442D01*
X43853Y-28414D01*
X44310Y-29300D02*
X43777Y-29300D01*
X44615Y-29157D02*
X44043Y-29014D01*
X44043Y-29385D01*
X44577Y-29728D02*
X44577Y-29785D01*
X44539Y-29842D01*
X44500Y-29871D01*
X44424Y-29900D01*
X44272Y-29928D01*
X44081Y-29928D01*
X43929Y-29900D01*
X43853Y-29871D01*
X43815Y-29842D01*
X43777Y-29785D01*
X43777Y-29728D01*
X43815Y-29671D01*
X43853Y-29642D01*
X43929Y-29614D01*
X44081Y-29585D01*
X44272Y-29585D01*
X44424Y-29614D01*
X44500Y-29642D01*
X44539Y-29671D01*
X44577Y-29728D01*
X43777Y-30642D02*
X44310Y-30642D01*
X44234Y-30642D02*
X44272Y-30671D01*
X44310Y-30728D01*
X44310Y-30814D01*
X44272Y-30871D01*
X44196Y-30900D01*
X43777Y-30900D01*
X44196Y-30900D02*
X44272Y-30928D01*
X44310Y-30985D01*
X44310Y-31071D01*
X44272Y-31128D01*
X44196Y-31157D01*
X43777Y-31157D01*
X43777Y-31442D02*
X44310Y-31442D01*
X44234Y-31442D02*
X44272Y-31471D01*
X44310Y-31528D01*
X44310Y-31614D01*
X44272Y-31671D01*
X44196Y-31700D01*
X43777Y-31700D01*
X44196Y-31700D02*
X44272Y-31728D01*
X44310Y-31785D01*
X44310Y-31871D01*
X44272Y-31928D01*
X44196Y-31957D01*
X43777Y-31957D01*
X43499Y-19000D02*
X43499Y-40000D01*
X40000Y-19000D02*
X44779Y-19000D01*
X40000Y-40000D02*
X44779Y-40000D01*
X43499Y-40000D02*
X43269Y-39557D01*
X43499Y-40000D02*
X43729Y-39557D01*
X43499Y-19000D02*
X43269Y-19443D01*
X43499Y-19000D02*
X43729Y-19443D01*
G54D13*
X20000Y-39000D03*
G54D14*
X34543Y-27641D03*
X35243Y-27641D03*
X34893Y-28441D03*
X28100Y-24850D03*
X28100Y-24150D03*
X28900Y-24500D03*
X23508Y-23706D03*
X23508Y-23006D03*
X24308Y-23356D03*
G54D15*
X25975Y-22549D03*
X26369Y-22549D03*
X26369Y-23179D03*
X26172Y-23179D03*
X25975Y-23179D03*
G54D16*
X28679Y-32325D03*
X29664Y-32325D03*
X29861Y-32325D03*
X29270Y-32325D03*
X29467Y-32325D03*
X29073Y-32325D03*
X28876Y-32325D03*
X28876Y-34215D03*
X29073Y-34215D03*
X29467Y-34215D03*
X29270Y-34215D03*
X29664Y-34215D03*
X29861Y-34215D03*
X28679Y-34215D03*
G54D17*
X30215Y-33270D03*
X30215Y-33467D03*
X30215Y-33861D03*
X30215Y-33664D03*
X30215Y-32876D03*
X30215Y-33073D03*
X30215Y-32679D03*
X28325Y-32679D03*
X28325Y-33073D03*
X28325Y-32876D03*
X28325Y-33664D03*
X28325Y-33861D03*
X28325Y-33467D03*
X28325Y-33270D03*
G54D18*
X29270Y-33270D03*
G54D19*
X31394Y-23262D03*
X31394Y-23754D03*
X31394Y-24738D03*
X31394Y-24246D03*
X30606Y-24246D03*
X30606Y-24738D03*
X30606Y-23754D03*
X30606Y-23262D03*
G54D20*
X25295Y-29133D03*
X25295Y-30629D03*
X24389Y-30629D03*
X24389Y-29133D03*
G54D21*
X21000Y-38000D03*
X38000Y-21000D03*
G54D22*
X39000Y-20000D03*
G54D23*
X36000Y-21000D03*
X35000Y-21000D03*
X34000Y-21000D03*
X33000Y-21000D03*
X32000Y-21000D03*
X31000Y-21000D03*
X30000Y-21000D03*
X29000Y-21000D03*
X28000Y-21000D03*
X27000Y-21000D03*
X26000Y-21000D03*
X25000Y-21000D03*
X24000Y-21000D03*
G54D24*
X23000Y-21000D03*
X23000Y-20000D03*
G54D23*
X24000Y-20000D03*
X25000Y-20000D03*
X26000Y-20000D03*
X27000Y-20000D03*
X28000Y-20000D03*
X29000Y-20000D03*
X30000Y-20000D03*
X31000Y-20000D03*
X32000Y-20000D03*
X33000Y-20000D03*
X34000Y-20000D03*
X35000Y-20000D03*
X36000Y-20000D03*
X21000Y-23000D03*
X21000Y-24000D03*
X21000Y-25000D03*
X21000Y-26000D03*
X21000Y-27000D03*
X21000Y-28000D03*
X21000Y-29000D03*
X21000Y-30000D03*
X21000Y-31000D03*
X21000Y-32000D03*
X21000Y-33000D03*
X21000Y-34000D03*
X21000Y-35000D03*
G54D24*
X21000Y-36000D03*
X20000Y-36000D03*
G54D23*
X20000Y-35000D03*
X20000Y-34000D03*
X20000Y-33000D03*
X20000Y-32000D03*
X20000Y-31000D03*
X20000Y-30000D03*
X20000Y-29000D03*
X20000Y-28000D03*
X20000Y-27000D03*
X20000Y-26000D03*
X20000Y-25000D03*
X20000Y-24000D03*
X20000Y-23000D03*
X38000Y-36000D03*
X38000Y-35000D03*
X38000Y-34000D03*
X38000Y-33000D03*
X38000Y-32000D03*
X38000Y-31000D03*
X38000Y-30000D03*
X38000Y-29000D03*
X38000Y-28000D03*
X38000Y-27000D03*
X38000Y-26000D03*
X38000Y-25000D03*
X38000Y-24000D03*
G54D24*
X38000Y-23000D03*
X39000Y-23000D03*
G54D23*
X39000Y-24000D03*
X39000Y-25000D03*
X39000Y-26000D03*
X39000Y-27000D03*
X39000Y-28000D03*
X39000Y-29000D03*
X39000Y-30000D03*
X39000Y-31000D03*
X39000Y-32000D03*
X39000Y-33000D03*
X39000Y-34000D03*
X39000Y-35000D03*
X39000Y-36000D03*
G54D25*
X34922Y-30513D03*
X34922Y-29763D03*
G54D26*
X28125Y-23000D03*
X28875Y-23000D03*
G54D25*
X23632Y-25474D03*
X23632Y-24724D03*
X22304Y-22991D03*
X22304Y-23741D03*
X33000Y-23625D03*
X33000Y-24375D03*
G54D26*
X30275Y-36100D03*
X31025Y-36100D03*
X28225Y-36100D03*
X27475Y-36100D03*
G54D25*
X31502Y-28306D03*
X31502Y-27556D03*
X32502Y-28306D03*
X32502Y-27556D03*
G54D26*
X24546Y-27578D03*
X25296Y-27578D03*
X25131Y-32027D03*
X24381Y-32027D03*
G54D25*
X35354Y-33721D03*
X35354Y-32971D03*
X33464Y-34626D03*
X33464Y-33876D03*
X24803Y-34233D03*
X24803Y-33483D03*
X36368Y-31347D03*
X36368Y-32097D03*
X36516Y-22066D03*
X36516Y-22816D03*
X35433Y-22066D03*
X35433Y-22816D03*
X34350Y-22066D03*
X34350Y-22816D03*
X36368Y-30227D03*
X36368Y-29477D03*
X36437Y-27656D03*
X36437Y-28406D03*
X36516Y-23641D03*
X36516Y-24391D03*
X35433Y-23641D03*
X35433Y-24391D03*
X34350Y-23641D03*
X34350Y-24391D03*
X22530Y-24724D03*
X22530Y-25474D03*
X33267Y-32067D03*
X33267Y-31317D03*
X28346Y-29115D03*
X28346Y-28365D03*
M02*
