M48
;DRILL file {Pcbnew (2013-mar-13)-testing} date Wed 07 Aug 2013 02:51:40 PM CEST
;FORMAT={-:-/ absolute / inch / decimal}
FMAT,2
INCH,TZ
T1C0.016
T2C0.039
T3C0.100
%
G90
G05
M72
T1
X2.1759Y-2.233
X2.1809Y-2.2991
X2.1809Y-2.3741
X2.1809Y-2.5604
X2.2175Y-3.5825
X2.228Y-2.716
X2.229Y-3.012
X2.229Y-3.332
X2.2329Y-2.207
X2.2673Y-2.5869
X2.35Y-2.68
X2.3913Y-2.9134
X2.4325Y-3.5825
X2.447Y-2.586
X2.4702Y-3.465
X2.549Y-2.582
X2.5526Y-3.2028
X2.5526Y-3.3938
X2.5691Y-2.7135
X2.5772Y-3.063
X2.6Y-2.8365
X2.6132Y-3.327
X2.6392Y-3.0046
X2.6525Y-3.585
X2.6675Y-3.3575
X2.6675Y-3.465
X2.695Y-3.5
X2.7Y-3.0306
X2.709Y-3.452
X2.7416Y-3.301
X2.746Y-2.37
X2.752Y-2.578
X2.759Y-3.492
X2.7676Y-3.2149
X2.7936Y-3.2404
X2.8204Y-3.2008
X2.849Y-2.664
X2.86Y-2.55
X2.8633Y-3.1748
X2.8813Y-3.527
X2.89Y-3.1375
X2.9Y-2.6623
X2.92Y-3.0575
X2.926Y-3.327
X2.973Y-2.34
X2.9924Y-3.1908
X3.005Y-2.607
X3.0084Y-3.4532
X3.0184Y-3.2286
X3.0444Y-2.7395
X3.0444Y-3.1908
X3.0532Y-3.4136
X3.097Y-2.864
X3.103Y-3.478
X3.1137Y-3.2286
X3.146Y-3.3222
X3.1772Y-2.2033
X3.1772Y-2.4738
X3.205Y-3.175
X3.2125Y-3.5825
X3.231Y-2.456
X3.249Y-2.561
X3.249Y-2.655
X3.2713Y-3.4272
X3.3465Y-3.3482
X3.3765Y-2.2066
X3.3765Y-2.5457
X3.379Y-2.664
X3.38Y-2.883
X3.4525Y-3.1775
X3.46Y-3.5825
X3.4625Y-3.395
X3.4845Y-2.4786
X3.4845Y-2.6009
X3.5354Y-3.2068
X3.5417Y-3.0218
X3.5688Y-2.8848
X3.6131Y-2.5457
X3.6571Y-2.1671
X3.695Y-3.5825
X3.7011Y-2.2066
X3.7271Y-2.4391
X3.7531Y-2.0584
X3.9Y-2.126
T2
X2.Y-2.3
X2.Y-2.4
X2.Y-2.5
X2.Y-2.6
X2.Y-2.7
X2.Y-2.8
X2.Y-2.9
X2.Y-3.
X2.Y-3.1
X2.Y-3.2
X2.Y-3.3
X2.Y-3.4
X2.Y-3.5
X2.Y-3.6
X2.1Y-2.3
X2.1Y-2.4
X2.1Y-2.5
X2.1Y-2.6
X2.1Y-2.7
X2.1Y-2.8
X2.1Y-2.9
X2.1Y-3.
X2.1Y-3.1
X2.1Y-3.2
X2.1Y-3.3
X2.1Y-3.4
X2.1Y-3.5
X2.1Y-3.6
X2.3Y-2.
X2.3Y-2.1
X2.4Y-2.
X2.4Y-2.1
X2.5Y-2.
X2.5Y-2.1
X2.6Y-2.
X2.6Y-2.1
X2.7Y-2.
X2.7Y-2.1
X2.8Y-2.
X2.8Y-2.1
X2.9Y-2.
X2.9Y-2.1
X3.Y-2.
X3.Y-2.1
X3.1Y-2.
X3.1Y-2.1
X3.2Y-2.
X3.2Y-2.1
X3.3Y-2.
X3.3Y-2.1
X3.4Y-2.
X3.4Y-2.1
X3.5Y-2.
X3.5Y-2.1
X3.6Y-2.
X3.6Y-2.1
X3.8Y-2.3
X3.8Y-2.4
X3.8Y-2.5
X3.8Y-2.6
X3.8Y-2.7
X3.8Y-2.8
X3.8Y-2.9
X3.8Y-3.
X3.8Y-3.1
X3.8Y-3.2
X3.8Y-3.3
X3.8Y-3.4
X3.8Y-3.5
X3.8Y-3.6
X3.9Y-2.3
X3.9Y-2.4
X3.9Y-2.5
X3.9Y-2.6
X3.9Y-2.7
X3.9Y-2.8
X3.9Y-2.9
X3.9Y-3.
X3.9Y-3.1
X3.9Y-3.2
X3.9Y-3.3
X3.9Y-3.4
X3.9Y-3.5
X3.9Y-3.6
T3
X2.Y-3.9
X3.9Y-2.
T0
M30
