G04 (created by PCBNEW (2013-mar-13)-testing) date Thu 27 Jun 2013 11:50:03 AM CEST*
%MOIN*%
G04 Gerber Fmt 3.4, Leading zero omitted, Abs format*
%FSLAX34Y34*%
G01*
G70*
G90*
G04 APERTURE LIST*
%ADD10C,0.005906*%
%ADD11C,0.015000*%
%ADD12C,0.012000*%
%ADD13C,0.059100*%
%ADD14C,0.066929*%
%ADD15C,0.140000*%
%ADD16R,0.060000X0.060000*%
%ADD17C,0.060000*%
%ADD18R,0.059100X0.059100*%
%ADD19C,0.028000*%
%ADD20C,0.060000*%
%ADD21C,0.010000*%
G04 APERTURE END LIST*
G54D10*
G54D11*
X44000Y-47500D02*
X44000Y-66500D01*
X25000Y-47500D02*
X44000Y-47500D01*
X23000Y-68500D02*
X23000Y-49500D01*
X42000Y-68500D02*
X23000Y-68500D01*
X42000Y-67500D02*
X42000Y-68500D01*
X43000Y-66500D02*
X44000Y-66500D01*
X24000Y-49500D02*
X23000Y-49500D01*
X25000Y-48500D02*
X25000Y-47500D01*
X24000Y-49500D02*
G75*
G03X25000Y-48500I0J1000D01*
G74*
G01*
X43000Y-66500D02*
G75*
G03X42000Y-67500I0J-1000D01*
G74*
G01*
G54D12*
X31328Y-72700D02*
X31042Y-72700D01*
X31014Y-73081D01*
X31042Y-73043D01*
X31099Y-73005D01*
X31242Y-73005D01*
X31299Y-73043D01*
X31328Y-73081D01*
X31357Y-73158D01*
X31357Y-73348D01*
X31328Y-73424D01*
X31299Y-73462D01*
X31242Y-73500D01*
X31099Y-73500D01*
X31042Y-73462D01*
X31014Y-73424D01*
X31557Y-72700D02*
X31928Y-72700D01*
X31728Y-73005D01*
X31814Y-73005D01*
X31871Y-73043D01*
X31899Y-73081D01*
X31928Y-73158D01*
X31928Y-73348D01*
X31899Y-73424D01*
X31871Y-73462D01*
X31814Y-73500D01*
X31642Y-73500D01*
X31585Y-73462D01*
X31557Y-73424D01*
X32214Y-73462D02*
X32214Y-73500D01*
X32185Y-73577D01*
X32157Y-73615D01*
X32414Y-72700D02*
X32785Y-72700D01*
X32585Y-73005D01*
X32671Y-73005D01*
X32728Y-73043D01*
X32757Y-73081D01*
X32785Y-73158D01*
X32785Y-73348D01*
X32757Y-73424D01*
X32728Y-73462D01*
X32671Y-73500D01*
X32500Y-73500D01*
X32442Y-73462D01*
X32414Y-73424D01*
X33300Y-72967D02*
X33300Y-73500D01*
X33157Y-72662D02*
X33014Y-73234D01*
X33385Y-73234D01*
X33728Y-72700D02*
X33785Y-72700D01*
X33842Y-72739D01*
X33871Y-72777D01*
X33900Y-72853D01*
X33928Y-73005D01*
X33928Y-73196D01*
X33900Y-73348D01*
X33871Y-73424D01*
X33842Y-73462D01*
X33785Y-73500D01*
X33728Y-73500D01*
X33671Y-73462D01*
X33642Y-73424D01*
X33614Y-73348D01*
X33585Y-73196D01*
X33585Y-73005D01*
X33614Y-72853D01*
X33642Y-72777D01*
X33671Y-72739D01*
X33728Y-72700D01*
X34642Y-73500D02*
X34642Y-72967D01*
X34642Y-73043D02*
X34671Y-73005D01*
X34728Y-72967D01*
X34814Y-72967D01*
X34871Y-73005D01*
X34900Y-73081D01*
X34900Y-73500D01*
X34900Y-73081D02*
X34928Y-73005D01*
X34985Y-72967D01*
X35071Y-72967D01*
X35128Y-73005D01*
X35157Y-73081D01*
X35157Y-73500D01*
X35442Y-73500D02*
X35442Y-72967D01*
X35442Y-73043D02*
X35471Y-73005D01*
X35528Y-72967D01*
X35614Y-72967D01*
X35671Y-73005D01*
X35700Y-73081D01*
X35700Y-73500D01*
X35700Y-73081D02*
X35728Y-73005D01*
X35785Y-72967D01*
X35871Y-72967D01*
X35928Y-73005D01*
X35957Y-73081D01*
X35957Y-73500D01*
X23000Y-72499D02*
X44000Y-72499D01*
X23000Y-68500D02*
X23000Y-73779D01*
X44000Y-68500D02*
X44000Y-73779D01*
X44000Y-72499D02*
X43557Y-72729D01*
X44000Y-72499D02*
X43557Y-72269D01*
X23000Y-72499D02*
X23443Y-72729D01*
X23000Y-72499D02*
X23443Y-72269D01*
X49701Y-60171D02*
X49701Y-60457D01*
X50082Y-60485D01*
X50044Y-60457D01*
X50006Y-60400D01*
X50006Y-60257D01*
X50044Y-60200D01*
X50082Y-60171D01*
X50159Y-60142D01*
X50349Y-60142D01*
X50425Y-60171D01*
X50463Y-60200D01*
X50501Y-60257D01*
X50501Y-60400D01*
X50463Y-60457D01*
X50425Y-60485D01*
X49701Y-59942D02*
X49701Y-59571D01*
X50006Y-59771D01*
X50006Y-59685D01*
X50044Y-59628D01*
X50082Y-59600D01*
X50159Y-59571D01*
X50349Y-59571D01*
X50425Y-59600D01*
X50463Y-59628D01*
X50501Y-59685D01*
X50501Y-59857D01*
X50463Y-59914D01*
X50425Y-59942D01*
X50463Y-59285D02*
X50501Y-59285D01*
X50578Y-59314D01*
X50616Y-59342D01*
X49701Y-59085D02*
X49701Y-58714D01*
X50006Y-58914D01*
X50006Y-58828D01*
X50044Y-58771D01*
X50082Y-58742D01*
X50159Y-58714D01*
X50349Y-58714D01*
X50425Y-58742D01*
X50463Y-58771D01*
X50501Y-58828D01*
X50501Y-59000D01*
X50463Y-59057D01*
X50425Y-59085D01*
X49968Y-58200D02*
X50501Y-58200D01*
X49663Y-58342D02*
X50235Y-58485D01*
X50235Y-58114D01*
X49701Y-57771D02*
X49701Y-57714D01*
X49740Y-57657D01*
X49778Y-57628D01*
X49854Y-57600D01*
X50006Y-57571D01*
X50197Y-57571D01*
X50349Y-57600D01*
X50425Y-57628D01*
X50463Y-57657D01*
X50501Y-57714D01*
X50501Y-57771D01*
X50463Y-57828D01*
X50425Y-57857D01*
X50349Y-57885D01*
X50197Y-57914D01*
X50006Y-57914D01*
X49854Y-57885D01*
X49778Y-57857D01*
X49740Y-57828D01*
X49701Y-57771D01*
X50501Y-56857D02*
X49968Y-56857D01*
X50044Y-56857D02*
X50006Y-56828D01*
X49968Y-56771D01*
X49968Y-56685D01*
X50006Y-56628D01*
X50082Y-56599D01*
X50501Y-56599D01*
X50082Y-56599D02*
X50006Y-56571D01*
X49968Y-56514D01*
X49968Y-56428D01*
X50006Y-56371D01*
X50082Y-56342D01*
X50501Y-56342D01*
X50501Y-56057D02*
X49968Y-56057D01*
X50044Y-56057D02*
X50006Y-56028D01*
X49968Y-55971D01*
X49968Y-55885D01*
X50006Y-55828D01*
X50082Y-55799D01*
X50501Y-55799D01*
X50082Y-55799D02*
X50006Y-55771D01*
X49968Y-55714D01*
X49968Y-55628D01*
X50006Y-55571D01*
X50082Y-55542D01*
X50501Y-55542D01*
X49500Y-68500D02*
X49500Y-47500D01*
X44000Y-68500D02*
X50780Y-68500D01*
X44000Y-47500D02*
X50780Y-47500D01*
X49500Y-47500D02*
X49730Y-47943D01*
X49500Y-47500D02*
X49270Y-47943D01*
X49500Y-68500D02*
X49730Y-68057D01*
X49500Y-68500D02*
X49270Y-68057D01*
G54D13*
X36677Y-63338D03*
X35693Y-63338D03*
X37661Y-63338D03*
X37661Y-64598D03*
X36677Y-64598D03*
X35693Y-64598D03*
G54D14*
X24701Y-60000D03*
X42299Y-60000D03*
X42299Y-54000D03*
X24701Y-54000D03*
G54D15*
X43000Y-48500D03*
X24000Y-67500D03*
G54D16*
X41300Y-63760D03*
G54D17*
X42300Y-63760D03*
G54D13*
X40000Y-49500D03*
X39000Y-49500D03*
X38000Y-49500D03*
X37000Y-49500D03*
X36000Y-49500D03*
X35000Y-49500D03*
X34000Y-49500D03*
X33000Y-49500D03*
X32000Y-49500D03*
X31000Y-49500D03*
X30000Y-49500D03*
X29000Y-49500D03*
X28000Y-49500D03*
G54D18*
X27000Y-49500D03*
X27000Y-48500D03*
G54D13*
X28000Y-48500D03*
X29000Y-48500D03*
X30000Y-48500D03*
X31000Y-48500D03*
X32000Y-48500D03*
X33000Y-48500D03*
X34000Y-48500D03*
X35000Y-48500D03*
X36000Y-48500D03*
X37000Y-48500D03*
X38000Y-48500D03*
X39000Y-48500D03*
X40000Y-48500D03*
X27000Y-66500D03*
X28000Y-66500D03*
X29000Y-66500D03*
X30000Y-66500D03*
X31000Y-66500D03*
X32000Y-66500D03*
X33000Y-66500D03*
X34000Y-66500D03*
X35000Y-66500D03*
X36000Y-66500D03*
X37000Y-66500D03*
X38000Y-66500D03*
X39000Y-66500D03*
G54D18*
X40000Y-66500D03*
X40000Y-67500D03*
G54D13*
X39000Y-67500D03*
X38000Y-67500D03*
X37000Y-67500D03*
X36000Y-67500D03*
X35000Y-67500D03*
X34000Y-67500D03*
X33000Y-67500D03*
X32000Y-67500D03*
X31000Y-67500D03*
X30000Y-67500D03*
X29000Y-67500D03*
X28000Y-67500D03*
X27000Y-67500D03*
G54D19*
X33500Y-61500D03*
X41500Y-50500D03*
X33500Y-52500D03*
X33500Y-55500D03*
X27500Y-54000D03*
X39000Y-54000D03*
X33500Y-58500D03*
X39000Y-60000D03*
X28000Y-60000D03*
G54D20*
X39000Y-54000D02*
X39000Y-53000D01*
X39000Y-53000D02*
X41500Y-50500D01*
X42299Y-54000D02*
X39000Y-54000D01*
X39000Y-66500D02*
X39000Y-60000D01*
X39000Y-60000D02*
X39000Y-57299D01*
X39000Y-57299D02*
X42299Y-54000D01*
X39000Y-67500D02*
X39000Y-66500D01*
G54D10*
G36*
X43675Y-66175D02*
X43604Y-66175D01*
X43000Y-66175D01*
X42968Y-66181D01*
X42936Y-66181D01*
X42888Y-66190D01*
X42888Y-54090D01*
X42877Y-53857D01*
X42808Y-53691D01*
X42710Y-53659D01*
X42639Y-53730D01*
X42639Y-53588D01*
X42607Y-53490D01*
X42389Y-53410D01*
X42156Y-53421D01*
X41990Y-53490D01*
X41958Y-53588D01*
X42299Y-53929D01*
X42639Y-53588D01*
X42639Y-53730D01*
X42369Y-54000D01*
X42710Y-54340D01*
X42808Y-54308D01*
X42888Y-54090D01*
X42888Y-66190D01*
X42883Y-66191D01*
X42883Y-59884D01*
X42794Y-59669D01*
X42639Y-59513D01*
X42639Y-54411D01*
X42299Y-54070D01*
X42228Y-54141D01*
X42228Y-54000D01*
X41887Y-53659D01*
X41789Y-53691D01*
X41709Y-53909D01*
X41720Y-54142D01*
X41789Y-54308D01*
X41887Y-54340D01*
X42228Y-54000D01*
X42228Y-54141D01*
X41958Y-54411D01*
X41990Y-54509D01*
X42208Y-54589D01*
X42441Y-54578D01*
X42607Y-54509D01*
X42639Y-54411D01*
X42639Y-59513D01*
X42630Y-59504D01*
X42415Y-59415D01*
X42183Y-59415D01*
X41968Y-59504D01*
X41803Y-59668D01*
X41714Y-59883D01*
X41714Y-60115D01*
X41803Y-60330D01*
X41967Y-60495D01*
X42182Y-60584D01*
X42414Y-60584D01*
X42629Y-60495D01*
X42794Y-60331D01*
X42883Y-60116D01*
X42883Y-59884D01*
X42883Y-66191D01*
X42850Y-66198D01*
X42850Y-63651D01*
X42766Y-63448D01*
X42611Y-63294D01*
X42409Y-63210D01*
X42191Y-63209D01*
X41988Y-63293D01*
X41850Y-63432D01*
X41850Y-63410D01*
X41811Y-63318D01*
X41741Y-63248D01*
X41649Y-63210D01*
X41550Y-63210D01*
X40950Y-63210D01*
X40858Y-63248D01*
X40788Y-63318D01*
X40750Y-63410D01*
X40750Y-63509D01*
X40750Y-64109D01*
X40788Y-64201D01*
X40858Y-64271D01*
X40950Y-64310D01*
X41049Y-64310D01*
X41649Y-64310D01*
X41741Y-64271D01*
X41811Y-64201D01*
X41850Y-64109D01*
X41850Y-64087D01*
X41988Y-64225D01*
X42190Y-64309D01*
X42408Y-64310D01*
X42611Y-64226D01*
X42765Y-64071D01*
X42849Y-63869D01*
X42850Y-63651D01*
X42850Y-66198D01*
X42553Y-66257D01*
X42553Y-66257D01*
X42495Y-66281D01*
X42436Y-66305D01*
X42436Y-66305D01*
X42112Y-66522D01*
X42112Y-66522D01*
X42022Y-66612D01*
X41805Y-66936D01*
X41805Y-66936D01*
X41771Y-67019D01*
X41757Y-67053D01*
X41757Y-67053D01*
X41681Y-67436D01*
X41681Y-67468D01*
X41675Y-67500D01*
X41675Y-68175D01*
X40545Y-68175D01*
X40545Y-49391D01*
X40462Y-49191D01*
X40309Y-49037D01*
X40218Y-49000D01*
X40308Y-48962D01*
X40462Y-48809D01*
X40545Y-48608D01*
X40545Y-48391D01*
X40462Y-48191D01*
X40309Y-48037D01*
X40108Y-47954D01*
X39891Y-47954D01*
X39691Y-48037D01*
X39537Y-48190D01*
X39500Y-48281D01*
X39462Y-48191D01*
X39309Y-48037D01*
X39108Y-47954D01*
X38891Y-47954D01*
X38691Y-48037D01*
X38537Y-48190D01*
X38500Y-48281D01*
X38462Y-48191D01*
X38309Y-48037D01*
X38108Y-47954D01*
X37891Y-47954D01*
X37691Y-48037D01*
X37537Y-48190D01*
X37500Y-48281D01*
X37462Y-48191D01*
X37309Y-48037D01*
X37108Y-47954D01*
X36891Y-47954D01*
X36691Y-48037D01*
X36537Y-48190D01*
X36500Y-48281D01*
X36462Y-48191D01*
X36309Y-48037D01*
X36108Y-47954D01*
X35891Y-47954D01*
X35691Y-48037D01*
X35537Y-48190D01*
X35500Y-48281D01*
X35462Y-48191D01*
X35309Y-48037D01*
X35108Y-47954D01*
X34891Y-47954D01*
X34691Y-48037D01*
X34537Y-48190D01*
X34500Y-48281D01*
X34462Y-48191D01*
X34309Y-48037D01*
X34108Y-47954D01*
X33891Y-47954D01*
X33691Y-48037D01*
X33537Y-48190D01*
X33500Y-48281D01*
X33462Y-48191D01*
X33309Y-48037D01*
X33108Y-47954D01*
X32891Y-47954D01*
X32691Y-48037D01*
X32537Y-48190D01*
X32500Y-48281D01*
X32462Y-48191D01*
X32309Y-48037D01*
X32108Y-47954D01*
X31891Y-47954D01*
X31691Y-48037D01*
X31537Y-48190D01*
X31500Y-48281D01*
X31462Y-48191D01*
X31309Y-48037D01*
X31108Y-47954D01*
X30891Y-47954D01*
X30691Y-48037D01*
X30537Y-48190D01*
X30500Y-48281D01*
X30462Y-48191D01*
X30309Y-48037D01*
X30108Y-47954D01*
X29891Y-47954D01*
X29691Y-48037D01*
X29537Y-48190D01*
X29500Y-48281D01*
X29462Y-48191D01*
X29309Y-48037D01*
X29108Y-47954D01*
X28891Y-47954D01*
X28691Y-48037D01*
X28537Y-48190D01*
X28500Y-48281D01*
X28462Y-48191D01*
X28309Y-48037D01*
X28108Y-47954D01*
X27891Y-47954D01*
X27691Y-48037D01*
X27545Y-48182D01*
X27545Y-48154D01*
X27507Y-48062D01*
X27437Y-47992D01*
X27345Y-47954D01*
X27245Y-47954D01*
X26654Y-47954D01*
X26562Y-47992D01*
X26492Y-48062D01*
X26454Y-48154D01*
X26454Y-48254D01*
X26454Y-48845D01*
X26492Y-48937D01*
X26555Y-49000D01*
X26492Y-49062D01*
X26454Y-49154D01*
X26454Y-49254D01*
X26454Y-49845D01*
X26492Y-49937D01*
X26562Y-50007D01*
X26654Y-50045D01*
X26754Y-50045D01*
X27345Y-50045D01*
X27437Y-50007D01*
X27507Y-49937D01*
X27545Y-49845D01*
X27545Y-49816D01*
X27690Y-49962D01*
X27891Y-50045D01*
X28108Y-50045D01*
X28308Y-49962D01*
X28462Y-49809D01*
X28499Y-49718D01*
X28537Y-49808D01*
X28690Y-49962D01*
X28891Y-50045D01*
X29108Y-50045D01*
X29308Y-49962D01*
X29462Y-49809D01*
X29499Y-49718D01*
X29537Y-49808D01*
X29690Y-49962D01*
X29891Y-50045D01*
X30108Y-50045D01*
X30308Y-49962D01*
X30462Y-49809D01*
X30499Y-49718D01*
X30537Y-49808D01*
X30690Y-49962D01*
X30891Y-50045D01*
X31108Y-50045D01*
X31308Y-49962D01*
X31462Y-49809D01*
X31499Y-49718D01*
X31537Y-49808D01*
X31690Y-49962D01*
X31891Y-50045D01*
X32108Y-50045D01*
X32308Y-49962D01*
X32462Y-49809D01*
X32499Y-49718D01*
X32537Y-49808D01*
X32690Y-49962D01*
X32891Y-50045D01*
X33108Y-50045D01*
X33308Y-49962D01*
X33462Y-49809D01*
X33499Y-49718D01*
X33537Y-49808D01*
X33690Y-49962D01*
X33891Y-50045D01*
X34108Y-50045D01*
X34308Y-49962D01*
X34462Y-49809D01*
X34499Y-49718D01*
X34537Y-49808D01*
X34690Y-49962D01*
X34891Y-50045D01*
X35108Y-50045D01*
X35308Y-49962D01*
X35462Y-49809D01*
X35499Y-49718D01*
X35537Y-49808D01*
X35690Y-49962D01*
X35891Y-50045D01*
X36108Y-50045D01*
X36308Y-49962D01*
X36462Y-49809D01*
X36499Y-49718D01*
X36537Y-49808D01*
X36690Y-49962D01*
X36891Y-50045D01*
X37108Y-50045D01*
X37308Y-49962D01*
X37462Y-49809D01*
X37499Y-49718D01*
X37537Y-49808D01*
X37690Y-49962D01*
X37891Y-50045D01*
X38108Y-50045D01*
X38308Y-49962D01*
X38462Y-49809D01*
X38499Y-49718D01*
X38537Y-49808D01*
X38690Y-49962D01*
X38891Y-50045D01*
X39108Y-50045D01*
X39308Y-49962D01*
X39462Y-49809D01*
X39499Y-49718D01*
X39537Y-49808D01*
X39690Y-49962D01*
X39891Y-50045D01*
X40108Y-50045D01*
X40308Y-49962D01*
X40462Y-49809D01*
X40545Y-49608D01*
X40545Y-49391D01*
X40545Y-68175D01*
X40545Y-68175D01*
X40545Y-67845D01*
X40545Y-67745D01*
X40545Y-67154D01*
X40507Y-67062D01*
X40444Y-66999D01*
X40507Y-66937D01*
X40545Y-66845D01*
X40545Y-66745D01*
X40545Y-66154D01*
X40507Y-66062D01*
X40437Y-65992D01*
X40345Y-65954D01*
X40245Y-65954D01*
X39654Y-65954D01*
X39562Y-65992D01*
X39492Y-66062D01*
X39454Y-66154D01*
X39454Y-66208D01*
X39382Y-66188D01*
X39311Y-66258D01*
X39311Y-66117D01*
X39285Y-66022D01*
X39080Y-65949D01*
X38863Y-65960D01*
X38714Y-66022D01*
X38688Y-66117D01*
X39000Y-66429D01*
X39311Y-66117D01*
X39311Y-66258D01*
X39070Y-66500D01*
X39382Y-66811D01*
X39454Y-66791D01*
X39454Y-66845D01*
X39492Y-66937D01*
X39555Y-67000D01*
X39492Y-67062D01*
X39454Y-67154D01*
X39454Y-67208D01*
X39382Y-67188D01*
X39311Y-67258D01*
X39311Y-67117D01*
X39285Y-67022D01*
X39226Y-67001D01*
X39285Y-66977D01*
X39311Y-66882D01*
X39000Y-66570D01*
X38688Y-66882D01*
X38714Y-66977D01*
X38773Y-66998D01*
X38714Y-67022D01*
X38688Y-67117D01*
X39000Y-67429D01*
X39311Y-67117D01*
X39311Y-67258D01*
X39070Y-67500D01*
X39382Y-67811D01*
X39454Y-67791D01*
X39454Y-67845D01*
X39492Y-67937D01*
X39562Y-68007D01*
X39654Y-68045D01*
X39754Y-68045D01*
X40345Y-68045D01*
X40437Y-68007D01*
X40507Y-67937D01*
X40545Y-67845D01*
X40545Y-68175D01*
X39311Y-68175D01*
X39311Y-67882D01*
X39000Y-67570D01*
X38929Y-67641D01*
X38929Y-67500D01*
X38617Y-67188D01*
X38522Y-67214D01*
X38499Y-67279D01*
X38462Y-67191D01*
X38309Y-67037D01*
X38218Y-67000D01*
X38308Y-66962D01*
X38462Y-66809D01*
X38497Y-66724D01*
X38522Y-66785D01*
X38617Y-66811D01*
X38929Y-66500D01*
X38617Y-66188D01*
X38522Y-66214D01*
X38499Y-66279D01*
X38462Y-66191D01*
X38309Y-66037D01*
X38206Y-65995D01*
X38206Y-64490D01*
X38206Y-63230D01*
X38123Y-63029D01*
X37970Y-62876D01*
X37770Y-62793D01*
X37553Y-62792D01*
X37352Y-62875D01*
X37198Y-63029D01*
X37169Y-63100D01*
X37139Y-63029D01*
X36986Y-62876D01*
X36786Y-62793D01*
X36569Y-62792D01*
X36368Y-62875D01*
X36214Y-63029D01*
X36185Y-63100D01*
X36155Y-63029D01*
X36002Y-62876D01*
X35802Y-62793D01*
X35585Y-62792D01*
X35384Y-62875D01*
X35230Y-63029D01*
X35147Y-63229D01*
X35147Y-63446D01*
X35230Y-63647D01*
X35383Y-63800D01*
X35584Y-63883D01*
X35801Y-63884D01*
X36001Y-63801D01*
X36155Y-63647D01*
X36185Y-63576D01*
X36214Y-63647D01*
X36367Y-63800D01*
X36568Y-63883D01*
X36785Y-63884D01*
X36985Y-63801D01*
X37139Y-63647D01*
X37169Y-63576D01*
X37198Y-63647D01*
X37351Y-63800D01*
X37552Y-63883D01*
X37769Y-63884D01*
X37969Y-63801D01*
X38123Y-63647D01*
X38206Y-63447D01*
X38206Y-63230D01*
X38206Y-64490D01*
X38123Y-64289D01*
X37970Y-64136D01*
X37770Y-64053D01*
X37553Y-64052D01*
X37352Y-64135D01*
X37198Y-64289D01*
X37169Y-64360D01*
X37139Y-64289D01*
X36986Y-64136D01*
X36786Y-64053D01*
X36569Y-64052D01*
X36368Y-64135D01*
X36214Y-64289D01*
X36185Y-64360D01*
X36155Y-64289D01*
X36002Y-64136D01*
X35802Y-64053D01*
X35585Y-64052D01*
X35384Y-64135D01*
X35230Y-64289D01*
X35147Y-64489D01*
X35147Y-64706D01*
X35230Y-64907D01*
X35383Y-65060D01*
X35584Y-65143D01*
X35801Y-65144D01*
X36001Y-65061D01*
X36155Y-64907D01*
X36185Y-64836D01*
X36214Y-64907D01*
X36367Y-65060D01*
X36568Y-65143D01*
X36785Y-65144D01*
X36985Y-65061D01*
X37139Y-64907D01*
X37169Y-64836D01*
X37198Y-64907D01*
X37351Y-65060D01*
X37552Y-65143D01*
X37769Y-65144D01*
X37969Y-65061D01*
X38123Y-64907D01*
X38206Y-64707D01*
X38206Y-64490D01*
X38206Y-65995D01*
X38108Y-65954D01*
X37891Y-65954D01*
X37691Y-66037D01*
X37537Y-66190D01*
X37500Y-66281D01*
X37462Y-66191D01*
X37309Y-66037D01*
X37108Y-65954D01*
X36891Y-65954D01*
X36691Y-66037D01*
X36537Y-66190D01*
X36500Y-66281D01*
X36462Y-66191D01*
X36309Y-66037D01*
X36108Y-65954D01*
X35891Y-65954D01*
X35691Y-66037D01*
X35537Y-66190D01*
X35500Y-66281D01*
X35462Y-66191D01*
X35309Y-66037D01*
X35108Y-65954D01*
X34891Y-65954D01*
X34691Y-66037D01*
X34537Y-66190D01*
X34500Y-66281D01*
X34462Y-66191D01*
X34309Y-66037D01*
X34108Y-65954D01*
X33891Y-65954D01*
X33691Y-66037D01*
X33537Y-66190D01*
X33500Y-66281D01*
X33462Y-66191D01*
X33309Y-66037D01*
X33108Y-65954D01*
X32891Y-65954D01*
X32691Y-66037D01*
X32537Y-66190D01*
X32500Y-66281D01*
X32462Y-66191D01*
X32309Y-66037D01*
X32108Y-65954D01*
X31891Y-65954D01*
X31691Y-66037D01*
X31537Y-66190D01*
X31500Y-66281D01*
X31462Y-66191D01*
X31309Y-66037D01*
X31108Y-65954D01*
X30891Y-65954D01*
X30691Y-66037D01*
X30537Y-66190D01*
X30500Y-66281D01*
X30462Y-66191D01*
X30309Y-66037D01*
X30108Y-65954D01*
X29891Y-65954D01*
X29691Y-66037D01*
X29537Y-66190D01*
X29500Y-66281D01*
X29462Y-66191D01*
X29309Y-66037D01*
X29108Y-65954D01*
X28891Y-65954D01*
X28691Y-66037D01*
X28537Y-66190D01*
X28500Y-66281D01*
X28462Y-66191D01*
X28309Y-66037D01*
X28108Y-65954D01*
X27891Y-65954D01*
X27691Y-66037D01*
X27537Y-66190D01*
X27500Y-66281D01*
X27462Y-66191D01*
X27309Y-66037D01*
X27108Y-65954D01*
X26891Y-65954D01*
X26691Y-66037D01*
X26537Y-66190D01*
X26454Y-66391D01*
X26454Y-66608D01*
X26537Y-66808D01*
X26690Y-66962D01*
X26781Y-66999D01*
X26691Y-67037D01*
X26537Y-67190D01*
X26454Y-67391D01*
X26454Y-67608D01*
X26537Y-67808D01*
X26690Y-67962D01*
X26891Y-68045D01*
X27108Y-68045D01*
X27308Y-67962D01*
X27462Y-67809D01*
X27499Y-67718D01*
X27537Y-67808D01*
X27690Y-67962D01*
X27891Y-68045D01*
X28108Y-68045D01*
X28308Y-67962D01*
X28462Y-67809D01*
X28499Y-67718D01*
X28537Y-67808D01*
X28690Y-67962D01*
X28891Y-68045D01*
X29108Y-68045D01*
X29308Y-67962D01*
X29462Y-67809D01*
X29499Y-67718D01*
X29537Y-67808D01*
X29690Y-67962D01*
X29891Y-68045D01*
X30108Y-68045D01*
X30308Y-67962D01*
X30462Y-67809D01*
X30499Y-67718D01*
X30537Y-67808D01*
X30690Y-67962D01*
X30891Y-68045D01*
X31108Y-68045D01*
X31308Y-67962D01*
X31462Y-67809D01*
X31499Y-67718D01*
X31537Y-67808D01*
X31690Y-67962D01*
X31891Y-68045D01*
X32108Y-68045D01*
X32308Y-67962D01*
X32462Y-67809D01*
X32499Y-67718D01*
X32537Y-67808D01*
X32690Y-67962D01*
X32891Y-68045D01*
X33108Y-68045D01*
X33308Y-67962D01*
X33462Y-67809D01*
X33499Y-67718D01*
X33537Y-67808D01*
X33690Y-67962D01*
X33891Y-68045D01*
X34108Y-68045D01*
X34308Y-67962D01*
X34462Y-67809D01*
X34499Y-67718D01*
X34537Y-67808D01*
X34690Y-67962D01*
X34891Y-68045D01*
X35108Y-68045D01*
X35308Y-67962D01*
X35462Y-67809D01*
X35499Y-67718D01*
X35537Y-67808D01*
X35690Y-67962D01*
X35891Y-68045D01*
X36108Y-68045D01*
X36308Y-67962D01*
X36462Y-67809D01*
X36499Y-67718D01*
X36537Y-67808D01*
X36690Y-67962D01*
X36891Y-68045D01*
X37108Y-68045D01*
X37308Y-67962D01*
X37462Y-67809D01*
X37499Y-67718D01*
X37537Y-67808D01*
X37690Y-67962D01*
X37891Y-68045D01*
X38108Y-68045D01*
X38308Y-67962D01*
X38462Y-67809D01*
X38497Y-67724D01*
X38522Y-67785D01*
X38617Y-67811D01*
X38929Y-67500D01*
X38929Y-67641D01*
X38688Y-67882D01*
X38714Y-67977D01*
X38919Y-68050D01*
X39136Y-68039D01*
X39285Y-67977D01*
X39311Y-67882D01*
X39311Y-68175D01*
X25285Y-68175D01*
X25285Y-59884D01*
X25285Y-53884D01*
X25196Y-53669D01*
X25032Y-53504D01*
X24817Y-53415D01*
X24585Y-53415D01*
X24370Y-53504D01*
X24205Y-53668D01*
X24116Y-53883D01*
X24116Y-54115D01*
X24205Y-54330D01*
X24369Y-54495D01*
X24584Y-54584D01*
X24816Y-54584D01*
X25031Y-54495D01*
X25196Y-54331D01*
X25285Y-54116D01*
X25285Y-53884D01*
X25285Y-59884D01*
X25196Y-59669D01*
X25032Y-59504D01*
X24817Y-59415D01*
X24585Y-59415D01*
X24370Y-59504D01*
X24205Y-59668D01*
X24116Y-59883D01*
X24116Y-60115D01*
X24205Y-60330D01*
X24369Y-60495D01*
X24584Y-60584D01*
X24816Y-60584D01*
X25031Y-60495D01*
X25196Y-60331D01*
X25285Y-60116D01*
X25285Y-59884D01*
X25285Y-68175D01*
X24952Y-68175D01*
X24693Y-68175D01*
X24719Y-68148D01*
X24675Y-68104D01*
X24811Y-68028D01*
X24952Y-67677D01*
X24947Y-67299D01*
X24811Y-66971D01*
X24675Y-66895D01*
X24604Y-66966D01*
X24070Y-67500D01*
X24076Y-67505D01*
X24005Y-67576D01*
X24000Y-67570D01*
X23994Y-67576D01*
X23923Y-67505D01*
X23929Y-67500D01*
X23923Y-67494D01*
X23994Y-67423D01*
X24000Y-67429D01*
X24604Y-66824D01*
X24528Y-66688D01*
X24177Y-66547D01*
X23799Y-66552D01*
X23471Y-66688D01*
X23395Y-66824D01*
X23351Y-66780D01*
X23325Y-66806D01*
X23325Y-49825D01*
X24000Y-49825D01*
X24031Y-49818D01*
X24063Y-49818D01*
X24446Y-49742D01*
X24446Y-49742D01*
X24446Y-49742D01*
X24480Y-49728D01*
X24563Y-49694D01*
X24563Y-49694D01*
X24563Y-49694D01*
X24887Y-49477D01*
X24887Y-49477D01*
X24977Y-49387D01*
X24977Y-49387D01*
X24977Y-49387D01*
X25194Y-49063D01*
X25194Y-49063D01*
X25194Y-49063D01*
X25218Y-49004D01*
X25242Y-48946D01*
X25242Y-48946D01*
X25242Y-48946D01*
X25318Y-48563D01*
X25318Y-48531D01*
X25325Y-48500D01*
X25325Y-47825D01*
X42306Y-47825D01*
X42280Y-47851D01*
X42324Y-47895D01*
X42188Y-47971D01*
X42047Y-48322D01*
X42052Y-48700D01*
X42188Y-49028D01*
X42324Y-49104D01*
X42929Y-48500D01*
X42923Y-48494D01*
X42994Y-48423D01*
X43000Y-48429D01*
X43005Y-48423D01*
X43076Y-48494D01*
X43070Y-48500D01*
X43076Y-48505D01*
X43005Y-48576D01*
X43000Y-48570D01*
X42929Y-48641D01*
X42395Y-49175D01*
X42471Y-49311D01*
X42822Y-49452D01*
X43200Y-49447D01*
X43528Y-49311D01*
X43604Y-49175D01*
X43604Y-49175D01*
X43648Y-49219D01*
X43675Y-49193D01*
X43675Y-66175D01*
X43675Y-66175D01*
G37*
G54D21*
X43675Y-66175D02*
X43604Y-66175D01*
X43000Y-66175D01*
X42968Y-66181D01*
X42936Y-66181D01*
X42888Y-66190D01*
X42888Y-54090D01*
X42877Y-53857D01*
X42808Y-53691D01*
X42710Y-53659D01*
X42639Y-53730D01*
X42639Y-53588D01*
X42607Y-53490D01*
X42389Y-53410D01*
X42156Y-53421D01*
X41990Y-53490D01*
X41958Y-53588D01*
X42299Y-53929D01*
X42639Y-53588D01*
X42639Y-53730D01*
X42369Y-54000D01*
X42710Y-54340D01*
X42808Y-54308D01*
X42888Y-54090D01*
X42888Y-66190D01*
X42883Y-66191D01*
X42883Y-59884D01*
X42794Y-59669D01*
X42639Y-59513D01*
X42639Y-54411D01*
X42299Y-54070D01*
X42228Y-54141D01*
X42228Y-54000D01*
X41887Y-53659D01*
X41789Y-53691D01*
X41709Y-53909D01*
X41720Y-54142D01*
X41789Y-54308D01*
X41887Y-54340D01*
X42228Y-54000D01*
X42228Y-54141D01*
X41958Y-54411D01*
X41990Y-54509D01*
X42208Y-54589D01*
X42441Y-54578D01*
X42607Y-54509D01*
X42639Y-54411D01*
X42639Y-59513D01*
X42630Y-59504D01*
X42415Y-59415D01*
X42183Y-59415D01*
X41968Y-59504D01*
X41803Y-59668D01*
X41714Y-59883D01*
X41714Y-60115D01*
X41803Y-60330D01*
X41967Y-60495D01*
X42182Y-60584D01*
X42414Y-60584D01*
X42629Y-60495D01*
X42794Y-60331D01*
X42883Y-60116D01*
X42883Y-59884D01*
X42883Y-66191D01*
X42850Y-66198D01*
X42850Y-63651D01*
X42766Y-63448D01*
X42611Y-63294D01*
X42409Y-63210D01*
X42191Y-63209D01*
X41988Y-63293D01*
X41850Y-63432D01*
X41850Y-63410D01*
X41811Y-63318D01*
X41741Y-63248D01*
X41649Y-63210D01*
X41550Y-63210D01*
X40950Y-63210D01*
X40858Y-63248D01*
X40788Y-63318D01*
X40750Y-63410D01*
X40750Y-63509D01*
X40750Y-64109D01*
X40788Y-64201D01*
X40858Y-64271D01*
X40950Y-64310D01*
X41049Y-64310D01*
X41649Y-64310D01*
X41741Y-64271D01*
X41811Y-64201D01*
X41850Y-64109D01*
X41850Y-64087D01*
X41988Y-64225D01*
X42190Y-64309D01*
X42408Y-64310D01*
X42611Y-64226D01*
X42765Y-64071D01*
X42849Y-63869D01*
X42850Y-63651D01*
X42850Y-66198D01*
X42553Y-66257D01*
X42553Y-66257D01*
X42495Y-66281D01*
X42436Y-66305D01*
X42436Y-66305D01*
X42112Y-66522D01*
X42112Y-66522D01*
X42022Y-66612D01*
X41805Y-66936D01*
X41805Y-66936D01*
X41771Y-67019D01*
X41757Y-67053D01*
X41757Y-67053D01*
X41681Y-67436D01*
X41681Y-67468D01*
X41675Y-67500D01*
X41675Y-68175D01*
X40545Y-68175D01*
X40545Y-49391D01*
X40462Y-49191D01*
X40309Y-49037D01*
X40218Y-49000D01*
X40308Y-48962D01*
X40462Y-48809D01*
X40545Y-48608D01*
X40545Y-48391D01*
X40462Y-48191D01*
X40309Y-48037D01*
X40108Y-47954D01*
X39891Y-47954D01*
X39691Y-48037D01*
X39537Y-48190D01*
X39500Y-48281D01*
X39462Y-48191D01*
X39309Y-48037D01*
X39108Y-47954D01*
X38891Y-47954D01*
X38691Y-48037D01*
X38537Y-48190D01*
X38500Y-48281D01*
X38462Y-48191D01*
X38309Y-48037D01*
X38108Y-47954D01*
X37891Y-47954D01*
X37691Y-48037D01*
X37537Y-48190D01*
X37500Y-48281D01*
X37462Y-48191D01*
X37309Y-48037D01*
X37108Y-47954D01*
X36891Y-47954D01*
X36691Y-48037D01*
X36537Y-48190D01*
X36500Y-48281D01*
X36462Y-48191D01*
X36309Y-48037D01*
X36108Y-47954D01*
X35891Y-47954D01*
X35691Y-48037D01*
X35537Y-48190D01*
X35500Y-48281D01*
X35462Y-48191D01*
X35309Y-48037D01*
X35108Y-47954D01*
X34891Y-47954D01*
X34691Y-48037D01*
X34537Y-48190D01*
X34500Y-48281D01*
X34462Y-48191D01*
X34309Y-48037D01*
X34108Y-47954D01*
X33891Y-47954D01*
X33691Y-48037D01*
X33537Y-48190D01*
X33500Y-48281D01*
X33462Y-48191D01*
X33309Y-48037D01*
X33108Y-47954D01*
X32891Y-47954D01*
X32691Y-48037D01*
X32537Y-48190D01*
X32500Y-48281D01*
X32462Y-48191D01*
X32309Y-48037D01*
X32108Y-47954D01*
X31891Y-47954D01*
X31691Y-48037D01*
X31537Y-48190D01*
X31500Y-48281D01*
X31462Y-48191D01*
X31309Y-48037D01*
X31108Y-47954D01*
X30891Y-47954D01*
X30691Y-48037D01*
X30537Y-48190D01*
X30500Y-48281D01*
X30462Y-48191D01*
X30309Y-48037D01*
X30108Y-47954D01*
X29891Y-47954D01*
X29691Y-48037D01*
X29537Y-48190D01*
X29500Y-48281D01*
X29462Y-48191D01*
X29309Y-48037D01*
X29108Y-47954D01*
X28891Y-47954D01*
X28691Y-48037D01*
X28537Y-48190D01*
X28500Y-48281D01*
X28462Y-48191D01*
X28309Y-48037D01*
X28108Y-47954D01*
X27891Y-47954D01*
X27691Y-48037D01*
X27545Y-48182D01*
X27545Y-48154D01*
X27507Y-48062D01*
X27437Y-47992D01*
X27345Y-47954D01*
X27245Y-47954D01*
X26654Y-47954D01*
X26562Y-47992D01*
X26492Y-48062D01*
X26454Y-48154D01*
X26454Y-48254D01*
X26454Y-48845D01*
X26492Y-48937D01*
X26555Y-49000D01*
X26492Y-49062D01*
X26454Y-49154D01*
X26454Y-49254D01*
X26454Y-49845D01*
X26492Y-49937D01*
X26562Y-50007D01*
X26654Y-50045D01*
X26754Y-50045D01*
X27345Y-50045D01*
X27437Y-50007D01*
X27507Y-49937D01*
X27545Y-49845D01*
X27545Y-49816D01*
X27690Y-49962D01*
X27891Y-50045D01*
X28108Y-50045D01*
X28308Y-49962D01*
X28462Y-49809D01*
X28499Y-49718D01*
X28537Y-49808D01*
X28690Y-49962D01*
X28891Y-50045D01*
X29108Y-50045D01*
X29308Y-49962D01*
X29462Y-49809D01*
X29499Y-49718D01*
X29537Y-49808D01*
X29690Y-49962D01*
X29891Y-50045D01*
X30108Y-50045D01*
X30308Y-49962D01*
X30462Y-49809D01*
X30499Y-49718D01*
X30537Y-49808D01*
X30690Y-49962D01*
X30891Y-50045D01*
X31108Y-50045D01*
X31308Y-49962D01*
X31462Y-49809D01*
X31499Y-49718D01*
X31537Y-49808D01*
X31690Y-49962D01*
X31891Y-50045D01*
X32108Y-50045D01*
X32308Y-49962D01*
X32462Y-49809D01*
X32499Y-49718D01*
X32537Y-49808D01*
X32690Y-49962D01*
X32891Y-50045D01*
X33108Y-50045D01*
X33308Y-49962D01*
X33462Y-49809D01*
X33499Y-49718D01*
X33537Y-49808D01*
X33690Y-49962D01*
X33891Y-50045D01*
X34108Y-50045D01*
X34308Y-49962D01*
X34462Y-49809D01*
X34499Y-49718D01*
X34537Y-49808D01*
X34690Y-49962D01*
X34891Y-50045D01*
X35108Y-50045D01*
X35308Y-49962D01*
X35462Y-49809D01*
X35499Y-49718D01*
X35537Y-49808D01*
X35690Y-49962D01*
X35891Y-50045D01*
X36108Y-50045D01*
X36308Y-49962D01*
X36462Y-49809D01*
X36499Y-49718D01*
X36537Y-49808D01*
X36690Y-49962D01*
X36891Y-50045D01*
X37108Y-50045D01*
X37308Y-49962D01*
X37462Y-49809D01*
X37499Y-49718D01*
X37537Y-49808D01*
X37690Y-49962D01*
X37891Y-50045D01*
X38108Y-50045D01*
X38308Y-49962D01*
X38462Y-49809D01*
X38499Y-49718D01*
X38537Y-49808D01*
X38690Y-49962D01*
X38891Y-50045D01*
X39108Y-50045D01*
X39308Y-49962D01*
X39462Y-49809D01*
X39499Y-49718D01*
X39537Y-49808D01*
X39690Y-49962D01*
X39891Y-50045D01*
X40108Y-50045D01*
X40308Y-49962D01*
X40462Y-49809D01*
X40545Y-49608D01*
X40545Y-49391D01*
X40545Y-68175D01*
X40545Y-68175D01*
X40545Y-67845D01*
X40545Y-67745D01*
X40545Y-67154D01*
X40507Y-67062D01*
X40444Y-66999D01*
X40507Y-66937D01*
X40545Y-66845D01*
X40545Y-66745D01*
X40545Y-66154D01*
X40507Y-66062D01*
X40437Y-65992D01*
X40345Y-65954D01*
X40245Y-65954D01*
X39654Y-65954D01*
X39562Y-65992D01*
X39492Y-66062D01*
X39454Y-66154D01*
X39454Y-66208D01*
X39382Y-66188D01*
X39311Y-66258D01*
X39311Y-66117D01*
X39285Y-66022D01*
X39080Y-65949D01*
X38863Y-65960D01*
X38714Y-66022D01*
X38688Y-66117D01*
X39000Y-66429D01*
X39311Y-66117D01*
X39311Y-66258D01*
X39070Y-66500D01*
X39382Y-66811D01*
X39454Y-66791D01*
X39454Y-66845D01*
X39492Y-66937D01*
X39555Y-67000D01*
X39492Y-67062D01*
X39454Y-67154D01*
X39454Y-67208D01*
X39382Y-67188D01*
X39311Y-67258D01*
X39311Y-67117D01*
X39285Y-67022D01*
X39226Y-67001D01*
X39285Y-66977D01*
X39311Y-66882D01*
X39000Y-66570D01*
X38688Y-66882D01*
X38714Y-66977D01*
X38773Y-66998D01*
X38714Y-67022D01*
X38688Y-67117D01*
X39000Y-67429D01*
X39311Y-67117D01*
X39311Y-67258D01*
X39070Y-67500D01*
X39382Y-67811D01*
X39454Y-67791D01*
X39454Y-67845D01*
X39492Y-67937D01*
X39562Y-68007D01*
X39654Y-68045D01*
X39754Y-68045D01*
X40345Y-68045D01*
X40437Y-68007D01*
X40507Y-67937D01*
X40545Y-67845D01*
X40545Y-68175D01*
X39311Y-68175D01*
X39311Y-67882D01*
X39000Y-67570D01*
X38929Y-67641D01*
X38929Y-67500D01*
X38617Y-67188D01*
X38522Y-67214D01*
X38499Y-67279D01*
X38462Y-67191D01*
X38309Y-67037D01*
X38218Y-67000D01*
X38308Y-66962D01*
X38462Y-66809D01*
X38497Y-66724D01*
X38522Y-66785D01*
X38617Y-66811D01*
X38929Y-66500D01*
X38617Y-66188D01*
X38522Y-66214D01*
X38499Y-66279D01*
X38462Y-66191D01*
X38309Y-66037D01*
X38206Y-65995D01*
X38206Y-64490D01*
X38206Y-63230D01*
X38123Y-63029D01*
X37970Y-62876D01*
X37770Y-62793D01*
X37553Y-62792D01*
X37352Y-62875D01*
X37198Y-63029D01*
X37169Y-63100D01*
X37139Y-63029D01*
X36986Y-62876D01*
X36786Y-62793D01*
X36569Y-62792D01*
X36368Y-62875D01*
X36214Y-63029D01*
X36185Y-63100D01*
X36155Y-63029D01*
X36002Y-62876D01*
X35802Y-62793D01*
X35585Y-62792D01*
X35384Y-62875D01*
X35230Y-63029D01*
X35147Y-63229D01*
X35147Y-63446D01*
X35230Y-63647D01*
X35383Y-63800D01*
X35584Y-63883D01*
X35801Y-63884D01*
X36001Y-63801D01*
X36155Y-63647D01*
X36185Y-63576D01*
X36214Y-63647D01*
X36367Y-63800D01*
X36568Y-63883D01*
X36785Y-63884D01*
X36985Y-63801D01*
X37139Y-63647D01*
X37169Y-63576D01*
X37198Y-63647D01*
X37351Y-63800D01*
X37552Y-63883D01*
X37769Y-63884D01*
X37969Y-63801D01*
X38123Y-63647D01*
X38206Y-63447D01*
X38206Y-63230D01*
X38206Y-64490D01*
X38123Y-64289D01*
X37970Y-64136D01*
X37770Y-64053D01*
X37553Y-64052D01*
X37352Y-64135D01*
X37198Y-64289D01*
X37169Y-64360D01*
X37139Y-64289D01*
X36986Y-64136D01*
X36786Y-64053D01*
X36569Y-64052D01*
X36368Y-64135D01*
X36214Y-64289D01*
X36185Y-64360D01*
X36155Y-64289D01*
X36002Y-64136D01*
X35802Y-64053D01*
X35585Y-64052D01*
X35384Y-64135D01*
X35230Y-64289D01*
X35147Y-64489D01*
X35147Y-64706D01*
X35230Y-64907D01*
X35383Y-65060D01*
X35584Y-65143D01*
X35801Y-65144D01*
X36001Y-65061D01*
X36155Y-64907D01*
X36185Y-64836D01*
X36214Y-64907D01*
X36367Y-65060D01*
X36568Y-65143D01*
X36785Y-65144D01*
X36985Y-65061D01*
X37139Y-64907D01*
X37169Y-64836D01*
X37198Y-64907D01*
X37351Y-65060D01*
X37552Y-65143D01*
X37769Y-65144D01*
X37969Y-65061D01*
X38123Y-64907D01*
X38206Y-64707D01*
X38206Y-64490D01*
X38206Y-65995D01*
X38108Y-65954D01*
X37891Y-65954D01*
X37691Y-66037D01*
X37537Y-66190D01*
X37500Y-66281D01*
X37462Y-66191D01*
X37309Y-66037D01*
X37108Y-65954D01*
X36891Y-65954D01*
X36691Y-66037D01*
X36537Y-66190D01*
X36500Y-66281D01*
X36462Y-66191D01*
X36309Y-66037D01*
X36108Y-65954D01*
X35891Y-65954D01*
X35691Y-66037D01*
X35537Y-66190D01*
X35500Y-66281D01*
X35462Y-66191D01*
X35309Y-66037D01*
X35108Y-65954D01*
X34891Y-65954D01*
X34691Y-66037D01*
X34537Y-66190D01*
X34500Y-66281D01*
X34462Y-66191D01*
X34309Y-66037D01*
X34108Y-65954D01*
X33891Y-65954D01*
X33691Y-66037D01*
X33537Y-66190D01*
X33500Y-66281D01*
X33462Y-66191D01*
X33309Y-66037D01*
X33108Y-65954D01*
X32891Y-65954D01*
X32691Y-66037D01*
X32537Y-66190D01*
X32500Y-66281D01*
X32462Y-66191D01*
X32309Y-66037D01*
X32108Y-65954D01*
X31891Y-65954D01*
X31691Y-66037D01*
X31537Y-66190D01*
X31500Y-66281D01*
X31462Y-66191D01*
X31309Y-66037D01*
X31108Y-65954D01*
X30891Y-65954D01*
X30691Y-66037D01*
X30537Y-66190D01*
X30500Y-66281D01*
X30462Y-66191D01*
X30309Y-66037D01*
X30108Y-65954D01*
X29891Y-65954D01*
X29691Y-66037D01*
X29537Y-66190D01*
X29500Y-66281D01*
X29462Y-66191D01*
X29309Y-66037D01*
X29108Y-65954D01*
X28891Y-65954D01*
X28691Y-66037D01*
X28537Y-66190D01*
X28500Y-66281D01*
X28462Y-66191D01*
X28309Y-66037D01*
X28108Y-65954D01*
X27891Y-65954D01*
X27691Y-66037D01*
X27537Y-66190D01*
X27500Y-66281D01*
X27462Y-66191D01*
X27309Y-66037D01*
X27108Y-65954D01*
X26891Y-65954D01*
X26691Y-66037D01*
X26537Y-66190D01*
X26454Y-66391D01*
X26454Y-66608D01*
X26537Y-66808D01*
X26690Y-66962D01*
X26781Y-66999D01*
X26691Y-67037D01*
X26537Y-67190D01*
X26454Y-67391D01*
X26454Y-67608D01*
X26537Y-67808D01*
X26690Y-67962D01*
X26891Y-68045D01*
X27108Y-68045D01*
X27308Y-67962D01*
X27462Y-67809D01*
X27499Y-67718D01*
X27537Y-67808D01*
X27690Y-67962D01*
X27891Y-68045D01*
X28108Y-68045D01*
X28308Y-67962D01*
X28462Y-67809D01*
X28499Y-67718D01*
X28537Y-67808D01*
X28690Y-67962D01*
X28891Y-68045D01*
X29108Y-68045D01*
X29308Y-67962D01*
X29462Y-67809D01*
X29499Y-67718D01*
X29537Y-67808D01*
X29690Y-67962D01*
X29891Y-68045D01*
X30108Y-68045D01*
X30308Y-67962D01*
X30462Y-67809D01*
X30499Y-67718D01*
X30537Y-67808D01*
X30690Y-67962D01*
X30891Y-68045D01*
X31108Y-68045D01*
X31308Y-67962D01*
X31462Y-67809D01*
X31499Y-67718D01*
X31537Y-67808D01*
X31690Y-67962D01*
X31891Y-68045D01*
X32108Y-68045D01*
X32308Y-67962D01*
X32462Y-67809D01*
X32499Y-67718D01*
X32537Y-67808D01*
X32690Y-67962D01*
X32891Y-68045D01*
X33108Y-68045D01*
X33308Y-67962D01*
X33462Y-67809D01*
X33499Y-67718D01*
X33537Y-67808D01*
X33690Y-67962D01*
X33891Y-68045D01*
X34108Y-68045D01*
X34308Y-67962D01*
X34462Y-67809D01*
X34499Y-67718D01*
X34537Y-67808D01*
X34690Y-67962D01*
X34891Y-68045D01*
X35108Y-68045D01*
X35308Y-67962D01*
X35462Y-67809D01*
X35499Y-67718D01*
X35537Y-67808D01*
X35690Y-67962D01*
X35891Y-68045D01*
X36108Y-68045D01*
X36308Y-67962D01*
X36462Y-67809D01*
X36499Y-67718D01*
X36537Y-67808D01*
X36690Y-67962D01*
X36891Y-68045D01*
X37108Y-68045D01*
X37308Y-67962D01*
X37462Y-67809D01*
X37499Y-67718D01*
X37537Y-67808D01*
X37690Y-67962D01*
X37891Y-68045D01*
X38108Y-68045D01*
X38308Y-67962D01*
X38462Y-67809D01*
X38497Y-67724D01*
X38522Y-67785D01*
X38617Y-67811D01*
X38929Y-67500D01*
X38929Y-67641D01*
X38688Y-67882D01*
X38714Y-67977D01*
X38919Y-68050D01*
X39136Y-68039D01*
X39285Y-67977D01*
X39311Y-67882D01*
X39311Y-68175D01*
X25285Y-68175D01*
X25285Y-59884D01*
X25285Y-53884D01*
X25196Y-53669D01*
X25032Y-53504D01*
X24817Y-53415D01*
X24585Y-53415D01*
X24370Y-53504D01*
X24205Y-53668D01*
X24116Y-53883D01*
X24116Y-54115D01*
X24205Y-54330D01*
X24369Y-54495D01*
X24584Y-54584D01*
X24816Y-54584D01*
X25031Y-54495D01*
X25196Y-54331D01*
X25285Y-54116D01*
X25285Y-53884D01*
X25285Y-59884D01*
X25196Y-59669D01*
X25032Y-59504D01*
X24817Y-59415D01*
X24585Y-59415D01*
X24370Y-59504D01*
X24205Y-59668D01*
X24116Y-59883D01*
X24116Y-60115D01*
X24205Y-60330D01*
X24369Y-60495D01*
X24584Y-60584D01*
X24816Y-60584D01*
X25031Y-60495D01*
X25196Y-60331D01*
X25285Y-60116D01*
X25285Y-59884D01*
X25285Y-68175D01*
X24952Y-68175D01*
X24693Y-68175D01*
X24719Y-68148D01*
X24675Y-68104D01*
X24811Y-68028D01*
X24952Y-67677D01*
X24947Y-67299D01*
X24811Y-66971D01*
X24675Y-66895D01*
X24604Y-66966D01*
X24070Y-67500D01*
X24076Y-67505D01*
X24005Y-67576D01*
X24000Y-67570D01*
X23994Y-67576D01*
X23923Y-67505D01*
X23929Y-67500D01*
X23923Y-67494D01*
X23994Y-67423D01*
X24000Y-67429D01*
X24604Y-66824D01*
X24528Y-66688D01*
X24177Y-66547D01*
X23799Y-66552D01*
X23471Y-66688D01*
X23395Y-66824D01*
X23351Y-66780D01*
X23325Y-66806D01*
X23325Y-49825D01*
X24000Y-49825D01*
X24031Y-49818D01*
X24063Y-49818D01*
X24446Y-49742D01*
X24446Y-49742D01*
X24446Y-49742D01*
X24480Y-49728D01*
X24563Y-49694D01*
X24563Y-49694D01*
X24563Y-49694D01*
X24887Y-49477D01*
X24887Y-49477D01*
X24977Y-49387D01*
X24977Y-49387D01*
X24977Y-49387D01*
X25194Y-49063D01*
X25194Y-49063D01*
X25194Y-49063D01*
X25218Y-49004D01*
X25242Y-48946D01*
X25242Y-48946D01*
X25242Y-48946D01*
X25318Y-48563D01*
X25318Y-48531D01*
X25325Y-48500D01*
X25325Y-47825D01*
X42306Y-47825D01*
X42280Y-47851D01*
X42324Y-47895D01*
X42188Y-47971D01*
X42047Y-48322D01*
X42052Y-48700D01*
X42188Y-49028D01*
X42324Y-49104D01*
X42929Y-48500D01*
X42923Y-48494D01*
X42994Y-48423D01*
X43000Y-48429D01*
X43005Y-48423D01*
X43076Y-48494D01*
X43070Y-48500D01*
X43076Y-48505D01*
X43005Y-48576D01*
X43000Y-48570D01*
X42929Y-48641D01*
X42395Y-49175D01*
X42471Y-49311D01*
X42822Y-49452D01*
X43200Y-49447D01*
X43528Y-49311D01*
X43604Y-49175D01*
X43604Y-49175D01*
X43648Y-49219D01*
X43675Y-49193D01*
X43675Y-66175D01*
M02*
