G04 (created by PCBNEW (2013-mar-13)-testing) date Thu 27 Jun 2013 11:50:03 AM CEST*
%MOIN*%
G04 Gerber Fmt 3.4, Leading zero omitted, Abs format*
%FSLAX34Y34*%
G01*
G70*
G90*
G04 APERTURE LIST*
%ADD10C,0.005906*%
%ADD11C,0.015000*%
%ADD12C,0.012000*%
%ADD13C,0.079100*%
%ADD14C,0.086929*%
%ADD15C,0.160000*%
%ADD16R,0.080000X0.080000*%
%ADD17C,0.080000*%
%ADD18R,0.079100X0.079100*%
G04 APERTURE END LIST*
G54D10*
G54D11*
X44000Y-47500D02*
X44000Y-66500D01*
X25000Y-47500D02*
X44000Y-47500D01*
X23000Y-68500D02*
X23000Y-49500D01*
X42000Y-68500D02*
X23000Y-68500D01*
X42000Y-67500D02*
X42000Y-68500D01*
X43000Y-66500D02*
X44000Y-66500D01*
X24000Y-49500D02*
X23000Y-49500D01*
X25000Y-48500D02*
X25000Y-47500D01*
X24000Y-49500D02*
G75*
G03X25000Y-48500I0J1000D01*
G74*
G01*
X43000Y-66500D02*
G75*
G03X42000Y-67500I0J-1000D01*
G74*
G01*
G54D12*
X31328Y-72700D02*
X31042Y-72700D01*
X31014Y-73081D01*
X31042Y-73043D01*
X31099Y-73005D01*
X31242Y-73005D01*
X31299Y-73043D01*
X31328Y-73081D01*
X31357Y-73158D01*
X31357Y-73348D01*
X31328Y-73424D01*
X31299Y-73462D01*
X31242Y-73500D01*
X31099Y-73500D01*
X31042Y-73462D01*
X31014Y-73424D01*
X31557Y-72700D02*
X31928Y-72700D01*
X31728Y-73005D01*
X31814Y-73005D01*
X31871Y-73043D01*
X31899Y-73081D01*
X31928Y-73158D01*
X31928Y-73348D01*
X31899Y-73424D01*
X31871Y-73462D01*
X31814Y-73500D01*
X31642Y-73500D01*
X31585Y-73462D01*
X31557Y-73424D01*
X32214Y-73462D02*
X32214Y-73500D01*
X32185Y-73577D01*
X32157Y-73615D01*
X32414Y-72700D02*
X32785Y-72700D01*
X32585Y-73005D01*
X32671Y-73005D01*
X32728Y-73043D01*
X32757Y-73081D01*
X32785Y-73158D01*
X32785Y-73348D01*
X32757Y-73424D01*
X32728Y-73462D01*
X32671Y-73500D01*
X32500Y-73500D01*
X32442Y-73462D01*
X32414Y-73424D01*
X33300Y-72967D02*
X33300Y-73500D01*
X33157Y-72662D02*
X33014Y-73234D01*
X33385Y-73234D01*
X33728Y-72700D02*
X33785Y-72700D01*
X33842Y-72739D01*
X33871Y-72777D01*
X33900Y-72853D01*
X33928Y-73005D01*
X33928Y-73196D01*
X33900Y-73348D01*
X33871Y-73424D01*
X33842Y-73462D01*
X33785Y-73500D01*
X33728Y-73500D01*
X33671Y-73462D01*
X33642Y-73424D01*
X33614Y-73348D01*
X33585Y-73196D01*
X33585Y-73005D01*
X33614Y-72853D01*
X33642Y-72777D01*
X33671Y-72739D01*
X33728Y-72700D01*
X34642Y-73500D02*
X34642Y-72967D01*
X34642Y-73043D02*
X34671Y-73005D01*
X34728Y-72967D01*
X34814Y-72967D01*
X34871Y-73005D01*
X34900Y-73081D01*
X34900Y-73500D01*
X34900Y-73081D02*
X34928Y-73005D01*
X34985Y-72967D01*
X35071Y-72967D01*
X35128Y-73005D01*
X35157Y-73081D01*
X35157Y-73500D01*
X35442Y-73500D02*
X35442Y-72967D01*
X35442Y-73043D02*
X35471Y-73005D01*
X35528Y-72967D01*
X35614Y-72967D01*
X35671Y-73005D01*
X35700Y-73081D01*
X35700Y-73500D01*
X35700Y-73081D02*
X35728Y-73005D01*
X35785Y-72967D01*
X35871Y-72967D01*
X35928Y-73005D01*
X35957Y-73081D01*
X35957Y-73500D01*
X23000Y-72499D02*
X44000Y-72499D01*
X23000Y-68500D02*
X23000Y-73779D01*
X44000Y-68500D02*
X44000Y-73779D01*
X44000Y-72499D02*
X43557Y-72729D01*
X44000Y-72499D02*
X43557Y-72269D01*
X23000Y-72499D02*
X23443Y-72729D01*
X23000Y-72499D02*
X23443Y-72269D01*
X49701Y-60171D02*
X49701Y-60457D01*
X50082Y-60485D01*
X50044Y-60457D01*
X50006Y-60400D01*
X50006Y-60257D01*
X50044Y-60200D01*
X50082Y-60171D01*
X50159Y-60142D01*
X50349Y-60142D01*
X50425Y-60171D01*
X50463Y-60200D01*
X50501Y-60257D01*
X50501Y-60400D01*
X50463Y-60457D01*
X50425Y-60485D01*
X49701Y-59942D02*
X49701Y-59571D01*
X50006Y-59771D01*
X50006Y-59685D01*
X50044Y-59628D01*
X50082Y-59600D01*
X50159Y-59571D01*
X50349Y-59571D01*
X50425Y-59600D01*
X50463Y-59628D01*
X50501Y-59685D01*
X50501Y-59857D01*
X50463Y-59914D01*
X50425Y-59942D01*
X50463Y-59285D02*
X50501Y-59285D01*
X50578Y-59314D01*
X50616Y-59342D01*
X49701Y-59085D02*
X49701Y-58714D01*
X50006Y-58914D01*
X50006Y-58828D01*
X50044Y-58771D01*
X50082Y-58742D01*
X50159Y-58714D01*
X50349Y-58714D01*
X50425Y-58742D01*
X50463Y-58771D01*
X50501Y-58828D01*
X50501Y-59000D01*
X50463Y-59057D01*
X50425Y-59085D01*
X49968Y-58200D02*
X50501Y-58200D01*
X49663Y-58342D02*
X50235Y-58485D01*
X50235Y-58114D01*
X49701Y-57771D02*
X49701Y-57714D01*
X49740Y-57657D01*
X49778Y-57628D01*
X49854Y-57600D01*
X50006Y-57571D01*
X50197Y-57571D01*
X50349Y-57600D01*
X50425Y-57628D01*
X50463Y-57657D01*
X50501Y-57714D01*
X50501Y-57771D01*
X50463Y-57828D01*
X50425Y-57857D01*
X50349Y-57885D01*
X50197Y-57914D01*
X50006Y-57914D01*
X49854Y-57885D01*
X49778Y-57857D01*
X49740Y-57828D01*
X49701Y-57771D01*
X50501Y-56857D02*
X49968Y-56857D01*
X50044Y-56857D02*
X50006Y-56828D01*
X49968Y-56771D01*
X49968Y-56685D01*
X50006Y-56628D01*
X50082Y-56599D01*
X50501Y-56599D01*
X50082Y-56599D02*
X50006Y-56571D01*
X49968Y-56514D01*
X49968Y-56428D01*
X50006Y-56371D01*
X50082Y-56342D01*
X50501Y-56342D01*
X50501Y-56057D02*
X49968Y-56057D01*
X50044Y-56057D02*
X50006Y-56028D01*
X49968Y-55971D01*
X49968Y-55885D01*
X50006Y-55828D01*
X50082Y-55799D01*
X50501Y-55799D01*
X50082Y-55799D02*
X50006Y-55771D01*
X49968Y-55714D01*
X49968Y-55628D01*
X50006Y-55571D01*
X50082Y-55542D01*
X50501Y-55542D01*
X49500Y-68500D02*
X49500Y-47500D01*
X44000Y-68500D02*
X50780Y-68500D01*
X44000Y-47500D02*
X50780Y-47500D01*
X49500Y-47500D02*
X49730Y-47943D01*
X49500Y-47500D02*
X49270Y-47943D01*
X49500Y-68500D02*
X49730Y-68057D01*
X49500Y-68500D02*
X49270Y-68057D01*
G54D13*
X36677Y-63338D03*
X35693Y-63338D03*
X37661Y-63338D03*
X37661Y-64598D03*
X36677Y-64598D03*
X35693Y-64598D03*
G54D14*
X24701Y-60000D03*
X42299Y-60000D03*
X42299Y-54000D03*
X24701Y-54000D03*
G54D15*
X43000Y-48500D03*
X24000Y-67500D03*
G54D16*
X41300Y-63760D03*
G54D17*
X42300Y-63760D03*
G54D13*
X40000Y-49500D03*
X39000Y-49500D03*
X38000Y-49500D03*
X37000Y-49500D03*
X36000Y-49500D03*
X35000Y-49500D03*
X34000Y-49500D03*
X33000Y-49500D03*
X32000Y-49500D03*
X31000Y-49500D03*
X30000Y-49500D03*
X29000Y-49500D03*
X28000Y-49500D03*
G54D18*
X27000Y-49500D03*
X27000Y-48500D03*
G54D13*
X28000Y-48500D03*
X29000Y-48500D03*
X30000Y-48500D03*
X31000Y-48500D03*
X32000Y-48500D03*
X33000Y-48500D03*
X34000Y-48500D03*
X35000Y-48500D03*
X36000Y-48500D03*
X37000Y-48500D03*
X38000Y-48500D03*
X39000Y-48500D03*
X40000Y-48500D03*
X27000Y-66500D03*
X28000Y-66500D03*
X29000Y-66500D03*
X30000Y-66500D03*
X31000Y-66500D03*
X32000Y-66500D03*
X33000Y-66500D03*
X34000Y-66500D03*
X35000Y-66500D03*
X36000Y-66500D03*
X37000Y-66500D03*
X38000Y-66500D03*
X39000Y-66500D03*
G54D18*
X40000Y-66500D03*
X40000Y-67500D03*
G54D13*
X39000Y-67500D03*
X38000Y-67500D03*
X37000Y-67500D03*
X36000Y-67500D03*
X35000Y-67500D03*
X34000Y-67500D03*
X33000Y-67500D03*
X32000Y-67500D03*
X31000Y-67500D03*
X30000Y-67500D03*
X29000Y-67500D03*
X28000Y-67500D03*
X27000Y-67500D03*
M02*
