G04 (created by PCBNEW (2013-mar-13)-testing) date Fri 28 Jun 2013 12:11:23 PM CEST*
%MOIN*%
G04 Gerber Fmt 3.4, Leading zero omitted, Abs format*
%FSLAX34Y34*%
G01*
G70*
G90*
G04 APERTURE LIST*
%ADD10C,0.005906*%
%ADD11C,0.015000*%
%ADD12C,0.012000*%
%ADD13R,0.011800X0.047244*%
%ADD14R,0.015700X0.053100*%
%ADD15R,0.070900X0.074800*%
%ADD16R,0.074800X0.074800*%
%ADD17R,0.035000X0.055000*%
%ADD18R,0.016000X0.070900*%
G04 APERTURE END LIST*
G54D10*
G54D11*
X32500Y-49500D02*
X32500Y-28500D01*
X11500Y-49500D02*
X32500Y-49500D01*
X11500Y-28500D02*
X11500Y-49500D01*
X32500Y-28500D02*
X11500Y-28500D01*
G54D12*
X19828Y-53700D02*
X19542Y-53700D01*
X19514Y-54081D01*
X19542Y-54043D01*
X19599Y-54005D01*
X19742Y-54005D01*
X19799Y-54043D01*
X19828Y-54081D01*
X19857Y-54158D01*
X19857Y-54348D01*
X19828Y-54424D01*
X19799Y-54462D01*
X19742Y-54500D01*
X19599Y-54500D01*
X19542Y-54462D01*
X19514Y-54424D01*
X20057Y-53700D02*
X20428Y-53700D01*
X20228Y-54005D01*
X20314Y-54005D01*
X20371Y-54043D01*
X20399Y-54081D01*
X20428Y-54158D01*
X20428Y-54348D01*
X20399Y-54424D01*
X20371Y-54462D01*
X20314Y-54500D01*
X20142Y-54500D01*
X20085Y-54462D01*
X20057Y-54424D01*
X20714Y-54462D02*
X20714Y-54500D01*
X20685Y-54577D01*
X20657Y-54615D01*
X20914Y-53700D02*
X21285Y-53700D01*
X21085Y-54005D01*
X21171Y-54005D01*
X21228Y-54043D01*
X21257Y-54081D01*
X21285Y-54158D01*
X21285Y-54348D01*
X21257Y-54424D01*
X21228Y-54462D01*
X21171Y-54500D01*
X21000Y-54500D01*
X20942Y-54462D01*
X20914Y-54424D01*
X21800Y-53967D02*
X21800Y-54500D01*
X21657Y-53662D02*
X21514Y-54234D01*
X21885Y-54234D01*
X22228Y-53700D02*
X22285Y-53700D01*
X22342Y-53739D01*
X22371Y-53777D01*
X22400Y-53853D01*
X22428Y-54005D01*
X22428Y-54196D01*
X22400Y-54348D01*
X22371Y-54424D01*
X22342Y-54462D01*
X22285Y-54500D01*
X22228Y-54500D01*
X22171Y-54462D01*
X22142Y-54424D01*
X22114Y-54348D01*
X22085Y-54196D01*
X22085Y-54005D01*
X22114Y-53853D01*
X22142Y-53777D01*
X22171Y-53739D01*
X22228Y-53700D01*
X23142Y-54500D02*
X23142Y-53967D01*
X23142Y-54043D02*
X23171Y-54005D01*
X23228Y-53967D01*
X23314Y-53967D01*
X23371Y-54005D01*
X23400Y-54081D01*
X23400Y-54500D01*
X23400Y-54081D02*
X23428Y-54005D01*
X23485Y-53967D01*
X23571Y-53967D01*
X23628Y-54005D01*
X23657Y-54081D01*
X23657Y-54500D01*
X23942Y-54500D02*
X23942Y-53967D01*
X23942Y-54043D02*
X23971Y-54005D01*
X24028Y-53967D01*
X24114Y-53967D01*
X24171Y-54005D01*
X24200Y-54081D01*
X24200Y-54500D01*
X24200Y-54081D02*
X24228Y-54005D01*
X24285Y-53967D01*
X24371Y-53967D01*
X24428Y-54005D01*
X24457Y-54081D01*
X24457Y-54500D01*
X11500Y-53499D02*
X32500Y-53499D01*
X11500Y-49500D02*
X11500Y-54779D01*
X32500Y-49500D02*
X32500Y-54779D01*
X32500Y-53499D02*
X32057Y-53729D01*
X32500Y-53499D02*
X32057Y-53269D01*
X11500Y-53499D02*
X11943Y-53729D01*
X11500Y-53499D02*
X11943Y-53269D01*
X38201Y-41171D02*
X38201Y-41457D01*
X38582Y-41485D01*
X38544Y-41457D01*
X38506Y-41400D01*
X38506Y-41257D01*
X38544Y-41200D01*
X38582Y-41171D01*
X38659Y-41142D01*
X38849Y-41142D01*
X38925Y-41171D01*
X38963Y-41200D01*
X39001Y-41257D01*
X39001Y-41400D01*
X38963Y-41457D01*
X38925Y-41485D01*
X38201Y-40942D02*
X38201Y-40571D01*
X38506Y-40771D01*
X38506Y-40685D01*
X38544Y-40628D01*
X38582Y-40600D01*
X38659Y-40571D01*
X38849Y-40571D01*
X38925Y-40600D01*
X38963Y-40628D01*
X39001Y-40685D01*
X39001Y-40857D01*
X38963Y-40914D01*
X38925Y-40942D01*
X38963Y-40285D02*
X39001Y-40285D01*
X39078Y-40314D01*
X39116Y-40342D01*
X38201Y-40085D02*
X38201Y-39714D01*
X38506Y-39914D01*
X38506Y-39828D01*
X38544Y-39771D01*
X38582Y-39742D01*
X38659Y-39714D01*
X38849Y-39714D01*
X38925Y-39742D01*
X38963Y-39771D01*
X39001Y-39828D01*
X39001Y-40000D01*
X38963Y-40057D01*
X38925Y-40085D01*
X38468Y-39200D02*
X39001Y-39200D01*
X38163Y-39342D02*
X38735Y-39485D01*
X38735Y-39114D01*
X38201Y-38771D02*
X38201Y-38714D01*
X38240Y-38657D01*
X38278Y-38628D01*
X38354Y-38600D01*
X38506Y-38571D01*
X38697Y-38571D01*
X38849Y-38600D01*
X38925Y-38628D01*
X38963Y-38657D01*
X39001Y-38714D01*
X39001Y-38771D01*
X38963Y-38828D01*
X38925Y-38857D01*
X38849Y-38885D01*
X38697Y-38914D01*
X38506Y-38914D01*
X38354Y-38885D01*
X38278Y-38857D01*
X38240Y-38828D01*
X38201Y-38771D01*
X39001Y-37857D02*
X38468Y-37857D01*
X38544Y-37857D02*
X38506Y-37828D01*
X38468Y-37771D01*
X38468Y-37685D01*
X38506Y-37628D01*
X38582Y-37599D01*
X39001Y-37599D01*
X38582Y-37599D02*
X38506Y-37571D01*
X38468Y-37514D01*
X38468Y-37428D01*
X38506Y-37371D01*
X38582Y-37342D01*
X39001Y-37342D01*
X39001Y-37057D02*
X38468Y-37057D01*
X38544Y-37057D02*
X38506Y-37028D01*
X38468Y-36971D01*
X38468Y-36885D01*
X38506Y-36828D01*
X38582Y-36799D01*
X39001Y-36799D01*
X38582Y-36799D02*
X38506Y-36771D01*
X38468Y-36714D01*
X38468Y-36628D01*
X38506Y-36571D01*
X38582Y-36542D01*
X39001Y-36542D01*
X38000Y-49500D02*
X38000Y-28500D01*
X32500Y-49500D02*
X39280Y-49500D01*
X32500Y-28500D02*
X39280Y-28500D01*
X38000Y-28500D02*
X38230Y-28943D01*
X38000Y-28500D02*
X37770Y-28943D01*
X38000Y-49500D02*
X38230Y-49057D01*
X38000Y-49500D02*
X37770Y-49057D01*
G54D13*
X19122Y-39760D03*
X18866Y-39760D03*
X18354Y-39760D03*
X18610Y-39760D03*
X17843Y-39760D03*
X18098Y-39760D03*
X19634Y-39760D03*
X19378Y-39760D03*
X20146Y-39760D03*
X19890Y-39760D03*
X20402Y-39760D03*
X20657Y-39760D03*
X20657Y-42239D03*
X20402Y-42239D03*
X19890Y-42239D03*
X20146Y-42239D03*
X19378Y-42239D03*
X19634Y-42239D03*
X18098Y-42239D03*
X17843Y-42239D03*
X18610Y-42239D03*
X18354Y-42239D03*
X18866Y-42239D03*
X19122Y-42239D03*
G54D14*
X13088Y-30123D03*
X13344Y-30123D03*
X13600Y-30123D03*
X13856Y-30123D03*
X14112Y-30123D03*
G54D15*
X12025Y-29070D03*
G54D16*
X13128Y-29070D03*
X14072Y-29070D03*
G54D15*
X15175Y-29070D03*
G54D17*
X15808Y-36469D03*
X15058Y-36469D03*
X15906Y-38831D03*
X15156Y-38831D03*
X15808Y-35189D03*
X15058Y-35189D03*
X15906Y-40209D03*
X15156Y-40209D03*
X25257Y-36075D03*
X24507Y-36075D03*
X25257Y-34992D03*
X24507Y-34992D03*
X22637Y-36075D03*
X23387Y-36075D03*
X22637Y-34992D03*
X23387Y-34992D03*
X15906Y-41783D03*
X15156Y-41783D03*
X15906Y-42965D03*
X15156Y-42965D03*
X16284Y-33421D03*
X15534Y-33421D03*
G54D18*
X17326Y-37180D03*
X17576Y-37180D03*
X17836Y-37180D03*
X18096Y-37180D03*
X18346Y-37180D03*
X18606Y-37180D03*
X18866Y-37180D03*
X19116Y-37180D03*
X19376Y-37180D03*
X19626Y-37180D03*
X19886Y-37180D03*
X20146Y-37180D03*
X20396Y-37180D03*
X20656Y-37180D03*
X20656Y-34380D03*
X20396Y-34380D03*
X20156Y-34380D03*
X19886Y-34380D03*
X19626Y-34380D03*
X19376Y-34380D03*
X19116Y-34380D03*
X18866Y-34380D03*
X18606Y-34380D03*
X18346Y-34380D03*
X18096Y-34380D03*
X17836Y-34380D03*
X17576Y-34380D03*
X17326Y-34380D03*
M02*
